<?xml version="1.0" encoding="utf-8" standalone="no"?>
<!DOCTYPE svg PUBLIC "-//W3C//DTD SVG 1.1//EN"
  "http://www.w3.org/Graphics/SVG/1.1/DTD/svg11.dtd">
<svg xmlns:xlink="http://www.w3.org/1999/xlink" width="536.8754pt" height="392.4pt" viewBox="0 0 536.8754 392.4" xmlns="http://www.w3.org/2000/svg" version="1.1">
 <metadata>
  <rdf:RDF xmlns:dc="http://purl.org/dc/elements/1.1/" xmlns:cc="http://creativecommons.org/ns#" xmlns:rdf="http://www.w3.org/1999/02/22-rdf-syntax-ns#">
   <cc:Work>
    <dc:type rdf:resource="http://purl.org/dc/dcmitype/StillImage"/>
    <dc:date>2025-07-15T16:58:33.512709</dc:date>
    <dc:format>image/svg+xml</dc:format>
    <dc:creator>
     <cc:Agent>
      <dc:title>Matplotlib v3.9.2, https://matplotlib.org/</dc:title>
     </cc:Agent>
    </dc:creator>
   </cc:Work>
  </rdf:RDF>
 </metadata>
 <defs>
  <style type="text/css">*{stroke-linejoin: round; stroke-linecap: butt}</style>
 </defs>
 <g id="figure_1">
  <g id="patch_1">
   <path d="M 0 392.4 
L 536.8754 392.4 
L 536.8754 0 
L 0 0 
z
" style="fill: #ffffff"/>
  </g>
  <g id="axes_1">
   <g id="patch_2">
    <path d="M 50.45 381.2 
L 529.6754 381.2 
L 529.6754 7.2 
L 50.45 7.2 
z
" style="fill: #ffffff"/>
   </g>
   <g id="PolyCollection_1">
    <path d="M 159.364864 364.2 
L 72.232973 364.2 
L 72.784282 350.950601 
L 74.653003 338.813995 
L 77.663867 327.617658 
L 81.54733 317.226313 
L 85.978784 307.53193 
L 90.622516 298.446866 
L 95.172288 289.899032 
L 99.381981 281.828426 
L 103.082667 274.184564 
L 106.185705 266.924576 
L 108.674223 260.011742 
L 110.586981 253.414371 
L 111.999085 247.104924 
L 113.003375 241.059316 
L 113.695111 235.256365 
L 114.161216 229.677342 
L 114.474111 224.305603 
L 114.689454 219.126296 
L 114.846679 214.126111 
L 114.971225 209.293069 
L 115.07754 204.616358 
L 115.172178 200.086179 
L 115.256599 195.69363 
L 115.329474 191.430593 
L 115.38844 187.289649 
L 115.431342 183.264 
L 115.457027 179.347398 
L 115.465765 175.534091 
L 115.459368 171.81877 
L 115.441073 168.196526 
L 115.415214 164.662809 
L 115.386758 161.213394 
L 115.360748 157.844354 
L 115.34172 154.552026 
L 115.33319 151.332997 
L 115.337275 148.184072 
L 115.354515 145.102263 
L 115.38392 142.084769 
L 115.423237 139.128961 
L 115.469363 136.232366 
L 115.518845 133.392659 
L 115.568353 130.607648 
L 115.61507 127.875266 
L 115.656931 125.19356 
L 115.692711 122.560686 
L 115.721976 119.974896 
L 115.744932 117.434537 
L 115.762233 114.938038 
L 115.774774 112.483912 
L 115.783529 110.070744 
L 115.789418 107.697188 
L 115.793238 105.361967 
L 115.795629 103.06386 
L 115.797074 100.801708 
L 115.797917 98.574401 
L 115.798391 96.380883 
L 115.79865 94.220144 
L 115.798786 92.091219 
L 115.798855 89.993184 
L 115.798889 87.925156 
L 115.798905 85.886289 
L 115.798912 83.875771 
L 115.798916 81.892825 
L 115.798916 79.936705 
L 115.798916 78.006695 
L 115.798913 76.102108 
L 115.798907 74.222281 
L 115.798893 72.366579 
L 115.798863 70.534392 
L 115.798801 68.72513 
L 115.798679 66.938227 
L 115.798446 65.173137 
L 115.798014 63.429334 
L 115.79724 61.70631 
L 115.7959 60.003577 
L 115.793659 58.320662 
L 115.790034 56.657108 
L 115.784373 55.012476 
L 115.775829 53.386339 
L 115.763376 51.778288 
L 115.745849 50.187922 
L 115.722032 48.614859 
L 115.690796 47.058725 
L 115.651271 45.519159 
L 115.603041 43.995814 
L 115.546316 42.488349 
L 115.482071 40.996439 
L 115.412093 39.519765 
L 115.338926 38.058019 
L 115.265724 36.610902 
L 115.196009 35.178125 
L 115.133379 33.759405 
L 115.081214 32.35447 
L 115.042402 30.963055 
L 115.019119 29.584901 
L 115.012679 28.219759 
L 115.023447 26.867385 
L 115.050813 25.527542 
L 115.093235 24.2 
L 116.504601 24.2 
L 116.504601 24.2 
L 116.547023 25.527542 
L 116.57439 26.867385 
L 116.585157 28.219759 
L 116.578718 29.584901 
L 116.555435 30.963055 
L 116.516622 32.35447 
L 116.464457 33.759405 
L 116.401828 35.178125 
L 116.332112 36.610902 
L 116.258911 38.058019 
L 116.185744 39.519765 
L 116.115765 40.996439 
L 116.05152 42.488349 
L 115.994796 43.995814 
L 115.946565 45.519159 
L 115.907041 47.058725 
L 115.875805 48.614859 
L 115.851988 50.187922 
L 115.83446 51.778288 
L 115.822007 53.386339 
L 115.813464 55.012476 
L 115.807802 56.657108 
L 115.804178 58.320662 
L 115.801936 60.003577 
L 115.800596 61.70631 
L 115.799822 63.429334 
L 115.79939 65.173137 
L 115.799157 66.938227 
L 115.799035 68.72513 
L 115.798974 70.534392 
L 115.798944 72.366579 
L 115.79893 74.222281 
L 115.798923 76.102108 
L 115.798921 78.006695 
L 115.79892 79.936705 
L 115.798921 81.892825 
L 115.798924 83.875771 
L 115.798931 85.886289 
L 115.798948 87.925156 
L 115.798982 89.993184 
L 115.799051 92.091219 
L 115.799187 94.220144 
L 115.799445 96.380883 
L 115.79992 98.574401 
L 115.800763 100.801708 
L 115.802207 103.06386 
L 115.804598 105.361967 
L 115.808418 107.697188 
L 115.814308 110.070744 
L 115.823062 112.483912 
L 115.835604 114.938038 
L 115.852904 117.434537 
L 115.875861 119.974896 
L 115.905126 122.560686 
L 115.940906 125.19356 
L 115.982766 127.875266 
L 116.029483 130.607648 
L 116.078992 133.392659 
L 116.128473 136.232366 
L 116.1746 139.128961 
L 116.213916 142.084769 
L 116.243322 145.102263 
L 116.260561 148.184072 
L 116.264646 151.332997 
L 116.256117 154.552026 
L 116.237089 157.844354 
L 116.211078 161.213394 
L 116.182623 164.662809 
L 116.156764 168.196526 
L 116.138468 171.81877 
L 116.132072 175.534091 
L 116.140809 179.347398 
L 116.166494 183.264 
L 116.209397 187.289649 
L 116.268363 191.430593 
L 116.341238 195.69363 
L 116.425658 200.086179 
L 116.520296 204.616358 
L 116.626611 209.293069 
L 116.751158 214.126111 
L 116.908382 219.126296 
L 117.123726 224.305603 
L 117.436621 229.677342 
L 117.902725 235.256365 
L 118.594462 241.059316 
L 119.598751 247.104924 
L 121.010855 253.414371 
L 122.923614 260.011742 
L 125.412131 266.924576 
L 128.51517 274.184564 
L 132.215856 281.828426 
L 136.425549 289.899032 
L 140.975321 298.446866 
L 145.619053 307.53193 
L 150.050506 317.226313 
L 153.93397 327.617658 
L 156.944833 338.813995 
L 158.813555 350.950601 
L 159.364864 364.2 
z
" clip-path="url(#p5f6192f6c4)" style="fill: #5e548e; fill-opacity: 0.7"/>
   </g>
   <g id="PolyCollection_2">
    <path d="M 333.628646 364.2 
L 246.496755 364.2 
L 246.995709 362.457856 
L 248.939113 360.736452 
L 252.097359 359.0353 
L 256.133089 357.353929 
L 260.658681 355.691885 
L 265.295697 354.048729 
L 269.723882 352.424035 
L 273.711628 350.817394 
L 277.125558 349.228408 
L 279.922194 347.656694 
L 282.127967 346.101881 
L 283.814655 344.563609 
L 285.076121 343.041529 
L 286.009936 341.535305 
L 286.705077 340.044609 
L 287.235242 338.569124 
L 287.656421 337.108544 
L 288.007311 335.66257 
L 288.311412 334.230912 
L 288.58004 332.813291 
L 288.815729 331.409433 
L 289.015668 330.019074 
L 289.17488 328.641956 
L 289.288883 327.277831 
L 289.35566 325.926454 
L 289.376864 324.587591 
L 289.358225 323.26101 
L 289.309244 321.94649 
L 289.242249 320.643813 
L 289.170973 319.352766 
L 289.108827 318.073145 
L 289.067131 316.804749 
L 289.053583 315.547383 
L 289.071222 314.300856 
L 289.118103 313.064983 
L 289.187732 311.839584 
L 289.270183 310.624482 
L 289.353686 309.419507 
L 289.426405 308.22449 
L 289.47813 307.039268 
L 289.501662 305.863683 
L 289.493748 304.697578 
L 289.455502 303.540802 
L 289.39227 302.393206 
L 289.312969 301.254648 
L 289.228942 300.124984 
L 289.152438 299.004077 
L 289.094916 297.891793 
L 289.065419 296.788 
L 289.069311 295.692568 
L 289.107626 294.605374 
L 289.177143 293.526292 
L 289.271174 292.455204 
L 289.380868 291.391992 
L 289.496725 290.33654 
L 289.610019 289.288737 
L 289.713843 288.248472 
L 289.803668 287.215637 
L 289.877388 286.190127 
L 289.934969 285.17184 
L 289.977873 284.160673 
L 290.008424 283.156529 
L 290.02924 282.15931 
L 290.042826 281.16892 
L 290.051327 280.185269 
L 290.05643 279.208264 
L 290.059369 278.237815 
L 290.060995 277.273837 
L 290.061859 276.316243 
L 290.062301 275.364948 
L 290.062517 274.419871 
L 290.062619 273.480932 
L 290.062664 272.548049 
L 290.062682 271.621147 
L 290.062684 270.700149 
L 290.062672 269.78498 
L 290.062638 268.875567 
L 290.062564 267.971837 
L 290.062409 267.073721 
L 290.062099 266.181149 
L 290.061503 265.294053 
L 290.060404 264.412366 
L 290.058458 263.536022 
L 290.055148 262.664958 
L 290.049747 261.79911 
L 290.041293 260.938415 
L 290.028616 260.082814 
L 290.010412 259.232245 
L 289.985417 258.386651 
L 289.952646 257.545973 
L 289.911703 256.710154 
L 289.863095 255.879139 
L 289.808478 255.052873 
L 289.750744 254.231301 
L 289.69388 253.414371 
L 289.642577 252.60203 
L 289.60162 251.794228 
L 289.575152 250.990914 
L 289.565997 250.192037 
L 290.559404 250.192037 
L 290.559404 250.192037 
L 290.550248 250.990914 
L 290.523781 251.794228 
L 290.482823 252.60203 
L 290.431521 253.414371 
L 290.374657 254.231301 
L 290.316922 255.052873 
L 290.262305 255.879139 
L 290.213698 256.710154 
L 290.172755 257.545973 
L 290.139983 258.386651 
L 290.114988 259.232245 
L 290.096785 260.082814 
L 290.084107 260.938415 
L 290.075654 261.79911 
L 290.070252 262.664958 
L 290.066942 263.536022 
L 290.064996 264.412366 
L 290.063897 265.294053 
L 290.063302 266.181149 
L 290.062991 267.073721 
L 290.062836 267.971837 
L 290.062762 268.875567 
L 290.062729 269.78498 
L 290.062717 270.700149 
L 290.062719 271.621147 
L 290.062736 272.548049 
L 290.062782 273.480932 
L 290.062883 274.419871 
L 290.0631 275.364948 
L 290.063541 276.316243 
L 290.064405 277.273837 
L 290.066031 278.237815 
L 290.068971 279.208264 
L 290.074073 280.185269 
L 290.082574 281.16892 
L 290.09616 282.15931 
L 290.116976 283.156529 
L 290.147527 284.160673 
L 290.190432 285.17184 
L 290.248012 286.190127 
L 290.321732 287.215637 
L 290.411557 288.248472 
L 290.515382 289.288737 
L 290.628675 290.33654 
L 290.744533 291.391992 
L 290.854226 292.455204 
L 290.948258 293.526292 
L 291.017774 294.605374 
L 291.056089 295.692568 
L 291.059982 296.788 
L 291.030484 297.891793 
L 290.972962 299.004077 
L 290.896458 300.124984 
L 290.812431 301.254648 
L 290.73313 302.393206 
L 290.669898 303.540802 
L 290.631652 304.697578 
L 290.623739 305.863683 
L 290.64727 307.039268 
L 290.698995 308.22449 
L 290.771714 309.419507 
L 290.855217 310.624482 
L 290.937668 311.839584 
L 291.007297 313.064983 
L 291.054179 314.300856 
L 291.071818 315.547383 
L 291.058269 316.804749 
L 291.016574 318.073145 
L 290.954427 319.352766 
L 290.883151 320.643813 
L 290.816157 321.94649 
L 290.767176 323.26101 
L 290.748537 324.587591 
L 290.76974 325.926454 
L 290.836518 327.277831 
L 290.95052 328.641956 
L 291.109732 330.019074 
L 291.309671 331.409433 
L 291.54536 332.813291 
L 291.813989 334.230912 
L 292.11809 335.66257 
L 292.468979 337.108544 
L 292.890158 338.569124 
L 293.420323 340.044609 
L 294.115465 341.535305 
L 295.049279 343.041529 
L 296.310746 344.563609 
L 297.997433 346.101881 
L 300.203207 347.656694 
L 302.999843 349.228408 
L 306.413772 350.817394 
L 310.401519 352.424035 
L 314.829704 354.048729 
L 319.466719 355.691885 
L 323.992311 357.353929 
L 328.028041 359.0353 
L 331.186288 360.736452 
L 333.129691 362.457856 
L 333.628646 364.2 
z
" clip-path="url(#p5f6192f6c4)" style="fill: #e85d04; fill-opacity: 0.7"/>
   </g>
   <g id="PolyCollection_3">
    <path d="M 507.892428 364.2 
L 420.760537 364.2 
L 421.566444 363.762492 
L 423.895815 363.326304 
L 427.499543 362.891428 
L 432.011627 362.457856 
L 437.010256 362.02558 
L 442.082062 361.594592 
L 446.876162 361.164885 
L 451.13882 360.736452 
L 454.72552 360.309284 
L 457.592904 359.883374 
L 459.77695 359.458715 
L 461.365087 359.0353 
L 462.469106 358.613121 
L 463.203427 358.192171 
L 463.670694 357.772443 
L 463.954457 357.353929 
L 464.117403 356.936624 
L 464.203118 356.520519 
L 464.239572 356.105609 
L 464.242992 355.691885 
L 464.221413 355.279342 
L 464.177638 354.867973 
L 464.111609 354.457771 
L 464.022365 354.048729 
L 463.909658 353.640841 
L 463.775276 353.2341 
L 463.623973 352.8285 
L 463.463845 352.424035 
L 463.306006 352.020698 
L 463.163524 351.618483 
L 463.049724 351.217383 
L 462.976165 350.817394 
L 462.950715 350.418507 
L 462.976165 350.020718 
L 463.049724 349.62402 
L 463.163526 349.228408 
L 463.306013 348.833875 
L 463.463864 348.440416 
L 463.624026 348.048024 
L 463.775418 347.656694 
L 463.910026 347.266421 
L 464.023285 346.877198 
L 464.113822 346.48902 
L 464.182763 346.101881 
L 464.232854 345.715776 
L 464.267591 345.3307 
L 464.290527 344.946646 
L 464.304794 344.563609 
L 464.312852 344.181584 
L 464.316394 343.800566 
L 464.316368 343.42055 
L 464.313051 343.041529 
L 464.306154 342.6635 
L 464.294948 342.286456 
L 464.278431 341.910393 
L 464.255533 341.535305 
L 464.22539 341.161188 
L 464.187653 340.788036 
L 464.14279 340.415845 
L 464.092329 340.044609 
L 464.038942 339.674324 
L 463.986326 339.304985 
L 463.93883 338.936586 
L 463.900896 338.569124 
L 463.876377 338.202594 
L 463.867893 337.83699 
L 463.876377 337.472308 
L 463.900896 337.108544 
L 463.93883 336.745693 
L 463.986326 336.383749 
L 464.038943 336.02271 
L 464.09233 335.66257 
L 464.142793 335.303324 
L 464.187661 334.944969 
L 464.22541 334.5875 
L 464.25558 334.230912 
L 464.27854 333.875202 
L 464.295192 333.520364 
L 464.306677 333.166395 
L 464.314136 332.813291 
L 464.318532 332.461046 
L 464.320553 332.109658 
L 464.320553 331.759121 
L 464.318532 331.409433 
L 464.314136 331.060588 
L 464.306677 330.712582 
L 464.295192 330.365412 
L 464.27854 330.019074 
L 464.25558 329.673563 
L 464.22541 329.328876 
L 464.187661 328.985008 
L 464.142793 328.641956 
L 464.09233 328.299716 
L 464.038943 327.958285 
L 463.986326 327.617658 
L 463.93883 327.277831 
L 463.900896 326.938801 
L 463.876377 326.600564 
L 463.867893 326.263116 
L 464.785071 326.263116 
L 464.785071 326.263116 
L 464.776588 326.600564 
L 464.752068 326.938801 
L 464.714134 327.277831 
L 464.666639 327.617658 
L 464.614022 327.958285 
L 464.560635 328.299716 
L 464.510171 328.641956 
L 464.465303 328.985008 
L 464.427554 329.328876 
L 464.397385 329.673563 
L 464.374425 330.019074 
L 464.357773 330.365412 
L 464.346287 330.712582 
L 464.338829 331.060588 
L 464.334433 331.409433 
L 464.332412 331.759121 
L 464.332412 332.109658 
L 464.334433 332.461046 
L 464.338829 332.813291 
L 464.346287 333.166395 
L 464.357773 333.520364 
L 464.374425 333.875202 
L 464.397385 334.230912 
L 464.427554 334.5875 
L 464.465303 334.944969 
L 464.510171 335.303324 
L 464.560635 335.66257 
L 464.614022 336.02271 
L 464.666639 336.383749 
L 464.714134 336.745693 
L 464.752068 337.108544 
L 464.776588 337.472308 
L 464.785071 337.83699 
L 464.776588 338.202594 
L 464.752068 338.569124 
L 464.714134 338.936586 
L 464.666639 339.304985 
L 464.614022 339.674324 
L 464.560636 340.044609 
L 464.510174 340.415845 
L 464.465311 340.788036 
L 464.427574 341.161188 
L 464.397432 341.535305 
L 464.374534 341.910393 
L 464.358016 342.286456 
L 464.34681 342.6635 
L 464.339913 343.041529 
L 464.336596 343.42055 
L 464.33657 343.800566 
L 464.340113 344.181584 
L 464.34817 344.563609 
L 464.362438 344.946646 
L 464.385373 345.3307 
L 464.42011 345.715776 
L 464.470201 346.101881 
L 464.539143 346.48902 
L 464.629679 346.877198 
L 464.742938 347.266421 
L 464.877546 347.656694 
L 465.028938 348.048024 
L 465.1891 348.440416 
L 465.346951 348.833875 
L 465.489438 349.228408 
L 465.60324 349.62402 
L 465.676799 350.020718 
L 465.702249 350.418507 
L 465.676799 350.817394 
L 465.603241 351.217383 
L 465.48944 351.618483 
L 465.346958 352.020698 
L 465.189119 352.424035 
L 465.028991 352.8285 
L 464.877688 353.2341 
L 464.743307 353.640841 
L 464.630599 354.048729 
L 464.541355 354.457771 
L 464.475327 354.867973 
L 464.431551 355.279342 
L 464.409973 355.691885 
L 464.413392 356.105609 
L 464.449846 356.520519 
L 464.535562 356.936624 
L 464.698507 357.353929 
L 464.98227 357.772443 
L 465.449537 358.192171 
L 466.183859 358.613121 
L 467.287877 359.0353 
L 468.876014 359.458715 
L 471.06006 359.883374 
L 473.927444 360.309284 
L 477.514144 360.736452 
L 481.776803 361.164885 
L 486.570902 361.594592 
L 491.642708 362.02558 
L 496.641338 362.457856 
L 501.153421 362.891428 
L 504.75715 363.326304 
L 507.086521 363.762492 
L 507.892428 364.2 
z
" clip-path="url(#p5f6192f6c4)" style="fill: #914110; fill-opacity: 0.7"/>
   </g>
   <g id="matplotlib.axis_1">
    <g id="xtick_1">
     <g id="line2d_1">
      <defs>
       <path id="m7cc6bf5f07" d="M 0 0 
L 0 4 
" style="stroke: #000000; stroke-width: 0.8"/>
      </defs>
      <g>
       <use xlink:href="#m7cc6bf5f07" x="115.798918" y="381.2" style="stroke: #000000; stroke-width: 0.8"/>
      </g>
     </g>
    </g>
    <g id="xtick_2">
     <g id="line2d_2">
      <g>
       <use xlink:href="#m7cc6bf5f07" x="290.0627" y="381.2" style="stroke: #000000; stroke-width: 0.8"/>
      </g>
     </g>
    </g>
    <g id="xtick_3">
     <g id="line2d_3">
      <g>
       <use xlink:href="#m7cc6bf5f07" x="464.326482" y="381.2" style="stroke: #000000; stroke-width: 0.8"/>
      </g>
     </g>
    </g>
   </g>
   <g id="matplotlib.axis_2">
    <g id="ytick_1">
     <g id="line2d_4">
      <defs>
       <path id="mfd3494b43b" d="M 0 0 
L -4 0 
" style="stroke: #000000; stroke-width: 0.8"/>
      </defs>
      <g>
       <use xlink:href="#mfd3494b43b" x="50.45" y="331.934283" style="stroke: #000000; stroke-width: 0.8"/>
      </g>
     </g>
     <g id="text_1">
      <!-- $\mathdefault{2^{-3}}$ -->
      <g transform="translate(7.7 340.684283) scale(0.25 -0.25)">
       <defs>
        <path id="Figtree-Regular-32" d="M 365 0 
L 365 448 
Q 365 659 451 867 
Q 538 1075 701 1280 
Q 864 1485 1101 1664 
L 2029 2362 
Q 2195 2477 2320 2627 
Q 2445 2778 2515 2941 
Q 2586 3104 2586 3258 
Q 2586 3482 2477 3664 
Q 2368 3846 2169 3955 
Q 1971 4064 1702 4064 
Q 1440 4064 1241 3965 
Q 1043 3866 915 3702 
Q 787 3539 730 3354 
L 179 3462 
Q 256 3750 457 4000 
Q 659 4250 972 4403 
Q 1286 4557 1670 4557 
Q 2118 4557 2444 4387 
Q 2771 4218 2953 3926 
Q 3136 3635 3136 3264 
Q 3136 2912 2944 2598 
Q 2752 2285 2387 1990 
L 1510 1325 
Q 1254 1133 1116 921 
Q 979 710 960 480 
L 3200 480 
L 3200 0 
L 365 0 
z
" transform="scale(0.015625)"/>
        <path id="Figtree-Regular-2212" d="M 774 1677 
L 774 2131 
L 3219 2131 
L 3219 1677 
L 774 1677 
z
" transform="scale(0.015625)"/>
        <path id="Figtree-Regular-33" d="M 1722 -77 
Q 1395 -77 1129 22 
Q 864 122 675 282 
Q 486 442 378 621 
L 826 870 
Q 896 781 1001 669 
Q 1107 557 1273 480 
Q 1440 403 1683 403 
Q 2118 403 2380 652 
Q 2643 902 2643 1280 
Q 2643 1568 2486 1766 
Q 2330 1965 2035 2067 
Q 1741 2170 1331 2170 
L 1210 2170 
L 1210 2592 
L 1318 2592 
Q 1722 2592 2061 2502 
Q 2400 2413 2653 2240 
Q 2906 2067 3043 1817 
Q 3181 1568 3181 1242 
Q 3181 845 2985 547 
Q 2790 250 2457 86 
Q 2125 -77 1722 -77 
z
M 1210 2214 
L 1210 2630 
L 1331 2630 
Q 1882 2630 2205 2819 
Q 2528 3008 2528 3360 
Q 2528 3552 2425 3715 
Q 2323 3878 2128 3977 
Q 1933 4077 1677 4077 
Q 1504 4077 1353 4029 
Q 1203 3981 1078 3888 
Q 954 3795 851 3654 
L 429 3898 
Q 550 4096 739 4243 
Q 928 4390 1171 4473 
Q 1414 4557 1702 4557 
Q 2093 4557 2403 4403 
Q 2714 4250 2893 3984 
Q 3072 3718 3072 3386 
Q 3072 3104 2937 2886 
Q 2803 2669 2563 2515 
Q 2323 2362 2006 2288 
Q 1690 2214 1318 2214 
L 1210 2214 
z
" transform="scale(0.015625)"/>
       </defs>
       <use xlink:href="#Figtree-Regular-32" transform="translate(0 0.157813)"/>
       <use xlink:href="#Figtree-Regular-2212" transform="translate(56.774994 35.157813) scale(0.7)"/>
       <use xlink:href="#Figtree-Regular-33" transform="translate(100.384985 35.157813) scale(0.7)"/>
      </g>
     </g>
    </g>
    <g id="ytick_2">
     <g id="line2d_5">
      <g>
       <use xlink:href="#mfd3494b43b" x="50.45" y="231.707814" style="stroke: #000000; stroke-width: 0.8"/>
      </g>
     </g>
     <g id="text_2">
      <!-- $\mathdefault{2^{-2}}$ -->
      <g transform="translate(7.2 240.457814) scale(0.25 -0.25)">
       <use xlink:href="#Figtree-Regular-32" transform="translate(0 0.157813)"/>
       <use xlink:href="#Figtree-Regular-2212" transform="translate(56.774994 35.157813) scale(0.7)"/>
       <use xlink:href="#Figtree-Regular-32" transform="translate(100.384985 35.157813) scale(0.7)"/>
      </g>
     </g>
    </g>
    <g id="ytick_3">
     <g id="line2d_6">
      <g>
       <use xlink:href="#mfd3494b43b" x="50.45" y="131.481344" style="stroke: #000000; stroke-width: 0.8"/>
      </g>
     </g>
     <g id="text_3">
      <!-- $\mathdefault{2^{-1}}$ -->
      <g transform="translate(9.95 140.231344) scale(0.25 -0.25)">
       <defs>
        <path id="Figtree-Regular-31" d="M 1389 0 
L 1389 4192 
L 1434 4480 
L 1920 4480 
L 1920 0 
L 1389 0 
z
M 384 3328 
L 384 3821 
Q 518 3814 704 3910 
Q 890 4006 1088 4160 
Q 1286 4314 1434 4480 
L 1766 4115 
Q 1555 3891 1324 3712 
Q 1094 3533 857 3427 
Q 621 3322 384 3328 
z
" transform="scale(0.015625)"/>
       </defs>
       <use xlink:href="#Figtree-Regular-32"/>
       <use xlink:href="#Figtree-Regular-2212" transform="translate(56.774994 35) scale(0.7)"/>
       <use xlink:href="#Figtree-Regular-31" transform="translate(100.384985 35) scale(0.7)"/>
      </g>
     </g>
    </g>
    <g id="ytick_4">
     <g id="line2d_7">
      <g>
       <use xlink:href="#mfd3494b43b" x="50.45" y="31.254874" style="stroke: #000000; stroke-width: 0.8"/>
      </g>
     </g>
     <g id="text_4">
      <!-- $\mathdefault{2^{0}}$ -->
      <g transform="translate(16.7 40.004874) scale(0.25 -0.25)">
       <defs>
        <path id="Figtree-Regular-30" d="M 2048 -77 
Q 1536 -77 1139 220 
Q 742 518 518 1040 
Q 294 1562 294 2240 
Q 294 2918 518 3440 
Q 742 3962 1136 4259 
Q 1530 4557 2048 4557 
Q 2566 4557 2960 4259 
Q 3354 3962 3581 3440 
Q 3808 2918 3808 2240 
Q 3808 1562 3584 1040 
Q 3360 518 2963 220 
Q 2566 -77 2048 -77 
z
M 2048 410 
Q 2406 410 2684 646 
Q 2963 883 3120 1292 
Q 3277 1702 3277 2240 
Q 3277 2778 3120 3190 
Q 2963 3603 2684 3836 
Q 2406 4070 2048 4070 
Q 1690 4070 1414 3836 
Q 1139 3603 982 3190 
Q 826 2778 826 2240 
Q 826 1702 982 1292 
Q 1139 883 1417 646 
Q 1696 410 2048 410 
z
" transform="scale(0.015625)"/>
       </defs>
       <use xlink:href="#Figtree-Regular-32" transform="translate(0 0.157813)"/>
       <use xlink:href="#Figtree-Regular-30" transform="translate(56.774994 35.157813) scale(0.7)"/>
      </g>
     </g>
    </g>
   </g>
   <g id="LineCollection_1">
    <path d="M 94.015945 330.896921 
L 137.581891 330.896921 
" clip-path="url(#p5f6192f6c4)" style="fill: none; stroke: #001219; stroke-width: 1.5"/>
    <path d="M 268.279727 357.97376 
L 311.845673 357.97376 
" clip-path="url(#p5f6192f6c4)" style="fill: none; stroke: #001219; stroke-width: 1.5"/>
    <path d="M 442.543509 363.047833 
L 486.109455 363.047833 
" clip-path="url(#p5f6192f6c4)" style="fill: none; stroke: #001219; stroke-width: 1.5"/>
   </g>
   <g id="LineCollection_2">
    <path d="M 94.015945 24.2 
L 137.581891 24.2 
" clip-path="url(#p5f6192f6c4)" style="fill: none; stroke: #001219; stroke-width: 1.5"/>
    <path d="M 268.279727 250.192037 
L 311.845673 250.192037 
" clip-path="url(#p5f6192f6c4)" style="fill: none; stroke: #001219; stroke-width: 1.5"/>
    <path d="M 442.543509 326.263116 
L 486.109455 326.263116 
" clip-path="url(#p5f6192f6c4)" style="fill: none; stroke: #001219; stroke-width: 1.5"/>
   </g>
   <g id="LineCollection_3">
    <path d="M 94.015945 364.2 
L 137.581891 364.2 
" clip-path="url(#p5f6192f6c4)" style="fill: none; stroke: #001219; stroke-width: 1.5"/>
    <path d="M 268.279727 364.2 
L 311.845673 364.2 
" clip-path="url(#p5f6192f6c4)" style="fill: none; stroke: #001219; stroke-width: 1.5"/>
    <path d="M 442.543509 364.2 
L 486.109455 364.2 
" clip-path="url(#p5f6192f6c4)" style="fill: none; stroke: #001219; stroke-width: 1.5"/>
   </g>
   <g id="LineCollection_4">
    <path d="M 115.798918 364.2 
L 115.798918 24.2 
" clip-path="url(#p5f6192f6c4)" style="fill: none; stroke: #001219; stroke-width: 1.5"/>
    <path d="M 290.0627 364.2 
L 290.0627 250.192037 
" clip-path="url(#p5f6192f6c4)" style="fill: none; stroke: #001219; stroke-width: 1.5"/>
    <path d="M 464.326482 364.2 
L 464.326482 326.263116 
" clip-path="url(#p5f6192f6c4)" style="fill: none; stroke: #001219; stroke-width: 1.5"/>
   </g>
   <g id="LineCollection_5">
    <path d="M 94.015945 364.2 
L 137.581891 364.2 
" clip-path="url(#p5f6192f6c4)" style="fill: none; stroke: #001219; stroke-width: 1.5"/>
    <path d="M 268.279727 364.2 
L 311.845673 364.2 
" clip-path="url(#p5f6192f6c4)" style="fill: none; stroke: #001219; stroke-width: 1.5"/>
    <path d="M 442.543509 364.2 
L 486.109455 364.2 
" clip-path="url(#p5f6192f6c4)" style="fill: none; stroke: #001219; stroke-width: 1.5"/>
   </g>
   <g id="patch_3">
    <path d="M 50.45 381.2 
L 50.45 7.2 
" style="fill: none; stroke: #000000; stroke-width: 2.5; stroke-linejoin: miter; stroke-linecap: square"/>
   </g>
   <g id="patch_4">
    <path d="M 50.45 381.2 
L 529.6754 381.2 
" style="fill: none; stroke: #000000; stroke-width: 2.5; stroke-linejoin: miter; stroke-linecap: square"/>
   </g>
  </g>
 </g>
 <defs>
  <clipPath id="p5f6192f6c4">
   <rect x="50.45" y="7.2" width="479.2254" height="374"/>
  </clipPath>
 </defs>
</svg>
