<?xml version="1.0" encoding="utf-8" standalone="no"?>
<!DOCTYPE svg PUBLIC "-//W3C//DTD SVG 1.1//EN"
  "http://www.w3.org/Graphics/SVG/1.1/DTD/svg11.dtd">
<svg xmlns:xlink="http://www.w3.org/1999/xlink" width="560.16pt" height="416.16pt" viewBox="0 0 560.16 416.16" xmlns="http://www.w3.org/2000/svg" version="1.1">
 <metadata>
  <rdf:RDF xmlns:dc="http://purl.org/dc/elements/1.1/" xmlns:cc="http://creativecommons.org/ns#" xmlns:rdf="http://www.w3.org/1999/02/22-rdf-syntax-ns#">
   <cc:Work>
    <dc:type rdf:resource="http://purl.org/dc/dcmitype/StillImage"/>
    <dc:date>2026-06-15T14:28:41.707898</dc:date>
    <dc:format>image/svg+xml</dc:format>
    <dc:creator>
     <cc:Agent>
      <dc:title>Matplotlib v3.9.4, https://matplotlib.org/</dc:title>
     </cc:Agent>
    </dc:creator>
   </cc:Work>
  </rdf:RDF>
 </metadata>
 <defs>
  <style type="text/css">*{stroke-linejoin: round; stroke-linecap: butt}</style>
 </defs>
 <g id="figure_1">
  <g id="patch_1">
   <path d="M 0 416.16 
L 560.16 416.16 
L 560.16 0 
L 0 0 
z
" style="fill: #ffffff"/>
  </g>
  <g id="axes_1">
   <g id="patch_2">
    <path d="M 59.395313 374.46 
L 538.140469 374.46 
L 538.140469 7.2 
L 59.395313 7.2 
z
" style="fill: #ffffff"/>
   </g>
   <g id="patch_3">
    <path d="M 47.254557 374.46 
L 68.710598 374.46 
L 68.710598 344.045093 
L 47.254557 344.045093 
z
" clip-path="url(#p30aebc834e)" style="fill: #e63946; opacity: 0.7; stroke: #000000; stroke-linejoin: miter"/>
   </g>
   <g id="patch_4">
    <path d="M 71.094603 374.46 
L 92.550644 374.46 
L 92.550644 374.46 
L 71.094603 374.46 
z
" clip-path="url(#p30aebc834e)" style="fill: #e63946; opacity: 0.7; stroke: #000000; stroke-linejoin: miter"/>
   </g>
   <g id="patch_5">
    <path d="M 94.934648 374.46 
L 116.39069 374.46 
L 116.39069 374.46 
L 94.934648 374.46 
z
" clip-path="url(#p30aebc834e)" style="fill: #e63946; opacity: 0.7; stroke: #000000; stroke-linejoin: miter"/>
   </g>
   <g id="patch_6">
    <path d="M 118.774694 374.46 
L 140.230735 374.46 
L 140.230735 374.46 
L 118.774694 374.46 
z
" clip-path="url(#p30aebc834e)" style="fill: #e63946; opacity: 0.7; stroke: #000000; stroke-linejoin: miter"/>
   </g>
   <g id="patch_7">
    <path d="M 142.61474 374.46 
L 164.070781 374.46 
L 164.070781 374.46 
L 142.61474 374.46 
z
" clip-path="url(#p30aebc834e)" style="fill: #e63946; opacity: 0.7; stroke: #000000; stroke-linejoin: miter"/>
   </g>
   <g id="patch_8">
    <path d="M 166.454785 374.46 
L 187.910826 374.46 
L 187.910826 298.422733 
L 166.454785 298.422733 
z
" clip-path="url(#p30aebc834e)" style="fill: #e63946; opacity: 0.7; stroke: #000000; stroke-linejoin: miter"/>
   </g>
   <g id="patch_9">
    <path d="M 190.294831 374.46 
L 211.750872 374.46 
L 211.750872 359.252547 
L 190.294831 359.252547 
z
" clip-path="url(#p30aebc834e)" style="fill: #e63946; opacity: 0.7; stroke: #000000; stroke-linejoin: miter"/>
   </g>
   <g id="patch_10">
    <path d="M 214.134877 374.46 
L 235.590918 374.46 
L 235.590918 374.46 
L 214.134877 374.46 
z
" clip-path="url(#p30aebc834e)" style="fill: #e63946; opacity: 0.7; stroke: #000000; stroke-linejoin: miter"/>
   </g>
   <g id="patch_11">
    <path d="M 237.974922 374.46 
L 259.430963 374.46 
L 259.430963 298.422733 
L 237.974922 298.422733 
z
" clip-path="url(#p30aebc834e)" style="fill: #e63946; opacity: 0.7; stroke: #000000; stroke-linejoin: miter"/>
   </g>
   <g id="patch_12">
    <path d="M 261.814968 374.46 
L 283.271009 374.46 
L 283.271009 328.83764 
L 261.814968 328.83764 
z
" clip-path="url(#p30aebc834e)" style="fill: #e63946; opacity: 0.7; stroke: #000000; stroke-linejoin: miter"/>
   </g>
   <g id="patch_13">
    <path d="M 285.655013 374.46 
L 307.111055 374.46 
L 307.111055 328.83764 
L 285.655013 328.83764 
z
" clip-path="url(#p30aebc834e)" style="fill: #e63946; opacity: 0.7; stroke: #000000; stroke-linejoin: miter"/>
   </g>
   <g id="patch_14">
    <path d="M 309.495059 374.46 
L 330.9511 374.46 
L 330.9511 146.348199 
L 309.495059 146.348199 
z
" clip-path="url(#p30aebc834e)" style="fill: #e63946; opacity: 0.7; stroke: #000000; stroke-linejoin: miter"/>
   </g>
   <g id="patch_15">
    <path d="M 333.335105 374.46 
L 354.791146 374.46 
L 354.791146 24.688571 
L 333.335105 24.688571 
z
" clip-path="url(#p30aebc834e)" style="fill: #e63946; opacity: 0.7; stroke: #000000; stroke-linejoin: miter"/>
   </g>
   <g id="patch_16">
    <path d="M 357.17515 374.46 
L 378.631191 374.46 
L 378.631191 191.970559 
L 357.17515 191.970559 
z
" clip-path="url(#p30aebc834e)" style="fill: #e63946; opacity: 0.7; stroke: #000000; stroke-linejoin: miter"/>
   </g>
   <g id="patch_17">
    <path d="M 381.015196 374.46 
L 402.471237 374.46 
L 402.471237 191.970559 
L 381.015196 191.970559 
z
" clip-path="url(#p30aebc834e)" style="fill: #e63946; opacity: 0.7; stroke: #000000; stroke-linejoin: miter"/>
   </g>
   <g id="patch_18">
    <path d="M 404.855242 374.46 
L 426.311283 374.46 
L 426.311283 298.422733 
L 404.855242 298.422733 
z
" clip-path="url(#p30aebc834e)" style="fill: #e63946; opacity: 0.7; stroke: #000000; stroke-linejoin: miter"/>
   </g>
   <g id="patch_19">
    <path d="M 428.695287 374.46 
L 450.151328 374.46 
L 450.151328 359.252547 
L 428.695287 359.252547 
z
" clip-path="url(#p30aebc834e)" style="fill: #e63946; opacity: 0.7; stroke: #000000; stroke-linejoin: miter"/>
   </g>
   <g id="patch_20">
    <path d="M 452.535333 374.46 
L 473.991374 374.46 
L 473.991374 344.045093 
L 452.535333 344.045093 
z
" clip-path="url(#p30aebc834e)" style="fill: #e63946; opacity: 0.7; stroke: #000000; stroke-linejoin: miter"/>
   </g>
   <g id="patch_21">
    <path d="M 476.375378 374.46 
L 497.831419 374.46 
L 497.831419 359.252547 
L 476.375378 359.252547 
z
" clip-path="url(#p30aebc834e)" style="fill: #e63946; opacity: 0.7; stroke: #000000; stroke-linejoin: miter"/>
   </g>
   <g id="patch_22">
    <path d="M 500.215424 374.46 
L 521.671465 374.46 
L 521.671465 328.83764 
L 500.215424 328.83764 
z
" clip-path="url(#p30aebc834e)" style="fill: #e63946; opacity: 0.7; stroke: #000000; stroke-linejoin: miter"/>
   </g>
   <g id="matplotlib.axis_1">
    <g id="xtick_1">
     <g id="line2d_1">
      <defs>
       <path id="m9662ef4a06" d="M 0 0 
L 0 4 
" style="stroke: #000000; stroke-width: 0.8"/>
      </defs>
      <g>
       <use xlink:href="#m9662ef4a06" x="59.395312" y="374.46" style="stroke: #000000; stroke-width: 0.8"/>
      </g>
     </g>
     <g id="text_1">
      <!-- −25 -->
      <g transform="translate(33.039844 402.96) scale(0.3 -0.3)">
       <defs>
        <path id="Figtree-Regular-2212" d="M 774 1677 
L 774 2131 
L 3219 2131 
L 3219 1677 
L 774 1677 
z
" transform="scale(0.015625)"/>
        <path id="Figtree-Regular-32" d="M 365 0 
L 365 448 
Q 365 659 451 867 
Q 538 1075 701 1280 
Q 864 1485 1101 1664 
L 2029 2362 
Q 2195 2477 2320 2627 
Q 2445 2778 2515 2941 
Q 2586 3104 2586 3258 
Q 2586 3482 2477 3664 
Q 2368 3846 2169 3955 
Q 1971 4064 1702 4064 
Q 1440 4064 1241 3965 
Q 1043 3866 915 3702 
Q 787 3539 730 3354 
L 179 3462 
Q 256 3750 457 4000 
Q 659 4250 972 4403 
Q 1286 4557 1670 4557 
Q 2118 4557 2444 4387 
Q 2771 4218 2953 3926 
Q 3136 3635 3136 3264 
Q 3136 2912 2944 2598 
Q 2752 2285 2387 1990 
L 1510 1325 
Q 1254 1133 1116 921 
Q 979 710 960 480 
L 3200 480 
L 3200 0 
L 365 0 
z
" transform="scale(0.015625)"/>
        <path id="Figtree-Regular-35" d="M 1856 -77 
Q 1587 -77 1308 3 
Q 1030 83 784 249 
Q 538 416 378 678 
L 813 928 
Q 1037 646 1299 518 
Q 1562 390 1843 390 
Q 2285 390 2563 662 
Q 2842 934 2842 1376 
Q 2842 1811 2573 2086 
Q 2304 2362 1869 2362 
Q 1632 2362 1401 2256 
Q 1171 2150 1043 1997 
L 557 2112 
L 774 4480 
L 3162 4480 
L 3162 3994 
L 1254 3994 
L 1120 2566 
Q 1299 2675 1516 2739 
Q 1734 2803 1958 2803 
Q 2368 2803 2688 2624 
Q 3008 2445 3193 2125 
Q 3379 1805 3379 1389 
Q 3379 954 3184 624 
Q 2989 294 2646 108 
Q 2304 -77 1856 -77 
z
" transform="scale(0.015625)"/>
       </defs>
       <use xlink:href="#Figtree-Regular-2212"/>
       <use xlink:href="#Figtree-Regular-32" x="62.299988"/>
       <use xlink:href="#Figtree-Regular-35" x="118.199982"/>
      </g>
     </g>
    </g>
    <g id="xtick_2">
     <g id="line2d_2">
      <g>
       <use xlink:href="#m9662ef4a06" x="358.611035" y="374.46" style="stroke: #000000; stroke-width: 0.8"/>
      </g>
     </g>
     <g id="text_2">
      <!-- 0 -->
      <g transform="translate(348.996973 402.96) scale(0.3 -0.3)">
       <defs>
        <path id="Figtree-Regular-30" d="M 2048 -77 
Q 1536 -77 1139 220 
Q 742 518 518 1040 
Q 294 1562 294 2240 
Q 294 2918 518 3440 
Q 742 3962 1136 4259 
Q 1530 4557 2048 4557 
Q 2566 4557 2960 4259 
Q 3354 3962 3581 3440 
Q 3808 2918 3808 2240 
Q 3808 1562 3584 1040 
Q 3360 518 2963 220 
Q 2566 -77 2048 -77 
z
M 2048 410 
Q 2406 410 2684 646 
Q 2963 883 3120 1292 
Q 3277 1702 3277 2240 
Q 3277 2778 3120 3190 
Q 2963 3603 2684 3836 
Q 2406 4070 2048 4070 
Q 1690 4070 1414 3836 
Q 1139 3603 982 3190 
Q 826 2778 826 2240 
Q 826 1702 982 1292 
Q 1139 883 1417 646 
Q 1696 410 2048 410 
z
" transform="scale(0.015625)"/>
       </defs>
       <use xlink:href="#Figtree-Regular-30"/>
      </g>
     </g>
    </g>
    <g id="xtick_3">
     <g id="line2d_3">
      <g>
       <use xlink:href="#m9662ef4a06" x="538.140469" y="374.46" style="stroke: #000000; stroke-width: 0.8"/>
      </g>
     </g>
     <g id="text_3">
      <!-- 15 -->
      <g transform="translate(523.320938 402.96) scale(0.3 -0.3)">
       <defs>
        <path id="Figtree-Regular-31" d="M 1389 0 
L 1389 4192 
L 1434 4480 
L 1920 4480 
L 1920 0 
L 1389 0 
z
M 384 3328 
L 384 3821 
Q 518 3814 704 3910 
Q 890 4006 1088 4160 
Q 1286 4314 1434 4480 
L 1766 4115 
Q 1555 3891 1324 3712 
Q 1094 3533 857 3427 
Q 621 3322 384 3328 
z
" transform="scale(0.015625)"/>
       </defs>
       <use xlink:href="#Figtree-Regular-31"/>
       <use xlink:href="#Figtree-Regular-35" x="41.299988"/>
      </g>
     </g>
    </g>
   </g>
   <g id="matplotlib.axis_2">
    <g id="ytick_1">
     <g id="line2d_4">
      <defs>
       <path id="m97c255510b" d="M 0 0 
L -4 0 
" style="stroke: #000000; stroke-width: 0.8"/>
      </defs>
      <g>
       <use xlink:href="#m97c255510b" x="59.395313" y="374.46" style="stroke: #000000; stroke-width: 0.8"/>
      </g>
     </g>
     <g id="text_4">
      <!-- 0.0 -->
      <g transform="translate(7.2 384.96) scale(0.3 -0.3)">
       <defs>
        <path id="Figtree-Regular-2e" d="M 666 -90 
Q 518 -90 412 16 
Q 307 122 307 262 
Q 307 410 412 515 
Q 518 621 666 621 
Q 813 621 915 515 
Q 1018 410 1018 262 
Q 1018 122 915 16 
Q 813 -90 666 -90 
z
" transform="scale(0.015625)"/>
       </defs>
       <use xlink:href="#Figtree-Regular-30"/>
       <use xlink:href="#Figtree-Regular-2e" x="64.099991"/>
       <use xlink:href="#Figtree-Regular-30" x="84.899979"/>
      </g>
     </g>
    </g>
    <g id="ytick_2">
     <g id="line2d_5">
      <g>
       <use xlink:href="#m97c255510b" x="59.395313" y="92.750091" style="stroke: #000000; stroke-width: 0.8"/>
      </g>
     </g>
     <g id="text_5">
      <!-- 0.1 -->
      <g transform="translate(14.039063 103.250091) scale(0.3 -0.3)">
       <use xlink:href="#Figtree-Regular-30"/>
       <use xlink:href="#Figtree-Regular-2e" x="64.099991"/>
       <use xlink:href="#Figtree-Regular-31" x="84.899979"/>
      </g>
     </g>
    </g>
   </g>
   <g id="line2d_6">
    <path d="M 59.395312 374.030851 
L 64.231122 373.933352 
L 69.066932 373.81601 
L 73.902741 373.675336 
L 78.738551 373.507348 
L 83.574361 373.307526 
L 88.41017 373.07077 
L 93.24598 372.791357 
L 98.08179 372.462904 
L 102.917599 372.078336 
L 107.753409 371.629858 
L 112.589219 371.108941 
L 117.425028 370.506314 
L 122.260838 369.811975 
L 127.096648 369.015213 
L 131.932457 368.10465 
L 136.768267 367.068302 
L 141.604077 365.893663 
L 146.439886 364.567815 
L 151.275696 363.077556 
L 156.111506 361.409566 
L 160.947315 359.550586 
L 165.783125 357.487635 
L 170.618935 355.208245 
L 175.454744 352.700723 
L 180.290554 349.954433 
L 185.126364 346.960093 
L 189.962173 343.710088 
L 194.797983 340.198791 
L 199.633793 336.422876 
L 204.469602 332.381638 
L 209.305412 328.077287 
L 214.141222 323.515225 
L 218.977031 318.704295 
L 223.812841 313.65698 
L 228.648651 308.389566 
L 233.48446 302.922239 
L 238.32027 297.279126 
L 243.15608 291.488257 
L 247.991889 285.581461 
L 252.827699 279.594179 
L 257.663509 273.565195 
L 262.499318 267.536292 
L 267.335128 261.551825 
L 272.170938 255.658224 
L 277.006747 249.903427 
L 281.842557 244.336259 
L 286.678366 239.005761 
L 291.514176 233.960483 
L 296.349986 229.247757 
L 301.185795 224.912966 
L 306.021605 220.998814 
L 310.857415 217.544638 
L 315.693224 214.58574 
L 320.529034 212.152793 
L 325.364844 210.271312 
L 330.200653 208.961207 
L 335.036463 208.236433 
L 339.872273 208.10474 
L 344.708082 208.567539 
L 349.543892 209.619877 
L 354.379702 211.250519 
L 359.215511 213.442156 
L 364.051321 216.171705 
L 368.887131 219.410716 
L 373.72294 223.125864 
L 378.55875 227.279522 
L 383.39456 231.830393 
L 388.230369 236.73419 
L 393.066179 241.944355 
L 397.901989 247.412786 
L 402.737798 253.090571 
L 407.573608 258.928705 
L 412.409418 264.878777 
L 417.245227 270.893615 
L 422.081037 276.92788 
L 426.916847 282.938595 
L 431.752656 288.8856 
L 436.588466 294.731935 
L 441.424276 300.444147 
L 446.260085 305.992503 
L 451.095895 311.351142 
L 455.931705 316.498133 
L 460.767514 321.415474 
L 465.603324 326.089012 
L 470.439134 330.508317 
L 475.274943 334.666491 
L 480.110753 338.559943 
L 484.946563 342.188125 
L 489.782372 345.553239 
L 494.618182 348.659932 
L 499.453991 351.514981 
L 504.289801 354.126967 
L 509.125611 356.505964 
L 513.96142 358.663234 
L 518.79723 360.610935 
L 523.63304 362.361852 
L 528.468849 363.929148 
L 533.304659 365.326142 
L 538.140469 366.566107 
" clip-path="url(#p30aebc834e)" style="fill: none; stroke: #6f6799; stroke-width: 4; stroke-linecap: square"/>
   </g>
   <g id="line2d_7">
    <path d="M 338.524773 374.46 
L 338.524773 7.2 
" clip-path="url(#p30aebc834e)" style="fill: none; stroke: #cf2c3a; stroke-opacity: 0.9; stroke-width: 5; stroke-linecap: square"/>
   </g>
   <g id="line2d_8">
    <path d="M 358.611035 374.46 
L 358.611035 7.2 
" clip-path="url(#p30aebc834e)" style="fill: none; stroke-dasharray: 18.5,8; stroke-dashoffset: 0; stroke: #000000; stroke-width: 5"/>
   </g>
   <g id="patch_23">
    <path d="M 59.395313 374.46 
L 59.395313 7.2 
" style="fill: none; stroke: #000000; stroke-width: 4; stroke-linejoin: miter; stroke-linecap: square"/>
   </g>
   <g id="patch_24">
    <path d="M 59.395312 374.46 
L 538.140469 374.46 
" style="fill: none; stroke: #000000; stroke-width: 4; stroke-linejoin: miter; stroke-linecap: square"/>
   </g>
  </g>
 </g>
 <defs>
  <clipPath id="p30aebc834e">
   <rect x="59.395313" y="7.2" width="478.745156" height="367.26"/>
  </clipPath>
 </defs>
</svg>
