<?xml version="1.0" encoding="utf-8" standalone="no"?>
<!DOCTYPE svg PUBLIC "-//W3C//DTD SVG 1.1//EN"
  "http://www.w3.org/Graphics/SVG/1.1/DTD/svg11.dtd">
<svg xmlns:xlink="http://www.w3.org/1999/xlink" width="200.16pt" height="416.16pt" viewBox="0 0 200.16 416.16" xmlns="http://www.w3.org/2000/svg" version="1.1">
 <metadata>
  <rdf:RDF xmlns:dc="http://purl.org/dc/elements/1.1/" xmlns:cc="http://creativecommons.org/ns#" xmlns:rdf="http://www.w3.org/1999/02/22-rdf-syntax-ns#">
   <cc:Work>
    <dc:type rdf:resource="http://purl.org/dc/dcmitype/StillImage"/>
    <dc:date>2026-06-15T14:07:19.105440</dc:date>
    <dc:format>image/svg+xml</dc:format>
    <dc:creator>
     <cc:Agent>
      <dc:title>Matplotlib v3.9.4, https://matplotlib.org/</dc:title>
     </cc:Agent>
    </dc:creator>
   </cc:Work>
  </rdf:RDF>
 </metadata>
 <defs>
  <style type="text/css">*{stroke-linejoin: round; stroke-linecap: butt}</style>
 </defs>
 <g id="figure_1">
  <g id="patch_1">
   <path d="M 0 416.16 
L 200.16 416.16 
L 200.16 0 
L 0 0 
z
" style="fill: #ffffff"/>
  </g>
  <g id="axes_1">
   <g id="patch_2">
    <path d="M 79.5 388.86 
L 192.96 388.86 
L 192.96 7.2 
L 79.5 7.2 
z
" style="fill: #ffffff"/>
   </g>
   <g id="matplotlib.axis_1">
    <g id="xtick_1">
     <g id="line2d_1">
      <defs>
       <path id="mcfacfa06ec" d="M 0 0 
L 0 4 
" style="stroke: #000000; stroke-width: 0.8"/>
      </defs>
      <g>
       <use xlink:href="#mcfacfa06ec" x="136.23" y="388.86" style="stroke: #000000; stroke-width: 0.8"/>
      </g>
     </g>
     <g id="text_1">
      <!-- 1 -->
      <g transform="translate(133.339219 406.16) scale(0.14 -0.14)">
       <defs>
        <path id="Figtree-Regular-31" d="M 1389 0 
L 1389 4192 
L 1434 4480 
L 1920 4480 
L 1920 0 
L 1389 0 
z
M 384 3328 
L 384 3821 
Q 518 3814 704 3910 
Q 890 4006 1088 4160 
Q 1286 4314 1434 4480 
L 1766 4115 
Q 1555 3891 1324 3712 
Q 1094 3533 857 3427 
Q 621 3322 384 3328 
z
" transform="scale(0.015625)"/>
       </defs>
       <use xlink:href="#Figtree-Regular-31"/>
      </g>
     </g>
    </g>
   </g>
   <g id="matplotlib.axis_2">
    <g id="ytick_1">
     <g id="line2d_2">
      <defs>
       <path id="m58a880e629" d="M 0 0 
L -4 0 
" style="stroke: #000000; stroke-width: 0.8"/>
      </defs>
      <g>
       <use xlink:href="#m58a880e629" x="79.5" y="386.060459" style="stroke: #000000; stroke-width: 0.8"/>
      </g>
     </g>
     <g id="text_2">
      <!-- $\mathdefault{-10^{0}}$ -->
      <g transform="translate(7.2 396.560459) scale(0.3 -0.3)">
       <defs>
        <path id="Figtree-Regular-2212" d="M 774 1677 
L 774 2131 
L 3219 2131 
L 3219 1677 
L 774 1677 
z
" transform="scale(0.015625)"/>
        <path id="Figtree-Regular-30" d="M 2048 -77 
Q 1536 -77 1139 220 
Q 742 518 518 1040 
Q 294 1562 294 2240 
Q 294 2918 518 3440 
Q 742 3962 1136 4259 
Q 1530 4557 2048 4557 
Q 2566 4557 2960 4259 
Q 3354 3962 3581 3440 
Q 3808 2918 3808 2240 
Q 3808 1562 3584 1040 
Q 3360 518 2963 220 
Q 2566 -77 2048 -77 
z
M 2048 410 
Q 2406 410 2684 646 
Q 2963 883 3120 1292 
Q 3277 1702 3277 2240 
Q 3277 2778 3120 3190 
Q 2963 3603 2684 3836 
Q 2406 4070 2048 4070 
Q 1690 4070 1414 3836 
Q 1139 3603 982 3190 
Q 826 2778 826 2240 
Q 826 1702 982 1292 
Q 1139 883 1417 646 
Q 1696 410 2048 410 
z
" transform="scale(0.015625)"/>
       </defs>
       <use xlink:href="#Figtree-Regular-2212" transform="translate(0 0.157813)"/>
       <use xlink:href="#Figtree-Regular-31" transform="translate(62.299988 0.157813)"/>
       <use xlink:href="#Figtree-Regular-30" transform="translate(103.599976 0.157813)"/>
       <use xlink:href="#Figtree-Regular-30" transform="translate(168.574966 35.157813) scale(0.7)"/>
      </g>
     </g>
    </g>
    <g id="ytick_2">
     <g id="line2d_3">
      <g>
       <use xlink:href="#m58a880e629" x="79.5" y="280.300873" style="stroke: #000000; stroke-width: 0.8"/>
      </g>
     </g>
     <g id="text_3">
      <!-- $\mathdefault{10^{0}}$ -->
      <g transform="translate(25.8 290.800873) scale(0.3 -0.3)">
       <use xlink:href="#Figtree-Regular-31" transform="translate(0 0.157813)"/>
       <use xlink:href="#Figtree-Regular-30" transform="translate(41.299988 0.157813)"/>
       <use xlink:href="#Figtree-Regular-30" transform="translate(106.274979 35.157813) scale(0.7)"/>
      </g>
     </g>
    </g>
    <g id="ytick_3">
     <g id="line2d_4">
      <g>
       <use xlink:href="#m58a880e629" x="79.5" y="195.04401" style="stroke: #000000; stroke-width: 0.8"/>
      </g>
     </g>
     <g id="text_4">
      <!-- $\mathdefault{10^{1}}$ -->
      <g transform="translate(30.6 205.54401) scale(0.3 -0.3)">
       <use xlink:href="#Figtree-Regular-31"/>
       <use xlink:href="#Figtree-Regular-30" transform="translate(41.299988 0)"/>
       <use xlink:href="#Figtree-Regular-31" transform="translate(106.274979 35) scale(0.7)"/>
      </g>
     </g>
    </g>
    <g id="ytick_4">
     <g id="line2d_5">
      <g>
       <use xlink:href="#m58a880e629" x="79.5" y="123.65629" style="stroke: #000000; stroke-width: 0.8"/>
      </g>
     </g>
     <g id="text_5">
      <!-- $\mathdefault{10^{2}}$ -->
      <g transform="translate(27.6 134.15629) scale(0.3 -0.3)">
       <defs>
        <path id="Figtree-Regular-32" d="M 365 0 
L 365 448 
Q 365 659 451 867 
Q 538 1075 701 1280 
Q 864 1485 1101 1664 
L 2029 2362 
Q 2195 2477 2320 2627 
Q 2445 2778 2515 2941 
Q 2586 3104 2586 3258 
Q 2586 3482 2477 3664 
Q 2368 3846 2169 3955 
Q 1971 4064 1702 4064 
Q 1440 4064 1241 3965 
Q 1043 3866 915 3702 
Q 787 3539 730 3354 
L 179 3462 
Q 256 3750 457 4000 
Q 659 4250 972 4403 
Q 1286 4557 1670 4557 
Q 2118 4557 2444 4387 
Q 2771 4218 2953 3926 
Q 3136 3635 3136 3264 
Q 3136 2912 2944 2598 
Q 2752 2285 2387 1990 
L 1510 1325 
Q 1254 1133 1116 921 
Q 979 710 960 480 
L 3200 480 
L 3200 0 
L 365 0 
z
" transform="scale(0.015625)"/>
       </defs>
       <use xlink:href="#Figtree-Regular-31" transform="translate(0 0.157813)"/>
       <use xlink:href="#Figtree-Regular-30" transform="translate(41.299988 0.157813)"/>
       <use xlink:href="#Figtree-Regular-32" transform="translate(106.274979 35.157813) scale(0.7)"/>
      </g>
     </g>
    </g>
    <g id="ytick_5">
     <g id="line2d_6">
      <g>
       <use xlink:href="#m58a880e629" x="79.5" y="52.26857" style="stroke: #000000; stroke-width: 0.8"/>
      </g>
     </g>
     <g id="text_6">
      <!-- $\mathdefault{10^{3}}$ -->
      <g transform="translate(27.9 62.76857) scale(0.3 -0.3)">
       <defs>
        <path id="Figtree-Regular-33" d="M 1722 -77 
Q 1395 -77 1129 22 
Q 864 122 675 282 
Q 486 442 378 621 
L 826 870 
Q 896 781 1001 669 
Q 1107 557 1273 480 
Q 1440 403 1683 403 
Q 2118 403 2380 652 
Q 2643 902 2643 1280 
Q 2643 1568 2486 1766 
Q 2330 1965 2035 2067 
Q 1741 2170 1331 2170 
L 1210 2170 
L 1210 2592 
L 1318 2592 
Q 1722 2592 2061 2502 
Q 2400 2413 2653 2240 
Q 2906 2067 3043 1817 
Q 3181 1568 3181 1242 
Q 3181 845 2985 547 
Q 2790 250 2457 86 
Q 2125 -77 1722 -77 
z
M 1210 2214 
L 1210 2630 
L 1331 2630 
Q 1882 2630 2205 2819 
Q 2528 3008 2528 3360 
Q 2528 3552 2425 3715 
Q 2323 3878 2128 3977 
Q 1933 4077 1677 4077 
Q 1504 4077 1353 4029 
Q 1203 3981 1078 3888 
Q 954 3795 851 3654 
L 429 3898 
Q 550 4096 739 4243 
Q 928 4390 1171 4473 
Q 1414 4557 1702 4557 
Q 2093 4557 2403 4403 
Q 2714 4250 2893 3984 
Q 3072 3718 3072 3386 
Q 3072 3104 2937 2886 
Q 2803 2669 2563 2515 
Q 2323 2362 2006 2288 
Q 1690 2214 1318 2214 
L 1210 2214 
z
" transform="scale(0.015625)"/>
       </defs>
       <use xlink:href="#Figtree-Regular-31" transform="translate(0 0.157813)"/>
       <use xlink:href="#Figtree-Regular-30" transform="translate(41.299988 0.157813)"/>
       <use xlink:href="#Figtree-Regular-33" transform="translate(106.274979 35.157813) scale(0.7)"/>
      </g>
     </g>
    </g>
    <g id="ytick_6">
     <g id="line2d_7">
      <defs>
       <path id="md53d54f0bb" d="M 0 0 
L -2.5 0 
" style="stroke: #000000; stroke-width: 0.6"/>
      </defs>
      <g>
       <use xlink:href="#md53d54f0bb" x="79.5" y="333.180666" style="stroke: #000000; stroke-width: 0.6"/>
      </g>
     </g>
    </g>
   </g>
   <g id="patch_3">
    <path d="M 102.192 236.053826 
L 170.268 236.053826 
L 170.268 179.793044 
L 102.192 179.793044 
L 102.192 236.053826 
z
" clip-path="url(#p5b1427fa7b)" style="fill: #979797; stroke: #ffffff; stroke-linejoin: miter"/>
   </g>
   <g id="line2d_8">
    <path d="M 136.23 236.053826 
L 136.23 349.608809 
" clip-path="url(#p5b1427fa7b)" style="fill: none; stroke: #979797; stroke-width: 4; stroke-linecap: square"/>
   </g>
   <g id="line2d_9">
    <path d="M 136.23 179.793044 
L 136.23 154.609472 
" clip-path="url(#p5b1427fa7b)" style="fill: none; stroke: #979797; stroke-width: 4; stroke-linecap: square"/>
   </g>
   <g id="line2d_10">
    <path d="M 119.211 349.608809 
L 153.249 349.608809 
" clip-path="url(#p5b1427fa7b)" style="fill: none; stroke: #979797; stroke-width: 4; stroke-linecap: square"/>
   </g>
   <g id="line2d_11">
    <path d="M 119.211 154.609472 
L 153.249 154.609472 
" clip-path="url(#p5b1427fa7b)" style="fill: none; stroke: #979797; stroke-width: 4; stroke-linecap: square"/>
   </g>
   <g id="line2d_12">
    <defs>
     <path id="m0b3e637d79" d="M 0 7.5 
C 1.989023 7.5 3.896849 6.709753 5.303301 5.303301 
C 6.709753 3.896849 7.5 1.989023 7.5 0 
C 7.5 -1.989023 6.709753 -3.896849 5.303301 -5.303301 
C 3.896849 -6.709753 1.989023 -7.5 0 -7.5 
C -1.989023 -7.5 -3.896849 -6.709753 -5.303301 -5.303301 
C -6.709753 -3.896849 -7.5 -1.989023 -7.5 0 
C -7.5 1.989023 -6.709753 3.896849 -5.303301 5.303301 
C -3.896849 6.709753 -1.989023 7.5 0 7.5 
z
" style="stroke: #ffffff; stroke-opacity: 0.75"/>
    </defs>
    <g clip-path="url(#p5b1427fa7b)">
     <use xlink:href="#m0b3e637d79" x="136.23" y="85.600204" style="fill: #979797; fill-opacity: 0.75; stroke: #ffffff; stroke-opacity: 0.75"/>
     <use xlink:href="#m0b3e637d79" x="136.23" y="112.39107" style="fill: #979797; fill-opacity: 0.75; stroke: #ffffff; stroke-opacity: 0.75"/>
     <use xlink:href="#m0b3e637d79" x="136.23" y="137.447852" style="fill: #979797; fill-opacity: 0.75; stroke: #ffffff; stroke-opacity: 0.75"/>
     <use xlink:href="#m0b3e637d79" x="136.23" y="151.602704" style="fill: #979797; fill-opacity: 0.75; stroke: #ffffff; stroke-opacity: 0.75"/>
     <use xlink:href="#m0b3e637d79" x="136.23" y="124.683492" style="fill: #979797; fill-opacity: 0.75; stroke: #ffffff; stroke-opacity: 0.75"/>
     <use xlink:href="#m0b3e637d79" x="136.23" y="100.499344" style="fill: #979797; fill-opacity: 0.75; stroke: #ffffff; stroke-opacity: 0.75"/>
     <use xlink:href="#m0b3e637d79" x="136.23" y="133.411711" style="fill: #979797; fill-opacity: 0.75; stroke: #ffffff; stroke-opacity: 0.75"/>
     <use xlink:href="#m0b3e637d79" x="136.23" y="120.786366" style="fill: #979797; fill-opacity: 0.75; stroke: #ffffff; stroke-opacity: 0.75"/>
     <use xlink:href="#m0b3e637d79" x="136.23" y="148.517715" style="fill: #979797; fill-opacity: 0.75; stroke: #ffffff; stroke-opacity: 0.75"/>
     <use xlink:href="#m0b3e637d79" x="136.23" y="149.966744" style="fill: #979797; fill-opacity: 0.75; stroke: #ffffff; stroke-opacity: 0.75"/>
     <use xlink:href="#m0b3e637d79" x="136.23" y="51.91061" style="fill: #979797; fill-opacity: 0.75; stroke: #ffffff; stroke-opacity: 0.75"/>
     <use xlink:href="#m0b3e637d79" x="136.23" y="67.37377" style="fill: #979797; fill-opacity: 0.75; stroke: #ffffff; stroke-opacity: 0.75"/>
     <use xlink:href="#m0b3e637d79" x="136.23" y="107.091479" style="fill: #979797; fill-opacity: 0.75; stroke: #ffffff; stroke-opacity: 0.75"/>
     <use xlink:href="#m0b3e637d79" x="136.23" y="146.613908" style="fill: #979797; fill-opacity: 0.75; stroke: #ffffff; stroke-opacity: 0.75"/>
     <use xlink:href="#m0b3e637d79" x="136.23" y="138.457632" style="fill: #979797; fill-opacity: 0.75; stroke: #ffffff; stroke-opacity: 0.75"/>
     <use xlink:href="#m0b3e637d79" x="136.23" y="108.468082" style="fill: #979797; fill-opacity: 0.75; stroke: #ffffff; stroke-opacity: 0.75"/>
     <use xlink:href="#m0b3e637d79" x="136.23" y="119.18279" style="fill: #979797; fill-opacity: 0.75; stroke: #ffffff; stroke-opacity: 0.75"/>
     <use xlink:href="#m0b3e637d79" x="136.23" y="112.102736" style="fill: #979797; fill-opacity: 0.75; stroke: #ffffff; stroke-opacity: 0.75"/>
     <use xlink:href="#m0b3e637d79" x="136.23" y="110.366106" style="fill: #979797; fill-opacity: 0.75; stroke: #ffffff; stroke-opacity: 0.75"/>
     <use xlink:href="#m0b3e637d79" x="136.23" y="142.81202" style="fill: #979797; fill-opacity: 0.75; stroke: #ffffff; stroke-opacity: 0.75"/>
     <use xlink:href="#m0b3e637d79" x="136.23" y="127.617552" style="fill: #979797; fill-opacity: 0.75; stroke: #ffffff; stroke-opacity: 0.75"/>
     <use xlink:href="#m0b3e637d79" x="136.23" y="152.270367" style="fill: #979797; fill-opacity: 0.75; stroke: #ffffff; stroke-opacity: 0.75"/>
     <use xlink:href="#m0b3e637d79" x="136.23" y="149.894901" style="fill: #979797; fill-opacity: 0.75; stroke: #ffffff; stroke-opacity: 0.75"/>
     <use xlink:href="#m0b3e637d79" x="136.23" y="118.210879" style="fill: #979797; fill-opacity: 0.75; stroke: #ffffff; stroke-opacity: 0.75"/>
     <use xlink:href="#m0b3e637d79" x="136.23" y="112.006173" style="fill: #979797; fill-opacity: 0.75; stroke: #ffffff; stroke-opacity: 0.75"/>
     <use xlink:href="#m0b3e637d79" x="136.23" y="73.593894" style="fill: #979797; fill-opacity: 0.75; stroke: #ffffff; stroke-opacity: 0.75"/>
     <use xlink:href="#m0b3e637d79" x="136.23" y="109.313877" style="fill: #979797; fill-opacity: 0.75; stroke: #ffffff; stroke-opacity: 0.75"/>
     <use xlink:href="#m0b3e637d79" x="136.23" y="131.233493" style="fill: #979797; fill-opacity: 0.75; stroke: #ffffff; stroke-opacity: 0.75"/>
     <use xlink:href="#m0b3e637d79" x="136.23" y="85.018604" style="fill: #979797; fill-opacity: 0.75; stroke: #ffffff; stroke-opacity: 0.75"/>
     <use xlink:href="#m0b3e637d79" x="136.23" y="121.077295" style="fill: #979797; fill-opacity: 0.75; stroke: #ffffff; stroke-opacity: 0.75"/>
     <use xlink:href="#m0b3e637d79" x="136.23" y="82.229312" style="fill: #979797; fill-opacity: 0.75; stroke: #ffffff; stroke-opacity: 0.75"/>
     <use xlink:href="#m0b3e637d79" x="136.23" y="111.521829" style="fill: #979797; fill-opacity: 0.75; stroke: #ffffff; stroke-opacity: 0.75"/>
     <use xlink:href="#m0b3e637d79" x="136.23" y="135.237008" style="fill: #979797; fill-opacity: 0.75; stroke: #ffffff; stroke-opacity: 0.75"/>
     <use xlink:href="#m0b3e637d79" x="136.23" y="145.962138" style="fill: #979797; fill-opacity: 0.75; stroke: #ffffff; stroke-opacity: 0.75"/>
     <use xlink:href="#m0b3e637d79" x="136.23" y="138.54936" style="fill: #979797; fill-opacity: 0.75; stroke: #ffffff; stroke-opacity: 0.75"/>
     <use xlink:href="#m0b3e637d79" x="136.23" y="152.025653" style="fill: #979797; fill-opacity: 0.75; stroke: #ffffff; stroke-opacity: 0.75"/>
     <use xlink:href="#m0b3e637d79" x="136.23" y="105.650221" style="fill: #979797; fill-opacity: 0.75; stroke: #ffffff; stroke-opacity: 0.75"/>
     <use xlink:href="#m0b3e637d79" x="136.23" y="148.420019" style="fill: #979797; fill-opacity: 0.75; stroke: #ffffff; stroke-opacity: 0.75"/>
     <use xlink:href="#m0b3e637d79" x="136.23" y="154.226807" style="fill: #979797; fill-opacity: 0.75; stroke: #ffffff; stroke-opacity: 0.75"/>
     <use xlink:href="#m0b3e637d79" x="136.23" y="152.946036" style="fill: #979797; fill-opacity: 0.75; stroke: #ffffff; stroke-opacity: 0.75"/>
     <use xlink:href="#m0b3e637d79" x="136.23" y="146.508412" style="fill: #979797; fill-opacity: 0.75; stroke: #ffffff; stroke-opacity: 0.75"/>
     <use xlink:href="#m0b3e637d79" x="136.23" y="148.542809" style="fill: #979797; fill-opacity: 0.75; stroke: #ffffff; stroke-opacity: 0.75"/>
     <use xlink:href="#m0b3e637d79" x="136.23" y="68.471597" style="fill: #979797; fill-opacity: 0.75; stroke: #ffffff; stroke-opacity: 0.75"/>
     <use xlink:href="#m0b3e637d79" x="136.23" y="106.918857" style="fill: #979797; fill-opacity: 0.75; stroke: #ffffff; stroke-opacity: 0.75"/>
     <use xlink:href="#m0b3e637d79" x="136.23" y="153.61311" style="fill: #979797; fill-opacity: 0.75; stroke: #ffffff; stroke-opacity: 0.75"/>
     <use xlink:href="#m0b3e637d79" x="136.23" y="140.596756" style="fill: #979797; fill-opacity: 0.75; stroke: #ffffff; stroke-opacity: 0.75"/>
     <use xlink:href="#m0b3e637d79" x="136.23" y="137.621936" style="fill: #979797; fill-opacity: 0.75; stroke: #ffffff; stroke-opacity: 0.75"/>
     <use xlink:href="#m0b3e637d79" x="136.23" y="125.088091" style="fill: #979797; fill-opacity: 0.75; stroke: #ffffff; stroke-opacity: 0.75"/>
     <use xlink:href="#m0b3e637d79" x="136.23" y="152.676659" style="fill: #979797; fill-opacity: 0.75; stroke: #ffffff; stroke-opacity: 0.75"/>
     <use xlink:href="#m0b3e637d79" x="136.23" y="120.58461" style="fill: #979797; fill-opacity: 0.75; stroke: #ffffff; stroke-opacity: 0.75"/>
     <use xlink:href="#m0b3e637d79" x="136.23" y="92.67122" style="fill: #979797; fill-opacity: 0.75; stroke: #ffffff; stroke-opacity: 0.75"/>
     <use xlink:href="#m0b3e637d79" x="136.23" y="83.948748" style="fill: #979797; fill-opacity: 0.75; stroke: #ffffff; stroke-opacity: 0.75"/>
     <use xlink:href="#m0b3e637d79" x="136.23" y="139.500222" style="fill: #979797; fill-opacity: 0.75; stroke: #ffffff; stroke-opacity: 0.75"/>
     <use xlink:href="#m0b3e637d79" x="136.23" y="152.009556" style="fill: #979797; fill-opacity: 0.75; stroke: #ffffff; stroke-opacity: 0.75"/>
     <use xlink:href="#m0b3e637d79" x="136.23" y="67.834238" style="fill: #979797; fill-opacity: 0.75; stroke: #ffffff; stroke-opacity: 0.75"/>
     <use xlink:href="#m0b3e637d79" x="136.23" y="93.07262" style="fill: #979797; fill-opacity: 0.75; stroke: #ffffff; stroke-opacity: 0.75"/>
     <use xlink:href="#m0b3e637d79" x="136.23" y="149.497297" style="fill: #979797; fill-opacity: 0.75; stroke: #ffffff; stroke-opacity: 0.75"/>
     <use xlink:href="#m0b3e637d79" x="136.23" y="153.464722" style="fill: #979797; fill-opacity: 0.75; stroke: #ffffff; stroke-opacity: 0.75"/>
     <use xlink:href="#m0b3e637d79" x="136.23" y="143.255025" style="fill: #979797; fill-opacity: 0.75; stroke: #ffffff; stroke-opacity: 0.75"/>
     <use xlink:href="#m0b3e637d79" x="136.23" y="91.229877" style="fill: #979797; fill-opacity: 0.75; stroke: #ffffff; stroke-opacity: 0.75"/>
     <use xlink:href="#m0b3e637d79" x="136.23" y="24.548182" style="fill: #979797; fill-opacity: 0.75; stroke: #ffffff; stroke-opacity: 0.75"/>
     <use xlink:href="#m0b3e637d79" x="136.23" y="135.906284" style="fill: #979797; fill-opacity: 0.75; stroke: #ffffff; stroke-opacity: 0.75"/>
     <use xlink:href="#m0b3e637d79" x="136.23" y="108.336718" style="fill: #979797; fill-opacity: 0.75; stroke: #ffffff; stroke-opacity: 0.75"/>
     <use xlink:href="#m0b3e637d79" x="136.23" y="83.572343" style="fill: #979797; fill-opacity: 0.75; stroke: #ffffff; stroke-opacity: 0.75"/>
     <use xlink:href="#m0b3e637d79" x="136.23" y="133.96817" style="fill: #979797; fill-opacity: 0.75; stroke: #ffffff; stroke-opacity: 0.75"/>
     <use xlink:href="#m0b3e637d79" x="136.23" y="71.991325" style="fill: #979797; fill-opacity: 0.75; stroke: #ffffff; stroke-opacity: 0.75"/>
     <use xlink:href="#m0b3e637d79" x="136.23" y="116.373968" style="fill: #979797; fill-opacity: 0.75; stroke: #ffffff; stroke-opacity: 0.75"/>
     <use xlink:href="#m0b3e637d79" x="136.23" y="149.130513" style="fill: #979797; fill-opacity: 0.75; stroke: #ffffff; stroke-opacity: 0.75"/>
     <use xlink:href="#m0b3e637d79" x="136.23" y="139.448513" style="fill: #979797; fill-opacity: 0.75; stroke: #ffffff; stroke-opacity: 0.75"/>
     <use xlink:href="#m0b3e637d79" x="136.23" y="140.779407" style="fill: #979797; fill-opacity: 0.75; stroke: #ffffff; stroke-opacity: 0.75"/>
     <use xlink:href="#m0b3e637d79" x="136.23" y="67.06598" style="fill: #979797; fill-opacity: 0.75; stroke: #ffffff; stroke-opacity: 0.75"/>
     <use xlink:href="#m0b3e637d79" x="136.23" y="151.592413" style="fill: #979797; fill-opacity: 0.75; stroke: #ffffff; stroke-opacity: 0.75"/>
     <use xlink:href="#m0b3e637d79" x="136.23" y="149.156034" style="fill: #979797; fill-opacity: 0.75; stroke: #ffffff; stroke-opacity: 0.75"/>
     <use xlink:href="#m0b3e637d79" x="136.23" y="119.880037" style="fill: #979797; fill-opacity: 0.75; stroke: #ffffff; stroke-opacity: 0.75"/>
     <use xlink:href="#m0b3e637d79" x="136.23" y="45.446776" style="fill: #979797; fill-opacity: 0.75; stroke: #ffffff; stroke-opacity: 0.75"/>
     <use xlink:href="#m0b3e637d79" x="136.23" y="136.777422" style="fill: #979797; fill-opacity: 0.75; stroke: #ffffff; stroke-opacity: 0.75"/>
     <use xlink:href="#m0b3e637d79" x="136.23" y="126.82253" style="fill: #979797; fill-opacity: 0.75; stroke: #ffffff; stroke-opacity: 0.75"/>
     <use xlink:href="#m0b3e637d79" x="136.23" y="107.878639" style="fill: #979797; fill-opacity: 0.75; stroke: #ffffff; stroke-opacity: 0.75"/>
     <use xlink:href="#m0b3e637d79" x="136.23" y="138.334732" style="fill: #979797; fill-opacity: 0.75; stroke: #ffffff; stroke-opacity: 0.75"/>
     <use xlink:href="#m0b3e637d79" x="136.23" y="53.603377" style="fill: #979797; fill-opacity: 0.75; stroke: #ffffff; stroke-opacity: 0.75"/>
     <use xlink:href="#m0b3e637d79" x="136.23" y="119.427144" style="fill: #979797; fill-opacity: 0.75; stroke: #ffffff; stroke-opacity: 0.75"/>
     <use xlink:href="#m0b3e637d79" x="136.23" y="96.933195" style="fill: #979797; fill-opacity: 0.75; stroke: #ffffff; stroke-opacity: 0.75"/>
     <use xlink:href="#m0b3e637d79" x="136.23" y="107.590588" style="fill: #979797; fill-opacity: 0.75; stroke: #ffffff; stroke-opacity: 0.75"/>
     <use xlink:href="#m0b3e637d79" x="136.23" y="145.307851" style="fill: #979797; fill-opacity: 0.75; stroke: #ffffff; stroke-opacity: 0.75"/>
     <use xlink:href="#m0b3e637d79" x="136.23" y="136.550998" style="fill: #979797; fill-opacity: 0.75; stroke: #ffffff; stroke-opacity: 0.75"/>
     <use xlink:href="#m0b3e637d79" x="136.23" y="107.910258" style="fill: #979797; fill-opacity: 0.75; stroke: #ffffff; stroke-opacity: 0.75"/>
     <use xlink:href="#m0b3e637d79" x="136.23" y="132.028853" style="fill: #979797; fill-opacity: 0.75; stroke: #ffffff; stroke-opacity: 0.75"/>
     <use xlink:href="#m0b3e637d79" x="136.23" y="133.343325" style="fill: #979797; fill-opacity: 0.75; stroke: #ffffff; stroke-opacity: 0.75"/>
     <use xlink:href="#m0b3e637d79" x="136.23" y="130.374248" style="fill: #979797; fill-opacity: 0.75; stroke: #ffffff; stroke-opacity: 0.75"/>
     <use xlink:href="#m0b3e637d79" x="136.23" y="108.115713" style="fill: #979797; fill-opacity: 0.75; stroke: #ffffff; stroke-opacity: 0.75"/>
     <use xlink:href="#m0b3e637d79" x="136.23" y="117.838889" style="fill: #979797; fill-opacity: 0.75; stroke: #ffffff; stroke-opacity: 0.75"/>
     <use xlink:href="#m0b3e637d79" x="136.23" y="87.446834" style="fill: #979797; fill-opacity: 0.75; stroke: #ffffff; stroke-opacity: 0.75"/>
     <use xlink:href="#m0b3e637d79" x="136.23" y="116.809623" style="fill: #979797; fill-opacity: 0.75; stroke: #ffffff; stroke-opacity: 0.75"/>
     <use xlink:href="#m0b3e637d79" x="136.23" y="153.350754" style="fill: #979797; fill-opacity: 0.75; stroke: #ffffff; stroke-opacity: 0.75"/>
     <use xlink:href="#m0b3e637d79" x="136.23" y="104.749117" style="fill: #979797; fill-opacity: 0.75; stroke: #ffffff; stroke-opacity: 0.75"/>
     <use xlink:href="#m0b3e637d79" x="136.23" y="135.706662" style="fill: #979797; fill-opacity: 0.75; stroke: #ffffff; stroke-opacity: 0.75"/>
     <use xlink:href="#m0b3e637d79" x="136.23" y="92.6833" style="fill: #979797; fill-opacity: 0.75; stroke: #ffffff; stroke-opacity: 0.75"/>
     <use xlink:href="#m0b3e637d79" x="136.23" y="142.194769" style="fill: #979797; fill-opacity: 0.75; stroke: #ffffff; stroke-opacity: 0.75"/>
     <use xlink:href="#m0b3e637d79" x="136.23" y="151.262651" style="fill: #979797; fill-opacity: 0.75; stroke: #ffffff; stroke-opacity: 0.75"/>
     <use xlink:href="#m0b3e637d79" x="136.23" y="108.718766" style="fill: #979797; fill-opacity: 0.75; stroke: #ffffff; stroke-opacity: 0.75"/>
     <use xlink:href="#m0b3e637d79" x="136.23" y="144.451832" style="fill: #979797; fill-opacity: 0.75; stroke: #ffffff; stroke-opacity: 0.75"/>
     <use xlink:href="#m0b3e637d79" x="136.23" y="151.38961" style="fill: #979797; fill-opacity: 0.75; stroke: #ffffff; stroke-opacity: 0.75"/>
     <use xlink:href="#m0b3e637d79" x="136.23" y="123.563191" style="fill: #979797; fill-opacity: 0.75; stroke: #ffffff; stroke-opacity: 0.75"/>
     <use xlink:href="#m0b3e637d79" x="136.23" y="154.46556" style="fill: #979797; fill-opacity: 0.75; stroke: #ffffff; stroke-opacity: 0.75"/>
     <use xlink:href="#m0b3e637d79" x="136.23" y="92.256421" style="fill: #979797; fill-opacity: 0.75; stroke: #ffffff; stroke-opacity: 0.75"/>
     <use xlink:href="#m0b3e637d79" x="136.23" y="142.79166" style="fill: #979797; fill-opacity: 0.75; stroke: #ffffff; stroke-opacity: 0.75"/>
     <use xlink:href="#m0b3e637d79" x="136.23" y="143.024429" style="fill: #979797; fill-opacity: 0.75; stroke: #ffffff; stroke-opacity: 0.75"/>
     <use xlink:href="#m0b3e637d79" x="136.23" y="139.45507" style="fill: #979797; fill-opacity: 0.75; stroke: #ffffff; stroke-opacity: 0.75"/>
     <use xlink:href="#m0b3e637d79" x="136.23" y="140.245547" style="fill: #979797; fill-opacity: 0.75; stroke: #ffffff; stroke-opacity: 0.75"/>
     <use xlink:href="#m0b3e637d79" x="136.23" y="80.69318" style="fill: #979797; fill-opacity: 0.75; stroke: #ffffff; stroke-opacity: 0.75"/>
     <use xlink:href="#m0b3e637d79" x="136.23" y="153.871794" style="fill: #979797; fill-opacity: 0.75; stroke: #ffffff; stroke-opacity: 0.75"/>
    </g>
   </g>
   <g id="line2d_13">
    <path d="M 79.5 333.180666 
L 192.96 333.180666 
" clip-path="url(#p5b1427fa7b)" style="fill: none; stroke-dasharray: 11.1,4.8; stroke-dashoffset: 0; stroke: #000000; stroke-width: 3"/>
   </g>
   <g id="line2d_14">
    <path d="M 102.192 203.099307 
L 170.268 203.099307 
" clip-path="url(#p5b1427fa7b)" style="fill: none; stroke: #ffffff; stroke-width: 4"/>
   </g>
   <g id="patch_4">
    <path d="M 79.5 388.86 
L 79.5 7.2 
" style="fill: none; stroke: #000000; stroke-width: 4; stroke-linejoin: miter; stroke-linecap: square"/>
   </g>
   <g id="patch_5">
    <path d="M 79.5 388.86 
L 192.96 388.86 
" style="fill: none; stroke: #000000; stroke-width: 4; stroke-linejoin: miter; stroke-linecap: square"/>
   </g>
   <g id="PathCollection_1">
    <defs>
     <path id="mb82b0c905e" d="M 0 10 
C 2.652031 10 5.195799 8.946337 7.071068 7.071068 
C 8.946337 5.195799 10 2.652031 10 0 
C 10 -2.652031 8.946337 -5.195799 7.071068 -7.071068 
C 5.195799 -8.946337 2.652031 -10 0 -10 
C -2.652031 -10 -5.195799 -8.946337 -7.071068 -7.071068 
C -8.946337 -5.195799 -10 -2.652031 -10 0 
C -10 2.652031 -8.946337 5.195799 -7.071068 7.071068 
C -5.195799 8.946337 -2.652031 10 0 10 
z
" style="stroke: #ffffff"/>
    </defs>
    <g clip-path="url(#p5b1427fa7b)">
     <use xlink:href="#mb82b0c905e" x="136.23" y="186.124273" style="fill: #335c67; stroke: #ffffff"/>
    </g>
   </g>
   <g id="PathCollection_2">
    <defs>
     <path id="m5c97cd05c0" d="M -10 10 
L 10 10 
L 10 -10 
L -10 -10 
z
" style="stroke: #ffffff"/>
    </defs>
    <g clip-path="url(#p5b1427fa7b)">
     <use xlink:href="#m5c97cd05c0" x="136.23" y="228.855409" style="fill: #bdab45; stroke: #ffffff"/>
    </g>
   </g>
   <g id="PathCollection_3">
    <defs>
     <path id="m686f3d82cf" d="M 0 -10 
L -10 10 
L 10 10 
z
" style="stroke: #ffffff"/>
    </defs>
    <g clip-path="url(#p5b1427fa7b)">
     <use xlink:href="#m686f3d82cf" x="136.23" y="300.87915" style="fill: #c97d0c; stroke: #ffffff"/>
    </g>
   </g>
   <g id="PathCollection_4">
    <defs>
     <path id="ma82829b26f" d="M 0 14.142136 
L 14.142136 0 
L 0 -14.142136 
L -14.142136 0 
z
" style="stroke: #ffffff"/>
    </defs>
    <g clip-path="url(#p5b1427fa7b)">
     <use xlink:href="#ma82829b26f" x="136.23" y="215.967072" style="fill: #9e2a2b; stroke: #ffffff"/>
    </g>
   </g>
   <g id="PathCollection_5">
    <defs>
     <path id="mcb73dea8bf" d="M -0 10 
L 10 -10 
L -10 -10 
z
" style="stroke: #ffffff"/>
    </defs>
    <g clip-path="url(#p5b1427fa7b)">
     <use xlink:href="#mcb73dea8bf" x="136.23" y="371.511818" style="fill: #540b0e; stroke: #ffffff"/>
    </g>
   </g>
   <g id="PathCollection_6">
    <defs>
     <path id="mf7282b0331" d="M 0 -10 
L -9.510565 -3.09017 
L -5.877853 8.09017 
L 5.877853 8.09017 
L 9.510565 -3.09017 
z
" style="stroke: #ffffff"/>
    </defs>
    <g clip-path="url(#p5b1427fa7b)">
     <use xlink:href="#mf7282b0331" x="136.23" y="228.807666" style="fill: #219ebc; stroke: #ffffff"/>
    </g>
   </g>
   <g id="PathCollection_7">
    <defs>
     <path id="m387c9f3c66" d="M 0 -10 
L -8.660254 -5 
L -8.660254 5 
L -0 10 
L 8.660254 5 
L 8.660254 -5 
z
" style="stroke: #ffffff"/>
    </defs>
    <g clip-path="url(#p5b1427fa7b)">
     <use xlink:href="#m387c9f3c66" x="136.23" y="208.032009" style="fill: #31572c; stroke: #ffffff"/>
    </g>
   </g>
   <g id="PathCollection_8">
    <defs>
     <path id="m6f14f23ebb" d="M 0 10 
C 2.652031 10 5.195799 8.946337 7.071068 7.071068 
C 8.946337 5.195799 10 2.652031 10 0 
C 10 -2.652031 8.946337 -5.195799 7.071068 -7.071068 
C 5.195799 -8.946337 2.652031 -10 0 -10 
C -2.652031 -10 -5.195799 -8.946337 -7.071068 -7.071068 
C -8.946337 -5.195799 -10 -2.652031 -10 0 
C -10 2.652031 -8.946337 5.195799 -7.071068 7.071068 
C -5.195799 8.946337 -2.652031 10 0 10 
z
" style="stroke: #ffffff"/>
    </defs>
    <g clip-path="url(#p5b1427fa7b)">
     <use xlink:href="#m6f14f23ebb" x="136.23" y="235.312117" style="fill: #6d57db; stroke: #ffffff"/>
    </g>
   </g>
   <g id="PathCollection_9">
    <defs>
     <path id="m59fa9bf217" d="M -10 10 
L 10 10 
L 10 -10 
L -10 -10 
z
" style="stroke: #ffffff"/>
    </defs>
    <g clip-path="url(#p5b1427fa7b)">
     <use xlink:href="#m59fa9bf217" x="136.23" y="112.619473" style="fill: #b63d97; stroke: #ffffff"/>
    </g>
   </g>
  </g>
 </g>
 <defs>
  <clipPath id="p5b1427fa7b">
   <rect x="79.5" y="7.2" width="113.46" height="381.66"/>
  </clipPath>
 </defs>
</svg>
