<?xml version="1.0" encoding="utf-8" standalone="no"?>
<!DOCTYPE svg PUBLIC "-//W3C//DTD SVG 1.1//EN"
  "http://www.w3.org/Graphics/SVG/1.1/DTD/svg11.dtd">
<svg xmlns:xlink="http://www.w3.org/1999/xlink" width="547.2pt" height="403.2pt" viewBox="0 0 547.2 403.2" xmlns="http://www.w3.org/2000/svg" version="1.1">
 <metadata>
  <rdf:RDF xmlns:dc="http://purl.org/dc/elements/1.1/" xmlns:cc="http://creativecommons.org/ns#" xmlns:rdf="http://www.w3.org/1999/02/22-rdf-syntax-ns#">
   <cc:Work>
    <dc:type rdf:resource="http://purl.org/dc/dcmitype/StillImage"/>
    <dc:date>2026-05-11T12:22:38.134892</dc:date>
    <dc:format>image/svg+xml</dc:format>
    <dc:creator>
     <cc:Agent>
      <dc:title>Matplotlib v3.9.4, https://matplotlib.org/</dc:title>
     </cc:Agent>
    </dc:creator>
   </cc:Work>
  </rdf:RDF>
 </metadata>
 <defs>
  <style type="text/css">*{stroke-linejoin: round; stroke-linecap: butt}</style>
 </defs>
 <g id="figure_1">
  <g id="patch_1">
   <path d="M 0 403.2 
L 547.2 403.2 
L 547.2 0 
L 0 0 
z
" style="fill: #ffffff"/>
  </g>
  <g id="axes_1">
   <g id="patch_2">
    <path d="M 11.2 392 
L 540 392 
L 540 7.2 
L 11.2 7.2 
z
" style="fill: #ffffff"/>
   </g>
   <g id="PolyCollection_1">
    <path d="M 171.162985 276.037777 
L 171.025157 276.037777 
L 170.982736 273.858119 
L 170.930875 271.678461 
L 170.872476 269.498803 
L 170.807008 267.319145 
L 170.727003 265.139487 
L 170.61836 262.959829 
L 170.463908 260.780171 
L 170.249173 258.600513 
L 169.968351 256.420855 
L 169.625643 254.241196 
L 169.230512 252.061538 
L 168.790467 249.88188 
L 168.305522 247.702222 
L 167.768147 245.522564 
L 167.167994 243.342906 
L 166.493831 241.163248 
L 165.731792 238.98359 
L 164.869312 236.803932 
L 163.90422 234.624274 
L 162.844552 232.444616 
L 161.697402 230.264958 
L 160.464676 228.0853 
L 159.152183 225.905642 
L 157.779315 223.725984 
L 156.384883 221.546326 
L 155.02938 219.366668 
L 153.777903 217.18701 
L 152.658915 215.007352 
L 151.634799 212.827694 
L 150.621256 210.648036 
L 149.540749 208.468378 
L 148.364889 206.28872 
L 147.120216 204.109062 
L 145.857885 201.929404 
L 144.615158 199.749746 
L 143.418513 197.570088 
L 142.326222 195.39043 
L 141.42659 193.210772 
L 140.761243 191.031114 
L 140.283391 188.851456 
L 139.935568 186.671798 
L 139.742292 184.49214 
L 139.77531 182.312482 
L 140.043208 180.132824 
L 140.464747 177.953166 
L 140.94501 175.773508 
L 141.433845 173.59385 
L 141.909166 171.414192 
L 142.347262 169.234534 
L 142.731839 167.054876 
L 143.077962 164.875218 
L 143.432415 162.69556 
L 143.845374 160.515902 
L 144.340473 158.336244 
L 144.919607 156.156586 
L 145.598087 153.976928 
L 146.416433 151.79727 
L 147.40338 149.617612 
L 148.539322 147.437954 
L 149.770697 145.258296 
L 151.047187 143.078638 
L 152.32661 140.89898 
L 153.558077 138.719322 
L 154.689328 136.539664 
L 155.69699 134.360006 
L 156.60248 132.180348 
L 157.459105 130.00069 
L 158.32518 127.821032 
L 159.239989 125.641374 
L 160.211396 123.461716 
L 161.219021 121.282058 
L 162.227083 119.1024 
L 163.191073 116.922742 
L 164.055251 114.743084 
L 164.76285 112.563426 
L 165.287903 110.383768 
L 165.656129 108.20411 
L 165.926444 106.024452 
L 166.152827 103.844794 
L 166.363011 101.665136 
L 166.565811 99.485477 
L 166.773773 97.305819 
L 167.01412 95.126161 
L 167.310313 92.946503 
L 167.655729 90.766845 
L 168.018476 88.587187 
L 168.373173 86.407529 
L 168.714102 84.227871 
L 169.0348 82.048213 
L 169.312485 79.868555 
L 169.525461 77.688897 
L 169.67864 75.509239 
L 169.802064 73.329581 
L 169.929602 71.149923 
L 170.085419 68.970265 
L 170.278986 66.790607 
L 170.497771 64.610949 
L 170.708533 62.431291 
L 170.877007 60.251633 
L 171.311136 60.251633 
L 171.311136 60.251633 
L 171.479609 62.431291 
L 171.690371 64.610949 
L 171.909156 66.790607 
L 172.102723 68.970265 
L 172.25854 71.149923 
L 172.386078 73.329581 
L 172.509502 75.509239 
L 172.662681 77.688897 
L 172.875657 79.868555 
L 173.153342 82.048213 
L 173.47404 84.227871 
L 173.814969 86.407529 
L 174.169666 88.587187 
L 174.532414 90.766845 
L 174.877829 92.946503 
L 175.174022 95.126161 
L 175.414369 97.305819 
L 175.622331 99.485477 
L 175.825131 101.665136 
L 176.035315 103.844794 
L 176.261698 106.024452 
L 176.532013 108.20411 
L 176.90024 110.383768 
L 177.425293 112.563426 
L 178.132892 114.743084 
L 178.99707 116.922742 
L 179.961059 119.1024 
L 180.969122 121.282058 
L 181.976746 123.461716 
L 182.948154 125.641374 
L 183.862962 127.821032 
L 184.729038 130.00069 
L 185.585662 132.180348 
L 186.491152 134.360006 
L 187.498815 136.539664 
L 188.630066 138.719322 
L 189.861533 140.89898 
L 191.140956 143.078638 
L 192.417445 145.258296 
L 193.648821 147.437954 
L 194.784762 149.617612 
L 195.771709 151.79727 
L 196.590055 153.976928 
L 197.268535 156.156586 
L 197.847669 158.336244 
L 198.342769 160.515902 
L 198.755727 162.69556 
L 199.11018 164.875218 
L 199.456303 167.054876 
L 199.840881 169.234534 
L 200.278976 171.414192 
L 200.754297 173.59385 
L 201.243132 175.773508 
L 201.723395 177.953166 
L 202.144934 180.132824 
L 202.412832 182.312482 
L 202.44585 184.49214 
L 202.252574 186.671798 
L 201.904751 188.851456 
L 201.426899 191.031114 
L 200.761552 193.210772 
L 199.861921 195.39043 
L 198.769629 197.570088 
L 197.572984 199.749746 
L 196.330257 201.929404 
L 195.067926 204.109062 
L 193.823253 206.28872 
L 192.647393 208.468378 
L 191.566886 210.648036 
L 190.553343 212.827694 
L 189.529227 215.007352 
L 188.410239 217.18701 
L 187.158762 219.366668 
L 185.803259 221.546326 
L 184.408827 223.725984 
L 183.035959 225.905642 
L 181.723467 228.0853 
L 180.49074 230.264958 
L 179.34359 232.444616 
L 178.283922 234.624274 
L 177.31883 236.803932 
L 176.456351 238.98359 
L 175.694311 241.163248 
L 175.020148 243.342906 
L 174.419995 245.522564 
L 173.882621 247.702222 
L 173.397675 249.88188 
L 172.95763 252.061538 
L 172.562499 254.241196 
L 172.219792 256.420855 
L 171.938969 258.600513 
L 171.724234 260.780171 
L 171.569782 262.959829 
L 171.46114 265.139487 
L 171.381134 267.319145 
L 171.315666 269.498803 
L 171.257268 271.678461 
L 171.205407 273.858119 
L 171.162985 276.037777 
z
" clip-path="url(#p23d2c19a1d)" style="fill: #5e548e; fill-opacity: 0.5"/>
   </g>
   <g id="PolyCollection_2">
    <path d="M 484.734769 374.509091 
L 484.488947 374.509091 
L 484.421785 371.431271 
L 484.333733 368.35345 
L 484.221532 365.27563 
L 484.090687 362.197809 
L 483.957604 359.119989 
L 483.839231 356.042169 
L 483.736649 352.964348 
L 483.630498 349.886528 
L 483.49859 346.808708 
L 483.337846 343.730887 
L 483.164217 340.653067 
L 482.997043 337.575247 
L 482.851675 334.497426 
L 482.737443 331.419606 
L 482.648884 328.341786 
L 482.564827 325.263965 
L 482.469332 322.186145 
L 482.371244 319.108324 
L 482.292647 316.030504 
L 482.239512 312.952684 
L 482.191811 309.874863 
L 482.119366 306.797043 
L 481.999052 303.719223 
L 481.818321 300.641402 
L 481.569334 297.563582 
L 481.244001 294.485762 
L 480.835763 291.407941 
L 480.338955 288.330121 
L 479.732181 285.252301 
L 478.960916 282.17448 
L 477.957757 279.09666 
L 476.703693 276.01884 
L 475.270543 272.941019 
L 473.783199 269.863199 
L 472.32434 266.785378 
L 470.874042 263.707558 
L 469.338482 260.629738 
L 467.631412 257.551917 
L 465.74406 254.474097 
L 463.770364 251.396277 
L 461.87289 248.318456 
L 460.192309 245.240636 
L 458.758627 242.162816 
L 457.491464 239.084995 
L 456.302244 236.007175 
L 455.198857 232.929355 
L 454.286194 229.851534 
L 453.668456 226.773714 
L 453.35539 223.695893 
L 453.260079 220.618073 
L 453.284316 217.540253 
L 453.40647 214.462432 
L 453.68934 211.384612 
L 454.212382 208.306792 
L 455.008241 205.228971 
L 456.060087 202.151151 
L 457.332816 199.073331 
L 458.78232 195.99551 
L 460.339869 192.91769 
L 461.91627 189.83987 
L 463.445832 186.762049 
L 464.930711 183.684229 
L 466.431469 180.606408 
L 467.997134 177.528588 
L 469.590151 174.450768 
L 471.079163 171.372947 
L 472.317919 168.295127 
L 473.247616 165.217307 
L 473.937306 162.139486 
L 474.534338 159.061666 
L 475.174105 155.983846 
L 475.921543 152.906025 
L 476.771578 149.828205 
L 477.681695 146.750385 
L 478.601343 143.672564 
L 479.486426 140.594744 
L 480.303853 137.516923 
L 481.030011 134.439103 
L 481.645001 131.361283 
L 482.130638 128.283462 
L 482.479035 125.205642 
L 482.705339 122.127822 
L 482.850651 119.050001 
L 482.967717 115.972181 
L 483.096596 112.894361 
L 483.248418 109.81654 
L 483.409704 106.73872 
L 483.561358 103.6609 
L 483.695191 100.583079 
L 483.816459 97.505259 
L 483.934781 94.427438 
L 484.054078 91.349618 
L 484.169757 88.271798 
L 484.273444 85.193977 
L 484.359501 82.116157 
L 484.427692 79.038337 
L 484.481286 75.960516 
L 484.523702 72.882696 
L 484.556678 69.804876 
L 484.667038 69.804876 
L 484.667038 69.804876 
L 484.700014 72.882696 
L 484.74243 75.960516 
L 484.796023 79.038337 
L 484.864215 82.116157 
L 484.950271 85.193977 
L 485.053959 88.271798 
L 485.169638 91.349618 
L 485.288934 94.427438 
L 485.407257 97.505259 
L 485.528525 100.583079 
L 485.662358 103.6609 
L 485.814012 106.73872 
L 485.975297 109.81654 
L 486.12712 112.894361 
L 486.255999 115.972181 
L 486.373064 119.050001 
L 486.518376 122.127822 
L 486.744681 125.205642 
L 487.093077 128.283462 
L 487.578715 131.361283 
L 488.193704 134.439103 
L 488.919862 137.516923 
L 489.737289 140.594744 
L 490.622373 143.672564 
L 491.542021 146.750385 
L 492.452137 149.828205 
L 493.302172 152.906025 
L 494.049611 155.983846 
L 494.689377 159.061666 
L 495.28641 162.139486 
L 495.9761 165.217307 
L 496.905797 168.295127 
L 498.144552 171.372947 
L 499.633564 174.450768 
L 501.226581 177.528588 
L 502.792246 180.606408 
L 504.293004 183.684229 
L 505.777883 186.762049 
L 507.307445 189.83987 
L 508.883847 192.91769 
L 510.441395 195.99551 
L 511.8909 199.073331 
L 513.163629 202.151151 
L 514.215475 205.228971 
L 515.011334 208.306792 
L 515.534375 211.384612 
L 515.817246 214.462432 
L 515.939399 217.540253 
L 515.963636 220.618073 
L 515.868325 223.695893 
L 515.55526 226.773714 
L 514.937521 229.851534 
L 514.024858 232.929355 
L 512.921471 236.007175 
L 511.732252 239.084995 
L 510.465088 242.162816 
L 509.031407 245.240636 
L 507.350825 248.318456 
L 505.453352 251.396277 
L 503.479655 254.474097 
L 501.592303 257.551917 
L 499.885233 260.629738 
L 498.349673 263.707558 
L 496.899376 266.785378 
L 495.440517 269.863199 
L 493.953172 272.941019 
L 492.520022 276.01884 
L 491.265959 279.09666 
L 490.262799 282.17448 
L 489.491534 285.252301 
L 488.88476 288.330121 
L 488.387952 291.407941 
L 487.979715 294.485762 
L 487.654381 297.563582 
L 487.405395 300.641402 
L 487.224663 303.719223 
L 487.104349 306.797043 
L 487.031904 309.874863 
L 486.984203 312.952684 
L 486.931068 316.030504 
L 486.852472 319.108324 
L 486.754383 322.186145 
L 486.658889 325.263965 
L 486.574831 328.341786 
L 486.486272 331.419606 
L 486.37204 334.497426 
L 486.226672 337.575247 
L 486.059499 340.653067 
L 485.885869 343.730887 
L 485.725126 346.808708 
L 485.593218 349.886528 
L 485.487066 352.964348 
L 485.384484 356.042169 
L 485.266111 359.119989 
L 485.133029 362.197809 
L 485.002183 365.27563 
L 484.889982 368.35345 
L 484.80193 371.431271 
L 484.734769 374.509091 
z
" clip-path="url(#p23d2c19a1d)" style="fill: #5e548e; fill-opacity: 0.5"/>
   </g>
   <g id="PolyCollection_3">
    <path d="M 66.731489 279.925572 
L 66.444795 279.925572 
L 66.34699 277.347444 
L 66.214973 274.769316 
L 66.044272 272.191188 
L 65.827404 269.61306 
L 65.554672 267.034932 
L 65.213836 264.456804 
L 64.782057 261.878676 
L 64.226044 259.300548 
L 63.52487 256.72242 
L 62.691694 254.144293 
L 61.765289 251.566165 
L 60.780381 248.988037 
L 59.748148 246.409909 
L 58.662404 243.831781 
L 57.514835 241.253653 
L 56.293704 238.675525 
L 54.973135 236.097397 
L 53.519896 233.519269 
L 51.911888 230.941141 
L 50.150096 228.363013 
L 48.279661 225.784886 
L 46.410656 223.206758 
L 44.685338 220.62863 
L 43.210168 218.050502 
L 42.022338 215.472374 
L 41.090556 212.894246 
L 40.331601 210.316118 
L 39.646725 207.73799 
L 38.945728 205.159862 
L 38.158913 202.581734 
L 37.286233 200.003607 
L 36.435539 197.425479 
L 35.76071 194.847351 
L 35.356723 192.269223 
L 35.236364 189.691095 
L 35.389128 187.112967 
L 35.817811 184.534839 
L 36.499858 181.956711 
L 37.346834 179.378583 
L 38.253467 176.800455 
L 39.178698 174.222328 
L 40.131765 171.6442 
L 41.10032 169.066072 
L 42.051994 166.487944 
L 42.99354 163.909816 
L 43.982273 161.331688 
L 45.080785 158.75356 
L 46.310569 156.175432 
L 47.637317 153.597304 
L 48.997313 151.019176 
L 50.343164 148.441048 
L 51.662347 145.862921 
L 52.952705 143.284793 
L 54.188962 140.706665 
L 55.317461 138.128537 
L 56.285944 135.550409 
L 57.089008 132.972281 
L 57.785948 130.394153 
L 58.462255 127.816025 
L 59.175283 125.237897 
L 59.937251 122.659769 
L 60.715635 120.081642 
L 61.433043 117.503514 
L 62.008104 114.925386 
L 62.419134 112.347258 
L 62.709149 109.76913 
L 62.936828 107.191002 
L 63.142857 104.612874 
L 63.34427 102.034746 
L 63.537767 99.456618 
L 63.715523 96.87849 
L 63.880799 94.300362 
L 64.038188 91.722235 
L 64.17823 89.144107 
L 64.288346 86.565979 
L 64.370472 83.987851 
L 64.436142 81.409723 
L 64.494089 78.831595 
L 64.552855 76.253467 
L 64.627929 73.675339 
L 64.733947 71.097211 
L 64.869725 68.519083 
L 65.018903 65.940956 
L 65.165673 63.362828 
L 65.304238 60.7847 
L 65.434923 58.206572 
L 65.559686 55.628444 
L 65.682164 53.050316 
L 65.804364 50.472188 
L 65.922764 47.89406 
L 66.032985 45.315932 
L 66.135038 42.737804 
L 66.229905 40.159677 
L 66.315366 37.581549 
L 66.38809 35.003421 
L 66.446831 32.425293 
L 66.492207 29.847165 
L 66.525615 27.269037 
L 66.549365 24.690909 
L 66.62692 24.690909 
L 66.62692 24.690909 
L 66.65067 27.269037 
L 66.684077 29.847165 
L 66.729453 32.425293 
L 66.788195 35.003421 
L 66.860919 37.581549 
L 66.946379 40.159677 
L 67.041246 42.737804 
L 67.1433 45.315932 
L 67.25352 47.89406 
L 67.371921 50.472188 
L 67.49412 53.050316 
L 67.616599 55.628444 
L 67.741361 58.206572 
L 67.872047 60.7847 
L 68.010611 63.362828 
L 68.157382 65.940956 
L 68.306559 68.519083 
L 68.442338 71.097211 
L 68.548355 73.675339 
L 68.62343 76.253467 
L 68.682196 78.831595 
L 68.740142 81.409723 
L 68.805813 83.987851 
L 68.887938 86.565979 
L 68.998054 89.144107 
L 69.138097 91.722235 
L 69.295486 94.300362 
L 69.460761 96.87849 
L 69.638518 99.456618 
L 69.832014 102.034746 
L 70.033427 104.612874 
L 70.239457 107.191002 
L 70.467135 109.76913 
L 70.757151 112.347258 
L 71.168181 114.925386 
L 71.743242 117.503514 
L 72.46065 120.081642 
L 73.239033 122.659769 
L 74.001002 125.237897 
L 74.714029 127.816025 
L 75.390337 130.394153 
L 76.087276 132.972281 
L 76.890341 135.550409 
L 77.858824 138.128537 
L 78.987322 140.706665 
L 80.22358 143.284793 
L 81.513938 145.862921 
L 82.833121 148.441048 
L 84.178972 151.019176 
L 85.538967 153.597304 
L 86.865715 156.175432 
L 88.0955 158.75356 
L 89.194011 161.331688 
L 90.182745 163.909816 
L 91.12429 166.487944 
L 92.075964 169.066072 
L 93.044519 171.6442 
L 93.997586 174.222328 
L 94.922817 176.800455 
L 95.82945 179.378583 
L 96.676427 181.956711 
L 97.358474 184.534839 
L 97.787156 187.112967 
L 97.939921 189.691095 
L 97.819561 192.269223 
L 97.415574 194.847351 
L 96.740746 197.425479 
L 95.890051 200.003607 
L 95.017372 202.581734 
L 94.230557 205.159862 
L 93.52956 207.73799 
L 92.844684 210.316118 
L 92.085729 212.894246 
L 91.153947 215.472374 
L 89.966117 218.050502 
L 88.490947 220.62863 
L 86.765629 223.206758 
L 84.896623 225.784886 
L 83.026189 228.363013 
L 81.264397 230.941141 
L 79.656388 233.519269 
L 78.203149 236.097397 
L 76.88258 238.675525 
L 75.66145 241.253653 
L 74.513881 243.831781 
L 73.428136 246.409909 
L 72.395904 248.988037 
L 71.410995 251.566165 
L 70.48459 254.144293 
L 69.651414 256.72242 
L 68.95024 259.300548 
L 68.394228 261.878676 
L 67.962448 264.456804 
L 67.621612 267.034932 
L 67.34888 269.61306 
L 67.132012 272.191188 
L 66.961311 274.769316 
L 66.829294 277.347444 
L 66.731489 279.925572 
z
" clip-path="url(#p23d2c19a1d)" style="fill: #e85d04; fill-opacity: 0.5"/>
   </g>
   <g id="PolyCollection_4">
    <path d="M 380.122296 365.548297 
L 380.089562 365.548297 
L 380.082854 362.535293 
L 380.068575 359.522289 
L 380.040483 356.509285 
L 379.996525 353.496281 
L 379.942151 350.483276 
L 379.889323 347.470272 
L 379.848335 344.457268 
L 379.815663 341.444264 
L 379.771819 338.43126 
L 379.696777 335.418256 
L 379.587965 332.405252 
L 379.460091 329.392248 
L 379.32759 326.379244 
L 379.190879 323.36624 
L 379.039692 320.353236 
L 378.865346 317.340232 
L 378.674338 314.327228 
L 378.498143 311.314224 
L 378.375912 308.301219 
L 378.309706 305.288215 
L 378.250197 302.275211 
L 378.145238 299.262207 
L 377.992133 296.249203 
L 377.826812 293.236199 
L 377.673775 290.223195 
L 377.530774 287.210191 
L 377.398411 284.197187 
L 377.294494 281.184183 
L 377.226446 278.171179 
L 377.162214 275.158175 
L 377.036324 272.145171 
L 376.785917 269.132167 
L 376.392431 266.119163 
L 375.898113 263.106158 
L 375.373423 260.093154 
L 374.850695 257.08015 
L 374.280148 254.067146 
L 373.553235 251.054142 
L 372.580215 248.041138 
L 371.364596 245.028134 
L 370.009531 242.01513 
L 368.624937 239.002126 
L 367.20352 235.989122 
L 365.60806 232.976118 
L 363.71911 229.963114 
L 361.60308 226.95011 
L 359.508315 223.937106 
L 357.674691 220.924102 
L 356.154598 217.911097 
L 354.82246 214.898093 
L 353.532274 211.885089 
L 352.245093 208.872085 
L 351.025434 205.859081 
L 349.971328 202.846077 
L 349.181468 199.833073 
L 348.75415 196.820069 
L 348.75541 193.807065 
L 349.163903 190.794061 
L 349.868454 187.781057 
L 350.751022 184.768053 
L 351.780384 181.755049 
L 353.017259 178.742045 
L 354.530117 175.729041 
L 356.312598 172.716036 
L 358.271648 169.703032 
L 360.277158 166.690028 
L 362.222611 163.677024 
L 364.056828 160.66402 
L 365.779882 157.651016 
L 367.414911 154.638012 
L 368.973619 151.625008 
L 370.437996 148.612004 
L 371.765498 145.599 
L 372.904625 142.585996 
L 373.811258 139.572992 
L 374.470574 136.559988 
L 374.923811 133.546984 
L 375.272237 130.53398 
L 375.631147 127.520975 
L 376.059112 124.507971 
L 376.527852 121.494967 
L 376.964588 118.481963 
L 377.326006 115.468959 
L 377.633317 112.455955 
L 377.941479 109.442951 
L 378.281105 106.429947 
L 378.630782 103.416943 
L 378.939858 100.403939 
L 379.173026 97.390935 
L 379.334636 94.377931 
L 379.457102 91.364927 
L 379.571259 88.351923 
L 379.68648 85.338919 
L 379.793284 82.325914 
L 379.879335 79.31291 
L 379.941529 76.299906 
L 379.986081 73.286902 
L 380.021104 70.273898 
L 380.050588 67.260894 
L 380.16127 67.260894 
L 380.16127 67.260894 
L 380.190753 70.273898 
L 380.225777 73.286902 
L 380.270329 76.299906 
L 380.332523 79.31291 
L 380.418573 82.325914 
L 380.525377 85.338919 
L 380.640599 88.351923 
L 380.754756 91.364927 
L 380.877222 94.377931 
L 381.038831 97.390935 
L 381.272 100.403939 
L 381.581076 103.416943 
L 381.930753 106.429947 
L 382.270379 109.442951 
L 382.57854 112.455955 
L 382.885852 115.468959 
L 383.24727 118.481963 
L 383.684006 121.494967 
L 384.152746 124.507971 
L 384.580711 127.520975 
L 384.939621 130.53398 
L 385.288047 133.546984 
L 385.741283 136.559988 
L 386.4006 139.572992 
L 387.307233 142.585996 
L 388.44636 145.599 
L 389.773862 148.612004 
L 391.238239 151.625008 
L 392.796947 154.638012 
L 394.431975 157.651016 
L 396.15503 160.66402 
L 397.989246 163.677024 
L 399.9347 166.690028 
L 401.94021 169.703032 
L 403.89926 172.716036 
L 405.681741 175.729041 
L 407.194598 178.742045 
L 408.431473 181.755049 
L 409.460836 184.768053 
L 410.343403 187.781057 
L 411.047955 190.794061 
L 411.456448 193.807065 
L 411.457708 196.820069 
L 411.03039 199.833073 
L 410.24053 202.846077 
L 409.186424 205.859081 
L 407.966765 208.872085 
L 406.679584 211.885089 
L 405.389398 214.898093 
L 404.057259 217.911097 
L 402.537167 220.924102 
L 400.703543 223.937106 
L 398.608778 226.95011 
L 396.492748 229.963114 
L 394.603798 232.976118 
L 393.008338 235.989122 
L 391.58692 239.002126 
L 390.202327 242.01513 
L 388.847261 245.028134 
L 387.631642 248.041138 
L 386.658623 251.054142 
L 385.931709 254.067146 
L 385.361162 257.08015 
L 384.838435 260.093154 
L 384.313745 263.106158 
L 383.819426 266.119163 
L 383.42594 269.132167 
L 383.175534 272.145171 
L 383.049644 275.158175 
L 382.985412 278.171179 
L 382.917363 281.184183 
L 382.813446 284.197187 
L 382.681083 287.210191 
L 382.538083 290.223195 
L 382.385046 293.236199 
L 382.219725 296.249203 
L 382.06662 299.262207 
L 381.961661 302.275211 
L 381.902152 305.288215 
L 381.835946 308.301219 
L 381.713714 311.314224 
L 381.53752 314.327228 
L 381.346512 317.340232 
L 381.172165 320.353236 
L 381.020979 323.36624 
L 380.884267 326.379244 
L 380.751767 329.392248 
L 380.623893 332.405252 
L 380.515081 335.418256 
L 380.440039 338.43126 
L 380.396195 341.444264 
L 380.363523 344.457268 
L 380.322535 347.470272 
L 380.269706 350.483276 
L 380.215332 353.496281 
L 380.171375 356.509285 
L 380.143282 359.522289 
L 380.129003 362.535293 
L 380.122296 365.548297 
z
" clip-path="url(#p23d2c19a1d)" style="fill: #e85d04; fill-opacity: 0.5"/>
   </g>
   <g id="matplotlib.axis_1">
    <g id="xtick_1">
     <g id="line2d_1">
      <defs>
       <path id="mf366befb2a" d="M 0 0 
L 0 4 
" style="stroke: #000000; stroke-width: 0.8"/>
      </defs>
      <g>
       <use xlink:href="#mf366befb2a" x="118.841107" y="392" style="stroke: #000000; stroke-width: 0.8"/>
      </g>
     </g>
    </g>
    <g id="xtick_2">
     <g id="line2d_2">
      <g>
       <use xlink:href="#mf366befb2a" x="432.358893" y="392" style="stroke: #000000; stroke-width: 0.8"/>
      </g>
     </g>
    </g>
   </g>
   <g id="matplotlib.axis_2">
    <g id="ytick_1">
     <g id="line2d_3">
      <defs>
       <path id="mc835875962" d="M 0 0 
L -4 0 
" style="stroke: #000000; stroke-width: 0.8"/>
      </defs>
      <g>
       <use xlink:href="#mc835875962" x="11.2" y="331.763053" style="stroke: #000000; stroke-width: 0.8"/>
      </g>
     </g>
    </g>
    <g id="ytick_2">
     <g id="line2d_4">
      <g>
       <use xlink:href="#mc835875962" x="11.2" y="259.596215" style="stroke: #000000; stroke-width: 0.8"/>
      </g>
     </g>
    </g>
    <g id="ytick_3">
     <g id="line2d_5">
      <g>
       <use xlink:href="#mc835875962" x="11.2" y="187.429377" style="stroke: #000000; stroke-width: 0.8"/>
      </g>
     </g>
    </g>
    <g id="ytick_4">
     <g id="line2d_6">
      <g>
       <use xlink:href="#mc835875962" x="11.2" y="115.262538" style="stroke: #000000; stroke-width: 0.8"/>
      </g>
     </g>
    </g>
    <g id="ytick_5">
     <g id="line2d_7">
      <g>
       <use xlink:href="#mc835875962" x="11.2" y="43.0957" style="stroke: #000000; stroke-width: 0.8"/>
      </g>
     </g>
    </g>
   </g>
   <g id="LineCollection_1">
    <path d="M 155.418182 175.772869 
L 186.76996 175.772869 
" clip-path="url(#p23d2c19a1d)" style="fill: none; stroke: #001219; stroke-width: 1.5"/>
    <path d="M 468.935968 217.670818 
L 500.287747 217.670818 
" clip-path="url(#p23d2c19a1d)" style="fill: none; stroke: #001219; stroke-width: 1.5"/>
   </g>
   <g id="LineCollection_2">
    <path d="M 50.912253 186.001007 
L 82.264032 186.001007 
" clip-path="url(#p23d2c19a1d)" style="fill: none; stroke: #005f73; stroke-width: 1.5"/>
    <path d="M 364.43004 196.378191 
L 395.781818 196.378191 
" clip-path="url(#p23d2c19a1d)" style="fill: none; stroke: #005f73; stroke-width: 1.5"/>
   </g>
   <g id="line2d_8">
    <path d="M 11.2 187.429377 
L 540 187.429377 
" clip-path="url(#p23d2c19a1d)" style="fill: none; stroke-dasharray: 7.4,3.2; stroke-dashoffset: 0; stroke: #000000; stroke-opacity: 0.7; stroke-width: 2"/>
   </g>
   <g id="patch_3">
    <path d="M 11.2 392 
L 11.2 7.2 
" style="fill: none; stroke: #000000; stroke-linejoin: miter; stroke-linecap: square"/>
   </g>
   <g id="patch_4">
    <path d="M 11.2 392 
L 540 392 
" style="fill: none; stroke: #000000; stroke-linejoin: miter; stroke-linecap: square"/>
   </g>
  </g>
 </g>
 <defs>
  <clipPath id="p23d2c19a1d">
   <rect x="11.2" y="7.2" width="528.8" height="384.8"/>
  </clipPath>
 </defs>
</svg>
