<?xml version="1.0" encoding="utf-8" standalone="no"?>
<!DOCTYPE svg PUBLIC "-//W3C//DTD SVG 1.1//EN"
  "http://www.w3.org/Graphics/SVG/1.1/DTD/svg11.dtd">
<svg xmlns:xlink="http://www.w3.org/1999/xlink" width="547.2pt" height="403.2pt" viewBox="0 0 547.2 403.2" xmlns="http://www.w3.org/2000/svg" version="1.1">
 <metadata>
  <rdf:RDF xmlns:dc="http://purl.org/dc/elements/1.1/" xmlns:cc="http://creativecommons.org/ns#" xmlns:rdf="http://www.w3.org/1999/02/22-rdf-syntax-ns#">
   <cc:Work>
    <dc:type rdf:resource="http://purl.org/dc/dcmitype/StillImage"/>
    <dc:date>2025-07-14T12:16:11.761719</dc:date>
    <dc:format>image/svg+xml</dc:format>
    <dc:creator>
     <cc:Agent>
      <dc:title>Matplotlib v3.9.2, https://matplotlib.org/</dc:title>
     </cc:Agent>
    </dc:creator>
   </cc:Work>
  </rdf:RDF>
 </metadata>
 <defs>
  <style type="text/css">*{stroke-linejoin: round; stroke-linecap: butt}</style>
 </defs>
 <g id="figure_1">
  <g id="patch_1">
   <path d="M 0 403.2 
L 547.2 403.2 
L 547.2 0 
L 0 0 
z
" style="fill: #ffffff"/>
  </g>
  <g id="axes_1">
   <g id="patch_2">
    <path d="M 55.6375 392 
L 540 392 
L 540 7.2 
L 55.6375 7.2 
z
" style="fill: #ffffff"/>
   </g>
   <g id="PolyCollection_1">
    <path d="M 177.772868 276.037777 
L 177.684879 276.037777 
L 177.657797 273.858119 
L 177.624689 271.678461 
L 177.587408 269.498803 
L 177.545613 267.319145 
L 177.494537 265.139487 
L 177.42518 262.959829 
L 177.326578 260.780171 
L 177.189491 258.600513 
L 177.010214 256.420855 
L 176.79143 254.241196 
L 176.539178 252.061538 
L 176.258253 249.88188 
L 175.948664 247.702222 
L 175.605604 245.522564 
L 175.222466 243.342906 
L 174.79208 241.163248 
L 174.305594 238.98359 
L 173.754987 236.803932 
L 173.138872 234.624274 
L 172.46238 232.444616 
L 171.730039 230.264958 
L 170.943067 228.0853 
L 170.105171 225.905642 
L 169.228732 223.725984 
L 168.338527 221.546326 
L 167.473173 219.366668 
L 166.67423 217.18701 
L 165.959868 215.007352 
L 165.306072 212.827694 
L 164.659026 210.648036 
L 163.969231 208.468378 
L 163.218561 206.28872 
L 162.423962 204.109062 
L 161.61809 201.929404 
L 160.824733 199.749746 
L 160.060794 197.570088 
L 159.363475 195.39043 
L 158.78915 193.210772 
L 158.364393 191.031114 
L 158.059332 188.851456 
L 157.837282 186.671798 
L 157.713895 184.49214 
L 157.734973 182.312482 
L 157.905999 180.132824 
L 158.17511 177.953166 
L 158.48171 175.773508 
L 158.793782 173.59385 
L 159.097227 171.414192 
L 159.376907 169.234534 
L 159.622421 167.054876 
L 159.843387 164.875218 
L 160.069669 162.69556 
L 160.333302 160.515902 
L 160.649374 158.336244 
L 161.019093 156.156586 
L 161.452235 153.976928 
L 161.974667 151.79727 
L 162.604734 149.617612 
L 163.329919 147.437954 
L 164.116029 145.258296 
L 164.93094 143.078638 
L 165.747724 140.89898 
L 166.533893 138.719322 
L 167.256084 136.539664 
L 167.899376 134.360006 
L 168.477441 132.180348 
L 169.02431 130.00069 
L 169.577212 127.821032 
L 170.161226 125.641374 
L 170.781373 123.461716 
L 171.42464 121.282058 
L 172.068188 119.1024 
L 172.683599 116.922742 
L 173.23529 114.743084 
L 173.687021 112.563426 
L 174.022215 110.383768 
L 174.257291 108.20411 
L 174.42986 106.024452 
L 174.574383 103.844794 
L 174.708565 101.665136 
L 174.838032 99.485477 
L 174.970795 97.305819 
L 175.124233 95.126161 
L 175.313323 92.946503 
L 175.533836 90.766845 
L 175.765414 88.587187 
L 175.991852 86.407529 
L 176.209501 84.227871 
L 176.414235 82.048213 
L 176.591509 79.868555 
L 176.727473 77.688897 
L 176.825263 75.509239 
L 176.904057 73.329581 
L 176.985477 71.149923 
L 177.08495 68.970265 
L 177.208524 66.790607 
L 177.348196 64.610949 
L 177.482747 62.431291 
L 177.5903 60.251633 
L 177.867448 60.251633 
L 177.867448 60.251633 
L 177.975001 62.431291 
L 178.109552 64.610949 
L 178.249224 66.790607 
L 178.372798 68.970265 
L 178.472271 71.149923 
L 178.553691 73.329581 
L 178.632485 75.509239 
L 178.730275 77.688897 
L 178.866238 79.868555 
L 179.043513 82.048213 
L 179.248246 84.227871 
L 179.465896 86.407529 
L 179.692334 88.587187 
L 179.923912 90.766845 
L 180.144425 92.946503 
L 180.333515 95.126161 
L 180.486953 97.305819 
L 180.619716 99.485477 
L 180.749183 101.665136 
L 180.883365 103.844794 
L 181.027888 106.024452 
L 181.200457 108.20411 
L 181.435533 110.383768 
L 181.770727 112.563426 
L 182.222458 114.743084 
L 182.774149 116.922742 
L 183.38956 119.1024 
L 184.033107 121.282058 
L 184.676375 123.461716 
L 185.296522 125.641374 
L 185.880535 127.821032 
L 186.433438 130.00069 
L 186.980307 132.180348 
L 187.558372 134.360006 
L 188.201664 136.539664 
L 188.923855 138.719322 
L 189.710024 140.89898 
L 190.526808 143.078638 
L 191.341719 145.258296 
L 192.127829 147.437954 
L 192.853014 149.617612 
L 193.483081 151.79727 
L 194.005513 153.976928 
L 194.438655 156.156586 
L 194.808374 158.336244 
L 195.124446 160.515902 
L 195.388078 162.69556 
L 195.614361 164.875218 
L 195.835327 167.054876 
L 196.080841 169.234534 
L 196.360521 171.414192 
L 196.663966 173.59385 
L 196.976038 175.773508 
L 197.282638 177.953166 
L 197.551749 180.132824 
L 197.722775 182.312482 
L 197.743853 184.49214 
L 197.620466 186.671798 
L 197.398416 188.851456 
L 197.093355 191.031114 
L 196.668598 193.210772 
L 196.094273 195.39043 
L 195.396954 197.570088 
L 194.633015 199.749746 
L 193.839658 201.929404 
L 193.033786 204.109062 
L 192.239186 206.28872 
L 191.488517 208.468378 
L 190.798721 210.648036 
L 190.151675 212.827694 
L 189.49788 215.007352 
L 188.783518 217.18701 
L 187.984575 219.366668 
L 187.119221 221.546326 
L 186.229016 223.725984 
L 185.352577 225.905642 
L 184.514681 228.0853 
L 183.727709 230.264958 
L 182.995368 232.444616 
L 182.318876 234.624274 
L 181.702761 236.803932 
L 181.152154 238.98359 
L 180.665668 241.163248 
L 180.235282 243.342906 
L 179.852144 245.522564 
L 179.509084 247.702222 
L 179.199495 249.88188 
L 178.91857 252.061538 
L 178.666318 254.241196 
L 178.447534 256.420855 
L 178.268257 258.600513 
L 178.13117 260.780171 
L 178.032568 262.959829 
L 177.963211 265.139487 
L 177.912135 267.319145 
L 177.87034 269.498803 
L 177.833059 271.678461 
L 177.799951 273.858119 
L 177.772868 276.037777 
z
" clip-path="url(#p4fe7e1a6ee)" style="fill: #5e548e; fill-opacity: 0.5"/>
   </g>
   <g id="PolyCollection_2">
    <path d="M 498.04701 374.509091 
L 497.890077 374.509091 
L 497.847201 371.431271 
L 497.790989 368.35345 
L 497.719359 365.27563 
L 497.635828 362.197809 
L 497.550868 359.119989 
L 497.475298 356.042169 
L 497.40981 352.964348 
L 497.342043 349.886528 
L 497.257833 346.808708 
L 497.155214 343.730887 
L 497.044369 340.653067 
L 496.937646 337.575247 
L 496.844843 334.497426 
L 496.771917 331.419606 
L 496.715381 328.341786 
L 496.661718 325.263965 
L 496.600755 322.186145 
L 496.538135 319.108324 
L 496.487959 316.030504 
L 496.454038 312.952684 
L 496.423585 309.874863 
L 496.377337 306.797043 
L 496.300528 303.719223 
L 496.185149 300.641402 
L 496.026196 297.563582 
L 495.818503 294.485762 
L 495.557884 291.407941 
L 495.240722 288.330121 
L 494.853357 285.252301 
L 494.360982 282.17448 
L 493.720564 279.09666 
L 492.91997 276.01884 
L 492.005047 272.941019 
L 491.055526 269.863199 
L 490.12419 266.785378 
L 489.19832 263.707558 
L 488.218019 260.629738 
L 487.128225 257.551917 
L 485.923339 254.474097 
L 484.663331 251.396277 
L 483.451984 248.318456 
L 482.3791 245.240636 
L 481.463838 242.162816 
L 480.65488 239.084995 
L 479.895683 236.007175 
L 479.19128 232.929355 
L 478.608636 229.851534 
L 478.214272 226.773714 
L 478.014411 223.695893 
L 477.953564 220.618073 
L 477.969037 217.540253 
L 478.04702 214.462432 
L 478.227604 211.384612 
L 478.561514 208.306792 
L 479.069591 205.228971 
L 479.741089 202.151151 
L 480.5536 199.073331 
L 481.478964 195.99551 
L 482.473303 192.91769 
L 483.479678 189.83987 
L 484.45615 186.762049 
L 485.404097 183.684229 
L 486.362181 180.606408 
L 487.361702 177.528588 
L 488.378684 174.450768 
L 489.32927 171.372947 
L 490.120091 168.295127 
L 490.71361 165.217307 
L 491.153908 162.139486 
L 491.535054 159.061666 
L 491.943481 155.983846 
L 492.420646 152.906025 
L 492.963308 149.828205 
L 493.544326 146.750385 
L 494.13143 143.672564 
L 494.696467 140.594744 
L 495.218313 137.516923 
L 495.681892 134.439103 
L 496.074502 131.361283 
L 496.384532 128.283462 
L 496.606949 125.205642 
L 496.751422 122.127822 
L 496.844189 119.050001 
L 496.918924 115.972181 
L 497.0012 112.894361 
L 497.098123 109.81654 
L 497.201088 106.73872 
L 497.297904 103.6609 
L 497.383343 100.583079 
L 497.460761 97.505259 
L 497.536298 94.427438 
L 497.612457 91.349618 
L 497.686306 88.271798 
L 497.7525 85.193977 
L 497.807439 82.116157 
L 497.850972 79.038337 
L 497.885186 75.960516 
L 497.912265 72.882696 
L 497.933316 69.804876 
L 498.00377 69.804876 
L 498.00377 69.804876 
L 498.024822 72.882696 
L 498.051901 75.960516 
L 498.086115 79.038337 
L 498.129648 82.116157 
L 498.184587 85.193977 
L 498.250781 88.271798 
L 498.32463 91.349618 
L 498.400789 94.427438 
L 498.476326 97.505259 
L 498.553744 100.583079 
L 498.639183 103.6609 
L 498.735999 106.73872 
L 498.838963 109.81654 
L 498.935887 112.894361 
L 499.018163 115.972181 
L 499.092898 119.050001 
L 499.185665 122.127822 
L 499.330138 125.205642 
L 499.552554 128.283462 
L 499.862585 131.361283 
L 500.255195 134.439103 
L 500.718774 137.516923 
L 501.240619 140.594744 
L 501.805657 143.672564 
L 502.39276 146.750385 
L 502.973779 149.828205 
L 503.516441 152.906025 
L 503.993606 155.983846 
L 504.402033 159.061666 
L 504.783179 162.139486 
L 505.223477 165.217307 
L 505.816995 168.295127 
L 506.607817 171.372947 
L 507.558403 174.450768 
L 508.575385 177.528588 
L 509.574906 180.606408 
L 510.53299 183.684229 
L 511.480936 186.762049 
L 512.457409 189.83987 
L 513.463784 192.91769 
L 514.458123 195.99551 
L 515.383487 199.073331 
L 516.195997 202.151151 
L 516.867496 205.228971 
L 517.375573 208.306792 
L 517.709482 211.384612 
L 517.890067 214.462432 
L 517.96805 217.540253 
L 517.983523 220.618073 
L 517.922676 223.695893 
L 517.722815 226.773714 
L 517.328451 229.851534 
L 516.745807 232.929355 
L 516.041404 236.007175 
L 515.282206 239.084995 
L 514.473249 242.162816 
L 513.557986 245.240636 
L 512.485103 248.318456 
L 511.273756 251.396277 
L 510.013748 254.474097 
L 508.808862 257.551917 
L 507.719068 260.629738 
L 506.738767 263.707558 
L 505.812896 266.785378 
L 504.881561 269.863199 
L 503.93204 272.941019 
L 503.017117 276.01884 
L 502.216522 279.09666 
L 501.576105 282.17448 
L 501.083729 285.252301 
L 500.696365 288.330121 
L 500.379203 291.407941 
L 500.118584 294.485762 
L 499.910891 297.563582 
L 499.751938 300.641402 
L 499.636559 303.719223 
L 499.55975 306.797043 
L 499.513501 309.874863 
L 499.483049 312.952684 
L 499.449128 316.030504 
L 499.398952 319.108324 
L 499.336332 322.186145 
L 499.275368 325.263965 
L 499.221706 328.341786 
L 499.16517 331.419606 
L 499.092244 334.497426 
L 498.999441 337.575247 
L 498.892718 340.653067 
L 498.781873 343.730887 
L 498.679254 346.808708 
L 498.595044 349.886528 
L 498.527277 352.964348 
L 498.461788 356.042169 
L 498.386219 359.119989 
L 498.301259 362.197809 
L 498.217727 365.27563 
L 498.146098 368.35345 
L 498.089886 371.431271 
L 498.04701 374.509091 
z
" clip-path="url(#p4fe7e1a6ee)" style="fill: #5e548e; fill-opacity: 0.5"/>
   </g>
   <g id="PolyCollection_3">
    <path d="M 97.760469 279.925572 
L 97.577444 279.925572 
L 97.515005 277.347444 
L 97.430726 274.769316 
L 97.32175 272.191188 
L 97.183301 269.61306 
L 97.009189 267.034932 
L 96.791599 264.456804 
L 96.515951 261.878676 
L 96.160993 259.300548 
L 95.713363 256.72242 
L 95.181464 254.144293 
L 94.590047 251.566165 
L 93.961281 248.988037 
L 93.302304 246.409909 
L 92.609164 243.831781 
L 91.876556 241.253653 
L 91.096986 238.675525 
L 90.253935 236.097397 
L 89.326187 233.519269 
L 88.299634 230.941141 
L 87.174906 228.363013 
L 85.98082 225.784886 
L 84.787647 223.206758 
L 83.686203 220.62863 
L 82.744455 218.050502 
L 81.986144 215.472374 
L 81.391294 212.894246 
L 80.906777 210.316118 
L 80.469552 207.73799 
L 80.022036 205.159862 
L 79.519733 202.581734 
L 78.962614 200.003607 
L 78.419531 197.425479 
L 77.98872 194.847351 
L 77.730815 192.269223 
L 77.653977 189.691095 
L 77.751502 187.112967 
L 78.025173 184.534839 
L 78.460592 181.956711 
L 79.001302 179.378583 
L 79.580097 176.800455 
L 80.170764 174.222328 
L 80.779202 171.6442 
L 81.397528 169.066072 
L 82.005077 166.487944 
L 82.606159 163.909816 
L 83.237367 161.331688 
L 83.938657 158.75356 
L 84.723752 156.175432 
L 85.570748 153.597304 
L 86.438969 151.019176 
L 87.29816 148.441048 
L 88.140327 145.862921 
L 88.964092 143.284793 
L 89.753319 140.706665 
L 90.473752 138.128537 
L 91.092032 135.550409 
L 91.604708 132.972281 
L 92.049634 130.394153 
L 92.481389 127.816025 
L 92.936586 125.237897 
L 93.423027 122.659769 
L 93.919947 120.081642 
L 94.377941 117.503514 
L 94.745059 114.925386 
L 95.007461 112.347258 
L 95.192607 109.76913 
L 95.337957 107.191002 
L 95.469486 104.612874 
L 95.598068 102.034746 
L 95.721597 99.456618 
L 95.835076 96.87849 
L 95.940588 94.300362 
L 96.041065 91.722235 
L 96.130468 89.144107 
L 96.200767 86.565979 
L 96.253195 83.987851 
L 96.295119 81.409723 
L 96.332112 78.831595 
L 96.369629 76.253467 
L 96.417556 73.675339 
L 96.485238 71.097211 
L 96.571919 68.519083 
L 96.667154 65.940956 
L 96.760852 63.362828 
L 96.849312 60.7847 
L 96.932742 58.206572 
L 97.01239 55.628444 
L 97.09058 53.050316 
L 97.168592 50.472188 
L 97.244179 47.89406 
L 97.314544 45.315932 
L 97.379695 42.737804 
L 97.440258 40.159677 
L 97.494816 37.581549 
L 97.541243 35.003421 
L 97.578744 32.425293 
L 97.607712 29.847165 
L 97.629039 27.269037 
L 97.644201 24.690909 
L 97.693712 24.690909 
L 97.693712 24.690909 
L 97.708874 27.269037 
L 97.730201 29.847165 
L 97.75917 32.425293 
L 97.79667 35.003421 
L 97.843097 37.581549 
L 97.897655 40.159677 
L 97.958218 42.737804 
L 98.023369 45.315932 
L 98.093734 47.89406 
L 98.169321 50.472188 
L 98.247333 53.050316 
L 98.325523 55.628444 
L 98.405172 58.206572 
L 98.488601 60.7847 
L 98.577061 63.362828 
L 98.670759 65.940956 
L 98.765994 68.519083 
L 98.852675 71.097211 
L 98.920357 73.675339 
L 98.968284 76.253467 
L 99.005801 78.831595 
L 99.042794 81.409723 
L 99.084718 83.987851 
L 99.137147 86.565979 
L 99.207445 89.144107 
L 99.296848 91.722235 
L 99.397325 94.300362 
L 99.502837 96.87849 
L 99.616317 99.456618 
L 99.739845 102.034746 
L 99.868427 104.612874 
L 99.999956 107.191002 
L 100.145306 109.76913 
L 100.330452 112.347258 
L 100.592854 114.925386 
L 100.959973 117.503514 
L 101.417966 120.081642 
L 101.914886 122.659769 
L 102.401327 125.237897 
L 102.856524 127.816025 
L 103.288279 130.394153 
L 103.733205 132.972281 
L 104.245881 135.550409 
L 104.864161 138.128537 
L 105.584595 140.706665 
L 106.373822 143.284793 
L 107.197586 145.862921 
L 108.039753 148.441048 
L 108.898944 151.019176 
L 109.767166 153.597304 
L 110.614162 156.175432 
L 111.399256 158.75356 
L 112.100546 161.331688 
L 112.731754 163.909816 
L 113.332837 166.487944 
L 113.940385 169.066072 
L 114.558711 171.6442 
L 115.167149 174.222328 
L 115.757817 176.800455 
L 116.336611 179.378583 
L 116.877321 181.956711 
L 117.31274 184.534839 
L 117.586411 187.112967 
L 117.683936 189.691095 
L 117.607098 192.269223 
L 117.349193 194.847351 
L 116.918383 197.425479 
L 116.375299 200.003607 
L 115.81818 202.581734 
L 115.315877 205.159862 
L 114.868361 207.73799 
L 114.431136 210.316118 
L 113.946619 212.894246 
L 113.351769 215.472374 
L 112.593458 218.050502 
L 111.65171 220.62863 
L 110.550266 223.206758 
L 109.357093 225.784886 
L 108.163007 228.363013 
L 107.038279 230.941141 
L 106.011726 233.519269 
L 105.083979 236.097397 
L 104.240927 238.675525 
L 103.461357 241.253653 
L 102.728749 243.831781 
L 102.03561 246.409909 
L 101.376632 248.988037 
L 100.747867 251.566165 
L 100.156449 254.144293 
L 99.62455 256.72242 
L 99.17692 259.300548 
L 98.821962 261.878676 
L 98.546314 264.456804 
L 98.328724 267.034932 
L 98.154612 269.61306 
L 98.016163 272.191188 
L 97.907188 274.769316 
L 97.822908 277.347444 
L 97.760469 279.925572 
z
" clip-path="url(#p4fe7e1a6ee)" style="fill: #e85d04; fill-opacity: 0.5"/>
   </g>
   <g id="PolyCollection_4">
    <path d="M 417.919075 365.548297 
L 417.898177 365.548297 
L 417.893895 362.535293 
L 417.884779 359.522289 
L 417.866845 356.509285 
L 417.838783 353.496281 
L 417.80407 350.483276 
L 417.770345 347.470272 
L 417.744178 344.457268 
L 417.72332 341.444264 
L 417.69533 338.43126 
L 417.647424 335.418256 
L 417.577958 332.405252 
L 417.496323 329.392248 
L 417.411735 326.379244 
L 417.324458 323.36624 
L 417.227941 320.353236 
L 417.116638 317.340232 
L 416.994698 314.327228 
L 416.882216 311.314224 
L 416.804183 308.301219 
L 416.761917 305.288215 
L 416.723926 302.275211 
L 416.65692 299.262207 
L 416.559179 296.249203 
L 416.453637 293.236199 
L 416.355939 290.223195 
L 416.264647 287.210191 
L 416.180147 284.197187 
L 416.113806 281.184183 
L 416.070364 278.171179 
L 416.029358 275.158175 
L 415.94899 272.145171 
L 415.78913 269.132167 
L 415.537929 266.119163 
L 415.222356 263.106158 
L 414.887394 260.093154 
L 414.553684 257.08015 
L 414.189447 254.067146 
L 413.725385 251.054142 
L 413.10421 248.041138 
L 412.328158 245.028134 
L 411.463084 242.01513 
L 410.57916 239.002126 
L 409.671727 235.989122 
L 408.653185 232.976118 
L 407.447279 229.963114 
L 406.096405 226.95011 
L 404.759107 223.937106 
L 403.588521 220.924102 
L 402.618094 217.911097 
L 401.767656 214.898093 
L 400.944001 211.885089 
L 400.122265 208.872085 
L 399.343634 205.859081 
L 398.670693 202.846077 
L 398.166446 199.833073 
L 397.893647 196.820069 
L 397.894451 193.807065 
L 398.155233 190.794061 
L 398.605019 187.781057 
L 399.16845 184.768053 
L 399.825595 181.755049 
L 400.615216 178.742045 
L 401.581025 175.729041 
L 402.718961 172.716036 
L 403.969618 169.703032 
L 405.249936 166.690028 
L 406.491914 163.677024 
L 407.662878 160.66402 
L 408.762876 157.651016 
L 409.806678 154.638012 
L 410.801758 151.625008 
L 411.736616 148.612004 
L 412.584094 145.599 
L 413.311312 142.585996 
L 413.890107 139.572992 
L 414.311015 136.559988 
L 414.600361 133.546984 
L 414.822797 130.53398 
L 415.051925 127.520975 
L 415.325138 124.507971 
L 415.624381 121.494967 
L 415.903194 118.481963 
L 416.133923 115.468959 
L 416.330111 112.455955 
L 416.526841 109.442951 
L 416.743658 106.429947 
L 416.966892 103.416943 
L 417.164206 100.403939 
L 417.313061 97.390935 
L 417.416232 94.377931 
L 417.494415 91.364927 
L 417.567293 88.351923 
L 417.64085 85.338919 
L 417.709034 82.325914 
L 417.763968 79.31291 
L 417.803673 76.299906 
L 417.832115 73.286902 
L 417.854474 70.273898 
L 417.873296 67.260894 
L 417.943956 67.260894 
L 417.943956 67.260894 
L 417.962778 70.273898 
L 417.985137 73.286902 
L 418.013579 76.299906 
L 418.053284 79.31291 
L 418.108218 82.325914 
L 418.176402 85.338919 
L 418.249959 88.351923 
L 418.322837 91.364927 
L 418.40102 94.377931 
L 418.504191 97.390935 
L 418.653046 100.403939 
L 418.85036 103.416943 
L 419.073594 106.429947 
L 419.290411 109.442951 
L 419.487141 112.455955 
L 419.683329 115.468959 
L 419.914059 118.481963 
L 420.192871 121.494967 
L 420.492114 124.507971 
L 420.765327 127.520975 
L 420.994455 130.53398 
L 421.216891 133.546984 
L 421.506237 136.559988 
L 421.927145 139.572992 
L 422.50594 142.585996 
L 423.233158 145.599 
L 424.080636 148.612004 
L 425.015494 151.625008 
L 426.010574 154.638012 
L 427.054376 157.651016 
L 428.154374 160.66402 
L 429.325338 163.677024 
L 430.567316 166.690028 
L 431.847634 169.703032 
L 433.098292 172.716036 
L 434.236227 175.729041 
L 435.202036 178.742045 
L 435.991657 181.755049 
L 436.648802 184.768053 
L 437.212233 187.781057 
L 437.662019 190.794061 
L 437.922801 193.807065 
L 437.923605 196.820069 
L 437.650806 199.833073 
L 437.146559 202.846077 
L 436.473618 205.859081 
L 435.694987 208.872085 
L 434.873251 211.885089 
L 434.049596 214.898093 
L 433.199158 217.911097 
L 432.228731 220.924102 
L 431.058145 223.937106 
L 429.720847 226.95011 
L 428.369973 229.963114 
L 427.164067 232.976118 
L 426.145525 235.989122 
L 425.238093 239.002126 
L 424.354168 242.01513 
L 423.489094 245.028134 
L 422.713042 248.041138 
L 422.091867 251.054142 
L 421.627805 254.067146 
L 421.263568 257.08015 
L 420.929858 260.093154 
L 420.594896 263.106158 
L 420.279323 266.119163 
L 420.028122 269.132167 
L 419.868262 272.145171 
L 419.787894 275.158175 
L 419.746888 278.171179 
L 419.703446 281.184183 
L 419.637105 284.197187 
L 419.552605 287.210191 
L 419.461313 290.223195 
L 419.363615 293.236199 
L 419.258073 296.249203 
L 419.160332 299.262207 
L 419.093326 302.275211 
L 419.055335 305.288215 
L 419.013069 308.301219 
L 418.935036 311.314224 
L 418.822554 314.327228 
L 418.700614 317.340232 
L 418.589311 320.353236 
L 418.492794 323.36624 
L 418.405517 326.379244 
L 418.320929 329.392248 
L 418.239294 332.405252 
L 418.169829 335.418256 
L 418.121922 338.43126 
L 418.093932 341.444264 
L 418.073074 344.457268 
L 418.046907 347.470272 
L 418.013182 350.483276 
L 417.978469 353.496281 
L 417.950407 356.509285 
L 417.932473 359.522289 
L 417.923357 362.535293 
L 417.919075 365.548297 
z
" clip-path="url(#p4fe7e1a6ee)" style="fill: #e85d04; fill-opacity: 0.5"/>
   </g>
   <g id="matplotlib.axis_1">
    <g id="xtick_1">
     <g id="line2d_1">
      <defs>
       <path id="m06df1a9427" d="M 0 0 
L 0 4 
" style="stroke: #000000; stroke-width: 0.8"/>
      </defs>
      <g>
       <use xlink:href="#m06df1a9427" x="137.698915" y="392" style="stroke: #000000; stroke-width: 0.8"/>
      </g>
     </g>
    </g>
    <g id="xtick_2">
     <g id="line2d_2">
      <g>
       <use xlink:href="#m06df1a9427" x="457.938585" y="392" style="stroke: #000000; stroke-width: 0.8"/>
      </g>
     </g>
    </g>
   </g>
   <g id="matplotlib.axis_2">
    <g id="ytick_1">
     <g id="line2d_3">
      <defs>
       <path id="m5e8aacb061" d="M 0 0 
L -4 0 
" style="stroke: #000000; stroke-width: 0.8"/>
      </defs>
      <g>
       <use xlink:href="#m5e8aacb061" x="55.6375" y="331.763053" style="stroke: #000000; stroke-width: 0.8"/>
      </g>
     </g>
     <g id="text_1">
      <!-- −1.0 -->
      <g transform="translate(10.440625 338.763053) scale(0.2 -0.2)">
       <defs>
        <path id="Figtree-Regular-2212" d="M 774 1677 
L 774 2131 
L 3219 2131 
L 3219 1677 
L 774 1677 
z
" transform="scale(0.015625)"/>
        <path id="Figtree-Regular-31" d="M 1389 0 
L 1389 4192 
L 1434 4480 
L 1920 4480 
L 1920 0 
L 1389 0 
z
M 384 3328 
L 384 3821 
Q 518 3814 704 3910 
Q 890 4006 1088 4160 
Q 1286 4314 1434 4480 
L 1766 4115 
Q 1555 3891 1324 3712 
Q 1094 3533 857 3427 
Q 621 3322 384 3328 
z
" transform="scale(0.015625)"/>
        <path id="Figtree-Regular-2e" d="M 666 -90 
Q 518 -90 412 16 
Q 307 122 307 262 
Q 307 410 412 515 
Q 518 621 666 621 
Q 813 621 915 515 
Q 1018 410 1018 262 
Q 1018 122 915 16 
Q 813 -90 666 -90 
z
" transform="scale(0.015625)"/>
        <path id="Figtree-Regular-30" d="M 2048 -77 
Q 1536 -77 1139 220 
Q 742 518 518 1040 
Q 294 1562 294 2240 
Q 294 2918 518 3440 
Q 742 3962 1136 4259 
Q 1530 4557 2048 4557 
Q 2566 4557 2960 4259 
Q 3354 3962 3581 3440 
Q 3808 2918 3808 2240 
Q 3808 1562 3584 1040 
Q 3360 518 2963 220 
Q 2566 -77 2048 -77 
z
M 2048 410 
Q 2406 410 2684 646 
Q 2963 883 3120 1292 
Q 3277 1702 3277 2240 
Q 3277 2778 3120 3190 
Q 2963 3603 2684 3836 
Q 2406 4070 2048 4070 
Q 1690 4070 1414 3836 
Q 1139 3603 982 3190 
Q 826 2778 826 2240 
Q 826 1702 982 1292 
Q 1139 883 1417 646 
Q 1696 410 2048 410 
z
" transform="scale(0.015625)"/>
       </defs>
       <use xlink:href="#Figtree-Regular-2212"/>
       <use xlink:href="#Figtree-Regular-31" x="62.299988"/>
       <use xlink:href="#Figtree-Regular-2e" x="103.599976"/>
       <use xlink:href="#Figtree-Regular-30" x="124.399963"/>
      </g>
     </g>
    </g>
    <g id="ytick_2">
     <g id="line2d_4">
      <g>
       <use xlink:href="#m5e8aacb061" x="55.6375" y="259.596215" style="stroke: #000000; stroke-width: 0.8"/>
      </g>
     </g>
     <g id="text_2">
      <!-- −0.5 -->
      <g transform="translate(7.2 266.596215) scale(0.2 -0.2)">
       <defs>
        <path id="Figtree-Regular-35" d="M 1856 -77 
Q 1587 -77 1308 3 
Q 1030 83 784 249 
Q 538 416 378 678 
L 813 928 
Q 1037 646 1299 518 
Q 1562 390 1843 390 
Q 2285 390 2563 662 
Q 2842 934 2842 1376 
Q 2842 1811 2573 2086 
Q 2304 2362 1869 2362 
Q 1632 2362 1401 2256 
Q 1171 2150 1043 1997 
L 557 2112 
L 774 4480 
L 3162 4480 
L 3162 3994 
L 1254 3994 
L 1120 2566 
Q 1299 2675 1516 2739 
Q 1734 2803 1958 2803 
Q 2368 2803 2688 2624 
Q 3008 2445 3193 2125 
Q 3379 1805 3379 1389 
Q 3379 954 3184 624 
Q 2989 294 2646 108 
Q 2304 -77 1856 -77 
z
" transform="scale(0.015625)"/>
       </defs>
       <use xlink:href="#Figtree-Regular-2212"/>
       <use xlink:href="#Figtree-Regular-30" x="62.299988"/>
       <use xlink:href="#Figtree-Regular-2e" x="126.399979"/>
       <use xlink:href="#Figtree-Regular-35" x="147.199966"/>
      </g>
     </g>
    </g>
    <g id="ytick_3">
     <g id="line2d_5">
      <g>
       <use xlink:href="#m5e8aacb061" x="55.6375" y="187.429377" style="stroke: #000000; stroke-width: 0.8"/>
      </g>
     </g>
     <g id="text_3">
      <!-- 0.0 -->
      <g transform="translate(18.340625 194.429377) scale(0.2 -0.2)">
       <use xlink:href="#Figtree-Regular-30"/>
       <use xlink:href="#Figtree-Regular-2e" x="64.099991"/>
       <use xlink:href="#Figtree-Regular-30" x="84.899979"/>
      </g>
     </g>
    </g>
    <g id="ytick_4">
     <g id="line2d_6">
      <g>
       <use xlink:href="#m5e8aacb061" x="55.6375" y="115.262538" style="stroke: #000000; stroke-width: 0.8"/>
      </g>
     </g>
     <g id="text_4">
      <!-- 0.5 -->
      <g transform="translate(19.659375 122.262538) scale(0.2 -0.2)">
       <use xlink:href="#Figtree-Regular-30"/>
       <use xlink:href="#Figtree-Regular-2e" x="64.099991"/>
       <use xlink:href="#Figtree-Regular-35" x="84.899979"/>
      </g>
     </g>
    </g>
    <g id="ytick_5">
     <g id="line2d_7">
      <g>
       <use xlink:href="#m5e8aacb061" x="55.6375" y="43.0957" style="stroke: #000000; stroke-width: 0.8"/>
      </g>
     </g>
     <g id="text_5">
      <!-- 1.0 -->
      <g transform="translate(22.9 50.0957) scale(0.2 -0.2)">
       <use xlink:href="#Figtree-Regular-31"/>
       <use xlink:href="#Figtree-Regular-2e" x="41.299988"/>
       <use xlink:href="#Figtree-Regular-30" x="62.099976"/>
      </g>
     </g>
    </g>
   </g>
   <g id="LineCollection_1">
    <path d="M 167.721384 175.772869 
L 187.736364 175.772869 
" clip-path="url(#p4fe7e1a6ee)" style="fill: none; stroke: #363636; stroke-width: 1.5"/>
    <path d="M 487.961054 217.670818 
L 507.976033 217.670818 
" clip-path="url(#p4fe7e1a6ee)" style="fill: none; stroke: #363636; stroke-width: 1.5"/>
   </g>
   <g id="LineCollection_2">
    <path d="M 87.661467 186.001007 
L 107.676446 186.001007 
" clip-path="url(#p4fe7e1a6ee)" style="fill: none; stroke: #363636; stroke-width: 1.5"/>
    <path d="M 407.901136 196.378191 
L 427.916116 196.378191 
" clip-path="url(#p4fe7e1a6ee)" style="fill: none; stroke: #363636; stroke-width: 1.5"/>
   </g>
   <g id="line2d_8">
    <path d="M 55.6375 187.429377 
L 540 187.429377 
" clip-path="url(#p4fe7e1a6ee)" style="fill: none; stroke-dasharray: 7.4,3.2; stroke-dashoffset: 0; stroke: #000000; stroke-opacity: 0.7; stroke-width: 2"/>
   </g>
   <g id="patch_3">
    <path d="M 55.6375 392 
L 55.6375 7.2 
" style="fill: none; stroke: #000000; stroke-linejoin: miter; stroke-linecap: square"/>
   </g>
   <g id="patch_4">
    <path d="M 55.6375 392 
L 540 392 
" style="fill: none; stroke: #000000; stroke-linejoin: miter; stroke-linecap: square"/>
   </g>
   <g id="legend_1">
    <g id="patch_5">
     <path d="M 259.846875 39.51875 
L 299.846875 39.51875 
L 299.846875 25.51875 
L 259.846875 25.51875 
z
" style="fill: #e85d04; fill-opacity: 0.5"/>
    </g>
    <g id="text_6">
     <!-- Lognormal interactions -->
     <g transform="translate(315.846875 39.51875) scale(0.2 -0.2)">
      <defs>
       <path id="Figtree-Regular-4c" d="M 595 0 
L 595 4480 
L 1139 4480 
L 1139 493 
L 3251 493 
L 3251 0 
L 595 0 
z
" transform="scale(0.015625)"/>
       <path id="Figtree-Regular-6f" d="M 1862 -77 
Q 1395 -77 1033 137 
Q 672 352 467 729 
Q 262 1107 262 1600 
Q 262 2093 464 2470 
Q 666 2848 1027 3062 
Q 1389 3277 1850 3277 
Q 2323 3277 2684 3062 
Q 3046 2848 3248 2470 
Q 3450 2093 3450 1600 
Q 3450 1107 3248 729 
Q 3046 352 2688 137 
Q 2330 -77 1862 -77 
z
M 1862 397 
Q 2182 397 2419 550 
Q 2656 704 2793 973 
Q 2931 1242 2931 1600 
Q 2931 1958 2793 2227 
Q 2656 2496 2413 2649 
Q 2170 2803 1850 2803 
Q 1536 2803 1296 2649 
Q 1056 2496 918 2227 
Q 781 1958 781 1600 
Q 781 1248 918 976 
Q 1056 704 1302 550 
Q 1549 397 1862 397 
z
" transform="scale(0.015625)"/>
       <path id="Figtree-Regular-67" d="M 1728 -1357 
Q 1421 -1357 1168 -1296 
Q 915 -1235 739 -1161 
Q 563 -1088 486 -1037 
L 678 -621 
Q 762 -666 915 -733 
Q 1069 -800 1277 -848 
Q 1485 -896 1722 -896 
Q 2029 -896 2275 -771 
Q 2522 -646 2659 -380 
Q 2797 -115 2797 301 
L 2797 3200 
L 3309 3200 
L 3309 307 
Q 3309 -243 3104 -614 
Q 2899 -986 2540 -1171 
Q 2182 -1357 1728 -1357 
z
M 1709 26 
Q 1280 26 953 230 
Q 627 435 444 803 
Q 262 1171 262 1645 
Q 262 2131 444 2499 
Q 627 2867 953 3072 
Q 1280 3277 1709 3277 
Q 2112 3277 2413 3072 
Q 2714 2867 2883 2499 
Q 3053 2131 3053 1645 
Q 3053 1165 2883 800 
Q 2714 435 2413 230 
Q 2112 26 1709 26 
z
M 1830 467 
Q 2112 467 2329 620 
Q 2547 774 2668 1040 
Q 2790 1306 2790 1658 
Q 2790 1997 2665 2262 
Q 2541 2528 2326 2678 
Q 2112 2829 1824 2829 
Q 1523 2829 1289 2678 
Q 1056 2528 925 2262 
Q 794 1997 794 1658 
Q 794 1306 928 1040 
Q 1062 774 1296 620 
Q 1530 467 1830 467 
z
" transform="scale(0.015625)"/>
       <path id="Figtree-Regular-6e" d="M 448 0 
L 448 3200 
L 928 3200 
L 960 2611 
L 960 0 
L 448 0 
z
M 2694 0 
L 2694 1638 
L 3206 1638 
L 3206 0 
L 2694 0 
z
M 2694 1638 
Q 2694 2112 2585 2361 
Q 2477 2611 2285 2704 
Q 2093 2797 1850 2797 
Q 1427 2797 1193 2499 
Q 960 2202 960 1658 
L 710 1658 
Q 710 2163 857 2528 
Q 1005 2893 1286 3085 
Q 1568 3277 1965 3277 
Q 2342 3277 2620 3126 
Q 2899 2976 3056 2649 
Q 3213 2323 3206 1792 
L 3206 1638 
L 2694 1638 
z
" transform="scale(0.015625)"/>
       <path id="Figtree-Regular-72" d="M 730 1734 
Q 730 2253 928 2576 
Q 1126 2899 1436 3056 
Q 1747 3213 2093 3213 
L 2093 2733 
Q 1811 2733 1552 2640 
Q 1293 2547 1126 2336 
Q 960 2125 960 1760 
L 730 1734 
z
M 448 0 
L 448 3200 
L 960 3200 
L 960 0 
L 448 0 
z
" transform="scale(0.015625)"/>
       <path id="Figtree-Regular-6d" d="M 448 0 
L 448 3200 
L 928 3200 
L 954 2752 
Q 1101 3008 1331 3142 
Q 1562 3277 1869 3277 
Q 2253 3277 2525 3097 
Q 2797 2918 2918 2554 
Q 3053 2906 3312 3091 
Q 3571 3277 3930 3277 
Q 4467 3277 4777 2918 
Q 5088 2560 5082 1830 
L 5082 0 
L 4570 0 
L 4570 1638 
Q 4570 2112 4470 2361 
Q 4371 2611 4204 2704 
Q 4038 2797 3821 2797 
Q 3443 2797 3232 2499 
Q 3021 2202 3021 1658 
L 3021 0 
L 2509 0 
L 2509 1638 
Q 2509 2112 2409 2361 
Q 2310 2611 2140 2704 
Q 1971 2797 1754 2797 
Q 1382 2797 1171 2499 
Q 960 2202 960 1658 
L 960 0 
L 448 0 
z
" transform="scale(0.015625)"/>
       <path id="Figtree-Regular-61" d="M 2419 0 
L 2394 525 
L 2394 1690 
Q 2394 2067 2310 2313 
Q 2227 2560 2048 2688 
Q 1869 2816 1581 2816 
Q 1318 2816 1129 2710 
Q 941 2605 819 2374 
L 358 2554 
Q 480 2778 653 2941 
Q 826 3104 1056 3190 
Q 1286 3277 1581 3277 
Q 2029 3277 2320 3101 
Q 2611 2925 2758 2582 
Q 2906 2240 2899 1734 
L 2893 0 
L 2419 0 
z
M 1459 -77 
Q 896 -77 579 182 
Q 262 442 262 902 
Q 262 1389 585 1648 
Q 909 1907 1491 1907 
L 2406 1907 
L 2406 1478 
L 1606 1478 
Q 1158 1478 969 1331 
Q 781 1184 781 909 
Q 781 659 966 515 
Q 1152 371 1485 371 
Q 1760 371 1965 489 
Q 2170 608 2282 829 
Q 2394 1050 2394 1350 
L 2611 1350 
Q 2611 698 2316 310 
Q 2022 -77 1459 -77 
z
" transform="scale(0.015625)"/>
       <path id="Figtree-Regular-6c" d="M 448 0 
L 448 4480 
L 960 4480 
L 960 0 
L 448 0 
z
" transform="scale(0.015625)"/>
       <path id="Figtree-Regular-20" transform="scale(0.015625)"/>
       <path id="Figtree-Regular-69" d="M 480 0 
L 480 3200 
L 992 3200 
L 992 0 
L 480 0 
z
M 742 3942 
Q 614 3942 518 4038 
Q 422 4134 422 4262 
Q 422 4397 518 4489 
Q 614 4582 742 4582 
Q 877 4582 969 4489 
Q 1062 4397 1062 4262 
Q 1062 4134 969 4038 
Q 877 3942 742 3942 
z
" transform="scale(0.015625)"/>
       <path id="Figtree-Regular-74" d="M 1651 -77 
Q 1184 -77 928 166 
Q 672 410 672 851 
L 672 4198 
L 1184 4198 
L 1184 902 
Q 1184 659 1315 528 
Q 1446 397 1683 397 
Q 1760 397 1833 419 
Q 1907 442 2029 531 
L 2227 115 
Q 2061 6 1926 -35 
Q 1792 -77 1651 -77 
z
M 115 2746 
L 115 3200 
L 2144 3200 
L 2144 2746 
L 115 2746 
z
" transform="scale(0.015625)"/>
       <path id="Figtree-Regular-65" d="M 1850 -77 
Q 1382 -77 1024 137 
Q 666 352 464 729 
Q 262 1107 262 1600 
Q 262 2093 464 2470 
Q 666 2848 1021 3062 
Q 1376 3277 1837 3277 
Q 2285 3277 2611 3056 
Q 2938 2835 3117 2438 
Q 3296 2042 3296 1504 
L 653 1504 
L 781 1613 
Q 781 1229 918 953 
Q 1056 678 1305 534 
Q 1555 390 1875 390 
Q 2214 390 2448 550 
Q 2682 710 2810 973 
L 3251 749 
Q 3130 499 2928 313 
Q 2726 128 2454 25 
Q 2182 -77 1850 -77 
z
M 813 1830 
L 678 1933 
L 2886 1933 
L 2752 1824 
Q 2752 2131 2630 2355 
Q 2509 2579 2304 2700 
Q 2099 2822 1830 2822 
Q 1568 2822 1334 2700 
Q 1101 2579 957 2358 
Q 813 2138 813 1830 
z
" transform="scale(0.015625)"/>
       <path id="Figtree-Regular-63" d="M 1875 -77 
Q 1402 -77 1037 137 
Q 672 352 467 729 
Q 262 1107 262 1600 
Q 262 2093 464 2470 
Q 666 2848 1030 3062 
Q 1395 3277 1862 3277 
Q 2323 3277 2688 3065 
Q 3053 2854 3245 2470 
L 2778 2259 
Q 2650 2515 2406 2659 
Q 2163 2803 1850 2803 
Q 1536 2803 1296 2649 
Q 1056 2496 918 2224 
Q 781 1952 781 1600 
Q 781 1248 918 976 
Q 1056 704 1302 550 
Q 1549 397 1862 397 
Q 2176 397 2422 557 
Q 2669 717 2797 1005 
L 3264 794 
Q 3072 384 2707 153 
Q 2342 -77 1875 -77 
z
" transform="scale(0.015625)"/>
       <path id="Figtree-Regular-73" d="M 1568 -77 
Q 1216 -77 953 28 
Q 691 134 515 307 
Q 339 480 262 685 
L 710 870 
Q 819 653 1036 518 
Q 1254 384 1517 384 
Q 1818 384 2022 502 
Q 2227 621 2227 838 
Q 2227 1037 2076 1158 
Q 1926 1280 1632 1357 
L 1325 1440 
Q 890 1555 646 1788 
Q 403 2022 403 2317 
Q 403 2771 700 3024 
Q 998 3277 1587 3277 
Q 1869 3277 2099 3193 
Q 2330 3110 2496 2960 
Q 2662 2810 2739 2605 
L 2291 2406 
Q 2208 2624 2016 2720 
Q 1824 2816 1549 2816 
Q 1254 2816 1088 2691 
Q 922 2566 922 2342 
Q 922 2214 1059 2102 
Q 1197 1990 1466 1920 
L 1786 1837 
Q 2099 1760 2310 1609 
Q 2522 1459 2630 1267 
Q 2739 1075 2739 858 
Q 2739 570 2585 358 
Q 2432 147 2169 35 
Q 1907 -77 1568 -77 
z
" transform="scale(0.015625)"/>
      </defs>
      <use xlink:href="#Figtree-Regular-4c"/>
      <use xlink:href="#Figtree-Regular-6f" x="51.999985"/>
      <use xlink:href="#Figtree-Regular-67" x="109.999969"/>
      <use xlink:href="#Figtree-Regular-6e" x="168.699966"/>
      <use xlink:href="#Figtree-Regular-6f" x="224.499954"/>
      <use xlink:href="#Figtree-Regular-72" x="282.499939"/>
      <use xlink:href="#Figtree-Regular-6d" x="316.299927"/>
      <use xlink:href="#Figtree-Regular-61" x="401.399918"/>
      <use xlink:href="#Figtree-Regular-6c" x="452.399902"/>
      <use xlink:href="#Figtree-Regular-20" x="474.399887"/>
      <use xlink:href="#Figtree-Regular-69" x="499.099884"/>
      <use xlink:href="#Figtree-Regular-6e" x="522.299881"/>
      <use xlink:href="#Figtree-Regular-74" x="578.099869"/>
      <use xlink:href="#Figtree-Regular-65" x="615.899857"/>
      <use xlink:href="#Figtree-Regular-72" x="670.499847"/>
      <use xlink:href="#Figtree-Regular-61" x="704.299835"/>
      <use xlink:href="#Figtree-Regular-63" x="755.29982"/>
      <use xlink:href="#Figtree-Regular-74" x="809.399811"/>
      <use xlink:href="#Figtree-Regular-69" x="847.199799"/>
      <use xlink:href="#Figtree-Regular-6f" x="870.399796"/>
      <use xlink:href="#Figtree-Regular-6e" x="928.39978"/>
      <use xlink:href="#Figtree-Regular-73" x="984.199768"/>
     </g>
    </g>
    <g id="patch_6">
     <path d="M 259.846875 67.759375 
L 299.846875 67.759375 
L 299.846875 53.759375 
L 259.846875 53.759375 
z
" style="fill: #5e548e; fill-opacity: 0.5"/>
    </g>
    <g id="text_7">
     <!-- Gaussian interactions -->
     <g transform="translate(315.846875 67.759375) scale(0.2 -0.2)">
      <defs>
       <path id="Figtree-Regular-47" d="M 2624 -77 
Q 1939 -77 1414 220 
Q 890 518 592 1040 
Q 294 1562 294 2234 
Q 294 2918 592 3440 
Q 890 3962 1414 4259 
Q 1939 4557 2624 4557 
Q 2982 4557 3321 4438 
Q 3661 4320 3942 4115 
Q 4224 3910 4397 3648 
L 3968 3354 
Q 3840 3558 3622 3721 
Q 3405 3885 3145 3974 
Q 2886 4064 2624 4064 
Q 2106 4064 1702 3830 
Q 1299 3597 1068 3187 
Q 838 2778 838 2234 
Q 838 1709 1065 1296 
Q 1293 883 1699 646 
Q 2106 410 2624 410 
Q 3059 410 3395 592 
Q 3731 774 3923 1097 
Q 4115 1421 4115 1843 
L 4634 1882 
Q 4634 1293 4378 854 
Q 4122 416 3667 169 
Q 3213 -77 2624 -77 
z
M 3014 1818 
L 3014 2285 
L 4634 2285 
L 4634 1862 
L 4378 1818 
L 3014 1818 
z
" transform="scale(0.015625)"/>
       <path id="Figtree-Regular-75" d="M 2643 0 
L 2611 589 
L 2611 3200 
L 3123 3200 
L 3123 0 
L 2643 0 
z
M 365 1562 
L 365 3200 
L 877 3200 
L 877 1562 
L 365 1562 
z
M 877 1562 
Q 877 1088 985 838 
Q 1094 589 1289 496 
Q 1485 403 1728 403 
Q 2144 403 2377 704 
Q 2611 1005 2611 1542 
L 2861 1542 
Q 2861 1037 2713 672 
Q 2566 307 2288 115 
Q 2010 -77 1606 -77 
Q 1235 -77 953 73 
Q 672 224 518 553 
Q 365 883 365 1408 
L 365 1562 
L 877 1562 
z
" transform="scale(0.015625)"/>
      </defs>
      <use xlink:href="#Figtree-Regular-47"/>
      <use xlink:href="#Figtree-Regular-61" x="75.999985"/>
      <use xlink:href="#Figtree-Regular-75" x="126.999969"/>
      <use xlink:href="#Figtree-Regular-73" x="182.799957"/>
      <use xlink:href="#Figtree-Regular-73" x="229.399948"/>
      <use xlink:href="#Figtree-Regular-69" x="275.999939"/>
      <use xlink:href="#Figtree-Regular-61" x="299.199936"/>
      <use xlink:href="#Figtree-Regular-6e" x="350.199921"/>
      <use xlink:href="#Figtree-Regular-20" x="405.999908"/>
      <use xlink:href="#Figtree-Regular-69" x="430.699905"/>
      <use xlink:href="#Figtree-Regular-6e" x="453.899902"/>
      <use xlink:href="#Figtree-Regular-74" x="509.69989"/>
      <use xlink:href="#Figtree-Regular-65" x="547.499878"/>
      <use xlink:href="#Figtree-Regular-72" x="602.099869"/>
      <use xlink:href="#Figtree-Regular-61" x="635.899857"/>
      <use xlink:href="#Figtree-Regular-63" x="686.899841"/>
      <use xlink:href="#Figtree-Regular-74" x="740.999832"/>
      <use xlink:href="#Figtree-Regular-69" x="778.79982"/>
      <use xlink:href="#Figtree-Regular-6f" x="801.999817"/>
      <use xlink:href="#Figtree-Regular-6e" x="859.999802"/>
      <use xlink:href="#Figtree-Regular-73" x="915.799789"/>
     </g>
    </g>
   </g>
  </g>
 </g>
 <defs>
  <clipPath id="p4fe7e1a6ee">
   <rect x="55.6375" y="7.2" width="484.3625" height="384.8"/>
  </clipPath>
 </defs>
</svg>
