<?xml version="1.0" encoding="utf-8" standalone="no"?>
<!DOCTYPE svg PUBLIC "-//W3C//DTD SVG 1.1//EN"
  "http://www.w3.org/Graphics/SVG/1.1/DTD/svg11.dtd">
<svg xmlns:xlink="http://www.w3.org/1999/xlink" width="536.4pt" height="392.4pt" viewBox="0 0 536.4 392.4" xmlns="http://www.w3.org/2000/svg" version="1.1">
 <metadata>
  <rdf:RDF xmlns:dc="http://purl.org/dc/elements/1.1/" xmlns:cc="http://creativecommons.org/ns#" xmlns:rdf="http://www.w3.org/1999/02/22-rdf-syntax-ns#">
   <cc:Work>
    <dc:type rdf:resource="http://purl.org/dc/dcmitype/StillImage"/>
    <dc:date>2025-12-04T15:46:32.094259</dc:date>
    <dc:format>image/svg+xml</dc:format>
    <dc:creator>
     <cc:Agent>
      <dc:title>Matplotlib v3.8.2, https://matplotlib.org/</dc:title>
     </cc:Agent>
    </dc:creator>
   </cc:Work>
  </rdf:RDF>
 </metadata>
 <defs>
  <style type="text/css">*{stroke-linejoin: round; stroke-linecap: butt}</style>
 </defs>
 <g id="figure_1">
  <g id="patch_1">
   <path d="M 0 392.4 
L 536.4 392.4 
L 536.4 0 
L 0 0 
z
" style="fill: #ffffff"/>
  </g>
  <g id="axes_1">
   <g id="patch_2">
    <path d="M 30.899219 355.2 
L 529.2 355.2 
L 529.2 7.2 
L 30.899219 7.2 
z
" style="fill: #ffffff"/>
   </g>
   <g id="patch_3">
    <path d="M 145.390309 355.2 
L 160.528347 355.2 
L 160.528347 343.738279 
L 145.390309 343.738279 
z
" clip-path="url(#pccedfeda4e)" style="fill: #dd6b74; opacity: 0.65"/>
   </g>
   <g id="patch_4">
    <path d="M 161.325086 355.2 
L 176.463124 355.2 
L 176.463124 355.2 
L 161.325086 355.2 
z
" clip-path="url(#pccedfeda4e)" style="fill: #dd6b74; opacity: 0.65"/>
   </g>
   <g id="patch_5">
    <path d="M 177.259863 355.2 
L 192.397901 355.2 
L 192.397901 343.738279 
L 177.259863 343.738279 
z
" clip-path="url(#pccedfeda4e)" style="fill: #dd6b74; opacity: 0.65"/>
   </g>
   <g id="patch_6">
    <path d="M 193.19464 355.2 
L 208.332678 355.2 
L 208.332678 355.2 
L 193.19464 355.2 
z
" clip-path="url(#pccedfeda4e)" style="fill: #dd6b74; opacity: 0.65"/>
   </g>
   <g id="patch_7">
    <path d="M 209.129417 355.2 
L 224.267455 355.2 
L 224.267455 332.276559 
L 209.129417 332.276559 
z
" clip-path="url(#pccedfeda4e)" style="fill: #dd6b74; opacity: 0.65"/>
   </g>
   <g id="patch_8">
    <path d="M 225.064194 355.2 
L 240.202232 355.2 
L 240.202232 332.276559 
L 225.064194 332.276559 
z
" clip-path="url(#pccedfeda4e)" style="fill: #dd6b74; opacity: 0.65"/>
   </g>
   <g id="patch_9">
    <path d="M 240.998971 355.2 
L 256.137009 355.2 
L 256.137009 332.276559 
L 240.998971 332.276559 
z
" clip-path="url(#pccedfeda4e)" style="fill: #dd6b74; opacity: 0.65"/>
   </g>
   <g id="patch_10">
    <path d="M 256.933747 355.2 
L 272.071785 355.2 
L 272.071785 217.659351 
L 256.933747 217.659351 
z
" clip-path="url(#pccedfeda4e)" style="fill: #dd6b74; opacity: 0.65"/>
   </g>
   <g id="patch_11">
    <path d="M 272.868524 355.2 
L 288.006562 355.2 
L 288.006562 229.121072 
L 272.868524 229.121072 
z
" clip-path="url(#pccedfeda4e)" style="fill: #dd6b74; opacity: 0.65"/>
   </g>
   <g id="patch_12">
    <path d="M 288.803301 355.2 
L 303.941339 355.2 
L 303.941339 297.891396 
L 288.803301 297.891396 
z
" clip-path="url(#pccedfeda4e)" style="fill: #dd6b74; opacity: 0.65"/>
   </g>
   <g id="patch_13">
    <path d="M 304.738078 355.2 
L 319.876116 355.2 
L 319.876116 343.738279 
L 304.738078 343.738279 
z
" clip-path="url(#pccedfeda4e)" style="fill: #dd6b74; opacity: 0.65"/>
   </g>
   <g id="patch_14">
    <path d="M 320.672855 355.2 
L 335.810893 355.2 
L 335.810893 343.738279 
L 320.672855 343.738279 
z
" clip-path="url(#pccedfeda4e)" style="fill: #dd6b74; opacity: 0.65"/>
   </g>
   <g id="patch_15">
    <path d="M 336.607632 355.2 
L 351.74567 355.2 
L 351.74567 355.2 
L 336.607632 355.2 
z
" clip-path="url(#pccedfeda4e)" style="fill: #dd6b74; opacity: 0.65"/>
   </g>
   <g id="patch_16">
    <path d="M 352.542409 355.2 
L 367.680447 355.2 
L 367.680447 355.2 
L 352.542409 355.2 
z
" clip-path="url(#pccedfeda4e)" style="fill: #dd6b74; opacity: 0.65"/>
   </g>
   <g id="patch_17">
    <path d="M 368.477185 355.2 
L 383.615224 355.2 
L 383.615224 332.276559 
L 368.477185 332.276559 
z
" clip-path="url(#pccedfeda4e)" style="fill: #dd6b74; opacity: 0.65"/>
   </g>
   <g id="patch_18">
    <path d="M 384.411962 355.2 
L 399.55 355.2 
L 399.55 343.738279 
L 384.411962 343.738279 
z
" clip-path="url(#pccedfeda4e)" style="fill: #dd6b74; opacity: 0.65"/>
   </g>
   <g id="patch_19">
    <path d="M 400.346739 355.2 
L 415.484777 355.2 
L 415.484777 355.2 
L 400.346739 355.2 
z
" clip-path="url(#pccedfeda4e)" style="fill: #dd6b74; opacity: 0.65"/>
   </g>
   <g id="patch_20">
    <path d="M 416.281516 355.2 
L 431.419554 355.2 
L 431.419554 355.2 
L 416.281516 355.2 
z
" clip-path="url(#pccedfeda4e)" style="fill: #dd6b74; opacity: 0.65"/>
   </g>
   <g id="patch_21">
    <path d="M 432.216293 355.2 
L 447.354331 355.2 
L 447.354331 355.2 
L 432.216293 355.2 
z
" clip-path="url(#pccedfeda4e)" style="fill: #dd6b74; opacity: 0.65"/>
   </g>
   <g id="patch_22">
    <path d="M 448.15107 355.2 
L 463.289108 355.2 
L 463.289108 355.2 
L 448.15107 355.2 
z
" clip-path="url(#pccedfeda4e)" style="fill: #dd6b74; opacity: 0.65"/>
   </g>
   <g id="patch_23">
    <path d="M 464.085847 355.2 
L 479.223885 355.2 
L 479.223885 355.2 
L 464.085847 355.2 
z
" clip-path="url(#pccedfeda4e)" style="fill: #dd6b74; opacity: 0.65"/>
   </g>
   <g id="patch_24">
    <path d="M 480.020624 355.2 
L 495.158662 355.2 
L 495.158662 343.738279 
L 480.020624 343.738279 
z
" clip-path="url(#pccedfeda4e)" style="fill: #dd6b74; opacity: 0.65"/>
   </g>
   <g id="matplotlib.axis_1">
    <g id="xtick_1">
     <g id="line2d_1">
      <defs>
       <path id="m54b7d336d5" d="M 0 0 
L 0 4 
" style="stroke: #000000; stroke-width: 0.8"/>
      </defs>
      <g>
       <use xlink:href="#m54b7d336d5" x="98.849325" y="355.2" style="stroke: #000000; stroke-width: 0.8"/>
      </g>
     </g>
     <g id="text_1">
      <!-- −2 -->
      <g transform="translate(83.710653 380.2) scale(0.25 -0.25)">
       <defs>
        <path id="Figtree-Bold-2212" d="M 787 1555 
L 787 2253 
L 3258 2253 
L 3258 1555 
L 787 1555 
z
" transform="scale(0.015625)"/>
        <path id="Figtree-Bold-32" d="M 326 0 
L 326 646 
Q 326 832 441 1056 
Q 557 1280 761 1504 
Q 966 1728 1242 1920 
L 1920 2406 
Q 2061 2502 2185 2624 
Q 2310 2746 2390 2890 
Q 2470 3034 2470 3168 
Q 2470 3334 2390 3468 
Q 2310 3603 2156 3680 
Q 2003 3757 1779 3757 
Q 1587 3757 1436 3680 
Q 1286 3603 1190 3475 
Q 1094 3347 1056 3200 
L 154 3354 
Q 218 3674 429 3949 
Q 640 4224 982 4393 
Q 1325 4563 1760 4563 
Q 2259 4563 2617 4384 
Q 2976 4205 3171 3894 
Q 3366 3584 3366 3174 
Q 3366 2758 3139 2435 
Q 2912 2112 2515 1830 
L 1907 1389 
Q 1722 1261 1587 1107 
Q 1453 954 1382 768 
L 3424 768 
L 3424 0 
L 326 0 
z
" transform="scale(0.015625)"/>
       </defs>
       <use xlink:href="#Figtree-Bold-2212"/>
       <use xlink:href="#Figtree-Bold-32" x="63.199997"/>
      </g>
     </g>
    </g>
    <g id="xtick_2">
     <g id="line2d_2">
      <g>
       <use xlink:href="#m54b7d336d5" x="189.449467" y="355.2" style="stroke: #000000; stroke-width: 0.8"/>
      </g>
     </g>
     <g id="text_2">
      <!-- −1 -->
      <g transform="translate(176.273686 380.2) scale(0.25 -0.25)">
       <defs>
        <path id="Figtree-Bold-31" d="M 1248 0 
L 1248 4013 
L 1331 4480 
L 2086 4480 
L 2086 0 
L 1248 0 
z
M 301 3066 
L 301 3859 
Q 461 3846 646 3939 
Q 832 4032 1014 4182 
Q 1197 4333 1331 4486 
L 1888 3942 
Q 1658 3686 1402 3478 
Q 1146 3270 874 3155 
Q 602 3040 301 3066 
z
" transform="scale(0.015625)"/>
       </defs>
       <use xlink:href="#Figtree-Bold-2212"/>
       <use xlink:href="#Figtree-Bold-31" x="63.199997"/>
      </g>
     </g>
    </g>
    <g id="xtick_3">
     <g id="line2d_3">
      <g>
       <use xlink:href="#m54b7d336d5" x="280.049609" y="355.2" style="stroke: #000000; stroke-width: 0.8"/>
      </g>
     </g>
     <g id="text_3">
      <!-- 0 -->
      <g transform="translate(271.95 380.2) scale(0.25 -0.25)">
       <defs>
        <path id="Figtree-Bold-30" d="M 2074 -77 
Q 1530 -77 1114 220 
Q 698 518 461 1040 
Q 224 1562 224 2240 
Q 224 2918 461 3440 
Q 698 3962 1110 4259 
Q 1523 4557 2067 4557 
Q 2611 4557 3030 4259 
Q 3450 3962 3686 3440 
Q 3923 2918 3923 2240 
Q 3923 1562 3686 1040 
Q 3450 518 3034 220 
Q 2618 -77 2074 -77 
z
M 2074 717 
Q 2362 717 2589 912 
Q 2816 1107 2944 1449 
Q 3072 1792 3072 2240 
Q 3072 2688 2944 3033 
Q 2816 3379 2589 3574 
Q 2362 3770 2067 3770 
Q 1779 3770 1555 3574 
Q 1331 3379 1206 3033 
Q 1082 2688 1082 2240 
Q 1082 1792 1206 1449 
Q 1331 1107 1558 912 
Q 1786 717 2074 717 
z
" transform="scale(0.015625)"/>
       </defs>
       <use xlink:href="#Figtree-Bold-30"/>
      </g>
     </g>
    </g>
    <g id="xtick_4">
     <g id="line2d_4">
      <g>
       <use xlink:href="#m54b7d336d5" x="370.649751" y="355.2" style="stroke: #000000; stroke-width: 0.8"/>
      </g>
     </g>
     <g id="text_4">
      <!-- 1 -->
      <g transform="translate(365.374361 380.2) scale(0.25 -0.25)">
       <use xlink:href="#Figtree-Bold-31"/>
      </g>
     </g>
    </g>
    <g id="xtick_5">
     <g id="line2d_5">
      <g>
       <use xlink:href="#m54b7d336d5" x="461.249893" y="355.2" style="stroke: #000000; stroke-width: 0.8"/>
      </g>
     </g>
     <g id="text_5">
      <!-- 2 -->
      <g transform="translate(454.011612 380.2) scale(0.25 -0.25)">
       <use xlink:href="#Figtree-Bold-32"/>
      </g>
     </g>
    </g>
   </g>
   <g id="matplotlib.axis_2">
    <g id="ytick_1">
     <g id="line2d_6">
      <defs>
       <path id="mbabee8865e" d="M 0 0 
L -4 0 
" style="stroke: #000000; stroke-width: 0.8"/>
      </defs>
      <g>
       <use xlink:href="#mbabee8865e" x="30.899219" y="355.2" style="stroke: #000000; stroke-width: 0.8"/>
      </g>
     </g>
     <g id="text_6">
      <!-- 0 -->
      <g transform="translate(7.2 363.95) scale(0.25 -0.25)">
       <use xlink:href="#Figtree-Bold-30"/>
      </g>
     </g>
    </g>
    <g id="ytick_2">
     <g id="line2d_7">
      <g>
       <use xlink:href="#mbabee8865e" x="30.899219" y="185.865201" style="stroke: #000000; stroke-width: 0.8"/>
      </g>
     </g>
     <g id="text_7">
      <!-- 2 -->
      <g transform="translate(8.922656 194.615201) scale(0.25 -0.25)">
       <use xlink:href="#Figtree-Bold-32"/>
      </g>
     </g>
    </g>
    <g id="ytick_3">
     <g id="line2d_8">
      <g>
       <use xlink:href="#mbabee8865e" x="30.899219" y="16.530402" style="stroke: #000000; stroke-width: 0.8"/>
      </g>
     </g>
     <g id="text_8">
      <!-- 4 -->
      <g transform="translate(7.575 25.280402) scale(0.25 -0.25)">
       <defs>
        <path id="Figtree-Bold-34" d="M 2253 0 
L 2253 883 
L 166 883 
L 166 1581 
L 2150 4480 
L 3078 4480 
L 3078 1632 
L 3859 1632 
L 3859 883 
L 3078 883 
L 3078 0 
L 2253 0 
z
M 1069 1632 
L 2253 1632 
L 2253 3366 
L 1069 1632 
z
" transform="scale(0.015625)"/>
       </defs>
       <use xlink:href="#Figtree-Bold-34"/>
      </g>
     </g>
    </g>
   </g>
   <g id="patch_25">
    <path d="M 30.899219 355.2 
L 30.899219 7.2 
" style="fill: none; stroke: #000000; stroke-width: 3.5; stroke-linejoin: miter; stroke-linecap: square"/>
   </g>
   <g id="patch_26">
    <path d="M 30.899219 355.2 
L 529.2 355.2 
" style="fill: none; stroke: #000000; stroke-width: 3.5; stroke-linejoin: miter; stroke-linecap: square"/>
   </g>
   <g id="line2d_9">
    <path d="M 284.579616 23.771429 
L 286.821741 93.060481 
L 289.063866 142.583167 
L 291.305991 178.854135 
L 293.548115 206.247616 
L 295.79024 227.502756 
L 298.032365 244.372742 
L 300.27449 258.01834 
L 302.516614 269.23367 
L 304.758739 278.578094 
L 307.000864 286.455775 
L 309.242988 293.165282 
L 311.485113 298.93149 
L 313.727238 303.926682 
L 315.969363 308.284844 
L 318.211487 312.111589 
L 320.453612 315.49117 
L 322.695737 318.491527 
L 324.937862 321.167988 
L 327.179986 323.566008 
L 329.422111 325.723241 
L 331.664236 327.671105 
L 333.90636 329.436002 
L 336.148485 331.040255 
L 338.39061 332.50285 
L 340.632735 333.840024 
L 342.874859 335.065735 
L 345.116984 336.192034 
L 347.359109 337.229379 
L 349.601234 338.186875 
L 351.843358 339.072488 
L 354.085483 339.893209 
L 356.327608 340.655195 
L 358.569732 341.363887 
L 360.811857 342.024108 
L 363.053982 342.640146 
L 365.296107 343.215825 
L 367.538231 343.754563 
L 369.780356 344.259422 
L 372.022481 344.733155 
L 374.264606 345.178239 
L 376.50673 345.59691 
L 378.748855 345.991192 
L 380.99098 346.362916 
L 383.233104 346.713747 
L 385.475229 347.045199 
L 387.717354 347.358651 
L 389.959479 347.655362 
L 392.201603 347.936483 
L 394.443728 348.203069 
L 396.685853 348.456088 
L 398.927978 348.696427 
L 401.170102 348.924903 
L 403.412227 349.14227 
L 405.654352 349.349221 
L 407.896476 349.546399 
L 410.138601 349.734395 
L 412.380726 349.91376 
L 414.622851 350.085001 
L 416.864975 350.248591 
L 419.1071 350.404968 
L 421.349225 350.554541 
L 423.59135 350.697688 
L 425.833474 350.834765 
L 428.075599 350.966101 
L 430.317724 351.092003 
L 432.559848 351.21276 
L 434.801973 351.328642 
L 437.044098 351.439899 
L 439.286223 351.546769 
L 441.528347 351.649473 
L 443.770472 351.748218 
L 446.012597 351.843199 
L 448.254722 351.934601 
L 450.496846 352.022595 
L 452.738971 352.107344 
L 454.981096 352.189001 
L 457.22322 352.26771 
L 459.465345 352.343606 
L 461.70747 352.416819 
L 463.949595 352.487469 
L 466.191719 352.55567 
L 468.433844 352.621532 
L 470.675969 352.685156 
L 472.918094 352.746639 
L 475.160218 352.806074 
L 477.402343 352.863547 
L 479.644468 352.91914 
L 481.886592 352.972933 
L 484.128717 353.024999 
L 486.370842 353.075409 
L 488.612967 353.12423 
L 490.855091 353.171526 
L 493.097216 353.217358 
L 495.339341 353.261782 
L 497.581466 353.304855 
L 499.82359 353.346628 
L 502.065715 353.387152 
L 504.30784 353.426473 
L 506.549964 353.464638 
" clip-path="url(#pccedfeda4e)" style="fill: none; stroke: #c4520b; stroke-width: 5; stroke-linecap: square"/>
   </g>
   <g id="line2d_10">
    <path d="M 276.425604 31.90812 
L 274.174327 46.124737 
L 271.923051 82.687263 
L 269.671775 119.644077 
L 267.420499 152.177868 
L 265.169222 179.718992 
L 262.917946 202.781561 
L 260.66667 222.083379 
L 258.415394 238.296487 
L 256.164117 251.987881 
L 253.912841 263.618463 
L 251.661565 273.557961 
L 249.410289 282.102112 
L 247.159012 289.487943 
L 244.907736 295.906259 
L 242.65646 301.511516 
L 240.405184 306.429499 
L 238.153907 310.763276 
L 235.902631 314.597822 
L 233.651355 318.00361 
L 231.400079 321.039419 
L 229.148802 323.754547 
L 226.897526 326.19055 
L 224.64625 328.382636 
L 222.394974 330.36077 
L 220.143697 332.150572 
L 217.892421 333.77404 
L 215.641145 335.250134 
L 213.389869 336.595261 
L 211.138592 337.823667 
L 208.887316 338.947768 
L 206.63604 339.978417 
L 204.384763 340.925132 
L 202.133487 341.796286 
L 199.882211 342.599262 
L 197.630935 343.340593 
L 195.379658 344.026068 
L 193.128382 344.660835 
L 190.877106 345.249483 
L 188.62583 345.796108 
L 186.374553 346.304375 
L 184.123277 346.777573 
L 181.872001 347.218657 
L 179.620725 347.630288 
L 177.369448 348.014867 
L 175.118172 348.374563 
L 172.866896 348.711339 
L 170.61562 349.026976 
L 168.364343 349.323092 
L 166.113067 349.601159 
L 163.861791 349.862515 
L 161.610515 350.108384 
L 159.359238 350.339884 
L 157.107962 350.558037 
L 154.856686 350.763778 
L 152.60541 350.957967 
L 150.354133 351.141393 
L 148.102857 351.314781 
L 145.851581 351.478798 
L 143.600305 351.63406 
L 141.349028 351.781134 
L 139.097752 351.920545 
L 136.846476 352.052777 
L 134.5952 352.17828 
L 132.343923 352.297468 
L 130.092647 352.410727 
L 127.841371 352.518415 
L 125.590094 352.620864 
L 123.338818 352.718382 
L 121.087542 352.811258 
L 118.836266 352.899759 
L 116.584989 352.984135 
L 114.333713 353.064618 
L 112.082437 353.141427 
L 109.831161 353.214763 
L 107.579884 353.284817 
L 105.328608 353.351767 
L 103.077332 353.415778 
L 100.826056 353.477008 
L 98.574779 353.535602 
L 96.323503 353.591696 
L 94.072227 353.645421 
L 91.820951 353.696897 
L 89.569674 353.746237 
L 87.318398 353.793549 
L 85.067122 353.838933 
L 82.815846 353.882484 
L 80.564569 353.924292 
L 78.313293 353.96444 
L 76.062017 354.003008 
L 73.810741 354.040072 
L 71.559464 354.075701 
L 69.308188 354.109963 
L 67.056912 354.142921 
L 64.805636 354.174635 
L 62.554359 354.205161 
L 60.303083 354.234553 
L 58.051807 354.262862 
L 55.800531 354.290135 
L 53.549254 354.316419 
" clip-path="url(#pccedfeda4e)" style="fill: none; stroke: #c4520b; stroke-width: 5; stroke-linecap: square"/>
   </g>
   <g id="line2d_11">
    <path d="M 53.549254 355.190471 
L 92.546312 355.05291 
L 109.777571 354.781866 
L 122.020833 354.373771 
L 131.543371 353.845201 
L 139.705545 353.180119 
L 146.960812 352.373444 
L 153.762625 351.389168 
L 160.110983 350.234344 
L 166.005887 348.928068 
L 171.447337 347.500252 
L 176.888787 345.841939 
L 182.330237 343.940233 
L 187.771687 341.78758 
L 193.213137 339.383184 
L 198.654587 336.734325 
L 204.549491 333.60822 
L 210.897849 329.982242 
L 218.60657 325.306114 
L 241.279278 311.338686 
L 246.720728 308.344225 
L 251.708724 305.857716 
L 256.243266 303.860634 
L 260.324353 302.310869 
L 263.951987 301.151253 
L 267.57962 300.212438 
L 271.207253 299.506701 
L 274.834886 299.043366 
L 278.46252 298.828599 
L 282.090153 298.865268 
L 285.717786 299.152883 
L 289.34542 299.687606 
L 292.973053 300.462333 
L 296.600686 301.466856 
L 300.22832 302.688084 
L 304.309407 304.301371 
L 308.843949 306.360823 
L 313.37849 308.662958 
L 318.81994 311.685568 
L 325.621753 315.750902 
L 337.411561 323.134056 
L 347.387553 329.264889 
L 354.189365 333.188925 
L 360.084269 336.34719 
L 365.525719 339.028979 
L 370.967169 341.468025 
L 376.408619 343.655829 
L 381.850069 345.59214 
L 387.291519 347.283653 
L 392.732969 348.742608 
L 398.627873 350.079758 
L 404.522778 351.187639 
L 410.871136 352.154672 
L 417.672948 352.967872 
L 425.381669 353.659828 
L 433.997298 354.206675 
L 444.426744 354.635233 
L 457.576915 354.937084 
L 476.168535 355.119303 
L 506.549964 355.190903 
L 506.549964 355.190903 
" clip-path="url(#pccedfeda4e)" style="fill: none; stroke: #5e548e; stroke-width: 5; stroke-linecap: square"/>
   </g>
   <g id="legend_1">
    <g id="patch_27">
     <path d="M 233.477344 133.348438 
L 511.7 133.348438 
Q 516.7 133.348438 516.7 128.348438 
L 516.7 24.7 
Q 516.7 19.7 511.7 19.7 
L 233.477344 19.7 
Q 228.477344 19.7 228.477344 24.7 
L 228.477344 128.348438 
Q 228.477344 133.348438 233.477344 133.348438 
z
" style="fill: #ffffff; opacity: 0.8; stroke: #cccccc; stroke-linejoin: miter"/>
    </g>
    <g id="line2d_12">
     <path d="M 238.477344 39.274219 
L 263.477344 39.274219 
L 288.477344 39.274219 
" style="fill: none; stroke: #c4520b; stroke-width: 5; stroke-linecap: square"/>
    </g>
    <g id="text_9">
     <!-- Lognormal fit -->
     <g transform="translate(308.477344 48.024219) scale(0.25 -0.25)">
      <defs>
       <path id="Figtree-Bold-4c" d="M 486 0 
L 486 4480 
L 1363 4480 
L 1363 800 
L 3334 800 
L 3334 0 
L 486 0 
z
" transform="scale(0.015625)"/>
       <path id="Figtree-Bold-6f" d="M 1869 -77 
Q 1382 -77 1001 137 
Q 621 352 406 729 
Q 192 1107 192 1600 
Q 192 2093 403 2470 
Q 614 2848 992 3062 
Q 1370 3277 1856 3277 
Q 2349 3277 2726 3062 
Q 3104 2848 3315 2470 
Q 3526 2093 3526 1600 
Q 3526 1107 3315 729 
Q 3104 352 2729 137 
Q 2355 -77 1869 -77 
z
M 1869 704 
Q 2106 704 2285 819 
Q 2464 934 2563 1136 
Q 2662 1338 2662 1600 
Q 2662 1862 2560 2064 
Q 2458 2266 2275 2381 
Q 2093 2496 1856 2496 
Q 1626 2496 1443 2381 
Q 1261 2266 1158 2064 
Q 1056 1862 1056 1600 
Q 1056 1338 1158 1136 
Q 1261 934 1446 819 
Q 1632 704 1869 704 
z
" transform="scale(0.015625)"/>
       <path id="Figtree-Bold-67" d="M 1805 -1363 
Q 1440 -1363 1158 -1312 
Q 877 -1261 685 -1177 
Q 493 -1094 371 -1011 
L 704 -333 
Q 794 -384 941 -451 
Q 1088 -518 1293 -566 
Q 1498 -614 1766 -614 
Q 2022 -614 2217 -515 
Q 2413 -416 2525 -208 
Q 2637 0 2637 320 
L 2637 3200 
L 3482 3200 
L 3482 346 
Q 3482 -192 3277 -579 
Q 3072 -966 2697 -1164 
Q 2323 -1363 1805 -1363 
z
M 1638 90 
Q 1197 90 873 282 
Q 550 474 371 819 
Q 192 1165 192 1638 
Q 192 2138 371 2506 
Q 550 2874 873 3075 
Q 1197 3277 1638 3277 
Q 2022 3277 2304 3075 
Q 2586 2874 2739 2502 
Q 2893 2131 2893 1619 
Q 2893 1158 2739 812 
Q 2586 467 2304 278 
Q 2022 90 1638 90 
z
M 1882 800 
Q 2099 800 2262 912 
Q 2426 1024 2515 1219 
Q 2605 1414 2605 1664 
Q 2605 1920 2512 2112 
Q 2419 2304 2256 2413 
Q 2093 2522 1875 2522 
Q 1651 2522 1478 2413 
Q 1306 2304 1210 2112 
Q 1114 1920 1107 1664 
Q 1114 1414 1210 1219 
Q 1306 1024 1482 912 
Q 1658 800 1882 800 
z
" transform="scale(0.015625)"/>
       <path id="Figtree-Bold-6e" d="M 365 0 
L 365 3200 
L 1158 3200 
L 1210 2611 
L 1210 0 
L 365 0 
z
M 2483 0 
L 2483 1638 
L 3328 1638 
L 3328 0 
L 2483 0 
z
M 2483 1638 
Q 2483 1965 2409 2144 
Q 2336 2323 2201 2403 
Q 2067 2483 1888 2483 
Q 1562 2490 1386 2285 
Q 1210 2080 1210 1677 
L 928 1677 
Q 928 2189 1078 2544 
Q 1229 2899 1501 3088 
Q 1773 3277 2138 3277 
Q 2515 3277 2784 3123 
Q 3053 2970 3193 2646 
Q 3334 2323 3328 1811 
L 3328 1638 
L 2483 1638 
z
" transform="scale(0.015625)"/>
       <path id="Figtree-Bold-72" d="M 960 1683 
Q 960 2202 1161 2541 
Q 1363 2880 1680 3046 
Q 1997 3213 2342 3213 
L 2342 2394 
Q 2048 2394 1789 2323 
Q 1530 2253 1370 2093 
Q 1210 1933 1210 1683 
L 960 1683 
z
M 365 0 
L 365 3200 
L 1210 3200 
L 1210 0 
L 365 0 
z
" transform="scale(0.015625)"/>
       <path id="Figtree-Bold-6d" d="M 365 0 
L 365 3200 
L 1158 3200 
L 1197 2784 
Q 1344 3027 1574 3152 
Q 1805 3277 2086 3277 
Q 2477 3277 2742 3110 
Q 3008 2944 3130 2598 
Q 3270 2925 3526 3101 
Q 3782 3277 4122 3277 
Q 4685 3277 4979 2921 
Q 5274 2566 5274 1830 
L 5274 0 
L 4429 0 
L 4429 1638 
Q 4429 1965 4358 2144 
Q 4288 2323 4166 2403 
Q 4045 2483 3878 2483 
Q 3571 2490 3404 2285 
Q 3238 2080 3238 1677 
L 3238 0 
L 2394 0 
L 2394 1638 
Q 2394 1965 2326 2144 
Q 2259 2323 2134 2403 
Q 2010 2483 1843 2483 
Q 1536 2490 1373 2285 
Q 1210 2080 1210 1677 
L 1210 0 
L 365 0 
z
" transform="scale(0.015625)"/>
       <path id="Figtree-Bold-61" d="M 2298 0 
L 2272 646 
L 2272 1619 
Q 2272 1907 2211 2112 
Q 2150 2317 2019 2429 
Q 1888 2541 1664 2541 
Q 1459 2541 1292 2451 
Q 1126 2362 1011 2176 
L 269 2432 
Q 358 2637 531 2832 
Q 704 3027 982 3152 
Q 1261 3277 1664 3277 
Q 2150 3277 2473 3091 
Q 2797 2906 2953 2570 
Q 3110 2234 3104 1773 
L 3085 0 
L 2298 0 
z
M 1402 -77 
Q 826 -77 509 179 
Q 192 435 192 902 
Q 192 1414 534 1673 
Q 877 1933 1498 1933 
L 2310 1933 
L 2310 1306 
L 1792 1306 
Q 1376 1306 1216 1206 
Q 1056 1107 1056 928 
Q 1056 787 1184 707 
Q 1312 627 1542 627 
Q 1754 627 1917 726 
Q 2080 826 2176 982 
Q 2272 1139 2272 1306 
L 2477 1306 
Q 2477 653 2230 288 
Q 1984 -77 1402 -77 
z
" transform="scale(0.015625)"/>
       <path id="Figtree-Bold-6c" d="M 365 0 
L 365 4480 
L 1210 4480 
L 1210 0 
L 365 0 
z
" transform="scale(0.015625)"/>
       <path id="Figtree-Bold-20" transform="scale(0.015625)"/>
       <path id="Figtree-Bold-66" d="M 685 0 
L 685 3520 
Q 685 4032 947 4317 
Q 1210 4602 1747 4602 
Q 1933 4602 2141 4538 
Q 2349 4474 2522 4384 
L 2208 3776 
Q 2106 3827 2022 3852 
Q 1939 3878 1869 3878 
Q 1696 3878 1613 3760 
Q 1530 3642 1530 3379 
L 1530 0 
L 685 0 
z
M 154 2522 
L 154 3200 
L 2317 3200 
L 2317 2522 
L 154 2522 
z
" transform="scale(0.015625)"/>
       <path id="Figtree-Bold-69" d="M 416 0 
L 416 3200 
L 1261 3200 
L 1261 0 
L 416 0 
z
M 838 3718 
Q 646 3718 499 3862 
Q 352 4006 352 4205 
Q 352 4403 499 4547 
Q 646 4691 838 4691 
Q 1037 4691 1181 4547 
Q 1325 4403 1325 4205 
Q 1325 4006 1181 3862 
Q 1037 3718 838 3718 
z
" transform="scale(0.015625)"/>
       <path id="Figtree-Bold-74" d="M 1683 -77 
Q 1152 -77 880 185 
Q 608 448 608 934 
L 608 4198 
L 1453 4198 
L 1453 1120 
Q 1453 915 1542 809 
Q 1632 704 1805 704 
Q 1869 704 1945 733 
Q 2022 762 2106 819 
L 2400 186 
Q 2246 70 2057 -3 
Q 1869 -77 1683 -77 
z
M 90 2483 
L 90 3200 
L 2253 3200 
L 2253 2483 
L 90 2483 
z
" transform="scale(0.015625)"/>
      </defs>
      <use xlink:href="#Figtree-Bold-4c"/>
      <use xlink:href="#Figtree-Bold-6f" x="53.699997"/>
      <use xlink:href="#Figtree-Bold-67" x="111.799988"/>
      <use xlink:href="#Figtree-Bold-6e" x="171.899979"/>
      <use xlink:href="#Figtree-Bold-6f" x="228.699966"/>
      <use xlink:href="#Figtree-Bold-72" x="286.799957"/>
      <use xlink:href="#Figtree-Bold-6d" x="324.699951"/>
      <use xlink:href="#Figtree-Bold-61" x="411.899933"/>
      <use xlink:href="#Figtree-Bold-6c" x="465.199921"/>
      <use xlink:href="#Figtree-Bold-20" x="489.799911"/>
      <use xlink:href="#Figtree-Bold-66" x="513.599899"/>
      <use xlink:href="#Figtree-Bold-69" x="552.899887"/>
      <use xlink:href="#Figtree-Bold-74" x="579.099884"/>
     </g>
    </g>
    <g id="line2d_13">
     <path d="M 238.477344 74.598438 
L 263.477344 74.598438 
L 288.477344 74.598438 
" style="fill: none; stroke: #5e548e; stroke-width: 5; stroke-linecap: square"/>
    </g>
    <g id="text_10">
     <!-- Gaussian fit -->
     <g transform="translate(308.477344 83.348438) scale(0.25 -0.25)">
      <defs>
       <path id="Figtree-Bold-47" d="M 2566 -77 
Q 1882 -77 1354 220 
Q 826 518 525 1040 
Q 224 1562 224 2240 
Q 224 2918 525 3440 
Q 826 3962 1354 4259 
Q 1882 4557 2566 4557 
Q 2976 4557 3321 4435 
Q 3667 4314 3932 4099 
Q 4198 3885 4378 3610 
L 3661 3162 
Q 3552 3334 3376 3468 
Q 3200 3603 2989 3680 
Q 2778 3757 2566 3757 
Q 2144 3757 1817 3561 
Q 1491 3366 1305 3027 
Q 1120 2688 1120 2240 
Q 1120 1798 1302 1452 
Q 1485 1107 1817 912 
Q 2150 717 2586 717 
Q 2925 717 3190 851 
Q 3456 986 3609 1229 
Q 3763 1472 3763 1792 
L 4595 1920 
Q 4595 1286 4336 838 
Q 4077 390 3619 156 
Q 3162 -77 2566 -77 
z
M 2714 1715 
L 2714 2400 
L 4595 2400 
L 4595 1856 
L 4122 1715 
L 2714 1715 
z
" transform="scale(0.015625)"/>
       <path id="Figtree-Bold-75" d="M 2477 0 
L 2426 589 
L 2426 3200 
L 3270 3200 
L 3270 0 
L 2477 0 
z
M 307 1562 
L 307 3200 
L 1152 3200 
L 1152 1562 
L 307 1562 
z
M 1152 1562 
Q 1152 1242 1225 1059 
Q 1299 877 1436 797 
Q 1574 717 1747 717 
Q 2080 710 2253 918 
Q 2426 1126 2426 1523 
L 2714 1523 
Q 2714 1011 2560 656 
Q 2406 301 2137 112 
Q 1869 -77 1504 -77 
Q 1120 -77 851 76 
Q 582 230 444 553 
Q 307 877 307 1389 
L 307 1562 
L 1152 1562 
z
" transform="scale(0.015625)"/>
       <path id="Figtree-Bold-73" d="M 1562 -77 
Q 1254 -77 985 16 
Q 717 109 512 285 
Q 307 461 192 717 
L 915 1050 
Q 1011 896 1177 784 
Q 1344 672 1562 672 
Q 1773 672 1888 733 
Q 2003 794 2003 909 
Q 2003 1024 1910 1078 
Q 1818 1133 1658 1171 
L 1363 1248 
Q 902 1370 636 1635 
Q 371 1901 371 2246 
Q 371 2739 688 3008 
Q 1005 3277 1587 3277 
Q 1888 3277 2147 3187 
Q 2406 3098 2592 2938 
Q 2778 2778 2848 2566 
L 2150 2246 
Q 2106 2374 1933 2454 
Q 1760 2534 1587 2534 
Q 1414 2534 1321 2460 
Q 1229 2387 1229 2259 
Q 1229 2176 1318 2121 
Q 1408 2067 1574 2029 
L 1990 1926 
Q 2304 1850 2493 1680 
Q 2682 1510 2768 1302 
Q 2854 1094 2854 896 
Q 2854 608 2684 387 
Q 2515 166 2224 44 
Q 1933 -77 1562 -77 
z
" transform="scale(0.015625)"/>
      </defs>
      <use xlink:href="#Figtree-Bold-47"/>
      <use xlink:href="#Figtree-Bold-61" x="74.299988"/>
      <use xlink:href="#Figtree-Bold-75" x="127.599976"/>
      <use xlink:href="#Figtree-Bold-73" x="184.399963"/>
      <use xlink:href="#Figtree-Bold-73" x="230.999954"/>
      <use xlink:href="#Figtree-Bold-69" x="277.599945"/>
      <use xlink:href="#Figtree-Bold-61" x="303.799942"/>
      <use xlink:href="#Figtree-Bold-6e" x="357.09993"/>
      <use xlink:href="#Figtree-Bold-20" x="413.899918"/>
      <use xlink:href="#Figtree-Bold-66" x="437.699905"/>
      <use xlink:href="#Figtree-Bold-69" x="476.999893"/>
      <use xlink:href="#Figtree-Bold-74" x="503.19989"/>
     </g>
    </g>
    <g id="patch_28">
     <path d="M 238.477344 118.348438 
L 288.477344 118.348438 
L 288.477344 100.848438 
L 238.477344 100.848438 
z
" style="fill: #dd6b74; opacity: 0.65"/>
    </g>
    <g id="text_11">
     <!-- Data interactions -->
     <g transform="translate(308.477344 118.348438) scale(0.25 -0.25)">
      <defs>
       <path id="Figtree-Bold-44" d="M 486 0 
L 486 4480 
L 1920 4480 
Q 2605 4480 3133 4192 
Q 3661 3904 3958 3401 
Q 4256 2899 4256 2240 
Q 4256 1587 3958 1081 
Q 3661 576 3133 288 
Q 2605 0 1920 0 
L 486 0 
z
M 1363 819 
L 1920 819 
Q 2227 819 2489 928 
Q 2752 1037 2947 1229 
Q 3142 1421 3251 1680 
Q 3360 1939 3360 2240 
Q 3360 2541 3251 2800 
Q 3142 3059 2947 3251 
Q 2752 3443 2489 3552 
Q 2227 3661 1920 3661 
L 1363 3661 
L 1363 819 
z
" transform="scale(0.015625)"/>
       <path id="Figtree-Bold-65" d="M 1811 -77 
Q 1338 -77 973 137 
Q 608 352 400 729 
Q 192 1107 192 1600 
Q 192 2093 406 2470 
Q 621 2848 995 3062 
Q 1370 3277 1856 3277 
Q 2278 3277 2633 3056 
Q 2989 2835 3203 2409 
Q 3418 1984 3418 1376 
L 992 1376 
L 1069 1453 
Q 1069 1216 1187 1040 
Q 1306 864 1494 771 
Q 1683 678 1901 678 
Q 2163 678 2329 790 
Q 2496 902 2586 1082 
L 3341 787 
Q 3206 518 2992 323 
Q 2778 128 2483 25 
Q 2189 -77 1811 -77 
z
M 1114 1926 
L 1037 2003 
L 2579 2003 
L 2509 1926 
Q 2509 2157 2400 2294 
Q 2291 2432 2134 2496 
Q 1978 2560 1830 2560 
Q 1683 2560 1516 2496 
Q 1350 2432 1232 2294 
Q 1114 2157 1114 1926 
z
" transform="scale(0.015625)"/>
       <path id="Figtree-Bold-63" d="M 1907 -77 
Q 1408 -77 1017 137 
Q 627 352 409 733 
Q 192 1114 192 1600 
Q 192 2093 409 2470 
Q 627 2848 1011 3062 
Q 1395 3277 1894 3277 
Q 2374 3277 2771 3040 
Q 3168 2803 3347 2355 
L 2554 2074 
Q 2464 2259 2275 2371 
Q 2086 2483 1856 2483 
Q 1619 2483 1440 2371 
Q 1261 2259 1158 2060 
Q 1056 1862 1056 1600 
Q 1056 1338 1158 1142 
Q 1261 947 1446 832 
Q 1632 717 1869 717 
Q 2099 717 2288 838 
Q 2477 960 2566 1158 
L 3366 877 
Q 3181 422 2787 172 
Q 2394 -77 1907 -77 
z
" transform="scale(0.015625)"/>
      </defs>
      <use xlink:href="#Figtree-Bold-44"/>
      <use xlink:href="#Figtree-Bold-61" x="69.999985"/>
      <use xlink:href="#Figtree-Bold-74" x="123.299973"/>
      <use xlink:href="#Figtree-Bold-61" x="163.499969"/>
      <use xlink:href="#Figtree-Bold-20" x="216.799957"/>
      <use xlink:href="#Figtree-Bold-69" x="240.599945"/>
      <use xlink:href="#Figtree-Bold-6e" x="266.799942"/>
      <use xlink:href="#Figtree-Bold-74" x="323.59993"/>
      <use xlink:href="#Figtree-Bold-65" x="363.799927"/>
      <use xlink:href="#Figtree-Bold-72" x="419.199921"/>
      <use xlink:href="#Figtree-Bold-61" x="457.099915"/>
      <use xlink:href="#Figtree-Bold-63" x="510.399902"/>
      <use xlink:href="#Figtree-Bold-74" x="564.999893"/>
      <use xlink:href="#Figtree-Bold-69" x="605.19989"/>
      <use xlink:href="#Figtree-Bold-6f" x="631.399887"/>
      <use xlink:href="#Figtree-Bold-6e" x="689.499878"/>
      <use xlink:href="#Figtree-Bold-73" x="746.299866"/>
     </g>
    </g>
   </g>
  </g>
 </g>
 <defs>
  <clipPath id="pccedfeda4e">
   <rect x="30.899219" y="7.2" width="498.300781" height="348"/>
  </clipPath>
 </defs>
</svg>
