<?xml version="1.0" encoding="utf-8" standalone="no"?>
<!DOCTYPE svg PUBLIC "-//W3C//DTD SVG 1.1//EN"
  "http://www.w3.org/Graphics/SVG/1.1/DTD/svg11.dtd">
<svg xmlns:xlink="http://www.w3.org/1999/xlink" width="536.4pt" height="392.4pt" viewBox="0 0 536.4 392.4" xmlns="http://www.w3.org/2000/svg" version="1.1">
 <metadata>
  <rdf:RDF xmlns:dc="http://purl.org/dc/elements/1.1/" xmlns:cc="http://creativecommons.org/ns#" xmlns:rdf="http://www.w3.org/1999/02/22-rdf-syntax-ns#">
   <cc:Work>
    <dc:type rdf:resource="http://purl.org/dc/dcmitype/StillImage"/>
    <dc:date>2026-03-27T07:28:30.582594</dc:date>
    <dc:format>image/svg+xml</dc:format>
    <dc:creator>
     <cc:Agent>
      <dc:title>Matplotlib v3.8.1, https://matplotlib.org/</dc:title>
     </cc:Agent>
    </dc:creator>
   </cc:Work>
  </rdf:RDF>
 </metadata>
 <defs>
  <style type="text/css">*{stroke-linejoin: round; stroke-linecap: butt}</style>
 </defs>
 <g id="figure_1">
  <g id="patch_1">
   <path d="M 0 392.4 
L 536.4 392.4 
L 536.4 0 
L 0 0 
z
" style="fill: #ffffff"/>
  </g>
  <g id="axes_1">
   <g id="patch_2">
    <path d="M 33.928125 350.7 
L 472.832813 350.7 
L 472.832813 7.2 
L 33.928125 7.2 
z
" style="fill: #ffffff"/>
   </g>
   <g id="PathCollection_1">
    <defs>
     <path id="m9d9a00eb2e" d="M 0 7.071068 
C 1.875269 7.071068 3.673985 6.326016 5 5 
C 6.326016 3.673985 7.071068 1.875269 7.071068 0 
C 7.071068 -1.875269 6.326016 -3.673985 5 -5 
C 3.673985 -6.326016 1.875269 -7.071068 0 -7.071068 
C -1.875269 -7.071068 -3.673985 -6.326016 -5 -5 
C -6.326016 -3.673985 -7.071068 -1.875269 -7.071068 0 
C -7.071068 1.875269 -6.326016 3.673985 -5 5 
C -3.673985 6.326016 -1.875269 7.071068 0 7.071068 
z
" style="stroke: #ffffff; stroke-width: 2"/>
    </defs>
    <g clip-path="url(#pecfa3e5e05)">
     <use xlink:href="#m9d9a00eb2e" x="75.88842" y="333.952181" style="fill: #777777; stroke: #ffffff; stroke-width: 2"/>
     <use xlink:href="#m9d9a00eb2e" x="432.550929" y="42.387884" style="fill: #777777; stroke: #ffffff; stroke-width: 2"/>
    </g>
   </g>
   <g id="matplotlib.axis_1">
    <g id="xtick_1">
     <g id="line2d_1">
      <defs>
       <path id="mdd8fb1ed26" d="M 0 0 
L 0 4 
" style="stroke: #000000; stroke-width: 0.8"/>
      </defs>
      <g>
       <use xlink:href="#mdd8fb1ed26" x="33.928125" y="350.7" style="stroke: #000000; stroke-width: 0.8"/>
      </g>
     </g>
     <g id="text_1">
      <!-- 0 -->
      <g transform="translate(24.314062 379.2) scale(0.3 -0.3)">
       <defs>
        <path id="Figtree-Regular-30" d="M 2048 -77 
Q 1536 -77 1139 220 
Q 742 518 518 1040 
Q 294 1562 294 2240 
Q 294 2918 518 3440 
Q 742 3962 1136 4259 
Q 1530 4557 2048 4557 
Q 2566 4557 2960 4259 
Q 3354 3962 3581 3440 
Q 3808 2918 3808 2240 
Q 3808 1562 3584 1040 
Q 3360 518 2963 220 
Q 2566 -77 2048 -77 
z
M 2048 410 
Q 2406 410 2684 646 
Q 2963 883 3120 1292 
Q 3277 1702 3277 2240 
Q 3277 2778 3120 3190 
Q 2963 3603 2684 3836 
Q 2406 4070 2048 4070 
Q 1690 4070 1414 3836 
Q 1139 3603 982 3190 
Q 826 2778 826 2240 
Q 826 1702 982 1292 
Q 1139 883 1417 646 
Q 1696 410 2048 410 
z
" transform="scale(0.015625)"/>
       </defs>
       <use xlink:href="#Figtree-Regular-30"/>
      </g>
     </g>
    </g>
    <g id="xtick_2">
     <g id="line2d_2">
      <g>
       <use xlink:href="#mdd8fb1ed26" x="243.729601" y="350.7" style="stroke: #000000; stroke-width: 0.8"/>
      </g>
     </g>
     <g id="text_2">
      <!-- 5 -->
      <g transform="translate(235.104601 379.2) scale(0.3 -0.3)">
       <defs>
        <path id="Figtree-Regular-35" d="M 1856 -77 
Q 1587 -77 1308 3 
Q 1030 83 784 249 
Q 538 416 378 678 
L 813 928 
Q 1037 646 1299 518 
Q 1562 390 1843 390 
Q 2285 390 2563 662 
Q 2842 934 2842 1376 
Q 2842 1811 2573 2086 
Q 2304 2362 1869 2362 
Q 1632 2362 1401 2256 
Q 1171 2150 1043 1997 
L 557 2112 
L 774 4480 
L 3162 4480 
L 3162 3994 
L 1254 3994 
L 1120 2566 
Q 1299 2675 1516 2739 
Q 1734 2803 1958 2803 
Q 2368 2803 2688 2624 
Q 3008 2445 3193 2125 
Q 3379 1805 3379 1389 
Q 3379 954 3184 624 
Q 2989 294 2646 108 
Q 2304 -77 1856 -77 
z
" transform="scale(0.015625)"/>
       </defs>
       <use xlink:href="#Figtree-Regular-35"/>
      </g>
     </g>
    </g>
    <g id="xtick_3">
     <g id="line2d_3">
      <g>
       <use xlink:href="#mdd8fb1ed26" x="453.531077" y="350.7" style="stroke: #000000; stroke-width: 0.8"/>
      </g>
     </g>
     <g id="text_3">
      <!-- 10 -->
      <g transform="translate(437.722483 379.2) scale(0.3 -0.3)">
       <defs>
        <path id="Figtree-Regular-31" d="M 1389 0 
L 1389 4192 
L 1434 4480 
L 1920 4480 
L 1920 0 
L 1389 0 
z
M 384 3328 
L 384 3821 
Q 518 3814 704 3910 
Q 890 4006 1088 4160 
Q 1286 4314 1434 4480 
L 1766 4115 
Q 1555 3891 1324 3712 
Q 1094 3533 857 3427 
Q 621 3322 384 3328 
z
" transform="scale(0.015625)"/>
       </defs>
       <use xlink:href="#Figtree-Regular-31"/>
       <use xlink:href="#Figtree-Regular-30" x="41.299988"/>
      </g>
     </g>
    </g>
   </g>
   <g id="matplotlib.axis_2">
    <g id="ytick_1">
     <g id="line2d_4">
      <defs>
       <path id="m6fc663c920" d="M 0 0 
L -4 0 
" style="stroke: #000000; stroke-width: 0.8"/>
      </defs>
      <g>
       <use xlink:href="#m6fc663c920" x="33.928125" y="335.47471" style="stroke: #000000; stroke-width: 0.8"/>
      </g>
     </g>
     <g id="text_4">
      <!-- 0 -->
      <g style="fill: #777777" transform="translate(7.2 345.97471) scale(0.3 -0.3)">
       <use xlink:href="#Figtree-Regular-30"/>
      </g>
     </g>
    </g>
    <g id="ytick_2">
     <g id="line2d_5">
      <g>
       <use xlink:href="#m6fc663c920" x="33.928125" y="183.221814" style="stroke: #000000; stroke-width: 0.8"/>
      </g>
     </g>
     <g id="text_5">
      <!-- 2 -->
      <g style="fill: #777777" transform="translate(9.65625 193.721814) scale(0.3 -0.3)">
       <defs>
        <path id="Figtree-Regular-32" d="M 365 0 
L 365 448 
Q 365 659 451 867 
Q 538 1075 701 1280 
Q 864 1485 1101 1664 
L 2029 2362 
Q 2195 2477 2320 2627 
Q 2445 2778 2515 2941 
Q 2586 3104 2586 3258 
Q 2586 3482 2477 3664 
Q 2368 3846 2169 3955 
Q 1971 4064 1702 4064 
Q 1440 4064 1241 3965 
Q 1043 3866 915 3702 
Q 787 3539 730 3354 
L 179 3462 
Q 256 3750 457 4000 
Q 659 4250 972 4403 
Q 1286 4557 1670 4557 
Q 2118 4557 2444 4387 
Q 2771 4218 2953 3926 
Q 3136 3635 3136 3264 
Q 3136 2912 2944 2598 
Q 2752 2285 2387 1990 
L 1510 1325 
Q 1254 1133 1116 921 
Q 979 710 960 480 
L 3200 480 
L 3200 0 
L 365 0 
z
" transform="scale(0.015625)"/>
       </defs>
       <use xlink:href="#Figtree-Regular-32"/>
      </g>
     </g>
    </g>
    <g id="ytick_3">
     <g id="line2d_6">
      <g>
       <use xlink:href="#m6fc663c920" x="33.928125" y="30.968917" style="stroke: #000000; stroke-width: 0.8"/>
      </g>
     </g>
     <g id="text_6">
      <!-- 4 -->
      <g style="fill: #777777" transform="translate(7.8 41.468917) scale(0.3 -0.3)">
       <defs>
        <path id="Figtree-Regular-34" d="M 2342 0 
L 2342 1088 
L 275 1088 
L 275 1504 
L 2317 4480 
L 2867 4480 
L 2867 1568 
L 3782 1568 
L 3782 1088 
L 2867 1088 
L 2867 0 
L 2342 0 
z
M 896 1568 
L 2342 1568 
L 2342 3693 
L 896 1568 
z
" transform="scale(0.015625)"/>
       </defs>
       <use xlink:href="#Figtree-Regular-34"/>
      </g>
     </g>
    </g>
   </g>
   <g id="line2d_7">
    <path d="M 67.496361 335.47471 
L 110.389014 254.734089 
L 153.281667 194.701353 
L 196.17474 144.687627 
L 239.067392 117.543987 
L 281.960045 92.229184 
L 324.852698 61.818029 
L 367.745771 56.481146 
L 410.638424 40.755392 
L 453.531077 22.832129 
" clip-path="url(#pecfa3e5e05)" style="fill: none; stroke: #777777; stroke-width: 6; stroke-linecap: square"/>
    <defs>
     <path id="ma7ff5fba7d" d="M 0 4 
C 1.060812 4 2.078319 3.578535 2.828427 2.828427 
C 3.578535 2.078319 4 1.060812 4 0 
C 4 -1.060812 3.578535 -2.078319 2.828427 -2.828427 
C 2.078319 -3.578535 1.060812 -4 0 -4 
C -1.060812 -4 -2.078319 -3.578535 -2.828427 -2.828427 
C -3.578535 -2.078319 -4 -1.060812 -4 0 
C -4 1.060812 -3.578535 2.078319 -2.828427 2.828427 
C -2.078319 3.578535 -1.060812 4 0 4 
z
" style="stroke: #777777"/>
    </defs>
    <g clip-path="url(#pecfa3e5e05)">
     <use xlink:href="#ma7ff5fba7d" x="67.496361" y="335.47471" style="fill: #777777; stroke: #777777"/>
     <use xlink:href="#ma7ff5fba7d" x="110.389014" y="254.734089" style="fill: #777777; stroke: #777777"/>
     <use xlink:href="#ma7ff5fba7d" x="153.281667" y="194.701353" style="fill: #777777; stroke: #777777"/>
     <use xlink:href="#ma7ff5fba7d" x="196.17474" y="144.687627" style="fill: #777777; stroke: #777777"/>
     <use xlink:href="#ma7ff5fba7d" x="239.067392" y="117.543987" style="fill: #777777; stroke: #777777"/>
     <use xlink:href="#ma7ff5fba7d" x="281.960045" y="92.229184" style="fill: #777777; stroke: #777777"/>
     <use xlink:href="#ma7ff5fba7d" x="324.852698" y="61.818029" style="fill: #777777; stroke: #777777"/>
     <use xlink:href="#ma7ff5fba7d" x="367.745771" y="56.481146" style="fill: #777777; stroke: #777777"/>
     <use xlink:href="#ma7ff5fba7d" x="410.638424" y="40.755392" style="fill: #777777; stroke: #777777"/>
     <use xlink:href="#ma7ff5fba7d" x="453.531077" y="22.832129" style="fill: #777777; stroke: #777777"/>
    </g>
   </g>
   <g id="patch_3">
    <path d="M 33.928125 350.7 
L 33.928125 7.2 
" style="fill: none; stroke: #000000; stroke-width: 1.5; stroke-linejoin: miter; stroke-linecap: square"/>
   </g>
   <g id="patch_4">
    <path d="M 472.832813 350.7 
L 472.832813 7.2 
" style="fill: none; stroke: #000000; stroke-width: 1.5; stroke-linejoin: miter; stroke-linecap: square"/>
   </g>
   <g id="patch_5">
    <path d="M 33.928125 350.7 
L 472.832813 350.7 
" style="fill: none; stroke: #000000; stroke-width: 1.5; stroke-linejoin: miter; stroke-linecap: square"/>
   </g>
  </g>
  <g id="axes_2">
   <g id="matplotlib.axis_3">
    <g id="ytick_4">
     <g id="line2d_8">
      <defs>
       <path id="m74512ef6c3" d="M 0 0 
L 4 0 
" style="stroke: #000000; stroke-width: 0.8"/>
      </defs>
      <g>
       <use xlink:href="#m74512ef6c3" x="472.832813" y="350.285414" style="stroke: #000000; stroke-width: 0.8"/>
      </g>
     </g>
     <g id="text_7">
      <!-- 0 -->
      <g style="fill: #711c62" transform="translate(480.332813 360.785414) scale(0.3 -0.3)">
       <use xlink:href="#Figtree-Regular-30"/>
      </g>
     </g>
    </g>
    <g id="ytick_5">
     <g id="line2d_9">
      <g>
       <use xlink:href="#m74512ef6c3" x="472.832813" y="194.815533" style="stroke: #000000; stroke-width: 0.8"/>
      </g>
     </g>
     <g id="text_8">
      <!-- 75 -->
      <g style="fill: #711c62" transform="translate(480.332813 205.315533) scale(0.3 -0.3)">
       <defs>
        <path id="Figtree-Regular-37" d="M 525 0 
L 2739 4147 
L 3245 4032 
L 1120 0 
L 525 0 
z
M 269 3987 
L 269 4480 
L 3245 4480 
L 3245 4032 
L 2829 3987 
L 269 3987 
z
" transform="scale(0.015625)"/>
       </defs>
       <use xlink:href="#Figtree-Regular-37"/>
       <use xlink:href="#Figtree-Regular-35" x="53.699997"/>
      </g>
     </g>
    </g>
    <g id="ytick_6">
     <g id="line2d_10">
      <g>
       <use xlink:href="#m74512ef6c3" x="472.832813" y="39.345652" style="stroke: #000000; stroke-width: 0.8"/>
      </g>
     </g>
     <g id="text_9">
      <!-- 150 -->
      <g style="fill: #711c62" transform="translate(480.332813 49.845652) scale(0.3 -0.3)">
       <use xlink:href="#Figtree-Regular-31"/>
       <use xlink:href="#Figtree-Regular-35" x="41.299988"/>
       <use xlink:href="#Figtree-Regular-30" x="98.799973"/>
      </g>
     </g>
    </g>
   </g>
   <g id="line2d_11">
    <path d="M 67.496361 350.285414 
L 87.805144 346.872731 
L 108.113927 336.776341 
L 128.46467 318.546993 
L 148.773453 294.167474 
L 169.082236 268.623191 
L 189.391019 242.858893 
L 209.699801 216.534724 
L 230.050545 194.963424 
L 250.359327 174.151131 
L 270.66811 152.52245 
L 290.976893 135.231193 
L 311.327636 118.130291 
L 331.636419 100.256252 
L 351.945202 86.470801 
L 372.253985 73.093188 
L 392.562768 57.90318 
L 412.913511 45.447223 
L 433.222294 35.40764 
L 453.531077 23.537401 
" clip-path="url(#pecfa3e5e05)" style="fill: none; stroke: #711c62; stroke-width: 6; stroke-linecap: square"/>
   </g>
   <g id="patch_6">
    <path d="M 33.928125 350.7 
L 33.928125 7.2 
" style="fill: none; stroke: #000000; stroke-width: 1.5; stroke-linejoin: miter; stroke-linecap: square"/>
   </g>
   <g id="patch_7">
    <path d="M 33.928125 350.7 
L 472.832813 350.7 
" style="fill: none; stroke: #000000; stroke-width: 1.5; stroke-linejoin: miter; stroke-linecap: square"/>
   </g>
  </g>
 </g>
 <defs>
  <clipPath id="pecfa3e5e05">
   <rect x="33.928125" y="7.2" width="438.904688" height="343.5"/>
  </clipPath>
 </defs>
</svg>
