<?xml version="1.0" encoding="utf-8" standalone="no"?>
<!DOCTYPE svg PUBLIC "-//W3C//DTD SVG 1.1//EN"
  "http://www.w3.org/Graphics/SVG/1.1/DTD/svg11.dtd">
<svg xmlns:xlink="http://www.w3.org/1999/xlink" width="536.4pt" height="392.4pt" viewBox="0 0 536.4 392.4" xmlns="http://www.w3.org/2000/svg" version="1.1">
 <metadata>
  <rdf:RDF xmlns:dc="http://purl.org/dc/elements/1.1/" xmlns:cc="http://creativecommons.org/ns#" xmlns:rdf="http://www.w3.org/1999/02/22-rdf-syntax-ns#">
   <cc:Work>
    <dc:type rdf:resource="http://purl.org/dc/dcmitype/StillImage"/>
    <dc:date>2025-07-15T15:27:09.412770</dc:date>
    <dc:format>image/svg+xml</dc:format>
    <dc:creator>
     <cc:Agent>
      <dc:title>Matplotlib v3.9.2, https://matplotlib.org/</dc:title>
     </cc:Agent>
    </dc:creator>
   </cc:Work>
  </rdf:RDF>
 </metadata>
 <defs>
  <style type="text/css">*{stroke-linejoin: round; stroke-linecap: butt}</style>
 </defs>
 <g id="figure_1">
  <g id="patch_1">
   <path d="M 0 392.4 
L 536.4 392.4 
L 536.4 0 
L 0 0 
z
" style="fill: #ffffff"/>
  </g>
  <g id="axes_1">
   <g id="patch_2">
    <path d="M 7.2 385.2 
L 529.2 385.2 
L 529.2 7.2 
L 7.2 7.2 
z
" style="fill: #ffffff"/>
   </g>
   <g id="matplotlib.axis_1"/>
   <g id="matplotlib.axis_2"/>
   <g id="line2d_1">
    <path d="M 7.2 373.72487 
L 16.944974 372.848287 
L 25.29781 371.878845 
L 32.606541 370.81054 
L 39.020325 369.653344 
L 44.787759 368.389708 
L 49.958562 367.032519 
L 54.681891 365.56479 
L 59.007466 363.988923 
L 62.985007 362.305667 
L 66.713951 360.486628 
L 70.194299 358.544584 
L 73.575209 356.404973 
L 77.55275 353.600967 
L 82.822991 349.600051 
L 86.303339 347.161894 
L 89.286494 345.297243 
L 91.275265 344.31374 
L 93.264035 343.576506 
L 95.203086 343.092644 
L 97.092418 342.852681 
L 98.98175 342.833904 
L 101.169397 343.05086 
L 106.041884 343.835276 
L 116.085174 345.662252 
L 127.570323 347.995108 
L 137.166139 350.224209 
L 146.960833 352.727487 
L 157.203 355.578626 
L 168.58871 358.988005 
L 182.510102 363.405374 
L 210.303167 372.283036 
L 219.50123 374.935113 
L 227.406592 376.986327 
L 234.615884 378.62933 
L 241.477142 379.967248 
L 248.28868 381.067222 
L 255.149938 381.950179 
L 262.309511 382.644112 
L 269.966277 383.161456 
L 278.816304 383.53114 
L 289.903699 383.758676 
L 306.957404 383.859547 
L 371.990193 383.872537 
L 504.342857 383.872537 
L 504.342857 383.872537 
" clip-path="url(#pb108ccea50)" style="fill: none; stroke: #9d02d7; stroke-opacity: 0.7; stroke-width: 5; stroke-linecap: square"/>
   </g>
   <g id="line2d_2">
    <path d="M 7.2 378.434306 
L 15.701993 377.63689 
L 22.861566 376.747349 
L 28.977035 375.768199 
L 34.296995 374.695114 
L 38.970606 373.529622 
L 43.147023 372.261923 
L 46.925687 370.882973 
L 50.356316 369.394439 
L 53.488629 367.794612 
L 56.372346 366.07565 
L 59.106905 364.184961 
L 61.642587 362.162803 
L 64.078831 359.931733 
L 66.365917 357.535922 
L 68.603283 354.864816 
L 70.741211 351.961974 
L 72.82942 348.749677 
L 74.917629 345.129036 
L 77.304153 340.519344 
L 79.392362 336.028593 
L 81.53029 330.889951 
L 83.916815 324.561258 
L 86.750812 316.366653 
L 90.28088 306.244025 
L 92.319369 301.055832 
L 93.860666 297.714296 
L 95.153367 295.414424 
L 96.396348 293.635558 
L 97.539891 292.359507 
L 98.633715 291.459873 
L 99.677819 290.888204 
L 100.771643 290.553091 
L 102.213501 290.369778 
L 105.544692 290.247856 
L 124.537448 289.648956 
L 139.552664 288.953075 
L 152.877425 288.11814 
L 164.760327 287.16528 
L 176.792388 285.977863 
L 189.918272 284.45361 
L 213.584638 281.412311 
L 224.572594 280.155673 
L 232.428237 279.473039 
L 238.991179 279.120109 
L 244.758613 279.028787 
L 249.979135 279.16573 
L 254.801903 279.512733 
L 259.326355 280.05992 
L 263.602212 280.799883 
L 267.679191 281.72947 
L 271.607012 282.850884 
L 275.435395 284.173857 
L 279.164339 285.695319 
L 282.843564 287.434117 
L 286.522789 289.418941 
L 290.202014 291.657141 
L 293.930959 294.188297 
L 297.709622 297.022993 
L 301.637444 300.2518 
L 305.714423 303.893915 
L 310.089718 308.105996 
L 314.912486 313.065758 
L 320.580481 319.227309 
L 328.833878 328.565722 
L 339.42408 340.491464 
L 345.191513 346.642897 
L 350.11372 351.575735 
L 354.638172 355.799931 
L 358.914029 359.490859 
L 363.040727 362.761245 
L 367.067987 365.671286 
L 371.045527 368.273592 
L 375.023068 370.611999 
L 379.050328 372.720069 
L 383.127307 374.602003 
L 387.254005 376.263586 
L 391.529862 377.745554 
L 395.954875 379.044032 
L 400.578766 380.169822 
L 405.500973 381.137996 
L 410.771214 381.946575 
L 416.588367 382.609374 
L 423.10159 383.122519 
L 430.758356 383.495751 
L 440.50333 383.735869 
L 455.220231 383.851896 
L 499.221774 383.872536 
L 504.342857 383.872537 
L 504.342857 383.872537 
" clip-path="url(#pb108ccea50)" style="fill: none; stroke: #ffd700; stroke-opacity: 0.7; stroke-width: 5; stroke-linecap: square"/>
   </g>
   <g id="line2d_3">
    <path d="M 7.2 375.175349 
L 14.260135 374.19316 
L 20.375603 373.12307 
L 25.745283 371.9639 
L 30.568051 370.698628 
L 34.893627 369.336673 
L 38.821448 367.869214 
L 42.401234 366.297745 
L 45.682705 364.619815 
L 48.765299 362.796137 
L 51.649016 360.832257 
L 54.333856 358.739113 
L 56.919258 356.440665 
L 59.355501 353.978852 
L 61.692306 351.304297 
L 63.979392 348.342669 
L 66.16704 345.142458 
L 68.304968 341.618214 
L 70.393176 337.742457 
L 72.431666 333.491073 
L 74.470156 328.726513 
L 76.608084 323.154095 
L 78.795731 316.837351 
L 81.182255 309.228981 
L 85.060357 296.768574 
L 88.093232 288.245977 
L 91.026668 280.521715 
L 92.518246 277.182855 
L 93.810947 274.824263 
L 95.053928 273.01485 
L 96.29691 271.604249 
L 97.539891 270.528171 
L 98.683434 269.825708 
L 99.777258 269.411716 
L 100.920801 269.215113 
L 102.412378 269.205684 
L 105.395534 269.470588 
L 116.38349 270.731782 
L 128.365831 272.326525 
L 138.757156 273.952495 
L 148.601569 275.714144 
L 157.849351 277.590607 
L 166.649659 279.59969 
L 174.903056 281.710398 
L 182.559822 283.8944 
L 189.818833 286.192542 
L 196.779529 288.627874 
L 203.44191 291.191067 
L 209.905413 293.912775 
L 216.319198 296.857138 
L 222.683263 300.027768 
L 229.047328 303.449795 
L 235.510831 307.178733 
L 242.27265 311.339938 
L 249.531662 316.075055 
L 257.635901 321.635506 
L 267.579752 328.742162 
L 299.300639 351.618603 
L 307.206001 356.924696 
L 314.116977 361.300546 
L 320.331885 364.976776 
L 326.049599 368.104754 
L 331.419279 370.794725 
L 336.590082 373.137562 
L 341.562008 375.148617 
L 346.484214 376.898959 
L 351.356701 378.39603 
L 356.278908 379.676046 
L 361.350272 380.762864 
L 366.620513 381.662693 
L 372.23879 382.39348 
L 378.403978 382.966463 
L 385.414393 383.389038 
L 393.966105 383.672621 
L 405.898727 383.827354 
L 430.808075 383.871954 
L 504.342857 383.872537 
L 504.342857 383.872537 
" clip-path="url(#pb108ccea50)" style="fill: none; stroke: #cd34b5; stroke-opacity: 0.7; stroke-width: 5; stroke-linecap: square"/>
   </g>
   <g id="line2d_4">
    <path d="M 7.2 380.417993 
L 16.447782 379.742237 
L 23.95539 378.976772 
L 30.220016 378.119579 
L 35.539977 377.172499 
L 40.163868 376.127135 
L 44.191128 374.996524 
L 47.820633 373.750093 
L 51.102104 372.389601 
L 54.08526 370.913446 
L 56.819819 369.314623 
L 59.355501 367.578236 
L 61.742026 365.676496 
L 63.979392 363.613004 
L 66.11732 361.341102 
L 68.205529 358.791719 
L 70.194299 356.008294 
L 72.13335 352.908005 
L 74.072402 349.374314 
L 76.061172 345.266827 
L 78.099661 340.550873 
L 80.038712 335.483167 
L 82.077202 329.509412 
L 85.110077 319.813956 
L 90.628914 302.116522 
L 92.120492 298.285167 
L 93.462912 295.416059 
L 94.705893 293.24714 
L 95.899156 291.606207 
L 97.092418 290.34479 
L 98.28568 289.393986 
L 99.429223 288.753008 
L 100.622485 288.334714 
L 102.213501 288.031543 
L 106.439638 287.552641 
L 116.582367 286.334208 
L 125.382675 285.060069 
L 133.934388 283.612536 
L 141.79003 282.06153 
L 149.297638 280.352899 
L 156.357773 278.516286 
L 162.970434 276.570439 
L 169.384218 274.454029 
L 175.599126 272.170869 
L 181.714594 269.688578 
L 187.730624 267.006205 
L 193.647216 264.127122 
L 199.563808 261.003031 
L 205.579838 257.574581 
L 211.745026 253.803114 
L 218.15881 249.615351 
L 225.020068 244.864916 
L 232.627114 239.320134 
L 242.073773 232.142025 
L 262.856423 216.257444 
L 269.220488 211.736424 
L 274.490729 208.257159 
L 279.11462 205.462987 
L 283.340757 203.165377 
L 287.218859 201.30585 
L 290.848365 199.806879 
L 294.328713 198.608537 
L 297.659903 197.69553 
L 300.891655 197.038842 
L 304.073687 196.618991 
L 307.206001 196.427737 
L 310.388033 196.457124 
L 313.619785 196.710996 
L 316.950975 197.196282 
L 320.481042 197.937263 
L 324.309425 198.970478 
L 328.635001 200.370236 
L 334.302996 202.455676 
L 349.367931 208.117519 
L 354.290138 209.652816 
L 358.764871 210.8189 
L 363.090446 211.719351 
L 367.465741 212.40303 
L 372.039913 212.889564 
L 377.011838 213.18934 
L 382.779272 213.304673 
L 390.386319 213.216606 
L 417.433595 212.72725 
L 433.691792 212.818006 
L 467.550606 213.016253 
L 504.342857 213.038069 
L 504.342857 213.038069 
" clip-path="url(#pb108ccea50)" style="fill: none; stroke: #010195; stroke-opacity: 0.7; stroke-width: 5; stroke-linecap: square"/>
   </g>
   <g id="line2d_5">
    <path d="M 7.2 381.755337 
L 16.248905 381.164635 
L 23.358759 380.485159 
L 29.126193 379.718885 
L 33.99868 378.852541 
L 38.175098 377.887091 
L 41.804603 376.822618 
L 44.986636 375.662914 
L 47.870353 374.377911 
L 50.455754 372.988366 
L 52.842279 371.459211 
L 55.079645 369.761897 
L 57.167854 367.900004 
L 59.156624 365.827522 
L 61.045956 363.537376 
L 62.835849 361.025201 
L 64.576023 358.206932 
L 66.266478 355.052017 
L 67.956933 351.426557 
L 69.647388 347.253824 
L 71.337842 342.460586 
L 73.078016 336.8257 
L 75.166225 329.250214 
L 77.403592 321.331674 
L 79.988993 312.259182 
L 84.065972 296.74475 
L 91.57358 268.328317 
L 92.916 264.382597 
L 94.158982 261.386389 
L 95.352244 259.0747 
L 96.495787 257.328441 
L 97.63933 255.969914 
L 98.733153 255.00302 
L 99.826977 254.330598 
L 101.069958 253.836976 
L 102.810132 253.409153 
L 121.255977 249.560146 
L 128.365831 247.709931 
L 135.12765 245.725389 
L 141.491715 243.628479 
L 147.706622 241.346283 
L 153.573494 238.955648 
L 159.24149 236.415718 
L 164.859766 233.65306 
L 170.378604 230.690427 
L 175.798003 227.529522 
L 181.267121 224.083145 
L 186.785959 220.338271 
L 192.354515 216.290179 
L 198.07223 211.857828 
L 204.13798 206.866919 
L 210.700922 201.167802 
L 218.15881 194.384076 
L 228.649574 184.506013 
L 242.372089 171.621566 
L 249.084188 165.634593 
L 254.702465 160.917777 
L 259.624671 157.071291 
L 264.149123 153.812528 
L 268.37526 151.040933 
L 272.40252 148.665272 
L 276.230903 146.66213 
L 279.959847 144.961295 
L 283.589353 143.550024 
L 287.16914 142.397021 
L 290.699207 141.492209 
L 294.229274 140.814755 
L 297.809061 140.353153 
L 301.488286 140.104101 
L 305.316669 140.070623 
L 309.343929 140.259204 
L 313.768943 140.693305 
L 318.840307 141.420666 
L 325.651845 142.642273 
L 341.015096 145.464401 
L 347.279722 146.335575 
L 353.345472 146.953357 
L 359.858694 147.388458 
L 367.764056 147.68183 
L 380.989379 147.910819 
L 444.132836 148.672075 
L 496.387776 148.689469 
L 504.342857 148.689332 
L 504.342857 148.689332 
" clip-path="url(#pb108ccea50)" style="fill: none; stroke: #fa8775; stroke-opacity: 0.7; stroke-width: 5; stroke-linecap: square"/>
   </g>
   <g id="line2d_6">
    <path d="M 7.2 381.742456 
L 21.867181 381.243244 
L 32.904856 380.654615 
L 41.655446 379.972729 
L 48.765299 379.203621 
L 54.78133 378.334443 
L 59.902413 377.375877 
L 64.377146 376.318188 
L 68.354687 375.154793 
L 71.984193 373.863543 
L 75.414821 372.406472 
L 79.193485 370.55191 
L 83.618499 368.085011 
L 90.778072 364.138978 
L 92.617685 363.418806 
L 94.507016 362.928871 
L 96.595225 362.632019 
L 99.329784 362.474632 
L 102.909571 362.517457 
L 118.123664 363.097289 
L 136.718666 363.999402 
L 153.324898 365.029799 
L 168.688149 366.206026 
L 182.808418 367.508291 
L 196.08346 368.953881 
L 209.159625 370.600559 
L 222.88214 372.55688 
L 240.085003 375.251961 
L 264.845193 379.125242 
L 275.982307 380.623107 
L 285.677562 381.704539 
L 294.875625 382.506711 
L 304.173126 383.092376 
L 314.216416 383.497032 
L 326.099319 383.743847 
L 343.302182 383.85599 
L 398.838592 383.872537 
L 504.342857 383.872537 
L 504.342857 383.872537 
" clip-path="url(#pb108ccea50)" style="fill: none; stroke: #ffb14e; stroke-opacity: 0.7; stroke-width: 5; stroke-linecap: square"/>
   </g>
   <g id="line2d_7">
    <path d="M 7.2 382.936783 
L 23.607355 382.545604 
L 34.893627 382.065763 
L 43.3459 381.492681 
L 49.958562 380.829487 
L 55.377961 380.068181 
L 59.902413 379.21373 
L 63.780515 378.261332 
L 67.211144 377.191962 
L 70.244019 376.01703 
L 72.978578 374.724489 
L 75.563979 373.256587 
L 78.099661 371.556164 
L 80.436467 369.721568 
L 83.021868 367.395903 
L 92.070773 358.969367 
L 93.860666 357.73625 
L 95.401963 356.936266 
L 97.042699 356.347199 
L 98.882311 355.924548 
L 101.020239 355.667687 
L 105.296095 355.448307 
L 120.709065 354.65731 
L 133.984107 353.745021 
L 145.270378 352.754028 
L 155.313669 351.654291 
L 164.362573 350.444897 
L 172.665689 349.113529 
L 180.322455 347.66231 
L 187.432309 346.089316 
L 194.04497 344.400137 
L 200.210158 342.598825 
L 206.027311 340.670553 
L 211.546149 338.608485 
L 216.766671 336.422255 
L 221.738597 334.101087 
L 226.461926 331.653902 
L 230.986379 329.062683 
L 235.361673 326.300707 
L 239.538091 323.403342 
L 243.565351 320.342366 
L 247.493172 317.078098 
L 251.321555 313.605351 
L 255.050499 309.919009 
L 258.680005 306.017029 
L 262.259792 301.836998 
L 265.74014 297.431329 
L 269.170769 292.732574 
L 272.601397 287.654328 
L 275.982307 282.253173 
L 279.363216 276.434378 
L 282.793845 270.080419 
L 286.224474 263.253614 
L 289.704822 255.828605 
L 293.284608 247.656551 
L 296.963834 238.690758 
L 300.792216 228.763547 
L 304.869195 217.555096 
L 309.294209 204.718364 
L 314.365574 189.296742 
L 321.177112 167.805634 
L 332.662261 131.533084 
L 337.534748 116.942459 
L 341.611727 105.408196 
L 345.290952 95.647967 
L 348.671861 87.289523 
L 351.853894 79.995705 
L 354.936488 73.479777 
L 357.869924 67.788632 
L 360.753641 62.67558 
L 363.53792 58.182776 
L 366.272479 54.180882 
L 369.007038 50.568305 
L 371.741597 47.324242 
L 374.476156 44.424979 
L 377.210715 41.847386 
L 379.994994 39.525993 
L 382.828991 37.449567 
L 385.762428 35.575875 
L 388.795302 33.902502 
L 391.977335 32.401257 
L 395.358244 31.055288 
L 398.938031 29.871154 
L 402.816133 28.825435 
L 407.04227 27.918694 
L 411.71588 27.145325 
L 417.035841 26.496003 
L 423.151309 25.979487 
L 430.50976 25.589824 
L 439.906699 25.327334 
L 453.778372 25.184164 
L 486.09589 25.138426 
L 504.342857 25.136787 
L 504.342857 25.136787 
" clip-path="url(#pb108ccea50)" style="fill: none; stroke: #ea5f94; stroke-opacity: 0.7; stroke-width: 5; stroke-linecap: square"/>
   </g>
   <g id="line2d_8">
    <path d="M 7.2 381.408146 
L 19.480657 380.852523 
L 29.026754 380.205856 
L 36.68352 379.472366 
L 43.047585 378.646361 
L 48.466984 377.723385 
L 53.140594 376.706222 
L 57.217573 375.59733 
L 60.847079 374.386548 
L 64.12855 373.063178 
L 67.111705 371.626392 
L 69.895984 370.040981 
L 72.481385 368.314595 
L 74.967348 366.383363 
L 77.403592 364.202063 
L 79.740397 361.808686 
L 82.176641 358.981949 
L 85.358673 354.912376 
L 88.640144 350.785348 
L 90.92723 348.288176 
L 92.418808 346.967054 
L 93.810947 346.038426 
L 95.302525 345.306818 
L 96.94326 344.756742 
L 98.733153 344.393457 
L 100.721924 344.225715 
L 104.251991 344.20824 
L 141.640873 344.616039 
L 175.599126 345.167633 
L 194.840478 345.683546 
L 209.308782 346.288791 
L 221.340843 347.012523 
L 232.179641 347.88533 
L 242.471527 348.935685 
L 252.763413 350.210904 
L 263.552492 351.77563 
L 275.733711 353.775316 
L 292.936574 356.850509 
L 312.923715 360.376916 
L 323.215602 361.961673 
L 331.717595 363.04986 
L 339.37436 363.808169 
L 346.533933 364.295227 
L 353.44491 364.544207 
L 360.306168 364.569004 
L 367.217145 364.371812 
L 374.376718 363.94417 
L 382.033483 363.260771 
L 390.684634 362.258268 
L 402.120063 360.690671 
L 422.654117 357.853934 
L 432.100776 356.804568 
L 441.000523 356.039748 
L 450.248305 355.47117 
L 460.58991 355.064317 
L 473.218602 354.801004 
L 491.216973 354.669125 
L 504.342857 354.647296 
L 504.342857 354.647296 
" clip-path="url(#pb108ccea50)" style="fill: none; stroke: #9d02d7; stroke-opacity: 0.7; stroke-width: 5; stroke-linecap: square"/>
   </g>
   <g id="line2d_9">
    <path d="M 7.2 375.055272 
L 16.298624 374.168147 
L 24.104548 373.187829 
L 30.866367 372.119949 
L 36.832678 370.957979 
L 42.152638 369.700199 
L 46.925687 368.348634 
L 51.300982 366.880802 
L 55.278522 365.314731 
L 58.957747 363.629331 
L 62.388376 361.81357 
L 65.570408 359.880724 
L 68.603283 357.778852 
L 71.487 355.510545 
L 74.320998 352.997044 
L 77.50303 349.85856 
L 80.784501 346.310308 
L 85.756427 340.931415 
L 88.490986 338.264884 
L 90.678634 336.446962 
L 92.468527 335.234554 
L 94.109262 334.381533 
L 95.60084 333.846457 
L 97.142137 333.533398 
L 98.832592 333.427104 
L 100.821362 333.537565 
L 104.152552 333.992322 
L 113.748369 335.574761 
L 124.338571 337.547468 
L 134.232703 339.637104 
L 143.629643 341.869863 
L 153.076302 344.346609 
L 162.821276 347.146131 
L 172.665689 350.20797 
L 183.007295 353.65707 
L 194.840478 357.843519 
L 233.323184 371.669492 
L 241.526861 374.247664 
L 248.885311 376.327767 
L 255.69685 378.025714 
L 262.309511 379.445058 
L 268.773014 380.606792 
L 275.385676 381.568508 
L 282.246933 382.339187 
L 289.605383 382.937271 
L 297.809061 383.375437 
L 307.603755 383.667281 
L 320.978235 383.825984 
L 348.12495 383.871921 
L 504.342857 383.872537 
L 504.342857 383.872537 
" clip-path="url(#pb108ccea50)" style="fill: none; stroke: #ffd700; stroke-opacity: 0.7; stroke-width: 5; stroke-linecap: square"/>
   </g>
   <g id="line2d_10">
    <path d="M 7.2 372.168422 
L 13.166311 371.053601 
L 18.486271 369.837663 
L 23.25932 368.522157 
L 27.584896 367.101907 
L 31.512717 365.581736 
L 35.142223 363.940337 
L 38.473413 362.193539 
L 41.605726 360.301011 
L 44.539162 358.26866 
L 47.323441 356.065971 
L 49.958562 353.6944 
L 52.444524 351.159105 
L 54.831049 348.409382 
L 57.118135 345.439428 
L 59.355501 342.168822 
L 61.543149 338.569581 
L 63.681077 334.610957 
L 65.769285 330.260816 
L 67.807775 325.488381 
L 69.796545 320.25993 
L 71.785316 314.387678 
L 73.724367 307.962743 
L 75.713137 300.57956 
L 77.751627 292.127271 
L 79.790116 282.691854 
L 81.977763 271.471159 
L 85.706708 250.89132 
L 87.54632 241.45356 
L 88.839021 235.967131 
L 90.23116 230.999203 
L 91.523861 227.152064 
L 92.717123 224.275795 
L 93.910385 221.979721 
L 95.103648 220.154975 
L 96.29691 218.724892 
L 97.490172 217.623812 
L 98.583996 216.899099 
L 99.6281 216.473574 
L 100.672204 216.286342 
L 102.014624 216.28788 
L 104.450868 216.559428 
L 113.0523 217.825389 
L 123.443624 219.56517 
L 132.790845 221.356919 
L 141.690592 223.299935 
L 149.894269 225.310756 
L 157.749912 227.455707 
L 165.356959 229.759385 
L 172.516532 232.158467 
L 179.228631 234.637351 
L 185.741854 237.282825 
L 191.907042 240.029771 
L 197.823634 242.907709 
L 203.591068 245.959201 
L 209.209344 249.181363 
L 214.777901 252.631874 
L 220.346458 256.346878 
L 225.915014 260.329664 
L 231.632729 264.695036 
L 237.549321 269.496148 
L 243.813947 274.871947 
L 250.675205 281.061834 
L 258.580567 288.505294 
L 269.319926 298.951528 
L 288.064086 317.202148 
L 296.218045 324.799242 
L 303.178741 330.987621 
L 309.493086 336.308649 
L 315.359959 340.966789 
L 320.928516 345.109187 
L 326.298196 348.8307 
L 331.568437 352.215579 
L 336.788959 355.304919 
L 342.009481 358.13698 
L 347.329442 360.768398 
L 352.79856 363.223548 
L 358.466555 365.523326 
L 364.432866 367.703857 
L 370.796931 369.792149 
L 377.658189 371.807227 
L 385.066358 373.747573 
L 392.922001 375.573558 
L 401.175398 377.262427 
L 409.627671 378.763921 
L 418.129664 380.049089 
L 426.731096 381.124446 
L 435.531405 381.999144 
L 444.729467 382.687313 
L 454.673319 383.204282 
L 466.00931 383.564018 
L 480.179298 383.778735 
L 502.552964 383.865344 
L 504.342857 383.866941 
L 504.342857 383.866941 
" clip-path="url(#pb108ccea50)" style="fill: none; stroke: #cd34b5; stroke-opacity: 0.7; stroke-width: 5; stroke-linecap: square"/>
   </g>
   <g id="patch_3">
    <path d="M 7.2 385.2 
L 7.2 7.2 
" style="fill: none"/>
   </g>
   <g id="patch_4">
    <path d="M 7.2 385.2 
L 529.2 385.2 
" style="fill: none"/>
   </g>
  </g>
 </g>
 <defs>
  <clipPath id="pb108ccea50">
   <rect x="7.2" y="7.2" width="522" height="378"/>
  </clipPath>
 </defs>
</svg>
