<?xml version="1.0" encoding="utf-8" standalone="no"?>
<!DOCTYPE svg PUBLIC "-//W3C//DTD SVG 1.1//EN"
  "http://www.w3.org/Graphics/SVG/1.1/DTD/svg11.dtd">
<svg xmlns:xlink="http://www.w3.org/1999/xlink" width="560.272031pt" height="415.289367pt" viewBox="0 0 560.272031 415.289367" xmlns="http://www.w3.org/2000/svg" version="1.1">
 <metadata>
  <rdf:RDF xmlns:dc="http://purl.org/dc/elements/1.1/" xmlns:cc="http://creativecommons.org/ns#" xmlns:rdf="http://www.w3.org/1999/02/22-rdf-syntax-ns#">
   <cc:Work>
    <dc:type rdf:resource="http://purl.org/dc/dcmitype/StillImage"/>
    <dc:date>2025-07-07T15:39:27.160157</dc:date>
    <dc:format>image/svg+xml</dc:format>
    <dc:creator>
     <cc:Agent>
      <dc:title>Matplotlib v3.9.2, https://matplotlib.org/</dc:title>
     </cc:Agent>
    </dc:creator>
   </cc:Work>
  </rdf:RDF>
 </metadata>
 <defs>
  <style type="text/css">*{stroke-linejoin: round; stroke-linecap: butt}</style>
 </defs>
 <g id="figure_1">
  <g id="patch_1">
   <path d="M 0 415.289367 
L 560.272031 415.289367 
L 560.272031 0 
L 0 0 
z
" style="fill: #ffffff"/>
  </g>
  <g id="axes_1">
   <g id="patch_2">
    <path d="M 23.673125 387.989367 
L 543.168125 387.989367 
L 543.168125 9.065636 
L 23.673125 9.065636 
z
" style="fill: #ffffff"/>
   </g>
   <g id="patch_3">
    <path d="M -138.669062 387.989367 
L -131.363664 387.989367 
L -131.363664 387.989367 
L -138.669062 387.989367 
z
" clip-path="url(#p23cce483eb)" style="fill: #696969; opacity: 0.5"/>
   </g>
   <g id="patch_4">
    <path d="M -130.551953 387.989367 
L -123.246555 387.989367 
L -123.246555 387.989367 
L -130.551953 387.989367 
z
" clip-path="url(#p23cce483eb)" style="fill: #696969; opacity: 0.5"/>
   </g>
   <g id="patch_5">
    <path d="M -122.434844 387.989367 
L -115.129445 387.989367 
L -115.129445 387.989367 
L -122.434844 387.989367 
z
" clip-path="url(#p23cce483eb)" style="fill: #696969; opacity: 0.5"/>
   </g>
   <g id="patch_6">
    <path d="M -114.317734 387.989367 
L -107.012336 387.989367 
L -107.012336 387.989367 
L -114.317734 387.989367 
z
" clip-path="url(#p23cce483eb)" style="fill: #696969; opacity: 0.5"/>
   </g>
   <g id="patch_7">
    <path d="M -106.200625 387.989367 
L -98.895227 387.989367 
L -98.895227 387.989367 
L -106.200625 387.989367 
z
" clip-path="url(#p23cce483eb)" style="fill: #696969; opacity: 0.5"/>
   </g>
   <g id="patch_8">
    <path d="M -98.083516 387.989367 
L -90.778117 387.989367 
L -90.778117 387.989367 
L -98.083516 387.989367 
z
" clip-path="url(#p23cce483eb)" style="fill: #696969; opacity: 0.5"/>
   </g>
   <g id="patch_9">
    <path d="M -89.966406 387.989367 
L -82.661008 387.989367 
L -82.661008 387.989367 
L -89.966406 387.989367 
z
" clip-path="url(#p23cce483eb)" style="fill: #696969; opacity: 0.5"/>
   </g>
   <g id="patch_10">
    <path d="M -81.849297 387.989367 
L -74.543898 387.989367 
L -74.543898 387.989367 
L -81.849297 387.989367 
z
" clip-path="url(#p23cce483eb)" style="fill: #696969; opacity: 0.5"/>
   </g>
   <g id="patch_11">
    <path d="M -73.732188 387.989367 
L -66.426789 387.989367 
L -66.426789 387.989367 
L -73.732188 387.989367 
z
" clip-path="url(#p23cce483eb)" style="fill: #696969; opacity: 0.5"/>
   </g>
   <g id="patch_12">
    <path d="M -65.615078 387.989367 
L -58.30968 387.989367 
L -58.30968 387.989367 
L -65.615078 387.989367 
z
" clip-path="url(#p23cce483eb)" style="fill: #696969; opacity: 0.5"/>
   </g>
   <g id="patch_13">
    <path d="M -57.497969 387.989367 
L -50.19257 387.989367 
L -50.19257 387.989367 
L -57.497969 387.989367 
z
" clip-path="url(#p23cce483eb)" style="fill: #696969; opacity: 0.5"/>
   </g>
   <g id="patch_14">
    <path d="M -49.380859 387.989367 
L -42.075461 387.989367 
L -42.075461 387.989367 
L -49.380859 387.989367 
z
" clip-path="url(#p23cce483eb)" style="fill: #696969; opacity: 0.5"/>
   </g>
   <g id="patch_15">
    <path d="M -41.26375 387.989367 
L -33.958352 387.989367 
L -33.958352 387.989367 
L -41.26375 387.989367 
z
" clip-path="url(#p23cce483eb)" style="fill: #696969; opacity: 0.5"/>
   </g>
   <g id="patch_16">
    <path d="M -33.146641 387.989367 
L -25.841242 387.989367 
L -25.841242 387.989367 
L -33.146641 387.989367 
z
" clip-path="url(#p23cce483eb)" style="fill: #696969; opacity: 0.5"/>
   </g>
   <g id="patch_17">
    <path d="M -25.029531 387.989367 
L -17.724133 387.989367 
L -17.724133 387.989367 
L -25.029531 387.989367 
z
" clip-path="url(#p23cce483eb)" style="fill: #696969; opacity: 0.5"/>
   </g>
   <g id="patch_18">
    <path d="M -16.912422 387.989367 
L -9.607023 387.989367 
L -9.607023 387.989367 
L -16.912422 387.989367 
z
" clip-path="url(#p23cce483eb)" style="fill: #696969; opacity: 0.5"/>
   </g>
   <g id="patch_19">
    <path d="M -8.795313 387.989367 
L -1.489914 387.989367 
L -1.489914 387.989367 
L -8.795313 387.989367 
z
" clip-path="url(#p23cce483eb)" style="fill: #696969; opacity: 0.5"/>
   </g>
   <g id="patch_20">
    <path d="M -0.678203 387.989367 
L 6.627195 387.989367 
L 6.627195 387.989367 
L -0.678203 387.989367 
z
" clip-path="url(#p23cce483eb)" style="fill: #696969; opacity: 0.5"/>
   </g>
   <g id="patch_21">
    <path d="M 7.438906 387.989367 
L 14.744305 387.989367 
L 14.744305 387.989367 
L 7.438906 387.989367 
z
" clip-path="url(#p23cce483eb)" style="fill: #696969; opacity: 0.5"/>
   </g>
   <g id="patch_22">
    <path d="M 15.556016 387.989367 
L 22.861414 387.989367 
L 22.861414 387.989367 
L 15.556016 387.989367 
z
" clip-path="url(#p23cce483eb)" style="fill: #696969; opacity: 0.5"/>
   </g>
   <g id="patch_23">
    <path d="M 23.673125 387.989367 
L 30.978523 387.989367 
L 30.978523 387.222246 
L 23.673125 387.222246 
z
" clip-path="url(#p23cce483eb)" style="fill: #696969; opacity: 0.5"/>
   </g>
   <g id="patch_24">
    <path d="M 31.790234 387.989367 
L 39.095633 387.989367 
L 39.095633 387.989367 
L 31.790234 387.989367 
z
" clip-path="url(#p23cce483eb)" style="fill: #696969; opacity: 0.5"/>
   </g>
   <g id="patch_25">
    <path d="M 39.907344 387.989367 
L 47.212742 387.989367 
L 47.212742 387.989367 
L 39.907344 387.989367 
z
" clip-path="url(#p23cce483eb)" style="fill: #696969; opacity: 0.5"/>
   </g>
   <g id="patch_26">
    <path d="M 48.024453 387.989367 
L 55.329852 387.989367 
L 55.329852 387.989367 
L 48.024453 387.989367 
z
" clip-path="url(#p23cce483eb)" style="fill: #696969; opacity: 0.5"/>
   </g>
   <g id="patch_27">
    <path d="M 56.141563 387.989367 
L 63.446961 387.989367 
L 63.446961 387.989367 
L 56.141563 387.989367 
z
" clip-path="url(#p23cce483eb)" style="fill: #696969; opacity: 0.5"/>
   </g>
   <g id="patch_28">
    <path d="M 64.258672 387.989367 
L 71.56407 387.989367 
L 71.56407 387.989367 
L 64.258672 387.989367 
z
" clip-path="url(#p23cce483eb)" style="fill: #696969; opacity: 0.5"/>
   </g>
   <g id="patch_29">
    <path d="M 72.375781 387.989367 
L 79.68118 387.989367 
L 79.68118 386.455125 
L 72.375781 386.455125 
z
" clip-path="url(#p23cce483eb)" style="fill: #696969; opacity: 0.5"/>
   </g>
   <g id="patch_30">
    <path d="M 80.492891 387.989367 
L 87.798289 387.989367 
L 87.798289 385.688003 
L 80.492891 385.688003 
z
" clip-path="url(#p23cce483eb)" style="fill: #696969; opacity: 0.5"/>
   </g>
   <g id="patch_31">
    <path d="M 88.61 387.989367 
L 95.915398 387.989367 
L 95.915398 387.989367 
L 88.61 387.989367 
z
" clip-path="url(#p23cce483eb)" style="fill: #696969; opacity: 0.5"/>
   </g>
   <g id="patch_32">
    <path d="M 96.727109 387.989367 
L 104.032508 387.989367 
L 104.032508 387.222246 
L 96.727109 387.222246 
z
" clip-path="url(#p23cce483eb)" style="fill: #696969; opacity: 0.5"/>
   </g>
   <g id="patch_33">
    <path d="M 104.844219 387.989367 
L 112.149617 387.989367 
L 112.149617 387.989367 
L 104.844219 387.989367 
z
" clip-path="url(#p23cce483eb)" style="fill: #696969; opacity: 0.5"/>
   </g>
   <g id="patch_34">
    <path d="M 112.961328 387.989367 
L 120.266727 387.989367 
L 120.266727 387.222246 
L 112.961328 387.222246 
z
" clip-path="url(#p23cce483eb)" style="fill: #696969; opacity: 0.5"/>
   </g>
   <g id="patch_35">
    <path d="M 121.078438 387.989367 
L 128.383836 387.989367 
L 128.383836 387.222246 
L 121.078438 387.222246 
z
" clip-path="url(#p23cce483eb)" style="fill: #696969; opacity: 0.5"/>
   </g>
   <g id="patch_36">
    <path d="M 129.195547 387.989367 
L 136.500945 387.989367 
L 136.500945 387.222246 
L 129.195547 387.222246 
z
" clip-path="url(#p23cce483eb)" style="fill: #696969; opacity: 0.5"/>
   </g>
   <g id="patch_37">
    <path d="M 137.312656 387.989367 
L 144.618055 387.989367 
L 144.618055 387.222246 
L 137.312656 387.222246 
z
" clip-path="url(#p23cce483eb)" style="fill: #696969; opacity: 0.5"/>
   </g>
   <g id="patch_38">
    <path d="M 145.429766 387.989367 
L 152.735164 387.989367 
L 152.735164 387.222246 
L 145.429766 387.222246 
z
" clip-path="url(#p23cce483eb)" style="fill: #696969; opacity: 0.5"/>
   </g>
   <g id="patch_39">
    <path d="M 153.546875 387.989367 
L 160.852273 387.989367 
L 160.852273 386.455125 
L 153.546875 386.455125 
z
" clip-path="url(#p23cce483eb)" style="fill: #696969; opacity: 0.5"/>
   </g>
   <g id="patch_40">
    <path d="M 161.663984 387.989367 
L 168.969383 387.989367 
L 168.969383 385.688003 
L 161.663984 385.688003 
z
" clip-path="url(#p23cce483eb)" style="fill: #696969; opacity: 0.5"/>
   </g>
   <g id="patch_41">
    <path d="M 169.781094 387.989367 
L 177.086492 387.989367 
L 177.086492 384.920882 
L 169.781094 384.920882 
z
" clip-path="url(#p23cce483eb)" style="fill: #696969; opacity: 0.5"/>
   </g>
   <g id="patch_42">
    <path d="M 177.898203 387.989367 
L 185.203602 387.989367 
L 185.203602 385.688003 
L 177.898203 385.688003 
z
" clip-path="url(#p23cce483eb)" style="fill: #696969; opacity: 0.5"/>
   </g>
   <g id="patch_43">
    <path d="M 186.015313 387.989367 
L 193.320711 387.989367 
L 193.320711 384.920882 
L 186.015313 384.920882 
z
" clip-path="url(#p23cce483eb)" style="fill: #696969; opacity: 0.5"/>
   </g>
   <g id="patch_44">
    <path d="M 194.132422 387.989367 
L 201.43782 387.989367 
L 201.43782 381.085276 
L 194.132422 381.085276 
z
" clip-path="url(#p23cce483eb)" style="fill: #696969; opacity: 0.5"/>
   </g>
   <g id="patch_45">
    <path d="M 202.249531 387.989367 
L 209.55493 387.989367 
L 209.55493 383.38664 
L 202.249531 383.38664 
z
" clip-path="url(#p23cce483eb)" style="fill: #696969; opacity: 0.5"/>
   </g>
   <g id="patch_46">
    <path d="M 210.366641 387.989367 
L 217.672039 387.989367 
L 217.672039 381.852398 
L 210.366641 381.852398 
z
" clip-path="url(#p23cce483eb)" style="fill: #696969; opacity: 0.5"/>
   </g>
   <g id="patch_47">
    <path d="M 218.48375 387.989367 
L 225.789148 387.989367 
L 225.789148 378.016792 
L 218.48375 378.016792 
z
" clip-path="url(#p23cce483eb)" style="fill: #696969; opacity: 0.5"/>
   </g>
   <g id="patch_48">
    <path d="M 226.600859 387.989367 
L 233.906258 387.989367 
L 233.906258 378.016792 
L 226.600859 378.016792 
z
" clip-path="url(#p23cce483eb)" style="fill: #696969; opacity: 0.5"/>
   </g>
   <g id="patch_49">
    <path d="M 234.717969 387.989367 
L 242.023367 387.989367 
L 242.023367 376.48255 
L 234.717969 376.48255 
z
" clip-path="url(#p23cce483eb)" style="fill: #696969; opacity: 0.5"/>
   </g>
   <g id="patch_50">
    <path d="M 242.835078 387.989367 
L 250.140477 387.989367 
L 250.140477 368.811338 
L 242.835078 368.811338 
z
" clip-path="url(#p23cce483eb)" style="fill: #696969; opacity: 0.5"/>
   </g>
   <g id="patch_51">
    <path d="M 250.952188 387.989367 
L 258.257586 387.989367 
L 258.257586 368.044217 
L 250.952188 368.044217 
z
" clip-path="url(#p23cce483eb)" style="fill: #696969; opacity: 0.5"/>
   </g>
   <g id="patch_52">
    <path d="M 259.069297 387.989367 
L 266.374695 387.989367 
L 266.374695 348.866188 
L 259.069297 348.866188 
z
" clip-path="url(#p23cce483eb)" style="fill: #696969; opacity: 0.5"/>
   </g>
   <g id="patch_53">
    <path d="M 267.186406 387.989367 
L 274.491805 387.989367 
L 274.491805 342.729219 
L 267.186406 342.729219 
z
" clip-path="url(#p23cce483eb)" style="fill: #696969; opacity: 0.5"/>
   </g>
   <g id="patch_54">
    <path d="M 275.303516 387.989367 
L 282.608914 387.989367 
L 282.608914 324.318311 
L 275.303516 324.318311 
z
" clip-path="url(#p23cce483eb)" style="fill: #696969; opacity: 0.5"/>
   </g>
   <g id="patch_55">
    <path d="M 283.420625 387.989367 
L 290.726023 387.989367 
L 290.726023 295.167707 
L 283.420625 295.167707 
z
" clip-path="url(#p23cce483eb)" style="fill: #696969; opacity: 0.5"/>
   </g>
   <g id="patch_56">
    <path d="M 291.537734 387.989367 
L 298.843133 387.989367 
L 298.843133 254.510286 
L 291.537734 254.510286 
z
" clip-path="url(#p23cce483eb)" style="fill: #696969; opacity: 0.5"/>
   </g>
   <g id="patch_57">
    <path d="M 299.654844 387.989367 
L 306.960242 387.989367 
L 306.960242 209.250137 
L 299.654844 209.250137 
z
" clip-path="url(#p23cce483eb)" style="fill: #696969; opacity: 0.5"/>
   </g>
   <g id="patch_58">
    <path d="M 307.771953 387.989367 
L 315.077352 387.989367 
L 315.077352 157.085899 
L 307.771953 157.085899 
z
" clip-path="url(#p23cce483eb)" style="fill: #696969; opacity: 0.5"/>
   </g>
   <g id="patch_59">
    <path d="M 315.889063 387.989367 
L 323.194461 387.989367 
L 323.194461 106.455902 
L 315.889063 106.455902 
z
" clip-path="url(#p23cce483eb)" style="fill: #696969; opacity: 0.5"/>
   </g>
   <g id="patch_60">
    <path d="M 324.006172 387.989367 
L 331.31157 387.989367 
L 331.31157 55.058785 
L 324.006172 55.058785 
z
" clip-path="url(#p23cce483eb)" style="fill: #696969; opacity: 0.5"/>
   </g>
   <g id="patch_61">
    <path d="M 332.123281 387.989367 
L 339.42868 387.989367 
L 339.42868 110.291508 
L 332.123281 110.291508 
z
" clip-path="url(#p23cce483eb)" style="fill: #696969; opacity: 0.5"/>
   </g>
   <g id="patch_62">
    <path d="M 340.240391 387.989367 
L 347.545789 387.989367 
L 347.545789 294.400586 
L 340.240391 294.400586 
z
" clip-path="url(#p23cce483eb)" style="fill: #696969; opacity: 0.5"/>
   </g>
   <g id="patch_63">
    <path d="M 348.3575 387.989367 
L 355.662898 387.989367 
L 355.662898 387.989367 
L 348.3575 387.989367 
z
" clip-path="url(#p23cce483eb)" style="fill: #696969; opacity: 0.5"/>
   </g>
   <g id="patch_64">
    <path d="M 356.474609 387.989367 
L 363.780008 387.989367 
L 363.780008 387.989367 
L 356.474609 387.989367 
z
" clip-path="url(#p23cce483eb)" style="fill: #696969; opacity: 0.5"/>
   </g>
   <g id="patch_65">
    <path d="M 364.591719 387.989367 
L 371.897117 387.989367 
L 371.897117 387.989367 
L 364.591719 387.989367 
z
" clip-path="url(#p23cce483eb)" style="fill: #696969; opacity: 0.5"/>
   </g>
   <g id="patch_66">
    <path d="M 372.708828 387.989367 
L 380.014227 387.989367 
L 380.014227 387.989367 
L 372.708828 387.989367 
z
" clip-path="url(#p23cce483eb)" style="fill: #696969; opacity: 0.5"/>
   </g>
   <g id="patch_67">
    <path d="M 380.825938 387.989367 
L 388.131336 387.989367 
L 388.131336 387.989367 
L 380.825938 387.989367 
z
" clip-path="url(#p23cce483eb)" style="fill: #696969; opacity: 0.5"/>
   </g>
   <g id="patch_68">
    <path d="M 388.943047 387.989367 
L 396.248445 387.989367 
L 396.248445 387.989367 
L 388.943047 387.989367 
z
" clip-path="url(#p23cce483eb)" style="fill: #696969; opacity: 0.5"/>
   </g>
   <g id="patch_69">
    <path d="M 397.060156 387.989367 
L 404.365555 387.989367 
L 404.365555 387.989367 
L 397.060156 387.989367 
z
" clip-path="url(#p23cce483eb)" style="fill: #696969; opacity: 0.5"/>
   </g>
   <g id="patch_70">
    <path d="M 405.177266 387.989367 
L 412.482664 387.989367 
L 412.482664 387.989367 
L 405.177266 387.989367 
z
" clip-path="url(#p23cce483eb)" style="fill: #696969; opacity: 0.5"/>
   </g>
   <g id="patch_71">
    <path d="M 413.294375 387.989367 
L 420.599773 387.989367 
L 420.599773 387.989367 
L 413.294375 387.989367 
z
" clip-path="url(#p23cce483eb)" style="fill: #696969; opacity: 0.5"/>
   </g>
   <g id="patch_72">
    <path d="M 421.411484 387.989367 
L 428.716883 387.989367 
L 428.716883 387.989367 
L 421.411484 387.989367 
z
" clip-path="url(#p23cce483eb)" style="fill: #696969; opacity: 0.5"/>
   </g>
   <g id="patch_73">
    <path d="M 429.528594 387.989367 
L 436.833992 387.989367 
L 436.833992 387.989367 
L 429.528594 387.989367 
z
" clip-path="url(#p23cce483eb)" style="fill: #696969; opacity: 0.5"/>
   </g>
   <g id="patch_74">
    <path d="M 437.645703 387.989367 
L 444.951102 387.989367 
L 444.951102 387.989367 
L 437.645703 387.989367 
z
" clip-path="url(#p23cce483eb)" style="fill: #696969; opacity: 0.5"/>
   </g>
   <g id="patch_75">
    <path d="M 445.762812 387.989367 
L 453.068211 387.989367 
L 453.068211 387.989367 
L 445.762812 387.989367 
z
" clip-path="url(#p23cce483eb)" style="fill: #696969; opacity: 0.5"/>
   </g>
   <g id="patch_76">
    <path d="M 453.879922 387.989367 
L 461.18532 387.989367 
L 461.18532 387.989367 
L 453.879922 387.989367 
z
" clip-path="url(#p23cce483eb)" style="fill: #696969; opacity: 0.5"/>
   </g>
   <g id="patch_77">
    <path d="M 461.997031 387.989367 
L 469.30243 387.989367 
L 469.30243 387.989367 
L 461.997031 387.989367 
z
" clip-path="url(#p23cce483eb)" style="fill: #696969; opacity: 0.5"/>
   </g>
   <g id="patch_78">
    <path d="M 470.114141 387.989367 
L 477.419539 387.989367 
L 477.419539 387.989367 
L 470.114141 387.989367 
z
" clip-path="url(#p23cce483eb)" style="fill: #696969; opacity: 0.5"/>
   </g>
   <g id="patch_79">
    <path d="M 478.23125 387.989367 
L 485.536648 387.989367 
L 485.536648 387.989367 
L 478.23125 387.989367 
z
" clip-path="url(#p23cce483eb)" style="fill: #696969; opacity: 0.5"/>
   </g>
   <g id="patch_80">
    <path d="M 486.348359 387.989367 
L 493.653758 387.989367 
L 493.653758 387.989367 
L 486.348359 387.989367 
z
" clip-path="url(#p23cce483eb)" style="fill: #696969; opacity: 0.5"/>
   </g>
   <g id="patch_81">
    <path d="M 494.465469 387.989367 
L 501.770867 387.989367 
L 501.770867 387.989367 
L 494.465469 387.989367 
z
" clip-path="url(#p23cce483eb)" style="fill: #696969; opacity: 0.5"/>
   </g>
   <g id="patch_82">
    <path d="M 502.582578 387.989367 
L 509.887977 387.989367 
L 509.887977 387.989367 
L 502.582578 387.989367 
z
" clip-path="url(#p23cce483eb)" style="fill: #696969; opacity: 0.5"/>
   </g>
   <g id="patch_83">
    <path d="M 510.699687 387.989367 
L 518.005086 387.989367 
L 518.005086 387.989367 
L 510.699687 387.989367 
z
" clip-path="url(#p23cce483eb)" style="fill: #696969; opacity: 0.5"/>
   </g>
   <g id="patch_84">
    <path d="M 518.816797 387.989367 
L 526.122195 387.989367 
L 526.122195 387.989367 
L 518.816797 387.989367 
z
" clip-path="url(#p23cce483eb)" style="fill: #696969; opacity: 0.5"/>
   </g>
   <g id="patch_85">
    <path d="M 526.933906 387.989367 
L 534.239305 387.989367 
L 534.239305 387.989367 
L 526.933906 387.989367 
z
" clip-path="url(#p23cce483eb)" style="fill: #696969; opacity: 0.5"/>
   </g>
   <g id="patch_86">
    <path d="M 535.051016 387.989367 
L 542.356414 387.989367 
L 542.356414 387.989367 
L 535.051016 387.989367 
z
" clip-path="url(#p23cce483eb)" style="fill: #696969; opacity: 0.5"/>
   </g>
   <g id="patch_87">
    <path d="M 543.168125 387.989367 
L 550.473523 387.989367 
L 550.473523 387.989367 
L 543.168125 387.989367 
z
" clip-path="url(#p23cce483eb)" style="fill: #696969; opacity: 0.5"/>
   </g>
   <g id="patch_88">
    <path d="M 551.285234 387.989367 
L 558.590633 387.989367 
L 558.590633 387.989367 
L 551.285234 387.989367 
z
" clip-path="url(#p23cce483eb)" style="fill: #696969; opacity: 0.5"/>
   </g>
   <g id="patch_89">
    <path d="M 559.402344 387.989367 
L 566.707742 387.989367 
L 566.707742 387.989367 
L 559.402344 387.989367 
z
" clip-path="url(#p23cce483eb)" style="fill: #696969; opacity: 0.5"/>
   </g>
   <g id="patch_90">
    <path d="M 567.519453 387.989367 
L 574.824852 387.989367 
L 574.824852 387.989367 
L 567.519453 387.989367 
z
" clip-path="url(#p23cce483eb)" style="fill: #696969; opacity: 0.5"/>
   </g>
   <g id="patch_91">
    <path d="M 575.636563 387.989367 
L 582.941961 387.989367 
L 582.941961 387.989367 
L 575.636563 387.989367 
z
" clip-path="url(#p23cce483eb)" style="fill: #696969; opacity: 0.5"/>
   </g>
   <g id="patch_92">
    <path d="M 583.753672 387.989367 
L 591.05907 387.989367 
L 591.05907 387.989367 
L 583.753672 387.989367 
z
" clip-path="url(#p23cce483eb)" style="fill: #696969; opacity: 0.5"/>
   </g>
   <g id="patch_93">
    <path d="M 591.870781 387.989367 
L 599.17618 387.989367 
L 599.17618 387.989367 
L 591.870781 387.989367 
z
" clip-path="url(#p23cce483eb)" style="fill: #696969; opacity: 0.5"/>
   </g>
   <g id="patch_94">
    <path d="M 599.987891 387.989367 
L 607.293289 387.989367 
L 607.293289 387.989367 
L 599.987891 387.989367 
z
" clip-path="url(#p23cce483eb)" style="fill: #696969; opacity: 0.5"/>
   </g>
   <g id="patch_95">
    <path d="M 608.105 387.989367 
L 615.410398 387.989367 
L 615.410398 387.989367 
L 608.105 387.989367 
z
" clip-path="url(#p23cce483eb)" style="fill: #696969; opacity: 0.5"/>
   </g>
   <g id="patch_96">
    <path d="M 616.222109 387.989367 
L 623.527508 387.989367 
L 623.527508 387.989367 
L 616.222109 387.989367 
z
" clip-path="url(#p23cce483eb)" style="fill: #696969; opacity: 0.5"/>
   </g>
   <g id="patch_97">
    <path d="M 624.339219 387.989367 
L 631.644617 387.989367 
L 631.644617 387.989367 
L 624.339219 387.989367 
z
" clip-path="url(#p23cce483eb)" style="fill: #696969; opacity: 0.5"/>
   </g>
   <g id="patch_98">
    <path d="M 632.456328 387.989367 
L 639.761727 387.989367 
L 639.761727 387.989367 
L 632.456328 387.989367 
z
" clip-path="url(#p23cce483eb)" style="fill: #696969; opacity: 0.5"/>
   </g>
   <g id="patch_99">
    <path d="M 640.573438 387.989367 
L 647.878836 387.989367 
L 647.878836 387.989367 
L 640.573438 387.989367 
z
" clip-path="url(#p23cce483eb)" style="fill: #696969; opacity: 0.5"/>
   </g>
   <g id="patch_100">
    <path d="M 648.690547 387.989367 
L 655.995945 387.989367 
L 655.995945 387.989367 
L 648.690547 387.989367 
z
" clip-path="url(#p23cce483eb)" style="fill: #696969; opacity: 0.5"/>
   </g>
   <g id="patch_101">
    <path d="M 656.807656 387.989367 
L 664.113055 387.989367 
L 664.113055 387.989367 
L 656.807656 387.989367 
z
" clip-path="url(#p23cce483eb)" style="fill: #696969; opacity: 0.5"/>
   </g>
   <g id="patch_102">
    <path d="M 664.924766 387.989367 
L 672.230164 387.989367 
L 672.230164 387.989367 
L 664.924766 387.989367 
z
" clip-path="url(#p23cce483eb)" style="fill: #696969; opacity: 0.5"/>
   </g>
   <g id="matplotlib.axis_1">
    <g id="xtick_1">
     <g id="line2d_1">
      <defs>
       <path id="mbb053f56cb" d="M 0 0 
L 0 4 
" style="stroke: #000000; stroke-width: 0.8"/>
      </defs>
      <g>
       <use xlink:href="#mbb053f56cb" x="23.673125" y="387.989367" style="stroke: #000000; stroke-width: 0.8"/>
      </g>
     </g>
     <g id="text_1">
      <!-- −1.0 -->
      <g transform="translate(10.479219 405.289367) scale(0.14 -0.14)">
       <defs>
        <path id="Figtree-Regular-2212" d="M 774 1677 
L 774 2131 
L 3219 2131 
L 3219 1677 
L 774 1677 
z
" transform="scale(0.015625)"/>
        <path id="Figtree-Regular-31" d="M 1389 0 
L 1389 4192 
L 1434 4480 
L 1920 4480 
L 1920 0 
L 1389 0 
z
M 384 3328 
L 384 3821 
Q 518 3814 704 3910 
Q 890 4006 1088 4160 
Q 1286 4314 1434 4480 
L 1766 4115 
Q 1555 3891 1324 3712 
Q 1094 3533 857 3427 
Q 621 3322 384 3328 
z
" transform="scale(0.015625)"/>
        <path id="Figtree-Regular-2e" d="M 666 -90 
Q 518 -90 412 16 
Q 307 122 307 262 
Q 307 410 412 515 
Q 518 621 666 621 
Q 813 621 915 515 
Q 1018 410 1018 262 
Q 1018 122 915 16 
Q 813 -90 666 -90 
z
" transform="scale(0.015625)"/>
        <path id="Figtree-Regular-30" d="M 2048 -77 
Q 1536 -77 1139 220 
Q 742 518 518 1040 
Q 294 1562 294 2240 
Q 294 2918 518 3440 
Q 742 3962 1136 4259 
Q 1530 4557 2048 4557 
Q 2566 4557 2960 4259 
Q 3354 3962 3581 3440 
Q 3808 2918 3808 2240 
Q 3808 1562 3584 1040 
Q 3360 518 2963 220 
Q 2566 -77 2048 -77 
z
M 2048 410 
Q 2406 410 2684 646 
Q 2963 883 3120 1292 
Q 3277 1702 3277 2240 
Q 3277 2778 3120 3190 
Q 2963 3603 2684 3836 
Q 2406 4070 2048 4070 
Q 1690 4070 1414 3836 
Q 1139 3603 982 3190 
Q 826 2778 826 2240 
Q 826 1702 982 1292 
Q 1139 883 1417 646 
Q 1696 410 2048 410 
z
" transform="scale(0.015625)"/>
       </defs>
       <use xlink:href="#Figtree-Regular-2212"/>
       <use xlink:href="#Figtree-Regular-31" x="62.299988"/>
       <use xlink:href="#Figtree-Regular-2e" x="103.599976"/>
       <use xlink:href="#Figtree-Regular-30" x="124.399963"/>
      </g>
     </g>
    </g>
    <g id="xtick_2">
     <g id="line2d_2">
      <g>
       <use xlink:href="#mbb053f56cb" x="88.61" y="387.989367" style="stroke: #000000; stroke-width: 0.8"/>
      </g>
     </g>
     <g id="text_2">
      <!-- −0.8 -->
      <g transform="translate(74.008438 405.289367) scale(0.14 -0.14)">
       <defs>
        <path id="Figtree-Regular-38" d="M 1958 -77 
Q 1478 -77 1113 80 
Q 749 237 550 515 
Q 352 794 352 1165 
Q 352 1555 550 1849 
Q 749 2144 1113 2307 
Q 1478 2470 1958 2470 
Q 2451 2470 2812 2307 
Q 3174 2144 3376 1849 
Q 3578 1555 3578 1165 
Q 3578 794 3376 515 
Q 3174 237 2812 80 
Q 2451 -77 1958 -77 
z
M 1958 397 
Q 2432 397 2733 624 
Q 3034 851 3034 1216 
Q 3034 1587 2733 1820 
Q 2432 2054 1958 2054 
Q 1651 2054 1411 1948 
Q 1171 1843 1033 1654 
Q 896 1466 896 1216 
Q 896 973 1033 787 
Q 1171 602 1411 499 
Q 1651 397 1958 397 
z
M 1958 2157 
Q 1530 2157 1203 2307 
Q 877 2458 697 2723 
Q 518 2989 518 3341 
Q 518 3699 697 3974 
Q 877 4250 1203 4403 
Q 1530 4557 1958 4557 
Q 2400 4557 2723 4403 
Q 3046 4250 3228 3974 
Q 3411 3699 3411 3341 
Q 3411 2989 3228 2723 
Q 3046 2458 2723 2307 
Q 2400 2157 1958 2157 
z
M 1958 2560 
Q 2362 2560 2621 2761 
Q 2880 2963 2880 3290 
Q 2880 3648 2621 3869 
Q 2362 4090 1958 4090 
Q 1562 4090 1306 3869 
Q 1050 3648 1050 3290 
Q 1050 2963 1306 2761 
Q 1562 2560 1958 2560 
z
" transform="scale(0.015625)"/>
       </defs>
       <use xlink:href="#Figtree-Regular-2212"/>
       <use xlink:href="#Figtree-Regular-30" x="62.299988"/>
       <use xlink:href="#Figtree-Regular-2e" x="126.399979"/>
       <use xlink:href="#Figtree-Regular-38" x="147.199966"/>
      </g>
     </g>
    </g>
    <g id="xtick_3">
     <g id="line2d_3">
      <g>
       <use xlink:href="#mbb053f56cb" x="153.546875" y="387.989367" style="stroke: #000000; stroke-width: 0.8"/>
      </g>
     </g>
     <g id="text_3">
      <!-- −0.6 -->
      <g transform="translate(139.282188 405.289367) scale(0.14 -0.14)">
       <defs>
        <path id="Figtree-Regular-36" d="M 1907 -77 
Q 1446 -77 1132 99 
Q 819 275 633 576 
Q 448 877 368 1270 
Q 288 1664 288 2106 
Q 288 2682 406 3136 
Q 525 3590 749 3907 
Q 973 4224 1293 4390 
Q 1613 4557 2016 4557 
Q 2349 4557 2678 4451 
Q 3008 4346 3264 4160 
L 2963 3776 
Q 2758 3917 2521 3997 
Q 2285 4077 2067 4077 
Q 1414 4077 1075 3526 
Q 736 2976 774 1856 
L 659 1971 
Q 813 2362 1152 2589 
Q 1491 2816 1952 2816 
Q 2381 2816 2717 2630 
Q 3053 2445 3241 2115 
Q 3430 1786 3430 1363 
Q 3430 947 3238 617 
Q 3046 288 2704 105 
Q 2362 -77 1907 -77 
z
M 1907 397 
Q 2195 397 2416 521 
Q 2637 646 2761 867 
Q 2886 1088 2886 1376 
Q 2886 1664 2761 1885 
Q 2637 2106 2416 2227 
Q 2195 2349 1907 2349 
Q 1626 2349 1402 2227 
Q 1178 2106 1050 1885 
Q 922 1664 922 1376 
Q 922 1088 1050 867 
Q 1178 646 1402 521 
Q 1626 397 1907 397 
z
" transform="scale(0.015625)"/>
       </defs>
       <use xlink:href="#Figtree-Regular-2212"/>
       <use xlink:href="#Figtree-Regular-30" x="62.299988"/>
       <use xlink:href="#Figtree-Regular-2e" x="126.399979"/>
       <use xlink:href="#Figtree-Regular-36" x="147.199966"/>
      </g>
     </g>
    </g>
    <g id="xtick_4">
     <g id="line2d_4">
      <g>
       <use xlink:href="#mbb053f56cb" x="218.48375" y="387.989367" style="stroke: #000000; stroke-width: 0.8"/>
      </g>
     </g>
     <g id="text_4">
      <!-- −0.4 -->
      <g transform="translate(203.834063 405.289367) scale(0.14 -0.14)">
       <defs>
        <path id="Figtree-Regular-34" d="M 2342 0 
L 2342 1088 
L 275 1088 
L 275 1504 
L 2317 4480 
L 2867 4480 
L 2867 1568 
L 3782 1568 
L 3782 1088 
L 2867 1088 
L 2867 0 
L 2342 0 
z
M 896 1568 
L 2342 1568 
L 2342 3693 
L 896 1568 
z
" transform="scale(0.015625)"/>
       </defs>
       <use xlink:href="#Figtree-Regular-2212"/>
       <use xlink:href="#Figtree-Regular-30" x="62.299988"/>
       <use xlink:href="#Figtree-Regular-2e" x="126.399979"/>
       <use xlink:href="#Figtree-Regular-34" x="147.199966"/>
      </g>
     </g>
    </g>
    <g id="xtick_5">
     <g id="line2d_5">
      <g>
       <use xlink:href="#mbb053f56cb" x="283.420625" y="387.989367" style="stroke: #000000; stroke-width: 0.8"/>
      </g>
     </g>
     <g id="text_5">
      <!-- −0.2 -->
      <g transform="translate(269.204063 405.289367) scale(0.14 -0.14)">
       <defs>
        <path id="Figtree-Regular-32" d="M 365 0 
L 365 448 
Q 365 659 451 867 
Q 538 1075 701 1280 
Q 864 1485 1101 1664 
L 2029 2362 
Q 2195 2477 2320 2627 
Q 2445 2778 2515 2941 
Q 2586 3104 2586 3258 
Q 2586 3482 2477 3664 
Q 2368 3846 2169 3955 
Q 1971 4064 1702 4064 
Q 1440 4064 1241 3965 
Q 1043 3866 915 3702 
Q 787 3539 730 3354 
L 179 3462 
Q 256 3750 457 4000 
Q 659 4250 972 4403 
Q 1286 4557 1670 4557 
Q 2118 4557 2444 4387 
Q 2771 4218 2953 3926 
Q 3136 3635 3136 3264 
Q 3136 2912 2944 2598 
Q 2752 2285 2387 1990 
L 1510 1325 
Q 1254 1133 1116 921 
Q 979 710 960 480 
L 3200 480 
L 3200 0 
L 365 0 
z
" transform="scale(0.015625)"/>
       </defs>
       <use xlink:href="#Figtree-Regular-2212"/>
       <use xlink:href="#Figtree-Regular-30" x="62.299988"/>
       <use xlink:href="#Figtree-Regular-2e" x="126.399979"/>
       <use xlink:href="#Figtree-Regular-32" x="147.199966"/>
      </g>
     </g>
    </g>
    <g id="xtick_6">
     <g id="line2d_6">
      <g>
       <use xlink:href="#mbb053f56cb" x="348.3575" y="387.989367" style="stroke: #000000; stroke-width: 0.8"/>
      </g>
     </g>
     <g id="text_6">
      <!-- 0.0 -->
      <g transform="translate(337.928594 405.289367) scale(0.14 -0.14)">
       <use xlink:href="#Figtree-Regular-30"/>
       <use xlink:href="#Figtree-Regular-2e" x="64.099991"/>
       <use xlink:href="#Figtree-Regular-30" x="84.899979"/>
      </g>
     </g>
    </g>
    <g id="xtick_7">
     <g id="line2d_7">
      <g>
       <use xlink:href="#mbb053f56cb" x="413.294375" y="387.989367" style="stroke: #000000; stroke-width: 0.8"/>
      </g>
     </g>
     <g id="text_7">
      <!-- 0.2 -->
      <g transform="translate(403.438594 405.289367) scale(0.14 -0.14)">
       <use xlink:href="#Figtree-Regular-30"/>
       <use xlink:href="#Figtree-Regular-2e" x="64.099991"/>
       <use xlink:href="#Figtree-Regular-32" x="84.899979"/>
      </g>
     </g>
    </g>
    <g id="xtick_8">
     <g id="line2d_8">
      <g>
       <use xlink:href="#mbb053f56cb" x="478.23125" y="387.989367" style="stroke: #000000; stroke-width: 0.8"/>
      </g>
     </g>
     <g id="text_8">
      <!-- 0.4 -->
      <g transform="translate(467.942344 405.289367) scale(0.14 -0.14)">
       <use xlink:href="#Figtree-Regular-30"/>
       <use xlink:href="#Figtree-Regular-2e" x="64.099991"/>
       <use xlink:href="#Figtree-Regular-34" x="84.899979"/>
      </g>
     </g>
    </g>
    <g id="xtick_9">
     <g id="line2d_9">
      <g>
       <use xlink:href="#mbb053f56cb" x="543.168125" y="387.989367" style="stroke: #000000; stroke-width: 0.8"/>
      </g>
     </g>
     <g id="text_9">
      <!-- 0.6 -->
      <g transform="translate(533.264219 405.289367) scale(0.14 -0.14)">
       <use xlink:href="#Figtree-Regular-30"/>
       <use xlink:href="#Figtree-Regular-2e" x="64.099991"/>
       <use xlink:href="#Figtree-Regular-36" x="84.899979"/>
      </g>
     </g>
    </g>
   </g>
   <g id="matplotlib.axis_2">
    <g id="ytick_1">
     <g id="line2d_10">
      <defs>
       <path id="m6a6446e7ed" d="M 0 0 
L -4 0 
" style="stroke: #000000; stroke-width: 0.8"/>
      </defs>
      <g>
       <use xlink:href="#m6a6446e7ed" x="23.673125" y="387.989367" style="stroke: #000000; stroke-width: 0.8"/>
      </g>
     </g>
     <g id="text_10">
      <!-- 0 -->
      <g transform="translate(7.2 392.889367) scale(0.14 -0.14)">
       <use xlink:href="#Figtree-Regular-30"/>
      </g>
     </g>
    </g>
    <g id="ytick_2">
     <g id="line2d_11">
      <g>
       <use xlink:href="#m6a6446e7ed" x="23.673125" y="341.003196" style="stroke: #000000; stroke-width: 0.8"/>
      </g>
     </g>
     <g id="text_11">
      <!-- 1 -->
      <g transform="translate(10.391563 345.903196) scale(0.14 -0.14)">
       <use xlink:href="#Figtree-Regular-31"/>
      </g>
     </g>
    </g>
    <g id="ytick_3">
     <g id="line2d_12">
      <g>
       <use xlink:href="#m6a6446e7ed" x="23.673125" y="294.017025" style="stroke: #000000; stroke-width: 0.8"/>
      </g>
     </g>
     <g id="text_12">
      <!-- 2 -->
      <g transform="translate(8.34625 298.917025) scale(0.14 -0.14)">
       <use xlink:href="#Figtree-Regular-32"/>
      </g>
     </g>
    </g>
    <g id="ytick_4">
     <g id="line2d_13">
      <g>
       <use xlink:href="#m6a6446e7ed" x="23.673125" y="247.030854" style="stroke: #000000; stroke-width: 0.8"/>
      </g>
     </g>
     <g id="text_13">
      <!-- 3 -->
      <g transform="translate(8.55625 251.930854) scale(0.14 -0.14)">
       <defs>
        <path id="Figtree-Regular-33" d="M 1722 -77 
Q 1395 -77 1129 22 
Q 864 122 675 282 
Q 486 442 378 621 
L 826 870 
Q 896 781 1001 669 
Q 1107 557 1273 480 
Q 1440 403 1683 403 
Q 2118 403 2380 652 
Q 2643 902 2643 1280 
Q 2643 1568 2486 1766 
Q 2330 1965 2035 2067 
Q 1741 2170 1331 2170 
L 1210 2170 
L 1210 2592 
L 1318 2592 
Q 1722 2592 2061 2502 
Q 2400 2413 2653 2240 
Q 2906 2067 3043 1817 
Q 3181 1568 3181 1242 
Q 3181 845 2985 547 
Q 2790 250 2457 86 
Q 2125 -77 1722 -77 
z
M 1210 2214 
L 1210 2630 
L 1331 2630 
Q 1882 2630 2205 2819 
Q 2528 3008 2528 3360 
Q 2528 3552 2425 3715 
Q 2323 3878 2128 3977 
Q 1933 4077 1677 4077 
Q 1504 4077 1353 4029 
Q 1203 3981 1078 3888 
Q 954 3795 851 3654 
L 429 3898 
Q 550 4096 739 4243 
Q 928 4390 1171 4473 
Q 1414 4557 1702 4557 
Q 2093 4557 2403 4403 
Q 2714 4250 2893 3984 
Q 3072 3718 3072 3386 
Q 3072 3104 2937 2886 
Q 2803 2669 2563 2515 
Q 2323 2362 2006 2288 
Q 1690 2214 1318 2214 
L 1210 2214 
z
" transform="scale(0.015625)"/>
       </defs>
       <use xlink:href="#Figtree-Regular-33"/>
      </g>
     </g>
    </g>
    <g id="ytick_5">
     <g id="line2d_14">
      <g>
       <use xlink:href="#m6a6446e7ed" x="23.673125" y="200.044683" style="stroke: #000000; stroke-width: 0.8"/>
      </g>
     </g>
     <g id="text_14">
      <!-- 4 -->
      <g transform="translate(7.48 204.944683) scale(0.14 -0.14)">
       <use xlink:href="#Figtree-Regular-34"/>
      </g>
     </g>
    </g>
    <g id="ytick_6">
     <g id="line2d_15">
      <g>
       <use xlink:href="#m6a6446e7ed" x="23.673125" y="153.058513" style="stroke: #000000; stroke-width: 0.8"/>
      </g>
     </g>
     <g id="text_15">
      <!-- 5 -->
      <g transform="translate(8.123125 157.958513) scale(0.14 -0.14)">
       <defs>
        <path id="Figtree-Regular-35" d="M 1856 -77 
Q 1587 -77 1308 3 
Q 1030 83 784 249 
Q 538 416 378 678 
L 813 928 
Q 1037 646 1299 518 
Q 1562 390 1843 390 
Q 2285 390 2563 662 
Q 2842 934 2842 1376 
Q 2842 1811 2573 2086 
Q 2304 2362 1869 2362 
Q 1632 2362 1401 2256 
Q 1171 2150 1043 1997 
L 557 2112 
L 774 4480 
L 3162 4480 
L 3162 3994 
L 1254 3994 
L 1120 2566 
Q 1299 2675 1516 2739 
Q 1734 2803 1958 2803 
Q 2368 2803 2688 2624 
Q 3008 2445 3193 2125 
Q 3379 1805 3379 1389 
Q 3379 954 3184 624 
Q 2989 294 2646 108 
Q 2304 -77 1856 -77 
z
" transform="scale(0.015625)"/>
       </defs>
       <use xlink:href="#Figtree-Regular-35"/>
      </g>
     </g>
    </g>
    <g id="ytick_7">
     <g id="line2d_16">
      <g>
       <use xlink:href="#m6a6446e7ed" x="23.673125" y="106.072342" style="stroke: #000000; stroke-width: 0.8"/>
      </g>
     </g>
     <g id="text_16">
      <!-- 6 -->
      <g transform="translate(8.25 110.972342) scale(0.14 -0.14)">
       <use xlink:href="#Figtree-Regular-36"/>
      </g>
     </g>
    </g>
    <g id="ytick_8">
     <g id="line2d_17">
      <g>
       <use xlink:href="#m6a6446e7ed" x="23.673125" y="59.086171" style="stroke: #000000; stroke-width: 0.8"/>
      </g>
     </g>
     <g id="text_17">
      <!-- 7 -->
      <g transform="translate(8.654688 63.986171) scale(0.14 -0.14)">
       <defs>
        <path id="Figtree-Regular-37" d="M 525 0 
L 2739 4147 
L 3245 4032 
L 1120 0 
L 525 0 
z
M 269 3987 
L 269 4480 
L 3245 4480 
L 3245 4032 
L 2829 3987 
L 269 3987 
z
" transform="scale(0.015625)"/>
       </defs>
       <use xlink:href="#Figtree-Regular-37"/>
      </g>
     </g>
    </g>
    <g id="ytick_9">
     <g id="line2d_18">
      <g>
       <use xlink:href="#m6a6446e7ed" x="23.673125" y="12.1" style="stroke: #000000; stroke-width: 0.8"/>
      </g>
     </g>
     <g id="text_18">
      <!-- 8 -->
      <g transform="translate(7.57625 17) scale(0.14 -0.14)">
       <use xlink:href="#Figtree-Regular-38"/>
      </g>
     </g>
    </g>
   </g>
   <g id="line2d_19">
    <path d="M 561.272031 387.989367 
L 431.722407 387.880077 
L 421.972126 387.646449 
L 415.146928 387.267769 
L 410.271788 386.796148 
L 406.371675 386.23532 
L 402.471563 385.449751 
L 399.546478 384.670532 
L 396.621394 383.689116 
L 393.696309 382.46487 
L 390.771225 380.952452 
L 387.84614 379.102216 
L 385.896084 377.654886 
L 383.946028 376.017382 
L 381.995971 374.172961 
L 380.045915 372.104798 
L 378.095859 369.796247 
L 376.145802 367.231136 
L 374.195746 364.394099 
L 372.24569 361.270939 
L 370.295633 357.849017 
L 368.345577 354.117658 
L 365.420493 347.923069 
L 362.495408 340.998657 
L 359.570324 333.346249 
L 356.645239 324.988051 
L 353.720155 315.969147 
L 349.820042 303.040522 
L 345.91993 289.300954 
L 331.294507 236.740267 
L 328.369423 227.424636 
L 325.444338 218.984897 
L 323.494282 213.941189 
L 321.544226 209.426076 
L 319.594169 205.487928 
L 317.644113 202.169639 
L 315.694057 199.507855 
L 314.719029 198.432726 
L 313.744001 197.532294 
L 312.768972 196.809101 
L 311.793944 196.265196 
L 310.818916 195.902122 
L 309.843888 195.72091 
L 308.86886 195.722076 
L 307.893832 195.905616 
L 306.918803 196.271009 
L 305.943775 196.817216 
L 304.968747 197.542688 
L 303.993719 198.445369 
L 303.018691 199.522713 
L 301.068635 202.188794 
L 299.118578 205.511167 
L 297.168522 209.453144 
L 295.218466 213.971794 
L 293.268409 219.018714 
L 291.318353 224.540892 
L 288.393269 233.590484 
L 285.468184 243.379438 
L 281.568072 257.221813 
L 268.892706 303.083267 
L 264.992593 316.008879 
L 262.067508 325.025098 
L 259.142424 333.380368 
L 256.21734 341.029706 
L 253.292255 347.951 
L 250.367171 354.142502 
L 247.442086 359.619898 
L 245.49203 362.889063 
L 243.541974 365.865646 
L 241.591917 368.563126 
L 239.641861 370.996339 
L 237.691805 373.181101 
L 235.741748 375.133865 
L 233.791692 376.871402 
L 230.866608 379.110888 
L 227.941523 380.959575 
L 225.016439 382.470663 
L 222.091354 383.693781 
L 219.16627 384.674253 
L 216.241185 385.452691 
L 212.341073 386.237435 
L 208.44096 386.797645 
L 203.565819 387.268718 
L 197.71565 387.607439 
L 189.915425 387.83404 
L 177.240059 387.957741 
L 141.164017 387.989225 
L -1 387.989367 
L -1 387.989367 
" clip-path="url(#p23cce483eb)" style="fill: none; stroke-dasharray: 22.2,9.6; stroke-dashoffset: 0; stroke: #5e548e; stroke-width: 6"/>
   </g>
   <g id="line2d_20">
    <path d="M 348.032816 387.989125 
L 347.545627 387.908779 
L 347.058437 387.109617 
L 346.571248 384.44732 
L 346.084059 378.985748 
L 345.59687 370.3099 
L 345.109681 358.474368 
L 344.135303 326.943894 
L 342.673736 268.310514 
L 340.72498 188.67135 
L 339.263412 137.422707 
L 338.289034 108.990103 
L 337.314656 85.342099 
L 336.340278 66.315377 
L 335.3659 51.584128 
L 334.391522 40.739649 
L 333.417144 33.342276 
L 332.929955 30.798701 
L 332.442765 28.953958 
L 331.955576 27.756709 
L 331.468387 27.157637 
L 330.981198 27.109623 
L 330.494009 27.567857 
L 330.00682 28.489892 
L 329.519631 29.835661 
L 328.545253 33.64989 
L 327.570875 38.736267 
L 326.109308 48.235859 
L 324.64774 59.388913 
L 322.211795 80.239115 
L 312.468014 166.928741 
L 309.544879 189.897488 
L 307.108934 207.476976 
L 304.672989 223.626347 
L 302.237043 238.387951 
L 299.801098 251.832993 
L 297.365153 264.048164 
L 294.929207 275.126855 
L 292.493262 285.163516 
L 290.057317 294.250115 
L 287.621371 302.474042 
L 285.185426 309.916956 
L 282.749481 316.654268 
L 280.313535 322.755025 
L 277.87759 328.282059 
L 275.441645 333.292283 
L 273.005699 337.837078 
L 270.569754 341.962712 
L 268.133809 345.710783 
L 265.210674 349.762397 
L 262.28754 353.381216 
L 259.364405 356.61753 
L 256.441271 359.515459 
L 253.518137 362.113717 
L 250.595002 364.446288 
L 247.184679 366.871442 
L 243.774355 369.016713 
L 240.364032 370.917647 
L 236.466519 372.8301 
L 232.569007 374.502514 
L 228.184305 376.138221 
L 223.312414 377.696719 
L 218.440524 379.026096 
L 213.081444 380.267868 
L 207.235175 381.404602 
L 200.414528 382.497389 
L 193.106692 383.445571 
L 184.337289 384.346922 
L 174.593508 385.118624 
L 162.90097 385.810776 
L 149.259676 386.390542 
L 132.208059 386.884545 
L 110.284551 387.284964 
L 80.566018 387.591323 
L 36.231813 387.80705 
L -1 387.889449 
L -1 387.889449 
" clip-path="url(#p23cce483eb)" style="fill: none; stroke-dasharray: 22.2,9.6; stroke-dashoffset: 0; stroke: #e85d04; stroke-width: 6"/>
   </g>
   <g id="patch_103">
    <path d="M 23.673125 387.989367 
L 23.673125 9.065636 
" style="fill: none; stroke: #000000; stroke-linejoin: miter; stroke-linecap: square"/>
   </g>
   <g id="patch_104">
    <path d="M 23.673125 387.989367 
L 543.168125 387.989367 
" style="fill: none; stroke: #000000; stroke-linejoin: miter; stroke-linecap: square"/>
   </g>
   <g id="legend_1">
    <g id="patch_105">
     <path d="M 353.374063 79.457199 
L 533.368125 79.457199 
Q 536.168125 79.457199 536.168125 76.657199 
L 536.168125 18.865636 
Q 536.168125 16.065636 533.368125 16.065636 
L 353.374063 16.065636 
Q 350.574063 16.065636 350.574063 18.865636 
L 350.574063 76.657199 
Q 350.574063 79.457199 353.374063 79.457199 
z
" style="fill: #ffffff; opacity: 0.8; stroke: #cccccc; stroke-linejoin: miter"/>
    </g>
    <g id="line2d_21">
     <path d="M 356.174063 26.565636 
L 370.174063 26.565636 
L 384.174063 26.565636 
" style="fill: none; stroke-dasharray: 22.2,9.6; stroke-dashoffset: 0; stroke: #5e548e; stroke-width: 6"/>
    </g>
    <g id="text_19">
     <!-- Gaussian fit -->
     <g transform="translate(395.374063 31.465636) scale(0.14 -0.14)">
      <defs>
       <path id="Figtree-Regular-47" d="M 2624 -77 
Q 1939 -77 1414 220 
Q 890 518 592 1040 
Q 294 1562 294 2234 
Q 294 2918 592 3440 
Q 890 3962 1414 4259 
Q 1939 4557 2624 4557 
Q 2982 4557 3321 4438 
Q 3661 4320 3942 4115 
Q 4224 3910 4397 3648 
L 3968 3354 
Q 3840 3558 3622 3721 
Q 3405 3885 3145 3974 
Q 2886 4064 2624 4064 
Q 2106 4064 1702 3830 
Q 1299 3597 1068 3187 
Q 838 2778 838 2234 
Q 838 1709 1065 1296 
Q 1293 883 1699 646 
Q 2106 410 2624 410 
Q 3059 410 3395 592 
Q 3731 774 3923 1097 
Q 4115 1421 4115 1843 
L 4634 1882 
Q 4634 1293 4378 854 
Q 4122 416 3667 169 
Q 3213 -77 2624 -77 
z
M 3014 1818 
L 3014 2285 
L 4634 2285 
L 4634 1862 
L 4378 1818 
L 3014 1818 
z
" transform="scale(0.015625)"/>
       <path id="Figtree-Regular-61" d="M 2419 0 
L 2394 525 
L 2394 1690 
Q 2394 2067 2310 2313 
Q 2227 2560 2048 2688 
Q 1869 2816 1581 2816 
Q 1318 2816 1129 2710 
Q 941 2605 819 2374 
L 358 2554 
Q 480 2778 653 2941 
Q 826 3104 1056 3190 
Q 1286 3277 1581 3277 
Q 2029 3277 2320 3101 
Q 2611 2925 2758 2582 
Q 2906 2240 2899 1734 
L 2893 0 
L 2419 0 
z
M 1459 -77 
Q 896 -77 579 182 
Q 262 442 262 902 
Q 262 1389 585 1648 
Q 909 1907 1491 1907 
L 2406 1907 
L 2406 1478 
L 1606 1478 
Q 1158 1478 969 1331 
Q 781 1184 781 909 
Q 781 659 966 515 
Q 1152 371 1485 371 
Q 1760 371 1965 489 
Q 2170 608 2282 829 
Q 2394 1050 2394 1350 
L 2611 1350 
Q 2611 698 2316 310 
Q 2022 -77 1459 -77 
z
" transform="scale(0.015625)"/>
       <path id="Figtree-Regular-75" d="M 2643 0 
L 2611 589 
L 2611 3200 
L 3123 3200 
L 3123 0 
L 2643 0 
z
M 365 1562 
L 365 3200 
L 877 3200 
L 877 1562 
L 365 1562 
z
M 877 1562 
Q 877 1088 985 838 
Q 1094 589 1289 496 
Q 1485 403 1728 403 
Q 2144 403 2377 704 
Q 2611 1005 2611 1542 
L 2861 1542 
Q 2861 1037 2713 672 
Q 2566 307 2288 115 
Q 2010 -77 1606 -77 
Q 1235 -77 953 73 
Q 672 224 518 553 
Q 365 883 365 1408 
L 365 1562 
L 877 1562 
z
" transform="scale(0.015625)"/>
       <path id="Figtree-Regular-73" d="M 1568 -77 
Q 1216 -77 953 28 
Q 691 134 515 307 
Q 339 480 262 685 
L 710 870 
Q 819 653 1036 518 
Q 1254 384 1517 384 
Q 1818 384 2022 502 
Q 2227 621 2227 838 
Q 2227 1037 2076 1158 
Q 1926 1280 1632 1357 
L 1325 1440 
Q 890 1555 646 1788 
Q 403 2022 403 2317 
Q 403 2771 700 3024 
Q 998 3277 1587 3277 
Q 1869 3277 2099 3193 
Q 2330 3110 2496 2960 
Q 2662 2810 2739 2605 
L 2291 2406 
Q 2208 2624 2016 2720 
Q 1824 2816 1549 2816 
Q 1254 2816 1088 2691 
Q 922 2566 922 2342 
Q 922 2214 1059 2102 
Q 1197 1990 1466 1920 
L 1786 1837 
Q 2099 1760 2310 1609 
Q 2522 1459 2630 1267 
Q 2739 1075 2739 858 
Q 2739 570 2585 358 
Q 2432 147 2169 35 
Q 1907 -77 1568 -77 
z
" transform="scale(0.015625)"/>
       <path id="Figtree-Regular-69" d="M 480 0 
L 480 3200 
L 992 3200 
L 992 0 
L 480 0 
z
M 742 3942 
Q 614 3942 518 4038 
Q 422 4134 422 4262 
Q 422 4397 518 4489 
Q 614 4582 742 4582 
Q 877 4582 969 4489 
Q 1062 4397 1062 4262 
Q 1062 4134 969 4038 
Q 877 3942 742 3942 
z
" transform="scale(0.015625)"/>
       <path id="Figtree-Regular-6e" d="M 448 0 
L 448 3200 
L 928 3200 
L 960 2611 
L 960 0 
L 448 0 
z
M 2694 0 
L 2694 1638 
L 3206 1638 
L 3206 0 
L 2694 0 
z
M 2694 1638 
Q 2694 2112 2585 2361 
Q 2477 2611 2285 2704 
Q 2093 2797 1850 2797 
Q 1427 2797 1193 2499 
Q 960 2202 960 1658 
L 710 1658 
Q 710 2163 857 2528 
Q 1005 2893 1286 3085 
Q 1568 3277 1965 3277 
Q 2342 3277 2620 3126 
Q 2899 2976 3056 2649 
Q 3213 2323 3206 1792 
L 3206 1638 
L 2694 1638 
z
" transform="scale(0.015625)"/>
       <path id="Figtree-Regular-20" transform="scale(0.015625)"/>
       <path id="Figtree-Regular-66" d="M 768 0 
L 768 3565 
Q 768 4064 1001 4317 
Q 1235 4570 1715 4570 
Q 1843 4570 2003 4525 
Q 2163 4480 2342 4397 
L 2150 3994 
Q 2003 4051 1900 4083 
Q 1798 4115 1728 4115 
Q 1504 4115 1392 3971 
Q 1280 3827 1280 3526 
L 1280 0 
L 768 0 
z
M 179 2758 
L 179 3200 
L 2208 3200 
L 2208 2758 
L 179 2758 
z
" transform="scale(0.015625)"/>
       <path id="Figtree-Regular-74" d="M 1651 -77 
Q 1184 -77 928 166 
Q 672 410 672 851 
L 672 4198 
L 1184 4198 
L 1184 902 
Q 1184 659 1315 528 
Q 1446 397 1683 397 
Q 1760 397 1833 419 
Q 1907 442 2029 531 
L 2227 115 
Q 2061 6 1926 -35 
Q 1792 -77 1651 -77 
z
M 115 2746 
L 115 3200 
L 2144 3200 
L 2144 2746 
L 115 2746 
z
" transform="scale(0.015625)"/>
      </defs>
      <use xlink:href="#Figtree-Regular-47"/>
      <use xlink:href="#Figtree-Regular-61" x="75.999985"/>
      <use xlink:href="#Figtree-Regular-75" x="126.999969"/>
      <use xlink:href="#Figtree-Regular-73" x="182.799957"/>
      <use xlink:href="#Figtree-Regular-73" x="229.399948"/>
      <use xlink:href="#Figtree-Regular-69" x="275.999939"/>
      <use xlink:href="#Figtree-Regular-61" x="299.199936"/>
      <use xlink:href="#Figtree-Regular-6e" x="350.199921"/>
      <use xlink:href="#Figtree-Regular-20" x="405.999908"/>
      <use xlink:href="#Figtree-Regular-66" x="430.699905"/>
      <use xlink:href="#Figtree-Regular-69" x="467.599899"/>
      <use xlink:href="#Figtree-Regular-74" x="490.799896"/>
     </g>
    </g>
    <g id="line2d_22">
     <path d="M 356.174063 46.388761 
L 370.174063 46.388761 
L 384.174063 46.388761 
" style="fill: none; stroke-dasharray: 22.2,9.6; stroke-dashoffset: 0; stroke: #e85d04; stroke-width: 6"/>
    </g>
    <g id="text_20">
     <!-- Log-normal fit -->
     <g transform="translate(395.374063 51.288761) scale(0.14 -0.14)">
      <defs>
       <path id="Figtree-Regular-4c" d="M 595 0 
L 595 4480 
L 1139 4480 
L 1139 493 
L 3251 493 
L 3251 0 
L 595 0 
z
" transform="scale(0.015625)"/>
       <path id="Figtree-Regular-6f" d="M 1862 -77 
Q 1395 -77 1033 137 
Q 672 352 467 729 
Q 262 1107 262 1600 
Q 262 2093 464 2470 
Q 666 2848 1027 3062 
Q 1389 3277 1850 3277 
Q 2323 3277 2684 3062 
Q 3046 2848 3248 2470 
Q 3450 2093 3450 1600 
Q 3450 1107 3248 729 
Q 3046 352 2688 137 
Q 2330 -77 1862 -77 
z
M 1862 397 
Q 2182 397 2419 550 
Q 2656 704 2793 973 
Q 2931 1242 2931 1600 
Q 2931 1958 2793 2227 
Q 2656 2496 2413 2649 
Q 2170 2803 1850 2803 
Q 1536 2803 1296 2649 
Q 1056 2496 918 2227 
Q 781 1958 781 1600 
Q 781 1248 918 976 
Q 1056 704 1302 550 
Q 1549 397 1862 397 
z
" transform="scale(0.015625)"/>
       <path id="Figtree-Regular-67" d="M 1728 -1357 
Q 1421 -1357 1168 -1296 
Q 915 -1235 739 -1161 
Q 563 -1088 486 -1037 
L 678 -621 
Q 762 -666 915 -733 
Q 1069 -800 1277 -848 
Q 1485 -896 1722 -896 
Q 2029 -896 2275 -771 
Q 2522 -646 2659 -380 
Q 2797 -115 2797 301 
L 2797 3200 
L 3309 3200 
L 3309 307 
Q 3309 -243 3104 -614 
Q 2899 -986 2540 -1171 
Q 2182 -1357 1728 -1357 
z
M 1709 26 
Q 1280 26 953 230 
Q 627 435 444 803 
Q 262 1171 262 1645 
Q 262 2131 444 2499 
Q 627 2867 953 3072 
Q 1280 3277 1709 3277 
Q 2112 3277 2413 3072 
Q 2714 2867 2883 2499 
Q 3053 2131 3053 1645 
Q 3053 1165 2883 800 
Q 2714 435 2413 230 
Q 2112 26 1709 26 
z
M 1830 467 
Q 2112 467 2329 620 
Q 2547 774 2668 1040 
Q 2790 1306 2790 1658 
Q 2790 1997 2665 2262 
Q 2541 2528 2326 2678 
Q 2112 2829 1824 2829 
Q 1523 2829 1289 2678 
Q 1056 2528 925 2262 
Q 794 1997 794 1658 
Q 794 1306 928 1040 
Q 1062 774 1296 620 
Q 1530 467 1830 467 
z
" transform="scale(0.015625)"/>
       <path id="Figtree-Regular-2d" d="M 371 1670 
L 371 2138 
L 2291 2138 
L 2291 1670 
L 371 1670 
z
" transform="scale(0.015625)"/>
       <path id="Figtree-Regular-72" d="M 730 1734 
Q 730 2253 928 2576 
Q 1126 2899 1436 3056 
Q 1747 3213 2093 3213 
L 2093 2733 
Q 1811 2733 1552 2640 
Q 1293 2547 1126 2336 
Q 960 2125 960 1760 
L 730 1734 
z
M 448 0 
L 448 3200 
L 960 3200 
L 960 0 
L 448 0 
z
" transform="scale(0.015625)"/>
       <path id="Figtree-Regular-6d" d="M 448 0 
L 448 3200 
L 928 3200 
L 954 2752 
Q 1101 3008 1331 3142 
Q 1562 3277 1869 3277 
Q 2253 3277 2525 3097 
Q 2797 2918 2918 2554 
Q 3053 2906 3312 3091 
Q 3571 3277 3930 3277 
Q 4467 3277 4777 2918 
Q 5088 2560 5082 1830 
L 5082 0 
L 4570 0 
L 4570 1638 
Q 4570 2112 4470 2361 
Q 4371 2611 4204 2704 
Q 4038 2797 3821 2797 
Q 3443 2797 3232 2499 
Q 3021 2202 3021 1658 
L 3021 0 
L 2509 0 
L 2509 1638 
Q 2509 2112 2409 2361 
Q 2310 2611 2140 2704 
Q 1971 2797 1754 2797 
Q 1382 2797 1171 2499 
Q 960 2202 960 1658 
L 960 0 
L 448 0 
z
" transform="scale(0.015625)"/>
       <path id="Figtree-Regular-6c" d="M 448 0 
L 448 4480 
L 960 4480 
L 960 0 
L 448 0 
z
" transform="scale(0.015625)"/>
      </defs>
      <use xlink:href="#Figtree-Regular-4c"/>
      <use xlink:href="#Figtree-Regular-6f" x="51.999985"/>
      <use xlink:href="#Figtree-Regular-67" x="109.999969"/>
      <use xlink:href="#Figtree-Regular-2d" x="168.699966"/>
      <use xlink:href="#Figtree-Regular-6e" x="210.399963"/>
      <use xlink:href="#Figtree-Regular-6f" x="266.199951"/>
      <use xlink:href="#Figtree-Regular-72" x="324.199936"/>
      <use xlink:href="#Figtree-Regular-6d" x="357.999924"/>
      <use xlink:href="#Figtree-Regular-61" x="443.099915"/>
      <use xlink:href="#Figtree-Regular-6c" x="494.099899"/>
      <use xlink:href="#Figtree-Regular-20" x="516.099884"/>
      <use xlink:href="#Figtree-Regular-66" x="540.799881"/>
      <use xlink:href="#Figtree-Regular-69" x="577.699875"/>
      <use xlink:href="#Figtree-Regular-74" x="600.899872"/>
     </g>
    </g>
    <g id="patch_106">
     <path d="M 356.174063 71.057199 
L 384.174063 71.057199 
L 384.174063 61.257199 
L 356.174063 61.257199 
z
" style="fill: #696969; opacity: 0.5"/>
    </g>
    <g id="text_21">
     <!-- Effective interactions -->
     <g transform="translate(395.374063 71.057199) scale(0.14 -0.14)">
      <defs>
       <path id="Figtree-Regular-45" d="M 595 0 
L 595 4480 
L 3245 4480 
L 3245 3987 
L 1139 3987 
L 1139 2541 
L 3059 2541 
L 3059 2054 
L 1139 2054 
L 1139 493 
L 3258 493 
L 3258 0 
L 595 0 
z
" transform="scale(0.015625)"/>
       <path id="Figtree-Regular-65" d="M 1850 -77 
Q 1382 -77 1024 137 
Q 666 352 464 729 
Q 262 1107 262 1600 
Q 262 2093 464 2470 
Q 666 2848 1021 3062 
Q 1376 3277 1837 3277 
Q 2285 3277 2611 3056 
Q 2938 2835 3117 2438 
Q 3296 2042 3296 1504 
L 653 1504 
L 781 1613 
Q 781 1229 918 953 
Q 1056 678 1305 534 
Q 1555 390 1875 390 
Q 2214 390 2448 550 
Q 2682 710 2810 973 
L 3251 749 
Q 3130 499 2928 313 
Q 2726 128 2454 25 
Q 2182 -77 1850 -77 
z
M 813 1830 
L 678 1933 
L 2886 1933 
L 2752 1824 
Q 2752 2131 2630 2355 
Q 2509 2579 2304 2700 
Q 2099 2822 1830 2822 
Q 1568 2822 1334 2700 
Q 1101 2579 957 2358 
Q 813 2138 813 1830 
z
" transform="scale(0.015625)"/>
       <path id="Figtree-Regular-63" d="M 1875 -77 
Q 1402 -77 1037 137 
Q 672 352 467 729 
Q 262 1107 262 1600 
Q 262 2093 464 2470 
Q 666 2848 1030 3062 
Q 1395 3277 1862 3277 
Q 2323 3277 2688 3065 
Q 3053 2854 3245 2470 
L 2778 2259 
Q 2650 2515 2406 2659 
Q 2163 2803 1850 2803 
Q 1536 2803 1296 2649 
Q 1056 2496 918 2224 
Q 781 1952 781 1600 
Q 781 1248 918 976 
Q 1056 704 1302 550 
Q 1549 397 1862 397 
Q 2176 397 2422 557 
Q 2669 717 2797 1005 
L 3264 794 
Q 3072 384 2707 153 
Q 2342 -77 1875 -77 
z
" transform="scale(0.015625)"/>
       <path id="Figtree-Regular-76" d="M 1427 0 
L 2733 3200 
L 3270 3200 
L 1933 0 
L 1427 0 
z
M 1395 0 
L 58 3200 
L 589 3200 
L 1894 0 
L 1395 0 
z
" transform="scale(0.015625)"/>
      </defs>
      <use xlink:href="#Figtree-Regular-45"/>
      <use xlink:href="#Figtree-Regular-66" x="59.199997"/>
      <use xlink:href="#Figtree-Regular-66" x="96.099991"/>
      <use xlink:href="#Figtree-Regular-65" x="132.999985"/>
      <use xlink:href="#Figtree-Regular-63" x="187.599976"/>
      <use xlink:href="#Figtree-Regular-74" x="241.699966"/>
      <use xlink:href="#Figtree-Regular-69" x="279.499954"/>
      <use xlink:href="#Figtree-Regular-76" x="302.699951"/>
      <use xlink:href="#Figtree-Regular-65" x="354.699936"/>
      <use xlink:href="#Figtree-Regular-20" x="409.299927"/>
      <use xlink:href="#Figtree-Regular-69" x="433.999924"/>
      <use xlink:href="#Figtree-Regular-6e" x="457.199921"/>
      <use xlink:href="#Figtree-Regular-74" x="512.999908"/>
      <use xlink:href="#Figtree-Regular-65" x="550.799896"/>
      <use xlink:href="#Figtree-Regular-72" x="605.399887"/>
      <use xlink:href="#Figtree-Regular-61" x="639.199875"/>
      <use xlink:href="#Figtree-Regular-63" x="690.19986"/>
      <use xlink:href="#Figtree-Regular-74" x="744.29985"/>
      <use xlink:href="#Figtree-Regular-69" x="782.099838"/>
      <use xlink:href="#Figtree-Regular-6f" x="805.299835"/>
      <use xlink:href="#Figtree-Regular-6e" x="863.29982"/>
      <use xlink:href="#Figtree-Regular-73" x="919.099808"/>
     </g>
    </g>
   </g>
  </g>
 </g>
 <defs>
  <clipPath id="p23cce483eb">
   <rect x="23.673125" y="9.065636" width="519.495" height="378.923731"/>
  </clipPath>
 </defs>
</svg>
