<?xml version="1.0" encoding="utf-8" standalone="no"?>
<!DOCTYPE svg PUBLIC "-//W3C//DTD SVG 1.1//EN"
  "http://www.w3.org/Graphics/SVG/1.1/DTD/svg11.dtd">
<svg xmlns:xlink="http://www.w3.org/1999/xlink" width="560.217812pt" height="416.16pt" viewBox="0 0 560.217812 416.16" xmlns="http://www.w3.org/2000/svg" version="1.1">
 <metadata>
  <rdf:RDF xmlns:dc="http://purl.org/dc/elements/1.1/" xmlns:cc="http://creativecommons.org/ns#" xmlns:rdf="http://www.w3.org/1999/02/22-rdf-syntax-ns#">
   <cc:Work>
    <dc:type rdf:resource="http://purl.org/dc/dcmitype/StillImage"/>
    <dc:date>2025-07-15T12:29:18.658643</dc:date>
    <dc:format>image/svg+xml</dc:format>
    <dc:creator>
     <cc:Agent>
      <dc:title>Matplotlib v3.9.2, https://matplotlib.org/</dc:title>
     </cc:Agent>
    </dc:creator>
   </cc:Work>
  </rdf:RDF>
 </metadata>
 <defs>
  <style type="text/css">*{stroke-linejoin: round; stroke-linecap: butt}</style>
 </defs>
 <g id="figure_1">
  <g id="patch_1">
   <path d="M 0 416.16 
L 560.217812 416.16 
L 560.217812 0 
L 0 0 
z
" style="fill: #ffffff"/>
  </g>
  <g id="axes_1">
   <g id="patch_2">
    <path d="M 38.427813 388.86 
L 553.017812 388.86 
L 553.017812 7.2 
L 38.427813 7.2 
z
" style="fill: #ffffff"/>
   </g>
   <g id="PathCollection_1">
    <defs>
     <path id="me98fcc0e6d" d="M 0 3.535534 
C 0.937635 3.535534 1.836992 3.163008 2.5 2.5 
C 3.163008 1.836992 3.535534 0.937635 3.535534 0 
C 3.535534 -0.937635 3.163008 -1.836992 2.5 -2.5 
C 1.836992 -3.163008 0.937635 -3.535534 0 -3.535534 
C -0.937635 -3.535534 -1.836992 -3.163008 -2.5 -2.5 
C -3.163008 -1.836992 -3.535534 -0.937635 -3.535534 0 
C -3.535534 0.937635 -3.163008 1.836992 -2.5 2.5 
C -1.836992 3.163008 -0.937635 3.535534 0 3.535534 
z
" style="stroke: #ffffff; stroke-opacity: 0.8; stroke-width: 0.5"/>
    </defs>
    <g clip-path="url(#p0f3855eafd)">
     <use xlink:href="#me98fcc0e6d" x="107.14377" y="345.45635" style="fill: #5e548e; fill-opacity: 0.8; stroke: #ffffff; stroke-opacity: 0.8; stroke-width: 0.5"/>
     <use xlink:href="#me98fcc0e6d" x="109.430837" y="342.575216" style="fill: #5e548e; fill-opacity: 0.8; stroke: #ffffff; stroke-opacity: 0.8; stroke-width: 0.5"/>
     <use xlink:href="#me98fcc0e6d" x="109.846667" y="353.537507" style="fill: #5e548e; fill-opacity: 0.8; stroke: #ffffff; stroke-opacity: 0.8; stroke-width: 0.5"/>
     <use xlink:href="#me98fcc0e6d" x="109.326879" y="264.693508" style="fill: #5e548e; fill-opacity: 0.8; stroke: #ffffff; stroke-opacity: 0.8; stroke-width: 0.5"/>
     <use xlink:href="#me98fcc0e6d" x="157.563194" y="292.769186" style="fill: #5e548e; fill-opacity: 0.8; stroke: #ffffff; stroke-opacity: 0.8; stroke-width: 0.5"/>
     <use xlink:href="#me98fcc0e6d" x="164.112522" y="305.841713" style="fill: #5e548e; fill-opacity: 0.8; stroke: #ffffff; stroke-opacity: 0.8; stroke-width: 0.5"/>
     <use xlink:href="#me98fcc0e6d" x="164.320437" y="308.678054" style="fill: #5e548e; fill-opacity: 0.8; stroke: #ffffff; stroke-opacity: 0.8; stroke-width: 0.5"/>
     <use xlink:href="#me98fcc0e6d" x="161.305667" y="325.795939" style="fill: #5e548e; fill-opacity: 0.8; stroke: #ffffff; stroke-opacity: 0.8; stroke-width: 0.5"/>
     <use xlink:href="#me98fcc0e6d" x="210.4776" y="249.101223" style="fill: #5e548e; fill-opacity: 0.8; stroke: #ffffff; stroke-opacity: 0.8; stroke-width: 0.5"/>
     <use xlink:href="#me98fcc0e6d" x="216.091309" y="249.026063" style="fill: #5e548e; fill-opacity: 0.8; stroke: #ffffff; stroke-opacity: 0.8; stroke-width: 0.5"/>
     <use xlink:href="#me98fcc0e6d" x="213.388412" y="267.440265" style="fill: #5e548e; fill-opacity: 0.8; stroke: #ffffff; stroke-opacity: 0.8; stroke-width: 0.5"/>
     <use xlink:href="#me98fcc0e6d" x="216.611097" y="275.423421" style="fill: #5e548e; fill-opacity: 0.8; stroke: #ffffff; stroke-opacity: 0.8; stroke-width: 0.5"/>
     <use xlink:href="#me98fcc0e6d" x="252.996249" y="199.7211" style="fill: #5e548e; fill-opacity: 0.8; stroke: #ffffff; stroke-opacity: 0.8; stroke-width: 0.5"/>
     <use xlink:href="#me98fcc0e6d" x="261.832643" y="203.729634" style="fill: #5e548e; fill-opacity: 0.8; stroke: #ffffff; stroke-opacity: 0.8; stroke-width: 0.5"/>
     <use xlink:href="#me98fcc0e6d" x="264.53554" y="210.494034" style="fill: #5e548e; fill-opacity: 0.8; stroke: #ffffff; stroke-opacity: 0.8; stroke-width: 0.5"/>
     <use xlink:href="#me98fcc0e6d" x="263.807837" y="254.237157" style="fill: #5e548e; fill-opacity: 0.8; stroke: #ffffff; stroke-opacity: 0.8; stroke-width: 0.5"/>
     <use xlink:href="#me98fcc0e6d" x="301.128606" y="142.123483" style="fill: #5e548e; fill-opacity: 0.8; stroke: #ffffff; stroke-opacity: 0.8; stroke-width: 0.5"/>
     <use xlink:href="#me98fcc0e6d" x="306.11857" y="150.030214" style="fill: #5e548e; fill-opacity: 0.8; stroke: #ffffff; stroke-opacity: 0.8; stroke-width: 0.5"/>
     <use xlink:href="#me98fcc0e6d" x="310.588746" y="164.997178" style="fill: #5e548e; fill-opacity: 0.8; stroke: #ffffff; stroke-opacity: 0.8; stroke-width: 0.5"/>
     <use xlink:href="#me98fcc0e6d" x="307.677934" y="209.040941" style="fill: #5e548e; fill-opacity: 0.8; stroke: #ffffff; stroke-opacity: 0.8; stroke-width: 0.5"/>
     <use xlink:href="#me98fcc0e6d" x="116.811825" y="325.764428" style="fill: #5e548e; fill-opacity: 0.8; stroke: #ffffff; stroke-opacity: 0.8; stroke-width: 0.5"/>
     <use xlink:href="#me98fcc0e6d" x="117.539528" y="333.355589" style="fill: #5e548e; fill-opacity: 0.8; stroke: #ffffff; stroke-opacity: 0.8; stroke-width: 0.5"/>
     <use xlink:href="#me98fcc0e6d" x="117.643485" y="349.321721" style="fill: #5e548e; fill-opacity: 0.8; stroke: #ffffff; stroke-opacity: 0.8; stroke-width: 0.5"/>
     <use xlink:href="#me98fcc0e6d" x="116.395994" y="264.283544" style="fill: #5e548e; fill-opacity: 0.8; stroke: #ffffff; stroke-opacity: 0.8; stroke-width: 0.5"/>
     <use xlink:href="#me98fcc0e6d" x="177.003261" y="275.307012" style="fill: #5e548e; fill-opacity: 0.8; stroke: #ffffff; stroke-opacity: 0.8; stroke-width: 0.5"/>
     <use xlink:href="#me98fcc0e6d" x="180.641776" y="278.488785" style="fill: #5e548e; fill-opacity: 0.8; stroke: #ffffff; stroke-opacity: 0.8; stroke-width: 0.5"/>
     <use xlink:href="#me98fcc0e6d" x="182.928843" y="308.427521" style="fill: #5e548e; fill-opacity: 0.8; stroke: #ffffff; stroke-opacity: 0.8; stroke-width: 0.5"/>
     <use xlink:href="#me98fcc0e6d" x="180.745734" y="321.076165" style="fill: #5e548e; fill-opacity: 0.8; stroke: #ffffff; stroke-opacity: 0.8; stroke-width: 0.5"/>
     <use xlink:href="#me98fcc0e6d" x="230.437455" y="217.508968" style="fill: #5e548e; fill-opacity: 0.8; stroke: #ffffff; stroke-opacity: 0.8; stroke-width: 0.5"/>
     <use xlink:href="#me98fcc0e6d" x="231.996819" y="229.258982" style="fill: #5e548e; fill-opacity: 0.8; stroke: #ffffff; stroke-opacity: 0.8; stroke-width: 0.5"/>
     <use xlink:href="#me98fcc0e6d" x="236.882825" y="234.470076" style="fill: #5e548e; fill-opacity: 0.8; stroke: #ffffff; stroke-opacity: 0.8; stroke-width: 0.5"/>
     <use xlink:href="#me98fcc0e6d" x="232.828479" y="248.800583" style="fill: #5e548e; fill-opacity: 0.8; stroke: #ffffff; stroke-opacity: 0.8; stroke-width: 0.5"/>
     <use xlink:href="#me98fcc0e6d" x="283.559776" y="154.95079" style="fill: #5e548e; fill-opacity: 0.8; stroke: #ffffff; stroke-opacity: 0.8; stroke-width: 0.5"/>
     <use xlink:href="#me98fcc0e6d" x="292.500128" y="168.730125" style="fill: #5e548e; fill-opacity: 0.8; stroke: #ffffff; stroke-opacity: 0.8; stroke-width: 0.5"/>
     <use xlink:href="#me98fcc0e6d" x="285.742885" y="175.945485" style="fill: #5e548e; fill-opacity: 0.8; stroke: #ffffff; stroke-opacity: 0.8; stroke-width: 0.5"/>
     <use xlink:href="#me98fcc0e6d" x="285.846843" y="192.255206" style="fill: #5e548e; fill-opacity: 0.8; stroke: #ffffff; stroke-opacity: 0.8; stroke-width: 0.5"/>
     <use xlink:href="#me98fcc0e6d" x="339.800825" y="112.760974" style="fill: #5e548e; fill-opacity: 0.8; stroke: #ffffff; stroke-opacity: 0.8; stroke-width: 0.5"/>
     <use xlink:href="#me98fcc0e6d" x="338.969164" y="106.873441" style="fill: #5e548e; fill-opacity: 0.8; stroke: #ffffff; stroke-opacity: 0.8; stroke-width: 0.5"/>
     <use xlink:href="#me98fcc0e6d" x="343.023509" y="130.248202" style="fill: #5e548e; fill-opacity: 0.8; stroke: #ffffff; stroke-opacity: 0.8; stroke-width: 0.5"/>
     <use xlink:href="#me98fcc0e6d" x="333.459412" y="139.768469" style="fill: #5e548e; fill-opacity: 0.8; stroke: #ffffff; stroke-opacity: 0.8; stroke-width: 0.5"/>
     <use xlink:href="#me98fcc0e6d" x="129.806522" y="315.567721" style="fill: #5e548e; fill-opacity: 0.8; stroke: #ffffff; stroke-opacity: 0.8; stroke-width: 0.5"/>
     <use xlink:href="#me98fcc0e6d" x="132.301503" y="328.420082" style="fill: #5e548e; fill-opacity: 0.8; stroke: #ffffff; stroke-opacity: 0.8; stroke-width: 0.5"/>
     <use xlink:href="#me98fcc0e6d" x="127.103625" y="333.681282" style="fill: #5e548e; fill-opacity: 0.8; stroke: #ffffff; stroke-opacity: 0.8; stroke-width: 0.5"/>
     <use xlink:href="#me98fcc0e6d" x="126.271964" y="344.472548" style="fill: #5e548e; fill-opacity: 0.8; stroke: #ffffff; stroke-opacity: 0.8; stroke-width: 0.5"/>
     <use xlink:href="#me98fcc0e6d" x="191.141491" y="264.709451" style="fill: #5e548e; fill-opacity: 0.8; stroke: #ffffff; stroke-opacity: 0.8; stroke-width: 0.5"/>
     <use xlink:href="#me98fcc0e6d" x="193.844388" y="260.099637" style="fill: #5e548e; fill-opacity: 0.8; stroke: #ffffff; stroke-opacity: 0.8; stroke-width: 0.5"/>
     <use xlink:href="#me98fcc0e6d" x="193.636473" y="267.590585" style="fill: #5e548e; fill-opacity: 0.8; stroke: #ffffff; stroke-opacity: 0.8; stroke-width: 0.5"/>
     <use xlink:href="#me98fcc0e6d" x="197.898734" y="285.378452" style="fill: #5e548e; fill-opacity: 0.8; stroke: #ffffff; stroke-opacity: 0.8; stroke-width: 0.5"/>
     <use xlink:href="#me98fcc0e6d" x="252.892291" y="199.19498" style="fill: #5e548e; fill-opacity: 0.8; stroke: #ffffff; stroke-opacity: 0.8; stroke-width: 0.5"/>
     <use xlink:href="#me98fcc0e6d" x="254.867485" y="202.50202" style="fill: #5e548e; fill-opacity: 0.8; stroke: #ffffff; stroke-opacity: 0.8; stroke-width: 0.5"/>
     <use xlink:href="#me98fcc0e6d" x="261.10494" y="209.466847" style="fill: #5e548e; fill-opacity: 0.8; stroke: #ffffff; stroke-opacity: 0.8; stroke-width: 0.5"/>
     <use xlink:href="#me98fcc0e6d" x="253.619994" y="220.515368" style="fill: #5e548e; fill-opacity: 0.8; stroke: #ffffff; stroke-opacity: 0.8; stroke-width: 0.5"/>
     <use xlink:href="#me98fcc0e6d" x="316.098497" y="133.254602" style="fill: #5e548e; fill-opacity: 0.8; stroke: #ffffff; stroke-opacity: 0.8; stroke-width: 0.5"/>
     <use xlink:href="#me98fcc0e6d" x="315.99454" y="139.743416" style="fill: #5e548e; fill-opacity: 0.8; stroke: #ffffff; stroke-opacity: 0.8; stroke-width: 0.5"/>
     <use xlink:href="#me98fcc0e6d" x="315.786625" y="154.57499" style="fill: #5e548e; fill-opacity: 0.8; stroke: #ffffff; stroke-opacity: 0.8; stroke-width: 0.5"/>
     <use xlink:href="#me98fcc0e6d" x="316.514328" y="155.627231" style="fill: #5e548e; fill-opacity: 0.8; stroke: #ffffff; stroke-opacity: 0.8; stroke-width: 0.5"/>
     <use xlink:href="#me98fcc0e6d" x="370.780182" y="77.360612" style="fill: #5e548e; fill-opacity: 0.8; stroke: #ffffff; stroke-opacity: 0.8; stroke-width: 0.5"/>
     <use xlink:href="#me98fcc0e6d" x="373.379122" y="67.715078" style="fill: #5e548e; fill-opacity: 0.8; stroke: #ffffff; stroke-opacity: 0.8; stroke-width: 0.5"/>
     <use xlink:href="#me98fcc0e6d" x="371.7158" y="80.467226" style="fill: #5e548e; fill-opacity: 0.8; stroke: #ffffff; stroke-opacity: 0.8; stroke-width: 0.5"/>
     <use xlink:href="#me98fcc0e6d" x="364.750643" y="93.996026" style="fill: #5e548e; fill-opacity: 0.8; stroke: #ffffff; stroke-opacity: 0.8; stroke-width: 0.5"/>
     <use xlink:href="#me98fcc0e6d" x="138.435" y="307.250014" style="fill: #5e548e; fill-opacity: 0.8; stroke: #ffffff; stroke-opacity: 0.8; stroke-width: 0.5"/>
     <use xlink:href="#me98fcc0e6d" x="137.499382" y="319.100241" style="fill: #5e548e; fill-opacity: 0.8; stroke: #ffffff; stroke-opacity: 0.8; stroke-width: 0.5"/>
     <use xlink:href="#me98fcc0e6d" x="137.187509" y="326.040015" style="fill: #5e548e; fill-opacity: 0.8; stroke: #ffffff; stroke-opacity: 0.8; stroke-width: 0.5"/>
     <use xlink:href="#me98fcc0e6d" x="133.341079" y="343.00416" style="fill: #5e548e; fill-opacity: 0.8; stroke: #ffffff; stroke-opacity: 0.8; stroke-width: 0.5"/>
     <use xlink:href="#me98fcc0e6d" x="207.047" y="240.282449" style="fill: #5e548e; fill-opacity: 0.8; stroke: #ffffff; stroke-opacity: 0.8; stroke-width: 0.5"/>
     <use xlink:href="#me98fcc0e6d" x="206.007425" y="253.310184" style="fill: #5e548e; fill-opacity: 0.8; stroke: #ffffff; stroke-opacity: 0.8; stroke-width: 0.5"/>
     <use xlink:href="#me98fcc0e6d" x="206.839085" y="265.210518" style="fill: #5e548e; fill-opacity: 0.8; stroke: #ffffff; stroke-opacity: 0.8; stroke-width: 0.5"/>
     <use xlink:href="#me98fcc0e6d" x="196.33937" y="270.697198" style="fill: #5e548e; fill-opacity: 0.8; stroke: #ffffff; stroke-opacity: 0.8; stroke-width: 0.5"/>
     <use xlink:href="#me98fcc0e6d" x="270.876952" y="180.580352" style="fill: #5e548e; fill-opacity: 0.8; stroke: #ffffff; stroke-opacity: 0.8; stroke-width: 0.5"/>
     <use xlink:href="#me98fcc0e6d" x="276.074831" y="181.657646" style="fill: #5e548e; fill-opacity: 0.8; stroke: #ffffff; stroke-opacity: 0.8; stroke-width: 0.5"/>
     <use xlink:href="#me98fcc0e6d" x="276.490661" y="190.175779" style="fill: #5e548e; fill-opacity: 0.8; stroke: #ffffff; stroke-opacity: 0.8; stroke-width: 0.5"/>
     <use xlink:href="#me98fcc0e6d" x="268.693843" y="209.241367" style="fill: #5e548e; fill-opacity: 0.8; stroke: #ffffff; stroke-opacity: 0.8; stroke-width: 0.5"/>
     <use xlink:href="#me98fcc0e6d" x="335.122734" y="111.433148" style="fill: #5e548e; fill-opacity: 0.8; stroke: #ffffff; stroke-opacity: 0.8; stroke-width: 0.5"/>
     <use xlink:href="#me98fcc0e6d" x="336.682097" y="111.558414" style="fill: #5e548e; fill-opacity: 0.8; stroke: #ffffff; stroke-opacity: 0.8; stroke-width: 0.5"/>
     <use xlink:href="#me98fcc0e6d" x="334.498988" y="117.471001" style="fill: #5e548e; fill-opacity: 0.8; stroke: #ffffff; stroke-opacity: 0.8; stroke-width: 0.5"/>
     <use xlink:href="#me98fcc0e6d" x="327.845703" y="129.621869" style="fill: #5e548e; fill-opacity: 0.8; stroke: #ffffff; stroke-opacity: 0.8; stroke-width: 0.5"/>
     <use xlink:href="#me98fcc0e6d" x="390.740037" y="49.801943" style="fill: #5e548e; fill-opacity: 0.8; stroke: #ffffff; stroke-opacity: 0.8; stroke-width: 0.5"/>
     <use xlink:href="#me98fcc0e6d" x="400.616006" y="44.164943" style="fill: #5e548e; fill-opacity: 0.8; stroke: #ffffff; stroke-opacity: 0.8; stroke-width: 0.5"/>
     <use xlink:href="#me98fcc0e6d" x="398.224982" y="62.854731" style="fill: #5e548e; fill-opacity: 0.8; stroke: #ffffff; stroke-opacity: 0.8; stroke-width: 0.5"/>
     <use xlink:href="#me98fcc0e6d" x="388.8688" y="70.120198" style="fill: #5e548e; fill-opacity: 0.8; stroke: #ffffff; stroke-opacity: 0.8; stroke-width: 0.5"/>
     <use xlink:href="#me98fcc0e6d" x="147.479309" y="300.53572" style="fill: #5e548e; fill-opacity: 0.8; stroke: #ffffff; stroke-opacity: 0.8; stroke-width: 0.5"/>
     <use xlink:href="#me98fcc0e6d" x="146.023903" y="311.208441" style="fill: #5e548e; fill-opacity: 0.8; stroke: #ffffff; stroke-opacity: 0.8; stroke-width: 0.5"/>
     <use xlink:href="#me98fcc0e6d" x="143.944752" y="314.290001" style="fill: #5e548e; fill-opacity: 0.8; stroke: #ffffff; stroke-opacity: 0.8; stroke-width: 0.5"/>
     <use xlink:href="#me98fcc0e6d" x="142.593303" y="326.490975" style="fill: #5e548e; fill-opacity: 0.8; stroke: #ffffff; stroke-opacity: 0.8; stroke-width: 0.5"/>
     <use xlink:href="#me98fcc0e6d" x="217.858588" y="230.586809" style="fill: #5e548e; fill-opacity: 0.8; stroke: #ffffff; stroke-opacity: 0.8; stroke-width: 0.5"/>
     <use xlink:href="#me98fcc0e6d" x="221.289188" y="232.566022" style="fill: #5e548e; fill-opacity: 0.8; stroke: #ffffff; stroke-opacity: 0.8; stroke-width: 0.5"/>
     <use xlink:href="#me98fcc0e6d" x="218.274419" y="255.489824" style="fill: #5e548e; fill-opacity: 0.8; stroke: #ffffff; stroke-opacity: 0.8; stroke-width: 0.5"/>
     <use xlink:href="#me98fcc0e6d" x="217.442758" y="256.291531" style="fill: #5e548e; fill-opacity: 0.8; stroke: #ffffff; stroke-opacity: 0.8; stroke-width: 0.5"/>
     <use xlink:href="#me98fcc0e6d" x="286.158716" y="161.940671" style="fill: #5e548e; fill-opacity: 0.8; stroke: #ffffff; stroke-opacity: 0.8; stroke-width: 0.5"/>
     <use xlink:href="#me98fcc0e6d" x="291.564509" y="165.874045" style="fill: #5e548e; fill-opacity: 0.8; stroke: #ffffff; stroke-opacity: 0.8; stroke-width: 0.5"/>
     <use xlink:href="#me98fcc0e6d" x="290.940764" y="171.836738" style="fill: #5e548e; fill-opacity: 0.8; stroke: #ffffff; stroke-opacity: 0.8; stroke-width: 0.5"/>
     <use xlink:href="#me98fcc0e6d" x="279.401473" y="192.681113" style="fill: #5e548e; fill-opacity: 0.8; stroke: #ffffff; stroke-opacity: 0.8; stroke-width: 0.5"/>
     <use xlink:href="#me98fcc0e6d" x="355.394461" y="97.127693" style="fill: #5e548e; fill-opacity: 0.8; stroke: #ffffff; stroke-opacity: 0.8; stroke-width: 0.5"/>
     <use xlink:href="#me98fcc0e6d" x="356.018206" y="92.918733" style="fill: #5e548e; fill-opacity: 0.8; stroke: #ffffff; stroke-opacity: 0.8; stroke-width: 0.5"/>
     <use xlink:href="#me98fcc0e6d" x="352.483649" y="100.359574" style="fill: #5e548e; fill-opacity: 0.8; stroke: #ffffff; stroke-opacity: 0.8; stroke-width: 0.5"/>
     <use xlink:href="#me98fcc0e6d" x="346.662025" y="119.675695" style="fill: #5e548e; fill-opacity: 0.8; stroke: #ffffff; stroke-opacity: 0.8; stroke-width: 0.5"/>
     <use xlink:href="#me98fcc0e6d" x="422.862928" y="26.301915" style="fill: #5e548e; fill-opacity: 0.8; stroke: #ffffff; stroke-opacity: 0.8; stroke-width: 0.5"/>
     <use xlink:href="#me98fcc0e6d" x="417.457134" y="24.548182" style="fill: #5e548e; fill-opacity: 0.8; stroke: #ffffff; stroke-opacity: 0.8; stroke-width: 0.5"/>
     <use xlink:href="#me98fcc0e6d" x="419.640243" y="29.734222" style="fill: #5e548e; fill-opacity: 0.8; stroke: #ffffff; stroke-opacity: 0.8; stroke-width: 0.5"/>
     <use xlink:href="#me98fcc0e6d" x="408.932612" y="33.968236" style="fill: #5e548e; fill-opacity: 0.8; stroke: #ffffff; stroke-opacity: 0.8; stroke-width: 0.5"/>
    </g>
   </g>
   <g id="PathCollection_2">
    <defs>
     <path id="mbbb8865073" d="M 0 3.535534 
C 0.937635 3.535534 1.836992 3.163008 2.5 2.5 
C 3.163008 1.836992 3.535534 0.937635 3.535534 0 
C 3.535534 -0.937635 3.163008 -1.836992 2.5 -2.5 
C 1.836992 -3.163008 0.937635 -3.535534 0 -3.535534 
C -0.937635 -3.535534 -1.836992 -3.163008 -2.5 -2.5 
C -3.163008 -1.836992 -3.535534 -0.937635 -3.535534 0 
C -3.535534 0.937635 -3.163008 1.836992 -2.5 2.5 
C -1.836992 3.163008 -0.937635 3.535534 0 3.535534 
z
" style="stroke: #ffffff; stroke-opacity: 0.8; stroke-width: 0.5"/>
    </defs>
    <g clip-path="url(#p0f3855eafd)">
     <use xlink:href="#mbbb8865073" x="107.14377" y="336.787896" style="fill: #e85d04; fill-opacity: 0.8; stroke: #ffffff; stroke-opacity: 0.8; stroke-width: 0.5"/>
     <use xlink:href="#mbbb8865073" x="109.430837" y="334.357722" style="fill: #e85d04; fill-opacity: 0.8; stroke: #ffffff; stroke-opacity: 0.8; stroke-width: 0.5"/>
     <use xlink:href="#mbbb8865073" x="109.846667" y="342.112497" style="fill: #e85d04; fill-opacity: 0.8; stroke: #ffffff; stroke-opacity: 0.8; stroke-width: 0.5"/>
     <use xlink:href="#mbbb8865073" x="109.326879" y="348.62805" style="fill: #e85d04; fill-opacity: 0.8; stroke: #ffffff; stroke-opacity: 0.8; stroke-width: 0.5"/>
     <use xlink:href="#mbbb8865073" x="157.563194" y="298.180707" style="fill: #e85d04; fill-opacity: 0.8; stroke: #ffffff; stroke-opacity: 0.8; stroke-width: 0.5"/>
     <use xlink:href="#mbbb8865073" x="164.112522" y="300.059707" style="fill: #e85d04; fill-opacity: 0.8; stroke: #ffffff; stroke-opacity: 0.8; stroke-width: 0.5"/>
     <use xlink:href="#mbbb8865073" x="164.320437" y="301.537854" style="fill: #e85d04; fill-opacity: 0.8; stroke: #ffffff; stroke-opacity: 0.8; stroke-width: 0.5"/>
     <use xlink:href="#mbbb8865073" x="161.305667" y="308.327307" style="fill: #e85d04; fill-opacity: 0.8; stroke: #ffffff; stroke-opacity: 0.8; stroke-width: 0.5"/>
     <use xlink:href="#mbbb8865073" x="210.4776" y="266.638558" style="fill: #e85d04; fill-opacity: 0.8; stroke: #ffffff; stroke-opacity: 0.8; stroke-width: 0.5"/>
     <use xlink:href="#mbbb8865073" x="216.091309" y="266.287811" style="fill: #e85d04; fill-opacity: 0.8; stroke: #ffffff; stroke-opacity: 0.8; stroke-width: 0.5"/>
     <use xlink:href="#mbbb8865073" x="213.388412" y="266.563398" style="fill: #e85d04; fill-opacity: 0.8; stroke: #ffffff; stroke-opacity: 0.8; stroke-width: 0.5"/>
     <use xlink:href="#mbbb8865073" x="216.611097" y="273.177478" style="fill: #e85d04; fill-opacity: 0.8; stroke: #ffffff; stroke-opacity: 0.8; stroke-width: 0.5"/>
     <use xlink:href="#mbbb8865073" x="252.996249" y="237.451423" style="fill: #e85d04; fill-opacity: 0.8; stroke: #ffffff; stroke-opacity: 0.8; stroke-width: 0.5"/>
     <use xlink:href="#mbbb8865073" x="261.832643" y="232.039902" style="fill: #e85d04; fill-opacity: 0.8; stroke: #ffffff; stroke-opacity: 0.8; stroke-width: 0.5"/>
     <use xlink:href="#mbbb8865073" x="264.53554" y="233.994062" style="fill: #e85d04; fill-opacity: 0.8; stroke: #ffffff; stroke-opacity: 0.8; stroke-width: 0.5"/>
     <use xlink:href="#mbbb8865073" x="263.807837" y="238.403449" style="fill: #e85d04; fill-opacity: 0.8; stroke: #ffffff; stroke-opacity: 0.8; stroke-width: 0.5"/>
     <use xlink:href="#mbbb8865073" x="301.128606" y="207.537741" style="fill: #e85d04; fill-opacity: 0.8; stroke: #ffffff; stroke-opacity: 0.8; stroke-width: 0.5"/>
     <use xlink:href="#mbbb8865073" x="306.11857" y="205.533474" style="fill: #e85d04; fill-opacity: 0.8; stroke: #ffffff; stroke-opacity: 0.8; stroke-width: 0.5"/>
     <use xlink:href="#mbbb8865073" x="310.588746" y="201.499887" style="fill: #e85d04; fill-opacity: 0.8; stroke: #ffffff; stroke-opacity: 0.8; stroke-width: 0.5"/>
     <use xlink:href="#mbbb8865073" x="307.677934" y="205.007354" style="fill: #e85d04; fill-opacity: 0.8; stroke: #ffffff; stroke-opacity: 0.8; stroke-width: 0.5"/>
     <use xlink:href="#mbbb8865073" x="116.811825" y="328.194602" style="fill: #e85d04; fill-opacity: 0.8; stroke: #ffffff; stroke-opacity: 0.8; stroke-width: 0.5"/>
     <use xlink:href="#mbbb8865073" x="117.539528" y="329.196735" style="fill: #e85d04; fill-opacity: 0.8; stroke: #ffffff; stroke-opacity: 0.8; stroke-width: 0.5"/>
     <use xlink:href="#mbbb8865073" x="117.643485" y="334.457936" style="fill: #e85d04; fill-opacity: 0.8; stroke: #ffffff; stroke-opacity: 0.8; stroke-width: 0.5"/>
     <use xlink:href="#mbbb8865073" x="116.395994" y="338.391309" style="fill: #e85d04; fill-opacity: 0.8; stroke: #ffffff; stroke-opacity: 0.8; stroke-width: 0.5"/>
     <use xlink:href="#mbbb8865073" x="177.003261" y="290.664706" style="fill: #e85d04; fill-opacity: 0.8; stroke: #ffffff; stroke-opacity: 0.8; stroke-width: 0.5"/>
     <use xlink:href="#mbbb8865073" x="180.641776" y="286.681226" style="fill: #e85d04; fill-opacity: 0.8; stroke: #ffffff; stroke-opacity: 0.8; stroke-width: 0.5"/>
     <use xlink:href="#mbbb8865073" x="182.928843" y="291.466413" style="fill: #e85d04; fill-opacity: 0.8; stroke: #ffffff; stroke-opacity: 0.8; stroke-width: 0.5"/>
     <use xlink:href="#mbbb8865073" x="180.745734" y="296.276653" style="fill: #e85d04; fill-opacity: 0.8; stroke: #ffffff; stroke-opacity: 0.8; stroke-width: 0.5"/>
     <use xlink:href="#mbbb8865073" x="230.437455" y="250.328837" style="fill: #e85d04; fill-opacity: 0.8; stroke: #ffffff; stroke-opacity: 0.8; stroke-width: 0.5"/>
     <use xlink:href="#mbbb8865073" x="231.996819" y="249.652397" style="fill: #e85d04; fill-opacity: 0.8; stroke: #ffffff; stroke-opacity: 0.8; stroke-width: 0.5"/>
     <use xlink:href="#mbbb8865073" x="236.882825" y="251.681717" style="fill: #e85d04; fill-opacity: 0.8; stroke: #ffffff; stroke-opacity: 0.8; stroke-width: 0.5"/>
     <use xlink:href="#mbbb8865073" x="232.828479" y="257.093237" style="fill: #e85d04; fill-opacity: 0.8; stroke: #ffffff; stroke-opacity: 0.8; stroke-width: 0.5"/>
     <use xlink:href="#mbbb8865073" x="283.559776" y="214.702994" style="fill: #e85d04; fill-opacity: 0.8; stroke: #ffffff; stroke-opacity: 0.8; stroke-width: 0.5"/>
     <use xlink:href="#mbbb8865073" x="292.500128" y="215.028688" style="fill: #e85d04; fill-opacity: 0.8; stroke: #ffffff; stroke-opacity: 0.8; stroke-width: 0.5"/>
     <use xlink:href="#mbbb8865073" x="285.742885" y="211.821861" style="fill: #e85d04; fill-opacity: 0.8; stroke: #ffffff; stroke-opacity: 0.8; stroke-width: 0.5"/>
     <use xlink:href="#mbbb8865073" x="285.846843" y="217.508968" style="fill: #e85d04; fill-opacity: 0.8; stroke: #ffffff; stroke-opacity: 0.8; stroke-width: 0.5"/>
     <use xlink:href="#mbbb8865073" x="339.800825" y="185.465752" style="fill: #e85d04; fill-opacity: 0.8; stroke: #ffffff; stroke-opacity: 0.8; stroke-width: 0.5"/>
     <use xlink:href="#mbbb8865073" x="338.969164" y="177.398579" style="fill: #e85d04; fill-opacity: 0.8; stroke: #ffffff; stroke-opacity: 0.8; stroke-width: 0.5"/>
     <use xlink:href="#mbbb8865073" x="343.023509" y="174.417232" style="fill: #e85d04; fill-opacity: 0.8; stroke: #ffffff; stroke-opacity: 0.8; stroke-width: 0.5"/>
     <use xlink:href="#mbbb8865073" x="333.459412" y="179.578219" style="fill: #e85d04; fill-opacity: 0.8; stroke: #ffffff; stroke-opacity: 0.8; stroke-width: 0.5"/>
     <use xlink:href="#mbbb8865073" x="129.806522" y="321.279882" style="fill: #e85d04; fill-opacity: 0.8; stroke: #ffffff; stroke-opacity: 0.8; stroke-width: 0.5"/>
     <use xlink:href="#mbbb8865073" x="132.301503" y="323.234042" style="fill: #e85d04; fill-opacity: 0.8; stroke: #ffffff; stroke-opacity: 0.8; stroke-width: 0.5"/>
     <use xlink:href="#mbbb8865073" x="127.103625" y="326.966989" style="fill: #e85d04; fill-opacity: 0.8; stroke: #ffffff; stroke-opacity: 0.8; stroke-width: 0.5"/>
     <use xlink:href="#mbbb8865073" x="126.271964" y="335.961136" style="fill: #e85d04; fill-opacity: 0.8; stroke: #ffffff; stroke-opacity: 0.8; stroke-width: 0.5"/>
     <use xlink:href="#mbbb8865073" x="191.141491" y="279.566079" style="fill: #e85d04; fill-opacity: 0.8; stroke: #ffffff; stroke-opacity: 0.8; stroke-width: 0.5"/>
     <use xlink:href="#mbbb8865073" x="193.844388" y="278.062879" style="fill: #e85d04; fill-opacity: 0.8; stroke: #ffffff; stroke-opacity: 0.8; stroke-width: 0.5"/>
     <use xlink:href="#mbbb8865073" x="193.636473" y="279.090065" style="fill: #e85d04; fill-opacity: 0.8; stroke: #ffffff; stroke-opacity: 0.8; stroke-width: 0.5"/>
     <use xlink:href="#mbbb8865073" x="197.898734" y="286.656173" style="fill: #e85d04; fill-opacity: 0.8; stroke: #ffffff; stroke-opacity: 0.8; stroke-width: 0.5"/>
     <use xlink:href="#mbbb8865073" x="252.892291" y="238.453556" style="fill: #e85d04; fill-opacity: 0.8; stroke: #ffffff; stroke-opacity: 0.8; stroke-width: 0.5"/>
     <use xlink:href="#mbbb8865073" x="254.867485" y="233.893849" style="fill: #e85d04; fill-opacity: 0.8; stroke: #ffffff; stroke-opacity: 0.8; stroke-width: 0.5"/>
     <use xlink:href="#mbbb8865073" x="261.10494" y="236.071971" style="fill: #e85d04; fill-opacity: 0.8; stroke: #ffffff; stroke-opacity: 0.8; stroke-width: 0.5"/>
     <use xlink:href="#mbbb8865073" x="253.619994" y="239.766705" style="fill: #e85d04; fill-opacity: 0.8; stroke: #ffffff; stroke-opacity: 0.8; stroke-width: 0.5"/>
     <use xlink:href="#mbbb8865073" x="316.098497" y="198.9695" style="fill: #e85d04; fill-opacity: 0.8; stroke: #ffffff; stroke-opacity: 0.8; stroke-width: 0.5"/>
     <use xlink:href="#mbbb8865073" x="315.99454" y="193.583033" style="fill: #e85d04; fill-opacity: 0.8; stroke: #ffffff; stroke-opacity: 0.8; stroke-width: 0.5"/>
     <use xlink:href="#mbbb8865073" x="315.786625" y="192.230153" style="fill: #e85d04; fill-opacity: 0.8; stroke: #ffffff; stroke-opacity: 0.8; stroke-width: 0.5"/>
     <use xlink:href="#mbbb8865073" x="316.514328" y="197.416193" style="fill: #e85d04; fill-opacity: 0.8; stroke: #ffffff; stroke-opacity: 0.8; stroke-width: 0.5"/>
     <use xlink:href="#mbbb8865073" x="370.780182" y="159.936404" style="fill: #e85d04; fill-opacity: 0.8; stroke: #ffffff; stroke-opacity: 0.8; stroke-width: 0.5"/>
     <use xlink:href="#mbbb8865073" x="373.379122" y="154.625097" style="fill: #e85d04; fill-opacity: 0.8; stroke: #ffffff; stroke-opacity: 0.8; stroke-width: 0.5"/>
     <use xlink:href="#mbbb8865073" x="371.7158" y="152.595777" style="fill: #e85d04; fill-opacity: 0.8; stroke: #ffffff; stroke-opacity: 0.8; stroke-width: 0.5"/>
     <use xlink:href="#mbbb8865073" x="364.750643" y="154.524884" style="fill: #e85d04; fill-opacity: 0.8; stroke: #ffffff; stroke-opacity: 0.8; stroke-width: 0.5"/>
     <use xlink:href="#mbbb8865073" x="138.435" y="317.747361" style="fill: #e85d04; fill-opacity: 0.8; stroke: #ffffff; stroke-opacity: 0.8; stroke-width: 0.5"/>
     <use xlink:href="#mbbb8865073" x="137.499382" y="319.375828" style="fill: #e85d04; fill-opacity: 0.8; stroke: #ffffff; stroke-opacity: 0.8; stroke-width: 0.5"/>
     <use xlink:href="#mbbb8865073" x="137.187509" y="320.528281" style="fill: #e85d04; fill-opacity: 0.8; stroke: #ffffff; stroke-opacity: 0.8; stroke-width: 0.5"/>
     <use xlink:href="#mbbb8865073" x="133.341079" y="328.269762" style="fill: #e85d04; fill-opacity: 0.8; stroke: #ffffff; stroke-opacity: 0.8; stroke-width: 0.5"/>
     <use xlink:href="#mbbb8865073" x="207.047" y="271.799545" style="fill: #e85d04; fill-opacity: 0.8; stroke: #ffffff; stroke-opacity: 0.8; stroke-width: 0.5"/>
     <use xlink:href="#mbbb8865073" x="206.007425" y="270.371505" style="fill: #e85d04; fill-opacity: 0.8; stroke: #ffffff; stroke-opacity: 0.8; stroke-width: 0.5"/>
     <use xlink:href="#mbbb8865073" x="206.839085" y="272.050078" style="fill: #e85d04; fill-opacity: 0.8; stroke: #ffffff; stroke-opacity: 0.8; stroke-width: 0.5"/>
     <use xlink:href="#mbbb8865073" x="196.33937" y="276.584732" style="fill: #e85d04; fill-opacity: 0.8; stroke: #ffffff; stroke-opacity: 0.8; stroke-width: 0.5"/>
     <use xlink:href="#mbbb8865073" x="270.876952" y="225.926889" style="fill: #e85d04; fill-opacity: 0.8; stroke: #ffffff; stroke-opacity: 0.8; stroke-width: 0.5"/>
     <use xlink:href="#mbbb8865073" x="276.074831" y="222.870382" style="fill: #e85d04; fill-opacity: 0.8; stroke: #ffffff; stroke-opacity: 0.8; stroke-width: 0.5"/>
     <use xlink:href="#mbbb8865073" x="276.490661" y="221.793088" style="fill: #e85d04; fill-opacity: 0.8; stroke: #ffffff; stroke-opacity: 0.8; stroke-width: 0.5"/>
     <use xlink:href="#mbbb8865073" x="268.693843" y="228.582542" style="fill: #e85d04; fill-opacity: 0.8; stroke: #ffffff; stroke-opacity: 0.8; stroke-width: 0.5"/>
     <use xlink:href="#mbbb8865073" x="335.122734" y="180.655512" style="fill: #e85d04; fill-opacity: 0.8; stroke: #ffffff; stroke-opacity: 0.8; stroke-width: 0.5"/>
     <use xlink:href="#mbbb8865073" x="336.682097" y="179.778645" style="fill: #e85d04; fill-opacity: 0.8; stroke: #ffffff; stroke-opacity: 0.8; stroke-width: 0.5"/>
     <use xlink:href="#mbbb8865073" x="334.498988" y="177.022779" style="fill: #e85d04; fill-opacity: 0.8; stroke: #ffffff; stroke-opacity: 0.8; stroke-width: 0.5"/>
     <use xlink:href="#mbbb8865073" x="327.845703" y="176.728465" style="fill: #e85d04; fill-opacity: 0.8; stroke: #ffffff; stroke-opacity: 0.8; stroke-width: 0.5"/>
     <use xlink:href="#mbbb8865073" x="390.740037" y="138.716229" style="fill: #e85d04; fill-opacity: 0.8; stroke: #ffffff; stroke-opacity: 0.8; stroke-width: 0.5"/>
     <use xlink:href="#mbbb8865073" x="400.616006" y="131.475816" style="fill: #e85d04; fill-opacity: 0.8; stroke: #ffffff; stroke-opacity: 0.8; stroke-width: 0.5"/>
     <use xlink:href="#mbbb8865073" x="398.224982" y="131.100016" style="fill: #e85d04; fill-opacity: 0.8; stroke: #ffffff; stroke-opacity: 0.8; stroke-width: 0.5"/>
     <use xlink:href="#mbbb8865073" x="388.8688" y="134.306842" style="fill: #e85d04; fill-opacity: 0.8; stroke: #ffffff; stroke-opacity: 0.8; stroke-width: 0.5"/>
     <use xlink:href="#mbbb8865073" x="147.479309" y="312.085308" style="fill: #e85d04; fill-opacity: 0.8; stroke: #ffffff; stroke-opacity: 0.8; stroke-width: 0.5"/>
     <use xlink:href="#mbbb8865073" x="146.023903" y="314.390214" style="fill: #e85d04; fill-opacity: 0.8; stroke: #ffffff; stroke-opacity: 0.8; stroke-width: 0.5"/>
     <use xlink:href="#mbbb8865073" x="143.944752" y="315.843308" style="fill: #e85d04; fill-opacity: 0.8; stroke: #ffffff; stroke-opacity: 0.8; stroke-width: 0.5"/>
     <use xlink:href="#mbbb8865073" x="142.593303" y="321.405148" style="fill: #e85d04; fill-opacity: 0.8; stroke: #ffffff; stroke-opacity: 0.8; stroke-width: 0.5"/>
     <use xlink:href="#mbbb8865073" x="217.858588" y="261.978638" style="fill: #e85d04; fill-opacity: 0.8; stroke: #ffffff; stroke-opacity: 0.8; stroke-width: 0.5"/>
     <use xlink:href="#mbbb8865073" x="221.289188" y="260.325117" style="fill: #e85d04; fill-opacity: 0.8; stroke: #ffffff; stroke-opacity: 0.8; stroke-width: 0.5"/>
     <use xlink:href="#mbbb8865073" x="218.274419" y="262.404544" style="fill: #e85d04; fill-opacity: 0.8; stroke: #ffffff; stroke-opacity: 0.8; stroke-width: 0.5"/>
     <use xlink:href="#mbbb8865073" x="217.442758" y="265.636424" style="fill: #e85d04; fill-opacity: 0.8; stroke: #ffffff; stroke-opacity: 0.8; stroke-width: 0.5"/>
     <use xlink:href="#mbbb8865073" x="286.158716" y="213.450328" style="fill: #e85d04; fill-opacity: 0.8; stroke: #ffffff; stroke-opacity: 0.8; stroke-width: 0.5"/>
     <use xlink:href="#mbbb8865073" x="291.564509" y="210.043074" style="fill: #e85d04; fill-opacity: 0.8; stroke: #ffffff; stroke-opacity: 0.8; stroke-width: 0.5"/>
     <use xlink:href="#mbbb8865073" x="290.940764" y="210.243501" style="fill: #e85d04; fill-opacity: 0.8; stroke: #ffffff; stroke-opacity: 0.8; stroke-width: 0.5"/>
     <use xlink:href="#mbbb8865073" x="279.401473" y="213.400221" style="fill: #e85d04; fill-opacity: 0.8; stroke: #ffffff; stroke-opacity: 0.8; stroke-width: 0.5"/>
     <use xlink:href="#mbbb8865073" x="355.394461" y="163.468924" style="fill: #e85d04; fill-opacity: 0.8; stroke: #ffffff; stroke-opacity: 0.8; stroke-width: 0.5"/>
     <use xlink:href="#mbbb8865073" x="356.018206" y="160.487578" style="fill: #e85d04; fill-opacity: 0.8; stroke: #ffffff; stroke-opacity: 0.8; stroke-width: 0.5"/>
     <use xlink:href="#mbbb8865073" x="352.483649" y="160.612844" style="fill: #e85d04; fill-opacity: 0.8; stroke: #ffffff; stroke-opacity: 0.8; stroke-width: 0.5"/>
     <use xlink:href="#mbbb8865073" x="346.662025" y="164.771698" style="fill: #e85d04; fill-opacity: 0.8; stroke: #ffffff; stroke-opacity: 0.8; stroke-width: 0.5"/>
     <use xlink:href="#mbbb8865073" x="422.862928" y="115.366521" style="fill: #e85d04; fill-opacity: 0.8; stroke: #ffffff; stroke-opacity: 0.8; stroke-width: 0.5"/>
     <use xlink:href="#mbbb8865073" x="417.457134" y="110.957134" style="fill: #e85d04; fill-opacity: 0.8; stroke: #ffffff; stroke-opacity: 0.8; stroke-width: 0.5"/>
     <use xlink:href="#mbbb8865073" x="419.640243" y="110.030161" style="fill: #e85d04; fill-opacity: 0.8; stroke: #ffffff; stroke-opacity: 0.8; stroke-width: 0.5"/>
     <use xlink:href="#mbbb8865073" x="408.932612" y="109.504041" style="fill: #e85d04; fill-opacity: 0.8; stroke: #ffffff; stroke-opacity: 0.8; stroke-width: 0.5"/>
    </g>
   </g>
   <g id="matplotlib.axis_1">
    <g id="xtick_1">
     <g id="line2d_1">
      <defs>
       <path id="mea7c0fde45" d="M 0 0 
L 0 4 
" style="stroke: #000000; stroke-width: 0.8"/>
      </defs>
      <g>
       <use xlink:href="#mea7c0fde45" x="113.797055" y="388.86" style="stroke: #000000; stroke-width: 0.8"/>
      </g>
     </g>
     <g id="text_1">
      <!-- 20 -->
      <g transform="translate(105.397055 406.16) scale(0.14 -0.14)">
       <defs>
        <path id="Figtree-Regular-32" d="M 365 0 
L 365 448 
Q 365 659 451 867 
Q 538 1075 701 1280 
Q 864 1485 1101 1664 
L 2029 2362 
Q 2195 2477 2320 2627 
Q 2445 2778 2515 2941 
Q 2586 3104 2586 3258 
Q 2586 3482 2477 3664 
Q 2368 3846 2169 3955 
Q 1971 4064 1702 4064 
Q 1440 4064 1241 3965 
Q 1043 3866 915 3702 
Q 787 3539 730 3354 
L 179 3462 
Q 256 3750 457 4000 
Q 659 4250 972 4403 
Q 1286 4557 1670 4557 
Q 2118 4557 2444 4387 
Q 2771 4218 2953 3926 
Q 3136 3635 3136 3264 
Q 3136 2912 2944 2598 
Q 2752 2285 2387 1990 
L 1510 1325 
Q 1254 1133 1116 921 
Q 979 710 960 480 
L 3200 480 
L 3200 0 
L 365 0 
z
" transform="scale(0.015625)"/>
        <path id="Figtree-Regular-30" d="M 2048 -77 
Q 1536 -77 1139 220 
Q 742 518 518 1040 
Q 294 1562 294 2240 
Q 294 2918 518 3440 
Q 742 3962 1136 4259 
Q 1530 4557 2048 4557 
Q 2566 4557 2960 4259 
Q 3354 3962 3581 3440 
Q 3808 2918 3808 2240 
Q 3808 1562 3584 1040 
Q 3360 518 2963 220 
Q 2566 -77 2048 -77 
z
M 2048 410 
Q 2406 410 2684 646 
Q 2963 883 3120 1292 
Q 3277 1702 3277 2240 
Q 3277 2778 3120 3190 
Q 2963 3603 2684 3836 
Q 2406 4070 2048 4070 
Q 1690 4070 1414 3836 
Q 1139 3603 982 3190 
Q 826 2778 826 2240 
Q 826 1702 982 1292 
Q 1139 883 1417 646 
Q 1696 410 2048 410 
z
" transform="scale(0.015625)"/>
       </defs>
       <use xlink:href="#Figtree-Regular-32"/>
       <use xlink:href="#Figtree-Regular-30" x="55.899994"/>
      </g>
     </g>
    </g>
    <g id="xtick_2">
     <g id="line2d_2">
      <g>
       <use xlink:href="#mea7c0fde45" x="217.754631" y="388.86" style="stroke: #000000; stroke-width: 0.8"/>
      </g>
     </g>
     <g id="text_2">
      <!-- 40 -->
      <g transform="translate(208.921506 406.16) scale(0.14 -0.14)">
       <defs>
        <path id="Figtree-Regular-34" d="M 2342 0 
L 2342 1088 
L 275 1088 
L 275 1504 
L 2317 4480 
L 2867 4480 
L 2867 1568 
L 3782 1568 
L 3782 1088 
L 2867 1088 
L 2867 0 
L 2342 0 
z
M 896 1568 
L 2342 1568 
L 2342 3693 
L 896 1568 
z
" transform="scale(0.015625)"/>
       </defs>
       <use xlink:href="#Figtree-Regular-34"/>
       <use xlink:href="#Figtree-Regular-30" x="62.099991"/>
      </g>
     </g>
    </g>
    <g id="xtick_3">
     <g id="line2d_3">
      <g>
       <use xlink:href="#mea7c0fde45" x="321.712206" y="388.86" style="stroke: #000000; stroke-width: 0.8"/>
      </g>
     </g>
     <g id="text_3">
      <!-- 60 -->
      <g transform="translate(313.264081 406.16) scale(0.14 -0.14)">
       <defs>
        <path id="Figtree-Regular-36" d="M 1907 -77 
Q 1446 -77 1132 99 
Q 819 275 633 576 
Q 448 877 368 1270 
Q 288 1664 288 2106 
Q 288 2682 406 3136 
Q 525 3590 749 3907 
Q 973 4224 1293 4390 
Q 1613 4557 2016 4557 
Q 2349 4557 2678 4451 
Q 3008 4346 3264 4160 
L 2963 3776 
Q 2758 3917 2521 3997 
Q 2285 4077 2067 4077 
Q 1414 4077 1075 3526 
Q 736 2976 774 1856 
L 659 1971 
Q 813 2362 1152 2589 
Q 1491 2816 1952 2816 
Q 2381 2816 2717 2630 
Q 3053 2445 3241 2115 
Q 3430 1786 3430 1363 
Q 3430 947 3238 617 
Q 3046 288 2704 105 
Q 2362 -77 1907 -77 
z
M 1907 397 
Q 2195 397 2416 521 
Q 2637 646 2761 867 
Q 2886 1088 2886 1376 
Q 2886 1664 2761 1885 
Q 2637 2106 2416 2227 
Q 2195 2349 1907 2349 
Q 1626 2349 1402 2227 
Q 1178 2106 1050 1885 
Q 922 1664 922 1376 
Q 922 1088 1050 867 
Q 1178 646 1402 521 
Q 1626 397 1907 397 
z
" transform="scale(0.015625)"/>
       </defs>
       <use xlink:href="#Figtree-Regular-36"/>
       <use xlink:href="#Figtree-Regular-30" x="56.599991"/>
      </g>
     </g>
    </g>
    <g id="xtick_4">
     <g id="line2d_4">
      <g>
       <use xlink:href="#mea7c0fde45" x="425.669782" y="388.86" style="stroke: #000000; stroke-width: 0.8"/>
      </g>
     </g>
     <g id="text_4">
      <!-- 80 -->
      <g transform="translate(416.884782 406.16) scale(0.14 -0.14)">
       <defs>
        <path id="Figtree-Regular-38" d="M 1958 -77 
Q 1478 -77 1113 80 
Q 749 237 550 515 
Q 352 794 352 1165 
Q 352 1555 550 1849 
Q 749 2144 1113 2307 
Q 1478 2470 1958 2470 
Q 2451 2470 2812 2307 
Q 3174 2144 3376 1849 
Q 3578 1555 3578 1165 
Q 3578 794 3376 515 
Q 3174 237 2812 80 
Q 2451 -77 1958 -77 
z
M 1958 397 
Q 2432 397 2733 624 
Q 3034 851 3034 1216 
Q 3034 1587 2733 1820 
Q 2432 2054 1958 2054 
Q 1651 2054 1411 1948 
Q 1171 1843 1033 1654 
Q 896 1466 896 1216 
Q 896 973 1033 787 
Q 1171 602 1411 499 
Q 1651 397 1958 397 
z
M 1958 2157 
Q 1530 2157 1203 2307 
Q 877 2458 697 2723 
Q 518 2989 518 3341 
Q 518 3699 697 3974 
Q 877 4250 1203 4403 
Q 1530 4557 1958 4557 
Q 2400 4557 2723 4403 
Q 3046 4250 3228 3974 
Q 3411 3699 3411 3341 
Q 3411 2989 3228 2723 
Q 3046 2458 2723 2307 
Q 2400 2157 1958 2157 
z
M 1958 2560 
Q 2362 2560 2621 2761 
Q 2880 2963 2880 3290 
Q 2880 3648 2621 3869 
Q 2362 4090 1958 4090 
Q 1562 4090 1306 3869 
Q 1050 3648 1050 3290 
Q 1050 2963 1306 2761 
Q 1562 2560 1958 2560 
z
" transform="scale(0.015625)"/>
       </defs>
       <use xlink:href="#Figtree-Regular-38"/>
       <use xlink:href="#Figtree-Regular-30" x="61.399994"/>
      </g>
     </g>
    </g>
    <g id="xtick_5">
     <g id="line2d_5">
      <g>
       <use xlink:href="#mea7c0fde45" x="529.627358" y="388.86" style="stroke: #000000; stroke-width: 0.8"/>
      </g>
     </g>
     <g id="text_5">
      <!-- 100 -->
      <g transform="translate(517.763452 406.16) scale(0.14 -0.14)">
       <defs>
        <path id="Figtree-Regular-31" d="M 1389 0 
L 1389 4192 
L 1434 4480 
L 1920 4480 
L 1920 0 
L 1389 0 
z
M 384 3328 
L 384 3821 
Q 518 3814 704 3910 
Q 890 4006 1088 4160 
Q 1286 4314 1434 4480 
L 1766 4115 
Q 1555 3891 1324 3712 
Q 1094 3533 857 3427 
Q 621 3322 384 3328 
z
" transform="scale(0.015625)"/>
       </defs>
       <use xlink:href="#Figtree-Regular-31"/>
       <use xlink:href="#Figtree-Regular-30" x="41.299988"/>
       <use xlink:href="#Figtree-Regular-30" x="105.399979"/>
      </g>
     </g>
    </g>
   </g>
   <g id="matplotlib.axis_2">
    <g id="ytick_1">
     <g id="line2d_6">
      <defs>
       <path id="mb95ee23419" d="M 0 0 
L -4 0 
" style="stroke: #000000; stroke-width: 0.8"/>
      </defs>
      <g>
       <use xlink:href="#mb95ee23419" x="38.427813" y="346.458483" style="stroke: #000000; stroke-width: 0.8"/>
      </g>
     </g>
     <g id="text_6">
      <!-- 20 -->
      <g transform="translate(14.127813 351.358483) scale(0.14 -0.14)">
       <use xlink:href="#Figtree-Regular-32"/>
       <use xlink:href="#Figtree-Regular-30" x="55.899994"/>
      </g>
     </g>
    </g>
    <g id="ytick_2">
     <g id="line2d_7">
      <g>
       <use xlink:href="#mb95ee23419" x="38.427813" y="296.351813" style="stroke: #000000; stroke-width: 0.8"/>
      </g>
     </g>
     <g id="text_7">
      <!-- 40 -->
      <g transform="translate(13.261563 301.251813) scale(0.14 -0.14)">
       <use xlink:href="#Figtree-Regular-34"/>
       <use xlink:href="#Figtree-Regular-30" x="62.099991"/>
      </g>
     </g>
    </g>
    <g id="ytick_3">
     <g id="line2d_8">
      <g>
       <use xlink:href="#mb95ee23419" x="38.427813" y="246.245143" style="stroke: #000000; stroke-width: 0.8"/>
      </g>
     </g>
     <g id="text_8">
      <!-- 60 -->
      <g transform="translate(14.031562 251.145143) scale(0.14 -0.14)">
       <use xlink:href="#Figtree-Regular-36"/>
       <use xlink:href="#Figtree-Regular-30" x="56.599991"/>
      </g>
     </g>
    </g>
    <g id="ytick_4">
     <g id="line2d_9">
      <g>
       <use xlink:href="#mb95ee23419" x="38.427813" y="196.138473" style="stroke: #000000; stroke-width: 0.8"/>
      </g>
     </g>
     <g id="text_9">
      <!-- 80 -->
      <g transform="translate(13.357813 201.038473) scale(0.14 -0.14)">
       <use xlink:href="#Figtree-Regular-38"/>
       <use xlink:href="#Figtree-Regular-30" x="61.399994"/>
      </g>
     </g>
    </g>
    <g id="ytick_5">
     <g id="line2d_10">
      <g>
       <use xlink:href="#mb95ee23419" x="38.427813" y="146.031803" style="stroke: #000000; stroke-width: 0.8"/>
      </g>
     </g>
     <g id="text_10">
      <!-- 100 -->
      <g transform="translate(7.2 150.931803) scale(0.14 -0.14)">
       <use xlink:href="#Figtree-Regular-31"/>
       <use xlink:href="#Figtree-Regular-30" x="41.299988"/>
       <use xlink:href="#Figtree-Regular-30" x="105.399979"/>
      </g>
     </g>
    </g>
    <g id="ytick_6">
     <g id="line2d_11">
      <g>
       <use xlink:href="#mb95ee23419" x="38.427813" y="95.925133" style="stroke: #000000; stroke-width: 0.8"/>
      </g>
     </g>
     <g id="text_11">
      <!-- 120 -->
      <g transform="translate(8.34625 100.825133) scale(0.14 -0.14)">
       <use xlink:href="#Figtree-Regular-31"/>
       <use xlink:href="#Figtree-Regular-32" x="41.299988"/>
       <use xlink:href="#Figtree-Regular-30" x="97.199982"/>
      </g>
     </g>
    </g>
    <g id="ytick_7">
     <g id="line2d_12">
      <g>
       <use xlink:href="#mb95ee23419" x="38.427813" y="45.818463" style="stroke: #000000; stroke-width: 0.8"/>
      </g>
     </g>
     <g id="text_12">
      <!-- 140 -->
      <g transform="translate(7.48 50.718463) scale(0.14 -0.14)">
       <use xlink:href="#Figtree-Regular-31"/>
       <use xlink:href="#Figtree-Regular-34" x="41.299988"/>
       <use xlink:href="#Figtree-Regular-30" x="103.399979"/>
      </g>
     </g>
    </g>
   </g>
   <g id="line2d_13">
    <path d="M 61.818267 371.511818 
L 529.627358 146.031803 
" clip-path="url(#p0f3855eafd)" style="fill: none; stroke-dasharray: 11.1,4.8; stroke-dashoffset: 0; stroke: #000000; stroke-width: 3"/>
   </g>
   <g id="patch_3">
    <path d="M 38.427813 388.86 
L 38.427813 7.2 
" style="fill: none; stroke: #000000; stroke-linejoin: miter; stroke-linecap: square"/>
   </g>
   <g id="patch_4">
    <path d="M 38.427813 388.86 
L 553.017812 388.86 
" style="fill: none; stroke: #000000; stroke-linejoin: miter; stroke-linecap: square"/>
   </g>
  </g>
 </g>
 <defs>
  <clipPath id="p0f3855eafd">
   <rect x="38.427813" y="7.2" width="514.59" height="381.66"/>
  </clipPath>
 </defs>
</svg>
