<?xml version="1.0" encoding="utf-8" standalone="no"?>
<!DOCTYPE svg PUBLIC "-//W3C//DTD SVG 1.1//EN"
  "http://www.w3.org/Graphics/SVG/1.1/DTD/svg11.dtd">
<svg xmlns:xlink="http://www.w3.org/1999/xlink" width="201.20001pt" height="559.92pt" viewBox="0 0 201.20001 559.92" xmlns="http://www.w3.org/2000/svg" version="1.1">
 <metadata>
  <rdf:RDF xmlns:dc="http://purl.org/dc/elements/1.1/" xmlns:cc="http://creativecommons.org/ns#" xmlns:rdf="http://www.w3.org/1999/02/22-rdf-syntax-ns#">
   <cc:Work>
    <dc:type rdf:resource="http://purl.org/dc/dcmitype/StillImage"/>
    <dc:date>2026-03-23T18:58:59.478448</dc:date>
    <dc:format>image/svg+xml</dc:format>
    <dc:creator>
     <cc:Agent>
      <dc:title>Matplotlib v3.8.2, https://matplotlib.org/</dc:title>
     </cc:Agent>
    </dc:creator>
   </cc:Work>
  </rdf:RDF>
 </metadata>
 <defs>
  <style type="text/css">*{stroke-linejoin: round; stroke-linecap: butt}</style>
 </defs>
 <g id="figure_1">
  <g id="patch_1">
   <path d="M 0 559.92 
L 201.20001 559.92 
L 201.20001 0 
L 0 0 
z
" style="fill: #ffffff"/>
  </g>
  <g id="axes_1">
   <g id="patch_2">
    <path d="M 79.5 536.22 
L 194.00001 536.22 
L 194.00001 7.2 
L 79.5 7.2 
z
" style="fill: #ffffff"/>
   </g>
   <g id="matplotlib.axis_1"/>
   <g id="matplotlib.axis_2">
    <g id="ytick_1">
     <g id="line2d_1">
      <defs>
       <path id="m0be2504c85" d="M 0 0 
L -4 0 
" style="stroke: #000000; stroke-width: 0.8"/>
      </defs>
      <g>
       <use xlink:href="#m0be2504c85" x="79.5" y="536.22" style="stroke: #000000; stroke-width: 0.8"/>
      </g>
     </g>
     <g id="text_1">
      <!-- $\mathdefault{-10^{1}}$ -->
      <g transform="translate(12 546.72) scale(0.3 -0.3)">
       <defs>
        <path id="Figtree-Regular-2212" d="M 774 1677 
L 774 2131 
L 3219 2131 
L 3219 1677 
L 774 1677 
z
" transform="scale(0.015625)"/>
        <path id="Figtree-Regular-31" d="M 1389 0 
L 1389 4192 
L 1434 4480 
L 1920 4480 
L 1920 0 
L 1389 0 
z
M 384 3328 
L 384 3821 
Q 518 3814 704 3910 
Q 890 4006 1088 4160 
Q 1286 4314 1434 4480 
L 1766 4115 
Q 1555 3891 1324 3712 
Q 1094 3533 857 3427 
Q 621 3322 384 3328 
z
" transform="scale(0.015625)"/>
        <path id="Figtree-Regular-30" d="M 2048 -77 
Q 1536 -77 1139 220 
Q 742 518 518 1040 
Q 294 1562 294 2240 
Q 294 2918 518 3440 
Q 742 3962 1136 4259 
Q 1530 4557 2048 4557 
Q 2566 4557 2960 4259 
Q 3354 3962 3581 3440 
Q 3808 2918 3808 2240 
Q 3808 1562 3584 1040 
Q 3360 518 2963 220 
Q 2566 -77 2048 -77 
z
M 2048 410 
Q 2406 410 2684 646 
Q 2963 883 3120 1292 
Q 3277 1702 3277 2240 
Q 3277 2778 3120 3190 
Q 2963 3603 2684 3836 
Q 2406 4070 2048 4070 
Q 1690 4070 1414 3836 
Q 1139 3603 982 3190 
Q 826 2778 826 2240 
Q 826 1702 982 1292 
Q 1139 883 1417 646 
Q 1696 410 2048 410 
z
" transform="scale(0.015625)"/>
       </defs>
       <use xlink:href="#Figtree-Regular-2212"/>
       <use xlink:href="#Figtree-Regular-31" transform="translate(62.299988 0)"/>
       <use xlink:href="#Figtree-Regular-30" transform="translate(103.599976 0)"/>
       <use xlink:href="#Figtree-Regular-31" transform="translate(168.574966 35) scale(0.7)"/>
      </g>
     </g>
    </g>
    <g id="ytick_2">
     <g id="line2d_2">
      <g>
       <use xlink:href="#m0be2504c85" x="79.5" y="392.573721" style="stroke: #000000; stroke-width: 0.8"/>
      </g>
     </g>
     <g id="text_2">
      <!-- $\mathdefault{-10^{0}}$ -->
      <g transform="translate(7.2 403.073721) scale(0.3 -0.3)">
       <use xlink:href="#Figtree-Regular-2212" transform="translate(0 0.157813)"/>
       <use xlink:href="#Figtree-Regular-31" transform="translate(62.299988 0.157813)"/>
       <use xlink:href="#Figtree-Regular-30" transform="translate(103.599976 0.157813)"/>
       <use xlink:href="#Figtree-Regular-30" transform="translate(168.574966 35.157813) scale(0.7)"/>
      </g>
     </g>
    </g>
    <g id="ytick_3">
     <g id="line2d_3">
      <g>
       <use xlink:href="#m0be2504c85" x="79.5" y="265.348752" style="stroke: #000000; stroke-width: 0.8"/>
      </g>
     </g>
     <g id="text_3">
      <!-- $\mathdefault{10^{0}}$ -->
      <g transform="translate(25.8 275.848752) scale(0.3 -0.3)">
       <use xlink:href="#Figtree-Regular-31" transform="translate(0 0.157813)"/>
       <use xlink:href="#Figtree-Regular-30" transform="translate(41.299988 0.157813)"/>
       <use xlink:href="#Figtree-Regular-30" transform="translate(106.274979 35.157813) scale(0.7)"/>
      </g>
     </g>
    </g>
    <g id="ytick_4">
     <g id="line2d_4">
      <g>
       <use xlink:href="#m0be2504c85" x="79.5" y="121.702473" style="stroke: #000000; stroke-width: 0.8"/>
      </g>
     </g>
     <g id="text_4">
      <!-- $\mathdefault{10^{1}}$ -->
      <g transform="translate(30.6 132.202473) scale(0.3 -0.3)">
       <use xlink:href="#Figtree-Regular-31"/>
       <use xlink:href="#Figtree-Regular-30" transform="translate(41.299988 0)"/>
       <use xlink:href="#Figtree-Regular-31" transform="translate(106.274979 35) scale(0.7)"/>
      </g>
     </g>
    </g>
    <g id="ytick_5">
     <g id="line2d_5">
      <defs>
       <path id="m5542ecfaa5" d="M 0 0 
L -2.5 0 
" style="stroke: #000000; stroke-width: 0.6"/>
      </defs>
      <g>
       <use xlink:href="#m5542ecfaa5" x="79.5" y="328.961236" style="stroke: #000000; stroke-width: 0.6"/>
      </g>
     </g>
    </g>
    <g id="ytick_6">
     <g id="line2d_6">
      <g>
       <use xlink:href="#m5542ecfaa5" x="79.5" y="7.2" style="stroke: #000000; stroke-width: 0.6"/>
      </g>
     </g>
    </g>
   </g>
   <g id="patch_3">
    <path d="M 102.400002 254.010163 
L 171.100008 254.010163 
L 171.100008 181.943069 
L 102.400002 181.943069 
L 102.400002 254.010163 
z
" clip-path="url(#p47182b4d9c)" style="fill: #979797; opacity: 0.75; stroke: #ffffff; stroke-linejoin: miter"/>
   </g>
   <g id="line2d_7">
    <path d="M 136.750005 254.010163 
L 136.750005 397.328975 
" clip-path="url(#p47182b4d9c)" style="fill: none; stroke: #979797; stroke-width: 4; stroke-linecap: square"/>
   </g>
   <g id="line2d_8">
    <path d="M 136.750005 181.943069 
L 136.750005 149.942961 
" clip-path="url(#p47182b4d9c)" style="fill: none; stroke: #979797; stroke-width: 4; stroke-linecap: square"/>
   </g>
   <g id="line2d_9">
    <path d="M 119.575003 397.328975 
L 153.925006 397.328975 
" clip-path="url(#p47182b4d9c)" style="fill: none; stroke: #979797; stroke-width: 4; stroke-linecap: square"/>
   </g>
   <g id="line2d_10">
    <path d="M 119.575003 149.942961 
L 153.925006 149.942961 
" clip-path="url(#p47182b4d9c)" style="fill: none; stroke: #979797; stroke-width: 4; stroke-linecap: square"/>
   </g>
   <g id="line2d_11">
    <defs>
     <path id="m6b3fd8ba66" d="M 0 7.5 
C 1.989023 7.5 3.896849 6.709753 5.303301 5.303301 
C 6.709753 3.896849 7.5 1.989023 7.5 0 
C 7.5 -1.989023 6.709753 -3.896849 5.303301 -5.303301 
C 3.896849 -6.709753 1.989023 -7.5 0 -7.5 
C -1.989023 -7.5 -3.896849 -6.709753 -5.303301 -5.303301 
C -6.709753 -3.896849 -7.5 -1.989023 -7.5 0 
C -7.5 1.989023 -6.709753 3.896849 -5.303301 5.303301 
C -3.896849 6.709753 -1.989023 7.5 0 7.5 
z
" style="stroke: #ffffff; stroke-opacity: 0.75"/>
    </defs>
    <g clip-path="url(#p47182b4d9c)">
     <use xlink:href="#m6b3fd8ba66" x="136.750005" y="483.299673" style="fill: #979797; fill-opacity: 0.75; stroke: #ffffff; stroke-opacity: 0.75"/>
     <use xlink:href="#m6b3fd8ba66" x="136.750005" y="115.601252" style="fill: #979797; fill-opacity: 0.75; stroke: #ffffff; stroke-opacity: 0.75"/>
     <use xlink:href="#m6b3fd8ba66" x="136.750005" y="140.131246" style="fill: #979797; fill-opacity: 0.75; stroke: #ffffff; stroke-opacity: 0.75"/>
     <use xlink:href="#m6b3fd8ba66" x="136.750005" y="146.563535" style="fill: #979797; fill-opacity: 0.75; stroke: #ffffff; stroke-opacity: 0.75"/>
     <use xlink:href="#m6b3fd8ba66" x="136.750005" y="122.011732" style="fill: #979797; fill-opacity: 0.75; stroke: #ffffff; stroke-opacity: 0.75"/>
     <use xlink:href="#m6b3fd8ba66" x="136.750005" y="149.340602" style="fill: #979797; fill-opacity: 0.75; stroke: #ffffff; stroke-opacity: 0.75"/>
     <use xlink:href="#m6b3fd8ba66" x="136.750005" y="138.319947" style="fill: #979797; fill-opacity: 0.75; stroke: #ffffff; stroke-opacity: 0.75"/>
     <use xlink:href="#m6b3fd8ba66" x="136.750005" y="77.831786" style="fill: #979797; fill-opacity: 0.75; stroke: #ffffff; stroke-opacity: 0.75"/>
     <use xlink:href="#m6b3fd8ba66" x="136.750005" y="91.046269" style="fill: #979797; fill-opacity: 0.75; stroke: #ffffff; stroke-opacity: 0.75"/>
     <use xlink:href="#m6b3fd8ba66" x="136.750005" y="126.586354" style="fill: #979797; fill-opacity: 0.75; stroke: #ffffff; stroke-opacity: 0.75"/>
     <use xlink:href="#m6b3fd8ba66" x="136.750005" y="127.389746" style="fill: #979797; fill-opacity: 0.75; stroke: #ffffff; stroke-opacity: 0.75"/>
     <use xlink:href="#m6b3fd8ba66" x="136.750005" y="137.483946" style="fill: #979797; fill-opacity: 0.75; stroke: #ffffff; stroke-opacity: 0.75"/>
     <use xlink:href="#m6b3fd8ba66" x="136.750005" y="133.285946" style="fill: #979797; fill-opacity: 0.75; stroke: #ffffff; stroke-opacity: 0.75"/>
     <use xlink:href="#m6b3fd8ba66" x="136.750005" y="139.991609" style="fill: #979797; fill-opacity: 0.75; stroke: #ffffff; stroke-opacity: 0.75"/>
     <use xlink:href="#m6b3fd8ba66" x="136.750005" y="147.595865" style="fill: #979797; fill-opacity: 0.75; stroke: #ffffff; stroke-opacity: 0.75"/>
     <use xlink:href="#m6b3fd8ba66" x="136.750005" y="143.702411" style="fill: #979797; fill-opacity: 0.75; stroke: #ffffff; stroke-opacity: 0.75"/>
     <use xlink:href="#m6b3fd8ba66" x="136.750005" y="131.531759" style="fill: #979797; fill-opacity: 0.75; stroke: #ffffff; stroke-opacity: 0.75"/>
     <use xlink:href="#m6b3fd8ba66" x="136.750005" y="96.481195" style="fill: #979797; fill-opacity: 0.75; stroke: #ffffff; stroke-opacity: 0.75"/>
     <use xlink:href="#m6b3fd8ba66" x="136.750005" y="128.382573" style="fill: #979797; fill-opacity: 0.75; stroke: #ffffff; stroke-opacity: 0.75"/>
     <use xlink:href="#m6b3fd8ba66" x="136.750005" y="149.522023" style="fill: #979797; fill-opacity: 0.75; stroke: #ffffff; stroke-opacity: 0.75"/>
     <use xlink:href="#m6b3fd8ba66" x="136.750005" y="114.065534" style="fill: #979797; fill-opacity: 0.75; stroke: #ffffff; stroke-opacity: 0.75"/>
     <use xlink:href="#m6b3fd8ba66" x="136.750005" y="145.259875" style="fill: #979797; fill-opacity: 0.75; stroke: #ffffff; stroke-opacity: 0.75"/>
     <use xlink:href="#m6b3fd8ba66" x="136.750005" y="110.605006" style="fill: #979797; fill-opacity: 0.75; stroke: #ffffff; stroke-opacity: 0.75"/>
     <use xlink:href="#m6b3fd8ba66" x="136.750005" y="132.075494" style="fill: #979797; fill-opacity: 0.75; stroke: #ffffff; stroke-opacity: 0.75"/>
     <use xlink:href="#m6b3fd8ba66" x="136.750005" y="129.245342" style="fill: #979797; fill-opacity: 0.75; stroke: #ffffff; stroke-opacity: 0.75"/>
     <use xlink:href="#m6b3fd8ba66" x="136.750005" y="91.606793" style="fill: #979797; fill-opacity: 0.75; stroke: #ffffff; stroke-opacity: 0.75"/>
     <use xlink:href="#m6b3fd8ba66" x="136.750005" y="129.297154" style="fill: #979797; fill-opacity: 0.75; stroke: #ffffff; stroke-opacity: 0.75"/>
     <use xlink:href="#m6b3fd8ba66" x="136.750005" y="141.423639" style="fill: #979797; fill-opacity: 0.75; stroke: #ffffff; stroke-opacity: 0.75"/>
     <use xlink:href="#m6b3fd8ba66" x="136.750005" y="108.922166" style="fill: #979797; fill-opacity: 0.75; stroke: #ffffff; stroke-opacity: 0.75"/>
     <use xlink:href="#m6b3fd8ba66" x="136.750005" y="113.167101" style="fill: #979797; fill-opacity: 0.75; stroke: #ffffff; stroke-opacity: 0.75"/>
     <use xlink:href="#m6b3fd8ba66" x="136.750005" y="92.499102" style="fill: #979797; fill-opacity: 0.75; stroke: #ffffff; stroke-opacity: 0.75"/>
     <use xlink:href="#m6b3fd8ba66" x="136.750005" y="114.107245" style="fill: #979797; fill-opacity: 0.75; stroke: #ffffff; stroke-opacity: 0.75"/>
     <use xlink:href="#m6b3fd8ba66" x="136.750005" y="111.094987" style="fill: #979797; fill-opacity: 0.75; stroke: #ffffff; stroke-opacity: 0.75"/>
     <use xlink:href="#m6b3fd8ba66" x="136.750005" y="53.419434" style="fill: #979797; fill-opacity: 0.75; stroke: #ffffff; stroke-opacity: 0.75"/>
     <use xlink:href="#m6b3fd8ba66" x="136.750005" y="148.977294" style="fill: #979797; fill-opacity: 0.75; stroke: #ffffff; stroke-opacity: 0.75"/>
     <use xlink:href="#m6b3fd8ba66" x="136.750005" y="126.136527" style="fill: #979797; fill-opacity: 0.75; stroke: #ffffff; stroke-opacity: 0.75"/>
     <use xlink:href="#m6b3fd8ba66" x="136.750005" y="105.428036" style="fill: #979797; fill-opacity: 0.75; stroke: #ffffff; stroke-opacity: 0.75"/>
     <use xlink:href="#m6b3fd8ba66" x="136.750005" y="147.921362" style="fill: #979797; fill-opacity: 0.75; stroke: #ffffff; stroke-opacity: 0.75"/>
     <use xlink:href="#m6b3fd8ba66" x="136.750005" y="102.386106" style="fill: #979797; fill-opacity: 0.75; stroke: #ffffff; stroke-opacity: 0.75"/>
     <use xlink:href="#m6b3fd8ba66" x="136.750005" y="142.169823" style="fill: #979797; fill-opacity: 0.75; stroke: #ffffff; stroke-opacity: 0.75"/>
     <use xlink:href="#m6b3fd8ba66" x="136.750005" y="148.990245" style="fill: #979797; fill-opacity: 0.75; stroke: #ffffff; stroke-opacity: 0.75"/>
     <use xlink:href="#m6b3fd8ba66" x="136.750005" y="90.616037" style="fill: #979797; fill-opacity: 0.75; stroke: #ffffff; stroke-opacity: 0.75"/>
     <use xlink:href="#m6b3fd8ba66" x="136.750005" y="132.607272" style="fill: #979797; fill-opacity: 0.75; stroke: #ffffff; stroke-opacity: 0.75"/>
     <use xlink:href="#m6b3fd8ba66" x="136.750005" y="62.051968" style="fill: #979797; fill-opacity: 0.75; stroke: #ffffff; stroke-opacity: 0.75"/>
     <use xlink:href="#m6b3fd8ba66" x="136.750005" y="134.924568" style="fill: #979797; fill-opacity: 0.75; stroke: #ffffff; stroke-opacity: 0.75"/>
     <use xlink:href="#m6b3fd8ba66" x="136.750005" y="123.79134" style="fill: #979797; fill-opacity: 0.75; stroke: #ffffff; stroke-opacity: 0.75"/>
     <use xlink:href="#m6b3fd8ba66" x="136.750005" y="81.851243" style="fill: #979797; fill-opacity: 0.75; stroke: #ffffff; stroke-opacity: 0.75"/>
     <use xlink:href="#m6b3fd8ba66" x="136.750005" y="147.369039" style="fill: #979797; fill-opacity: 0.75; stroke: #ffffff; stroke-opacity: 0.75"/>
     <use xlink:href="#m6b3fd8ba66" x="136.750005" y="128.873264" style="fill: #979797; fill-opacity: 0.75; stroke: #ffffff; stroke-opacity: 0.75"/>
     <use xlink:href="#m6b3fd8ba66" x="136.750005" y="130.315167" style="fill: #979797; fill-opacity: 0.75; stroke: #ffffff; stroke-opacity: 0.75"/>
     <use xlink:href="#m6b3fd8ba66" x="136.750005" y="137.785319" style="fill: #979797; fill-opacity: 0.75; stroke: #ffffff; stroke-opacity: 0.75"/>
     <use xlink:href="#m6b3fd8ba66" x="136.750005" y="149.396342" style="fill: #979797; fill-opacity: 0.75; stroke: #ffffff; stroke-opacity: 0.75"/>
     <use xlink:href="#m6b3fd8ba66" x="136.750005" y="140.710027" style="fill: #979797; fill-opacity: 0.75; stroke: #ffffff; stroke-opacity: 0.75"/>
     <use xlink:href="#m6b3fd8ba66" x="136.750005" y="137.570476" style="fill: #979797; fill-opacity: 0.75; stroke: #ffffff; stroke-opacity: 0.75"/>
     <use xlink:href="#m6b3fd8ba66" x="136.750005" y="115.949967" style="fill: #979797; fill-opacity: 0.75; stroke: #ffffff; stroke-opacity: 0.75"/>
     <use xlink:href="#m6b3fd8ba66" x="136.750005" y="143.068265" style="fill: #979797; fill-opacity: 0.75; stroke: #ffffff; stroke-opacity: 0.75"/>
     <use xlink:href="#m6b3fd8ba66" x="136.750005" y="116.284166" style="fill: #979797; fill-opacity: 0.75; stroke: #ffffff; stroke-opacity: 0.75"/>
     <use xlink:href="#m6b3fd8ba66" x="136.750005" y="132.863535" style="fill: #979797; fill-opacity: 0.75; stroke: #ffffff; stroke-opacity: 0.75"/>
     <use xlink:href="#m6b3fd8ba66" x="136.750005" y="149.008689" style="fill: #979797; fill-opacity: 0.75; stroke: #ffffff; stroke-opacity: 0.75"/>
     <use xlink:href="#m6b3fd8ba66" x="136.750005" y="119.921135" style="fill: #979797; fill-opacity: 0.75; stroke: #ffffff; stroke-opacity: 0.75"/>
     <use xlink:href="#m6b3fd8ba66" x="136.750005" y="110.972683" style="fill: #979797; fill-opacity: 0.75; stroke: #ffffff; stroke-opacity: 0.75"/>
    </g>
   </g>
   <g id="line2d_12">
    <path d="M 79.5 328.961236 
L 194.00001 328.961236 
" clip-path="url(#p47182b4d9c)" style="fill: none; stroke-dasharray: 11.1,4.8; stroke-dashoffset: 0; stroke: #000000; stroke-width: 3"/>
   </g>
   <g id="line2d_13">
    <path d="M 102.400002 201.214804 
L 171.100008 201.214804 
" clip-path="url(#p47182b4d9c)" style="fill: none; stroke: #ffffff; stroke-width: 4"/>
   </g>
   <g id="patch_4">
    <path d="M 79.5 536.22 
L 79.5 7.2 
" style="fill: none; stroke: #000000; stroke-width: 4; stroke-linejoin: miter; stroke-linecap: square"/>
   </g>
   <g id="patch_5">
    <path d="M 79.5 536.22 
L 194.00001 536.22 
" style="fill: none; stroke: #000000; stroke-width: 4; stroke-linejoin: miter; stroke-linecap: square"/>
   </g>
  </g>
 </g>
 <defs>
  <clipPath id="p47182b4d9c">
   <rect x="79.5" y="7.2" width="114.50001" height="529.02"/>
  </clipPath>
 </defs>
</svg>
