<?xml version="1.0" encoding="utf-8" standalone="no"?>
<!DOCTYPE svg PUBLIC "-//W3C//DTD SVG 1.1//EN"
  "http://www.w3.org/Graphics/SVG/1.1/DTD/svg11.dtd">
<svg xmlns:xlink="http://www.w3.org/1999/xlink" width="201.20001pt" height="559.92pt" viewBox="0 0 201.20001 559.92" xmlns="http://www.w3.org/2000/svg" version="1.1">
 <metadata>
  <rdf:RDF xmlns:dc="http://purl.org/dc/elements/1.1/" xmlns:cc="http://creativecommons.org/ns#" xmlns:rdf="http://www.w3.org/1999/02/22-rdf-syntax-ns#">
   <cc:Work>
    <dc:type rdf:resource="http://purl.org/dc/dcmitype/StillImage"/>
    <dc:date>2026-03-25T15:25:14.061699</dc:date>
    <dc:format>image/svg+xml</dc:format>
    <dc:creator>
     <cc:Agent>
      <dc:title>Matplotlib v3.8.2, https://matplotlib.org/</dc:title>
     </cc:Agent>
    </dc:creator>
   </cc:Work>
  </rdf:RDF>
 </metadata>
 <defs>
  <style type="text/css">*{stroke-linejoin: round; stroke-linecap: butt}</style>
 </defs>
 <g id="figure_1">
  <g id="patch_1">
   <path d="M 0 559.92 
L 201.20001 559.92 
L 201.20001 0 
L 0 0 
z
" style="fill: #ffffff"/>
  </g>
  <g id="axes_1">
   <g id="patch_2">
    <path d="M 79.5 536.22 
L 194.00001 536.22 
L 194.00001 7.2 
L 79.5 7.2 
z
" style="fill: #ffffff"/>
   </g>
   <g id="PolyCollection_1">
    <defs>
     <path id="m8fb4dbf31d" d="M 136.838304 -76.620327 
L 136.661706 -76.620327 
L 136.661501 -77.243575 
L 136.661515 -77.874733 
L 136.661726 -78.514005 
L 136.662104 -79.161603 
L 136.662616 -79.817746 
L 136.663218 -80.482662 
L 136.66386 -81.156589 
L 136.664484 -81.839776 
L 136.665024 -82.532479 
L 136.665402 -83.234968 
L 136.665533 -83.947523 
L 136.66532 -84.670437 
L 136.664653 -85.404016 
L 136.663411 -86.148578 
L 136.661459 -86.904459 
L 136.658646 -87.672006 
L 136.654806 -88.451587 
L 136.649755 -89.243584 
L 136.643289 -90.048399 
L 136.635185 -90.866455 
L 136.625198 -91.698193 
L 136.613057 -92.54408 
L 136.598469 -93.404605 
L 136.581112 -94.280284 
L 136.560638 -95.171659 
L 136.536669 -96.079305 
L 136.508797 -97.003826 
L 136.476583 -97.945862 
L 136.439558 -98.906088 
L 136.397222 -99.885222 
L 136.349045 -100.884023 
L 136.294465 -101.903296 
L 136.232897 -102.9439 
L 136.163725 -104.43021 
L 136.086314 -107.163647 
L 136.000009 -109.897084 
L 135.904139 -112.630521 
L 135.798023 -115.363957 
L 135.680976 -118.097394 
L 135.552313 -120.830831 
L 135.411357 -123.564268 
L 135.257447 -126.297705 
L 135.089944 -129.031142 
L 134.90824 -131.764579 
L 134.711765 -134.498016 
L 134.499995 -137.231453 
L 134.272462 -139.96489 
L 134.028758 -142.698327 
L 133.768544 -145.431764 
L 133.491556 -148.165201 
L 133.197612 -150.898638 
L 132.886614 -153.632075 
L 132.55855 -156.365512 
L 132.2135 -159.098949 
L 131.851635 -161.832386 
L 131.473212 -164.565823 
L 131.078576 -167.29926 
L 130.668154 -170.032697 
L 130.242448 -172.766134 
L 129.802028 -175.499571 
L 129.347523 -178.233008 
L 128.879612 -180.966445 
L 128.399011 -183.699882 
L 127.906461 -186.433319 
L 127.402716 -189.166756 
L 126.888531 -191.900193 
L 126.364645 -194.63363 
L 125.831775 -197.367067 
L 125.290597 -200.100504 
L 124.741742 -202.833941 
L 124.185781 -205.567378 
L 123.62322 -208.300815 
L 123.054495 -211.034252 
L 122.479964 -213.767689 
L 121.89991 -216.501126 
L 121.31454 -219.234563 
L 120.723986 -221.968 
L 120.128314 -224.701437 
L 119.527531 -227.434874 
L 118.921592 -230.168311 
L 118.310415 -232.901748 
L 117.693893 -235.635185 
L 117.07191 -238.368622 
L 116.444357 -241.102059 
L 115.811145 -243.835496 
L 115.172228 -246.568933 
L 114.527614 -249.30237 
L 113.877385 -252.035807 
L 113.221709 -254.769244 
L 112.560856 -257.502681 
L 111.89521 -260.236118 
L 111.225278 -262.969555 
L 110.5517 -265.702992 
L 109.875251 -268.436429 
L 109.196849 -271.169866 
L 108.517551 -273.903303 
L 107.838554 -276.636739 
L 107.16119 -279.370176 
L 106.486917 -282.103613 
L 105.817311 -284.83705 
L 105.154055 -287.570487 
L 104.498925 -290.303924 
L 103.853776 -293.037361 
L 103.220526 -295.770798 
L 102.601136 -298.504235 
L 101.997598 -301.237672 
L 101.411913 -303.971109 
L 100.846075 -306.704546 
L 100.302053 -309.437983 
L 99.781774 -312.17142 
L 99.287107 -314.904857 
L 98.819851 -317.638294 
L 98.381717 -320.371731 
L 97.974315 -323.105168 
L 97.599149 -325.838605 
L 97.257603 -328.572042 
L 96.950931 -331.305479 
L 96.680257 -334.038916 
L 96.446565 -336.772353 
L 96.250694 -339.50579 
L 96.09334 -342.239227 
L 95.975053 -344.972664 
L 95.896236 -347.706101 
L 95.857144 -350.439538 
L 95.857892 -353.172975 
L 95.898449 -355.906412 
L 95.978646 -358.361694 
L 96.098182 -359.415047 
L 96.25662 -360.446549 
L 96.453399 -361.457089 
L 96.687836 -362.447502 
L 96.959129 -363.418574 
L 97.266367 -364.371045 
L 97.608533 -365.305615 
L 97.98451 -366.222945 
L 98.393087 -367.123659 
L 98.832967 -368.008348 
L 99.302774 -368.877573 
L 99.801057 -369.731865 
L 100.3263 -370.571727 
L 100.876929 -371.397641 
L 101.451319 -372.210061 
L 102.047803 -373.009421 
L 102.664679 -373.796135 
L 103.300217 -374.570597 
L 103.95267 -375.333181 
L 104.620278 -376.084248 
L 105.301281 -376.824139 
L 105.993922 -377.553183 
L 106.696458 -378.271693 
L 107.407166 -378.979969 
L 108.12435 -379.678298 
L 108.846349 -380.366957 
L 109.571542 -381.046208 
L 110.298353 -381.716307 
L 111.025259 -382.377495 
L 111.750793 -383.030007 
L 112.47355 -383.674068 
L 113.192188 -384.309894 
L 113.905435 -384.937693 
L 114.612088 -385.557665 
L 115.311018 -386.170002 
L 116.001172 -386.774891 
L 116.681569 -387.37251 
L 117.351308 -387.963033 
L 118.009565 -388.546625 
L 118.65559 -389.123447 
L 119.288711 -389.693656 
L 119.90833 -390.2574 
L 120.513924 -390.814824 
L 121.105039 -391.36607 
L 121.681294 -391.911272 
L 122.242372 -392.45056 
L 122.788025 -392.984064 
L 123.318062 -393.511904 
L 123.832354 -394.0342 
L 124.330827 -394.551067 
L 124.81346 -395.062618 
L 125.28028 -395.568959 
L 125.731358 -396.070197 
L 126.166808 -396.566433 
L 126.586785 -397.057766 
L 126.991473 -397.544292 
L 127.381093 -398.026103 
L 127.755889 -398.503291 
L 128.116134 -398.975944 
L 128.46212 -399.444146 
L 128.79416 -399.907982 
L 129.112582 -400.36753 
L 129.417728 -400.822871 
L 129.709951 -401.27408 
L 129.989615 -401.721232 
L 130.257091 -402.164399 
L 130.512756 -402.603651 
L 130.756991 -403.039058 
L 130.990181 -403.470685 
L 131.212711 -403.898598 
L 131.42497 -404.32286 
L 131.627343 -404.743532 
L 131.820216 -405.160676 
L 132.003972 -405.57435 
L 132.17899 -405.984611 
L 132.345645 -406.391515 
L 132.504308 -406.795117 
L 132.655341 -407.195469 
L 132.799101 -407.592623 
L 132.935937 -407.986631 
L 133.066188 -408.377542 
L 133.190182 -408.765403 
L 133.308237 -409.150263 
L 133.420661 -409.532167 
L 133.527747 -409.91116 
L 133.629775 -410.287287 
L 133.727014 -410.66059 
L 133.819717 -411.031112 
L 133.908123 -411.398894 
L 133.992456 -411.763975 
L 134.072928 -412.126395 
L 134.149736 -412.486193 
L 134.223061 -412.843407 
L 134.293076 -413.198073 
L 134.359937 -413.550227 
L 134.42379 -413.899905 
L 134.484771 -414.247142 
L 134.543004 -414.59197 
L 134.598605 -414.934424 
L 134.651683 -415.274535 
L 134.702336 -415.612337 
L 134.750658 -415.947858 
L 134.796737 -416.281132 
L 134.840656 -416.612186 
L 134.882493 -416.941051 
L 134.922322 -417.267756 
L 134.960213 -417.592328 
L 134.996235 -417.914796 
L 135.03045 -418.235185 
L 135.062922 -418.553524 
L 135.09371 -418.869838 
L 135.12287 -419.184153 
L 135.150457 -419.496493 
L 135.176523 -419.806884 
L 135.201118 -420.115349 
L 135.224292 -420.421913 
L 135.246089 -420.726598 
L 135.266556 -421.029428 
L 135.285735 -421.330425 
L 135.30367 -421.629611 
L 135.320403 -421.927007 
L 135.335976 -422.222636 
L 135.350432 -422.516518 
L 135.363816 -422.808673 
L 135.376172 -423.099121 
L 135.387549 -423.387883 
L 135.397999 -423.674978 
L 135.407575 -423.960425 
L 135.416335 -424.244242 
L 135.424343 -424.526449 
L 135.431665 -424.807064 
L 135.438372 -425.086104 
L 135.444542 -425.363587 
L 135.450256 -425.63953 
L 135.455599 -425.91395 
L 135.46066 -426.186864 
L 135.465533 -426.458289 
L 135.470314 -426.72824 
L 135.4751 -426.996733 
L 135.479991 -427.263785 
L 135.485085 -427.52941 
L 135.490481 -427.793624 
L 135.496274 -428.056441 
L 135.502558 -428.317877 
L 135.50942 -428.577946 
L 135.516943 -428.836661 
L 135.525202 -429.094037 
L 135.534266 -429.350089 
L 135.544194 -429.604828 
L 135.555036 -429.858269 
L 135.56683 -430.110425 
L 135.579605 -430.361309 
L 135.593379 -430.610934 
L 135.608158 -430.859311 
L 135.623934 -431.106454 
L 135.640692 -431.352376 
L 135.658402 -431.597086 
L 135.677025 -431.840599 
L 135.696511 -432.082925 
L 135.716801 -432.324075 
L 135.737826 -432.564062 
L 135.75951 -432.802897 
L 135.78177 -433.040589 
L 135.804517 -433.277151 
L 135.827656 -433.512593 
L 135.85109 -433.746926 
L 135.874719 -433.980159 
L 135.89844 -434.212304 
L 135.922152 -434.44337 
L 135.945751 -434.673367 
L 135.969139 -434.902305 
L 135.992215 -435.130194 
L 136.014885 -435.357044 
L 136.037057 -435.582863 
L 136.058644 -435.807662 
L 136.079563 -436.031449 
L 136.099737 -436.254233 
L 136.119093 -436.476024 
L 136.137565 -436.69683 
L 136.155093 -436.916659 
L 136.171622 -437.135522 
L 136.187103 -437.353425 
L 136.201494 -437.570378 
L 136.214758 -437.786388 
L 136.226865 -438.001464 
L 136.237789 -438.215613 
L 136.247514 -438.428845 
L 136.256024 -438.641166 
L 136.263315 -438.852584 
L 136.269383 -439.063107 
L 136.274236 -439.272743 
L 136.277882 -439.481498 
L 136.28034 -439.689381 
L 136.281631 -439.896399 
L 136.281784 -440.102558 
L 136.280834 -440.307867 
L 136.278822 -440.512331 
L 136.275794 -440.715957 
L 136.271802 -440.918754 
L 136.266906 -441.120726 
L 136.261167 -441.321882 
L 136.254654 -441.522227 
L 136.247441 -441.721769 
L 136.239606 -441.920513 
L 136.231229 -442.118465 
L 136.222396 -442.315633 
L 136.213193 -442.512022 
L 136.203709 -442.707639 
L 136.194036 -442.902489 
L 136.184263 -443.096578 
L 136.17448 -443.289913 
L 136.164778 -443.4825 
L 136.155242 -443.674343 
L 136.145958 -443.865449 
L 136.137006 -444.055823 
L 136.128463 -444.245472 
L 136.120402 -444.4344 
L 136.11289 -444.622612 
L 136.105987 -444.810115 
L 136.099751 -444.996914 
L 136.094231 -445.183014 
L 136.089469 -445.36842 
L 136.085504 -445.553137 
L 136.082365 -445.73717 
L 136.080078 -445.920525 
L 136.07866 -446.103207 
L 136.078125 -446.285219 
L 136.078479 -446.466568 
L 136.079724 -446.647258 
L 136.081857 -446.827294 
L 136.084869 -447.006681 
L 136.088749 -447.185422 
L 136.093481 -447.363524 
L 136.099043 -447.54099 
L 136.105413 -447.717824 
L 136.112563 -447.894032 
L 136.120463 -448.069618 
L 136.12908 -448.244587 
L 136.138379 -448.418941 
L 136.14832 -448.592687 
L 136.158864 -448.765827 
L 136.169966 -448.938367 
L 136.181581 -449.11031 
L 136.193662 -449.281661 
L 136.206158 -449.452423 
L 136.219019 -449.622601 
L 136.232191 -449.792199 
L 136.245621 -449.96122 
L 136.259253 -450.129669 
L 136.273032 -450.297548 
L 136.286901 -450.464864 
L 136.300805 -450.631617 
L 136.314687 -450.797814 
L 136.328494 -450.963457 
L 136.342173 -451.12855 
L 136.355672 -451.293097 
L 136.368943 -451.457101 
L 136.381941 -451.620566 
L 136.394622 -451.783496 
L 136.406948 -451.945893 
L 136.418885 -452.107762 
L 136.430401 -452.269106 
L 136.441472 -452.429927 
L 136.452076 -452.590231 
L 136.462198 -452.750019 
L 136.471825 -452.909295 
L 136.480952 -453.068063 
L 136.489577 -453.226326 
L 136.497705 -453.384087 
L 136.505342 -453.541348 
L 136.5125 -453.698114 
L 136.519196 -453.854387 
L 136.525449 -454.010171 
L 136.531281 -454.165468 
L 136.536718 -454.320282 
L 136.541786 -454.474615 
L 136.546517 -454.628471 
L 136.550939 -454.781852 
L 136.555086 -454.934761 
L 136.558988 -455.087202 
L 136.562679 -455.239177 
L 136.566189 -455.390689 
L 136.56955 -455.541741 
L 136.572792 -455.692335 
L 136.575943 -455.842474 
L 136.579029 -455.992162 
L 136.582075 -456.1414 
L 136.585103 -456.290192 
L 136.588133 -456.43854 
L 136.591181 -456.586447 
L 136.594261 -456.733915 
L 136.597383 -456.880947 
L 136.600556 -457.027545 
L 136.603783 -457.173713 
L 136.607067 -457.319452 
L 136.610405 -457.464766 
L 136.613792 -457.609656 
L 136.617221 -457.754125 
L 136.620682 -457.898175 
L 136.62416 -458.04181 
L 136.627642 -458.185031 
L 136.63111 -458.32784 
L 136.634544 -458.470241 
L 136.637925 -458.612235 
L 136.641231 -458.753825 
L 136.644439 -458.895012 
L 136.647529 -459.0358 
L 136.650477 -459.176191 
L 136.653262 -459.316186 
L 136.655864 -459.455788 
L 136.658264 -459.595 
L 136.660444 -459.733822 
L 136.66239 -459.872259 
L 136.664087 -460.010311 
L 136.665526 -460.147981 
L 136.666699 -460.28527 
L 136.667601 -460.422182 
L 136.668231 -460.558718 
L 136.66859 -460.69488 
L 136.668683 -460.83067 
L 136.668515 -460.96609 
L 136.668098 -461.101143 
L 136.667444 -461.23583 
L 136.666566 -461.370153 
L 136.66548 -461.504114 
L 136.664205 -461.637715 
L 136.662757 -461.770958 
L 136.661156 -461.903845 
L 136.65942 -462.036378 
L 136.657567 -462.168559 
L 136.655614 -462.300389 
L 136.653575 -462.431871 
L 136.651464 -462.563006 
L 136.649292 -462.693796 
L 136.647066 -462.824243 
L 136.64479 -462.954349 
L 136.642467 -463.084115 
L 136.640094 -463.213544 
L 136.637665 -463.342636 
L 136.635171 -463.471395 
L 136.632599 -463.59982 
L 136.629933 -463.727915 
L 136.627155 -463.855681 
L 136.624243 -463.983119 
L 136.621175 -464.110232 
L 136.617925 -464.23702 
L 136.614469 -464.363486 
L 136.61078 -464.489632 
L 136.606835 -464.615458 
L 136.60261 -464.740966 
L 136.598083 -464.866159 
L 136.593238 -464.991037 
L 136.588059 -465.115602 
L 136.582536 -465.239856 
L 136.576664 -465.363801 
L 136.570444 -465.487437 
L 136.563883 -465.610766 
L 136.556993 -465.733791 
L 136.549794 -465.856512 
L 136.542313 -465.97893 
L 136.534584 -466.101048 
L 136.526645 -466.222867 
L 136.518545 -466.344389 
L 136.510335 -466.465614 
L 136.502074 -466.586544 
L 136.493825 -466.707181 
L 136.485655 -466.827526 
L 136.477636 -466.94758 
L 136.469839 -467.067345 
L 136.46234 -467.186823 
L 136.455213 -467.306014 
L 136.448532 -467.42492 
L 136.44237 -467.543542 
L 136.436794 -467.661883 
L 136.431872 -467.779942 
L 136.427662 -467.897721 
L 136.424218 -468.015223 
L 136.421589 -468.132447 
L 136.419814 -468.249396 
L 136.418924 -468.36607 
L 136.418943 -468.482471 
L 136.419883 -468.5986 
L 136.421751 -468.714459 
L 136.424541 -468.830048 
L 136.42824 -468.94537 
L 136.432824 -469.060424 
L 136.438263 -469.175213 
L 136.444517 -469.289738 
L 136.451538 -469.403999 
L 136.459274 -469.517999 
L 136.467664 -469.631737 
L 136.476644 -469.745217 
L 136.486145 -469.858437 
L 136.496096 -469.971401 
L 136.506423 -470.084109 
L 136.517051 -470.196561 
L 136.527904 -470.30876 
L 136.53891 -470.420707 
L 136.549994 -470.532402 
L 136.561088 -470.643846 
L 136.572125 -470.755042 
L 136.583043 -470.865989 
L 136.593782 -470.97669 
L 136.60429 -471.087144 
L 136.614519 -471.197354 
L 136.624426 -471.30732 
L 136.633975 -471.417043 
L 136.643134 -471.526525 
L 136.651878 -471.635766 
L 136.660188 -471.744768 
L 136.668047 -471.853532 
L 136.675448 -471.962058 
L 136.682384 -472.070347 
L 136.688855 -472.178402 
L 136.694864 -472.286222 
L 136.700418 -472.393809 
L 136.705526 -472.501163 
L 136.7102 -472.608287 
L 136.714453 -472.71518 
L 136.718302 -472.821843 
L 136.721763 -472.928279 
L 136.724852 -473.034487 
L 136.727589 -473.140469 
L 136.729989 -473.246225 
L 136.732072 -473.351757 
L 136.733852 -473.457066 
L 136.735347 -473.562152 
L 136.73657 -473.667016 
L 136.737536 -473.77166 
L 136.738258 -473.876084 
L 136.738746 -473.980289 
L 136.739011 -474.084276 
L 136.739061 -474.188046 
L 136.738904 -474.2916 
L 136.738547 -474.394939 
L 136.737995 -474.498064 
L 136.737253 -474.600975 
L 136.736326 -474.703674 
L 136.735215 -474.806161 
L 136.733926 -474.908437 
L 136.732462 -475.010503 
L 136.730826 -475.112361 
L 136.729022 -475.21401 
L 136.727055 -475.315451 
L 136.72493 -475.416687 
L 136.722654 -475.517716 
L 136.720234 -475.618541 
L 136.717679 -475.719161 
L 136.715 -475.819579 
L 136.712209 -475.919794 
L 136.709319 -476.019807 
L 136.706345 -476.11962 
L 136.703304 -476.219233 
L 136.700214 -476.318647 
L 136.697095 -476.417862 
L 136.693967 -476.51688 
L 136.690852 -476.615701 
L 136.687773 -476.714326 
L 136.684752 -476.812756 
L 136.681812 -476.910991 
L 136.678977 -477.009033 
L 136.676268 -477.106882 
L 136.673708 -477.204538 
L 136.671315 -477.302003 
L 136.66911 -477.399278 
L 136.667108 -477.496363 
L 136.665324 -477.593258 
L 136.663769 -477.689965 
L 136.662452 -477.786484 
L 136.661379 -477.882817 
L 136.660551 -477.978963 
L 136.659968 -478.074924 
L 136.659626 -478.170699 
L 136.659515 -478.266291 
L 136.659626 -478.361699 
L 136.659943 -478.456925 
L 136.660449 -478.551968 
L 136.661123 -478.64683 
L 136.661944 -478.741512 
L 136.662886 -478.836014 
L 136.663923 -478.930336 
L 136.665028 -479.02448 
L 136.666173 -479.118446 
L 136.66733 -479.212235 
L 136.668471 -479.305847 
L 136.669569 -479.399283 
L 136.6706 -479.492544 
L 136.671538 -479.585631 
L 136.672363 -479.678543 
L 136.673057 -479.771283 
L 136.673603 -479.863849 
L 136.67399 -479.956244 
L 136.67421 -480.048467 
L 136.674256 -480.14052 
L 136.674129 -480.232402 
L 136.67383 -480.324115 
L 136.673368 -480.41566 
L 136.672751 -480.507036 
L 136.671994 -480.598244 
L 136.671113 -480.689285 
L 136.67013 -480.78016 
L 136.669065 -480.87087 
L 136.667943 -480.961414 
L 136.666791 -481.051793 
L 136.665636 -481.142009 
L 136.664506 -481.232061 
L 136.663429 -481.321951 
L 136.662433 -481.411678 
L 136.661545 -481.501243 
L 136.660789 -481.590648 
L 136.660191 -481.679892 
L 136.659771 -481.768977 
L 136.659548 -481.857901 
L 136.659539 -481.946668 
L 136.659756 -482.035276 
L 136.66021 -482.123726 
L 136.660907 -482.21202 
L 136.66185 -482.300157 
L 136.663037 -482.388138 
L 136.664467 -482.475963 
L 136.66613 -482.563634 
L 136.668019 -482.65115 
L 136.670118 -482.738513 
L 136.672414 -482.825723 
L 136.674889 -482.912779 
L 136.677524 -482.999684 
L 136.680298 -483.086437 
L 136.683189 -483.173039 
L 136.686174 -483.259491 
L 136.689232 -483.345792 
L 136.692339 -483.431944 
L 136.695474 -483.517947 
L 136.698613 -483.603801 
L 136.701738 -483.689508 
L 136.704828 -483.775067 
L 136.707865 -483.860479 
L 136.710833 -483.945744 
L 136.713718 -484.030864 
L 136.716506 -484.115838 
L 136.719187 -484.200667 
L 136.721751 -484.285352 
L 136.724192 -484.369893 
L 136.726503 -484.45429 
L 136.728682 -484.538544 
L 136.730725 -484.622656 
L 136.732634 -484.706626 
L 136.734407 -484.790454 
L 136.736049 -484.874141 
L 136.73756 -484.957688 
L 136.738947 -485.041094 
L 136.740213 -485.124361 
L 136.741365 -485.207489 
L 136.742407 -485.290477 
L 136.743347 -485.373328 
L 136.744191 -485.456041 
L 136.744946 -485.538616 
L 136.745618 -485.621055 
L 136.746213 -485.703357 
L 136.74674 -485.785523 
L 136.747203 -485.867553 
L 136.747609 -485.949449 
L 136.747963 -486.03121 
L 136.748271 -486.112836 
L 136.748537 -486.194329 
L 136.748767 -486.275689 
L 136.748965 -486.356915 
L 136.749134 -486.438009 
L 136.749278 -486.518971 
L 136.7494 -486.599802 
L 136.749504 -486.680501 
L 136.749591 -486.76107 
L 136.749664 -486.841508 
L 136.749726 -486.921816 
L 136.749777 -487.001995 
L 136.749819 -487.082045 
L 136.749854 -487.161966 
L 136.749883 -487.241759 
L 136.749907 -487.321424 
L 136.749926 -487.400962 
L 136.749942 -487.480373 
L 136.749955 -487.559657 
L 136.749965 -487.638814 
L 136.749973 -487.717846 
L 136.74998 -487.796753 
L 136.749985 -487.875535 
L 136.74999 -487.954192 
L 136.749993 -488.032724 
L 136.749996 -488.111133 
L 136.749998 -488.189419 
L 136.749999 -488.267581 
L 136.750001 -488.345621 
L 136.750002 -488.423539 
L 136.750002 -488.501334 
L 136.750003 -488.579008 
L 136.750004 -488.656561 
L 136.750004 -488.733994 
L 136.750004 -488.811305 
L 136.750004 -488.888497 
L 136.750005 -488.965569 
L 136.750005 -489.042522 
L 136.750005 -489.119356 
L 136.750005 -489.196072 
L 136.750005 -489.272669 
L 136.750005 -489.349149 
L 136.750005 -489.425511 
L 136.750005 -489.501756 
L 136.750005 -489.577884 
L 136.750005 -489.653896 
L 136.750005 -489.729792 
L 136.750005 -489.805572 
L 136.750005 -489.881237 
L 136.750005 -489.956787 
L 136.750005 -490.032222 
L 136.750005 -490.107543 
L 136.750005 -490.18275 
L 136.750005 -490.257844 
L 136.750005 -490.332824 
L 136.750005 -490.407692 
L 136.750005 -490.482447 
L 136.750005 -490.55709 
L 136.750005 -490.63162 
L 136.750005 -490.70604 
L 136.750005 -490.780348 
L 136.750005 -490.854545 
L 136.750005 -490.928632 
L 136.750005 -491.002608 
L 136.750005 -491.076475 
L 136.750005 -491.150232 
L 136.750005 -491.22388 
L 136.750005 -491.297419 
L 136.750005 -491.370849 
L 136.750005 -491.444171 
L 136.750005 -491.517385 
L 136.750005 -491.590492 
L 136.750005 -491.663491 
L 136.750005 -491.736383 
L 136.750005 -491.809168 
L 136.750005 -491.881847 
L 136.750005 -491.95442 
L 136.750005 -492.026888 
L 136.750005 -492.099249 
L 136.750005 -492.171506 
L 136.750004 -492.243658 
L 136.750004 -492.315705 
L 136.750004 -492.387648 
L 136.750004 -492.459487 
L 136.750003 -492.531223 
L 136.750003 -492.602855 
L 136.750002 -492.674384 
L 136.750001 -492.74581 
L 136.75 -492.817134 
L 136.749998 -492.888356 
L 136.749996 -492.959476 
L 136.749993 -493.030494 
L 136.74999 -493.101411 
L 136.749986 -493.172227 
L 136.749981 -493.242943 
L 136.749975 -493.313558 
L 136.749967 -493.384072 
L 136.749957 -493.454487 
L 136.749944 -493.524803 
L 136.749929 -493.595019 
L 136.749911 -493.665136 
L 136.749888 -493.735154 
L 136.74986 -493.805074 
L 136.749826 -493.874896 
L 136.749785 -493.94462 
L 136.749736 -494.014246 
L 136.749677 -494.083775 
L 136.749606 -494.153207 
L 136.749521 -494.222542 
L 136.749421 -494.29178 
L 136.749303 -494.360922 
L 136.749163 -494.429968 
L 136.748999 -494.498919 
L 136.748807 -494.567774 
L 136.748583 -494.636534 
L 136.748324 -494.705198 
L 136.748025 -494.773768 
L 136.74768 -494.842244 
L 136.747284 -494.910626 
L 136.746832 -494.978913 
L 136.746319 -495.047107 
L 136.745736 -495.115208 
L 136.745079 -495.183215 
L 136.744341 -495.25113 
L 136.743515 -495.318952 
L 136.742594 -495.386682 
L 136.741572 -495.454319 
L 136.740442 -495.521865 
L 136.739198 -495.589319 
L 136.737835 -495.656681 
L 136.736348 -495.723953 
L 136.734733 -495.791133 
L 136.732986 -495.858223 
L 136.731105 -495.925223 
L 136.729089 -495.992132 
L 136.726939 -496.058952 
L 136.724656 -496.125682 
L 136.722244 -496.192322 
L 136.719708 -496.258873 
L 136.717056 -496.325335 
L 136.714295 -496.391709 
L 136.711439 -496.457994 
L 136.708498 -496.524191 
L 136.705489 -496.5903 
L 136.702428 -496.656321 
L 136.699333 -496.722255 
L 136.696224 -496.788101 
L 136.693123 -496.85386 
L 136.690053 -496.919532 
L 136.687037 -496.985118 
L 136.684098 -497.050617 
L 136.681263 -497.11603 
L 136.678555 -497.181358 
L 136.675999 -497.246599 
L 136.673617 -497.311755 
L 136.671433 -497.376826 
L 136.669468 -497.441812 
L 136.667741 -497.506713 
L 136.666269 -497.571529 
L 136.665067 -497.636261 
L 136.664147 -497.700909 
L 136.66352 -497.765473 
L 136.66319 -497.829953 
L 136.663163 -497.89435 
L 136.663437 -497.958663 
L 136.664011 -498.022893 
L 136.664878 -498.087041 
L 136.666029 -498.151106 
L 136.667453 -498.215088 
L 136.669135 -498.278988 
L 136.671058 -498.342806 
L 136.673204 -498.406543 
L 136.675551 -498.470197 
L 136.678077 -498.533771 
L 136.680759 -498.597263 
L 136.683573 -498.660674 
L 136.686494 -498.724005 
L 136.689498 -498.787255 
L 136.692561 -498.850424 
L 136.695658 -498.913514 
L 136.698767 -498.976523 
L 136.701866 -499.039453 
L 136.704934 -499.102303 
L 136.707954 -499.165074 
L 136.710909 -499.227766 
L 136.713781 -499.290379 
L 136.71656 -499.352913 
L 136.719233 -499.415369 
L 136.72179 -499.477746 
L 136.724226 -499.540045 
L 136.726532 -499.602266 
L 136.728707 -499.664409 
L 136.730747 -499.726475 
L 136.732653 -499.788464 
L 136.734424 -499.850375 
L 136.736063 -499.912209 
L 136.737574 -499.973967 
L 136.738959 -500.035648 
L 136.740224 -500.097252 
L 136.741374 -500.15878 
L 136.742415 -500.220233 
L 136.743354 -500.281609 
L 136.744197 -500.34291 
L 136.744951 -500.404135 
L 136.745622 -500.465285 
L 136.746218 -500.52636 
L 136.746744 -500.58736 
L 136.747206 -500.648285 
L 136.747611 -500.709135 
L 136.747965 -500.769912 
L 136.748273 -500.830614 
L 136.748539 -500.891242 
L 136.748769 -500.951796 
L 136.748966 -501.012277 
L 136.749135 -501.072684 
L 136.749279 -501.133018 
L 136.749401 -501.193278 
L 136.749504 -501.253466 
L 136.749592 -501.313581 
L 136.749665 -501.373624 
L 136.749726 -501.433594 
L 136.749777 -501.493491 
L 136.749819 -501.553317 
L 136.749854 -501.613071 
L 136.749883 -501.672753 
L 136.749906 -501.732364 
L 136.749926 -501.791903 
L 136.749941 -501.851371 
L 136.749954 -501.910768 
L 136.749964 -501.970094 
L 136.749972 -502.029349 
L 136.749978 -502.088534 
L 136.749982 -502.147649 
L 136.749986 -502.206693 
L 136.749988 -502.265668 
L 136.749989 -502.324572 
L 136.74999 -502.383407 
L 136.749989 -502.442172 
L 136.749987 -502.500868 
L 136.749985 -502.559495 
L 136.749981 -502.618052 
L 136.749975 -502.676541 
L 136.749969 -502.734961 
L 136.74996 -502.793313 
L 136.749949 -502.851596 
L 136.749935 -502.909811 
L 136.749918 -502.967958 
L 136.749897 -503.026037 
L 136.749872 -503.084048 
L 136.749841 -503.141991 
L 136.749803 -503.199867 
L 136.749757 -503.257676 
L 136.749702 -503.315418 
L 136.749636 -503.373093 
L 136.749558 -503.430701 
L 136.749464 -503.488242 
L 136.749353 -503.545717 
L 136.749223 -503.603125 
L 136.749069 -503.660467 
L 136.748889 -503.717744 
L 136.748679 -503.774954 
L 136.748435 -503.832098 
L 136.748152 -503.889177 
L 136.747826 -503.946191 
L 136.747452 -504.003139 
L 136.747024 -504.060022 
L 136.746537 -504.11684 
L 136.745983 -504.173593 
L 136.745357 -504.230282 
L 136.744653 -504.286906 
L 136.743864 -504.343466 
L 136.742982 -504.399961 
L 136.742002 -504.456392 
L 136.740917 -504.512759 
L 136.739721 -504.569063 
L 136.738407 -504.625302 
L 136.736972 -504.681479 
L 136.735409 -504.737592 
L 136.733716 -504.793641 
L 136.73189 -504.849628 
L 136.72993 -504.905551 
L 136.727834 -504.961412 
L 136.725605 -505.01721 
L 136.723245 -505.072945 
L 136.720759 -505.128618 
L 136.718154 -505.184229 
L 136.715436 -505.239778 
L 136.712618 -505.295265 
L 136.70971 -505.350689 
L 136.706727 -505.406053 
L 136.703685 -505.461354 
L 136.700601 -505.516594 
L 136.697496 -505.571773 
L 136.694389 -505.626891 
L 136.691303 -505.681948 
L 136.688262 -505.736944 
L 136.685289 -505.791879 
L 136.682408 -505.846753 
L 136.679645 -505.901567 
L 136.677024 -505.95632 
L 136.674568 -506.011014 
L 136.672301 -506.065647 
L 136.670244 -506.12022 
L 136.668417 -506.174734 
L 136.666839 -506.229188 
L 136.665525 -506.283582 
L 136.664489 -506.337917 
L 136.663741 -506.392192 
L 136.663289 -506.446409 
L 136.663137 -506.500566 
L 136.836873 -506.500566 
L 136.836873 -506.500566 
L 136.836721 -506.446409 
L 136.836269 -506.392192 
L 136.835521 -506.337917 
L 136.834485 -506.283582 
L 136.833171 -506.229188 
L 136.831593 -506.174734 
L 136.829766 -506.12022 
L 136.827709 -506.065647 
L 136.825442 -506.011014 
L 136.822986 -505.95632 
L 136.820365 -505.901567 
L 136.817602 -505.846753 
L 136.814721 -505.791879 
L 136.811748 -505.736944 
L 136.808707 -505.681948 
L 136.805621 -505.626891 
L 136.802514 -505.571773 
L 136.799409 -505.516594 
L 136.796325 -505.461354 
L 136.793283 -505.406053 
L 136.7903 -505.350689 
L 136.787392 -505.295265 
L 136.784574 -505.239778 
L 136.781856 -505.184229 
L 136.779251 -505.128618 
L 136.776765 -505.072945 
L 136.774405 -505.01721 
L 136.772176 -504.961412 
L 136.77008 -504.905551 
L 136.76812 -504.849628 
L 136.766294 -504.793641 
L 136.764601 -504.737592 
L 136.763038 -504.681479 
L 136.761603 -504.625302 
L 136.760289 -504.569063 
L 136.759093 -504.512759 
L 136.758008 -504.456392 
L 136.757028 -504.399961 
L 136.756146 -504.343466 
L 136.755357 -504.286906 
L 136.754653 -504.230282 
L 136.754027 -504.173593 
L 136.753473 -504.11684 
L 136.752986 -504.060022 
L 136.752558 -504.003139 
L 136.752184 -503.946191 
L 136.751858 -503.889177 
L 136.751575 -503.832098 
L 136.751331 -503.774954 
L 136.751121 -503.717744 
L 136.750941 -503.660467 
L 136.750787 -503.603125 
L 136.750657 -503.545717 
L 136.750546 -503.488242 
L 136.750452 -503.430701 
L 136.750374 -503.373093 
L 136.750308 -503.315418 
L 136.750253 -503.257676 
L 136.750207 -503.199867 
L 136.750169 -503.141991 
L 136.750138 -503.084048 
L 136.750113 -503.026037 
L 136.750092 -502.967958 
L 136.750075 -502.909811 
L 136.750061 -502.851596 
L 136.75005 -502.793313 
L 136.750041 -502.734961 
L 136.750035 -502.676541 
L 136.750029 -502.618052 
L 136.750025 -502.559495 
L 136.750023 -502.500868 
L 136.750021 -502.442172 
L 136.75002 -502.383407 
L 136.750021 -502.324572 
L 136.750022 -502.265668 
L 136.750024 -502.206693 
L 136.750028 -502.147649 
L 136.750032 -502.088534 
L 136.750038 -502.029349 
L 136.750046 -501.970094 
L 136.750056 -501.910768 
L 136.750069 -501.851371 
L 136.750084 -501.791903 
L 136.750104 -501.732364 
L 136.750127 -501.672753 
L 136.750156 -501.613071 
L 136.750191 -501.553317 
L 136.750233 -501.493491 
L 136.750284 -501.433594 
L 136.750345 -501.373624 
L 136.750418 -501.313581 
L 136.750506 -501.253466 
L 136.750609 -501.193278 
L 136.750731 -501.133018 
L 136.750875 -501.072684 
L 136.751044 -501.012277 
L 136.751241 -500.951796 
L 136.751471 -500.891242 
L 136.751737 -500.830614 
L 136.752045 -500.769912 
L 136.752399 -500.709135 
L 136.752804 -500.648285 
L 136.753266 -500.58736 
L 136.753792 -500.52636 
L 136.754388 -500.465285 
L 136.755059 -500.404135 
L 136.755813 -500.34291 
L 136.756656 -500.281609 
L 136.757595 -500.220233 
L 136.758636 -500.15878 
L 136.759786 -500.097252 
L 136.761051 -500.035648 
L 136.762436 -499.973967 
L 136.763947 -499.912209 
L 136.765586 -499.850375 
L 136.767357 -499.788464 
L 136.769263 -499.726475 
L 136.771303 -499.664409 
L 136.773478 -499.602266 
L 136.775784 -499.540045 
L 136.77822 -499.477746 
L 136.780777 -499.415369 
L 136.78345 -499.352913 
L 136.786229 -499.290379 
L 136.789101 -499.227766 
L 136.792056 -499.165074 
L 136.795076 -499.102303 
L 136.798144 -499.039453 
L 136.801243 -498.976523 
L 136.804352 -498.913514 
L 136.807449 -498.850424 
L 136.810512 -498.787255 
L 136.813516 -498.724005 
L 136.816437 -498.660674 
L 136.819251 -498.597263 
L 136.821933 -498.533771 
L 136.824459 -498.470197 
L 136.826806 -498.406543 
L 136.828952 -498.342806 
L 136.830875 -498.278988 
L 136.832557 -498.215088 
L 136.833981 -498.151106 
L 136.835132 -498.087041 
L 136.835999 -498.022893 
L 136.836573 -497.958663 
L 136.836847 -497.89435 
L 136.83682 -497.829953 
L 136.83649 -497.765473 
L 136.835863 -497.700909 
L 136.834943 -497.636261 
L 136.833741 -497.571529 
L 136.832269 -497.506713 
L 136.830542 -497.441812 
L 136.828577 -497.376826 
L 136.826393 -497.311755 
L 136.824011 -497.246599 
L 136.821455 -497.181358 
L 136.818747 -497.11603 
L 136.815912 -497.050617 
L 136.812973 -496.985118 
L 136.809957 -496.919532 
L 136.806887 -496.85386 
L 136.803786 -496.788101 
L 136.800677 -496.722255 
L 136.797582 -496.656321 
L 136.794521 -496.5903 
L 136.791512 -496.524191 
L 136.788571 -496.457994 
L 136.785715 -496.391709 
L 136.782954 -496.325335 
L 136.780302 -496.258873 
L 136.777766 -496.192322 
L 136.775354 -496.125682 
L 136.773071 -496.058952 
L 136.770921 -495.992132 
L 136.768905 -495.925223 
L 136.767024 -495.858223 
L 136.765277 -495.791133 
L 136.763662 -495.723953 
L 136.762175 -495.656681 
L 136.760812 -495.589319 
L 136.759568 -495.521865 
L 136.758438 -495.454319 
L 136.757416 -495.386682 
L 136.756495 -495.318952 
L 136.755669 -495.25113 
L 136.754931 -495.183215 
L 136.754274 -495.115208 
L 136.753691 -495.047107 
L 136.753178 -494.978913 
L 136.752726 -494.910626 
L 136.75233 -494.842244 
L 136.751985 -494.773768 
L 136.751686 -494.705198 
L 136.751427 -494.636534 
L 136.751203 -494.567774 
L 136.751011 -494.498919 
L 136.750847 -494.429968 
L 136.750707 -494.360922 
L 136.750589 -494.29178 
L 136.750489 -494.222542 
L 136.750404 -494.153207 
L 136.750333 -494.083775 
L 136.750274 -494.014246 
L 136.750225 -493.94462 
L 136.750184 -493.874896 
L 136.75015 -493.805074 
L 136.750122 -493.735154 
L 136.750099 -493.665136 
L 136.750081 -493.595019 
L 136.750066 -493.524803 
L 136.750053 -493.454487 
L 136.750043 -493.384072 
L 136.750035 -493.313558 
L 136.750029 -493.242943 
L 136.750024 -493.172227 
L 136.75002 -493.101411 
L 136.750017 -493.030494 
L 136.750014 -492.959476 
L 136.750012 -492.888356 
L 136.75001 -492.817134 
L 136.750009 -492.74581 
L 136.750008 -492.674384 
L 136.750007 -492.602855 
L 136.750007 -492.531223 
L 136.750006 -492.459487 
L 136.750006 -492.387648 
L 136.750006 -492.315705 
L 136.750006 -492.243658 
L 136.750005 -492.171506 
L 136.750005 -492.099249 
L 136.750005 -492.026888 
L 136.750005 -491.95442 
L 136.750005 -491.881847 
L 136.750005 -491.809168 
L 136.750005 -491.736383 
L 136.750005 -491.663491 
L 136.750005 -491.590492 
L 136.750005 -491.517385 
L 136.750005 -491.444171 
L 136.750005 -491.370849 
L 136.750005 -491.297419 
L 136.750005 -491.22388 
L 136.750005 -491.150232 
L 136.750005 -491.076475 
L 136.750005 -491.002608 
L 136.750005 -490.928632 
L 136.750005 -490.854545 
L 136.750005 -490.780348 
L 136.750005 -490.70604 
L 136.750005 -490.63162 
L 136.750005 -490.55709 
L 136.750005 -490.482447 
L 136.750005 -490.407692 
L 136.750005 -490.332824 
L 136.750005 -490.257844 
L 136.750005 -490.18275 
L 136.750005 -490.107543 
L 136.750005 -490.032222 
L 136.750005 -489.956787 
L 136.750005 -489.881237 
L 136.750005 -489.805572 
L 136.750005 -489.729792 
L 136.750005 -489.653896 
L 136.750005 -489.577884 
L 136.750005 -489.501756 
L 136.750005 -489.425511 
L 136.750005 -489.349149 
L 136.750005 -489.272669 
L 136.750005 -489.196072 
L 136.750005 -489.119356 
L 136.750005 -489.042522 
L 136.750005 -488.965569 
L 136.750006 -488.888497 
L 136.750006 -488.811305 
L 136.750006 -488.733994 
L 136.750006 -488.656561 
L 136.750007 -488.579008 
L 136.750008 -488.501334 
L 136.750008 -488.423539 
L 136.750009 -488.345621 
L 136.750011 -488.267581 
L 136.750012 -488.189419 
L 136.750014 -488.111133 
L 136.750017 -488.032724 
L 136.75002 -487.954192 
L 136.750025 -487.875535 
L 136.75003 -487.796753 
L 136.750037 -487.717846 
L 136.750045 -487.638814 
L 136.750055 -487.559657 
L 136.750068 -487.480373 
L 136.750084 -487.400962 
L 136.750103 -487.321424 
L 136.750127 -487.241759 
L 136.750156 -487.161966 
L 136.750191 -487.082045 
L 136.750233 -487.001995 
L 136.750284 -486.921816 
L 136.750346 -486.841508 
L 136.750419 -486.76107 
L 136.750506 -486.680501 
L 136.75061 -486.599802 
L 136.750732 -486.518971 
L 136.750876 -486.438009 
L 136.751045 -486.356915 
L 136.751243 -486.275689 
L 136.751473 -486.194329 
L 136.751739 -486.112836 
L 136.752047 -486.03121 
L 136.752401 -485.949449 
L 136.752807 -485.867553 
L 136.75327 -485.785523 
L 136.753797 -485.703357 
L 136.754392 -485.621055 
L 136.755064 -485.538616 
L 136.755819 -485.456041 
L 136.756663 -485.373328 
L 136.757603 -485.290477 
L 136.758645 -485.207489 
L 136.759797 -485.124361 
L 136.761063 -485.041094 
L 136.76245 -484.957688 
L 136.763961 -484.874141 
L 136.765603 -484.790454 
L 136.767376 -484.706626 
L 136.769285 -484.622656 
L 136.771328 -484.538544 
L 136.773507 -484.45429 
L 136.775818 -484.369893 
L 136.778259 -484.285352 
L 136.780823 -484.200667 
L 136.783504 -484.115838 
L 136.786292 -484.030864 
L 136.789177 -483.945744 
L 136.792145 -483.860479 
L 136.795182 -483.775067 
L 136.798272 -483.689508 
L 136.801397 -483.603801 
L 136.804536 -483.517947 
L 136.807671 -483.431944 
L 136.810778 -483.345792 
L 136.813836 -483.259491 
L 136.816821 -483.173039 
L 136.819712 -483.086437 
L 136.822486 -482.999684 
L 136.825121 -482.912779 
L 136.827596 -482.825723 
L 136.829892 -482.738513 
L 136.831991 -482.65115 
L 136.83388 -482.563634 
L 136.835543 -482.475963 
L 136.836973 -482.388138 
L 136.83816 -482.300157 
L 136.839103 -482.21202 
L 136.8398 -482.123726 
L 136.840254 -482.035276 
L 136.840471 -481.946668 
L 136.840462 -481.857901 
L 136.840239 -481.768977 
L 136.839819 -481.679892 
L 136.839221 -481.590648 
L 136.838465 -481.501243 
L 136.837577 -481.411678 
L 136.836581 -481.321951 
L 136.835504 -481.232061 
L 136.834374 -481.142009 
L 136.833219 -481.051793 
L 136.832067 -480.961414 
L 136.830945 -480.87087 
L 136.82988 -480.78016 
L 136.828897 -480.689285 
L 136.828016 -480.598244 
L 136.827259 -480.507036 
L 136.826642 -480.41566 
L 136.826179 -480.324115 
L 136.825881 -480.232402 
L 136.825754 -480.14052 
L 136.8258 -480.048467 
L 136.82602 -479.956244 
L 136.826407 -479.863849 
L 136.826953 -479.771283 
L 136.827647 -479.678543 
L 136.828472 -479.585631 
L 136.82941 -479.492544 
L 136.830441 -479.399283 
L 136.831539 -479.305847 
L 136.83268 -479.212235 
L 136.833837 -479.118446 
L 136.834982 -479.02448 
L 136.836087 -478.930336 
L 136.837124 -478.836014 
L 136.838066 -478.741512 
L 136.838887 -478.64683 
L 136.839561 -478.551968 
L 136.840067 -478.456925 
L 136.840384 -478.361699 
L 136.840495 -478.266291 
L 136.840384 -478.170699 
L 136.840042 -478.074924 
L 136.839459 -477.978963 
L 136.838631 -477.882817 
L 136.837558 -477.786484 
L 136.836241 -477.689965 
L 136.834686 -477.593258 
L 136.832902 -477.496363 
L 136.8309 -477.399278 
L 136.828695 -477.302003 
L 136.826302 -477.204538 
L 136.823742 -477.106882 
L 136.821033 -477.009033 
L 136.818198 -476.910991 
L 136.815258 -476.812756 
L 136.812237 -476.714326 
L 136.809158 -476.615701 
L 136.806043 -476.51688 
L 136.802915 -476.417862 
L 136.799796 -476.318647 
L 136.796706 -476.219233 
L 136.793665 -476.11962 
L 136.790691 -476.019807 
L 136.787801 -475.919794 
L 136.78501 -475.819579 
L 136.782331 -475.719161 
L 136.779776 -475.618541 
L 136.777356 -475.517716 
L 136.77508 -475.416687 
L 136.772955 -475.315451 
L 136.770988 -475.21401 
L 136.769184 -475.112361 
L 136.767548 -475.010503 
L 136.766083 -474.908437 
L 136.764795 -474.806161 
L 136.763684 -474.703674 
L 136.762757 -474.600975 
L 136.762015 -474.498064 
L 136.761463 -474.394939 
L 136.761106 -474.2916 
L 136.760949 -474.188046 
L 136.760999 -474.084276 
L 136.761264 -473.980289 
L 136.761752 -473.876084 
L 136.762474 -473.77166 
L 136.76344 -473.667016 
L 136.764663 -473.562152 
L 136.766158 -473.457066 
L 136.767938 -473.351757 
L 136.770021 -473.246225 
L 136.772421 -473.140469 
L 136.775158 -473.034487 
L 136.778247 -472.928279 
L 136.781708 -472.821843 
L 136.785557 -472.71518 
L 136.78981 -472.608287 
L 136.794484 -472.501163 
L 136.799592 -472.393809 
L 136.805145 -472.286222 
L 136.811155 -472.178402 
L 136.817626 -472.070347 
L 136.824562 -471.962058 
L 136.831962 -471.853532 
L 136.839822 -471.744768 
L 136.848132 -471.635766 
L 136.856876 -471.526525 
L 136.866035 -471.417043 
L 136.875584 -471.30732 
L 136.885491 -471.197354 
L 136.89572 -471.087144 
L 136.906228 -470.97669 
L 136.916967 -470.865989 
L 136.927885 -470.755042 
L 136.938922 -470.643846 
L 136.950016 -470.532402 
L 136.9611 -470.420707 
L 136.972106 -470.30876 
L 136.982959 -470.196561 
L 136.993587 -470.084109 
L 137.003914 -469.971401 
L 137.013865 -469.858437 
L 137.023366 -469.745217 
L 137.032346 -469.631737 
L 137.040736 -469.517999 
L 137.048472 -469.403999 
L 137.055493 -469.289738 
L 137.061747 -469.175213 
L 137.067186 -469.060424 
L 137.07177 -468.94537 
L 137.075469 -468.830048 
L 137.078259 -468.714459 
L 137.080127 -468.5986 
L 137.081067 -468.482471 
L 137.081086 -468.36607 
L 137.080196 -468.249396 
L 137.078421 -468.132447 
L 137.075792 -468.015223 
L 137.072348 -467.897721 
L 137.068138 -467.779942 
L 137.063216 -467.661883 
L 137.05764 -467.543542 
L 137.051478 -467.42492 
L 137.044797 -467.306014 
L 137.03767 -467.186823 
L 137.030171 -467.067345 
L 137.022374 -466.94758 
L 137.014355 -466.827526 
L 137.006185 -466.707181 
L 136.997936 -466.586544 
L 136.989675 -466.465614 
L 136.981465 -466.344389 
L 136.973365 -466.222867 
L 136.965426 -466.101048 
L 136.957697 -465.97893 
L 136.950216 -465.856512 
L 136.943017 -465.733791 
L 136.936127 -465.610766 
L 136.929566 -465.487437 
L 136.923346 -465.363801 
L 136.917474 -465.239856 
L 136.911951 -465.115602 
L 136.906772 -464.991037 
L 136.901927 -464.866159 
L 136.8974 -464.740966 
L 136.893175 -464.615458 
L 136.88923 -464.489632 
L 136.885541 -464.363486 
L 136.882085 -464.23702 
L 136.878835 -464.110232 
L 136.875767 -463.983119 
L 136.872855 -463.855681 
L 136.870077 -463.727915 
L 136.867411 -463.59982 
L 136.864839 -463.471395 
L 136.862345 -463.342636 
L 136.859916 -463.213544 
L 136.857543 -463.084115 
L 136.85522 -462.954349 
L 136.852944 -462.824243 
L 136.850718 -462.693796 
L 136.848546 -462.563006 
L 136.846435 -462.431871 
L 136.844396 -462.300389 
L 136.842443 -462.168559 
L 136.84059 -462.036378 
L 136.838854 -461.903845 
L 136.837253 -461.770958 
L 136.835805 -461.637715 
L 136.83453 -461.504114 
L 136.833444 -461.370153 
L 136.832566 -461.23583 
L 136.831911 -461.101143 
L 136.831495 -460.96609 
L 136.831327 -460.83067 
L 136.83142 -460.69488 
L 136.831779 -460.558718 
L 136.832409 -460.422182 
L 136.833311 -460.28527 
L 136.834484 -460.147981 
L 136.835923 -460.010311 
L 136.83762 -459.872259 
L 136.839566 -459.733822 
L 136.841746 -459.595 
L 136.844146 -459.455788 
L 136.846748 -459.316186 
L 136.849533 -459.176191 
L 136.852481 -459.0358 
L 136.855571 -458.895012 
L 136.858779 -458.753825 
L 136.862085 -458.612235 
L 136.865466 -458.470241 
L 136.8689 -458.32784 
L 136.872368 -458.185031 
L 136.87585 -458.04181 
L 136.879328 -457.898175 
L 136.882789 -457.754125 
L 136.886218 -457.609656 
L 136.889605 -457.464766 
L 136.892943 -457.319452 
L 136.896227 -457.173713 
L 136.899454 -457.027545 
L 136.902627 -456.880947 
L 136.905749 -456.733915 
L 136.908829 -456.586447 
L 136.911877 -456.43854 
L 136.914907 -456.290192 
L 136.917935 -456.1414 
L 136.920981 -455.992162 
L 136.924067 -455.842474 
L 136.927218 -455.692335 
L 136.93046 -455.541741 
L 136.933821 -455.390689 
L 136.937331 -455.239177 
L 136.941022 -455.087202 
L 136.944924 -454.934761 
L 136.949071 -454.781852 
L 136.953493 -454.628471 
L 136.958224 -454.474615 
L 136.963292 -454.320282 
L 136.968729 -454.165468 
L 136.974561 -454.010171 
L 136.980814 -453.854387 
L 136.98751 -453.698114 
L 136.994668 -453.541348 
L 137.002305 -453.384087 
L 137.010433 -453.226326 
L 137.019058 -453.068063 
L 137.028185 -452.909295 
L 137.037812 -452.750019 
L 137.047934 -452.590231 
L 137.058538 -452.429927 
L 137.069609 -452.269106 
L 137.081125 -452.107762 
L 137.093062 -451.945893 
L 137.105388 -451.783496 
L 137.118069 -451.620566 
L 137.131067 -451.457101 
L 137.144338 -451.293097 
L 137.157837 -451.12855 
L 137.171516 -450.963457 
L 137.185323 -450.797814 
L 137.199205 -450.631617 
L 137.213109 -450.464864 
L 137.226978 -450.297548 
L 137.240757 -450.129669 
L 137.254389 -449.96122 
L 137.267819 -449.792199 
L 137.280991 -449.622601 
L 137.293852 -449.452423 
L 137.306348 -449.281661 
L 137.318429 -449.11031 
L 137.330044 -448.938367 
L 137.341146 -448.765827 
L 137.35169 -448.592687 
L 137.361631 -448.418941 
L 137.37093 -448.244587 
L 137.379547 -448.069618 
L 137.387447 -447.894032 
L 137.394597 -447.717824 
L 137.400967 -447.54099 
L 137.406529 -447.363524 
L 137.411261 -447.185422 
L 137.415141 -447.006681 
L 137.418153 -446.827294 
L 137.420286 -446.647258 
L 137.421531 -446.466568 
L 137.421885 -446.285219 
L 137.42135 -446.103207 
L 137.419932 -445.920525 
L 137.417645 -445.73717 
L 137.414506 -445.553137 
L 137.410541 -445.36842 
L 137.405779 -445.183014 
L 137.400259 -444.996914 
L 137.394023 -444.810115 
L 137.38712 -444.622612 
L 137.379608 -444.4344 
L 137.371547 -444.245472 
L 137.363004 -444.055823 
L 137.354052 -443.865449 
L 137.344768 -443.674343 
L 137.335232 -443.4825 
L 137.32553 -443.289913 
L 137.315747 -443.096578 
L 137.305974 -442.902489 
L 137.296301 -442.707639 
L 137.286817 -442.512022 
L 137.277614 -442.315633 
L 137.268781 -442.118465 
L 137.260404 -441.920513 
L 137.252569 -441.721769 
L 137.245356 -441.522227 
L 137.238843 -441.321882 
L 137.233104 -441.120726 
L 137.228208 -440.918754 
L 137.224216 -440.715957 
L 137.221188 -440.512331 
L 137.219176 -440.307867 
L 137.218226 -440.102558 
L 137.218379 -439.896399 
L 137.21967 -439.689381 
L 137.222128 -439.481498 
L 137.225774 -439.272743 
L 137.230627 -439.063107 
L 137.236695 -438.852584 
L 137.243986 -438.641166 
L 137.252496 -438.428845 
L 137.262221 -438.215613 
L 137.273145 -438.001464 
L 137.285252 -437.786388 
L 137.298516 -437.570378 
L 137.312907 -437.353425 
L 137.328388 -437.135522 
L 137.344917 -436.916659 
L 137.362445 -436.69683 
L 137.380917 -436.476024 
L 137.400273 -436.254233 
L 137.420447 -436.031449 
L 137.441366 -435.807662 
L 137.462953 -435.582863 
L 137.485125 -435.357044 
L 137.507795 -435.130194 
L 137.530871 -434.902305 
L 137.554259 -434.673367 
L 137.577858 -434.44337 
L 137.60157 -434.212304 
L 137.625291 -433.980159 
L 137.64892 -433.746926 
L 137.672354 -433.512593 
L 137.695493 -433.277151 
L 137.71824 -433.040589 
L 137.7405 -432.802897 
L 137.762184 -432.564062 
L 137.783209 -432.324075 
L 137.803499 -432.082925 
L 137.822985 -431.840599 
L 137.841608 -431.597086 
L 137.859318 -431.352376 
L 137.876076 -431.106454 
L 137.891852 -430.859311 
L 137.906631 -430.610934 
L 137.920405 -430.361309 
L 137.93318 -430.110425 
L 137.944974 -429.858269 
L 137.955816 -429.604828 
L 137.965743 -429.350089 
L 137.974808 -429.094037 
L 137.983067 -428.836661 
L 137.99059 -428.577946 
L 137.997452 -428.317877 
L 138.003736 -428.056441 
L 138.009529 -427.793624 
L 138.014925 -427.52941 
L 138.020019 -427.263785 
L 138.02491 -426.996733 
L 138.029696 -426.72824 
L 138.034477 -426.458289 
L 138.03935 -426.186864 
L 138.044411 -425.91395 
L 138.049754 -425.63953 
L 138.055468 -425.363587 
L 138.061638 -425.086104 
L 138.068345 -424.807064 
L 138.075667 -424.526449 
L 138.083675 -424.244242 
L 138.092435 -423.960425 
L 138.102011 -423.674978 
L 138.112461 -423.387883 
L 138.123838 -423.099121 
L 138.136194 -422.808673 
L 138.149578 -422.516518 
L 138.164034 -422.222636 
L 138.179607 -421.927007 
L 138.19634 -421.629611 
L 138.214275 -421.330425 
L 138.233454 -421.029428 
L 138.253921 -420.726598 
L 138.275718 -420.421913 
L 138.298892 -420.115349 
L 138.323487 -419.806884 
L 138.349553 -419.496493 
L 138.37714 -419.184153 
L 138.4063 -418.869838 
L 138.437088 -418.553524 
L 138.46956 -418.235185 
L 138.503775 -417.914796 
L 138.539797 -417.592328 
L 138.577688 -417.267756 
L 138.617517 -416.941051 
L 138.659354 -416.612186 
L 138.703273 -416.281132 
L 138.749352 -415.947858 
L 138.797674 -415.612337 
L 138.848327 -415.274535 
L 138.901405 -414.934424 
L 138.957006 -414.59197 
L 139.015239 -414.247142 
L 139.07622 -413.899905 
L 139.140073 -413.550227 
L 139.206934 -413.198073 
L 139.276949 -412.843407 
L 139.350274 -412.486193 
L 139.427082 -412.126395 
L 139.507554 -411.763975 
L 139.591887 -411.398894 
L 139.680293 -411.031112 
L 139.772996 -410.66059 
L 139.870235 -410.287287 
L 139.972263 -409.91116 
L 140.079349 -409.532167 
L 140.191773 -409.150263 
L 140.309828 -408.765403 
L 140.433822 -408.377542 
L 140.564073 -407.986631 
L 140.700909 -407.592623 
L 140.844669 -407.195469 
L 140.995702 -406.795117 
L 141.154365 -406.391515 
L 141.32102 -405.984611 
L 141.496038 -405.57435 
L 141.679794 -405.160676 
L 141.872667 -404.743532 
L 142.07504 -404.32286 
L 142.287299 -403.898598 
L 142.509829 -403.470685 
L 142.743019 -403.039058 
L 142.987254 -402.603651 
L 143.242919 -402.164399 
L 143.510395 -401.721232 
L 143.790059 -401.27408 
L 144.082282 -400.822871 
L 144.387428 -400.36753 
L 144.70585 -399.907982 
L 145.037889 -399.444146 
L 145.383876 -398.975944 
L 145.744121 -398.503291 
L 146.118917 -398.026103 
L 146.508537 -397.544292 
L 146.913225 -397.057766 
L 147.333201 -396.566433 
L 147.768652 -396.070197 
L 148.21973 -395.568959 
L 148.68655 -395.062618 
L 149.169183 -394.551067 
L 149.667656 -394.0342 
L 150.181948 -393.511904 
L 150.711985 -392.984064 
L 151.257638 -392.45056 
L 151.818716 -391.911272 
L 152.394971 -391.36607 
L 152.986086 -390.814824 
L 153.591679 -390.2574 
L 154.211299 -389.693656 
L 154.84442 -389.123447 
L 155.490445 -388.546625 
L 156.148702 -387.963033 
L 156.818441 -387.37251 
L 157.498838 -386.774891 
L 158.188992 -386.170002 
L 158.887922 -385.557665 
L 159.594575 -384.937693 
L 160.307822 -384.309894 
L 161.02646 -383.674068 
L 161.749217 -383.030007 
L 162.474751 -382.377495 
L 163.201657 -381.716307 
L 163.928468 -381.046208 
L 164.653661 -380.366957 
L 165.37566 -379.678298 
L 166.092844 -378.979969 
L 166.803552 -378.271693 
L 167.506088 -377.553183 
L 168.198729 -376.824139 
L 168.879732 -376.084248 
L 169.54734 -375.333181 
L 170.199793 -374.570597 
L 170.835331 -373.796135 
L 171.452207 -373.009421 
L 172.048691 -372.210061 
L 172.623081 -371.397641 
L 173.17371 -370.571727 
L 173.698953 -369.731865 
L 174.197236 -368.877573 
L 174.667043 -368.008348 
L 175.106923 -367.123659 
L 175.5155 -366.222945 
L 175.891477 -365.305615 
L 176.233643 -364.371045 
L 176.540881 -363.418574 
L 176.812174 -362.447502 
L 177.046611 -361.457089 
L 177.24339 -360.446549 
L 177.401828 -359.415047 
L 177.521364 -358.361694 
L 177.601561 -355.906412 
L 177.642118 -353.172975 
L 177.642866 -350.439538 
L 177.603774 -347.706101 
L 177.524957 -344.972664 
L 177.40667 -342.239227 
L 177.249316 -339.50579 
L 177.053445 -336.772353 
L 176.819753 -334.038916 
L 176.549079 -331.305479 
L 176.242407 -328.572042 
L 175.900861 -325.838605 
L 175.525695 -323.105168 
L 175.118293 -320.371731 
L 174.680158 -317.638294 
L 174.212903 -314.904857 
L 173.718236 -312.17142 
L 173.197957 -309.437983 
L 172.653935 -306.704546 
L 172.088097 -303.971109 
L 171.502412 -301.237672 
L 170.898874 -298.504235 
L 170.279484 -295.770798 
L 169.646234 -293.037361 
L 169.001085 -290.303924 
L 168.345955 -287.570487 
L 167.682699 -284.83705 
L 167.013093 -282.103613 
L 166.33882 -279.370176 
L 165.661456 -276.636739 
L 164.982459 -273.903303 
L 164.303161 -271.169866 
L 163.624759 -268.436429 
L 162.94831 -265.702992 
L 162.274732 -262.969555 
L 161.6048 -260.236118 
L 160.939154 -257.502681 
L 160.278301 -254.769244 
L 159.622625 -252.035807 
L 158.972396 -249.30237 
L 158.327782 -246.568933 
L 157.688865 -243.835496 
L 157.055653 -241.102059 
L 156.4281 -238.368622 
L 155.806117 -235.635185 
L 155.189595 -232.901748 
L 154.578418 -230.168311 
L 153.972479 -227.434874 
L 153.371696 -224.701437 
L 152.776024 -221.968 
L 152.18547 -219.234563 
L 151.6001 -216.501126 
L 151.020046 -213.767689 
L 150.445515 -211.034252 
L 149.87679 -208.300815 
L 149.314229 -205.567378 
L 148.758268 -202.833941 
L 148.209413 -200.100504 
L 147.668235 -197.367067 
L 147.135365 -194.63363 
L 146.611479 -191.900193 
L 146.097294 -189.166756 
L 145.593549 -186.433319 
L 145.100999 -183.699882 
L 144.620398 -180.966445 
L 144.152487 -178.233008 
L 143.697982 -175.499571 
L 143.257562 -172.766134 
L 142.831856 -170.032697 
L 142.421434 -167.29926 
L 142.026798 -164.565823 
L 141.648375 -161.832386 
L 141.28651 -159.098949 
L 140.94146 -156.365512 
L 140.613396 -153.632075 
L 140.302398 -150.898638 
L 140.008454 -148.165201 
L 139.731466 -145.431764 
L 139.471252 -142.698327 
L 139.227548 -139.96489 
L 139.000015 -137.231453 
L 138.788245 -134.498016 
L 138.59177 -131.764579 
L 138.410066 -129.031142 
L 138.242563 -126.297705 
L 138.088653 -123.564268 
L 137.947697 -120.830831 
L 137.819034 -118.097394 
L 137.701987 -115.363957 
L 137.595871 -112.630521 
L 137.500001 -109.897084 
L 137.413696 -107.163647 
L 137.336285 -104.43021 
L 137.267113 -102.9439 
L 137.205545 -101.903296 
L 137.150965 -100.884023 
L 137.102788 -99.885222 
L 137.060452 -98.906088 
L 137.023427 -97.945862 
L 136.991213 -97.003826 
L 136.963341 -96.079305 
L 136.939372 -95.171659 
L 136.918898 -94.280284 
L 136.901541 -93.404605 
L 136.886953 -92.54408 
L 136.874812 -91.698193 
L 136.864825 -90.866455 
L 136.856721 -90.048399 
L 136.850255 -89.243584 
L 136.845204 -88.451587 
L 136.841364 -87.672006 
L 136.838551 -86.904459 
L 136.836599 -86.148578 
L 136.835357 -85.404016 
L 136.83469 -84.670437 
L 136.834477 -83.947523 
L 136.834608 -83.234968 
L 136.834986 -82.532479 
L 136.835526 -81.839776 
L 136.83615 -81.156589 
L 136.836792 -80.482662 
L 136.837394 -79.817746 
L 136.837906 -79.161603 
L 136.838284 -78.514005 
L 136.838495 -77.874733 
L 136.838509 -77.243575 
L 136.838304 -76.620327 
z
" style="stroke: #ffffff; stroke-opacity: 0.75"/>
    </defs>
    <g clip-path="url(#p4fede5e3eb)">
     <use xlink:href="#m8fb4dbf31d" x="0" y="559.92" style="fill: #979797; fill-opacity: 0.75; stroke: #ffffff; stroke-opacity: 0.75"/>
    </g>
   </g>
   <g id="matplotlib.axis_1"/>
   <g id="matplotlib.axis_2">
    <g id="ytick_1">
     <g id="line2d_1">
      <defs>
       <path id="m2f647b869a" d="M 0 0 
L -4 0 
" style="stroke: #000000; stroke-width: 0.8"/>
      </defs>
      <g>
       <use xlink:href="#m2f647b869a" x="79.5" y="536.22" style="stroke: #000000; stroke-width: 0.8"/>
      </g>
     </g>
     <g id="text_1">
      <!-- $\mathdefault{-10^{1}}$ -->
      <g transform="translate(12 546.72) scale(0.3 -0.3)">
       <defs>
        <path id="Figtree-Regular-2212" d="M 774 1677 
L 774 2131 
L 3219 2131 
L 3219 1677 
L 774 1677 
z
" transform="scale(0.015625)"/>
        <path id="Figtree-Regular-31" d="M 1389 0 
L 1389 4192 
L 1434 4480 
L 1920 4480 
L 1920 0 
L 1389 0 
z
M 384 3328 
L 384 3821 
Q 518 3814 704 3910 
Q 890 4006 1088 4160 
Q 1286 4314 1434 4480 
L 1766 4115 
Q 1555 3891 1324 3712 
Q 1094 3533 857 3427 
Q 621 3322 384 3328 
z
" transform="scale(0.015625)"/>
        <path id="Figtree-Regular-30" d="M 2048 -77 
Q 1536 -77 1139 220 
Q 742 518 518 1040 
Q 294 1562 294 2240 
Q 294 2918 518 3440 
Q 742 3962 1136 4259 
Q 1530 4557 2048 4557 
Q 2566 4557 2960 4259 
Q 3354 3962 3581 3440 
Q 3808 2918 3808 2240 
Q 3808 1562 3584 1040 
Q 3360 518 2963 220 
Q 2566 -77 2048 -77 
z
M 2048 410 
Q 2406 410 2684 646 
Q 2963 883 3120 1292 
Q 3277 1702 3277 2240 
Q 3277 2778 3120 3190 
Q 2963 3603 2684 3836 
Q 2406 4070 2048 4070 
Q 1690 4070 1414 3836 
Q 1139 3603 982 3190 
Q 826 2778 826 2240 
Q 826 1702 982 1292 
Q 1139 883 1417 646 
Q 1696 410 2048 410 
z
" transform="scale(0.015625)"/>
       </defs>
       <use xlink:href="#Figtree-Regular-2212"/>
       <use xlink:href="#Figtree-Regular-31" transform="translate(62.299988 0)"/>
       <use xlink:href="#Figtree-Regular-30" transform="translate(103.599976 0)"/>
       <use xlink:href="#Figtree-Regular-31" transform="translate(168.574966 35) scale(0.7)"/>
      </g>
     </g>
    </g>
    <g id="ytick_2">
     <g id="line2d_2">
      <g>
       <use xlink:href="#m2f647b869a" x="79.5" y="392.573721" style="stroke: #000000; stroke-width: 0.8"/>
      </g>
     </g>
     <g id="text_2">
      <!-- $\mathdefault{-10^{0}}$ -->
      <g transform="translate(7.2 403.073721) scale(0.3 -0.3)">
       <use xlink:href="#Figtree-Regular-2212" transform="translate(0 0.157813)"/>
       <use xlink:href="#Figtree-Regular-31" transform="translate(62.299988 0.157813)"/>
       <use xlink:href="#Figtree-Regular-30" transform="translate(103.599976 0.157813)"/>
       <use xlink:href="#Figtree-Regular-30" transform="translate(168.574966 35.157813) scale(0.7)"/>
      </g>
     </g>
    </g>
    <g id="ytick_3">
     <g id="line2d_3">
      <g>
       <use xlink:href="#m2f647b869a" x="79.5" y="265.348752" style="stroke: #000000; stroke-width: 0.8"/>
      </g>
     </g>
     <g id="text_3">
      <!-- $\mathdefault{10^{0}}$ -->
      <g transform="translate(25.8 275.848752) scale(0.3 -0.3)">
       <use xlink:href="#Figtree-Regular-31" transform="translate(0 0.157813)"/>
       <use xlink:href="#Figtree-Regular-30" transform="translate(41.299988 0.157813)"/>
       <use xlink:href="#Figtree-Regular-30" transform="translate(106.274979 35.157813) scale(0.7)"/>
      </g>
     </g>
    </g>
    <g id="ytick_4">
     <g id="line2d_4">
      <g>
       <use xlink:href="#m2f647b869a" x="79.5" y="121.702473" style="stroke: #000000; stroke-width: 0.8"/>
      </g>
     </g>
     <g id="text_4">
      <!-- $\mathdefault{10^{1}}$ -->
      <g transform="translate(30.6 132.202473) scale(0.3 -0.3)">
       <use xlink:href="#Figtree-Regular-31"/>
       <use xlink:href="#Figtree-Regular-30" transform="translate(41.299988 0)"/>
       <use xlink:href="#Figtree-Regular-31" transform="translate(106.274979 35) scale(0.7)"/>
      </g>
     </g>
    </g>
    <g id="ytick_5">
     <g id="line2d_5">
      <defs>
       <path id="m7dfeab9159" d="M 0 0 
L -2.5 0 
" style="stroke: #000000; stroke-width: 0.6"/>
      </defs>
      <g>
       <use xlink:href="#m7dfeab9159" x="79.5" y="328.961236" style="stroke: #000000; stroke-width: 0.6"/>
      </g>
     </g>
    </g>
    <g id="ytick_6">
     <g id="line2d_6">
      <g>
       <use xlink:href="#m7dfeab9159" x="79.5" y="7.2" style="stroke: #000000; stroke-width: 0.6"/>
      </g>
     </g>
    </g>
   </g>
   <g id="LineCollection_1">
    <path d="M 116.303575 53.419434 
L 157.196435 53.419434 
" clip-path="url(#p4fede5e3eb)" style="fill: none; stroke: #001219; stroke-width: 1.5"/>
   </g>
   <g id="LineCollection_2">
    <path d="M 116.303575 483.299673 
L 157.196435 483.299673 
" clip-path="url(#p4fede5e3eb)" style="fill: none; stroke: #001219; stroke-width: 1.5"/>
   </g>
   <g id="LineCollection_3">
    <path d="M 136.750005 483.299673 
L 136.750005 53.419434 
" clip-path="url(#p4fede5e3eb)" style="fill: none; stroke: #001219; stroke-width: 1.5"/>
   </g>
   <g id="LineCollection_4">
    <path d="M 116.303575 201.214804 
L 157.196435 201.214804 
" clip-path="url(#p4fede5e3eb)" style="fill: none; stroke: #001219; stroke-width: 1.5"/>
   </g>
   <g id="line2d_7">
    <path d="M 79.5 328.961236 
L 194.00001 328.961236 
" clip-path="url(#p4fede5e3eb)" style="fill: none; stroke-dasharray: 11.1,4.8; stroke-dashoffset: 0; stroke: #000000; stroke-width: 3"/>
   </g>
   <g id="patch_3">
    <path d="M 79.5 536.22 
L 79.5 7.2 
" style="fill: none; stroke: #000000; stroke-linejoin: miter; stroke-linecap: square"/>
   </g>
   <g id="patch_4">
    <path d="M 79.5 536.22 
L 194.00001 536.22 
" style="fill: none; stroke: #000000; stroke-linejoin: miter; stroke-linecap: square"/>
   </g>
  </g>
 </g>
 <defs>
  <clipPath id="p4fede5e3eb">
   <rect x="79.5" y="7.2" width="114.50001" height="529.02"/>
  </clipPath>
 </defs>
</svg>
