<?xml version="1.0" encoding="utf-8" standalone="no"?>
<!DOCTYPE svg PUBLIC "-//W3C//DTD SVG 1.1//EN"
  "http://www.w3.org/Graphics/SVG/1.1/DTD/svg11.dtd">
<svg xmlns:xlink="http://www.w3.org/1999/xlink" width="259.9896pt" height="546.924pt" viewBox="0 0 259.9896 546.924" xmlns="http://www.w3.org/2000/svg" version="1.1">
 <metadata>
  <rdf:RDF xmlns:dc="http://purl.org/dc/elements/1.1/" xmlns:cc="http://creativecommons.org/ns#" xmlns:rdf="http://www.w3.org/1999/02/22-rdf-syntax-ns#">
   <cc:Work>
    <dc:type rdf:resource="http://purl.org/dc/dcmitype/StillImage"/>
    <dc:date>2026-03-26T13:50:09.199648</dc:date>
    <dc:format>image/svg+xml</dc:format>
    <dc:creator>
     <cc:Agent>
      <dc:title>Matplotlib v3.8.2, https://matplotlib.org/</dc:title>
     </cc:Agent>
    </dc:creator>
   </cc:Work>
  </rdf:RDF>
 </metadata>
 <defs>
  <style type="text/css">*{stroke-linejoin: round; stroke-linecap: butt}</style>
 </defs>
 <g id="figure_1">
  <g id="patch_1">
   <path d="M 0 546.924 
L 259.9896 546.924 
L 259.9896 0 
L 0 0 
z
" style="fill: #ffffff"/>
  </g>
  <g id="axes_1">
   <g id="patch_2">
    <path d="M 79.5 523.224 
L 252.7896 523.224 
L 252.7896 7.2 
L 79.5 7.2 
z
" style="fill: #ffffff"/>
   </g>
   <g id="PolyCollection_1">
    <defs>
     <path id="m7ead8839a1" d="M 166.1448 -75.320276 
L 165.100052 -75.320276 
L 164.166628 -81.835198 
L 162.582947 -89.362936 
L 160.087446 -98.277416 
L 156.437269 -119.414257 
L 151.47895 -146.319515 
L 145.224245 -173.224774 
L 137.911238 -200.130033 
L 130.030591 -227.035291 
L 122.300031 -253.94055 
L 115.577098 -280.845808 
L 110.714157 -307.751067 
L 108.3816 -334.656325 
L 108.907334 -354.299373 
L 112.18804 -363.073452 
L 117.709348 -370.500905 
L 124.672443 -376.940614 
L 132.183487 -382.624719 
L 139.441347 -387.712062 
L 145.867878 -392.316129 
L 151.155284 -396.520824 
L 155.23904 -400.389937 
L 158.226675 -403.973097 
L 160.316611 -407.309679 
L 161.731377 -410.431445 
L 162.674874 -413.364392 
L 163.31169 -416.130063 
L 163.761367 -418.746513 
L 164.101004 -421.229025 
L 164.372519 -423.590646 
L 164.592984 -425.842605 
L 164.766615 -427.994635 
L 164.895864 -430.055231 
L 164.988579 -432.031846 
L 165.059364 -433.931059 
L 165.125785 -435.758703 
L 165.202349 -437.519977 
L 165.295789 -439.219533 
L 165.403938 -440.86155 
L 165.518156 -442.449798 
L 165.627466 -443.987685 
L 165.722203 -445.478309 
L 165.795856 -446.924488 
L 165.845214 -448.328795 
L 165.869769 -449.693587 
L 165.87135 -451.021027 
L 165.854313 -452.313105 
L 165.825883 -453.571657 
L 165.795834 -454.798379 
L 165.774889 -455.99484 
L 165.771951 -457.162498 
L 165.791168 -458.302708 
L 165.830305 -459.416729 
L 165.881436 -460.505739 
L 165.933839 -461.570835 
L 165.977762 -462.613046 
L 166.007374 -463.633334 
L 166.021799 -464.632602 
L 166.024199 -465.611699 
L 166.019767 -466.571423 
L 166.013742 -467.512527 
L 166.010163 -468.435718 
L 166.011491 -469.341667 
L 166.018733 -470.231005 
L 166.031676 -471.10433 
L 166.049065 -471.96221 
L 166.068851 -472.80518 
L 166.088633 -473.633751 
L 166.106268 -474.448405 
L 166.120373 -475.249603 
L 166.130529 -476.037783 
L 166.13712 -476.813359 
L 166.140952 -477.57673 
L 166.142874 -478.328272 
L 166.1435 -479.068349 
L 166.143077 -479.797302 
L 166.14145 -480.515464 
L 166.138108 -481.223147 
L 166.132333 -481.920654 
L 166.123496 -482.608273 
L 166.111497 -483.28628 
L 166.097195 -483.954941 
L 166.082578 -484.614509 
L 166.070436 -485.265229 
L 166.063534 -485.907335 
L 166.06359 -486.541052 
L 166.070573 -487.166597 
L 166.082697 -487.784176 
L 166.097098 -488.393992 
L 166.110804 -488.996236 
L 166.121499 -489.591094 
L 166.12779 -490.178746 
L 166.129055 -490.759363 
L 166.125191 -491.333112 
L 166.116539 -491.900155 
L 166.104079 -492.460645 
L 166.089677 -493.014732 
L 166.076048 -493.562561 
L 166.066228 -494.104273 
L 166.062649 -494.640001 
L 166.1448 -494.640001 
L 166.1448 -494.640001 
L 166.1448 -494.104273 
L 166.1448 -493.562561 
L 166.1448 -493.014732 
L 166.1448 -492.460645 
L 166.1448 -491.900155 
L 166.1448 -491.333112 
L 166.1448 -490.759363 
L 166.1448 -490.178746 
L 166.1448 -489.591094 
L 166.1448 -488.996236 
L 166.1448 -488.393992 
L 166.1448 -487.784176 
L 166.1448 -487.166597 
L 166.1448 -486.541052 
L 166.1448 -485.907335 
L 166.1448 -485.265229 
L 166.1448 -484.614509 
L 166.1448 -483.954941 
L 166.1448 -483.28628 
L 166.1448 -482.608273 
L 166.1448 -481.920654 
L 166.1448 -481.223147 
L 166.1448 -480.515464 
L 166.1448 -479.797302 
L 166.1448 -479.068349 
L 166.1448 -478.328272 
L 166.1448 -477.57673 
L 166.1448 -476.813359 
L 166.1448 -476.037783 
L 166.1448 -475.249603 
L 166.1448 -474.448405 
L 166.1448 -473.633751 
L 166.1448 -472.80518 
L 166.1448 -471.96221 
L 166.1448 -471.10433 
L 166.1448 -470.231005 
L 166.1448 -469.341667 
L 166.1448 -468.435718 
L 166.1448 -467.512527 
L 166.1448 -466.571423 
L 166.1448 -465.611699 
L 166.1448 -464.632602 
L 166.1448 -463.633334 
L 166.1448 -462.613046 
L 166.1448 -461.570835 
L 166.1448 -460.505739 
L 166.1448 -459.416729 
L 166.1448 -458.302708 
L 166.1448 -457.162498 
L 166.1448 -455.99484 
L 166.1448 -454.798379 
L 166.1448 -453.571657 
L 166.1448 -452.313105 
L 166.1448 -451.021027 
L 166.1448 -449.693587 
L 166.1448 -448.328795 
L 166.1448 -446.924488 
L 166.1448 -445.478309 
L 166.1448 -443.987685 
L 166.1448 -442.449798 
L 166.1448 -440.86155 
L 166.1448 -439.219533 
L 166.1448 -437.519977 
L 166.1448 -435.758703 
L 166.1448 -433.931059 
L 166.1448 -432.031846 
L 166.1448 -430.055231 
L 166.1448 -427.994635 
L 166.1448 -425.842605 
L 166.1448 -423.590646 
L 166.1448 -421.229025 
L 166.1448 -418.746513 
L 166.1448 -416.130063 
L 166.1448 -413.364392 
L 166.1448 -410.431445 
L 166.1448 -407.309679 
L 166.1448 -403.973097 
L 166.1448 -400.389937 
L 166.1448 -396.520824 
L 166.1448 -392.316129 
L 166.1448 -387.712062 
L 166.1448 -382.624719 
L 166.1448 -376.940614 
L 166.1448 -370.500905 
L 166.1448 -363.073452 
L 166.1448 -354.299373 
L 166.1448 -334.656325 
L 166.1448 -307.751067 
L 166.1448 -280.845808 
L 166.1448 -253.94055 
L 166.1448 -227.035291 
L 166.1448 -200.130033 
L 166.1448 -173.224774 
L 166.1448 -146.319515 
L 166.1448 -119.414257 
L 166.1448 -98.277416 
L 166.1448 -89.362936 
L 166.1448 -81.835198 
L 166.1448 -75.320276 
z
"/>
    </defs>
    <g clip-path="url(#pfad9013d8b)">
     <use xlink:href="#m7ead8839a1" x="0" y="546.924" style="fill: #979797"/>
    </g>
   </g>
   <g id="matplotlib.axis_1"/>
   <g id="matplotlib.axis_2">
    <g id="ytick_1">
     <g id="line2d_1">
      <defs>
       <path id="mc0c2ddc2fa" d="M 0 0 
L -4 0 
" style="stroke: #000000; stroke-width: 0.8"/>
      </defs>
      <g>
       <use xlink:href="#mc0c2ddc2fa" x="79.5" y="523.224" style="stroke: #000000; stroke-width: 0.8"/>
      </g>
     </g>
     <g id="text_1">
      <!-- $\mathdefault{-10^{1}}$ -->
      <g transform="translate(12 533.724) scale(0.3 -0.3)">
       <defs>
        <path id="Figtree-Regular-2212" d="M 774 1677 
L 774 2131 
L 3219 2131 
L 3219 1677 
L 774 1677 
z
" transform="scale(0.015625)"/>
        <path id="Figtree-Regular-31" d="M 1389 0 
L 1389 4192 
L 1434 4480 
L 1920 4480 
L 1920 0 
L 1389 0 
z
M 384 3328 
L 384 3821 
Q 518 3814 704 3910 
Q 890 4006 1088 4160 
Q 1286 4314 1434 4480 
L 1766 4115 
Q 1555 3891 1324 3712 
Q 1094 3533 857 3427 
Q 621 3322 384 3328 
z
" transform="scale(0.015625)"/>
        <path id="Figtree-Regular-30" d="M 2048 -77 
Q 1536 -77 1139 220 
Q 742 518 518 1040 
Q 294 1562 294 2240 
Q 294 2918 518 3440 
Q 742 3962 1136 4259 
Q 1530 4557 2048 4557 
Q 2566 4557 2960 4259 
Q 3354 3962 3581 3440 
Q 3808 2918 3808 2240 
Q 3808 1562 3584 1040 
Q 3360 518 2963 220 
Q 2566 -77 2048 -77 
z
M 2048 410 
Q 2406 410 2684 646 
Q 2963 883 3120 1292 
Q 3277 1702 3277 2240 
Q 3277 2778 3120 3190 
Q 2963 3603 2684 3836 
Q 2406 4070 2048 4070 
Q 1690 4070 1414 3836 
Q 1139 3603 982 3190 
Q 826 2778 826 2240 
Q 826 1702 982 1292 
Q 1139 883 1417 646 
Q 1696 410 2048 410 
z
" transform="scale(0.015625)"/>
       </defs>
       <use xlink:href="#Figtree-Regular-2212"/>
       <use xlink:href="#Figtree-Regular-31" transform="translate(62.299988 0)"/>
       <use xlink:href="#Figtree-Regular-30" transform="translate(103.599976 0)"/>
       <use xlink:href="#Figtree-Regular-31" transform="translate(168.574966 35) scale(0.7)"/>
      </g>
     </g>
    </g>
    <g id="ytick_2">
     <g id="line2d_2">
      <g>
       <use xlink:href="#mc0c2ddc2fa" x="79.5" y="383.106561" style="stroke: #000000; stroke-width: 0.8"/>
      </g>
     </g>
     <g id="text_2">
      <!-- $\mathdefault{-10^{0}}$ -->
      <g transform="translate(7.2 393.606561) scale(0.3 -0.3)">
       <use xlink:href="#Figtree-Regular-2212" transform="translate(0 0.157813)"/>
       <use xlink:href="#Figtree-Regular-31" transform="translate(62.299988 0.157813)"/>
       <use xlink:href="#Figtree-Regular-30" transform="translate(103.599976 0.157813)"/>
       <use xlink:href="#Figtree-Regular-30" transform="translate(168.574966 35.157813) scale(0.7)"/>
      </g>
     </g>
    </g>
    <g id="ytick_3">
     <g id="line2d_3">
      <g>
       <use xlink:href="#mc0c2ddc2fa" x="79.5" y="259.007023" style="stroke: #000000; stroke-width: 0.8"/>
      </g>
     </g>
     <g id="text_3">
      <!-- $\mathdefault{10^{0}}$ -->
      <g transform="translate(25.8 269.507023) scale(0.3 -0.3)">
       <use xlink:href="#Figtree-Regular-31" transform="translate(0 0.157813)"/>
       <use xlink:href="#Figtree-Regular-30" transform="translate(41.299988 0.157813)"/>
       <use xlink:href="#Figtree-Regular-30" transform="translate(106.274979 35.157813) scale(0.7)"/>
      </g>
     </g>
    </g>
    <g id="ytick_4">
     <g id="line2d_4">
      <g>
       <use xlink:href="#mc0c2ddc2fa" x="79.5" y="118.889585" style="stroke: #000000; stroke-width: 0.8"/>
      </g>
     </g>
     <g id="text_4">
      <!-- $\mathdefault{10^{1}}$ -->
      <g transform="translate(30.6 129.389585) scale(0.3 -0.3)">
       <use xlink:href="#Figtree-Regular-31"/>
       <use xlink:href="#Figtree-Regular-30" transform="translate(41.299988 0)"/>
       <use xlink:href="#Figtree-Regular-31" transform="translate(106.274979 35) scale(0.7)"/>
      </g>
     </g>
    </g>
    <g id="ytick_5">
     <g id="line2d_5">
      <defs>
       <path id="m1edec62a0f" d="M 0 0 
L -2.5 0 
" style="stroke: #000000; stroke-width: 0.6"/>
      </defs>
      <g>
       <use xlink:href="#m1edec62a0f" x="79.5" y="321.056792" style="stroke: #000000; stroke-width: 0.6"/>
      </g>
     </g>
    </g>
    <g id="ytick_6">
     <g id="line2d_6">
      <g>
       <use xlink:href="#m1edec62a0f" x="79.5" y="7.2" style="stroke: #000000; stroke-width: 0.6"/>
      </g>
     </g>
    </g>
   </g>
   <g id="line2d_7">
    <path d="M -1 321.056792 
L 260.9896 321.056792 
" clip-path="url(#pfad9013d8b)" style="fill: none"/>
   </g>
   <g id="line2d_8">
    <path clip-path="url(#pfad9013d8b)" style="fill: none"/>
   </g>
   <g id="line2d_9">
    <path d="M 79.5 321.056792 
L 252.7896 321.056792 
" clip-path="url(#pfad9013d8b)" style="fill: none; stroke-dasharray: 11.1,4.8; stroke-dashoffset: 0; stroke: #000000; stroke-width: 3"/>
   </g>
   <g id="patch_3">
    <path d="M 79.5 523.224 
L 79.5 7.2 
" style="fill: none; stroke: #000000; stroke-linejoin: miter; stroke-linecap: square"/>
   </g>
   <g id="patch_4">
    <path d="M 79.5 523.224 
L 252.7896 523.224 
" style="fill: none; stroke: #000000; stroke-linejoin: miter; stroke-linecap: square"/>
   </g>
   <g id="PathCollection_1">
    <defs>
     <path id="mf7d66b4dbc" d="M 0 0 
C 0 0 0 0 0 0 
C 0 0 0 0 0 0 
C 0 0 0 0 0 0 
C 0 0 0 0 0 0 
C 0 0 0 0 0 0 
C 0 0 0 0 0 0 
C 0 0 0 0 0 0 
C 0 0 0 0 0 0 
z
" style="stroke: #5b5b5b"/>
    </defs>
    <g clip-path="url(#pfad9013d8b)">
     <use xlink:href="#mf7d66b4dbc" x="584.173808" y="321.056792" style="fill: #ffffff; stroke: #5b5b5b"/>
    </g>
   </g>
   <g id="patch_5">
    <path d="M 175.772 247.94698 
L 195.0264 247.94698 
L 195.0264 177.650299 
L 175.772 177.650299 
L 175.772 247.94698 
z
" clip-path="url(#pfad9013d8b)" style="fill: #d1d1d1; stroke: #444444; stroke-linejoin: miter"/>
   </g>
   <g id="line2d_10">
    <path d="M 185.3992 247.94698 
L 185.3992 387.744997 
" clip-path="url(#pfad9013d8b)" style="fill: none; stroke: #444444; stroke-width: 2.5; stroke-linecap: square"/>
   </g>
   <g id="line2d_11">
    <path d="M 185.3992 177.650299 
L 185.3992 146.436312 
" clip-path="url(#pfad9013d8b)" style="fill: none; stroke: #444444; stroke-width: 2.5; stroke-linecap: square"/>
   </g>
   <g id="line2d_12">
    <path d="M 180.5856 387.744997 
L 190.2128 387.744997 
" clip-path="url(#pfad9013d8b)" style="fill: none; stroke: #444444; stroke-width: 2; stroke-linecap: square"/>
   </g>
   <g id="line2d_13">
    <path d="M 180.5856 146.436312 
L 190.2128 146.436312 
" clip-path="url(#pfad9013d8b)" style="fill: none; stroke: #444444; stroke-width: 2; stroke-linecap: square"/>
   </g>
   <g id="line2d_14">
    <path d="M 175.772 196.448602 
L 195.0264 196.448602 
" clip-path="url(#pfad9013d8b)" style="fill: none; stroke: #444444; stroke-width: 2"/>
   </g>
  </g>
 </g>
 <defs>
  <clipPath id="pfad9013d8b">
   <rect x="79.5" y="7.2" width="173.2896" height="516.024"/>
  </clipPath>
 </defs>
</svg>
