<?xml version="1.0" encoding="utf-8" standalone="no"?>
<!DOCTYPE svg PUBLIC "-//W3C//DTD SVG 1.1//EN"
  "http://www.w3.org/Graphics/SVG/1.1/DTD/svg11.dtd">
<svg xmlns:xlink="http://www.w3.org/1999/xlink" width="536.4pt" height="392.4pt" viewBox="0 0 536.4 392.4" xmlns="http://www.w3.org/2000/svg" version="1.1">
 <metadata>
  <rdf:RDF xmlns:dc="http://purl.org/dc/elements/1.1/" xmlns:cc="http://creativecommons.org/ns#" xmlns:rdf="http://www.w3.org/1999/02/22-rdf-syntax-ns#">
   <cc:Work>
    <dc:type rdf:resource="http://purl.org/dc/dcmitype/StillImage"/>
    <dc:date>2026-05-11T12:11:04.971394</dc:date>
    <dc:format>image/svg+xml</dc:format>
    <dc:creator>
     <cc:Agent>
      <dc:title>Matplotlib v3.9.4, https://matplotlib.org/</dc:title>
     </cc:Agent>
    </dc:creator>
   </cc:Work>
  </rdf:RDF>
 </metadata>
 <defs>
  <style type="text/css">*{stroke-linejoin: round; stroke-linecap: butt}</style>
 </defs>
 <g id="figure_1">
  <g id="patch_1">
   <path d="M 0 392.4 
L 536.4 392.4 
L 536.4 0 
L 0 0 
z
" style="fill: #ffffff"/>
  </g>
  <g id="axes_1">
   <g id="patch_2">
    <path d="M 51.575 371.45 
L 529.2 371.45 
L 529.2 7.2 
L 51.575 7.2 
z
" style="fill: #ffffff"/>
   </g>
   <g id="PolyCollection_1">
    <defs>
     <path id="maddeeac4a5" d="M 120.507506 -58.321517 
L 112.903858 -58.321517 
L 112.914148 -60.032022 
L 112.944931 -61.742528 
L 112.995699 -63.453034 
L 113.065624 -65.163539 
L 113.153577 -66.874045 
L 113.258159 -68.584551 
L 113.377736 -70.295056 
L 113.510476 -72.005562 
L 113.654396 -73.716067 
L 113.807407 -75.426573 
L 113.967358 -77.137079 
L 114.132081 -78.847584 
L 114.299434 -80.55809 
L 114.467333 -82.268596 
L 114.633791 -83.979101 
L 114.796939 -85.689607 
L 114.955045 -87.400112 
L 115.106529 -89.110618 
L 115.249964 -90.821124 
L 115.384075 -92.531629 
L 115.507734 -94.242135 
L 115.619939 -95.952641 
L 115.719799 -97.663146 
L 115.806513 -99.373652 
L 115.879336 -101.084157 
L 115.937558 -102.794663 
L 115.980472 -104.505169 
L 116.007342 -106.215674 
L 116.01738 -107.92618 
L 116.00972 -109.636686 
L 115.983389 -111.347191 
L 115.937295 -113.057697 
L 115.870206 -114.768202 
L 115.780742 -116.478708 
L 115.667366 -118.189214 
L 115.528384 -119.899719 
L 115.361949 -121.610225 
L 115.166066 -123.320731 
L 114.938605 -125.031236 
L 114.677318 -126.741742 
L 114.379861 -128.452248 
L 114.043811 -130.162753 
L 113.666702 -131.873259 
L 113.246045 -133.583764 
L 112.779367 -135.29427 
L 112.264242 -137.004776 
L 111.698328 -138.715281 
L 111.079405 -140.425787 
L 110.405418 -142.136293 
L 109.674516 -143.846798 
L 108.885105 -145.557304 
L 108.03589 -147.267809 
L 107.12593 -148.978315 
L 106.154692 -150.688821 
L 105.122111 -152.399326 
L 104.028648 -154.109832 
L 102.875353 -155.820338 
L 101.66393 -157.530843 
L 100.396796 -159.241349 
L 99.077146 -160.951854 
L 97.709004 -162.66236 
L 96.297275 -164.372866 
L 94.847782 -166.083371 
L 93.367288 -167.793877 
L 91.86351 -169.504383 
L 90.345104 -171.214888 
L 88.821634 -172.925394 
L 87.303516 -174.6359 
L 85.801937 -176.346405 
L 84.328742 -178.056911 
L 82.896304 -179.767416 
L 81.517365 -181.477922 
L 80.204853 -183.188428 
L 78.971681 -184.898933 
L 77.830534 -186.609439 
L 76.793643 -188.319945 
L 75.87256 -190.03045 
L 75.077929 -191.740956 
L 74.419277 -193.451461 
L 73.904807 -195.161967 
L 73.541228 -196.872473 
L 73.333601 -198.582978 
L 73.285227 -200.293484 
L 73.397564 -202.00399 
L 73.670183 -203.714495 
L 74.100774 -205.425001 
L 74.685177 -207.135506 
L 75.417464 -208.846012 
L 76.290051 -210.556518 
L 77.293844 -212.267023 
L 78.418412 -213.977529 
L 79.652185 -215.688035 
L 80.982668 -217.39854 
L 82.396661 -219.109046 
L 83.880496 -220.819551 
L 85.42026 -222.530057 
L 87.00202 -224.240563 
L 88.612035 -225.951068 
L 90.236953 -227.661574 
L 143.174411 -227.661574 
L 143.174411 -227.661574 
L 144.799329 -225.951068 
L 146.409344 -224.240563 
L 147.991104 -222.530057 
L 149.530867 -220.819551 
L 151.014702 -219.109046 
L 152.428696 -217.39854 
L 153.759178 -215.688035 
L 154.992952 -213.977529 
L 156.11752 -212.267023 
L 157.121313 -210.556518 
L 157.9939 -208.846012 
L 158.726187 -207.135506 
L 159.31059 -205.425001 
L 159.741181 -203.714495 
L 160.0138 -202.00399 
L 160.126136 -200.293484 
L 160.077763 -198.582978 
L 159.870136 -196.872473 
L 159.506557 -195.161967 
L 158.992087 -193.451461 
L 158.333434 -191.740956 
L 157.538804 -190.03045 
L 156.617721 -188.319945 
L 155.58083 -186.609439 
L 154.439683 -184.898933 
L 153.206511 -183.188428 
L 151.893998 -181.477922 
L 150.51506 -179.767416 
L 149.082622 -178.056911 
L 147.609427 -176.346405 
L 146.107847 -174.6359 
L 144.58973 -172.925394 
L 143.06626 -171.214888 
L 141.547854 -169.504383 
L 140.044076 -167.793877 
L 138.563582 -166.083371 
L 137.114088 -164.372866 
L 135.70236 -162.66236 
L 134.334218 -160.951854 
L 133.014568 -159.241349 
L 131.747434 -157.530843 
L 130.53601 -155.820338 
L 129.382715 -154.109832 
L 128.289252 -152.399326 
L 127.256671 -150.688821 
L 126.285434 -148.978315 
L 125.375473 -147.267809 
L 124.526258 -145.557304 
L 123.736847 -143.846798 
L 123.005946 -142.136293 
L 122.331958 -140.425787 
L 121.713036 -138.715281 
L 121.147121 -137.004776 
L 120.631996 -135.29427 
L 120.165319 -133.583764 
L 119.744662 -131.873259 
L 119.367552 -130.162753 
L 119.031503 -128.452248 
L 118.734045 -126.741742 
L 118.472759 -125.031236 
L 118.245298 -123.320731 
L 118.049415 -121.610225 
L 117.88298 -119.899719 
L 117.743998 -118.189214 
L 117.630622 -116.478708 
L 117.541157 -114.768202 
L 117.474069 -113.057697 
L 117.427974 -111.347191 
L 117.401644 -109.636686 
L 117.393983 -107.92618 
L 117.404022 -106.215674 
L 117.430892 -104.505169 
L 117.473805 -102.794663 
L 117.532027 -101.084157 
L 117.604851 -99.373652 
L 117.691564 -97.663146 
L 117.791425 -95.952641 
L 117.90363 -94.242135 
L 118.027288 -92.531629 
L 118.1614 -90.821124 
L 118.304834 -89.110618 
L 118.456318 -87.400112 
L 118.614425 -85.689607 
L 118.777573 -83.979101 
L 118.944031 -82.268596 
L 119.11193 -80.55809 
L 119.279282 -78.847584 
L 119.444005 -77.137079 
L 119.603956 -75.426573 
L 119.756968 -73.716067 
L 119.900888 -72.005562 
L 120.033628 -70.295056 
L 120.153204 -68.584551 
L 120.257787 -66.874045 
L 120.34574 -65.163539 
L 120.415665 -63.453034 
L 120.466433 -61.742528 
L 120.497216 -60.032022 
L 120.507506 -58.321517 
z
" style="stroke: #696969; stroke-opacity: 0.5; stroke-width: 1.5"/>
    </defs>
    <g clip-path="url(#pf75e6407dc)">
     <use xlink:href="#maddeeac4a5" x="0" y="392.4" style="fill: #696969; fill-opacity: 0.5; stroke: #696969; stroke-opacity: 0.5; stroke-width: 1.5"/>
    </g>
   </g>
   <g id="PolyCollection_2">
    <defs>
     <path id="m502d1b3d36" d="M 290.875543 -38.120874 
L 289.899457 -38.120874 
L 289.83191 -41.162753 
L 289.766673 -44.204633 
L 289.696935 -47.246512 
L 289.612779 -50.288391 
L 289.503778 -53.330271 
L 289.362167 -56.37215 
L 289.18545 -59.41403 
L 288.977332 -62.455909 
L 288.746331 -65.497789 
L 288.502255 -68.539668 
L 288.25164 -71.581547 
L 287.993909 -74.623427 
L 287.720101 -77.665306 
L 287.41534 -80.707186 
L 287.064805 -83.749065 
L 286.661341 -86.790945 
L 286.211758 -89.832824 
L 285.738864 -92.874703 
L 285.277681 -95.916583 
L 284.866527 -98.958462 
L 284.535794 -102.000342 
L 284.29821 -105.042221 
L 284.143761 -108.084101 
L 284.040578 -111.12598 
L 283.940931 -114.167859 
L 283.790096 -117.209739 
L 283.535621 -120.251618 
L 283.135203 -123.293498 
L 282.562203 -126.335377 
L 281.80831 -129.377257 
L 280.88297 -132.419136 
L 279.809429 -135.461015 
L 278.617903 -138.502895 
L 277.337428 -141.544774 
L 275.988699 -144.586654 
L 274.580078 -147.628533 
L 273.1079 -150.670413 
L 271.560736 -153.712292 
L 269.926142 -156.754171 
L 268.197991 -159.796051 
L 266.382654 -162.83793 
L 264.502602 -165.87981 
L 262.596283 -168.921689 
L 260.713625 -171.963569 
L 258.907454 -175.005448 
L 257.222624 -178.047327 
L 255.686037 -181.089207 
L 254.301297 -184.131086 
L 253.050661 -187.172966 
L 251.90452 -190.214845 
L 250.835608 -193.256725 
L 249.832978 -196.298604 
L 248.910552 -199.340483 
L 248.107113 -202.382363 
L 247.477983 -205.424242 
L 247.081788 -208.466122 
L 246.967045 -211.508001 
L 247.162255 -214.549881 
L 247.670723 -217.59176 
L 248.46923 -220.633639 
L 249.50934 -223.675519 
L 250.72153 -226.717398 
L 252.023738 -229.759278 
L 253.335465 -232.801157 
L 254.595715 -235.843037 
L 255.779374 -238.884916 
L 256.904851 -241.926795 
L 258.028015 -244.968675 
L 259.222985 -248.010554 
L 260.556515 -251.052434 
L 262.065839 -254.094313 
L 263.748206 -257.136193 
L 265.564874 -260.178072 
L 267.456045 -263.219951 
L 269.359403 -266.261831 
L 271.224852 -269.30371 
L 273.021085 -272.34559 
L 274.73365 -275.387469 
L 276.357418 -278.429348 
L 277.887829 -281.471228 
L 279.314948 -284.513107 
L 280.622729 -287.554987 
L 281.793515 -290.596866 
L 282.815556 -293.638746 
L 283.689984 -296.680625 
L 284.433863 -299.722504 
L 285.077626 -302.764384 
L 285.657625 -305.806263 
L 286.206642 -308.848143 
L 286.745872 -311.890022 
L 287.281141 -314.931902 
L 287.804168 -317.973781 
L 288.297805 -321.01566 
L 288.742923 -324.05754 
L 289.124561 -327.099419 
L 289.435649 -330.141299 
L 289.67776 -333.183178 
L 289.859391 -336.225058 
L 289.992844 -339.266937 
L 290.782156 -339.266937 
L 290.782156 -339.266937 
L 290.915609 -336.225058 
L 291.09724 -333.183178 
L 291.339351 -330.141299 
L 291.650439 -327.099419 
L 292.032077 -324.05754 
L 292.477195 -321.01566 
L 292.970832 -317.973781 
L 293.493859 -314.931902 
L 294.029128 -311.890022 
L 294.568358 -308.848143 
L 295.117375 -305.806263 
L 295.697374 -302.764384 
L 296.341137 -299.722504 
L 297.085016 -296.680625 
L 297.959444 -293.638746 
L 298.981485 -290.596866 
L 300.152271 -287.554987 
L 301.460052 -284.513107 
L 302.887171 -281.471228 
L 304.417582 -278.429348 
L 306.04135 -275.387469 
L 307.753915 -272.34559 
L 309.550148 -269.30371 
L 311.415597 -266.261831 
L 313.318955 -263.219951 
L 315.210126 -260.178072 
L 317.026794 -257.136193 
L 318.709161 -254.094313 
L 320.218485 -251.052434 
L 321.552015 -248.010554 
L 322.746985 -244.968675 
L 323.870149 -241.926795 
L 324.995626 -238.884916 
L 326.179285 -235.843037 
L 327.439535 -232.801157 
L 328.751262 -229.759278 
L 330.05347 -226.717398 
L 331.26566 -223.675519 
L 332.30577 -220.633639 
L 333.104277 -217.59176 
L 333.612745 -214.549881 
L 333.807955 -211.508001 
L 333.693212 -208.466122 
L 333.297017 -205.424242 
L 332.667887 -202.382363 
L 331.864448 -199.340483 
L 330.942022 -196.298604 
L 329.939392 -193.256725 
L 328.87048 -190.214845 
L 327.724339 -187.172966 
L 326.473703 -184.131086 
L 325.088963 -181.089207 
L 323.552376 -178.047327 
L 321.867546 -175.005448 
L 320.061375 -171.963569 
L 318.178717 -168.921689 
L 316.272398 -165.87981 
L 314.392346 -162.83793 
L 312.577009 -159.796051 
L 310.848858 -156.754171 
L 309.214264 -153.712292 
L 307.6671 -150.670413 
L 306.194922 -147.628533 
L 304.786301 -144.586654 
L 303.437572 -141.544774 
L 302.157097 -138.502895 
L 300.965571 -135.461015 
L 299.89203 -132.419136 
L 298.96669 -129.377257 
L 298.212797 -126.335377 
L 297.639797 -123.293498 
L 297.239379 -120.251618 
L 296.984904 -117.209739 
L 296.834069 -114.167859 
L 296.734422 -111.12598 
L 296.631239 -108.084101 
L 296.47679 -105.042221 
L 296.239206 -102.000342 
L 295.908473 -98.958462 
L 295.497319 -95.916583 
L 295.036136 -92.874703 
L 294.563242 -89.832824 
L 294.113659 -86.790945 
L 293.710195 -83.749065 
L 293.35966 -80.707186 
L 293.054899 -77.665306 
L 292.781091 -74.623427 
L 292.52336 -71.581547 
L 292.272745 -68.539668 
L 292.028669 -65.497789 
L 291.797668 -62.455909 
L 291.58955 -59.41403 
L 291.412833 -56.37215 
L 291.271222 -53.330271 
L 291.162221 -50.288391 
L 291.078065 -47.246512 
L 291.008327 -44.204633 
L 290.94309 -41.162753 
L 290.875543 -38.120874 
z
" style="stroke: #e85d04; stroke-opacity: 0.5; stroke-width: 1.5"/>
    </defs>
    <g clip-path="url(#pf75e6407dc)">
     <use xlink:href="#m502d1b3d36" x="0" y="392.4" style="fill: #e85d04; fill-opacity: 0.5; stroke: #e85d04; stroke-opacity: 0.5; stroke-width: 1.5"/>
    </g>
   </g>
   <g id="PolyCollection_3">
    <defs>
     <path id="m8a08261006" d="M 464.605307 -42.133474 
L 463.53333 -42.133474 
L 463.441726 -45.277587 
L 463.349211 -48.421701 
L 463.254707 -51.565814 
L 463.155226 -54.709928 
L 463.046551 -57.854042 
L 462.924508 -60.998155 
L 462.786526 -64.142269 
L 462.633035 -67.286382 
L 462.468211 -70.430496 
L 462.299746 -73.574609 
L 462.137547 -76.718723 
L 461.991654 -79.862837 
L 461.869851 -83.00695 
L 461.775597 -86.151064 
L 461.706739 -89.295177 
L 461.655221 -92.439291 
L 461.607702 -95.583405 
L 461.546721 -98.727518 
L 461.452038 -101.871632 
L 461.301862 -105.015745 
L 461.07395 -108.159859 
L 460.746807 -111.303973 
L 460.301321 -114.448086 
L 459.723101 -117.5922 
L 459.005438 -120.736313 
L 458.152469 -123.880427 
L 457.181756 -127.024541 
L 456.125377 -130.168654 
L 455.028725 -133.312768 
L 453.946549 -136.456881 
L 452.936228 -139.600995 
L 452.048936 -142.745109 
L 451.320031 -145.889222 
L 450.760629 -149.033336 
L 450.352622 -152.177449 
L 450.049 -155.321563 
L 449.780276 -158.465677 
L 449.466143 -161.60979 
L 449.029915 -164.753904 
L 448.412301 -167.898017 
L 447.581146 -171.042131 
L 446.534836 -174.186245 
L 445.298886 -177.330358 
L 443.917077 -180.474472 
L 442.439889 -183.618585 
L 440.91349 -186.762699 
L 439.372044 -189.906813 
L 437.834824 -193.050926 
L 436.308055 -196.19504 
L 434.790019 -199.339153 
L 433.277359 -202.483267 
L 431.770631 -205.627381 
L 430.277893 -208.771494 
L 428.815961 -211.915608 
L 427.409517 -215.059721 
L 426.088485 -218.203835 
L 424.884059 -221.347949 
L 423.823917 -224.492062 
L 422.927386 -227.636176 
L 422.201764 -230.780289 
L 421.641065 -233.924403 
L 421.228087 -237.068516 
L 420.9397 -240.21263 
L 420.754055 -243.356744 
L 420.657509 -246.500857 
L 420.648864 -249.644971 
L 420.739287 -252.789084 
L 420.94782 -255.933198 
L 421.294016 -259.077312 
L 421.790467 -262.221425 
L 422.438102 -265.365539 
L 423.226097 -268.509652 
L 424.136351 -271.653766 
L 425.150588 -274.79788 
L 426.257036 -277.941993 
L 427.453886 -281.086107 
L 428.74813 -284.23022 
L 430.150341 -287.374334 
L 431.667478 -290.518448 
L 433.29643 -293.662561 
L 435.020483 -296.806675 
L 436.809851 -299.950788 
L 438.626078 -303.094902 
L 440.429094 -306.239016 
L 442.185016 -309.383129 
L 443.872537 -312.527243 
L 445.486018 -315.671356 
L 447.034252 -318.81547 
L 448.535171 -321.959584 
L 450.008127 -325.103697 
L 451.466227 -328.247811 
L 452.91114 -331.391924 
L 454.331841 -334.536038 
L 455.707235 -337.680152 
L 457.011329 -340.824265 
L 458.218955 -343.968379 
L 459.310276 -347.112492 
L 460.273121 -350.256606 
L 461.103163 -353.40072 
L 467.035474 -353.40072 
L 467.035474 -353.40072 
L 467.865516 -350.256606 
L 468.82836 -347.112492 
L 469.919681 -343.968379 
L 471.127307 -340.824265 
L 472.431401 -337.680152 
L 473.806795 -334.536038 
L 475.227497 -331.391924 
L 476.67241 -328.247811 
L 478.130509 -325.103697 
L 479.603465 -321.959584 
L 481.104384 -318.81547 
L 482.652618 -315.671356 
L 484.266099 -312.527243 
L 485.95362 -309.383129 
L 487.709543 -306.239016 
L 489.512559 -303.094902 
L 491.328786 -299.950788 
L 493.118154 -296.806675 
L 494.842206 -293.662561 
L 496.471158 -290.518448 
L 497.988296 -287.374334 
L 499.390506 -284.23022 
L 500.684751 -281.086107 
L 501.881601 -277.941993 
L 502.988049 -274.79788 
L 504.002285 -271.653766 
L 504.912539 -268.509652 
L 505.700534 -265.365539 
L 506.348169 -262.221425 
L 506.84462 -259.077312 
L 507.190817 -255.933198 
L 507.39935 -252.789084 
L 507.489773 -249.644971 
L 507.481127 -246.500857 
L 507.384582 -243.356744 
L 507.198936 -240.21263 
L 506.910549 -237.068516 
L 506.497572 -233.924403 
L 505.936873 -230.780289 
L 505.21125 -227.636176 
L 504.314719 -224.492062 
L 503.254577 -221.347949 
L 502.050152 -218.203835 
L 500.729119 -215.059721 
L 499.322676 -211.915608 
L 497.860744 -208.771494 
L 496.368006 -205.627381 
L 494.861278 -202.483267 
L 493.348618 -199.339153 
L 491.830582 -196.19504 
L 490.303812 -193.050926 
L 488.766593 -189.906813 
L 487.225146 -186.762699 
L 485.698747 -183.618585 
L 484.221559 -180.474472 
L 482.83975 -177.330358 
L 481.6038 -174.186245 
L 480.55749 -171.042131 
L 479.726335 -167.898017 
L 479.108722 -164.753904 
L 478.672493 -161.60979 
L 478.35836 -158.465677 
L 478.089636 -155.321563 
L 477.786015 -152.177449 
L 477.378007 -149.033336 
L 476.818606 -145.889222 
L 476.089701 -142.745109 
L 475.202409 -139.600995 
L 474.192087 -136.456881 
L 473.109911 -133.312768 
L 472.01326 -130.168654 
L 470.95688 -127.024541 
L 469.986167 -123.880427 
L 469.133198 -120.736313 
L 468.415535 -117.5922 
L 467.837315 -114.448086 
L 467.39183 -111.303973 
L 467.064686 -108.159859 
L 466.836774 -105.015745 
L 466.686598 -101.871632 
L 466.591915 -98.727518 
L 466.530934 -95.583405 
L 466.483415 -92.439291 
L 466.431898 -89.295177 
L 466.363039 -86.151064 
L 466.268786 -83.00695 
L 466.146982 -79.862837 
L 466.001089 -76.718723 
L 465.838891 -73.574609 
L 465.670425 -70.430496 
L 465.505602 -67.286382 
L 465.35211 -64.142269 
L 465.214129 -60.998155 
L 465.092086 -57.854042 
L 464.983411 -54.709928 
L 464.883929 -51.565814 
L 464.789425 -48.421701 
L 464.696911 -45.277587 
L 464.605307 -42.133474 
z
" style="stroke: #5e548e; stroke-opacity: 0.5; stroke-width: 1.5"/>
    </defs>
    <g clip-path="url(#pf75e6407dc)">
     <use xlink:href="#m8a08261006" x="0" y="392.4" style="fill: #5e548e; fill-opacity: 0.5; stroke: #5e548e; stroke-opacity: 0.5; stroke-width: 1.5"/>
    </g>
   </g>
   <g id="matplotlib.axis_1">
    <g id="xtick_1">
     <g id="line2d_1">
      <defs>
       <path id="m2b501a2299" d="M 0 0 
L 0 4 
" style="stroke: #000000; stroke-width: 0.8"/>
      </defs>
      <g>
       <use xlink:href="#m2b501a2299" x="116.705682" y="371.45" style="stroke: #000000; stroke-width: 0.8"/>
      </g>
     </g>
    </g>
    <g id="xtick_2">
     <g id="line2d_2">
      <g>
       <use xlink:href="#m2b501a2299" x="290.3875" y="371.45" style="stroke: #000000; stroke-width: 0.8"/>
      </g>
     </g>
    </g>
    <g id="xtick_3">
     <g id="line2d_3">
      <g>
       <use xlink:href="#m2b501a2299" x="464.069318" y="371.45" style="stroke: #000000; stroke-width: 0.8"/>
      </g>
     </g>
    </g>
   </g>
   <g id="matplotlib.axis_2">
    <g id="ytick_1">
     <g id="line2d_4">
      <defs>
       <path id="m5cb08916bd" d="M 0 0 
L -4 0 
" style="stroke: #000000; stroke-width: 0.8"/>
      </defs>
      <g>
       <use xlink:href="#m5cb08916bd" x="51.575" y="371.45" style="stroke: #000000; stroke-width: 0.8"/>
      </g>
     </g>
     <g id="text_1">
      <!-- 1.0 -->
      <g transform="translate(11.125781 380.2) scale(0.25 -0.25)">
       <defs>
        <path id="Figtree-Bold-31" d="M 1248 0 
L 1248 4013 
L 1331 4480 
L 2086 4480 
L 2086 0 
L 1248 0 
z
M 301 3066 
L 301 3859 
Q 461 3846 646 3939 
Q 832 4032 1014 4182 
Q 1197 4333 1331 4486 
L 1888 3942 
Q 1658 3686 1402 3478 
Q 1146 3270 874 3155 
Q 602 3040 301 3066 
z
" transform="scale(0.015625)"/>
        <path id="Figtree-Bold-2e" d="M 794 -96 
Q 582 -96 432 57 
Q 282 211 282 422 
Q 282 627 432 780 
Q 582 934 794 934 
Q 1005 934 1155 780 
Q 1306 627 1306 422 
Q 1306 211 1155 57 
Q 1005 -96 794 -96 
z
" transform="scale(0.015625)"/>
        <path id="Figtree-Bold-30" d="M 2074 -77 
Q 1530 -77 1114 220 
Q 698 518 461 1040 
Q 224 1562 224 2240 
Q 224 2918 461 3440 
Q 698 3962 1110 4259 
Q 1523 4557 2067 4557 
Q 2611 4557 3030 4259 
Q 3450 3962 3686 3440 
Q 3923 2918 3923 2240 
Q 3923 1562 3686 1040 
Q 3450 518 3034 220 
Q 2618 -77 2074 -77 
z
M 2074 717 
Q 2362 717 2589 912 
Q 2816 1107 2944 1449 
Q 3072 1792 3072 2240 
Q 3072 2688 2944 3033 
Q 2816 3379 2589 3574 
Q 2362 3770 2067 3770 
Q 1779 3770 1555 3574 
Q 1331 3379 1206 3033 
Q 1082 2688 1082 2240 
Q 1082 1792 1206 1449 
Q 1331 1107 1558 912 
Q 1786 717 2074 717 
z
" transform="scale(0.015625)"/>
       </defs>
       <use xlink:href="#Figtree-Bold-31"/>
       <use xlink:href="#Figtree-Bold-2e" x="42.199997"/>
       <use xlink:href="#Figtree-Bold-30" x="66.999985"/>
      </g>
     </g>
    </g>
    <g id="ytick_2">
     <g id="line2d_5">
      <g>
       <use xlink:href="#m5cb08916bd" x="51.575" y="257.621875" style="stroke: #000000; stroke-width: 0.8"/>
      </g>
     </g>
     <g id="text_2">
      <!-- 1.5 -->
      <g transform="translate(12.801563 266.371875) scale(0.25 -0.25)">
       <defs>
        <path id="Figtree-Bold-35" d="M 1875 -77 
Q 1568 -77 1245 25 
Q 922 128 662 333 
Q 403 538 282 838 
L 1082 1075 
Q 1222 870 1417 774 
Q 1613 678 1824 678 
Q 2157 678 2365 880 
Q 2573 1082 2573 1421 
Q 2573 1734 2371 1945 
Q 2170 2157 1837 2157 
Q 1638 2157 1472 2067 
Q 1306 1978 1216 1856 
L 429 2029 
L 698 4480 
L 3232 4480 
L 3232 3686 
L 1446 3686 
L 1318 2611 
Q 1491 2707 1702 2768 
Q 1914 2829 2157 2822 
Q 2522 2822 2822 2646 
Q 3123 2470 3299 2166 
Q 3475 1862 3475 1459 
Q 3475 1005 3270 659 
Q 3066 314 2707 118 
Q 2349 -77 1875 -77 
z
" transform="scale(0.015625)"/>
       </defs>
       <use xlink:href="#Figtree-Bold-31"/>
       <use xlink:href="#Figtree-Bold-2e" x="42.199997"/>
       <use xlink:href="#Figtree-Bold-35" x="66.999985"/>
      </g>
     </g>
    </g>
    <g id="ytick_3">
     <g id="line2d_6">
      <g>
       <use xlink:href="#m5cb08916bd" x="51.575" y="143.79375" style="stroke: #000000; stroke-width: 0.8"/>
      </g>
     </g>
     <g id="text_3">
      <!-- 2.0 -->
      <g transform="translate(7.2 152.54375) scale(0.25 -0.25)">
       <defs>
        <path id="Figtree-Bold-32" d="M 326 0 
L 326 646 
Q 326 832 441 1056 
Q 557 1280 761 1504 
Q 966 1728 1242 1920 
L 1920 2406 
Q 2061 2502 2185 2624 
Q 2310 2746 2390 2890 
Q 2470 3034 2470 3168 
Q 2470 3334 2390 3468 
Q 2310 3603 2156 3680 
Q 2003 3757 1779 3757 
Q 1587 3757 1436 3680 
Q 1286 3603 1190 3475 
Q 1094 3347 1056 3200 
L 154 3354 
Q 218 3674 429 3949 
Q 640 4224 982 4393 
Q 1325 4563 1760 4563 
Q 2259 4563 2617 4384 
Q 2976 4205 3171 3894 
Q 3366 3584 3366 3174 
Q 3366 2758 3139 2435 
Q 2912 2112 2515 1830 
L 1907 1389 
Q 1722 1261 1587 1107 
Q 1453 954 1382 768 
L 3424 768 
L 3424 0 
L 326 0 
z
" transform="scale(0.015625)"/>
       </defs>
       <use xlink:href="#Figtree-Bold-32"/>
       <use xlink:href="#Figtree-Bold-2e" x="57.899994"/>
       <use xlink:href="#Figtree-Bold-30" x="82.699982"/>
      </g>
     </g>
    </g>
    <g id="ytick_4">
     <g id="line2d_7">
      <g>
       <use xlink:href="#m5cb08916bd" x="51.575" y="29.965625" style="stroke: #000000; stroke-width: 0.8"/>
      </g>
     </g>
     <g id="text_4">
      <!-- 2.5 -->
      <g transform="translate(8.875781 38.715625) scale(0.25 -0.25)">
       <use xlink:href="#Figtree-Bold-32"/>
       <use xlink:href="#Figtree-Bold-2e" x="57.899994"/>
       <use xlink:href="#Figtree-Bold-35" x="82.699982"/>
      </g>
     </g>
    </g>
   </g>
   <g id="LineCollection_1">
    <path d="M 94.995455 194.71268 
L 138.415909 194.71268 
" clip-path="url(#pf75e6407dc)" style="fill: none; stroke: #001219; stroke-width: 1.5"/>
    <path d="M 268.677273 183.79747 
L 312.097727 183.79747 
" clip-path="url(#pf75e6407dc)" style="fill: none; stroke: #001219; stroke-width: 1.5"/>
    <path d="M 442.359091 150.527654 
L 485.779545 150.527654 
" clip-path="url(#pf75e6407dc)" style="fill: none; stroke: #001219; stroke-width: 1.5"/>
   </g>
   <g id="line2d_8">
    <path d="M 51.575 203.044333 
L 529.2 203.044333 
" clip-path="url(#pf75e6407dc)" style="fill: none; stroke-dasharray: 9.25,4; stroke-dashoffset: 0; stroke: #000000; stroke-width: 2.5"/>
   </g>
   <g id="patch_3">
    <path d="M 51.575 371.45 
L 51.575 7.2 
" style="fill: none; stroke: #000000; stroke-width: 1.5; stroke-linejoin: miter; stroke-linecap: square"/>
   </g>
   <g id="patch_4">
    <path d="M 51.575 371.45 
L 529.2 371.45 
" style="fill: none; stroke: #000000; stroke-width: 1.5; stroke-linejoin: miter; stroke-linecap: square"/>
   </g>
  </g>
 </g>
 <defs>
  <clipPath id="pf75e6407dc">
   <rect x="51.575" y="7.2" width="477.625" height="364.25"/>
  </clipPath>
 </defs>
</svg>
