<?xml version="1.0" encoding="utf-8" standalone="no"?>
<!DOCTYPE svg PUBLIC "-//W3C//DTD SVG 1.1//EN"
  "http://www.w3.org/Graphics/SVG/1.1/DTD/svg11.dtd">
<svg xmlns:xlink="http://www.w3.org/1999/xlink" width="536.4pt" height="392.4pt" viewBox="0 0 536.4 392.4" xmlns="http://www.w3.org/2000/svg" version="1.1">
 <metadata>
  <rdf:RDF xmlns:dc="http://purl.org/dc/elements/1.1/" xmlns:cc="http://creativecommons.org/ns#" xmlns:rdf="http://www.w3.org/1999/02/22-rdf-syntax-ns#">
   <cc:Work>
    <dc:type rdf:resource="http://purl.org/dc/dcmitype/StillImage"/>
    <dc:date>2025-12-04T15:44:35.104318</dc:date>
    <dc:format>image/svg+xml</dc:format>
    <dc:creator>
     <cc:Agent>
      <dc:title>Matplotlib v3.8.2, https://matplotlib.org/</dc:title>
     </cc:Agent>
    </dc:creator>
   </cc:Work>
  </rdf:RDF>
 </metadata>
 <defs>
  <style type="text/css">*{stroke-linejoin: round; stroke-linecap: butt}</style>
 </defs>
 <g id="figure_1">
  <g id="patch_1">
   <path d="M 0 392.4 
L 536.4 392.4 
L 536.4 0 
L 0 0 
z
" style="fill: #ffffff"/>
  </g>
  <g id="axes_1">
   <g id="patch_2">
    <path d="M 7.2 355.2 
L 505.500781 355.2 
L 505.500781 7.2 
L 7.2 7.2 
z
" style="fill: #ffffff"/>
   </g>
   <g id="patch_3">
    <path d="M 50.334608 355.2 
L 71.955001 355.2 
L 71.955001 346.914286 
L 50.334608 346.914286 
z
" clip-path="url(#pa7161d8070)" style="fill: #dd6b74; opacity: 0.7"/>
   </g>
   <g id="patch_4">
    <path d="M 73.092917 355.2 
L 94.71331 355.2 
L 94.71331 338.628571 
L 73.092917 338.628571 
z
" clip-path="url(#pa7161d8070)" style="fill: #dd6b74; opacity: 0.7"/>
   </g>
   <g id="patch_5">
    <path d="M 95.851225 355.2 
L 117.471619 355.2 
L 117.471619 346.914286 
L 95.851225 346.914286 
z
" clip-path="url(#pa7161d8070)" style="fill: #dd6b74; opacity: 0.7"/>
   </g>
   <g id="patch_6">
    <path d="M 118.609534 355.2 
L 140.229927 355.2 
L 140.229927 313.771429 
L 118.609534 313.771429 
z
" clip-path="url(#pa7161d8070)" style="fill: #dd6b74; opacity: 0.7"/>
   </g>
   <g id="patch_7">
    <path d="M 141.367843 355.2 
L 162.988236 355.2 
L 162.988236 330.342857 
L 141.367843 330.342857 
z
" clip-path="url(#pa7161d8070)" style="fill: #dd6b74; opacity: 0.7"/>
   </g>
   <g id="patch_8">
    <path d="M 164.126151 355.2 
L 185.746545 355.2 
L 185.746545 313.771429 
L 164.126151 313.771429 
z
" clip-path="url(#pa7161d8070)" style="fill: #dd6b74; opacity: 0.7"/>
   </g>
   <g id="patch_9">
    <path d="M 186.88446 355.2 
L 208.504853 355.2 
L 208.504853 297.2 
L 186.88446 297.2 
z
" clip-path="url(#pa7161d8070)" style="fill: #dd6b74; opacity: 0.7"/>
   </g>
   <g id="patch_10">
    <path d="M 209.642769 355.2 
L 231.263162 355.2 
L 231.263162 330.342857 
L 209.642769 330.342857 
z
" clip-path="url(#pa7161d8070)" style="fill: #dd6b74; opacity: 0.7"/>
   </g>
   <g id="patch_11">
    <path d="M 232.401077 355.2 
L 254.021471 355.2 
L 254.021471 338.628571 
L 232.401077 338.628571 
z
" clip-path="url(#pa7161d8070)" style="fill: #dd6b74; opacity: 0.7"/>
   </g>
   <g id="patch_12">
    <path d="M 255.159386 355.2 
L 276.779779 355.2 
L 276.779779 313.771429 
L 255.159386 313.771429 
z
" clip-path="url(#pa7161d8070)" style="fill: #dd6b74; opacity: 0.7"/>
   </g>
   <g id="patch_13">
    <path d="M 277.917695 355.2 
L 299.538088 355.2 
L 299.538088 322.057143 
L 277.917695 322.057143 
z
" clip-path="url(#pa7161d8070)" style="fill: #dd6b74; opacity: 0.7"/>
   </g>
   <g id="patch_14">
    <path d="M 300.676003 355.2 
L 322.296397 355.2 
L 322.296397 313.771429 
L 300.676003 313.771429 
z
" clip-path="url(#pa7161d8070)" style="fill: #dd6b74; opacity: 0.7"/>
   </g>
   <g id="patch_15">
    <path d="M 323.434312 355.2 
L 345.054705 355.2 
L 345.054705 338.628571 
L 323.434312 338.628571 
z
" clip-path="url(#pa7161d8070)" style="fill: #dd6b74; opacity: 0.7"/>
   </g>
   <g id="patch_16">
    <path d="M 346.192621 355.2 
L 367.813014 355.2 
L 367.813014 346.914286 
L 346.192621 346.914286 
z
" clip-path="url(#pa7161d8070)" style="fill: #dd6b74; opacity: 0.7"/>
   </g>
   <g id="patch_17">
    <path d="M 368.950929 355.2 
L 390.571323 355.2 
L 390.571323 305.485714 
L 368.950929 305.485714 
z
" clip-path="url(#pa7161d8070)" style="fill: #dd6b74; opacity: 0.7"/>
   </g>
   <g id="patch_18">
    <path d="M 391.709238 355.2 
L 413.329631 355.2 
L 413.329631 313.771429 
L 391.709238 313.771429 
z
" clip-path="url(#pa7161d8070)" style="fill: #dd6b74; opacity: 0.7"/>
   </g>
   <g id="patch_19">
    <path d="M 414.467547 355.2 
L 436.08794 355.2 
L 436.08794 264.057143 
L 414.467547 264.057143 
z
" clip-path="url(#pa7161d8070)" style="fill: #dd6b74; opacity: 0.7"/>
   </g>
   <g id="patch_20">
    <path d="M 437.225855 355.2 
L 458.846249 355.2 
L 458.846249 206.057143 
L 437.225855 206.057143 
z
" clip-path="url(#pa7161d8070)" style="fill: #dd6b74; opacity: 0.7"/>
   </g>
   <g id="patch_21">
    <path d="M 459.984164 355.2 
L 481.604557 355.2 
L 481.604557 305.485714 
L 459.984164 305.485714 
z
" clip-path="url(#pa7161d8070)" style="fill: #dd6b74; opacity: 0.7"/>
   </g>
   <g id="patch_22">
    <path d="M 482.742473 355.2 
L 504.362866 355.2 
L 504.362866 23.771429 
L 482.742473 23.771429 
z
" clip-path="url(#pa7161d8070)" style="fill: #dd6b74; opacity: 0.7"/>
   </g>
   <g id="matplotlib.axis_1">
    <g id="xtick_1">
     <g id="line2d_1">
      <defs>
       <path id="m3c71ba8cfe" d="M 0 0 
L 0 4 
" style="stroke: #000000; stroke-width: 0.8"/>
      </defs>
      <g>
       <use xlink:href="#m3c71ba8cfe" x="279.000426" y="355.2" style="stroke: #000000; stroke-width: 0.8"/>
      </g>
     </g>
     <g id="text_1">
      <!-- −0.5 -->
      <g transform="translate(252.639098 380.2) scale(0.25 -0.25)">
       <defs>
        <path id="Figtree-Bold-2212" d="M 787 1555 
L 787 2253 
L 3258 2253 
L 3258 1555 
L 787 1555 
z
" transform="scale(0.015625)"/>
        <path id="Figtree-Bold-30" d="M 2074 -77 
Q 1530 -77 1114 220 
Q 698 518 461 1040 
Q 224 1562 224 2240 
Q 224 2918 461 3440 
Q 698 3962 1110 4259 
Q 1523 4557 2067 4557 
Q 2611 4557 3030 4259 
Q 3450 3962 3686 3440 
Q 3923 2918 3923 2240 
Q 3923 1562 3686 1040 
Q 3450 518 3034 220 
Q 2618 -77 2074 -77 
z
M 2074 717 
Q 2362 717 2589 912 
Q 2816 1107 2944 1449 
Q 3072 1792 3072 2240 
Q 3072 2688 2944 3033 
Q 2816 3379 2589 3574 
Q 2362 3770 2067 3770 
Q 1779 3770 1555 3574 
Q 1331 3379 1206 3033 
Q 1082 2688 1082 2240 
Q 1082 1792 1206 1449 
Q 1331 1107 1558 912 
Q 1786 717 2074 717 
z
" transform="scale(0.015625)"/>
        <path id="Figtree-Bold-2e" d="M 794 -96 
Q 582 -96 432 57 
Q 282 211 282 422 
Q 282 627 432 780 
Q 582 934 794 934 
Q 1005 934 1155 780 
Q 1306 627 1306 422 
Q 1306 211 1155 57 
Q 1005 -96 794 -96 
z
" transform="scale(0.015625)"/>
        <path id="Figtree-Bold-35" d="M 1875 -77 
Q 1568 -77 1245 25 
Q 922 128 662 333 
Q 403 538 282 838 
L 1082 1075 
Q 1222 870 1417 774 
Q 1613 678 1824 678 
Q 2157 678 2365 880 
Q 2573 1082 2573 1421 
Q 2573 1734 2371 1945 
Q 2170 2157 1837 2157 
Q 1638 2157 1472 2067 
Q 1306 1978 1216 1856 
L 429 2029 
L 698 4480 
L 3232 4480 
L 3232 3686 
L 1446 3686 
L 1318 2611 
Q 1491 2707 1702 2768 
Q 1914 2829 2157 2822 
Q 2522 2822 2822 2646 
Q 3123 2470 3299 2166 
Q 3475 1862 3475 1459 
Q 3475 1005 3270 659 
Q 3066 314 2707 118 
Q 2349 -77 1875 -77 
z
" transform="scale(0.015625)"/>
       </defs>
       <use xlink:href="#Figtree-Bold-2212"/>
       <use xlink:href="#Figtree-Bold-30" x="63.199997"/>
       <use xlink:href="#Figtree-Bold-2e" x="127.999985"/>
       <use xlink:href="#Figtree-Bold-35" x="152.799973"/>
      </g>
     </g>
    </g>
    <g id="xtick_2">
     <g id="line2d_2">
      <g>
       <use xlink:href="#m3c71ba8cfe" x="52.500071" y="355.2" style="stroke: #000000; stroke-width: 0.8"/>
      </g>
     </g>
     <g id="text_2">
      <!-- −1.0 -->
      <g transform="translate(28.125071 380.2) scale(0.25 -0.25)">
       <defs>
        <path id="Figtree-Bold-31" d="M 1248 0 
L 1248 4013 
L 1331 4480 
L 2086 4480 
L 2086 0 
L 1248 0 
z
M 301 3066 
L 301 3859 
Q 461 3846 646 3939 
Q 832 4032 1014 4182 
Q 1197 4333 1331 4486 
L 1888 3942 
Q 1658 3686 1402 3478 
Q 1146 3270 874 3155 
Q 602 3040 301 3066 
z
" transform="scale(0.015625)"/>
       </defs>
       <use xlink:href="#Figtree-Bold-2212"/>
       <use xlink:href="#Figtree-Bold-31" x="63.199997"/>
       <use xlink:href="#Figtree-Bold-2e" x="105.399994"/>
       <use xlink:href="#Figtree-Bold-30" x="130.199982"/>
      </g>
     </g>
    </g>
   </g>
   <g id="matplotlib.axis_2">
    <g id="ytick_1">
     <g id="line2d_3">
      <defs>
       <path id="mac67e52914" d="M 0 0 
L 4 0 
" style="stroke: #000000; stroke-width: 0.8"/>
      </defs>
      <g>
       <use xlink:href="#mac67e52914" x="505.500781" y="355.2" style="stroke: #000000; stroke-width: 0.8"/>
      </g>
     </g>
     <g id="text_3">
      <!-- 0 -->
      <g transform="translate(513.000781 363.95) scale(0.25 -0.25)">
       <use xlink:href="#Figtree-Bold-30"/>
      </g>
     </g>
    </g>
    <g id="ytick_2">
     <g id="line2d_4">
      <g>
       <use xlink:href="#mac67e52914" x="505.500781" y="190.358621" style="stroke: #000000; stroke-width: 0.8"/>
      </g>
     </g>
     <g id="text_4">
      <!-- 3 -->
      <g transform="translate(513.000781 199.108621) scale(0.25 -0.25)">
       <defs>
        <path id="Figtree-Bold-33" d="M 1798 -77 
Q 1402 -77 1082 41 
Q 762 160 547 381 
Q 333 602 250 902 
L 1056 1139 
Q 1101 1062 1177 950 
Q 1254 838 1388 761 
Q 1523 685 1741 685 
Q 2061 685 2249 861 
Q 2438 1037 2438 1318 
Q 2438 1510 2342 1657 
Q 2246 1805 2032 1885 
Q 1818 1965 1472 1965 
L 1203 1965 
L 1203 2560 
L 1440 2560 
Q 1824 2560 2163 2467 
Q 2502 2374 2761 2198 
Q 3021 2022 3168 1776 
Q 3315 1530 3315 1216 
Q 3315 813 3104 521 
Q 2893 230 2547 76 
Q 2202 -77 1798 -77 
z
M 1203 2125 
L 1203 2682 
L 1472 2682 
Q 1920 2682 2137 2835 
Q 2355 2989 2355 3258 
Q 2355 3411 2278 3532 
Q 2202 3654 2061 3724 
Q 1920 3795 1734 3795 
Q 1613 3795 1485 3753 
Q 1357 3712 1251 3619 
Q 1146 3526 1082 3354 
L 288 3590 
Q 378 3904 598 4118 
Q 819 4333 1126 4445 
Q 1434 4557 1760 4557 
Q 2176 4557 2509 4400 
Q 2842 4243 3034 3968 
Q 3226 3693 3226 3334 
Q 3226 3027 3078 2803 
Q 2931 2579 2678 2425 
Q 2426 2272 2106 2198 
Q 1786 2125 1440 2125 
L 1203 2125 
z
" transform="scale(0.015625)"/>
       </defs>
       <use xlink:href="#Figtree-Bold-33"/>
      </g>
     </g>
    </g>
    <g id="ytick_3">
     <g id="line2d_5">
      <g>
       <use xlink:href="#mac67e52914" x="505.500781" y="25.517241" style="stroke: #000000; stroke-width: 0.8"/>
      </g>
     </g>
     <g id="text_5">
      <!-- 6 -->
      <g transform="translate(513.000781 34.267241) scale(0.25 -0.25)">
       <defs>
        <path id="Figtree-Bold-36" d="M 1914 -77 
Q 1459 -77 1142 86 
Q 826 250 624 538 
Q 422 826 329 1206 
Q 237 1587 237 2029 
Q 237 2541 345 2998 
Q 454 3456 675 3808 
Q 896 4160 1241 4358 
Q 1587 4557 2074 4557 
Q 2426 4557 2762 4454 
Q 3098 4352 3366 4160 
L 2931 3520 
Q 2733 3661 2505 3725 
Q 2278 3789 2086 3789 
Q 1594 3789 1312 3353 
Q 1030 2918 1043 1978 
L 870 2099 
Q 1018 2451 1325 2662 
Q 1632 2874 2054 2874 
Q 2483 2874 2812 2675 
Q 3142 2477 3331 2134 
Q 3520 1792 3520 1370 
Q 3520 954 3321 624 
Q 3123 294 2761 108 
Q 2400 -77 1914 -77 
z
M 1914 666 
Q 2125 666 2291 762 
Q 2458 858 2554 1024 
Q 2650 1190 2650 1408 
Q 2650 1626 2554 1795 
Q 2458 1965 2291 2064 
Q 2125 2163 1914 2163 
Q 1702 2163 1532 2064 
Q 1363 1965 1267 1795 
Q 1171 1626 1171 1408 
Q 1171 1190 1267 1024 
Q 1363 858 1532 762 
Q 1702 666 1914 666 
z
" transform="scale(0.015625)"/>
       </defs>
       <use xlink:href="#Figtree-Bold-36"/>
      </g>
     </g>
    </g>
   </g>
   <g id="patch_23">
    <path d="M 505.500781 355.2 
L 505.500781 7.2 
" style="fill: none; stroke: #000000; stroke-width: 3.5; stroke-linejoin: miter; stroke-linecap: square"/>
   </g>
   <g id="patch_24">
    <path d="M 7.2 355.2 
L 505.500781 355.2 
" style="fill: none; stroke: #000000; stroke-width: 3.5; stroke-linejoin: miter; stroke-linecap: square"/>
   </g>
   <g id="line2d_6">
    <path d="M 505.047781 354.131093 
L 504.59478 349.044594 
L 503.688778 330.248052 
L 500.517773 252.733218 
L 499.158771 226.70198 
L 497.799769 205.701732 
L 496.440767 189.063073 
L 495.081765 176.067128 
L 494.175763 169.10393 
L 493.269762 163.304064 
L 492.363761 158.520722 
L 491.457759 154.625316 
L 490.551758 151.505588 
L 489.645756 149.063679 
L 488.739755 147.214312 
L 487.833754 145.883138 
L 486.927752 145.005284 
L 486.021751 144.524074 
L 485.115749 144.389929 
L 484.209748 144.559417 
L 483.303746 144.994434 
L 482.397745 145.6615 
L 481.038743 147.033729 
L 479.679741 148.777509 
L 477.867738 151.560282 
L 475.602734 155.589688 
L 472.88473 160.973845 
L 468.807724 169.673744 
L 456.123704 197.1838 
L 451.593697 206.354154 
L 447.06369 215.011858 
L 442.986683 222.34632 
L 438.909677 229.249052 
L 434.83267 235.732246 
L 430.755664 241.813967 
L 426.678658 247.515395 
L 422.601651 252.859071 
L 418.524645 257.867781 
L 413.994638 263.067291 
L 409.464631 267.910173 
L 404.934624 272.424079 
L 400.404616 276.63478 
L 395.421609 280.944749 
L 390.438601 284.945751 
L 385.455593 288.664264 
L 380.019585 292.426819 
L 374.583576 295.909896 
L 369.147567 299.138763 
L 363.258558 302.376086 
L 357.369549 305.367431 
L 351.027539 308.340079 
L 344.232528 311.266884 
L 337.437518 313.953561 
L 330.189506 316.581995 
L 322.488494 319.134488 
L 314.334482 321.596782 
L 305.727468 323.957854 
L 296.667454 326.209649 
L 287.154439 328.346776 
L 276.735423 330.453087 
L 265.863406 332.422795 
L 254.085387 334.328251 
L 241.401367 336.150742 
L 227.811346 337.876605 
L 212.862322 339.544058 
L 196.554297 341.129732 
L 178.887269 342.617215 
L 159.408239 344.026639 
L 138.117205 345.339503 
L 114.561168 346.566483 
L 88.287127 347.710167 
L 58.38908 348.783019 
L 52.500071 348.97032 
L 52.500071 348.97032 
" clip-path="url(#pa7161d8070)" style="fill: none; stroke: #c4520b; stroke-width: 5; stroke-linecap: square"/>
   </g>
   <g id="line2d_7">
    <path d="M 52.500071 351.058352 
L 65.650242 349.914594 
L 77.893504 348.626826 
L 89.229858 347.218211 
L 100.112758 345.649734 
L 110.542204 343.930811 
L 120.97165 341.985896 
L 130.947641 339.902519 
L 140.923633 337.59231 
L 150.899625 335.049534 
L 160.875616 332.2719 
L 170.851608 329.261115 
L 180.8276 326.023392 
L 191.257045 322.40803 
L 202.139945 318.404639 
L 214.383208 313.655274 
L 228.440287 307.949502 
L 248.845724 299.390769 
L 272.425341 289.551202 
L 285.122057 284.500724 
L 295.551503 280.585002 
L 305.074041 277.250124 
L 313.68967 274.470248 
L 321.851845 272.075129 
L 329.560565 270.049652 
L 336.815832 268.37129 
L 344.071099 266.92899 
L 350.872911 265.802605 
L 357.674724 264.903782 
L 364.476536 264.239635 
L 370.824894 263.83619 
L 377.173253 263.64461 
L 383.521611 263.666231 
L 389.869969 263.900903 
L 396.218328 264.346989 
L 403.02014 265.055986 
L 409.821953 265.998452 
L 416.623765 267.166935 
L 423.425577 268.552271 
L 430.680844 270.256834 
L 438.389565 272.308177 
L 446.098286 274.587512 
L 454.260461 277.225293 
L 463.329544 280.393873 
L 473.305536 284.12239 
L 484.64189 288.601216 
L 499.152423 294.585726 
L 505.500781 297.254212 
L 505.500781 297.254212 
" clip-path="url(#pa7161d8070)" style="fill: none; stroke: #5e548e; stroke-width: 5; stroke-linecap: square"/>
   </g>
  </g>
 </g>
 <defs>
  <clipPath id="pa7161d8070">
   <rect x="7.2" y="7.2" width="498.300781" height="348"/>
  </clipPath>
 </defs>
</svg>
