<?xml version="1.0" encoding="utf-8" standalone="no"?>
<!DOCTYPE svg PUBLIC "-//W3C//DTD SVG 1.1//EN"
  "http://www.w3.org/Graphics/SVG/1.1/DTD/svg11.dtd">
<svg xmlns:xlink="http://www.w3.org/1999/xlink" width="320.4pt" height="824.4pt" viewBox="0 0 320.4 824.4" xmlns="http://www.w3.org/2000/svg" version="1.1">
 <metadata>
  <rdf:RDF xmlns:dc="http://purl.org/dc/elements/1.1/" xmlns:cc="http://creativecommons.org/ns#" xmlns:rdf="http://www.w3.org/1999/02/22-rdf-syntax-ns#">
   <cc:Work>
    <dc:type rdf:resource="http://purl.org/dc/dcmitype/StillImage"/>
    <dc:date>2025-07-14T15:29:50.760766</dc:date>
    <dc:format>image/svg+xml</dc:format>
    <dc:creator>
     <cc:Agent>
      <dc:title>Matplotlib v3.9.2, https://matplotlib.org/</dc:title>
     </cc:Agent>
    </dc:creator>
   </cc:Work>
  </rdf:RDF>
 </metadata>
 <defs>
  <style type="text/css">*{stroke-linejoin: round; stroke-linecap: butt}</style>
 </defs>
 <g id="figure_1">
  <g id="patch_1">
   <path d="M 0 824.4 
L 320.4 824.4 
L 320.4 0 
L 0 0 
z
" style="fill: #ffffff"/>
  </g>
  <g id="axes_1">
   <g id="patch_2">
    <path d="M 11.2 255.2 
L 313.2 255.2 
L 313.2 7.2 
L 11.2 7.2 
z
" style="fill: #ffffff"/>
   </g>
   <g id="patch_3">
    <path d="M 601.550282 255.2 
L 613.152542 255.2 
L 613.152542 255.2 
L 601.550282 255.2 
z
" clip-path="url(#p495b53fbdc)" style="fill: #219ebc"/>
   </g>
   <g id="patch_4">
    <path d="M 587.900565 255.2 
L 599.502825 255.2 
L 599.502825 255.2 
L 587.900565 255.2 
z
" clip-path="url(#p495b53fbdc)" style="fill: #219ebc"/>
   </g>
   <g id="patch_5">
    <path d="M 574.250847 255.2 
L 585.853107 255.2 
L 585.853107 255.2 
L 574.250847 255.2 
z
" clip-path="url(#p495b53fbdc)" style="fill: #219ebc"/>
   </g>
   <g id="patch_6">
    <path d="M 560.60113 255.2 
L 572.20339 255.2 
L 572.20339 255.2 
L 560.60113 255.2 
z
" clip-path="url(#p495b53fbdc)" style="fill: #219ebc"/>
   </g>
   <g id="patch_7">
    <path d="M 546.951412 255.2 
L 558.553672 255.2 
L 558.553672 255.2 
L 546.951412 255.2 
z
" clip-path="url(#p495b53fbdc)" style="fill: #219ebc"/>
   </g>
   <g id="patch_8">
    <path d="M 533.301695 255.2 
L 544.903955 255.2 
L 544.903955 255.2 
L 533.301695 255.2 
z
" clip-path="url(#p495b53fbdc)" style="fill: #219ebc"/>
   </g>
   <g id="patch_9">
    <path d="M 519.651977 255.2 
L 531.254237 255.2 
L 531.254237 255.2 
L 519.651977 255.2 
z
" clip-path="url(#p495b53fbdc)" style="fill: #219ebc"/>
   </g>
   <g id="patch_10">
    <path d="M 506.00226 255.2 
L 517.60452 255.2 
L 517.60452 255.2 
L 506.00226 255.2 
z
" clip-path="url(#p495b53fbdc)" style="fill: #219ebc"/>
   </g>
   <g id="patch_11">
    <path d="M 492.352542 255.2 
L 503.954802 255.2 
L 503.954802 255.2 
L 492.352542 255.2 
z
" clip-path="url(#p495b53fbdc)" style="fill: #219ebc"/>
   </g>
   <g id="patch_12">
    <path d="M 478.702825 255.2 
L 490.305085 255.2 
L 490.305085 255.2 
L 478.702825 255.2 
z
" clip-path="url(#p495b53fbdc)" style="fill: #219ebc"/>
   </g>
   <g id="patch_13">
    <path d="M 465.053107 255.2 
L 476.655367 255.2 
L 476.655367 255.2 
L 465.053107 255.2 
z
" clip-path="url(#p495b53fbdc)" style="fill: #219ebc"/>
   </g>
   <g id="patch_14">
    <path d="M 451.40339 255.2 
L 463.00565 255.2 
L 463.00565 255.2 
L 451.40339 255.2 
z
" clip-path="url(#p495b53fbdc)" style="fill: #219ebc"/>
   </g>
   <g id="patch_15">
    <path d="M 437.753672 255.2 
L 449.355932 255.2 
L 449.355932 255.2 
L 437.753672 255.2 
z
" clip-path="url(#p495b53fbdc)" style="fill: #219ebc"/>
   </g>
   <g id="patch_16">
    <path d="M 424.103955 255.2 
L 435.706215 255.2 
L 435.706215 255.2 
L 424.103955 255.2 
z
" clip-path="url(#p495b53fbdc)" style="fill: #219ebc"/>
   </g>
   <g id="patch_17">
    <path d="M 410.454237 255.2 
L 422.056497 255.2 
L 422.056497 255.2 
L 410.454237 255.2 
z
" clip-path="url(#p495b53fbdc)" style="fill: #219ebc"/>
   </g>
   <g id="patch_18">
    <path d="M 396.80452 255.2 
L 408.40678 255.2 
L 408.40678 255.2 
L 396.80452 255.2 
z
" clip-path="url(#p495b53fbdc)" style="fill: #219ebc"/>
   </g>
   <g id="patch_19">
    <path d="M 383.154802 255.2 
L 394.757062 255.2 
L 394.757062 255.2 
L 383.154802 255.2 
z
" clip-path="url(#p495b53fbdc)" style="fill: #219ebc"/>
   </g>
   <g id="patch_20">
    <path d="M 369.505085 255.2 
L 381.107345 255.2 
L 381.107345 255.2 
L 369.505085 255.2 
z
" clip-path="url(#p495b53fbdc)" style="fill: #219ebc"/>
   </g>
   <g id="patch_21">
    <path d="M 355.855367 255.2 
L 367.457627 255.2 
L 367.457627 255.2 
L 355.855367 255.2 
z
" clip-path="url(#p495b53fbdc)" style="fill: #219ebc"/>
   </g>
   <g id="patch_22">
    <path d="M 342.20565 255.2 
L 353.80791 255.2 
L 353.80791 255.2 
L 342.20565 255.2 
z
" clip-path="url(#p495b53fbdc)" style="fill: #219ebc"/>
   </g>
   <g id="patch_23">
    <path d="M 328.555932 255.2 
L 340.158192 255.2 
L 340.158192 255.2 
L 328.555932 255.2 
z
" clip-path="url(#p495b53fbdc)" style="fill: #219ebc"/>
   </g>
   <g id="patch_24">
    <path d="M 314.906215 255.2 
L 326.508475 255.2 
L 326.508475 255.2 
L 314.906215 255.2 
z
" clip-path="url(#p495b53fbdc)" style="fill: #219ebc"/>
   </g>
   <g id="patch_25">
    <path d="M 301.256497 255.2 
L 312.858757 255.2 
L 312.858757 255.2 
L 301.256497 255.2 
z
" clip-path="url(#p495b53fbdc)" style="fill: #219ebc"/>
   </g>
   <g id="patch_26">
    <path d="M 287.60678 255.2 
L 299.20904 255.2 
L 299.20904 255.2 
L 287.60678 255.2 
z
" clip-path="url(#p495b53fbdc)" style="fill: #219ebc"/>
   </g>
   <g id="patch_27">
    <path d="M 273.957062 255.2 
L 285.559322 255.2 
L 285.559322 255.153103 
L 273.957062 255.153103 
z
" clip-path="url(#p495b53fbdc)" style="fill: #219ebc"/>
   </g>
   <g id="patch_28">
    <path d="M 260.307345 255.2 
L 271.909605 255.2 
L 271.909605 255.129654 
L 260.307345 255.129654 
z
" clip-path="url(#p495b53fbdc)" style="fill: #219ebc"/>
   </g>
   <g id="patch_29">
    <path d="M 246.657627 255.2 
L 258.259887 255.2 
L 258.259887 254.942064 
L 246.657627 254.942064 
z
" clip-path="url(#p495b53fbdc)" style="fill: #219ebc"/>
   </g>
   <g id="patch_30">
    <path d="M 233.00791 255.2 
L 244.610169 255.2 
L 244.610169 254.121359 
L 233.00791 254.121359 
z
" clip-path="url(#p495b53fbdc)" style="fill: #219ebc"/>
   </g>
   <g id="patch_31">
    <path d="M 219.358192 255.2 
L 230.960452 255.2 
L 230.960452 252.175115 
L 219.358192 252.175115 
z
" clip-path="url(#p495b53fbdc)" style="fill: #219ebc"/>
   </g>
   <g id="patch_32">
    <path d="M 205.708475 255.2 
L 217.310734 255.2 
L 217.310734 156.762282 
L 205.708475 156.762282 
z
" clip-path="url(#p495b53fbdc)" style="fill: #219ebc"/>
   </g>
   <g id="patch_33">
    <path d="M 192.058757 255.2 
L 203.661017 255.2 
L 203.661017 137.370192 
L 192.058757 137.370192 
z
" clip-path="url(#p495b53fbdc)" style="fill: #219ebc"/>
   </g>
   <g id="patch_34">
    <path d="M 178.40904 255.2 
L 190.011299 255.2 
L 190.011299 203.448679 
L 178.40904 203.448679 
z
" clip-path="url(#p495b53fbdc)" style="fill: #219ebc"/>
   </g>
   <g id="patch_35">
    <path d="M 164.759322 255.2 
L 176.361582 255.2 
L 176.361582 228.749846 
L 164.759322 228.749846 
z
" clip-path="url(#p495b53fbdc)" style="fill: #219ebc"/>
   </g>
   <g id="patch_36">
    <path d="M 151.109605 255.2 
L 162.711864 255.2 
L 162.711864 239.676949 
L 151.109605 239.676949 
z
" clip-path="url(#p495b53fbdc)" style="fill: #219ebc"/>
   </g>
   <g id="patch_37">
    <path d="M 137.459887 255.2 
L 149.062147 255.2 
L 149.062147 242.514244 
L 137.459887 242.514244 
z
" clip-path="url(#p495b53fbdc)" style="fill: #219ebc"/>
   </g>
   <g id="patch_38">
    <path d="M 123.810169 255.2 
L 135.412429 255.2 
L 135.412429 246.664667 
L 123.810169 246.664667 
z
" clip-path="url(#p495b53fbdc)" style="fill: #219ebc"/>
   </g>
   <g id="patch_39">
    <path d="M 110.160452 255.2 
L 121.762712 255.2 
L 121.762712 250.111628 
L 110.160452 250.111628 
z
" clip-path="url(#p495b53fbdc)" style="fill: #219ebc"/>
   </g>
   <g id="patch_40">
    <path d="M 96.510734 255.2 
L 108.112994 255.2 
L 108.112994 249.947487 
L 96.510734 249.947487 
z
" clip-path="url(#p495b53fbdc)" style="fill: #219ebc"/>
   </g>
   <g id="patch_41">
    <path d="M 82.861017 255.2 
L 94.463277 255.2 
L 94.463277 251.002679 
L 82.861017 251.002679 
z
" clip-path="url(#p495b53fbdc)" style="fill: #219ebc"/>
   </g>
   <g id="patch_42">
    <path d="M 69.211299 255.2 
L 80.813559 255.2 
L 80.813559 251.753038 
L 69.211299 251.753038 
z
" clip-path="url(#p495b53fbdc)" style="fill: #219ebc"/>
   </g>
   <g id="patch_43">
    <path d="M 55.561582 255.2 
L 67.163842 255.2 
L 67.163842 252.151667 
L 55.561582 252.151667 
z
" clip-path="url(#p495b53fbdc)" style="fill: #219ebc"/>
   </g>
   <g id="patch_44">
    <path d="M 41.911864 255.2 
L 53.514124 255.2 
L 53.514124 252.245462 
L 41.911864 252.245462 
z
" clip-path="url(#p495b53fbdc)" style="fill: #219ebc"/>
   </g>
   <g id="patch_45">
    <path d="M 28.262147 255.2 
L 39.864407 255.2 
L 39.864407 253.230308 
L 28.262147 253.230308 
z
" clip-path="url(#p495b53fbdc)" style="fill: #219ebc"/>
   </g>
   <g id="patch_46">
    <path d="M 14.612429 255.2 
L 26.214689 255.2 
L 26.214689 254.2855 
L 14.612429 254.2855 
z
" clip-path="url(#p495b53fbdc)" style="fill: #219ebc"/>
   </g>
   <g id="patch_47">
    <path d="M 0.962712 255.2 
L 12.564972 255.2 
L 12.564972 254.308949 
L 0.962712 254.308949 
z
" clip-path="url(#p495b53fbdc)" style="fill: #219ebc"/>
   </g>
   <g id="patch_48">
    <path d="M -12.687006 255.2 
L -1.084746 255.2 
L -1.084746 254.379295 
L -12.687006 254.379295 
z
" clip-path="url(#p495b53fbdc)" style="fill: #219ebc"/>
   </g>
   <g id="patch_49">
    <path d="M -26.336723 255.2 
L -14.734463 255.2 
L -14.734463 254.637231 
L -26.336723 254.637231 
z
" clip-path="url(#p495b53fbdc)" style="fill: #219ebc"/>
   </g>
   <g id="patch_50">
    <path d="M -39.986441 255.2 
L -28.384181 255.2 
L -28.384181 255.01241 
L -39.986441 255.01241 
z
" clip-path="url(#p495b53fbdc)" style="fill: #219ebc"/>
   </g>
   <g id="patch_51">
    <path d="M -53.636158 255.2 
L -42.033898 255.2 
L -42.033898 254.918615 
L -53.636158 254.918615 
z
" clip-path="url(#p495b53fbdc)" style="fill: #219ebc"/>
   </g>
   <g id="patch_52">
    <path d="M -67.285876 255.2 
L -55.683616 255.2 
L -55.683616 255.035859 
L -67.285876 255.035859 
z
" clip-path="url(#p495b53fbdc)" style="fill: #219ebc"/>
   </g>
   <g id="patch_53">
    <path d="M -80.935593 255.2 
L -69.333333 255.2 
L -69.333333 255.106205 
L -80.935593 255.106205 
z
" clip-path="url(#p495b53fbdc)" style="fill: #219ebc"/>
   </g>
   <g id="patch_54">
    <path d="M -94.585311 255.2 
L -82.983051 255.2 
L -82.983051 255.2 
L -94.585311 255.2 
z
" clip-path="url(#p495b53fbdc)" style="fill: #219ebc"/>
   </g>
   <g id="patch_55">
    <path d="M -108.235028 255.2 
L -96.632768 255.2 
L -96.632768 255.153103 
L -108.235028 255.153103 
z
" clip-path="url(#p495b53fbdc)" style="fill: #219ebc"/>
   </g>
   <g id="patch_56">
    <path d="M -121.884746 255.2 
L -110.282486 255.2 
L -110.282486 255.059308 
L -121.884746 255.059308 
z
" clip-path="url(#p495b53fbdc)" style="fill: #219ebc"/>
   </g>
   <g id="patch_57">
    <path d="M -135.534463 255.2 
L -123.932203 255.2 
L -123.932203 255.153103 
L -135.534463 255.153103 
z
" clip-path="url(#p495b53fbdc)" style="fill: #219ebc"/>
   </g>
   <g id="patch_58">
    <path d="M -149.184181 255.2 
L -137.581921 255.2 
L -137.581921 255.2 
L -149.184181 255.2 
z
" clip-path="url(#p495b53fbdc)" style="fill: #219ebc"/>
   </g>
   <g id="patch_59">
    <path d="M -162.833898 255.2 
L -151.231638 255.2 
L -151.231638 255.2 
L -162.833898 255.2 
z
" clip-path="url(#p495b53fbdc)" style="fill: #219ebc"/>
   </g>
   <g id="patch_60">
    <path d="M -176.483616 255.2 
L -164.881356 255.2 
L -164.881356 255.2 
L -176.483616 255.2 
z
" clip-path="url(#p495b53fbdc)" style="fill: #219ebc"/>
   </g>
   <g id="patch_61">
    <path d="M -190.133333 255.2 
L -178.531073 255.2 
L -178.531073 255.2 
L -190.133333 255.2 
z
" clip-path="url(#p495b53fbdc)" style="fill: #219ebc"/>
   </g>
   <g id="patch_62">
    <path d="M 601.550282 255.2 
L 613.152542 255.2 
L 613.152542 255.2 
L 601.550282 255.2 
z
" clip-path="url(#p495b53fbdc)" style="fill: #e63946; opacity: 0.7"/>
   </g>
   <g id="patch_63">
    <path d="M 587.900565 255.2 
L 599.502825 255.2 
L 599.502825 255.2 
L 587.900565 255.2 
z
" clip-path="url(#p495b53fbdc)" style="fill: #e63946; opacity: 0.7"/>
   </g>
   <g id="patch_64">
    <path d="M 574.250847 255.2 
L 585.853107 255.2 
L 585.853107 255.2 
L 574.250847 255.2 
z
" clip-path="url(#p495b53fbdc)" style="fill: #e63946; opacity: 0.7"/>
   </g>
   <g id="patch_65">
    <path d="M 560.60113 255.2 
L 572.20339 255.2 
L 572.20339 255.2 
L 560.60113 255.2 
z
" clip-path="url(#p495b53fbdc)" style="fill: #e63946; opacity: 0.7"/>
   </g>
   <g id="patch_66">
    <path d="M 546.951412 255.2 
L 558.553672 255.2 
L 558.553672 255.2 
L 546.951412 255.2 
z
" clip-path="url(#p495b53fbdc)" style="fill: #e63946; opacity: 0.7"/>
   </g>
   <g id="patch_67">
    <path d="M 533.301695 255.2 
L 544.903955 255.2 
L 544.903955 255.2 
L 533.301695 255.2 
z
" clip-path="url(#p495b53fbdc)" style="fill: #e63946; opacity: 0.7"/>
   </g>
   <g id="patch_68">
    <path d="M 519.651977 255.2 
L 531.254237 255.2 
L 531.254237 255.2 
L 519.651977 255.2 
z
" clip-path="url(#p495b53fbdc)" style="fill: #e63946; opacity: 0.7"/>
   </g>
   <g id="patch_69">
    <path d="M 506.00226 255.2 
L 517.60452 255.2 
L 517.60452 255.2 
L 506.00226 255.2 
z
" clip-path="url(#p495b53fbdc)" style="fill: #e63946; opacity: 0.7"/>
   </g>
   <g id="patch_70">
    <path d="M 492.352542 255.2 
L 503.954802 255.2 
L 503.954802 255.2 
L 492.352542 255.2 
z
" clip-path="url(#p495b53fbdc)" style="fill: #e63946; opacity: 0.7"/>
   </g>
   <g id="patch_71">
    <path d="M 478.702825 255.2 
L 490.305085 255.2 
L 490.305085 255.2 
L 478.702825 255.2 
z
" clip-path="url(#p495b53fbdc)" style="fill: #e63946; opacity: 0.7"/>
   </g>
   <g id="patch_72">
    <path d="M 465.053107 255.2 
L 476.655367 255.2 
L 476.655367 255.2 
L 465.053107 255.2 
z
" clip-path="url(#p495b53fbdc)" style="fill: #e63946; opacity: 0.7"/>
   </g>
   <g id="patch_73">
    <path d="M 451.40339 255.2 
L 463.00565 255.2 
L 463.00565 255.2 
L 451.40339 255.2 
z
" clip-path="url(#p495b53fbdc)" style="fill: #e63946; opacity: 0.7"/>
   </g>
   <g id="patch_74">
    <path d="M 437.753672 255.2 
L 449.355932 255.2 
L 449.355932 255.2 
L 437.753672 255.2 
z
" clip-path="url(#p495b53fbdc)" style="fill: #e63946; opacity: 0.7"/>
   </g>
   <g id="patch_75">
    <path d="M 424.103955 255.2 
L 435.706215 255.2 
L 435.706215 255.2 
L 424.103955 255.2 
z
" clip-path="url(#p495b53fbdc)" style="fill: #e63946; opacity: 0.7"/>
   </g>
   <g id="patch_76">
    <path d="M 410.454237 255.2 
L 422.056497 255.2 
L 422.056497 255.2 
L 410.454237 255.2 
z
" clip-path="url(#p495b53fbdc)" style="fill: #e63946; opacity: 0.7"/>
   </g>
   <g id="patch_77">
    <path d="M 396.80452 255.2 
L 408.40678 255.2 
L 408.40678 255.2 
L 396.80452 255.2 
z
" clip-path="url(#p495b53fbdc)" style="fill: #e63946; opacity: 0.7"/>
   </g>
   <g id="patch_78">
    <path d="M 383.154802 255.2 
L 394.757062 255.2 
L 394.757062 255.2 
L 383.154802 255.2 
z
" clip-path="url(#p495b53fbdc)" style="fill: #e63946; opacity: 0.7"/>
   </g>
   <g id="patch_79">
    <path d="M 369.505085 255.2 
L 381.107345 255.2 
L 381.107345 255.2 
L 369.505085 255.2 
z
" clip-path="url(#p495b53fbdc)" style="fill: #e63946; opacity: 0.7"/>
   </g>
   <g id="patch_80">
    <path d="M 355.855367 255.2 
L 367.457627 255.2 
L 367.457627 255.2 
L 355.855367 255.2 
z
" clip-path="url(#p495b53fbdc)" style="fill: #e63946; opacity: 0.7"/>
   </g>
   <g id="patch_81">
    <path d="M 342.20565 255.2 
L 353.80791 255.2 
L 353.80791 255.2 
L 342.20565 255.2 
z
" clip-path="url(#p495b53fbdc)" style="fill: #e63946; opacity: 0.7"/>
   </g>
   <g id="patch_82">
    <path d="M 328.555932 255.2 
L 340.158192 255.2 
L 340.158192 255.2 
L 328.555932 255.2 
z
" clip-path="url(#p495b53fbdc)" style="fill: #e63946; opacity: 0.7"/>
   </g>
   <g id="patch_83">
    <path d="M 314.906215 255.2 
L 326.508475 255.2 
L 326.508475 255.2 
L 314.906215 255.2 
z
" clip-path="url(#p495b53fbdc)" style="fill: #e63946; opacity: 0.7"/>
   </g>
   <g id="patch_84">
    <path d="M 301.256497 255.2 
L 312.858757 255.2 
L 312.858757 255.2 
L 301.256497 255.2 
z
" clip-path="url(#p495b53fbdc)" style="fill: #e63946; opacity: 0.7"/>
   </g>
   <g id="patch_85">
    <path d="M 287.60678 255.2 
L 299.20904 255.2 
L 299.20904 255.2 
L 287.60678 255.2 
z
" clip-path="url(#p495b53fbdc)" style="fill: #e63946; opacity: 0.7"/>
   </g>
   <g id="patch_86">
    <path d="M 273.957062 255.2 
L 285.559322 255.2 
L 285.559322 255.2 
L 273.957062 255.2 
z
" clip-path="url(#p495b53fbdc)" style="fill: #e63946; opacity: 0.7"/>
   </g>
   <g id="patch_87">
    <path d="M 260.307345 255.2 
L 271.909605 255.2 
L 271.909605 255.176536 
L 260.307345 255.176536 
z
" clip-path="url(#p495b53fbdc)" style="fill: #e63946; opacity: 0.7"/>
   </g>
   <g id="patch_88">
    <path d="M 246.657627 255.2 
L 258.259887 255.2 
L 258.259887 255.176551 
L 246.657627 255.176551 
z
" clip-path="url(#p495b53fbdc)" style="fill: #e63946; opacity: 0.7"/>
   </g>
   <g id="patch_89">
    <path d="M 233.00791 255.2 
L 244.610169 255.2 
L 244.610169 255.106205 
L 233.00791 255.106205 
z
" clip-path="url(#p495b53fbdc)" style="fill: #e63946; opacity: 0.7"/>
   </g>
   <g id="patch_90">
    <path d="M 219.358192 255.2 
L 230.960452 255.2 
L 230.960452 254.050923 
L 219.358192 254.050923 
z
" clip-path="url(#p495b53fbdc)" style="fill: #e63946; opacity: 0.7"/>
   </g>
   <g id="patch_91">
    <path d="M 205.708475 255.2 
L 217.310734 255.2 
L 217.310734 98.271027 
L 205.708475 98.271027 
z
" clip-path="url(#p495b53fbdc)" style="fill: #e63946; opacity: 0.7"/>
   </g>
   <g id="patch_92">
    <path d="M 192.058757 255.2 
L 203.661017 255.2 
L 203.661017 121.1586 
L 192.058757 121.1586 
z
" clip-path="url(#p495b53fbdc)" style="fill: #e63946; opacity: 0.7"/>
   </g>
   <g id="patch_93">
    <path d="M 178.40904 255.2 
L 190.011299 255.2 
L 190.011299 215.967843 
L 178.40904 215.967843 
z
" clip-path="url(#p495b53fbdc)" style="fill: #e63946; opacity: 0.7"/>
   </g>
   <g id="patch_94">
    <path d="M 164.759322 255.2 
L 176.361582 255.2 
L 176.361582 237.377937 
L 164.759322 237.377937 
z
" clip-path="url(#p495b53fbdc)" style="fill: #e63946; opacity: 0.7"/>
   </g>
   <g id="patch_95">
    <path d="M 151.109605 255.2 
L 162.711864 255.2 
L 162.711864 248.141334 
L 151.109605 248.141334 
z
" clip-path="url(#p495b53fbdc)" style="fill: #e63946; opacity: 0.7"/>
   </g>
   <g id="patch_96">
    <path d="M 137.459887 255.2 
L 149.062147 255.2 
L 149.062147 251.823219 
L 137.459887 251.823219 
z
" clip-path="url(#p495b53fbdc)" style="fill: #e63946; opacity: 0.7"/>
   </g>
   <g id="patch_97">
    <path d="M 123.810169 255.2 
L 135.412429 255.2 
L 135.412429 253.159796 
L 123.810169 253.159796 
z
" clip-path="url(#p495b53fbdc)" style="fill: #e63946; opacity: 0.7"/>
   </g>
   <g id="patch_98">
    <path d="M 110.160452 255.2 
L 121.762712 255.2 
L 121.762712 253.300534 
L 110.160452 253.300534 
z
" clip-path="url(#p495b53fbdc)" style="fill: #e63946; opacity: 0.7"/>
   </g>
   <g id="patch_99">
    <path d="M 96.510734 255.2 
L 108.112994 255.2 
L 108.112994 254.121269 
L 96.510734 254.121269 
z
" clip-path="url(#p495b53fbdc)" style="fill: #e63946; opacity: 0.7"/>
   </g>
   <g id="patch_100">
    <path d="M 82.861017 255.2 
L 94.463277 255.2 
L 94.463277 254.731026 
L 82.861017 254.731026 
z
" clip-path="url(#p495b53fbdc)" style="fill: #e63946; opacity: 0.7"/>
   </g>
   <g id="patch_101">
    <path d="M 69.211299 255.2 
L 80.813559 255.2 
L 80.813559 254.988946 
L 69.211299 254.988946 
z
" clip-path="url(#p495b53fbdc)" style="fill: #e63946; opacity: 0.7"/>
   </g>
   <g id="patch_102">
    <path d="M 55.561582 255.2 
L 67.163842 255.2 
L 67.163842 255.035844 
L 55.561582 255.035844 
z
" clip-path="url(#p495b53fbdc)" style="fill: #e63946; opacity: 0.7"/>
   </g>
   <g id="patch_103">
    <path d="M 41.911864 255.2 
L 53.514124 255.2 
L 53.514124 255.153103 
L 41.911864 255.153103 
z
" clip-path="url(#p495b53fbdc)" style="fill: #e63946; opacity: 0.7"/>
   </g>
   <g id="patch_104">
    <path d="M 28.262147 255.2 
L 39.864407 255.2 
L 39.864407 255.176551 
L 28.262147 255.176551 
z
" clip-path="url(#p495b53fbdc)" style="fill: #e63946; opacity: 0.7"/>
   </g>
   <g id="patch_105">
    <path d="M 14.612429 255.2 
L 26.214689 255.2 
L 26.214689 255.176551 
L 14.612429 255.176551 
z
" clip-path="url(#p495b53fbdc)" style="fill: #e63946; opacity: 0.7"/>
   </g>
   <g id="patch_106">
    <path d="M 0.962712 255.2 
L 12.564972 255.2 
L 12.564972 255.2 
L 0.962712 255.2 
z
" clip-path="url(#p495b53fbdc)" style="fill: #e63946; opacity: 0.7"/>
   </g>
   <g id="patch_107">
    <path d="M -12.687006 255.2 
L -1.084746 255.2 
L -1.084746 255.2 
L -12.687006 255.2 
z
" clip-path="url(#p495b53fbdc)" style="fill: #e63946; opacity: 0.7"/>
   </g>
   <g id="patch_108">
    <path d="M -26.336723 255.2 
L -14.734463 255.2 
L -14.734463 255.2 
L -26.336723 255.2 
z
" clip-path="url(#p495b53fbdc)" style="fill: #e63946; opacity: 0.7"/>
   </g>
   <g id="patch_109">
    <path d="M -39.986441 255.2 
L -28.384181 255.2 
L -28.384181 255.2 
L -39.986441 255.2 
z
" clip-path="url(#p495b53fbdc)" style="fill: #e63946; opacity: 0.7"/>
   </g>
   <g id="patch_110">
    <path d="M -53.636158 255.2 
L -42.033898 255.2 
L -42.033898 255.2 
L -53.636158 255.2 
z
" clip-path="url(#p495b53fbdc)" style="fill: #e63946; opacity: 0.7"/>
   </g>
   <g id="patch_111">
    <path d="M -67.285876 255.2 
L -55.683616 255.2 
L -55.683616 255.2 
L -67.285876 255.2 
z
" clip-path="url(#p495b53fbdc)" style="fill: #e63946; opacity: 0.7"/>
   </g>
   <g id="patch_112">
    <path d="M -80.935593 255.2 
L -69.333333 255.2 
L -69.333333 255.2 
L -80.935593 255.2 
z
" clip-path="url(#p495b53fbdc)" style="fill: #e63946; opacity: 0.7"/>
   </g>
   <g id="patch_113">
    <path d="M -94.585311 255.2 
L -82.983051 255.2 
L -82.983051 255.153103 
L -94.585311 255.153103 
z
" clip-path="url(#p495b53fbdc)" style="fill: #e63946; opacity: 0.7"/>
   </g>
   <g id="patch_114">
    <path d="M -108.235028 255.2 
L -96.632768 255.2 
L -96.632768 255.2 
L -108.235028 255.2 
z
" clip-path="url(#p495b53fbdc)" style="fill: #e63946; opacity: 0.7"/>
   </g>
   <g id="patch_115">
    <path d="M -121.884746 255.2 
L -110.282486 255.2 
L -110.282486 255.2 
L -121.884746 255.2 
z
" clip-path="url(#p495b53fbdc)" style="fill: #e63946; opacity: 0.7"/>
   </g>
   <g id="patch_116">
    <path d="M -135.534463 255.2 
L -123.932203 255.2 
L -123.932203 255.2 
L -135.534463 255.2 
z
" clip-path="url(#p495b53fbdc)" style="fill: #e63946; opacity: 0.7"/>
   </g>
   <g id="patch_117">
    <path d="M -149.184181 255.2 
L -137.581921 255.2 
L -137.581921 255.2 
L -149.184181 255.2 
z
" clip-path="url(#p495b53fbdc)" style="fill: #e63946; opacity: 0.7"/>
   </g>
   <g id="patch_118">
    <path d="M -162.833898 255.2 
L -151.231638 255.2 
L -151.231638 255.153103 
L -162.833898 255.153103 
z
" clip-path="url(#p495b53fbdc)" style="fill: #e63946; opacity: 0.7"/>
   </g>
   <g id="patch_119">
    <path d="M -176.483616 255.2 
L -164.881356 255.2 
L -164.881356 255.2 
L -176.483616 255.2 
z
" clip-path="url(#p495b53fbdc)" style="fill: #e63946; opacity: 0.7"/>
   </g>
   <g id="patch_120">
    <path d="M -190.133333 255.2 
L -178.531073 255.2 
L -178.531073 255.2 
L -190.133333 255.2 
z
" clip-path="url(#p495b53fbdc)" style="fill: #e63946; opacity: 0.7"/>
   </g>
   <g id="matplotlib.axis_1">
    <g id="xtick_1">
     <g id="line2d_1">
      <defs>
       <path id="mb09db0cc6b" d="M 0 0 
L 0 4 
" style="stroke: #000000; stroke-width: 0.8"/>
      </defs>
      <g>
       <use xlink:href="#mb09db0cc6b" x="11.2" y="255.2" style="stroke: #000000; stroke-width: 0.8"/>
      </g>
     </g>
    </g>
    <g id="xtick_2">
     <g id="line2d_2">
      <g>
       <use xlink:href="#mb09db0cc6b" x="111.866667" y="255.2" style="stroke: #000000; stroke-width: 0.8"/>
      </g>
     </g>
    </g>
    <g id="xtick_3">
     <g id="line2d_3">
      <g>
       <use xlink:href="#mb09db0cc6b" x="212.533333" y="255.2" style="stroke: #000000; stroke-width: 0.8"/>
      </g>
     </g>
    </g>
    <g id="xtick_4">
     <g id="line2d_4">
      <g>
       <use xlink:href="#mb09db0cc6b" x="313.2" y="255.2" style="stroke: #000000; stroke-width: 0.8"/>
      </g>
     </g>
    </g>
   </g>
   <g id="matplotlib.axis_2">
    <g id="ytick_1">
     <g id="line2d_5">
      <defs>
       <path id="m6dac8cdc77" d="M 0 0 
L -4 0 
" style="stroke: #000000; stroke-width: 0.8"/>
      </defs>
      <g>
       <use xlink:href="#m6dac8cdc77" x="11.2" y="255.2" style="stroke: #000000; stroke-width: 0.8"/>
      </g>
     </g>
    </g>
    <g id="ytick_2">
     <g id="line2d_6">
      <g>
       <use xlink:href="#m6dac8cdc77" x="11.2" y="131.2" style="stroke: #000000; stroke-width: 0.8"/>
      </g>
     </g>
    </g>
    <g id="ytick_3">
     <g id="line2d_7">
      <g>
       <use xlink:href="#m6dac8cdc77" x="11.2" y="7.2" style="stroke: #000000; stroke-width: 0.8"/>
      </g>
     </g>
    </g>
   </g>
   <g id="patch_121">
    <path d="M 11.2 255.2 
L 11.2 7.2 
" style="fill: none; stroke: #000000; stroke-width: 1.5; stroke-linejoin: miter; stroke-linecap: square"/>
   </g>
   <g id="patch_122">
    <path d="M 11.2 255.2 
L 313.2 255.2 
" style="fill: none; stroke: #000000; stroke-width: 1.5; stroke-linejoin: miter; stroke-linecap: square"/>
   </g>
  </g>
  <g id="axes_2">
   <g id="patch_123">
    <path d="M 11.2 534.2 
L 313.2 534.2 
L 313.2 286.2 
L 11.2 286.2 
z
" style="fill: #ffffff"/>
   </g>
   <g id="patch_124">
    <path d="M 601.550282 534.2 
L 613.152542 534.2 
L 613.152542 534.2 
L 601.550282 534.2 
z
" clip-path="url(#p560a09288a)" style="fill: #219ebc"/>
   </g>
   <g id="patch_125">
    <path d="M 587.900565 534.2 
L 599.502825 534.2 
L 599.502825 534.2 
L 587.900565 534.2 
z
" clip-path="url(#p560a09288a)" style="fill: #219ebc"/>
   </g>
   <g id="patch_126">
    <path d="M 574.250847 534.2 
L 585.853107 534.2 
L 585.853107 534.2 
L 574.250847 534.2 
z
" clip-path="url(#p560a09288a)" style="fill: #219ebc"/>
   </g>
   <g id="patch_127">
    <path d="M 560.60113 534.2 
L 572.20339 534.2 
L 572.20339 534.2 
L 560.60113 534.2 
z
" clip-path="url(#p560a09288a)" style="fill: #219ebc"/>
   </g>
   <g id="patch_128">
    <path d="M 546.951412 534.2 
L 558.553672 534.2 
L 558.553672 534.2 
L 546.951412 534.2 
z
" clip-path="url(#p560a09288a)" style="fill: #219ebc"/>
   </g>
   <g id="patch_129">
    <path d="M 533.301695 534.2 
L 544.903955 534.2 
L 544.903955 534.2 
L 533.301695 534.2 
z
" clip-path="url(#p560a09288a)" style="fill: #219ebc"/>
   </g>
   <g id="patch_130">
    <path d="M 519.651977 534.2 
L 531.254237 534.2 
L 531.254237 534.2 
L 519.651977 534.2 
z
" clip-path="url(#p560a09288a)" style="fill: #219ebc"/>
   </g>
   <g id="patch_131">
    <path d="M 506.00226 534.2 
L 517.60452 534.2 
L 517.60452 534.2 
L 506.00226 534.2 
z
" clip-path="url(#p560a09288a)" style="fill: #219ebc"/>
   </g>
   <g id="patch_132">
    <path d="M 492.352542 534.2 
L 503.954802 534.2 
L 503.954802 534.2 
L 492.352542 534.2 
z
" clip-path="url(#p560a09288a)" style="fill: #219ebc"/>
   </g>
   <g id="patch_133">
    <path d="M 478.702825 534.2 
L 490.305085 534.2 
L 490.305085 534.2 
L 478.702825 534.2 
z
" clip-path="url(#p560a09288a)" style="fill: #219ebc"/>
   </g>
   <g id="patch_134">
    <path d="M 465.053107 534.2 
L 476.655367 534.2 
L 476.655367 534.2 
L 465.053107 534.2 
z
" clip-path="url(#p560a09288a)" style="fill: #219ebc"/>
   </g>
   <g id="patch_135">
    <path d="M 451.40339 534.2 
L 463.00565 534.2 
L 463.00565 534.2 
L 451.40339 534.2 
z
" clip-path="url(#p560a09288a)" style="fill: #219ebc"/>
   </g>
   <g id="patch_136">
    <path d="M 437.753672 534.2 
L 449.355932 534.2 
L 449.355932 534.2 
L 437.753672 534.2 
z
" clip-path="url(#p560a09288a)" style="fill: #219ebc"/>
   </g>
   <g id="patch_137">
    <path d="M 424.103955 534.2 
L 435.706215 534.2 
L 435.706215 534.2 
L 424.103955 534.2 
z
" clip-path="url(#p560a09288a)" style="fill: #219ebc"/>
   </g>
   <g id="patch_138">
    <path d="M 410.454237 534.2 
L 422.056497 534.2 
L 422.056497 534.2 
L 410.454237 534.2 
z
" clip-path="url(#p560a09288a)" style="fill: #219ebc"/>
   </g>
   <g id="patch_139">
    <path d="M 396.80452 534.2 
L 408.40678 534.2 
L 408.40678 534.2 
L 396.80452 534.2 
z
" clip-path="url(#p560a09288a)" style="fill: #219ebc"/>
   </g>
   <g id="patch_140">
    <path d="M 383.154802 534.2 
L 394.757062 534.2 
L 394.757062 534.2 
L 383.154802 534.2 
z
" clip-path="url(#p560a09288a)" style="fill: #219ebc"/>
   </g>
   <g id="patch_141">
    <path d="M 369.505085 534.2 
L 381.107345 534.2 
L 381.107345 534.2 
L 369.505085 534.2 
z
" clip-path="url(#p560a09288a)" style="fill: #219ebc"/>
   </g>
   <g id="patch_142">
    <path d="M 355.855367 534.2 
L 367.457627 534.2 
L 367.457627 534.2 
L 355.855367 534.2 
z
" clip-path="url(#p560a09288a)" style="fill: #219ebc"/>
   </g>
   <g id="patch_143">
    <path d="M 342.20565 534.2 
L 353.80791 534.2 
L 353.80791 534.2 
L 342.20565 534.2 
z
" clip-path="url(#p560a09288a)" style="fill: #219ebc"/>
   </g>
   <g id="patch_144">
    <path d="M 328.555932 534.2 
L 340.158192 534.2 
L 340.158192 534.082756 
L 328.555932 534.082756 
z
" clip-path="url(#p560a09288a)" style="fill: #219ebc"/>
   </g>
   <g id="patch_145">
    <path d="M 314.906215 534.2 
L 326.508475 534.2 
L 326.508475 534.059308 
L 314.906215 534.059308 
z
" clip-path="url(#p560a09288a)" style="fill: #219ebc"/>
   </g>
   <g id="patch_146">
    <path d="M 301.256497 534.2 
L 312.858757 534.2 
L 312.858757 533.918615 
L 301.256497 533.918615 
z
" clip-path="url(#p560a09288a)" style="fill: #219ebc"/>
   </g>
   <g id="patch_147">
    <path d="M 287.60678 534.2 
L 299.20904 534.2 
L 299.20904 533.613737 
L 287.60678 533.613737 
z
" clip-path="url(#p560a09288a)" style="fill: #219ebc"/>
   </g>
   <g id="patch_148">
    <path d="M 273.957062 534.2 
L 285.559322 534.2 
L 285.559322 533.449596 
L 273.957062 533.449596 
z
" clip-path="url(#p560a09288a)" style="fill: #219ebc"/>
   </g>
   <g id="patch_149">
    <path d="M 260.307345 534.2 
L 271.909605 534.2 
L 271.909605 533.191675 
L 260.307345 533.191675 
z
" clip-path="url(#p560a09288a)" style="fill: #219ebc"/>
   </g>
   <g id="patch_150">
    <path d="M 246.657627 534.2 
L 258.259887 534.2 
L 258.259887 532.535036 
L 246.657627 532.535036 
z
" clip-path="url(#p560a09288a)" style="fill: #219ebc"/>
   </g>
   <g id="patch_151">
    <path d="M 233.00791 534.2 
L 244.610169 534.2 
L 244.610169 531.620476 
L 233.00791 531.620476 
z
" clip-path="url(#p560a09288a)" style="fill: #219ebc"/>
   </g>
   <g id="patch_152">
    <path d="M 219.358192 534.2 
L 230.960452 534.2 
L 230.960452 528.736073 
L 219.358192 528.736073 
z
" clip-path="url(#p560a09288a)" style="fill: #219ebc"/>
   </g>
   <g id="patch_153">
    <path d="M 205.708475 534.2 
L 217.310734 534.2 
L 217.310734 401.073281 
L 205.708475 401.073281 
z
" clip-path="url(#p560a09288a)" style="fill: #219ebc"/>
   </g>
   <g id="patch_154">
    <path d="M 192.058757 534.2 
L 203.661017 534.2 
L 203.661017 438.991813 
L 192.058757 438.991813 
z
" clip-path="url(#p560a09288a)" style="fill: #219ebc"/>
   </g>
   <g id="patch_155">
    <path d="M 178.40904 534.2 
L 190.011299 534.2 
L 190.011299 491.73189 
L 178.40904 491.73189 
z
" clip-path="url(#p560a09288a)" style="fill: #219ebc"/>
   </g>
   <g id="patch_156">
    <path d="M 164.759322 534.2 
L 176.361582 534.2 
L 176.361582 513.047828 
L 164.759322 513.047828 
z
" clip-path="url(#p560a09288a)" style="fill: #219ebc"/>
   </g>
   <g id="patch_157">
    <path d="M 151.109605 534.2 
L 162.711864 534.2 
L 162.711864 520.973945 
L 151.109605 520.973945 
z
" clip-path="url(#p560a09288a)" style="fill: #219ebc"/>
   </g>
   <g id="patch_158">
    <path d="M 137.459887 534.2 
L 149.062147 534.2 
L 149.062147 523.459855 
L 137.459887 523.459855 
z
" clip-path="url(#p560a09288a)" style="fill: #219ebc"/>
   </g>
   <g id="patch_159">
    <path d="M 123.810169 534.2 
L 135.412429 534.2 
L 135.412429 527.164888 
L 123.810169 527.164888 
z
" clip-path="url(#p560a09288a)" style="fill: #219ebc"/>
   </g>
   <g id="patch_160">
    <path d="M 110.160452 534.2 
L 121.762712 534.2 
L 121.762712 528.712624 
L 110.160452 528.712624 
z
" clip-path="url(#p560a09288a)" style="fill: #219ebc"/>
   </g>
   <g id="patch_161">
    <path d="M 96.510734 534.2 
L 108.112994 534.2 
L 108.112994 529.017578 
L 96.510734 529.017578 
z
" clip-path="url(#p560a09288a)" style="fill: #219ebc"/>
   </g>
   <g id="patch_162">
    <path d="M 82.861017 534.2 
L 94.463277 534.2 
L 94.463277 531.034228 
L 82.861017 531.034228 
z
" clip-path="url(#p560a09288a)" style="fill: #219ebc"/>
   </g>
   <g id="patch_163">
    <path d="M 69.211299 534.2 
L 80.813559 534.2 
L 80.813559 531.010779 
L 69.211299 531.010779 
z
" clip-path="url(#p560a09288a)" style="fill: #219ebc"/>
   </g>
   <g id="patch_164">
    <path d="M 55.561582 534.2 
L 67.163842 534.2 
L 67.163842 530.799725 
L 55.561582 530.799725 
z
" clip-path="url(#p560a09288a)" style="fill: #219ebc"/>
   </g>
   <g id="patch_165">
    <path d="M 41.911864 534.2 
L 53.514124 534.2 
L 53.514124 531.596967 
L 41.911864 531.596967 
z
" clip-path="url(#p560a09288a)" style="fill: #219ebc"/>
   </g>
   <g id="patch_166">
    <path d="M 28.262147 534.2 
L 39.864407 534.2 
L 39.864407 532.581948 
L 28.262147 532.581948 
z
" clip-path="url(#p560a09288a)" style="fill: #219ebc"/>
   </g>
   <g id="patch_167">
    <path d="M 14.612429 534.2 
L 26.214689 534.2 
L 26.214689 532.535036 
L 14.612429 532.535036 
z
" clip-path="url(#p560a09288a)" style="fill: #219ebc"/>
   </g>
   <g id="patch_168">
    <path d="M 0.962712 534.2 
L 12.564972 534.2 
L 12.564972 533.261991 
L 0.962712 533.261991 
z
" clip-path="url(#p560a09288a)" style="fill: #219ebc"/>
   </g>
   <g id="patch_169">
    <path d="M -12.687006 534.2 
L -1.084746 534.2 
L -1.084746 533.519912 
L -12.687006 533.519912 
z
" clip-path="url(#p560a09288a)" style="fill: #219ebc"/>
   </g>
   <g id="patch_170">
    <path d="M -26.336723 534.2 
L -14.734463 534.2 
L -14.734463 533.777893 
L -26.336723 533.777893 
z
" clip-path="url(#p560a09288a)" style="fill: #219ebc"/>
   </g>
   <g id="patch_171">
    <path d="M -39.986441 534.2 
L -28.384181 534.2 
L -28.384181 533.824805 
L -39.986441 533.824805 
z
" clip-path="url(#p560a09288a)" style="fill: #219ebc"/>
   </g>
   <g id="patch_172">
    <path d="M -53.636158 534.2 
L -42.033898 534.2 
L -42.033898 533.871718 
L -53.636158 533.871718 
z
" clip-path="url(#p560a09288a)" style="fill: #219ebc"/>
   </g>
   <g id="patch_173">
    <path d="M -67.285876 534.2 
L -55.683616 534.2 
L -55.683616 533.942034 
L -67.285876 533.942034 
z
" clip-path="url(#p560a09288a)" style="fill: #219ebc"/>
   </g>
   <g id="patch_174">
    <path d="M -80.935593 534.2 
L -69.333333 534.2 
L -69.333333 533.918585 
L -80.935593 533.918585 
z
" clip-path="url(#p560a09288a)" style="fill: #219ebc"/>
   </g>
   <g id="patch_175">
    <path d="M -94.585311 534.2 
L -82.983051 534.2 
L -82.983051 534.059278 
L -94.585311 534.059278 
z
" clip-path="url(#p560a09288a)" style="fill: #219ebc"/>
   </g>
   <g id="patch_176">
    <path d="M -108.235028 534.2 
L -96.632768 534.2 
L -96.632768 534.035859 
L -108.235028 534.035859 
z
" clip-path="url(#p560a09288a)" style="fill: #219ebc"/>
   </g>
   <g id="patch_177">
    <path d="M -121.884746 534.2 
L -110.282486 534.2 
L -110.282486 534.153103 
L -121.884746 534.153103 
z
" clip-path="url(#p560a09288a)" style="fill: #219ebc"/>
   </g>
   <g id="patch_178">
    <path d="M -135.534463 534.2 
L -123.932203 534.2 
L -123.932203 534.153103 
L -135.534463 534.153103 
z
" clip-path="url(#p560a09288a)" style="fill: #219ebc"/>
   </g>
   <g id="patch_179">
    <path d="M -149.184181 534.2 
L -137.581921 534.2 
L -137.581921 534.129654 
L -149.184181 534.129654 
z
" clip-path="url(#p560a09288a)" style="fill: #219ebc"/>
   </g>
   <g id="patch_180">
    <path d="M -162.833898 534.2 
L -151.231638 534.2 
L -151.231638 534.176551 
L -162.833898 534.176551 
z
" clip-path="url(#p560a09288a)" style="fill: #219ebc"/>
   </g>
   <g id="patch_181">
    <path d="M -176.483616 534.2 
L -164.881356 534.2 
L -164.881356 534.153103 
L -176.483616 534.153103 
z
" clip-path="url(#p560a09288a)" style="fill: #219ebc"/>
   </g>
   <g id="patch_182">
    <path d="M -190.133333 534.2 
L -178.531073 534.2 
L -178.531073 534.082756 
L -190.133333 534.082756 
z
" clip-path="url(#p560a09288a)" style="fill: #219ebc"/>
   </g>
   <g id="patch_183">
    <path d="M 601.550282 534.2 
L 613.152542 534.2 
L 613.152542 534.2 
L 601.550282 534.2 
z
" clip-path="url(#p560a09288a)" style="fill: #e63946; opacity: 0.7"/>
   </g>
   <g id="patch_184">
    <path d="M 587.900565 534.2 
L 599.502825 534.2 
L 599.502825 534.2 
L 587.900565 534.2 
z
" clip-path="url(#p560a09288a)" style="fill: #e63946; opacity: 0.7"/>
   </g>
   <g id="patch_185">
    <path d="M 574.250847 534.2 
L 585.853107 534.2 
L 585.853107 534.2 
L 574.250847 534.2 
z
" clip-path="url(#p560a09288a)" style="fill: #e63946; opacity: 0.7"/>
   </g>
   <g id="patch_186">
    <path d="M 560.60113 534.2 
L 572.20339 534.2 
L 572.20339 534.2 
L 560.60113 534.2 
z
" clip-path="url(#p560a09288a)" style="fill: #e63946; opacity: 0.7"/>
   </g>
   <g id="patch_187">
    <path d="M 546.951412 534.2 
L 558.553672 534.2 
L 558.553672 534.2 
L 546.951412 534.2 
z
" clip-path="url(#p560a09288a)" style="fill: #e63946; opacity: 0.7"/>
   </g>
   <g id="patch_188">
    <path d="M 533.301695 534.2 
L 544.903955 534.2 
L 544.903955 534.2 
L 533.301695 534.2 
z
" clip-path="url(#p560a09288a)" style="fill: #e63946; opacity: 0.7"/>
   </g>
   <g id="patch_189">
    <path d="M 519.651977 534.2 
L 531.254237 534.2 
L 531.254237 534.2 
L 519.651977 534.2 
z
" clip-path="url(#p560a09288a)" style="fill: #e63946; opacity: 0.7"/>
   </g>
   <g id="patch_190">
    <path d="M 506.00226 534.2 
L 517.60452 534.2 
L 517.60452 534.2 
L 506.00226 534.2 
z
" clip-path="url(#p560a09288a)" style="fill: #e63946; opacity: 0.7"/>
   </g>
   <g id="patch_191">
    <path d="M 492.352542 534.2 
L 503.954802 534.2 
L 503.954802 534.2 
L 492.352542 534.2 
z
" clip-path="url(#p560a09288a)" style="fill: #e63946; opacity: 0.7"/>
   </g>
   <g id="patch_192">
    <path d="M 478.702825 534.2 
L 490.305085 534.2 
L 490.305085 534.2 
L 478.702825 534.2 
z
" clip-path="url(#p560a09288a)" style="fill: #e63946; opacity: 0.7"/>
   </g>
   <g id="patch_193">
    <path d="M 465.053107 534.2 
L 476.655367 534.2 
L 476.655367 534.2 
L 465.053107 534.2 
z
" clip-path="url(#p560a09288a)" style="fill: #e63946; opacity: 0.7"/>
   </g>
   <g id="patch_194">
    <path d="M 451.40339 534.2 
L 463.00565 534.2 
L 463.00565 534.2 
L 451.40339 534.2 
z
" clip-path="url(#p560a09288a)" style="fill: #e63946; opacity: 0.7"/>
   </g>
   <g id="patch_195">
    <path d="M 437.753672 534.2 
L 449.355932 534.2 
L 449.355932 534.2 
L 437.753672 534.2 
z
" clip-path="url(#p560a09288a)" style="fill: #e63946; opacity: 0.7"/>
   </g>
   <g id="patch_196">
    <path d="M 424.103955 534.2 
L 435.706215 534.2 
L 435.706215 534.2 
L 424.103955 534.2 
z
" clip-path="url(#p560a09288a)" style="fill: #e63946; opacity: 0.7"/>
   </g>
   <g id="patch_197">
    <path d="M 410.454237 534.2 
L 422.056497 534.2 
L 422.056497 534.2 
L 410.454237 534.2 
z
" clip-path="url(#p560a09288a)" style="fill: #e63946; opacity: 0.7"/>
   </g>
   <g id="patch_198">
    <path d="M 396.80452 534.2 
L 408.40678 534.2 
L 408.40678 534.2 
L 396.80452 534.2 
z
" clip-path="url(#p560a09288a)" style="fill: #e63946; opacity: 0.7"/>
   </g>
   <g id="patch_199">
    <path d="M 383.154802 534.2 
L 394.757062 534.2 
L 394.757062 534.2 
L 383.154802 534.2 
z
" clip-path="url(#p560a09288a)" style="fill: #e63946; opacity: 0.7"/>
   </g>
   <g id="patch_200">
    <path d="M 369.505085 534.2 
L 381.107345 534.2 
L 381.107345 534.2 
L 369.505085 534.2 
z
" clip-path="url(#p560a09288a)" style="fill: #e63946; opacity: 0.7"/>
   </g>
   <g id="patch_201">
    <path d="M 355.855367 534.2 
L 367.457627 534.2 
L 367.457627 534.2 
L 355.855367 534.2 
z
" clip-path="url(#p560a09288a)" style="fill: #e63946; opacity: 0.7"/>
   </g>
   <g id="patch_202">
    <path d="M 342.20565 534.2 
L 353.80791 534.2 
L 353.80791 534.2 
L 342.20565 534.2 
z
" clip-path="url(#p560a09288a)" style="fill: #e63946; opacity: 0.7"/>
   </g>
   <g id="patch_203">
    <path d="M 328.555932 534.2 
L 340.158192 534.2 
L 340.158192 534.2 
L 328.555932 534.2 
z
" clip-path="url(#p560a09288a)" style="fill: #e63946; opacity: 0.7"/>
   </g>
   <g id="patch_204">
    <path d="M 314.906215 534.2 
L 326.508475 534.2 
L 326.508475 534.2 
L 314.906215 534.2 
z
" clip-path="url(#p560a09288a)" style="fill: #e63946; opacity: 0.7"/>
   </g>
   <g id="patch_205">
    <path d="M 301.256497 534.2 
L 312.858757 534.2 
L 312.858757 534.2 
L 301.256497 534.2 
z
" clip-path="url(#p560a09288a)" style="fill: #e63946; opacity: 0.7"/>
   </g>
   <g id="patch_206">
    <path d="M 287.60678 534.2 
L 299.20904 534.2 
L 299.20904 534.176536 
L 287.60678 534.176536 
z
" clip-path="url(#p560a09288a)" style="fill: #e63946; opacity: 0.7"/>
   </g>
   <g id="patch_207">
    <path d="M 273.957062 534.2 
L 285.559322 534.2 
L 285.559322 534.10619 
L 273.957062 534.10619 
z
" clip-path="url(#p560a09288a)" style="fill: #e63946; opacity: 0.7"/>
   </g>
   <g id="patch_208">
    <path d="M 260.307345 534.2 
L 271.909605 534.2 
L 271.909605 534.012365 
L 260.307345 534.012365 
z
" clip-path="url(#p560a09288a)" style="fill: #e63946; opacity: 0.7"/>
   </g>
   <g id="patch_209">
    <path d="M 246.657627 534.2 
L 258.259887 534.2 
L 258.259887 533.777743 
L 246.657627 533.777743 
z
" clip-path="url(#p560a09288a)" style="fill: #e63946; opacity: 0.7"/>
   </g>
   <g id="patch_210">
    <path d="M 233.00791 534.2 
L 244.610169 534.2 
L 244.610169 532.44085 
L 233.00791 532.44085 
z
" clip-path="url(#p560a09288a)" style="fill: #e63946; opacity: 0.7"/>
   </g>
   <g id="patch_211">
    <path d="M 219.358192 534.2 
L 230.960452 534.2 
L 230.960452 525.709473 
L 219.358192 525.709473 
z
" clip-path="url(#p560a09288a)" style="fill: #e63946; opacity: 0.7"/>
   </g>
   <g id="patch_212">
    <path d="M 205.708475 534.2 
L 217.310734 534.2 
L 217.310734 323.365192 
L 205.708475 323.365192 
z
" clip-path="url(#p560a09288a)" style="fill: #e63946; opacity: 0.7"/>
   </g>
   <g id="patch_213">
    <path d="M 192.058757 534.2 
L 203.661017 534.2 
L 203.661017 442.304715 
L 192.058757 442.304715 
z
" clip-path="url(#p560a09288a)" style="fill: #e63946; opacity: 0.7"/>
   </g>
   <g id="patch_214">
    <path d="M 178.40904 534.2 
L 190.011299 534.2 
L 190.011299 506.265478 
L 178.40904 506.265478 
z
" clip-path="url(#p560a09288a)" style="fill: #e63946; opacity: 0.7"/>
   </g>
   <g id="patch_215">
    <path d="M 164.759322 534.2 
L 176.361582 534.2 
L 176.361582 522.918008 
L 164.759322 522.918008 
z
" clip-path="url(#p560a09288a)" style="fill: #e63946; opacity: 0.7"/>
   </g>
   <g id="patch_216">
    <path d="M 151.109605 534.2 
L 162.711864 534.2 
L 162.711864 529.720197 
L 151.109605 529.720197 
z
" clip-path="url(#p560a09288a)" style="fill: #e63946; opacity: 0.7"/>
   </g>
   <g id="patch_217">
    <path d="M 137.459887 534.2 
L 149.062147 534.2 
L 149.062147 530.775615 
L 137.459887 530.775615 
z
" clip-path="url(#p560a09288a)" style="fill: #e63946; opacity: 0.7"/>
   </g>
   <g id="patch_218">
    <path d="M 123.810169 534.2 
L 135.412429 534.2 
L 135.412429 532.253245 
L 123.810169 532.253245 
z
" clip-path="url(#p560a09288a)" style="fill: #e63946; opacity: 0.7"/>
   </g>
   <g id="patch_219">
    <path d="M 110.160452 534.2 
L 121.762712 534.2 
L 121.762712 533.003784 
L 110.160452 533.003784 
z
" clip-path="url(#p560a09288a)" style="fill: #e63946; opacity: 0.7"/>
   </g>
   <g id="patch_220">
    <path d="M 96.510734 534.2 
L 108.112994 534.2 
L 108.112994 533.402563 
L 96.510734 533.402563 
z
" clip-path="url(#p560a09288a)" style="fill: #e63946; opacity: 0.7"/>
   </g>
   <g id="patch_221">
    <path d="M 82.861017 534.2 
L 94.463277 534.2 
L 94.463277 533.777803 
L 82.861017 533.777803 
z
" clip-path="url(#p560a09288a)" style="fill: #e63946; opacity: 0.7"/>
   </g>
   <g id="patch_222">
    <path d="M 69.211299 534.2 
L 80.813559 534.2 
L 80.813559 533.988946 
L 69.211299 533.988946 
z
" clip-path="url(#p560a09288a)" style="fill: #e63946; opacity: 0.7"/>
   </g>
   <g id="patch_223">
    <path d="M 55.561582 534.2 
L 67.163842 534.2 
L 67.163842 534.10619 
L 55.561582 534.10619 
z
" clip-path="url(#p560a09288a)" style="fill: #e63946; opacity: 0.7"/>
   </g>
   <g id="patch_224">
    <path d="M 41.911864 534.2 
L 53.514124 534.2 
L 53.514124 534.153088 
L 41.911864 534.153088 
z
" clip-path="url(#p560a09288a)" style="fill: #e63946; opacity: 0.7"/>
   </g>
   <g id="patch_225">
    <path d="M 28.262147 534.2 
L 39.864407 534.2 
L 39.864407 534.176536 
L 28.262147 534.176536 
z
" clip-path="url(#p560a09288a)" style="fill: #e63946; opacity: 0.7"/>
   </g>
   <g id="patch_226">
    <path d="M 14.612429 534.2 
L 26.214689 534.2 
L 26.214689 534.2 
L 14.612429 534.2 
z
" clip-path="url(#p560a09288a)" style="fill: #e63946; opacity: 0.7"/>
   </g>
   <g id="patch_227">
    <path d="M 0.962712 534.2 
L 12.564972 534.2 
L 12.564972 534.176536 
L 0.962712 534.176536 
z
" clip-path="url(#p560a09288a)" style="fill: #e63946; opacity: 0.7"/>
   </g>
   <g id="patch_228">
    <path d="M -12.687006 534.2 
L -1.084746 534.2 
L -1.084746 534.153088 
L -12.687006 534.153088 
z
" clip-path="url(#p560a09288a)" style="fill: #e63946; opacity: 0.7"/>
   </g>
   <g id="patch_229">
    <path d="M -26.336723 534.2 
L -14.734463 534.2 
L -14.734463 534.153103 
L -26.336723 534.153103 
z
" clip-path="url(#p560a09288a)" style="fill: #e63946; opacity: 0.7"/>
   </g>
   <g id="patch_230">
    <path d="M -39.986441 534.2 
L -28.384181 534.2 
L -28.384181 534.2 
L -39.986441 534.2 
z
" clip-path="url(#p560a09288a)" style="fill: #e63946; opacity: 0.7"/>
   </g>
   <g id="patch_231">
    <path d="M -53.636158 534.2 
L -42.033898 534.2 
L -42.033898 534.2 
L -53.636158 534.2 
z
" clip-path="url(#p560a09288a)" style="fill: #e63946; opacity: 0.7"/>
   </g>
   <g id="patch_232">
    <path d="M -67.285876 534.2 
L -55.683616 534.2 
L -55.683616 534.2 
L -67.285876 534.2 
z
" clip-path="url(#p560a09288a)" style="fill: #e63946; opacity: 0.7"/>
   </g>
   <g id="patch_233">
    <path d="M -80.935593 534.2 
L -69.333333 534.2 
L -69.333333 534.176551 
L -80.935593 534.176551 
z
" clip-path="url(#p560a09288a)" style="fill: #e63946; opacity: 0.7"/>
   </g>
   <g id="patch_234">
    <path d="M -94.585311 534.2 
L -82.983051 534.2 
L -82.983051 534.2 
L -94.585311 534.2 
z
" clip-path="url(#p560a09288a)" style="fill: #e63946; opacity: 0.7"/>
   </g>
   <g id="patch_235">
    <path d="M -108.235028 534.2 
L -96.632768 534.2 
L -96.632768 534.2 
L -108.235028 534.2 
z
" clip-path="url(#p560a09288a)" style="fill: #e63946; opacity: 0.7"/>
   </g>
   <g id="patch_236">
    <path d="M -121.884746 534.2 
L -110.282486 534.2 
L -110.282486 534.2 
L -121.884746 534.2 
z
" clip-path="url(#p560a09288a)" style="fill: #e63946; opacity: 0.7"/>
   </g>
   <g id="patch_237">
    <path d="M -135.534463 534.2 
L -123.932203 534.2 
L -123.932203 534.2 
L -135.534463 534.2 
z
" clip-path="url(#p560a09288a)" style="fill: #e63946; opacity: 0.7"/>
   </g>
   <g id="patch_238">
    <path d="M -149.184181 534.2 
L -137.581921 534.2 
L -137.581921 534.176551 
L -149.184181 534.176551 
z
" clip-path="url(#p560a09288a)" style="fill: #e63946; opacity: 0.7"/>
   </g>
   <g id="patch_239">
    <path d="M -162.833898 534.2 
L -151.231638 534.2 
L -151.231638 534.129654 
L -162.833898 534.129654 
z
" clip-path="url(#p560a09288a)" style="fill: #e63946; opacity: 0.7"/>
   </g>
   <g id="patch_240">
    <path d="M -176.483616 534.2 
L -164.881356 534.2 
L -164.881356 534.2 
L -176.483616 534.2 
z
" clip-path="url(#p560a09288a)" style="fill: #e63946; opacity: 0.7"/>
   </g>
   <g id="patch_241">
    <path d="M -190.133333 534.2 
L -178.531073 534.2 
L -178.531073 534.2 
L -190.133333 534.2 
z
" clip-path="url(#p560a09288a)" style="fill: #e63946; opacity: 0.7"/>
   </g>
   <g id="matplotlib.axis_3">
    <g id="xtick_5">
     <g id="line2d_8">
      <g>
       <use xlink:href="#mb09db0cc6b" x="11.2" y="534.2" style="stroke: #000000; stroke-width: 0.8"/>
      </g>
     </g>
    </g>
    <g id="xtick_6">
     <g id="line2d_9">
      <g>
       <use xlink:href="#mb09db0cc6b" x="111.866667" y="534.2" style="stroke: #000000; stroke-width: 0.8"/>
      </g>
     </g>
    </g>
    <g id="xtick_7">
     <g id="line2d_10">
      <g>
       <use xlink:href="#mb09db0cc6b" x="212.533333" y="534.2" style="stroke: #000000; stroke-width: 0.8"/>
      </g>
     </g>
    </g>
    <g id="xtick_8">
     <g id="line2d_11">
      <g>
       <use xlink:href="#mb09db0cc6b" x="313.2" y="534.2" style="stroke: #000000; stroke-width: 0.8"/>
      </g>
     </g>
    </g>
   </g>
   <g id="matplotlib.axis_4">
    <g id="ytick_4">
     <g id="line2d_12">
      <g>
       <use xlink:href="#m6dac8cdc77" x="11.2" y="534.2" style="stroke: #000000; stroke-width: 0.8"/>
      </g>
     </g>
    </g>
    <g id="ytick_5">
     <g id="line2d_13">
      <g>
       <use xlink:href="#m6dac8cdc77" x="11.2" y="410.2" style="stroke: #000000; stroke-width: 0.8"/>
      </g>
     </g>
    </g>
    <g id="ytick_6">
     <g id="line2d_14">
      <g>
       <use xlink:href="#m6dac8cdc77" x="11.2" y="286.2" style="stroke: #000000; stroke-width: 0.8"/>
      </g>
     </g>
    </g>
   </g>
   <g id="patch_242">
    <path d="M 11.2 534.2 
L 11.2 286.2 
" style="fill: none; stroke: #000000; stroke-width: 1.5; stroke-linejoin: miter; stroke-linecap: square"/>
   </g>
   <g id="patch_243">
    <path d="M 11.2 534.2 
L 313.2 534.2 
" style="fill: none; stroke: #000000; stroke-width: 1.5; stroke-linejoin: miter; stroke-linecap: square"/>
   </g>
  </g>
  <g id="axes_3">
   <g id="patch_244">
    <path d="M 11.2 813.2 
L 313.2 813.2 
L 313.2 565.2 
L 11.2 565.2 
z
" style="fill: #ffffff"/>
   </g>
   <g id="patch_245">
    <path d="M 601.550282 813.2 
L 613.152542 813.2 
L 613.152542 813.2 
L 601.550282 813.2 
z
" clip-path="url(#p710218703a)" style="fill: #219ebc"/>
   </g>
   <g id="patch_246">
    <path d="M 587.900565 813.2 
L 599.502825 813.2 
L 599.502825 813.176491 
L 587.900565 813.176491 
z
" clip-path="url(#p710218703a)" style="fill: #219ebc"/>
   </g>
   <g id="patch_247">
    <path d="M 574.250847 813.2 
L 585.853107 813.2 
L 585.853107 813.2 
L 574.250847 813.2 
z
" clip-path="url(#p710218703a)" style="fill: #219ebc"/>
   </g>
   <g id="patch_248">
    <path d="M 560.60113 813.2 
L 572.20339 813.2 
L 572.20339 813.2 
L 560.60113 813.2 
z
" clip-path="url(#p710218703a)" style="fill: #219ebc"/>
   </g>
   <g id="patch_249">
    <path d="M 546.951412 813.2 
L 558.553672 813.2 
L 558.553672 813.2 
L 546.951412 813.2 
z
" clip-path="url(#p710218703a)" style="fill: #219ebc"/>
   </g>
   <g id="patch_250">
    <path d="M 533.301695 813.2 
L 544.903955 813.2 
L 544.903955 813.176491 
L 533.301695 813.176491 
z
" clip-path="url(#p710218703a)" style="fill: #219ebc"/>
   </g>
   <g id="patch_251">
    <path d="M 519.651977 813.2 
L 531.254237 813.2 
L 531.254237 813.2 
L 519.651977 813.2 
z
" clip-path="url(#p710218703a)" style="fill: #219ebc"/>
   </g>
   <g id="patch_252">
    <path d="M 506.00226 813.2 
L 517.60452 813.2 
L 517.60452 813.129518 
L 506.00226 813.129518 
z
" clip-path="url(#p710218703a)" style="fill: #219ebc"/>
   </g>
   <g id="patch_253">
    <path d="M 492.352542 813.2 
L 503.954802 813.2 
L 503.954802 813.176506 
L 492.352542 813.176506 
z
" clip-path="url(#p710218703a)" style="fill: #219ebc"/>
   </g>
   <g id="patch_254">
    <path d="M 478.702825 813.2 
L 490.305085 813.2 
L 490.305085 813.153042 
L 478.702825 813.153042 
z
" clip-path="url(#p710218703a)" style="fill: #219ebc"/>
   </g>
   <g id="patch_255">
    <path d="M 465.053107 813.2 
L 476.655367 813.2 
L 476.655367 813.176506 
L 465.053107 813.176506 
z
" clip-path="url(#p710218703a)" style="fill: #219ebc"/>
   </g>
   <g id="patch_256">
    <path d="M 451.40339 813.2 
L 463.00565 813.2 
L 463.00565 813.153012 
L 451.40339 813.153012 
z
" clip-path="url(#p710218703a)" style="fill: #219ebc"/>
   </g>
   <g id="patch_257">
    <path d="M 437.753672 813.2 
L 449.355932 813.2 
L 449.355932 813.106024 
L 437.753672 813.106024 
z
" clip-path="url(#p710218703a)" style="fill: #219ebc"/>
   </g>
   <g id="patch_258">
    <path d="M 424.103955 813.2 
L 435.706215 813.2 
L 435.706215 813.106085 
L 424.103955 813.106085 
z
" clip-path="url(#p710218703a)" style="fill: #219ebc"/>
   </g>
   <g id="patch_259">
    <path d="M 410.454237 813.2 
L 422.056497 813.2 
L 422.056497 813.082561 
L 410.454237 813.082561 
z
" clip-path="url(#p710218703a)" style="fill: #219ebc"/>
   </g>
   <g id="patch_260">
    <path d="M 396.80452 813.2 
L 408.40678 813.2 
L 408.40678 812.98863 
L 396.80452 812.98863 
z
" clip-path="url(#p710218703a)" style="fill: #219ebc"/>
   </g>
   <g id="patch_261">
    <path d="M 383.154802 813.2 
L 394.757062 813.2 
L 394.757062 812.941642 
L 383.154802 812.941642 
z
" clip-path="url(#p710218703a)" style="fill: #219ebc"/>
   </g>
   <g id="patch_262">
    <path d="M 369.505085 813.2 
L 381.107345 813.2 
L 381.107345 812.683194 
L 369.505085 812.683194 
z
" clip-path="url(#p710218703a)" style="fill: #219ebc"/>
   </g>
   <g id="patch_263">
    <path d="M 355.855367 813.2 
L 367.457627 813.2 
L 367.457627 812.706749 
L 355.855367 812.706749 
z
" clip-path="url(#p710218703a)" style="fill: #219ebc"/>
   </g>
   <g id="patch_264">
    <path d="M 342.20565 813.2 
L 353.80791 813.2 
L 353.80791 812.871146 
L 342.20565 812.871146 
z
" clip-path="url(#p710218703a)" style="fill: #219ebc"/>
   </g>
   <g id="patch_265">
    <path d="M 328.555932 813.2 
L 340.158192 813.2 
L 340.158192 812.636282 
L 328.555932 812.636282 
z
" clip-path="url(#p710218703a)" style="fill: #219ebc"/>
   </g>
   <g id="patch_266">
    <path d="M 314.906215 813.2 
L 326.508475 813.2 
L 326.508475 812.753646 
L 314.906215 812.753646 
z
" clip-path="url(#p710218703a)" style="fill: #219ebc"/>
   </g>
   <g id="patch_267">
    <path d="M 301.256497 813.2 
L 312.858757 813.2 
L 312.858757 812.448482 
L 301.256497 812.448482 
z
" clip-path="url(#p710218703a)" style="fill: #219ebc"/>
   </g>
   <g id="patch_268">
    <path d="M 287.60678 813.2 
L 299.20904 813.2 
L 299.20904 812.401403 
L 287.60678 812.401403 
z
" clip-path="url(#p710218703a)" style="fill: #219ebc"/>
   </g>
   <g id="patch_269">
    <path d="M 273.957062 813.2 
L 285.559322 813.2 
L 285.559322 811.62633 
L 273.957062 811.62633 
z
" clip-path="url(#p710218703a)" style="fill: #219ebc"/>
   </g>
   <g id="patch_270">
    <path d="M 260.307345 813.2 
L 271.909605 813.2 
L 271.909605 811.438259 
L 260.307345 811.438259 
z
" clip-path="url(#p710218703a)" style="fill: #219ebc"/>
   </g>
   <g id="patch_271">
    <path d="M 246.657627 813.2 
L 258.259887 813.2 
L 258.259887 810.545701 
L 246.657627 810.545701 
z
" clip-path="url(#p710218703a)" style="fill: #219ebc"/>
   </g>
   <g id="patch_272">
    <path d="M 233.00791 813.2 
L 244.610169 813.2 
L 244.610169 808.924773 
L 233.00791 808.924773 
z
" clip-path="url(#p710218703a)" style="fill: #219ebc"/>
   </g>
   <g id="patch_273">
    <path d="M 219.358192 813.2 
L 230.960452 813.2 
L 230.960452 792.38939 
L 219.358192 792.38939 
z
" clip-path="url(#p710218703a)" style="fill: #219ebc"/>
   </g>
   <g id="patch_274">
    <path d="M 205.708475 813.2 
L 217.310734 813.2 
L 217.310734 662.361069 
L 205.708475 662.361069 
z
" clip-path="url(#p710218703a)" style="fill: #219ebc"/>
   </g>
   <g id="patch_275">
    <path d="M 192.058757 813.2 
L 203.661017 813.2 
L 203.661017 741.938354 
L 192.058757 741.938354 
z
" clip-path="url(#p710218703a)" style="fill: #219ebc"/>
   </g>
   <g id="patch_276">
    <path d="M 178.40904 813.2 
L 190.011299 813.2 
L 190.011299 779.800608 
L 178.40904 779.800608 
z
" clip-path="url(#p710218703a)" style="fill: #219ebc"/>
   </g>
   <g id="patch_277">
    <path d="M 164.759322 813.2 
L 176.361582 813.2 
L 176.361582 794.010651 
L 164.759322 794.010651 
z
" clip-path="url(#p710218703a)" style="fill: #219ebc"/>
   </g>
   <g id="patch_278">
    <path d="M 151.109605 813.2 
L 162.711864 813.2 
L 162.711864 801.197751 
L 151.109605 801.197751 
z
" clip-path="url(#p710218703a)" style="fill: #219ebc"/>
   </g>
   <g id="patch_279">
    <path d="M 137.459887 813.2 
L 149.062147 813.2 
L 149.062147 804.368659 
L 137.459887 804.368659 
z
" clip-path="url(#p710218703a)" style="fill: #219ebc"/>
   </g>
   <g id="patch_280">
    <path d="M 123.810169 813.2 
L 135.412429 813.2 
L 135.412429 806.764464 
L 123.810169 806.764464 
z
" clip-path="url(#p710218703a)" style="fill: #219ebc"/>
   </g>
   <g id="patch_281">
    <path d="M 110.160452 813.2 
L 121.762712 813.2 
L 121.762712 808.690557 
L 110.160452 808.690557 
z
" clip-path="url(#p710218703a)" style="fill: #219ebc"/>
   </g>
   <g id="patch_282">
    <path d="M 96.510734 813.2 
L 108.112994 813.2 
L 108.112994 809.3481 
L 96.510734 809.3481 
z
" clip-path="url(#p710218703a)" style="fill: #219ebc"/>
   </g>
   <g id="patch_283">
    <path d="M 82.861017 813.2 
L 94.463277 813.2 
L 94.463277 809.864619 
L 82.861017 809.864619 
z
" clip-path="url(#p710218703a)" style="fill: #219ebc"/>
   </g>
   <g id="patch_284">
    <path d="M 69.211299 813.2 
L 80.813559 813.2 
L 80.813559 810.123022 
L 69.211299 810.123022 
z
" clip-path="url(#p710218703a)" style="fill: #219ebc"/>
   </g>
   <g id="patch_285">
    <path d="M 55.561582 813.2 
L 67.163842 813.2 
L 67.163842 810.545988 
L 55.561582 810.545988 
z
" clip-path="url(#p710218703a)" style="fill: #219ebc"/>
   </g>
   <g id="patch_286">
    <path d="M 41.911864 813.2 
L 53.514124 813.2 
L 53.514124 810.757086 
L 41.911864 810.757086 
z
" clip-path="url(#p710218703a)" style="fill: #219ebc"/>
   </g>
   <g id="patch_287">
    <path d="M 28.262147 813.2 
L 39.864407 813.2 
L 39.864407 811.250398 
L 28.262147 811.250398 
z
" clip-path="url(#p710218703a)" style="fill: #219ebc"/>
   </g>
   <g id="patch_288">
    <path d="M 14.612429 813.2 
L 26.214689 813.2 
L 26.214689 811.861164 
L 14.612429 811.861164 
z
" clip-path="url(#p710218703a)" style="fill: #219ebc"/>
   </g>
   <g id="patch_289">
    <path d="M 0.962712 813.2 
L 12.564972 813.2 
L 12.564972 812.377894 
L 0.962712 812.377894 
z
" clip-path="url(#p710218703a)" style="fill: #219ebc"/>
   </g>
   <g id="patch_290">
    <path d="M -12.687006 813.2 
L -1.084746 813.2 
L -1.084746 812.471764 
L -12.687006 812.471764 
z
" clip-path="url(#p710218703a)" style="fill: #219ebc"/>
   </g>
   <g id="patch_291">
    <path d="M -26.336723 813.2 
L -14.734463 813.2 
L -14.734463 812.589354 
L -26.336723 812.589354 
z
" clip-path="url(#p710218703a)" style="fill: #219ebc"/>
   </g>
   <g id="patch_292">
    <path d="M -39.986441 813.2 
L -28.384181 813.2 
L -28.384181 812.706794 
L -39.986441 812.706794 
z
" clip-path="url(#p710218703a)" style="fill: #219ebc"/>
   </g>
   <g id="patch_293">
    <path d="M -53.636158 813.2 
L -42.033898 813.2 
L -42.033898 812.495318 
L -53.636158 812.495318 
z
" clip-path="url(#p710218703a)" style="fill: #219ebc"/>
   </g>
   <g id="patch_294">
    <path d="M -67.285876 813.2 
L -55.683616 813.2 
L -55.683616 812.918179 
L -67.285876 812.918179 
z
" clip-path="url(#p710218703a)" style="fill: #219ebc"/>
   </g>
   <g id="patch_295">
    <path d="M -80.935593 813.2 
L -69.333333 813.2 
L -69.333333 812.871085 
L -80.935593 812.871085 
z
" clip-path="url(#p710218703a)" style="fill: #219ebc"/>
   </g>
   <g id="patch_296">
    <path d="M -94.585311 813.2 
L -82.983051 813.2 
L -82.983051 812.98857 
L -94.585311 812.98857 
z
" clip-path="url(#p710218703a)" style="fill: #219ebc"/>
   </g>
   <g id="patch_297">
    <path d="M -108.235028 813.2 
L -96.632768 813.2 
L -96.632768 812.98857 
L -108.235028 812.98857 
z
" clip-path="url(#p710218703a)" style="fill: #219ebc"/>
   </g>
   <g id="patch_298">
    <path d="M -121.884746 813.2 
L -110.282486 813.2 
L -110.282486 813.082561 
L -121.884746 813.082561 
z
" clip-path="url(#p710218703a)" style="fill: #219ebc"/>
   </g>
   <g id="patch_299">
    <path d="M -135.534463 813.2 
L -123.932203 813.2 
L -123.932203 813.176491 
L -135.534463 813.176491 
z
" clip-path="url(#p710218703a)" style="fill: #219ebc"/>
   </g>
   <g id="patch_300">
    <path d="M -149.184181 813.2 
L -137.581921 813.2 
L -137.581921 813.176491 
L -149.184181 813.176491 
z
" clip-path="url(#p710218703a)" style="fill: #219ebc"/>
   </g>
   <g id="patch_301">
    <path d="M -162.833898 813.2 
L -151.231638 813.2 
L -151.231638 813.176536 
L -162.833898 813.176536 
z
" clip-path="url(#p710218703a)" style="fill: #219ebc"/>
   </g>
   <g id="patch_302">
    <path d="M -176.483616 813.2 
L -164.881356 813.2 
L -164.881356 813.152997 
L -176.483616 813.152997 
z
" clip-path="url(#p710218703a)" style="fill: #219ebc"/>
   </g>
   <g id="patch_303">
    <path d="M -190.133333 813.2 
L -178.531073 813.2 
L -178.531073 813.153042 
L -190.133333 813.153042 
z
" clip-path="url(#p710218703a)" style="fill: #219ebc"/>
   </g>
   <g id="patch_304">
    <path d="M 601.550282 813.2 
L 613.152542 813.2 
L 613.152542 813.2 
L 601.550282 813.2 
z
" clip-path="url(#p710218703a)" style="fill: #e63946; opacity: 0.7"/>
   </g>
   <g id="patch_305">
    <path d="M 587.900565 813.2 
L 599.502825 813.2 
L 599.502825 813.2 
L 587.900565 813.2 
z
" clip-path="url(#p710218703a)" style="fill: #e63946; opacity: 0.7"/>
   </g>
   <g id="patch_306">
    <path d="M 574.250847 813.2 
L 585.853107 813.2 
L 585.853107 813.2 
L 574.250847 813.2 
z
" clip-path="url(#p710218703a)" style="fill: #e63946; opacity: 0.7"/>
   </g>
   <g id="patch_307">
    <path d="M 560.60113 813.2 
L 572.20339 813.2 
L 572.20339 813.2 
L 560.60113 813.2 
z
" clip-path="url(#p710218703a)" style="fill: #e63946; opacity: 0.7"/>
   </g>
   <g id="patch_308">
    <path d="M 546.951412 813.2 
L 558.553672 813.2 
L 558.553672 813.2 
L 546.951412 813.2 
z
" clip-path="url(#p710218703a)" style="fill: #e63946; opacity: 0.7"/>
   </g>
   <g id="patch_309">
    <path d="M 533.301695 813.2 
L 544.903955 813.2 
L 544.903955 813.2 
L 533.301695 813.2 
z
" clip-path="url(#p710218703a)" style="fill: #e63946; opacity: 0.7"/>
   </g>
   <g id="patch_310">
    <path d="M 519.651977 813.2 
L 531.254237 813.2 
L 531.254237 813.2 
L 519.651977 813.2 
z
" clip-path="url(#p710218703a)" style="fill: #e63946; opacity: 0.7"/>
   </g>
   <g id="patch_311">
    <path d="M 506.00226 813.2 
L 517.60452 813.2 
L 517.60452 813.2 
L 506.00226 813.2 
z
" clip-path="url(#p710218703a)" style="fill: #e63946; opacity: 0.7"/>
   </g>
   <g id="patch_312">
    <path d="M 492.352542 813.2 
L 503.954802 813.2 
L 503.954802 813.2 
L 492.352542 813.2 
z
" clip-path="url(#p710218703a)" style="fill: #e63946; opacity: 0.7"/>
   </g>
   <g id="patch_313">
    <path d="M 478.702825 813.2 
L 490.305085 813.2 
L 490.305085 813.176536 
L 478.702825 813.176536 
z
" clip-path="url(#p710218703a)" style="fill: #e63946; opacity: 0.7"/>
   </g>
   <g id="patch_314">
    <path d="M 465.053107 813.2 
L 476.655367 813.2 
L 476.655367 813.176536 
L 465.053107 813.176536 
z
" clip-path="url(#p710218703a)" style="fill: #e63946; opacity: 0.7"/>
   </g>
   <g id="patch_315">
    <path d="M 451.40339 813.2 
L 463.00565 813.2 
L 463.00565 813.2 
L 451.40339 813.2 
z
" clip-path="url(#p710218703a)" style="fill: #e63946; opacity: 0.7"/>
   </g>
   <g id="patch_316">
    <path d="M 437.753672 813.2 
L 449.355932 813.2 
L 449.355932 813.2 
L 437.753672 813.2 
z
" clip-path="url(#p710218703a)" style="fill: #e63946; opacity: 0.7"/>
   </g>
   <g id="patch_317">
    <path d="M 424.103955 813.2 
L 435.706215 813.2 
L 435.706215 813.153072 
L 424.103955 813.153072 
z
" clip-path="url(#p710218703a)" style="fill: #e63946; opacity: 0.7"/>
   </g>
   <g id="patch_318">
    <path d="M 410.454237 813.2 
L 422.056497 813.2 
L 422.056497 813.2 
L 410.454237 813.2 
z
" clip-path="url(#p710218703a)" style="fill: #e63946; opacity: 0.7"/>
   </g>
   <g id="patch_319">
    <path d="M 396.80452 813.2 
L 408.40678 813.2 
L 408.40678 813.176536 
L 396.80452 813.176536 
z
" clip-path="url(#p710218703a)" style="fill: #e63946; opacity: 0.7"/>
   </g>
   <g id="patch_320">
    <path d="M 383.154802 813.2 
L 394.757062 813.2 
L 394.757062 813.153072 
L 383.154802 813.153072 
z
" clip-path="url(#p710218703a)" style="fill: #e63946; opacity: 0.7"/>
   </g>
   <g id="patch_321">
    <path d="M 369.505085 813.2 
L 381.107345 813.2 
L 381.107345 813.153088 
L 369.505085 813.153088 
z
" clip-path="url(#p710218703a)" style="fill: #e63946; opacity: 0.7"/>
   </g>
   <g id="patch_322">
    <path d="M 355.855367 813.2 
L 367.457627 813.2 
L 367.457627 813.129609 
L 355.855367 813.129609 
z
" clip-path="url(#p710218703a)" style="fill: #e63946; opacity: 0.7"/>
   </g>
   <g id="patch_323">
    <path d="M 342.20565 813.2 
L 353.80791 813.2 
L 353.80791 813.129624 
L 342.20565 813.129624 
z
" clip-path="url(#p710218703a)" style="fill: #e63946; opacity: 0.7"/>
   </g>
   <g id="patch_324">
    <path d="M 328.555932 813.2 
L 340.158192 813.2 
L 340.158192 813.035769 
L 328.555932 813.035769 
z
" clip-path="url(#p710218703a)" style="fill: #e63946; opacity: 0.7"/>
   </g>
   <g id="patch_325">
    <path d="M 314.906215 813.2 
L 326.508475 813.2 
L 326.508475 812.918465 
L 314.906215 812.918465 
z
" clip-path="url(#p710218703a)" style="fill: #e63946; opacity: 0.7"/>
   </g>
   <g id="patch_326">
    <path d="M 301.256497 813.2 
L 312.858757 813.2 
L 312.858757 812.871552 
L 301.256497 812.871552 
z
" clip-path="url(#p710218703a)" style="fill: #e63946; opacity: 0.7"/>
   </g>
   <g id="patch_327">
    <path d="M 287.60678 813.2 
L 299.20904 813.2 
L 299.20904 812.566539 
L 287.60678 812.566539 
z
" clip-path="url(#p710218703a)" style="fill: #e63946; opacity: 0.7"/>
   </g>
   <g id="patch_328">
    <path d="M 273.957062 813.2 
L 285.559322 813.2 
L 285.559322 812.519596 
L 273.957062 812.519596 
z
" clip-path="url(#p710218703a)" style="fill: #e63946; opacity: 0.7"/>
   </g>
   <g id="patch_329">
    <path d="M 260.307345 813.2 
L 271.909605 813.2 
L 271.909605 811.862716 
L 260.307345 811.862716 
z
" clip-path="url(#p710218703a)" style="fill: #e63946; opacity: 0.7"/>
   </g>
   <g id="patch_330">
    <path d="M 246.657627 813.2 
L 258.259887 813.2 
L 258.259887 809.774757 
L 246.657627 809.774757 
z
" clip-path="url(#p710218703a)" style="fill: #e63946; opacity: 0.7"/>
   </g>
   <g id="patch_331">
    <path d="M 233.00791 813.2 
L 244.610169 813.2 
L 244.610169 806.607556 
L 233.00791 806.607556 
z
" clip-path="url(#p710218703a)" style="fill: #e63946; opacity: 0.7"/>
   </g>
   <g id="patch_332">
    <path d="M 219.358192 813.2 
L 230.960452 813.2 
L 230.960452 790.395798 
L 219.358192 790.395798 
z
" clip-path="url(#p710218703a)" style="fill: #e63946; opacity: 0.7"/>
   </g>
   <g id="patch_333">
    <path d="M 205.708475 813.2 
L 217.310734 813.2 
L 217.310734 583.730861 
L 205.708475 583.730861 
z
" clip-path="url(#p710218703a)" style="fill: #e63946; opacity: 0.7"/>
   </g>
   <g id="patch_334">
    <path d="M 192.058757 813.2 
L 203.661017 813.2 
L 203.661017 753.844286 
L 192.058757 753.844286 
z
" clip-path="url(#p710218703a)" style="fill: #e63946; opacity: 0.7"/>
   </g>
   <g id="patch_335">
    <path d="M 178.40904 813.2 
L 190.011299 813.2 
L 190.011299 794.454938 
L 178.40904 794.454938 
z
" clip-path="url(#p710218703a)" style="fill: #e63946; opacity: 0.7"/>
   </g>
   <g id="patch_336">
    <path d="M 164.759322 813.2 
L 176.361582 813.2 
L 176.361582 804.660305 
L 164.759322 804.660305 
z
" clip-path="url(#p710218703a)" style="fill: #e63946; opacity: 0.7"/>
   </g>
   <g id="patch_337">
    <path d="M 151.109605 813.2 
L 162.711864 813.2 
L 162.711864 808.883195 
L 151.109605 808.883195 
z
" clip-path="url(#p710218703a)" style="fill: #e63946; opacity: 0.7"/>
   </g>
   <g id="patch_338">
    <path d="M 137.459887 813.2 
L 149.062147 813.2 
L 149.062147 810.877298 
L 137.459887 810.877298 
z
" clip-path="url(#p710218703a)" style="fill: #e63946; opacity: 0.7"/>
   </g>
   <g id="patch_339">
    <path d="M 123.810169 813.2 
L 135.412429 813.2 
L 135.412429 811.135445 
L 123.810169 811.135445 
z
" clip-path="url(#p710218703a)" style="fill: #e63946; opacity: 0.7"/>
   </g>
   <g id="patch_340">
    <path d="M 110.160452 813.2 
L 121.762712 813.2 
L 121.762712 811.722009 
L 110.160452 811.722009 
z
" clip-path="url(#p710218703a)" style="fill: #e63946; opacity: 0.7"/>
   </g>
   <g id="patch_341">
    <path d="M 96.510734 813.2 
L 108.112994 813.2 
L 108.112994 812.378829 
L 96.510734 812.378829 
z
" clip-path="url(#p710218703a)" style="fill: #e63946; opacity: 0.7"/>
   </g>
   <g id="patch_342">
    <path d="M 82.861017 813.2 
L 94.463277 813.2 
L 94.463277 812.683918 
L 82.861017 812.683918 
z
" clip-path="url(#p710218703a)" style="fill: #e63946; opacity: 0.7"/>
   </g>
   <g id="patch_343">
    <path d="M 69.211299 813.2 
L 80.813559 813.2 
L 80.813559 812.848074 
L 69.211299 812.848074 
z
" clip-path="url(#p710218703a)" style="fill: #e63946; opacity: 0.7"/>
   </g>
   <g id="patch_344">
    <path d="M 55.561582 813.2 
L 67.163842 813.2 
L 67.163842 812.824595 
L 55.561582 812.824595 
z
" clip-path="url(#p710218703a)" style="fill: #e63946; opacity: 0.7"/>
   </g>
   <g id="patch_345">
    <path d="M 41.911864 813.2 
L 53.514124 813.2 
L 53.514124 812.777728 
L 41.911864 812.777728 
z
" clip-path="url(#p710218703a)" style="fill: #e63946; opacity: 0.7"/>
   </g>
   <g id="patch_346">
    <path d="M 28.262147 813.2 
L 39.864407 813.2 
L 39.864407 813.153072 
L 28.262147 813.153072 
z
" clip-path="url(#p710218703a)" style="fill: #e63946; opacity: 0.7"/>
   </g>
   <g id="patch_347">
    <path d="M 14.612429 813.2 
L 26.214689 813.2 
L 26.214689 813.106145 
L 14.612429 813.106145 
z
" clip-path="url(#p710218703a)" style="fill: #e63946; opacity: 0.7"/>
   </g>
   <g id="patch_348">
    <path d="M 0.962712 813.2 
L 12.564972 813.2 
L 12.564972 813.153072 
L 0.962712 813.153072 
z
" clip-path="url(#p710218703a)" style="fill: #e63946; opacity: 0.7"/>
   </g>
   <g id="patch_349">
    <path d="M -12.687006 813.2 
L -1.084746 813.2 
L -1.084746 813.176536 
L -12.687006 813.176536 
z
" clip-path="url(#p710218703a)" style="fill: #e63946; opacity: 0.7"/>
   </g>
   <g id="patch_350">
    <path d="M -26.336723 813.2 
L -14.734463 813.2 
L -14.734463 813.176536 
L -26.336723 813.176536 
z
" clip-path="url(#p710218703a)" style="fill: #e63946; opacity: 0.7"/>
   </g>
   <g id="patch_351">
    <path d="M -39.986441 813.2 
L -28.384181 813.2 
L -28.384181 813.153072 
L -39.986441 813.153072 
z
" clip-path="url(#p710218703a)" style="fill: #e63946; opacity: 0.7"/>
   </g>
   <g id="patch_352">
    <path d="M -53.636158 813.2 
L -42.033898 813.2 
L -42.033898 813.176536 
L -53.636158 813.176536 
z
" clip-path="url(#p710218703a)" style="fill: #e63946; opacity: 0.7"/>
   </g>
   <g id="patch_353">
    <path d="M -67.285876 813.2 
L -55.683616 813.2 
L -55.683616 813.2 
L -67.285876 813.2 
z
" clip-path="url(#p710218703a)" style="fill: #e63946; opacity: 0.7"/>
   </g>
   <g id="patch_354">
    <path d="M -80.935593 813.2 
L -69.333333 813.2 
L -69.333333 813.153103 
L -80.935593 813.153103 
z
" clip-path="url(#p710218703a)" style="fill: #e63946; opacity: 0.7"/>
   </g>
   <g id="patch_355">
    <path d="M -94.585311 813.2 
L -82.983051 813.2 
L -82.983051 813.176536 
L -94.585311 813.176536 
z
" clip-path="url(#p710218703a)" style="fill: #e63946; opacity: 0.7"/>
   </g>
   <g id="patch_356">
    <path d="M -108.235028 813.2 
L -96.632768 813.2 
L -96.632768 813.176551 
L -108.235028 813.176551 
z
" clip-path="url(#p710218703a)" style="fill: #e63946; opacity: 0.7"/>
   </g>
   <g id="patch_357">
    <path d="M -121.884746 813.2 
L -110.282486 813.2 
L -110.282486 813.2 
L -121.884746 813.2 
z
" clip-path="url(#p710218703a)" style="fill: #e63946; opacity: 0.7"/>
   </g>
   <g id="patch_358">
    <path d="M -135.534463 813.2 
L -123.932203 813.2 
L -123.932203 813.176536 
L -135.534463 813.176536 
z
" clip-path="url(#p710218703a)" style="fill: #e63946; opacity: 0.7"/>
   </g>
   <g id="patch_359">
    <path d="M -149.184181 813.2 
L -137.581921 813.2 
L -137.581921 813.2 
L -149.184181 813.2 
z
" clip-path="url(#p710218703a)" style="fill: #e63946; opacity: 0.7"/>
   </g>
   <g id="patch_360">
    <path d="M -162.833898 813.2 
L -151.231638 813.2 
L -151.231638 813.2 
L -162.833898 813.2 
z
" clip-path="url(#p710218703a)" style="fill: #e63946; opacity: 0.7"/>
   </g>
   <g id="patch_361">
    <path d="M -176.483616 813.2 
L -164.881356 813.2 
L -164.881356 813.2 
L -176.483616 813.2 
z
" clip-path="url(#p710218703a)" style="fill: #e63946; opacity: 0.7"/>
   </g>
   <g id="patch_362">
    <path d="M -190.133333 813.2 
L -178.531073 813.2 
L -178.531073 813.2 
L -190.133333 813.2 
z
" clip-path="url(#p710218703a)" style="fill: #e63946; opacity: 0.7"/>
   </g>
   <g id="matplotlib.axis_5">
    <g id="xtick_9">
     <g id="line2d_15">
      <g>
       <use xlink:href="#mb09db0cc6b" x="11.2" y="813.2" style="stroke: #000000; stroke-width: 0.8"/>
      </g>
     </g>
    </g>
    <g id="xtick_10">
     <g id="line2d_16">
      <g>
       <use xlink:href="#mb09db0cc6b" x="111.866667" y="813.2" style="stroke: #000000; stroke-width: 0.8"/>
      </g>
     </g>
    </g>
    <g id="xtick_11">
     <g id="line2d_17">
      <g>
       <use xlink:href="#mb09db0cc6b" x="212.533333" y="813.2" style="stroke: #000000; stroke-width: 0.8"/>
      </g>
     </g>
    </g>
    <g id="xtick_12">
     <g id="line2d_18">
      <g>
       <use xlink:href="#mb09db0cc6b" x="313.2" y="813.2" style="stroke: #000000; stroke-width: 0.8"/>
      </g>
     </g>
    </g>
   </g>
   <g id="matplotlib.axis_6">
    <g id="ytick_7">
     <g id="line2d_19">
      <g>
       <use xlink:href="#m6dac8cdc77" x="11.2" y="813.2" style="stroke: #000000; stroke-width: 0.8"/>
      </g>
     </g>
    </g>
    <g id="ytick_8">
     <g id="line2d_20">
      <g>
       <use xlink:href="#m6dac8cdc77" x="11.2" y="689.2" style="stroke: #000000; stroke-width: 0.8"/>
      </g>
     </g>
    </g>
    <g id="ytick_9">
     <g id="line2d_21">
      <g>
       <use xlink:href="#m6dac8cdc77" x="11.2" y="565.2" style="stroke: #000000; stroke-width: 0.8"/>
      </g>
     </g>
    </g>
   </g>
   <g id="patch_363">
    <path d="M 11.2 813.2 
L 11.2 565.2 
" style="fill: none; stroke: #000000; stroke-width: 1.5; stroke-linejoin: miter; stroke-linecap: square"/>
   </g>
   <g id="patch_364">
    <path d="M 11.2 813.2 
L 313.2 813.2 
" style="fill: none; stroke: #000000; stroke-width: 1.5; stroke-linejoin: miter; stroke-linecap: square"/>
   </g>
   <g id="legend_1">
    <g id="patch_365">
     <path d="M 25.6 590.8 
L 57.6 590.8 
L 57.6 579.6 
L 25.6 579.6 
z
" style="fill: #219ebc"/>
    </g>
    <g id="text_1">
     <!-- $N_r=40$ -->
     <g transform="translate(70.4 590.8) scale(0.16 -0.16)">
      <defs>
       <path id="STIXGeneral-Italic-4e" d="M 4653 4179 
L 4653 4077 
Q 4480 4038 4413 4016 
Q 4346 3994 4266 3882 
Q 4186 3770 4144 3635 
Q 4102 3501 4000 3149 
L 3066 -96 
L 2950 -96 
L 1478 3424 
L 749 723 
Q 691 525 691 378 
Q 691 243 790 182 
Q 890 122 1139 102 
L 1139 0 
L -128 0 
L -128 102 
Q 147 141 262 304 
Q 378 467 550 1075 
L 1299 3731 
Q 1152 4077 749 4077 
L 749 4179 
L 1773 4179 
L 3098 986 
L 3776 3469 
Q 3827 3648 3827 3750 
Q 3827 3923 3740 3987 
Q 3654 4051 3386 4077 
L 3386 4179 
L 4653 4179 
z
" transform="scale(0.015625)"/>
       <path id="STIXGeneral-Italic-72" d="M 1126 1427 
L 1229 1651 
Q 1446 2131 1830 2534 
Q 2106 2822 2336 2822 
Q 2470 2822 2553 2732 
Q 2637 2643 2637 2496 
Q 2637 2349 2557 2249 
Q 2477 2150 2336 2150 
Q 2214 2150 2112 2317 
Q 2061 2406 2010 2406 
Q 1837 2406 1485 1805 
Q 1267 1434 1136 1104 
Q 1005 774 774 0 
L 288 0 
L 806 1869 
Q 909 2246 909 2394 
Q 909 2560 666 2560 
Q 614 2560 467 2541 
L 467 2650 
L 1459 2822 
L 1478 2810 
L 1126 1427 
z
" transform="scale(0.015625)"/>
       <path id="STIXGeneral-Regular-3d" d="M 4077 2048 
L 307 2048 
L 307 2470 
L 4077 2470 
L 4077 2048 
z
M 4077 768 
L 307 768 
L 307 1190 
L 4077 1190 
L 4077 768 
z
" transform="scale(0.015625)"/>
       <path id="STIXGeneral-Regular-34" d="M 3027 1069 
L 2368 1069 
L 2368 0 
L 1869 0 
L 1869 1069 
L 77 1069 
L 77 1478 
L 2086 4326 
L 2368 4326 
L 2368 1478 
L 3027 1478 
L 3027 1069 
z
M 1869 1478 
L 1869 3674 
L 333 1478 
L 1869 1478 
z
" transform="scale(0.015625)"/>
       <path id="STIXGeneral-Regular-30" d="M 3046 2112 
Q 3046 1683 2963 1302 
Q 2880 922 2717 602 
Q 2554 282 2266 96 
Q 1978 -90 1600 -90 
Q 1210 -90 915 108 
Q 621 307 461 640 
Q 301 973 227 1350 
Q 154 1728 154 2150 
Q 154 2746 301 3222 
Q 448 3699 790 4012 
Q 1133 4326 1626 4326 
Q 2253 4326 2649 3712 
Q 3046 3098 3046 2112 
z
M 2432 2080 
Q 2432 3091 2217 3625 
Q 2003 4160 1587 4160 
Q 1190 4160 979 3622 
Q 768 3085 768 2106 
Q 768 1120 979 598 
Q 1190 77 1600 77 
Q 2003 77 2217 598 
Q 2432 1120 2432 2080 
z
" transform="scale(0.015625)"/>
      </defs>
      <use xlink:href="#STIXGeneral-Italic-4e" transform="translate(0 0.40625)"/>
      <use xlink:href="#STIXGeneral-Italic-72" transform="translate(66.699997 -12.821875) scale(0.7)"/>
      <use xlink:href="#STIXGeneral-Regular-3d" transform="translate(112.779364 0.40625)"/>
      <use xlink:href="#STIXGeneral-Regular-34" transform="translate(195.719345 0.40625)"/>
      <use xlink:href="#STIXGeneral-Regular-30" transform="translate(245.71933 0.40625)"/>
     </g>
    </g>
    <g id="patch_366">
     <path d="M 25.6 613.2 
L 57.6 613.2 
L 57.6 602 
L 25.6 602 
z
" style="fill: #e63946; opacity: 0.7"/>
    </g>
    <g id="text_2">
     <!-- $N_r=200$ -->
     <g transform="translate(70.4 613.2) scale(0.16 -0.16)">
      <defs>
       <path id="STIXGeneral-Regular-32" d="M 3034 877 
L 2688 0 
L 186 0 
L 186 77 
L 1325 1286 
Q 1773 1754 1965 2144 
Q 2157 2534 2157 2950 
Q 2157 3379 1920 3616 
Q 1683 3853 1267 3853 
Q 922 3853 720 3673 
Q 518 3494 326 3021 
L 192 3053 
Q 301 3648 630 3987 
Q 960 4326 1523 4326 
Q 2054 4326 2380 4006 
Q 2707 3686 2707 3200 
Q 2707 2477 1888 1613 
L 832 486 
L 2330 486 
Q 2541 486 2665 569 
Q 2790 653 2944 915 
L 3034 877 
z
" transform="scale(0.015625)"/>
      </defs>
      <use xlink:href="#STIXGeneral-Italic-4e" transform="translate(0 0.40625)"/>
      <use xlink:href="#STIXGeneral-Italic-72" transform="translate(66.699997 -12.821875) scale(0.7)"/>
      <use xlink:href="#STIXGeneral-Regular-3d" transform="translate(112.779364 0.40625)"/>
      <use xlink:href="#STIXGeneral-Regular-32" transform="translate(195.719345 0.40625)"/>
      <use xlink:href="#STIXGeneral-Regular-30" transform="translate(245.71933 0.40625)"/>
      <use xlink:href="#STIXGeneral-Regular-30" transform="translate(295.719315 0.40625)"/>
     </g>
    </g>
   </g>
  </g>
 </g>
 <defs>
  <clipPath id="p495b53fbdc">
   <rect x="11.2" y="7.2" width="302" height="248"/>
  </clipPath>
  <clipPath id="p560a09288a">
   <rect x="11.2" y="286.2" width="302" height="248"/>
  </clipPath>
  <clipPath id="p710218703a">
   <rect x="11.2" y="565.2" width="302" height="248"/>
  </clipPath>
 </defs>
</svg>
