<?xml version="1.0" encoding="utf-8" standalone="no"?>
<!DOCTYPE svg PUBLIC "-//W3C//DTD SVG 1.1//EN"
  "http://www.w3.org/Graphics/SVG/1.1/DTD/svg11.dtd">
<svg xmlns:xlink="http://www.w3.org/1999/xlink" width="536.84055pt" height="392.264766pt" viewBox="0 0 536.84055 392.264766" xmlns="http://www.w3.org/2000/svg" version="1.1">
 <metadata>
  <rdf:RDF xmlns:dc="http://purl.org/dc/elements/1.1/" xmlns:cc="http://creativecommons.org/ns#" xmlns:rdf="http://www.w3.org/1999/02/22-rdf-syntax-ns#">
   <cc:Work>
    <dc:type rdf:resource="http://purl.org/dc/dcmitype/StillImage"/>
    <dc:date>2025-07-15T15:47:46.072524</dc:date>
    <dc:format>image/svg+xml</dc:format>
    <dc:creator>
     <cc:Agent>
      <dc:title>Matplotlib v3.9.2, https://matplotlib.org/</dc:title>
     </cc:Agent>
    </dc:creator>
   </cc:Work>
  </rdf:RDF>
 </metadata>
 <defs>
  <style type="text/css">*{stroke-linejoin: round; stroke-linecap: butt}</style>
 </defs>
 <g id="figure_1">
  <g id="patch_1">
   <path d="M 0 392.264766 
L 536.84055 392.264766 
L 536.84055 0 
L 0 0 
z
" style="fill: #ffffff"/>
  </g>
  <g id="axes_1">
   <g id="patch_2">
    <path d="M 48.72 323.256313 
L 529.64055 323.256313 
L 529.64055 7.2 
L 48.72 7.2 
z
" style="fill: #ffffff"/>
   </g>
   <g id="PolyCollection_1">
    <path d="M 82.751362 493.184119 
L 82.697604 493.184119 
L 82.699907 487.920286 
L 82.705699 482.656453 
L 82.712481 477.39262 
L 82.718072 472.128786 
L 82.72162 466.864953 
L 82.723409 461.60112 
L 82.724118 456.337287 
L 82.724258 451.073454 
L 82.72396 445.80962 
L 82.722932 440.545787 
L 82.72048 435.281954 
L 82.715701 430.018121 
L 82.70798 424.754287 
L 82.697535 419.490454 
L 82.68544 414.226621 
L 82.673006 408.962788 
L 82.661225 403.698954 
L 82.650933 398.435121 
L 82.643105 393.171288 
L 82.637994 387.907455 
L 82.633325 382.643621 
L 82.623905 377.379788 
L 82.604756 372.115955 
L 82.57626 366.852122 
L 82.546296 361.588288 
L 82.525672 356.324455 
L 82.519419 351.060622 
L 82.521449 345.796789 
L 82.517557 340.532955 
L 82.494446 335.269122 
L 82.447552 330.005289 
L 82.382107 324.741456 
L 82.307554 319.477622 
L 82.230497 314.213789 
L 82.152099 308.949956 
L 82.071325 303.686123 
L 81.988974 298.422289 
L 81.905285 293.158456 
L 81.811081 287.894623 
L 81.683021 282.63079 
L 81.492901 277.366956 
L 81.225381 272.103123 
L 80.886785 266.83929 
L 80.496505 261.575457 
L 80.070417 256.311623 
L 79.609449 251.04779 
L 79.09758 245.783957 
L 78.510338 240.520124 
L 77.835465 235.25629 
L 77.094386 229.992457 
L 76.338564 224.728624 
L 75.613278 219.464791 
L 74.922876 214.200957 
L 74.237674 208.937124 
L 73.534444 203.673291 
L 72.822744 198.409458 
L 72.1348 193.145624 
L 71.508263 187.881791 
L 70.991577 182.617958 
L 70.655792 177.354125 
L 70.580025 172.090291 
L 70.814203 166.826458 
L 71.353874 161.562625 
L 72.144287 156.298792 
L 73.096905 151.034958 
L 74.101084 145.771125 
L 75.039328 140.507292 
L 75.819629 135.243459 
L 76.411329 129.979626 
L 76.851431 124.715792 
L 77.208561 119.451959 
L 77.531749 114.188126 
L 77.825003 108.924293 
L 78.061405 103.660459 
L 78.214361 98.396626 
L 78.27679 93.132793 
L 78.261776 87.86896 
L 78.19776 82.605126 
L 78.12576 77.341293 
L 78.091511 72.07746 
L 78.129505 66.813627 
L 78.25292 61.549793 
L 78.461644 56.28596 
L 78.757098 51.022127 
L 79.142292 45.758294 
L 79.606048 40.49446 
L 80.112529 35.230627 
L 80.611078 29.966794 
L 81.058142 24.702961 
L 81.432618 19.439127 
L 81.735559 14.175294 
L 81.979433 8.911461 
L 82.177209 3.647628 
L 82.337167 -1.616206 
L 82.462928 -6.880039 
L 82.555954 -12.143872 
L 82.618719 -17.407705 
L 82.656943 -22.671539 
L 82.679031 -27.935372 
L 82.769935 -27.935372 
L 82.769935 -27.935372 
L 82.792024 -22.671539 
L 82.830248 -17.407705 
L 82.893013 -12.143872 
L 82.986039 -6.880039 
L 83.1118 -1.616206 
L 83.271758 3.647628 
L 83.469533 8.911461 
L 83.713408 14.175294 
L 84.016349 19.439127 
L 84.390825 24.702961 
L 84.837889 29.966794 
L 85.336437 35.230627 
L 85.842918 40.49446 
L 86.306674 45.758294 
L 86.691868 51.022127 
L 86.987323 56.28596 
L 87.196047 61.549793 
L 87.319462 66.813627 
L 87.357456 72.07746 
L 87.323206 77.341293 
L 87.251207 82.605126 
L 87.187191 87.86896 
L 87.172177 93.132793 
L 87.234605 98.396626 
L 87.387561 103.660459 
L 87.623964 108.924293 
L 87.917218 114.188126 
L 88.240406 119.451959 
L 88.597536 124.715792 
L 89.037638 129.979626 
L 89.629337 135.243459 
L 90.409639 140.507292 
L 91.347882 145.771125 
L 92.352061 151.034958 
L 93.30468 156.298792 
L 94.095093 161.562625 
L 94.634764 166.826458 
L 94.868942 172.090291 
L 94.793175 177.354125 
L 94.457389 182.617958 
L 93.940703 187.881791 
L 93.314167 193.145624 
L 92.626223 198.409458 
L 91.914523 203.673291 
L 91.211292 208.937124 
L 90.526091 214.200957 
L 89.835689 219.464791 
L 89.110402 224.728624 
L 88.35458 229.992457 
L 87.613501 235.25629 
L 86.938629 240.520124 
L 86.351386 245.783957 
L 85.839518 251.04779 
L 85.37855 256.311623 
L 84.952462 261.575457 
L 84.562182 266.83929 
L 84.223585 272.103123 
L 83.956066 277.366956 
L 83.765946 282.63079 
L 83.637885 287.894623 
L 83.543682 293.158456 
L 83.459993 298.422289 
L 83.377642 303.686123 
L 83.296868 308.949956 
L 83.218469 314.213789 
L 83.141413 319.477622 
L 83.06686 324.741456 
L 83.001415 330.005289 
L 82.954521 335.269122 
L 82.93141 340.532955 
L 82.927518 345.796789 
L 82.929547 351.060622 
L 82.923295 356.324455 
L 82.90267 361.588288 
L 82.872707 366.852122 
L 82.84421 372.115955 
L 82.825062 377.379788 
L 82.815642 382.643621 
L 82.810972 387.907455 
L 82.805862 393.171288 
L 82.798034 398.435121 
L 82.787742 403.698954 
L 82.77596 408.962788 
L 82.763527 414.226621 
L 82.751432 419.490454 
L 82.740986 424.754287 
L 82.733266 430.018121 
L 82.728487 435.281954 
L 82.726034 440.545787 
L 82.725007 445.80962 
L 82.724709 451.073454 
L 82.724849 456.337287 
L 82.725558 461.60112 
L 82.727347 466.864953 
L 82.730894 472.128786 
L 82.736486 477.39262 
L 82.743268 482.656453 
L 82.749059 487.920286 
L 82.751362 493.184119 
z
" clip-path="url(#pc60cfe41d8)" style="fill: #888585; fill-opacity: 0.5"/>
   </g>
   <g id="PolyCollection_2">
    <path d="M 179.904655 317.8279 
L 179.855645 317.8279 
L 179.858087 315.084265 
L 179.863733 312.340629 
L 179.868553 309.596994 
L 179.868745 306.853358 
L 179.861934 304.109723 
L 179.847163 301.366087 
L 179.825051 298.622451 
L 179.798869 295.878816 
L 179.77545 293.13518 
L 179.763258 290.391545 
L 179.766876 287.647909 
L 179.782516 284.904273 
L 179.799758 282.160638 
L 179.80798 279.417002 
L 179.801513 276.673367 
L 179.779585 273.929731 
L 179.741337 271.186095 
L 179.681944 268.44246 
L 179.597813 265.698824 
L 179.497191 262.955189 
L 179.399202 260.211553 
L 179.315148 257.467917 
L 179.232244 254.724282 
L 179.122133 251.980646 
L 178.96611 249.237011 
L 178.767273 246.493375 
L 178.538748 243.74974 
L 178.289583 241.006104 
L 178.025595 238.262468 
L 177.750214 235.518833 
L 177.451238 232.775197 
L 177.094362 230.031562 
L 176.642864 227.287926 
L 176.081463 224.54429 
L 175.416958 221.800655 
L 174.665201 219.057019 
L 173.845158 216.313384 
L 172.981185 213.569748 
L 172.108497 210.826112 
L 171.277289 208.082477 
L 170.542621 205.338841 
L 169.93888 202.595206 
L 169.463084 199.85157 
L 169.082086 197.107935 
L 168.749581 194.364299 
L 168.424524 191.620663 
L 168.101521 188.877028 
L 167.838543 186.133392 
L 167.735692 183.389757 
L 167.862391 180.646121 
L 168.205685 177.902485 
L 168.697855 175.15885 
L 169.286954 172.415214 
L 169.970874 169.671579 
L 170.770805 166.927943 
L 171.685997 164.184307 
L 172.673166 161.440672 
L 173.65358 158.697036 
L 174.532723 155.953401 
L 175.232582 153.209765 
L 175.733397 150.46613 
L 176.088442 147.722494 
L 176.381482 144.978858 
L 176.662315 142.235223 
L 176.927766 139.491587 
L 177.158694 136.747952 
L 177.358469 134.004316 
L 177.550651 131.26068 
L 177.751626 128.517045 
L 177.955836 125.773409 
L 178.1451 123.029774 
L 178.307677 120.286138 
L 178.449115 117.542502 
L 178.585504 114.798867 
L 178.727098 112.055231 
L 178.871851 109.311596 
L 179.013698 106.56796 
L 179.150077 103.824325 
L 179.279564 101.080689 
L 179.3983 98.337053 
L 179.50171 95.593418 
L 179.586207 92.849782 
L 179.648438 90.106147 
L 179.68723 87.362511 
L 179.70773 84.618875 
L 179.720265 81.87524 
L 179.733058 79.131604 
L 179.747262 76.387969 
L 179.759677 73.644333 
L 179.768545 70.900697 
L 179.775255 68.157062 
L 179.781479 65.413426 
L 179.786822 62.669791 
L 179.789976 59.926155 
L 179.791379 57.18252 
L 179.793837 54.438884 
L 179.800425 51.695248 
L 179.812177 48.951613 
L 179.827696 46.207977 
L 179.932604 46.207977 
L 179.932604 46.207977 
L 179.948123 48.951613 
L 179.959875 51.695248 
L 179.966463 54.438884 
L 179.968921 57.18252 
L 179.970324 59.926155 
L 179.973478 62.669791 
L 179.978821 65.413426 
L 179.985045 68.157062 
L 179.991755 70.900697 
L 180.000623 73.644333 
L 180.013038 76.387969 
L 180.027242 79.131604 
L 180.040035 81.87524 
L 180.05257 84.618875 
L 180.07307 87.362511 
L 180.111862 90.106147 
L 180.174093 92.849782 
L 180.25859 95.593418 
L 180.362 98.337053 
L 180.480736 101.080689 
L 180.610223 103.824325 
L 180.746602 106.56796 
L 180.888449 109.311596 
L 181.033202 112.055231 
L 181.174796 114.798867 
L 181.311185 117.542502 
L 181.452623 120.286138 
L 181.6152 123.029774 
L 181.804464 125.773409 
L 182.008674 128.517045 
L 182.209649 131.26068 
L 182.401831 134.004316 
L 182.601606 136.747952 
L 182.832534 139.491587 
L 183.097985 142.235223 
L 183.378818 144.978858 
L 183.671858 147.722494 
L 184.026903 150.46613 
L 184.527718 153.209765 
L 185.227577 155.953401 
L 186.10672 158.697036 
L 187.087134 161.440672 
L 188.074303 164.184307 
L 188.989495 166.927943 
L 189.789426 169.671579 
L 190.473346 172.415214 
L 191.062445 175.15885 
L 191.554615 177.902485 
L 191.897909 180.646121 
L 192.024608 183.389757 
L 191.921757 186.133392 
L 191.658779 188.877028 
L 191.335776 191.620663 
L 191.010719 194.364299 
L 190.678214 197.107935 
L 190.297216 199.85157 
L 189.82142 202.595206 
L 189.217679 205.338841 
L 188.483011 208.082477 
L 187.651803 210.826112 
L 186.779115 213.569748 
L 185.915142 216.313384 
L 185.095099 219.057019 
L 184.343342 221.800655 
L 183.678837 224.54429 
L 183.117436 227.287926 
L 182.665938 230.031562 
L 182.309062 232.775197 
L 182.010086 235.518833 
L 181.734705 238.262468 
L 181.470717 241.006104 
L 181.221552 243.74974 
L 180.993027 246.493375 
L 180.79419 249.237011 
L 180.638167 251.980646 
L 180.528056 254.724282 
L 180.445152 257.467917 
L 180.361098 260.211553 
L 180.263109 262.955189 
L 180.162487 265.698824 
L 180.078356 268.44246 
L 180.018963 271.186095 
L 179.980715 273.929731 
L 179.958787 276.673367 
L 179.95232 279.417002 
L 179.960542 282.160638 
L 179.977784 284.904273 
L 179.993424 287.647909 
L 179.997042 290.391545 
L 179.98485 293.13518 
L 179.961431 295.878816 
L 179.935249 298.622451 
L 179.913137 301.366087 
L 179.898366 304.109723 
L 179.891555 306.853358 
L 179.891747 309.596994 
L 179.896567 312.340629 
L 179.902213 315.084265 
L 179.904655 317.8279 
z
" clip-path="url(#pc60cfe41d8)" style="fill: #888585; fill-opacity: 0.5"/>
   </g>
   <g id="PolyCollection_3">
    <path d="M 277.215651 262.400688 
L 276.855982 262.400688 
L 276.793639 260.970956 
L 276.728866 259.541224 
L 276.667796 258.111492 
L 276.61498 256.68176 
L 276.571479 255.252028 
L 276.534657 253.822296 
L 276.49996 252.392564 
L 276.463612 250.962831 
L 276.424465 249.533099 
L 276.383802 248.103367 
L 276.343184 246.673635 
L 276.301602 245.243903 
L 276.253422 243.814171 
L 276.188216 242.384439 
L 276.092978 240.954707 
L 275.956561 239.524975 
L 275.775019 238.095242 
L 275.555032 236.66551 
L 275.31244 235.235778 
L 275.065139 233.806046 
L 274.823475 232.376314 
L 274.583577 230.946582 
L 274.327635 229.51685 
L 274.031035 228.087118 
L 273.672611 226.657385 
L 273.243519 225.227653 
L 272.751702 223.797921 
L 272.220892 222.368189 
L 271.684545 220.938457 
L 271.176132 219.508725 
L 270.718421 218.078993 
L 270.315619 216.649261 
L 269.952404 215.219529 
L 269.601496 213.789796 
L 269.236556 212.360064 
L 268.842997 210.930332 
L 268.419986 209.5006 
L 267.973588 208.070868 
L 267.508457 206.641136 
L 267.026594 205.211404 
L 266.534769 203.781672 
L 266.053408 202.35194 
L 265.61754 200.922207 
L 265.26659 199.492475 
L 265.028716 198.062743 
L 264.909435 196.633011 
L 264.891358 195.203279 
L 264.945218 193.773547 
L 265.046612 192.343815 
L 265.190044 190.914083 
L 265.392499 189.48435 
L 265.683265 188.054618 
L 266.084569 186.624886 
L 266.594508 185.195154 
L 267.183633 183.765422 
L 267.807542 182.33569 
L 268.426298 180.905958 
L 269.01744 179.476226 
L 269.576064 178.046494 
L 270.106249 176.616761 
L 270.612956 175.187029 
L 271.09933 173.757297 
L 271.567088 172.327565 
L 272.01562 170.897833 
L 272.439765 169.468101 
L 272.830598 168.038369 
L 273.181596 166.608637 
L 273.495981 165.178904 
L 273.787888 163.749172 
L 274.074847 162.31944 
L 274.367169 160.889708 
L 274.662666 159.459976 
L 274.950144 158.030244 
L 275.217693 156.600512 
L 275.459068 155.17078 
L 275.674585 153.741048 
L 275.867865 152.311315 
L 276.042017 150.881583 
L 276.197825 149.451851 
L 276.334195 148.022119 
L 276.449612 146.592387 
L 276.543414 145.162655 
L 276.616491 143.732923 
L 276.671561 142.303191 
L 276.713071 140.873458 
L 276.746503 139.443726 
L 276.777059 138.013994 
L 276.808285 136.584262 
L 276.841366 135.15453 
L 276.87535 133.724798 
L 276.907919 132.295066 
L 276.936174 130.865334 
L 276.957271 129.435602 
L 276.969151 128.005869 
L 276.971441 126.576137 
L 276.96618 125.146405 
L 276.957715 123.716673 
L 276.9514 122.286941 
L 276.951517 120.857209 
L 277.120117 120.857209 
L 277.120117 120.857209 
L 277.120233 122.286941 
L 277.113918 123.716673 
L 277.105453 125.146405 
L 277.100192 126.576137 
L 277.102482 128.005869 
L 277.114363 129.435602 
L 277.13546 130.865334 
L 277.163714 132.295066 
L 277.196284 133.724798 
L 277.230268 135.15453 
L 277.263348 136.584262 
L 277.294575 138.013994 
L 277.32513 139.443726 
L 277.358562 140.873458 
L 277.400073 142.303191 
L 277.455142 143.732923 
L 277.52822 145.162655 
L 277.622022 146.592387 
L 277.737438 148.022119 
L 277.873808 149.451851 
L 278.029616 150.881583 
L 278.203768 152.311315 
L 278.397049 153.741048 
L 278.612565 155.17078 
L 278.85394 156.600512 
L 279.121489 158.030244 
L 279.408967 159.459976 
L 279.704464 160.889708 
L 279.996786 162.31944 
L 280.283746 163.749172 
L 280.575653 165.178904 
L 280.890038 166.608637 
L 281.241035 168.038369 
L 281.631868 169.468101 
L 282.056013 170.897833 
L 282.504545 172.327565 
L 282.972303 173.757297 
L 283.458677 175.187029 
L 283.965385 176.616761 
L 284.495569 178.046494 
L 285.054193 179.476226 
L 285.645336 180.905958 
L 286.264092 182.33569 
L 286.888 183.765422 
L 287.477125 185.195154 
L 287.987064 186.624886 
L 288.388368 188.054618 
L 288.679134 189.48435 
L 288.881589 190.914083 
L 289.025022 192.343815 
L 289.126415 193.773547 
L 289.180275 195.203279 
L 289.162198 196.633011 
L 289.042917 198.062743 
L 288.805043 199.492475 
L 288.454093 200.922207 
L 288.018225 202.35194 
L 287.536865 203.781672 
L 287.045039 205.211404 
L 286.563177 206.641136 
L 286.098045 208.070868 
L 285.651647 209.5006 
L 285.228636 210.930332 
L 284.835078 212.360064 
L 284.470138 213.789796 
L 284.119229 215.219529 
L 283.756015 216.649261 
L 283.353212 218.078993 
L 282.895501 219.508725 
L 282.387089 220.938457 
L 281.850742 222.368189 
L 281.319931 223.797921 
L 280.828114 225.227653 
L 280.399023 226.657385 
L 280.040598 228.087118 
L 279.743998 229.51685 
L 279.488057 230.946582 
L 279.248158 232.376314 
L 279.006495 233.806046 
L 278.759194 235.235778 
L 278.516602 236.66551 
L 278.296615 238.095242 
L 278.115072 239.524975 
L 277.978656 240.954707 
L 277.883417 242.384439 
L 277.818212 243.814171 
L 277.770031 245.243903 
L 277.728449 246.673635 
L 277.687832 248.103367 
L 277.647168 249.533099 
L 277.608021 250.962831 
L 277.571673 252.392564 
L 277.536977 253.822296 
L 277.500155 255.252028 
L 277.456654 256.68176 
L 277.403838 258.111492 
L 277.342768 259.541224 
L 277.277994 260.970956 
L 277.215651 262.400688 
z
" clip-path="url(#pc60cfe41d8)" style="fill: #888585; fill-opacity: 0.5"/>
   </g>
   <g id="PolyCollection_4">
    <path d="M 374.709311 248.33588 
L 373.673656 248.33588 
L 373.576914 247.360939 
L 373.474342 246.385999 
L 373.366915 245.411058 
L 373.255878 244.436118 
L 373.142841 243.461177 
L 373.02963 242.486236 
L 372.917831 241.511296 
L 372.808112 240.536355 
L 372.699517 239.561415 
L 372.589034 238.586474 
L 372.471677 237.611534 
L 372.341206 236.636593 
L 372.191354 235.661653 
L 372.017276 234.686712 
L 371.816764 233.711771 
L 371.590832 232.736831 
L 371.343428 231.76189 
L 371.080317 230.78695 
L 370.807418 229.812009 
L 370.529119 228.837069 
L 370.247073 227.862128 
L 369.959887 226.887188 
L 369.663824 225.912247 
L 369.354296 224.937307 
L 369.027666 223.962366 
L 368.682752 222.987425 
L 368.321511 222.012485 
L 367.948674 221.037544 
L 367.570448 220.062604 
L 367.192748 219.087663 
L 366.819554 218.112723 
L 366.451958 217.137782 
L 366.088194 216.162842 
L 365.724617 215.187901 
L 365.357302 214.21296 
L 364.983746 213.23802 
L 364.604167 212.263079 
L 364.222049 211.288139 
L 363.843886 210.313198 
L 363.478295 209.338258 
L 363.134899 208.363317 
L 362.823355 207.388377 
L 362.552795 206.413436 
L 362.331751 205.438496 
L 362.168394 204.463555 
L 362.070815 203.488614 
L 362.047025 202.513674 
L 362.104472 201.538733 
L 362.249023 200.563793 
L 362.483554 199.588852 
L 362.806513 198.613912 
L 363.210884 197.638971 
L 363.68403 196.664031 
L 364.208661 195.68909 
L 364.764895 194.714149 
L 365.332977 193.739209 
L 365.895939 192.764268 
L 366.441459 191.789328 
L 366.962395 190.814387 
L 367.45598 189.839447 
L 367.922122 188.864506 
L 368.36157 187.889566 
L 368.774642 186.914625 
L 369.160861 185.939685 
L 369.519407 184.964744 
L 369.849944 183.989803 
L 370.153302 183.014863 
L 370.431693 182.039922 
L 370.688414 181.064982 
L 370.92725 180.090041 
L 371.151863 179.115101 
L 371.365356 178.14016 
L 371.570083 177.16522 
L 371.767611 176.190279 
L 371.958734 175.215339 
L 372.143457 174.240398 
L 372.320943 173.265457 
L 372.489502 172.290517 
L 372.646708 171.315576 
L 372.789724 170.340636 
L 372.915848 169.365695 
L 373.023215 168.390755 
L 373.111457 167.415814 
L 373.18213 166.440874 
L 373.238711 165.465933 
L 373.286093 164.490992 
L 373.329683 163.516052 
L 373.374328 162.541111 
L 373.423401 161.566171 
L 373.478286 160.59123 
L 373.53839 159.61629 
L 373.601641 158.641349 
L 373.665257 157.666409 
L 373.726562 156.691468 
L 373.783595 155.716528 
L 373.835402 154.741587 
L 373.881987 153.766646 
L 373.924006 152.791706 
L 373.962365 151.816765 
L 374.420602 151.816765 
L 374.420602 151.816765 
L 374.45896 152.791706 
L 374.50098 153.766646 
L 374.547564 154.741587 
L 374.599372 155.716528 
L 374.656405 156.691468 
L 374.71771 157.666409 
L 374.781326 158.641349 
L 374.844576 159.61629 
L 374.904681 160.59123 
L 374.959566 161.566171 
L 375.008639 162.541111 
L 375.053284 163.516052 
L 375.096873 164.490992 
L 375.144256 165.465933 
L 375.200837 166.440874 
L 375.27151 167.415814 
L 375.359751 168.390755 
L 375.467118 169.365695 
L 375.593243 170.340636 
L 375.736258 171.315576 
L 375.893464 172.290517 
L 376.062024 173.265457 
L 376.23951 174.240398 
L 376.424232 175.215339 
L 376.615356 176.190279 
L 376.812884 177.16522 
L 377.017611 178.14016 
L 377.231104 179.115101 
L 377.455716 180.090041 
L 377.694553 181.064982 
L 377.951273 182.039922 
L 378.229664 183.014863 
L 378.533023 183.989803 
L 378.86356 184.964744 
L 379.222106 185.939685 
L 379.608325 186.914625 
L 380.021396 187.889566 
L 380.460845 188.864506 
L 380.926987 189.839447 
L 381.420572 190.814387 
L 381.941508 191.789328 
L 382.487028 192.764268 
L 383.04999 193.739209 
L 383.618072 194.714149 
L 384.174306 195.68909 
L 384.698937 196.664031 
L 385.172083 197.638971 
L 385.576454 198.613912 
L 385.899412 199.588852 
L 386.133944 200.563793 
L 386.278494 201.538733 
L 386.335942 202.513674 
L 386.312151 203.488614 
L 386.214572 204.463555 
L 386.051216 205.438496 
L 385.830172 206.413436 
L 385.559612 207.388377 
L 385.248067 208.363317 
L 384.904672 209.338258 
L 384.539081 210.313198 
L 384.160918 211.288139 
L 383.7788 212.263079 
L 383.399221 213.23802 
L 383.025665 214.21296 
L 382.65835 215.187901 
L 382.294772 216.162842 
L 381.931008 217.137782 
L 381.563413 218.112723 
L 381.190219 219.087663 
L 380.812518 220.062604 
L 380.434293 221.037544 
L 380.061456 222.012485 
L 379.700215 222.987425 
L 379.3553 223.962366 
L 379.02867 224.937307 
L 378.719143 225.912247 
L 378.42308 226.887188 
L 378.135894 227.862128 
L 377.853847 228.837069 
L 377.575548 229.812009 
L 377.30265 230.78695 
L 377.039538 231.76189 
L 376.792135 232.736831 
L 376.566202 233.711771 
L 376.365691 234.686712 
L 376.191613 235.661653 
L 376.041761 236.636593 
L 375.911289 237.611534 
L 375.793933 238.586474 
L 375.68345 239.561415 
L 375.574854 240.536355 
L 375.465135 241.511296 
L 375.353337 242.486236 
L 375.240126 243.461177 
L 375.127089 244.436118 
L 375.016052 245.411058 
L 374.908624 246.385999 
L 374.806053 247.360939 
L 374.709311 248.33588 
z
" clip-path="url(#pc60cfe41d8)" style="fill: #888585; fill-opacity: 0.5"/>
   </g>
   <g id="PolyCollection_5">
    <path d="M 474.152719 246.853788 
L 468.541581 246.853788 
L 468.430442 246.256642 
L 468.325119 245.659497 
L 468.226103 245.062351 
L 468.133771 244.465205 
L 468.048385 243.86806 
L 467.970086 243.270914 
L 467.898894 242.673768 
L 467.834708 242.076623 
L 467.77731 241.479477 
L 467.726371 240.882331 
L 467.681453 240.285186 
L 467.64202 239.68804 
L 467.607443 239.090895 
L 467.577006 238.493749 
L 467.549913 237.896603 
L 467.525297 237.299458 
L 467.502221 236.702312 
L 467.479689 236.105166 
L 467.456644 235.508021 
L 467.43198 234.910875 
L 467.404542 234.313729 
L 467.373132 233.716584 
L 467.336517 233.119438 
L 467.293438 232.522292 
L 467.242616 231.925147 
L 467.182769 231.328001 
L 467.112622 230.730855 
L 467.030931 230.13371 
L 466.936496 229.536564 
L 466.828192 228.939418 
L 466.704988 228.342273 
L 466.565978 227.745127 
L 466.410409 227.147981 
L 466.23771 226.550836 
L 466.047516 225.95369 
L 465.8397 225.356544 
L 465.614388 224.759399 
L 465.371983 224.162253 
L 465.113176 223.565107 
L 464.838952 222.967962 
L 464.55059 222.370816 
L 464.249655 221.77367 
L 463.937984 221.176525 
L 463.617661 220.579379 
L 463.29099 219.982233 
L 462.960462 219.385088 
L 462.628708 218.787942 
L 462.298464 218.190796 
L 461.972517 217.593651 
L 461.653666 216.996505 
L 461.344672 216.399359 
L 461.048216 215.802214 
L 460.766859 215.205068 
L 460.503009 214.607922 
L 460.258887 214.010777 
L 460.036507 213.413631 
L 459.837654 212.816486 
L 459.663872 212.21934 
L 459.516459 211.622194 
L 459.396457 211.025049 
L 459.304658 210.427903 
L 459.241604 209.830757 
L 459.207595 209.233612 
L 459.202692 208.636466 
L 459.226724 208.03932 
L 459.2793 207.442175 
L 459.359813 206.845029 
L 459.46745 206.247883 
L 459.601201 205.650738 
L 459.759866 205.053592 
L 459.942071 204.456446 
L 460.146276 203.859301 
L 460.370794 203.262155 
L 460.613807 202.665009 
L 460.873389 202.067864 
L 461.147531 201.470718 
L 461.434164 200.873572 
L 461.731194 200.276427 
L 462.036529 199.679281 
L 462.348113 199.082135 
L 462.663959 198.48499 
L 462.982177 197.887844 
L 463.301001 197.290698 
L 463.618821 196.693553 
L 463.934192 196.096407 
L 464.245858 195.499261 
L 464.552755 194.902116 
L 464.854015 194.30497 
L 465.148964 193.707824 
L 465.437111 193.110679 
L 465.71813 192.513533 
L 465.991848 191.916387 
L 466.258216 191.319242 
L 466.517283 190.722096 
L 466.769177 190.12495 
L 467.014068 189.527805 
L 467.252153 188.930659 
L 467.483626 188.333513 
L 467.708662 187.736368 
L 474.985638 187.736368 
L 474.985638 187.736368 
L 475.210674 188.333513 
L 475.442147 188.930659 
L 475.680232 189.527805 
L 475.925123 190.12495 
L 476.177017 190.722096 
L 476.436084 191.319242 
L 476.702452 191.916387 
L 476.97617 192.513533 
L 477.257189 193.110679 
L 477.545336 193.707824 
L 477.840285 194.30497 
L 478.141545 194.902116 
L 478.448442 195.499261 
L 478.760108 196.096407 
L 479.075479 196.693553 
L 479.393299 197.290698 
L 479.712123 197.887844 
L 480.030341 198.48499 
L 480.346187 199.082135 
L 480.657771 199.679281 
L 480.963106 200.276427 
L 481.260136 200.873572 
L 481.546769 201.470718 
L 481.820911 202.067864 
L 482.080493 202.665009 
L 482.323506 203.262155 
L 482.548024 203.859301 
L 482.752229 204.456446 
L 482.934434 205.053592 
L 483.093099 205.650738 
L 483.22685 206.247883 
L 483.334487 206.845029 
L 483.415 207.442175 
L 483.467576 208.03932 
L 483.491608 208.636466 
L 483.486705 209.233612 
L 483.452696 209.830757 
L 483.389642 210.427903 
L 483.297843 211.025049 
L 483.177841 211.622194 
L 483.030428 212.21934 
L 482.856646 212.816486 
L 482.657793 213.413631 
L 482.435413 214.010777 
L 482.191291 214.607922 
L 481.927441 215.205068 
L 481.646084 215.802214 
L 481.349628 216.399359 
L 481.040634 216.996505 
L 480.721783 217.593651 
L 480.395836 218.190796 
L 480.065592 218.787942 
L 479.733838 219.385088 
L 479.40331 219.982233 
L 479.076639 220.579379 
L 478.756316 221.176525 
L 478.444645 221.77367 
L 478.14371 222.370816 
L 477.855348 222.967962 
L 477.581124 223.565107 
L 477.322317 224.162253 
L 477.079912 224.759399 
L 476.8546 225.356544 
L 476.646784 225.95369 
L 476.45659 226.550836 
L 476.283891 227.147981 
L 476.128322 227.745127 
L 475.989312 228.342273 
L 475.866108 228.939418 
L 475.757804 229.536564 
L 475.663369 230.13371 
L 475.581678 230.730855 
L 475.511531 231.328001 
L 475.451684 231.925147 
L 475.400862 232.522292 
L 475.357783 233.119438 
L 475.321168 233.716584 
L 475.289758 234.313729 
L 475.26232 234.910875 
L 475.237656 235.508021 
L 475.214611 236.105166 
L 475.192079 236.702312 
L 475.169003 237.299458 
L 475.144387 237.896603 
L 475.117294 238.493749 
L 475.086857 239.090895 
L 475.05228 239.68804 
L 475.012847 240.285186 
L 474.967929 240.882331 
L 474.91699 241.479477 
L 474.859592 242.076623 
L 474.795406 242.673768 
L 474.724214 243.270914 
L 474.645915 243.86806 
L 474.560529 244.465205 
L 474.468197 245.062351 
L 474.369181 245.659497 
L 474.263858 246.256642 
L 474.152719 246.853788 
z
" clip-path="url(#pc60cfe41d8)" style="fill: #888585; fill-opacity: 0.5"/>
   </g>
   <g id="PolyCollection_6">
    <path d="M 107.035587 293.912138 
L 106.991213 293.912138 
L 106.99252 291.345212 
L 106.995869 288.778286 
L 106.998931 286.21136 
L 106.999578 283.644434 
L 106.99704 281.077508 
L 106.992106 278.510583 
L 106.986284 275.943657 
L 106.980537 273.376731 
L 106.974681 270.809805 
L 106.968029 268.242879 
L 106.960693 265.675953 
L 106.954118 263.109027 
L 106.950228 260.542101 
L 106.949999 257.975175 
L 106.952715 255.40825 
L 106.95631 252.841324 
L 106.958186 250.274398 
L 106.955888 247.707472 
L 106.947746 245.140546 
L 106.933883 242.57362 
L 106.917135 240.006694 
L 106.902594 237.439768 
L 106.895122 234.872842 
L 106.896185 232.305916 
L 106.902362 229.738991 
L 106.906686 227.172065 
L 106.90192 224.605139 
L 106.884044 222.038213 
L 106.854523 219.471287 
L 106.820003 216.904361 
L 106.788783 214.337435 
L 106.766102 211.770509 
L 106.752275 209.203583 
L 106.745045 206.636658 
L 106.742432 204.069732 
L 106.741965 201.502806 
L 106.737764 198.93588 
L 106.720837 196.368954 
L 106.684663 193.802028 
L 106.631731 191.235102 
L 106.574454 188.668176 
L 106.527928 186.10125 
L 106.498725 183.534325 
L 106.478043 180.967399 
L 106.445531 178.400473 
L 106.382335 175.833547 
L 106.284005 173.266621 
L 106.163399 170.699695 
L 106.042065 168.132769 
L 105.937448 165.565843 
L 105.854105 162.998917 
L 105.781736 160.431992 
L 105.699075 157.865066 
L 105.581774 155.29814 
L 105.411136 152.731214 
L 105.179606 150.164288 
L 104.89058 147.597362 
L 104.552565 145.030436 
L 104.168957 142.46351 
L 103.72764 139.896584 
L 103.199238 137.329659 
L 102.550898 134.762733 
L 101.7688 132.195807 
L 100.869262 129.628881 
L 99.885906 127.061955 
L 98.848165 124.495029 
L 97.782062 121.928103 
L 96.740031 119.361177 
L 95.824769 116.794251 
L 95.167593 114.227326 
L 94.868942 111.6604 
L 94.952641 109.093474 
L 95.370815 106.526548 
L 96.042409 103.959622 
L 96.882966 101.392696 
L 97.810163 98.82577 
L 98.744114 96.258844 
L 99.620738 93.691918 
L 100.411467 91.124993 
L 101.128766 88.558067 
L 101.807483 85.991141 
L 102.473352 83.424215 
L 103.121879 80.857289 
L 103.722588 78.290363 
L 104.242367 75.723437 
L 104.667422 73.156511 
L 105.008633 70.589585 
L 105.291107 68.02266 
L 105.538832 65.455734 
L 105.76442 62.888808 
L 105.968188 60.321882 
L 106.145063 57.754956 
L 106.293299 55.18803 
L 106.418207 52.621104 
L 106.528746 50.054178 
L 106.631087 47.487252 
L 106.725322 44.920327 
L 106.807548 42.353401 
L 106.874265 39.786475 
L 107.152535 39.786475 
L 107.152535 39.786475 
L 107.219252 42.353401 
L 107.301478 44.920327 
L 107.395713 47.487252 
L 107.498054 50.054178 
L 107.608593 52.621104 
L 107.733501 55.18803 
L 107.881737 57.754956 
L 108.058612 60.321882 
L 108.26238 62.888808 
L 108.487968 65.455734 
L 108.735693 68.02266 
L 109.018167 70.589585 
L 109.359378 73.156511 
L 109.784433 75.723437 
L 110.304212 78.290363 
L 110.904921 80.857289 
L 111.553448 83.424215 
L 112.219317 85.991141 
L 112.898034 88.558067 
L 113.615333 91.124993 
L 114.406062 93.691918 
L 115.282686 96.258844 
L 116.216637 98.82577 
L 117.143834 101.392696 
L 117.984391 103.959622 
L 118.655985 106.526548 
L 119.074159 109.093474 
L 119.157858 111.6604 
L 118.859207 114.227326 
L 118.202031 116.794251 
L 117.286769 119.361177 
L 116.244738 121.928103 
L 115.178635 124.495029 
L 114.140894 127.061955 
L 113.157538 129.628881 
L 112.258 132.195807 
L 111.475902 134.762733 
L 110.827562 137.329659 
L 110.29916 139.896584 
L 109.857843 142.46351 
L 109.474235 145.030436 
L 109.13622 147.597362 
L 108.847194 150.164288 
L 108.615664 152.731214 
L 108.445026 155.29814 
L 108.327725 157.865066 
L 108.245064 160.431992 
L 108.172695 162.998917 
L 108.089352 165.565843 
L 107.984735 168.132769 
L 107.863401 170.699695 
L 107.742795 173.266621 
L 107.644465 175.833547 
L 107.581269 178.400473 
L 107.548757 180.967399 
L 107.528075 183.534325 
L 107.498872 186.10125 
L 107.452346 188.668176 
L 107.395069 191.235102 
L 107.342137 193.802028 
L 107.305963 196.368954 
L 107.289036 198.93588 
L 107.284835 201.502806 
L 107.284368 204.069732 
L 107.281755 206.636658 
L 107.274525 209.203583 
L 107.260698 211.770509 
L 107.238017 214.337435 
L 107.206797 216.904361 
L 107.172277 219.471287 
L 107.142756 222.038213 
L 107.12488 224.605139 
L 107.120114 227.172065 
L 107.124438 229.738991 
L 107.130615 232.305916 
L 107.131678 234.872842 
L 107.124206 237.439768 
L 107.109665 240.006694 
L 107.092917 242.57362 
L 107.079054 245.140546 
L 107.070912 247.707472 
L 107.068614 250.274398 
L 107.07049 252.841324 
L 107.074085 255.40825 
L 107.076801 257.975175 
L 107.076572 260.542101 
L 107.072682 263.109027 
L 107.066107 265.675953 
L 107.058771 268.242879 
L 107.052119 270.809805 
L 107.046263 273.376731 
L 107.040516 275.943657 
L 107.034694 278.510583 
L 107.02976 281.077508 
L 107.027222 283.644434 
L 107.027869 286.21136 
L 107.030931 288.778286 
L 107.03428 291.345212 
L 107.035587 293.912138 
z
" clip-path="url(#pc60cfe41d8)" style="fill: #5e548e; fill-opacity: 0.6"/>
   </g>
   <g id="PolyCollection_7">
    <path d="M 204.192021 356.851846 
L 204.146112 356.851846 
L 204.144077 353.81925 
L 204.143451 350.786654 
L 204.143837 347.754059 
L 204.145506 344.721463 
L 204.148947 341.688868 
L 204.153911 338.656272 
L 204.159243 335.623677 
L 204.163663 332.591081 
L 204.166554 329.558486 
L 204.168044 326.52589 
L 204.168554 323.493295 
L 204.168338 320.460699 
L 204.167281 317.428104 
L 204.165001 314.395508 
L 204.161245 311.362912 
L 204.156436 308.330317 
L 204.151862 305.297721 
L 204.14896 302.265126 
L 204.147922 299.23253 
L 204.146838 296.199935 
L 204.142555 293.167339 
L 204.132972 290.134744 
L 204.118951 287.102148 
L 204.103883 284.069553 
L 204.09098 281.036957 
L 204.080867 278.004362 
L 204.071898 274.971766 
L 204.06224 271.939171 
L 204.050512 268.906575 
L 204.034464 265.873979 
L 204.010894 262.841384 
L 203.978967 259.808788 
L 203.943933 256.776193 
L 203.91627 253.743597 
L 203.90527 250.711002 
L 203.911712 247.678406 
L 203.925617 244.645811 
L 203.931205 241.613215 
L 203.915854 238.58062 
L 203.877004 235.548024 
L 203.822523 232.515429 
L 203.765033 229.482833 
L 203.714904 226.450237 
L 203.67609 223.417642 
L 203.645714 220.385046 
L 203.617071 217.352451 
L 203.585364 214.319855 
L 203.55263 211.28726 
L 203.526697 208.254664 
L 203.514224 205.222069 
L 203.514693 202.189473 
L 203.520869 199.156878 
L 203.523561 196.124282 
L 203.515424 193.091687 
L 203.492219 190.059091 
L 203.453349 187.026495 
L 203.402392 183.9939 
L 203.345999 180.961304 
L 203.289764 177.928709 
L 203.232504 174.896113 
L 203.162532 171.863518 
L 203.058494 168.830922 
L 202.894869 165.798327 
L 202.650242 162.765731 
L 202.31382 159.733136 
L 201.883465 156.70054 
L 201.352404 153.667945 
L 200.692193 150.635349 
L 199.847911 147.602754 
L 198.759265 144.570158 
L 197.406688 141.537562 
L 195.860371 138.504967 
L 194.298975 135.472371 
L 192.978098 132.439776 
L 192.158456 129.40718 
L 192.024608 126.374585 
L 192.625094 123.341989 
L 193.85441 120.309394 
L 195.48613 117.276798 
L 197.248798 114.244203 
L 198.911223 111.211607 
L 200.334046 108.179012 
L 201.469465 105.146416 
L 202.329281 102.11382 
L 202.953062 99.081225 
L 203.389552 96.048629 
L 203.686505 93.016034 
L 203.883864 89.983438 
L 204.011022 86.950843 
L 204.088654 83.918247 
L 204.132207 80.885652 
L 204.153932 77.853056 
L 204.163039 74.820461 
L 204.165415 71.787865 
L 204.164075 68.75527 
L 204.160432 65.722674 
L 204.155703 62.690078 
L 204.15162 59.657483 
L 204.149994 56.624887 
L 204.188139 56.624887 
L 204.188139 56.624887 
L 204.186513 59.657483 
L 204.18243 62.690078 
L 204.177702 65.722674 
L 204.174059 68.75527 
L 204.172719 71.787865 
L 204.175094 74.820461 
L 204.184201 77.853056 
L 204.205926 80.885652 
L 204.249479 83.918247 
L 204.327112 86.950843 
L 204.45427 89.983438 
L 204.651628 93.016034 
L 204.948581 96.048629 
L 205.385072 99.081225 
L 206.008853 102.11382 
L 206.868668 105.146416 
L 208.004087 108.179012 
L 209.426911 111.211607 
L 211.089335 114.244203 
L 212.852003 117.276798 
L 214.483724 120.309394 
L 215.71304 123.341989 
L 216.313525 126.374585 
L 216.179678 129.40718 
L 215.360035 132.439776 
L 214.039158 135.472371 
L 212.477762 138.504967 
L 210.931445 141.537562 
L 209.578868 144.570158 
L 208.490223 147.602754 
L 207.64594 150.635349 
L 206.985729 153.667945 
L 206.454668 156.70054 
L 206.024314 159.733136 
L 205.687891 162.765731 
L 205.443264 165.798327 
L 205.279639 168.830922 
L 205.175601 171.863518 
L 205.10563 174.896113 
L 205.04837 177.928709 
L 204.992134 180.961304 
L 204.935741 183.9939 
L 204.884785 187.026495 
L 204.845915 190.059091 
L 204.822709 193.091687 
L 204.814572 196.124282 
L 204.817265 199.156878 
L 204.82344 202.189473 
L 204.82391 205.222069 
L 204.811436 208.254664 
L 204.785504 211.28726 
L 204.75277 214.319855 
L 204.721063 217.352451 
L 204.69242 220.385046 
L 204.662043 223.417642 
L 204.623229 226.450237 
L 204.573101 229.482833 
L 204.51561 232.515429 
L 204.461129 235.548024 
L 204.422279 238.58062 
L 204.406928 241.613215 
L 204.412516 244.645811 
L 204.426421 247.678406 
L 204.432863 250.711002 
L 204.421864 253.743597 
L 204.394201 256.776193 
L 204.359166 259.808788 
L 204.327239 262.841384 
L 204.30367 265.873979 
L 204.287621 268.906575 
L 204.275894 271.939171 
L 204.266235 274.971766 
L 204.257266 278.004362 
L 204.247153 281.036957 
L 204.234251 284.069553 
L 204.219183 287.102148 
L 204.205162 290.134744 
L 204.195579 293.167339 
L 204.191295 296.199935 
L 204.190211 299.23253 
L 204.189173 302.265126 
L 204.186272 305.297721 
L 204.181698 308.330317 
L 204.176888 311.362912 
L 204.173132 314.395508 
L 204.170852 317.428104 
L 204.169796 320.460699 
L 204.169579 323.493295 
L 204.170089 326.52589 
L 204.171579 329.558486 
L 204.17447 332.591081 
L 204.17889 335.623677 
L 204.184222 338.656272 
L 204.189187 341.688868 
L 204.192627 344.721463 
L 204.194297 347.754059 
L 204.194682 350.786654 
L 204.194057 353.81925 
L 204.192021 356.851846 
z
" clip-path="url(#pc60cfe41d8)" style="fill: #5e548e; fill-opacity: 0.6"/>
   </g>
   <g id="PolyCollection_8">
    <path d="M 301.362734 342.654252 
L 301.286733 342.654252 
L 301.283511 339.683449 
L 301.281916 336.712646 
L 301.281736 333.741843 
L 301.28288 330.77104 
L 301.285352 327.800237 
L 301.288917 324.829434 
L 301.292716 321.858631 
L 301.295165 318.887828 
L 301.294301 315.917025 
L 301.288404 312.946222 
L 301.276622 309.975419 
L 301.259255 307.004616 
L 301.237547 304.033813 
L 301.213034 301.06301 
L 301.186782 298.092207 
L 301.158988 295.121404 
L 301.129202 292.150601 
L 301.096966 289.179798 
L 301.062279 286.208995 
L 301.025421 283.238192 
L 300.98625 280.267389 
L 300.943773 277.296586 
L 300.896712 274.325783 
L 300.845061 271.35498 
L 300.791528 268.384177 
L 300.741457 265.413374 
L 300.700665 262.442571 
L 300.672219 259.471768 
L 300.654209 256.500964 
L 300.640146 253.530161 
L 300.621987 250.559358 
L 300.594148 247.588555 
L 300.556352 244.617752 
L 300.513976 241.646949 
L 300.475877 238.676146 
L 300.450719 235.705343 
L 300.443194 232.73454 
L 300.45143 229.763737 
L 300.466576 226.792934 
L 300.475035 223.822131 
L 300.462927 220.851328 
L 300.421213 217.880525 
L 300.349157 214.909722 
L 300.254243 211.938919 
L 300.148342 208.968116 
L 300.04204 205.997313 
L 299.940064 203.02651 
L 299.840056 200.055707 
L 299.734993 197.084904 
L 299.61752 194.114101 
L 299.483327 191.143298 
L 299.331135 188.172495 
L 299.158635 185.201692 
L 298.956327 182.230889 
L 298.703118 179.260086 
L 298.367189 176.289283 
L 297.912816 173.31848 
L 297.310195 170.347676 
L 296.543808 167.376873 
L 295.616638 164.40607 
L 294.551083 161.435267 
L 293.389616 158.464464 
L 292.197207 155.493661 
L 291.063889 152.522858 
L 290.102575 149.552055 
L 289.43718 146.581252 
L 289.180275 143.610449 
L 289.40557 140.639646 
L 290.124775 137.668843 
L 291.278009 134.69804 
L 292.742301 131.727237 
L 294.356277 128.756434 
L 295.953649 125.785631 
L 297.395378 122.814828 
L 298.591378 119.844025 
L 299.506866 116.873222 
L 300.154321 113.902419 
L 300.576663 110.931616 
L 300.828914 107.960813 
L 300.964079 104.99001 
L 301.025656 102.019207 
L 301.045998 99.048404 
L 301.047926 96.077601 
L 301.046988 93.106798 
L 301.052968 90.135995 
L 301.070571 87.165192 
L 301.099989 84.194389 
L 301.137951 81.223585 
L 301.179323 78.252782 
L 301.218821 75.281979 
L 301.25234 72.311176 
L 301.277573 69.340373 
L 301.293989 66.36957 
L 301.302411 63.398767 
L 301.304533 60.427964 
L 301.302534 57.457161 
L 301.298778 54.486358 
L 301.295481 51.515555 
L 301.294287 48.544752 
L 301.35518 48.544752 
L 301.35518 48.544752 
L 301.353986 51.515555 
L 301.350688 54.486358 
L 301.346933 57.457161 
L 301.344933 60.427964 
L 301.347055 63.398767 
L 301.355478 66.36957 
L 301.371893 69.340373 
L 301.397127 72.311176 
L 301.430645 75.281979 
L 301.470144 78.252782 
L 301.511515 81.223585 
L 301.549478 84.194389 
L 301.578896 87.165192 
L 301.596499 90.135995 
L 301.602479 93.106798 
L 301.601541 96.077601 
L 301.603468 99.048404 
L 301.623811 102.019207 
L 301.685388 104.99001 
L 301.820552 107.960813 
L 302.072804 110.931616 
L 302.495146 113.902419 
L 303.142601 116.873222 
L 304.058089 119.844025 
L 305.254089 122.814828 
L 306.695818 125.785631 
L 308.293189 128.756434 
L 309.907166 131.727237 
L 311.371458 134.69804 
L 312.524692 137.668843 
L 313.243896 140.639646 
L 313.469192 143.610449 
L 313.212287 146.581252 
L 312.546892 149.552055 
L 311.585578 152.522858 
L 310.45226 155.493661 
L 309.259851 158.464464 
L 308.098383 161.435267 
L 307.032828 164.40607 
L 306.105659 167.376873 
L 305.339272 170.347676 
L 304.736651 173.31848 
L 304.282278 176.289283 
L 303.946349 179.260086 
L 303.693139 182.230889 
L 303.490832 185.201692 
L 303.318331 188.172495 
L 303.166139 191.143298 
L 303.031946 194.114101 
L 302.914473 197.084904 
L 302.809411 200.055707 
L 302.709402 203.02651 
L 302.607427 205.997313 
L 302.501125 208.968116 
L 302.395224 211.938919 
L 302.30031 214.909722 
L 302.228254 217.880525 
L 302.186539 220.851328 
L 302.174431 223.822131 
L 302.18289 226.792934 
L 302.198036 229.763737 
L 302.206273 232.73454 
L 302.198748 235.705343 
L 302.17359 238.676146 
L 302.13549 241.646949 
L 302.093114 244.617752 
L 302.055319 247.588555 
L 302.02748 250.559358 
L 302.009321 253.530161 
L 301.995257 256.500964 
L 301.977247 259.471768 
L 301.948802 262.442571 
L 301.908009 265.413374 
L 301.857939 268.384177 
L 301.804406 271.35498 
L 301.752755 274.325783 
L 301.705694 277.296586 
L 301.663216 280.267389 
L 301.624046 283.238192 
L 301.587187 286.208995 
L 301.552501 289.179798 
L 301.520265 292.150601 
L 301.490479 295.121404 
L 301.462685 298.092207 
L 301.436433 301.06301 
L 301.411919 304.033813 
L 301.390212 307.004616 
L 301.372845 309.975419 
L 301.361063 312.946222 
L 301.355166 315.917025 
L 301.354301 318.887828 
L 301.356751 321.858631 
L 301.36055 324.829434 
L 301.364115 327.800237 
L 301.366587 330.77104 
L 301.36773 333.741843 
L 301.367551 336.712646 
L 301.365956 339.683449 
L 301.362734 342.654252 
z
" clip-path="url(#pc60cfe41d8)" style="fill: #5e548e; fill-opacity: 0.6"/>
   </g>
   <g id="PolyCollection_9">
    <path d="M 398.533595 385.456123 
L 398.427205 385.456123 
L 398.423968 382.069546 
L 398.422151 378.682968 
L 398.420956 375.29639 
L 398.419694 371.909813 
L 398.418067 368.523235 
L 398.416158 365.136657 
L 398.414197 361.750079 
L 398.412284 358.363502 
L 398.410263 354.976924 
L 398.407788 351.590346 
L 398.404437 348.203768 
L 398.399707 344.817191 
L 398.392822 341.430613 
L 398.382445 338.044035 
L 398.36651 334.657458 
L 398.342374 331.27088 
L 398.307377 327.884302 
L 398.259737 324.497724 
L 398.199486 321.111147 
L 398.129027 317.724569 
L 398.052974 314.337991 
L 397.977195 310.951414 
L 397.907393 307.564836 
L 397.847761 304.178258 
L 397.800171 300.79168 
L 397.764049 297.405103 
L 397.736811 294.018525 
L 397.714641 290.631947 
L 397.693464 287.24537 
L 397.669905 283.858792 
L 397.641977 280.472214 
L 397.6092 277.085636 
L 397.57209 273.699059 
L 397.531321 270.312481 
L 397.487114 266.925903 
L 397.439188 263.539325 
L 397.387189 260.152748 
L 397.33111 256.76617 
L 397.271224 253.379592 
L 397.207513 249.993015 
L 397.138981 246.606437 
L 397.063403 243.219859 
L 396.977664 239.833281 
L 396.878421 236.446704 
L 396.762587 233.060126 
L 396.627364 229.673548 
L 396.470001 226.286971 
L 396.287726 222.900393 
L 396.078135 219.513815 
L 395.839831 216.127237 
L 395.572661 212.74066 
L 395.276977 209.354082 
L 394.951886 205.967504 
L 394.593202 202.580927 
L 394.192091 199.194349 
L 393.735172 195.807771 
L 393.206221 192.421193 
L 392.589262 189.034616 
L 391.872763 185.648038 
L 391.054818 182.26146 
L 390.149033 178.874882 
L 389.190234 175.488305 
L 388.238198 172.101727 
L 387.37705 168.715149 
L 386.708188 165.328572 
L 386.335942 161.941994 
L 386.347521 158.555416 
L 386.791555 155.168838 
L 387.661585 151.782261 
L 388.890864 148.395683 
L 390.361912 145.009105 
L 391.929226 141.622528 
L 393.448429 138.23595 
L 394.802776 134.849372 
L 395.919421 131.462794 
L 396.772455 128.076217 
L 397.374803 124.689639 
L 397.764232 121.303061 
L 397.989033 117.916484 
L 398.097067 114.529906 
L 398.129393 111.143328 
L 398.117838 107.75675 
L 398.085183 104.370173 
L 398.046707 100.983595 
L 398.01219 97.597017 
L 397.987771 94.210439 
L 397.977257 90.823862 
L 397.982732 87.437284 
L 398.004597 84.050706 
L 398.041403 80.664129 
L 398.089876 77.277551 
L 398.145333 73.890973 
L 398.202471 70.504395 
L 398.256329 67.117818 
L 398.303191 63.73124 
L 398.341153 60.344662 
L 398.370228 56.958085 
L 398.391929 53.571507 
L 398.408495 50.184929 
L 398.552305 50.184929 
L 398.552305 50.184929 
L 398.568871 53.571507 
L 398.590572 56.958085 
L 398.619647 60.344662 
L 398.657609 63.73124 
L 398.704471 67.117818 
L 398.758329 70.504395 
L 398.815467 73.890973 
L 398.870924 77.277551 
L 398.919397 80.664129 
L 398.956203 84.050706 
L 398.978068 87.437284 
L 398.983543 90.823862 
L 398.973029 94.210439 
L 398.94861 97.597017 
L 398.914093 100.983595 
L 398.875617 104.370173 
L 398.842962 107.75675 
L 398.831407 111.143328 
L 398.863733 114.529906 
L 398.971767 117.916484 
L 399.196568 121.303061 
L 399.585997 124.689639 
L 400.188345 128.076217 
L 401.041379 131.462794 
L 402.158024 134.849372 
L 403.512371 138.23595 
L 405.031574 141.622528 
L 406.598888 145.009105 
L 408.069936 148.395683 
L 409.299215 151.782261 
L 410.169245 155.168838 
L 410.613279 158.555416 
L 410.624858 161.941994 
L 410.252612 165.328572 
L 409.58375 168.715149 
L 408.722602 172.101727 
L 407.770566 175.488305 
L 406.811767 178.874882 
L 405.905982 182.26146 
L 405.088037 185.648038 
L 404.371538 189.034616 
L 403.754579 192.421193 
L 403.225628 195.807771 
L 402.768709 199.194349 
L 402.367598 202.580927 
L 402.008914 205.967504 
L 401.683823 209.354082 
L 401.388139 212.74066 
L 401.120969 216.127237 
L 400.882665 219.513815 
L 400.673074 222.900393 
L 400.490799 226.286971 
L 400.333436 229.673548 
L 400.198213 233.060126 
L 400.082379 236.446704 
L 399.983136 239.833281 
L 399.897397 243.219859 
L 399.821819 246.606437 
L 399.753287 249.993015 
L 399.689576 253.379592 
L 399.62969 256.76617 
L 399.573611 260.152748 
L 399.521612 263.539325 
L 399.473686 266.925903 
L 399.429479 270.312481 
L 399.38871 273.699059 
L 399.3516 277.085636 
L 399.318823 280.472214 
L 399.290895 283.858792 
L 399.267336 287.24537 
L 399.246159 290.631947 
L 399.223989 294.018525 
L 399.196751 297.405103 
L 399.160629 300.79168 
L 399.113039 304.178258 
L 399.053407 307.564836 
L 398.983605 310.951414 
L 398.907826 314.337991 
L 398.831773 317.724569 
L 398.761314 321.111147 
L 398.701063 324.497724 
L 398.653423 327.884302 
L 398.618426 331.27088 
L 398.59429 334.657458 
L 398.578355 338.044035 
L 398.567978 341.430613 
L 398.561093 344.817191 
L 398.556363 348.203768 
L 398.553012 351.590346 
L 398.550537 354.976924 
L 398.548516 358.363502 
L 398.546603 361.750079 
L 398.544642 365.136657 
L 398.542733 368.523235 
L 398.541106 371.909813 
L 398.539844 375.29639 
L 398.538649 378.682968 
L 398.536832 382.069546 
L 398.533595 385.456123 
z
" clip-path="url(#pc60cfe41d8)" style="fill: #5e548e; fill-opacity: 0.6"/>
   </g>
   <g id="PolyCollection_10">
    <path d="M 495.711967 415.786951 
L 495.560166 415.786951 
L 495.562958 412.055769 
L 495.57073 408.324587 
L 495.581766 404.593405 
L 495.593809 400.862223 
L 495.604648 397.131041 
L 495.612544 393.399859 
L 495.616378 389.668677 
L 495.615611 385.937495 
L 495.610174 382.206313 
L 495.600395 378.475131 
L 495.586933 374.743949 
L 495.570598 371.012767 
L 495.551956 367.281585 
L 495.530807 363.550403 
L 495.505797 359.819221 
L 495.474538 356.088039 
L 495.434398 352.356857 
L 495.383758 348.625675 
L 495.323177 344.894493 
L 495.2558 341.163311 
L 495.18671 337.432129 
L 495.121437 333.700947 
L 495.064264 329.969765 
L 495.016969 326.238583 
L 494.978295 322.507401 
L 494.944099 318.776219 
L 494.907997 315.045037 
L 494.862449 311.313855 
L 494.800225 307.582673 
L 494.716023 303.851491 
L 494.60764 300.120309 
L 494.476074 296.389127 
L 494.324399 292.657945 
L 494.156027 288.926763 
L 493.973415 285.195581 
L 493.778039 281.464399 
L 493.571533 277.733217 
L 493.35695 274.002035 
L 493.138925 270.270853 
L 492.922203 266.539671 
L 492.709281 262.808489 
L 492.498739 259.077307 
L 492.285674 255.346125 
L 492.064421 251.614943 
L 491.832195 247.883761 
L 491.591427 244.152579 
L 491.349064 240.421397 
L 491.112698 236.690215 
L 490.8853 232.959033 
L 490.661286 229.227851 
L 490.42607 225.496669 
L 490.159438 221.765487 
L 489.840987 218.034305 
L 489.454864 214.303123 
L 488.991708 210.571941 
L 488.44775 206.840759 
L 487.823199 203.109577 
L 487.1229 199.378395 
L 486.360999 195.647213 
L 485.568539 191.916031 
L 484.800107 188.184849 
L 484.134655 184.453667 
L 483.667183 180.722485 
L 483.491608 176.991303 
L 483.679135 173.260121 
L 484.258934 169.528939 
L 485.207661 165.797757 
L 486.451457 162.066575 
L 487.879801 158.335393 
L 489.366874 154.604211 
L 490.794174 150.873029 
L 492.068654 147.141847 
L 493.132793 143.410665 
L 493.965838 139.679483 
L 494.577824 135.948301 
L 494.999422 132.217119 
L 495.27092 128.485937 
L 495.433011 124.754755 
L 495.520822 121.023573 
L 495.561379 117.292391 
L 495.573697 113.561209 
L 495.570297 109.830027 
L 495.559027 106.098845 
L 495.544537 102.367663 
L 495.529267 98.636481 
L 495.514175 94.905299 
L 495.499486 91.174117 
L 495.485482 87.442935 
L 495.473107 83.711753 
L 495.464037 79.980571 
L 495.460122 76.249389 
L 495.462465 72.518207 
L 495.470707 68.787025 
L 495.483006 65.055843 
L 495.496782 61.324661 
L 495.509828 57.593479 
L 495.521177 53.862297 
L 495.531258 50.131115 
L 495.541337 46.399933 
L 495.730796 46.399933 
L 495.730796 46.399933 
L 495.740875 50.131115 
L 495.750956 53.862297 
L 495.762305 57.593479 
L 495.775352 61.324661 
L 495.789127 65.055843 
L 495.801426 68.787025 
L 495.809669 72.518207 
L 495.812011 76.249389 
L 495.808097 79.980571 
L 495.799027 83.711753 
L 495.786651 87.442935 
L 495.772647 91.174117 
L 495.757958 94.905299 
L 495.742866 98.636481 
L 495.727596 102.367663 
L 495.713106 106.098845 
L 495.701837 109.830027 
L 495.698436 113.561209 
L 495.710754 117.292391 
L 495.751311 121.023573 
L 495.839122 124.754755 
L 496.001213 128.485937 
L 496.272712 132.217119 
L 496.694309 135.948301 
L 497.306295 139.679483 
L 498.13934 143.410665 
L 499.203479 147.141847 
L 500.477959 150.873029 
L 501.905259 154.604211 
L 503.392333 158.335393 
L 504.820677 162.066575 
L 506.064472 165.797757 
L 507.0132 169.528939 
L 507.592999 173.260121 
L 507.780525 176.991303 
L 507.60495 180.722485 
L 507.137479 184.453667 
L 506.472026 188.184849 
L 505.703594 191.916031 
L 504.911134 195.647213 
L 504.149234 199.378395 
L 503.448935 203.109577 
L 502.824383 206.840759 
L 502.280425 210.571941 
L 501.81727 214.303123 
L 501.431146 218.034305 
L 501.112696 221.765487 
L 500.846064 225.496669 
L 500.610848 229.227851 
L 500.386833 232.959033 
L 500.159435 236.690215 
L 499.923069 240.421397 
L 499.680706 244.152579 
L 499.439939 247.883761 
L 499.207712 251.614943 
L 498.98646 255.346125 
L 498.773395 259.077307 
L 498.562852 262.808489 
L 498.34993 266.539671 
L 498.133208 270.270853 
L 497.915183 274.002035 
L 497.700601 277.733217 
L 497.494094 281.464399 
L 497.298719 285.195581 
L 497.116106 288.926763 
L 496.947734 292.657945 
L 496.79606 296.389127 
L 496.664493 300.120309 
L 496.55611 303.851491 
L 496.471909 307.582673 
L 496.409684 311.313855 
L 496.364136 315.045037 
L 496.328035 318.776219 
L 496.293838 322.507401 
L 496.255164 326.238583 
L 496.207869 329.969765 
L 496.150697 333.700947 
L 496.085424 337.432129 
L 496.016334 341.163311 
L 495.948957 344.894493 
L 495.888375 348.625675 
L 495.837735 352.356857 
L 495.797595 356.088039 
L 495.766337 359.819221 
L 495.741327 363.550403 
L 495.720177 367.281585 
L 495.701535 371.012767 
L 495.6852 374.743949 
L 495.671738 378.475131 
L 495.661959 382.206313 
L 495.656522 385.937495 
L 495.655755 389.668677 
L 495.65959 393.399859 
L 495.667485 397.131041 
L 495.678324 400.862223 
L 495.690367 404.593405 
L 495.701403 408.324587 
L 495.709175 412.055769 
L 495.711967 415.786951 
z
" clip-path="url(#pc60cfe41d8)" style="fill: #5e548e; fill-opacity: 0.6"/>
   </g>
   <g id="matplotlib.axis_1">
    <g id="xtick_1">
     <g id="line2d_1">
      <defs>
       <path id="m006e1e3df0" d="M 0 0 
L 0 4 
" style="stroke: #000000; stroke-width: 0.8"/>
      </defs>
      <g>
       <use xlink:href="#m006e1e3df0" x="94.868942" y="323.256313" style="stroke: #000000; stroke-width: 0.8"/>
      </g>
     </g>
     <g id="text_1">
      <!-- 0-20 -->
      <g transform="translate(83.681297 368.405109) rotate(-45) scale(0.18 -0.18)">
       <defs>
        <path id="Figtree-Regular-30" d="M 2048 -77 
Q 1536 -77 1139 220 
Q 742 518 518 1040 
Q 294 1562 294 2240 
Q 294 2918 518 3440 
Q 742 3962 1136 4259 
Q 1530 4557 2048 4557 
Q 2566 4557 2960 4259 
Q 3354 3962 3581 3440 
Q 3808 2918 3808 2240 
Q 3808 1562 3584 1040 
Q 3360 518 2963 220 
Q 2566 -77 2048 -77 
z
M 2048 410 
Q 2406 410 2684 646 
Q 2963 883 3120 1292 
Q 3277 1702 3277 2240 
Q 3277 2778 3120 3190 
Q 2963 3603 2684 3836 
Q 2406 4070 2048 4070 
Q 1690 4070 1414 3836 
Q 1139 3603 982 3190 
Q 826 2778 826 2240 
Q 826 1702 982 1292 
Q 1139 883 1417 646 
Q 1696 410 2048 410 
z
" transform="scale(0.015625)"/>
        <path id="Figtree-Regular-2d" d="M 371 1670 
L 371 2138 
L 2291 2138 
L 2291 1670 
L 371 1670 
z
" transform="scale(0.015625)"/>
        <path id="Figtree-Regular-32" d="M 365 0 
L 365 448 
Q 365 659 451 867 
Q 538 1075 701 1280 
Q 864 1485 1101 1664 
L 2029 2362 
Q 2195 2477 2320 2627 
Q 2445 2778 2515 2941 
Q 2586 3104 2586 3258 
Q 2586 3482 2477 3664 
Q 2368 3846 2169 3955 
Q 1971 4064 1702 4064 
Q 1440 4064 1241 3965 
Q 1043 3866 915 3702 
Q 787 3539 730 3354 
L 179 3462 
Q 256 3750 457 4000 
Q 659 4250 972 4403 
Q 1286 4557 1670 4557 
Q 2118 4557 2444 4387 
Q 2771 4218 2953 3926 
Q 3136 3635 3136 3264 
Q 3136 2912 2944 2598 
Q 2752 2285 2387 1990 
L 1510 1325 
Q 1254 1133 1116 921 
Q 979 710 960 480 
L 3200 480 
L 3200 0 
L 365 0 
z
" transform="scale(0.015625)"/>
       </defs>
       <use xlink:href="#Figtree-Regular-30"/>
       <use xlink:href="#Figtree-Regular-2d" x="64.099991"/>
       <use xlink:href="#Figtree-Regular-32" x="105.799988"/>
       <use xlink:href="#Figtree-Regular-30" x="161.699982"/>
      </g>
     </g>
    </g>
    <g id="xtick_2">
     <g id="line2d_2">
      <g>
       <use xlink:href="#m006e1e3df0" x="192.024608" y="323.256313" style="stroke: #000000; stroke-width: 0.8"/>
      </g>
     </g>
     <g id="text_2">
      <!-- 20-40 -->
      <g transform="translate(176.885342 376.308353) rotate(-45) scale(0.18 -0.18)">
       <defs>
        <path id="Figtree-Regular-34" d="M 2342 0 
L 2342 1088 
L 275 1088 
L 275 1504 
L 2317 4480 
L 2867 4480 
L 2867 1568 
L 3782 1568 
L 3782 1088 
L 2867 1088 
L 2867 0 
L 2342 0 
z
M 896 1568 
L 2342 1568 
L 2342 3693 
L 896 1568 
z
" transform="scale(0.015625)"/>
       </defs>
       <use xlink:href="#Figtree-Regular-32"/>
       <use xlink:href="#Figtree-Regular-30" x="55.899994"/>
       <use xlink:href="#Figtree-Regular-2d" x="119.999985"/>
       <use xlink:href="#Figtree-Regular-34" x="161.699982"/>
       <use xlink:href="#Figtree-Regular-30" x="223.799973"/>
      </g>
     </g>
    </g>
    <g id="xtick_3">
     <g id="line2d_3">
      <g>
       <use xlink:href="#m006e1e3df0" x="289.180275" y="323.256313" style="stroke: #000000; stroke-width: 0.8"/>
      </g>
     </g>
     <g id="text_3">
      <!-- 40-60 -->
      <g transform="translate(273.997256 376.395858) rotate(-45) scale(0.18 -0.18)">
       <defs>
        <path id="Figtree-Regular-36" d="M 1907 -77 
Q 1446 -77 1132 99 
Q 819 275 633 576 
Q 448 877 368 1270 
Q 288 1664 288 2106 
Q 288 2682 406 3136 
Q 525 3590 749 3907 
Q 973 4224 1293 4390 
Q 1613 4557 2016 4557 
Q 2349 4557 2678 4451 
Q 3008 4346 3264 4160 
L 2963 3776 
Q 2758 3917 2521 3997 
Q 2285 4077 2067 4077 
Q 1414 4077 1075 3526 
Q 736 2976 774 1856 
L 659 1971 
Q 813 2362 1152 2589 
Q 1491 2816 1952 2816 
Q 2381 2816 2717 2630 
Q 3053 2445 3241 2115 
Q 3430 1786 3430 1363 
Q 3430 947 3238 617 
Q 3046 288 2704 105 
Q 2362 -77 1907 -77 
z
M 1907 397 
Q 2195 397 2416 521 
Q 2637 646 2761 867 
Q 2886 1088 2886 1376 
Q 2886 1664 2761 1885 
Q 2637 2106 2416 2227 
Q 2195 2349 1907 2349 
Q 1626 2349 1402 2227 
Q 1178 2106 1050 1885 
Q 922 1664 922 1376 
Q 922 1088 1050 867 
Q 1178 646 1402 521 
Q 1626 397 1907 397 
z
" transform="scale(0.015625)"/>
       </defs>
       <use xlink:href="#Figtree-Regular-34"/>
       <use xlink:href="#Figtree-Regular-30" x="62.099991"/>
       <use xlink:href="#Figtree-Regular-2d" x="126.199982"/>
       <use xlink:href="#Figtree-Regular-36" x="167.899979"/>
       <use xlink:href="#Figtree-Regular-30" x="224.499969"/>
      </g>
     </g>
    </g>
    <g id="xtick_4">
     <g id="line2d_4">
      <g>
       <use xlink:href="#m006e1e3df0" x="386.335942" y="323.256313" style="stroke: #000000; stroke-width: 0.8"/>
      </g>
     </g>
     <g id="text_4">
      <!-- 60-80 -->
      <g transform="translate(371.196675 376.308353) rotate(-45) scale(0.18 -0.18)">
       <defs>
        <path id="Figtree-Regular-38" d="M 1958 -77 
Q 1478 -77 1113 80 
Q 749 237 550 515 
Q 352 794 352 1165 
Q 352 1555 550 1849 
Q 749 2144 1113 2307 
Q 1478 2470 1958 2470 
Q 2451 2470 2812 2307 
Q 3174 2144 3376 1849 
Q 3578 1555 3578 1165 
Q 3578 794 3376 515 
Q 3174 237 2812 80 
Q 2451 -77 1958 -77 
z
M 1958 397 
Q 2432 397 2733 624 
Q 3034 851 3034 1216 
Q 3034 1587 2733 1820 
Q 2432 2054 1958 2054 
Q 1651 2054 1411 1948 
Q 1171 1843 1033 1654 
Q 896 1466 896 1216 
Q 896 973 1033 787 
Q 1171 602 1411 499 
Q 1651 397 1958 397 
z
M 1958 2157 
Q 1530 2157 1203 2307 
Q 877 2458 697 2723 
Q 518 2989 518 3341 
Q 518 3699 697 3974 
Q 877 4250 1203 4403 
Q 1530 4557 1958 4557 
Q 2400 4557 2723 4403 
Q 3046 4250 3228 3974 
Q 3411 3699 3411 3341 
Q 3411 2989 3228 2723 
Q 3046 2458 2723 2307 
Q 2400 2157 1958 2157 
z
M 1958 2560 
Q 2362 2560 2621 2761 
Q 2880 2963 2880 3290 
Q 2880 3648 2621 3869 
Q 2362 4090 1958 4090 
Q 1562 4090 1306 3869 
Q 1050 3648 1050 3290 
Q 1050 2963 1306 2761 
Q 1562 2560 1958 2560 
z
" transform="scale(0.015625)"/>
       </defs>
       <use xlink:href="#Figtree-Regular-36"/>
       <use xlink:href="#Figtree-Regular-30" x="56.599991"/>
       <use xlink:href="#Figtree-Regular-2d" x="120.699982"/>
       <use xlink:href="#Figtree-Regular-38" x="162.399979"/>
       <use xlink:href="#Figtree-Regular-30" x="223.799973"/>
      </g>
     </g>
    </g>
    <g id="xtick_5">
     <g id="line2d_5">
      <g>
       <use xlink:href="#m006e1e3df0" x="483.491608" y="323.256313" style="stroke: #000000; stroke-width: 0.8"/>
      </g>
     </g>
     <g id="text_5">
      <!-- 80-100 -->
      <g transform="translate(465.246928 382.519181) rotate(-45) scale(0.18 -0.18)">
       <defs>
        <path id="Figtree-Regular-31" d="M 1389 0 
L 1389 4192 
L 1434 4480 
L 1920 4480 
L 1920 0 
L 1389 0 
z
M 384 3328 
L 384 3821 
Q 518 3814 704 3910 
Q 890 4006 1088 4160 
Q 1286 4314 1434 4480 
L 1766 4115 
Q 1555 3891 1324 3712 
Q 1094 3533 857 3427 
Q 621 3322 384 3328 
z
" transform="scale(0.015625)"/>
       </defs>
       <use xlink:href="#Figtree-Regular-38"/>
       <use xlink:href="#Figtree-Regular-30" x="61.399994"/>
       <use xlink:href="#Figtree-Regular-2d" x="125.499985"/>
       <use xlink:href="#Figtree-Regular-31" x="167.199982"/>
       <use xlink:href="#Figtree-Regular-30" x="208.499969"/>
       <use xlink:href="#Figtree-Regular-30" x="272.59996"/>
      </g>
     </g>
    </g>
   </g>
   <g id="matplotlib.axis_2">
    <g id="ytick_1">
     <g id="line2d_6">
      <defs>
       <path id="m4260cc9d6f" d="M 0 0 
L -4 0 
" style="stroke: #000000; stroke-width: 0.8"/>
      </defs>
      <g>
       <use xlink:href="#m4260cc9d6f" x="48.72" y="270.580261" style="stroke: #000000; stroke-width: 0.8"/>
      </g>
     </g>
     <g id="text_6">
      <!-- $10^{-2}$ -->
      <g transform="translate(7.2 276.880261) scale(0.18 -0.18)">
       <defs>
        <path id="STIXGeneral-Regular-31" d="M 2522 0 
L 755 0 
L 755 96 
Q 1107 115 1235 227 
Q 1363 339 1363 608 
L 1363 3482 
Q 1363 3795 1171 3795 
Q 1082 3795 883 3718 
L 710 3654 
L 710 3744 
L 1856 4326 
L 1914 4307 
L 1914 486 
Q 1914 275 2042 185 
Q 2170 96 2522 96 
L 2522 0 
z
" transform="scale(0.015625)"/>
        <path id="STIXGeneral-Regular-30" d="M 3046 2112 
Q 3046 1683 2963 1302 
Q 2880 922 2717 602 
Q 2554 282 2266 96 
Q 1978 -90 1600 -90 
Q 1210 -90 915 108 
Q 621 307 461 640 
Q 301 973 227 1350 
Q 154 1728 154 2150 
Q 154 2746 301 3222 
Q 448 3699 790 4012 
Q 1133 4326 1626 4326 
Q 2253 4326 2649 3712 
Q 3046 3098 3046 2112 
z
M 2432 2080 
Q 2432 3091 2217 3625 
Q 2003 4160 1587 4160 
Q 1190 4160 979 3622 
Q 768 3085 768 2106 
Q 768 1120 979 598 
Q 1190 77 1600 77 
Q 2003 77 2217 598 
Q 2432 1120 2432 2080 
z
" transform="scale(0.015625)"/>
        <path id="STIXGeneral-Regular-2212" d="M 3974 1408 
L 410 1408 
L 410 1830 
L 3974 1830 
L 3974 1408 
z
" transform="scale(0.015625)"/>
        <path id="STIXGeneral-Regular-32" d="M 3034 877 
L 2688 0 
L 186 0 
L 186 77 
L 1325 1286 
Q 1773 1754 1965 2144 
Q 2157 2534 2157 2950 
Q 2157 3379 1920 3616 
Q 1683 3853 1267 3853 
Q 922 3853 720 3673 
Q 518 3494 326 3021 
L 192 3053 
Q 301 3648 630 3987 
Q 960 4326 1523 4326 
Q 2054 4326 2380 4006 
Q 2707 3686 2707 3200 
Q 2707 2477 1888 1613 
L 832 486 
L 2330 486 
Q 2541 486 2665 569 
Q 2790 653 2944 915 
L 3034 877 
z
" transform="scale(0.015625)"/>
       </defs>
       <use xlink:href="#STIXGeneral-Regular-31" transform="translate(0 0.409375)"/>
       <use xlink:href="#STIXGeneral-Regular-30" transform="translate(49.999985 0.409375)"/>
       <use xlink:href="#STIXGeneral-Regular-2212" transform="translate(101.543251 35.684375) scale(0.7)"/>
       <use xlink:href="#STIXGeneral-Regular-32" transform="translate(149.49324 35.684375) scale(0.7)"/>
      </g>
     </g>
    </g>
    <g id="ytick_2">
     <g id="line2d_7">
      <g>
       <use xlink:href="#m4260cc9d6f" x="48.72" y="165.228157" style="stroke: #000000; stroke-width: 0.8"/>
      </g>
     </g>
     <g id="text_7">
      <!-- $10^{-1}$ -->
      <g transform="translate(7.2 171.528157) scale(0.18 -0.18)">
       <use xlink:href="#STIXGeneral-Regular-31" transform="translate(0 0.409375)"/>
       <use xlink:href="#STIXGeneral-Regular-30" transform="translate(49.999985 0.409375)"/>
       <use xlink:href="#STIXGeneral-Regular-2212" transform="translate(101.543251 35.684375) scale(0.7)"/>
       <use xlink:href="#STIXGeneral-Regular-31" transform="translate(149.49324 35.684375) scale(0.7)"/>
      </g>
     </g>
    </g>
    <g id="ytick_3">
     <g id="line2d_8">
      <g>
       <use xlink:href="#m4260cc9d6f" x="48.72" y="59.876052" style="stroke: #000000; stroke-width: 0.8"/>
      </g>
     </g>
     <g id="text_8">
      <!-- $10^{0}$ -->
      <g transform="translate(15.84 66.176052) scale(0.18 -0.18)">
       <use xlink:href="#STIXGeneral-Regular-31" transform="translate(0 0.409375)"/>
       <use xlink:href="#STIXGeneral-Regular-30" transform="translate(49.999985 0.409375)"/>
       <use xlink:href="#STIXGeneral-Regular-30" transform="translate(101.543251 35.684375) scale(0.7)"/>
      </g>
     </g>
    </g>
   </g>
   <g id="LineCollection_1">
    <path d="M 76.652254 166.729738 
L 88.796712 166.729738 
" clip-path="url(#pc60cfe41d8)" style="fill: none; stroke: #363636; stroke-width: 1.5"/>
    <path d="M 173.807921 184.622562 
L 185.952379 184.622562 
" clip-path="url(#pc60cfe41d8)" style="fill: none; stroke: #363636; stroke-width: 1.5"/>
    <path d="M 270.963587 195.749818 
L 283.108046 195.749818 
" clip-path="url(#pc60cfe41d8)" style="fill: none; stroke: #363636; stroke-width: 1.5"/>
    <path d="M 368.119254 204.004725 
L 380.263712 204.004725 
" clip-path="url(#pc60cfe41d8)" style="fill: none; stroke: #363636; stroke-width: 1.5"/>
    <path d="M 465.274921 213.081589 
L 477.419379 213.081589 
" clip-path="url(#pc60cfe41d8)" style="fill: none; stroke: #363636; stroke-width: 1.5"/>
   </g>
   <g id="LineCollection_2">
    <path d="M 100.941171 111.34459 
L 113.085629 111.34459 
" clip-path="url(#pc60cfe41d8)" style="fill: none; stroke: #363636; stroke-width: 1.5"/>
    <path d="M 198.096837 130.09625 
L 210.241296 130.09625 
" clip-path="url(#pc60cfe41d8)" style="fill: none; stroke: #363636; stroke-width: 1.5"/>
    <path d="M 295.252504 148.195449 
L 307.396962 148.195449 
" clip-path="url(#pc60cfe41d8)" style="fill: none; stroke: #363636; stroke-width: 1.5"/>
    <path d="M 392.408171 167.507553 
L 404.552629 167.507553 
" clip-path="url(#pc60cfe41d8)" style="fill: none; stroke: #363636; stroke-width: 1.5"/>
    <path d="M 489.563837 190.090381 
L 501.708296 190.090381 
" clip-path="url(#pc60cfe41d8)" style="fill: none; stroke: #363636; stroke-width: 1.5"/>
   </g>
   <g id="line2d_9">
    <path d="M 74.223362 69.151845 
L 76.402042 79.875322 
L 78.580721 87.147478 
L 80.7594 92.657043 
L 82.938079 97.093893 
L 85.116759 100.808436 
L 87.295438 104.003253 
L 89.474117 106.806089 
L 91.652796 109.302703 
L 93.831475 111.553467 
L 96.010155 113.602488 
L 100.367513 117.220558 
L 104.724871 120.343789 
L 109.08223 123.091395 
L 113.439588 125.544105 
L 117.796947 127.759129 
L 122.154305 129.778492 
L 128.690343 132.508169 
L 135.22638 134.946585 
L 141.762418 137.149948 
L 148.298456 139.159615 
L 157.013172 141.590947 
L 165.727889 143.788524 
L 176.621285 146.268293 
L 187.514681 148.505359 
L 200.586757 150.929648 
L 213.658832 153.12147 
L 228.909586 155.438516 
L 246.33902 157.827667 
L 263.768454 159.990733 
L 283.376567 162.202256 
L 305.163359 164.432169 
L 329.12883 166.657489 
L 355.27298 168.861149 
L 383.59581 171.03085 
L 416.275998 173.302667 
L 451.134866 175.500467 
L 490.351091 177.744216 
L 507.780525 178.674905 
L 507.780525 178.674905 
" clip-path="url(#pc60cfe41d8)" style="fill: none; stroke: #000000; stroke-width: 3; stroke-linecap: square"/>
   </g>
   <g id="patch_3">
    <path d="M 48.72 323.256313 
L 48.72 7.2 
" style="fill: none; stroke: #000000; stroke-width: 1.5; stroke-linejoin: miter; stroke-linecap: square"/>
   </g>
   <g id="patch_4">
    <path d="M 48.72 323.256313 
L 529.64055 323.256313 
" style="fill: none; stroke: #000000; stroke-width: 1.5; stroke-linejoin: miter; stroke-linecap: square"/>
   </g>
  </g>
 </g>
 <defs>
  <clipPath id="pc60cfe41d8">
   <rect x="48.72" y="7.2" width="480.92055" height="316.056313"/>
  </clipPath>
 </defs>
</svg>
