<?xml version="1.0" encoding="utf-8" standalone="no"?>
<!DOCTYPE svg PUBLIC "-//W3C//DTD SVG 1.1//EN"
  "http://www.w3.org/Graphics/SVG/1.1/DTD/svg11.dtd">
<svg xmlns:xlink="http://www.w3.org/1999/xlink" width="536.493438pt" height="391.86pt" viewBox="0 0 536.493438 391.86" xmlns="http://www.w3.org/2000/svg" version="1.1">
 <metadata>
  <rdf:RDF xmlns:dc="http://purl.org/dc/elements/1.1/" xmlns:cc="http://creativecommons.org/ns#" xmlns:rdf="http://www.w3.org/1999/02/22-rdf-syntax-ns#">
   <cc:Work>
    <dc:type rdf:resource="http://purl.org/dc/dcmitype/StillImage"/>
    <dc:date>2025-07-15T16:58:43.687083</dc:date>
    <dc:format>image/svg+xml</dc:format>
    <dc:creator>
     <cc:Agent>
      <dc:title>Matplotlib v3.9.2, https://matplotlib.org/</dc:title>
     </cc:Agent>
    </dc:creator>
   </cc:Work>
  </rdf:RDF>
 </metadata>
 <defs>
  <style type="text/css">*{stroke-linejoin: round; stroke-linecap: butt}</style>
 </defs>
 <g id="figure_1">
  <g id="patch_1">
   <path d="M 0 391.86 
L 536.493438 391.86 
L 536.493438 0 
L 0 0 
z
" style="fill: #ffffff"/>
  </g>
  <g id="axes_1">
   <g id="patch_2">
    <path d="M 30.723438 354.66 
L 529.293437 354.66 
L 529.293437 7.2 
L 30.723438 7.2 
z
" style="fill: #ffffff"/>
   </g>
   <g id="patch_3">
    <path d="M 53.38571 354.66 
L 91.156165 354.66 
L 91.156165 338.457197 
L 53.38571 338.457197 
z
" clip-path="url(#p887772e540)" style="fill: #5e548e; opacity: 0.7"/>
   </g>
   <g id="patch_4">
    <path d="M 91.156165 354.66 
L 128.926619 354.66 
L 128.926619 330.355795 
L 91.156165 330.355795 
z
" clip-path="url(#p887772e540)" style="fill: #5e548e; opacity: 0.7"/>
   </g>
   <g id="patch_5">
    <path d="M 128.926619 354.66 
L 166.697074 354.66 
L 166.697074 330.355795 
L 128.926619 330.355795 
z
" clip-path="url(#p887772e540)" style="fill: #5e548e; opacity: 0.7"/>
   </g>
   <g id="patch_6">
    <path d="M 166.697074 354.66 
L 204.467528 354.66 
L 204.467528 306.051591 
L 166.697074 306.051591 
z
" clip-path="url(#p887772e540)" style="fill: #5e548e; opacity: 0.7"/>
   </g>
   <g id="patch_7">
    <path d="M 204.467528 354.66 
L 242.237983 354.66 
L 242.237983 297.950189 
L 204.467528 297.950189 
z
" clip-path="url(#p887772e540)" style="fill: #5e548e; opacity: 0.7"/>
   </g>
   <g id="patch_8">
    <path d="M 242.237983 354.66 
L 280.008438 354.66 
L 280.008438 287.148321 
L 242.237983 287.148321 
z
" clip-path="url(#p887772e540)" style="fill: #5e548e; opacity: 0.7"/>
   </g>
   <g id="patch_9">
    <path d="M 280.008438 354.66 
L 317.778892 354.66 
L 317.778892 327.655328 
L 280.008438 327.655328 
z
" clip-path="url(#p887772e540)" style="fill: #5e548e; opacity: 0.7"/>
   </g>
   <g id="patch_10">
    <path d="M 317.778892 354.66 
L 355.549347 354.66 
L 355.549347 354.66 
L 317.778892 354.66 
z
" clip-path="url(#p887772e540)" style="fill: #5e548e; opacity: 0.7"/>
   </g>
   <g id="patch_11">
    <path d="M 355.549347 354.66 
L 393.319801 354.66 
L 393.319801 354.66 
L 355.549347 354.66 
z
" clip-path="url(#p887772e540)" style="fill: #5e548e; opacity: 0.7"/>
   </g>
   <g id="patch_12">
    <path d="M 393.319801 354.66 
L 431.090256 354.66 
L 431.090256 354.66 
L 393.319801 354.66 
z
" clip-path="url(#p887772e540)" style="fill: #5e548e; opacity: 0.7"/>
   </g>
   <g id="patch_13">
    <path d="M 431.090256 354.66 
L 468.86071 354.66 
L 468.86071 351.959533 
L 431.090256 351.959533 
z
" clip-path="url(#p887772e540)" style="fill: #5e548e; opacity: 0.7"/>
   </g>
   <g id="patch_14">
    <path d="M 468.86071 354.66 
L 506.631165 354.66 
L 506.631165 351.959533 
L 468.86071 351.959533 
z
" clip-path="url(#p887772e540)" style="fill: #5e548e; opacity: 0.7"/>
   </g>
   <g id="patch_15">
    <path d="M 109.526083 354.66 
L 127.848184 354.66 
L 127.848184 349.093069 
L 109.526083 349.093069 
z
" clip-path="url(#p887772e540)" style="fill: #e85d04; opacity: 0.7"/>
   </g>
   <g id="patch_16">
    <path d="M 127.848184 354.66 
L 146.170284 354.66 
L 146.170284 315.691482 
L 127.848184 315.691482 
z
" clip-path="url(#p887772e540)" style="fill: #e85d04; opacity: 0.7"/>
   </g>
   <g id="patch_17">
    <path d="M 146.170284 354.66 
L 164.492385 354.66 
L 164.492385 293.423757 
L 146.170284 293.423757 
z
" clip-path="url(#p887772e540)" style="fill: #e85d04; opacity: 0.7"/>
   </g>
   <g id="patch_18">
    <path d="M 164.492385 354.66 
L 182.814485 354.66 
L 182.814485 276.722963 
L 164.492385 276.722963 
z
" clip-path="url(#p887772e540)" style="fill: #e85d04; opacity: 0.7"/>
   </g>
   <g id="patch_19">
    <path d="M 182.814485 354.66 
L 201.136585 354.66 
L 201.136585 221.053651 
L 182.814485 221.053651 
z
" clip-path="url(#p887772e540)" style="fill: #e85d04; opacity: 0.7"/>
   </g>
   <g id="patch_20">
    <path d="M 201.136585 354.66 
L 219.458686 354.66 
L 219.458686 221.053651 
L 201.136585 221.053651 
z
" clip-path="url(#p887772e540)" style="fill: #e85d04; opacity: 0.7"/>
   </g>
   <g id="patch_21">
    <path d="M 219.458686 354.66 
L 237.780786 354.66 
L 237.780786 271.156032 
L 219.458686 271.156032 
z
" clip-path="url(#p887772e540)" style="fill: #e85d04; opacity: 0.7"/>
   </g>
   <g id="patch_22">
    <path d="M 237.780786 354.66 
L 256.102886 354.66 
L 256.102886 332.392275 
L 237.780786 332.392275 
z
" clip-path="url(#p887772e540)" style="fill: #e85d04; opacity: 0.7"/>
   </g>
   <g id="patch_23">
    <path d="M 79.506883 354.66 
L 87.520875 354.66 
L 87.520875 341.932527 
L 79.506883 341.932527 
z
" clip-path="url(#p887772e540)" style="fill: #914110; opacity: 0.7"/>
   </g>
   <g id="patch_24">
    <path d="M 87.520875 354.66 
L 95.534868 354.66 
L 95.534868 354.66 
L 87.520875 354.66 
z
" clip-path="url(#p887772e540)" style="fill: #914110; opacity: 0.7"/>
   </g>
   <g id="patch_25">
    <path d="M 95.534868 354.66 
L 103.548861 354.66 
L 103.548861 341.932527 
L 95.534868 341.932527 
z
" clip-path="url(#p887772e540)" style="fill: #914110; opacity: 0.7"/>
   </g>
   <g id="patch_26">
    <path d="M 103.548861 354.66 
L 111.562854 354.66 
L 111.562854 341.932527 
L 103.548861 341.932527 
z
" clip-path="url(#p887772e540)" style="fill: #914110; opacity: 0.7"/>
   </g>
   <g id="patch_27">
    <path d="M 111.562854 354.66 
L 119.576846 354.66 
L 119.576846 329.205055 
L 111.562854 329.205055 
z
" clip-path="url(#p887772e540)" style="fill: #914110; opacity: 0.7"/>
   </g>
   <g id="patch_28">
    <path d="M 119.576846 354.66 
L 127.590839 354.66 
L 127.590839 329.205055 
L 119.576846 329.205055 
z
" clip-path="url(#p887772e540)" style="fill: #914110; opacity: 0.7"/>
   </g>
   <g id="patch_29">
    <path d="M 127.590839 354.66 
L 135.604832 354.66 
L 135.604832 316.477582 
L 127.590839 316.477582 
z
" clip-path="url(#p887772e540)" style="fill: #914110; opacity: 0.7"/>
   </g>
   <g id="patch_30">
    <path d="M 135.604832 354.66 
L 143.618825 354.66 
L 143.618825 252.84022 
L 135.604832 252.84022 
z
" clip-path="url(#p887772e540)" style="fill: #914110; opacity: 0.7"/>
   </g>
   <g id="patch_31">
    <path d="M 143.618825 354.66 
L 151.632817 354.66 
L 151.632817 291.022637 
L 143.618825 291.022637 
z
" clip-path="url(#p887772e540)" style="fill: #914110; opacity: 0.7"/>
   </g>
   <g id="patch_32">
    <path d="M 151.632817 354.66 
L 159.64681 354.66 
L 159.64681 138.292967 
L 151.632817 138.292967 
z
" clip-path="url(#p887772e540)" style="fill: #914110; opacity: 0.7"/>
   </g>
   <g id="patch_33">
    <path d="M 159.64681 354.66 
L 167.660803 354.66 
L 167.660803 23.745714 
L 159.64681 23.745714 
z
" clip-path="url(#p887772e540)" style="fill: #914110; opacity: 0.7"/>
   </g>
   <g id="patch_34">
    <path d="M 167.660803 354.66 
L 175.674796 354.66 
L 175.674796 138.292967 
L 167.660803 138.292967 
z
" clip-path="url(#p887772e540)" style="fill: #914110; opacity: 0.7"/>
   </g>
   <g id="patch_35">
    <path d="M 175.674796 354.66 
L 183.688788 354.66 
L 183.688788 227.385275 
L 175.674796 227.385275 
z
" clip-path="url(#p887772e540)" style="fill: #914110; opacity: 0.7"/>
   </g>
   <g id="patch_36">
    <path d="M 183.688788 354.66 
L 191.702781 354.66 
L 191.702781 278.295165 
L 183.688788 278.295165 
z
" clip-path="url(#p887772e540)" style="fill: #914110; opacity: 0.7"/>
   </g>
   <g id="patch_37">
    <path d="M 191.702781 354.66 
L 199.716774 354.66 
L 199.716774 341.932527 
L 191.702781 341.932527 
z
" clip-path="url(#p887772e540)" style="fill: #914110; opacity: 0.7"/>
   </g>
   <g id="matplotlib.axis_1">
    <g id="xtick_1">
     <g id="line2d_1">
      <defs>
       <path id="m9088d2bacb" d="M 0 0 
L 0 4 
" style="stroke: #000000; stroke-width: 0.8"/>
      </defs>
      <g>
       <use xlink:href="#m9088d2bacb" x="79.583114" y="354.66" style="stroke: #000000; stroke-width: 0.8"/>
      </g>
     </g>
     <g id="text_1">
      <!-- 0.0 -->
      <g transform="translate(60.960067 379.66) scale(0.25 -0.25)">
       <defs>
        <path id="Figtree-Regular-30" d="M 2048 -77 
Q 1536 -77 1139 220 
Q 742 518 518 1040 
Q 294 1562 294 2240 
Q 294 2918 518 3440 
Q 742 3962 1136 4259 
Q 1530 4557 2048 4557 
Q 2566 4557 2960 4259 
Q 3354 3962 3581 3440 
Q 3808 2918 3808 2240 
Q 3808 1562 3584 1040 
Q 3360 518 2963 220 
Q 2566 -77 2048 -77 
z
M 2048 410 
Q 2406 410 2684 646 
Q 2963 883 3120 1292 
Q 3277 1702 3277 2240 
Q 3277 2778 3120 3190 
Q 2963 3603 2684 3836 
Q 2406 4070 2048 4070 
Q 1690 4070 1414 3836 
Q 1139 3603 982 3190 
Q 826 2778 826 2240 
Q 826 1702 982 1292 
Q 1139 883 1417 646 
Q 1696 410 2048 410 
z
" transform="scale(0.015625)"/>
        <path id="Figtree-Regular-2e" d="M 666 -90 
Q 518 -90 412 16 
Q 307 122 307 262 
Q 307 410 412 515 
Q 518 621 666 621 
Q 813 621 915 515 
Q 1018 410 1018 262 
Q 1018 122 915 16 
Q 813 -90 666 -90 
z
" transform="scale(0.015625)"/>
       </defs>
       <use xlink:href="#Figtree-Regular-30"/>
       <use xlink:href="#Figtree-Regular-2e" x="64.099991"/>
       <use xlink:href="#Figtree-Regular-30" x="84.899979"/>
      </g>
     </g>
    </g>
    <g id="xtick_2">
     <g id="line2d_2">
      <g>
       <use xlink:href="#m9088d2bacb" x="201.591876" y="354.66" style="stroke: #000000; stroke-width: 0.8"/>
      </g>
     </g>
     <g id="text_2">
      <!-- 0.5 -->
      <g transform="translate(183.793048 379.66) scale(0.25 -0.25)">
       <defs>
        <path id="Figtree-Regular-35" d="M 1856 -77 
Q 1587 -77 1308 3 
Q 1030 83 784 249 
Q 538 416 378 678 
L 813 928 
Q 1037 646 1299 518 
Q 1562 390 1843 390 
Q 2285 390 2563 662 
Q 2842 934 2842 1376 
Q 2842 1811 2573 2086 
Q 2304 2362 1869 2362 
Q 1632 2362 1401 2256 
Q 1171 2150 1043 1997 
L 557 2112 
L 774 4480 
L 3162 4480 
L 3162 3994 
L 1254 3994 
L 1120 2566 
Q 1299 2675 1516 2739 
Q 1734 2803 1958 2803 
Q 2368 2803 2688 2624 
Q 3008 2445 3193 2125 
Q 3379 1805 3379 1389 
Q 3379 954 3184 624 
Q 2989 294 2646 108 
Q 2304 -77 1856 -77 
z
" transform="scale(0.015625)"/>
       </defs>
       <use xlink:href="#Figtree-Regular-30"/>
       <use xlink:href="#Figtree-Regular-2e" x="64.099991"/>
       <use xlink:href="#Figtree-Regular-35" x="84.899979"/>
      </g>
     </g>
    </g>
    <g id="xtick_3">
     <g id="line2d_3">
      <g>
       <use xlink:href="#m9088d2bacb" x="323.600637" y="354.66" style="stroke: #000000; stroke-width: 0.8"/>
      </g>
     </g>
     <g id="text_3">
      <!-- 1.0 -->
      <g transform="translate(307.8272 379.66) scale(0.25 -0.25)">
       <defs>
        <path id="Figtree-Regular-31" d="M 1389 0 
L 1389 4192 
L 1434 4480 
L 1920 4480 
L 1920 0 
L 1389 0 
z
M 384 3328 
L 384 3821 
Q 518 3814 704 3910 
Q 890 4006 1088 4160 
Q 1286 4314 1434 4480 
L 1766 4115 
Q 1555 3891 1324 3712 
Q 1094 3533 857 3427 
Q 621 3322 384 3328 
z
" transform="scale(0.015625)"/>
       </defs>
       <use xlink:href="#Figtree-Regular-31"/>
       <use xlink:href="#Figtree-Regular-2e" x="41.299988"/>
       <use xlink:href="#Figtree-Regular-30" x="62.099976"/>
      </g>
     </g>
    </g>
    <g id="xtick_4">
     <g id="line2d_4">
      <g>
       <use xlink:href="#m9088d2bacb" x="445.609399" y="354.66" style="stroke: #000000; stroke-width: 0.8"/>
      </g>
     </g>
     <g id="text_4">
      <!-- 1.5 -->
      <g transform="translate(430.66018 379.66) scale(0.25 -0.25)">
       <use xlink:href="#Figtree-Regular-31"/>
       <use xlink:href="#Figtree-Regular-2e" x="41.299988"/>
       <use xlink:href="#Figtree-Regular-35" x="62.099976"/>
      </g>
     </g>
    </g>
   </g>
   <g id="matplotlib.axis_2">
    <g id="ytick_1">
     <g id="line2d_5">
      <defs>
       <path id="m8835a70df5" d="M 0 0 
L -4 0 
" style="stroke: #000000; stroke-width: 0.8"/>
      </defs>
      <g>
       <use xlink:href="#m8835a70df5" x="30.723438" y="354.66" style="stroke: #000000; stroke-width: 0.8"/>
      </g>
     </g>
     <g id="text_5">
      <!-- 0 -->
      <g transform="translate(7.2 363.41) scale(0.25 -0.25)">
       <use xlink:href="#Figtree-Regular-30"/>
      </g>
     </g>
    </g>
    <g id="ytick_2">
     <g id="line2d_6">
      <g>
       <use xlink:href="#m8835a70df5" x="30.723438" y="271.06119" style="stroke: #000000; stroke-width: 0.8"/>
      </g>
     </g>
     <g id="text_6">
      <!-- 2 -->
      <g transform="translate(9.246875 279.81119) scale(0.25 -0.25)">
       <defs>
        <path id="Figtree-Regular-32" d="M 365 0 
L 365 448 
Q 365 659 451 867 
Q 538 1075 701 1280 
Q 864 1485 1101 1664 
L 2029 2362 
Q 2195 2477 2320 2627 
Q 2445 2778 2515 2941 
Q 2586 3104 2586 3258 
Q 2586 3482 2477 3664 
Q 2368 3846 2169 3955 
Q 1971 4064 1702 4064 
Q 1440 4064 1241 3965 
Q 1043 3866 915 3702 
Q 787 3539 730 3354 
L 179 3462 
Q 256 3750 457 4000 
Q 659 4250 972 4403 
Q 1286 4557 1670 4557 
Q 2118 4557 2444 4387 
Q 2771 4218 2953 3926 
Q 3136 3635 3136 3264 
Q 3136 2912 2944 2598 
Q 2752 2285 2387 1990 
L 1510 1325 
Q 1254 1133 1116 921 
Q 979 710 960 480 
L 3200 480 
L 3200 0 
L 365 0 
z
" transform="scale(0.015625)"/>
       </defs>
       <use xlink:href="#Figtree-Regular-32"/>
      </g>
     </g>
    </g>
    <g id="ytick_3">
     <g id="line2d_7">
      <g>
       <use xlink:href="#m8835a70df5" x="30.723438" y="187.462381" style="stroke: #000000; stroke-width: 0.8"/>
      </g>
     </g>
     <g id="text_7">
      <!-- 4 -->
      <g transform="translate(7.7 196.212381) scale(0.25 -0.25)">
       <defs>
        <path id="Figtree-Regular-34" d="M 2342 0 
L 2342 1088 
L 275 1088 
L 275 1504 
L 2317 4480 
L 2867 4480 
L 2867 1568 
L 3782 1568 
L 3782 1088 
L 2867 1088 
L 2867 0 
L 2342 0 
z
M 896 1568 
L 2342 1568 
L 2342 3693 
L 896 1568 
z
" transform="scale(0.015625)"/>
       </defs>
       <use xlink:href="#Figtree-Regular-34"/>
      </g>
     </g>
    </g>
    <g id="ytick_4">
     <g id="line2d_8">
      <g>
       <use xlink:href="#m8835a70df5" x="30.723438" y="103.863571" style="stroke: #000000; stroke-width: 0.8"/>
      </g>
     </g>
     <g id="text_8">
      <!-- 6 -->
      <g transform="translate(9.075 112.613571) scale(0.25 -0.25)">
       <defs>
        <path id="Figtree-Regular-36" d="M 1907 -77 
Q 1446 -77 1132 99 
Q 819 275 633 576 
Q 448 877 368 1270 
Q 288 1664 288 2106 
Q 288 2682 406 3136 
Q 525 3590 749 3907 
Q 973 4224 1293 4390 
Q 1613 4557 2016 4557 
Q 2349 4557 2678 4451 
Q 3008 4346 3264 4160 
L 2963 3776 
Q 2758 3917 2521 3997 
Q 2285 4077 2067 4077 
Q 1414 4077 1075 3526 
Q 736 2976 774 1856 
L 659 1971 
Q 813 2362 1152 2589 
Q 1491 2816 1952 2816 
Q 2381 2816 2717 2630 
Q 3053 2445 3241 2115 
Q 3430 1786 3430 1363 
Q 3430 947 3238 617 
Q 3046 288 2704 105 
Q 2362 -77 1907 -77 
z
M 1907 397 
Q 2195 397 2416 521 
Q 2637 646 2761 867 
Q 2886 1088 2886 1376 
Q 2886 1664 2761 1885 
Q 2637 2106 2416 2227 
Q 2195 2349 1907 2349 
Q 1626 2349 1402 2227 
Q 1178 2106 1050 1885 
Q 922 1664 922 1376 
Q 922 1088 1050 867 
Q 1178 646 1402 521 
Q 1626 397 1907 397 
z
" transform="scale(0.015625)"/>
       </defs>
       <use xlink:href="#Figtree-Regular-36"/>
      </g>
     </g>
    </g>
    <g id="ytick_5">
     <g id="line2d_9">
      <g>
       <use xlink:href="#m8835a70df5" x="30.723438" y="20.264761" style="stroke: #000000; stroke-width: 0.8"/>
      </g>
     </g>
     <g id="text_9">
      <!-- 8 -->
      <g transform="translate(7.871875 29.014761) scale(0.25 -0.25)">
       <defs>
        <path id="Figtree-Regular-38" d="M 1958 -77 
Q 1478 -77 1113 80 
Q 749 237 550 515 
Q 352 794 352 1165 
Q 352 1555 550 1849 
Q 749 2144 1113 2307 
Q 1478 2470 1958 2470 
Q 2451 2470 2812 2307 
Q 3174 2144 3376 1849 
Q 3578 1555 3578 1165 
Q 3578 794 3376 515 
Q 3174 237 2812 80 
Q 2451 -77 1958 -77 
z
M 1958 397 
Q 2432 397 2733 624 
Q 3034 851 3034 1216 
Q 3034 1587 2733 1820 
Q 2432 2054 1958 2054 
Q 1651 2054 1411 1948 
Q 1171 1843 1033 1654 
Q 896 1466 896 1216 
Q 896 973 1033 787 
Q 1171 602 1411 499 
Q 1651 397 1958 397 
z
M 1958 2157 
Q 1530 2157 1203 2307 
Q 877 2458 697 2723 
Q 518 2989 518 3341 
Q 518 3699 697 3974 
Q 877 4250 1203 4403 
Q 1530 4557 1958 4557 
Q 2400 4557 2723 4403 
Q 3046 4250 3228 3974 
Q 3411 3699 3411 3341 
Q 3411 2989 3228 2723 
Q 3046 2458 2723 2307 
Q 2400 2157 1958 2157 
z
M 1958 2560 
Q 2362 2560 2621 2761 
Q 2880 2963 2880 3290 
Q 2880 3648 2621 3869 
Q 2362 4090 1958 4090 
Q 1562 4090 1306 3869 
Q 1050 3648 1050 3290 
Q 1050 2963 1306 2761 
Q 1562 2560 1958 2560 
z
" transform="scale(0.015625)"/>
       </defs>
       <use xlink:href="#Figtree-Regular-38"/>
      </g>
     </g>
    </g>
   </g>
   <g id="line2d_10">
    <path d="M 220.733812 354.66 
L 220.733812 7.2 
" clip-path="url(#p887772e540)" style="fill: none; stroke-dasharray: 18.5,8; stroke-dashoffset: 0; stroke: #5e548e; stroke-width: 5"/>
   </g>
   <g id="line2d_11">
    <path d="M 194.334922 354.66 
L 194.334922 7.2 
" clip-path="url(#p887772e540)" style="fill: none; stroke-dasharray: 18.5,8; stroke-dashoffset: 0; stroke: #e85d04; stroke-width: 5"/>
   </g>
   <g id="line2d_12">
    <path d="M 162.099348 354.66 
L 162.099348 7.2 
" clip-path="url(#p887772e540)" style="fill: none; stroke-dasharray: 18.5,8; stroke-dashoffset: 0; stroke: #914110; stroke-opacity: 0.984314; stroke-width: 5"/>
   </g>
   <g id="line2d_13">
    <path d="M 79.583114 354.66 
L 79.583114 7.2 
" clip-path="url(#p887772e540)" style="fill: none; stroke: #000000; stroke-width: 3; stroke-linecap: square"/>
   </g>
   <g id="patch_38">
    <path d="M 30.723438 354.66 
L 30.723438 7.2 
" style="fill: none; stroke: #000000; stroke-width: 2.5; stroke-linejoin: miter; stroke-linecap: square"/>
   </g>
   <g id="patch_39">
    <path d="M 30.723438 354.66 
L 529.293437 354.66 
" style="fill: none; stroke: #000000; stroke-width: 2.5; stroke-linejoin: miter; stroke-linecap: square"/>
   </g>
  </g>
 </g>
 <defs>
  <clipPath id="p887772e540">
   <rect x="30.723438" y="7.2" width="498.57" height="347.46"/>
  </clipPath>
 </defs>
</svg>
