<?xml version="1.0" encoding="utf-8" standalone="no"?>
<!DOCTYPE svg PUBLIC "-//W3C//DTD SVG 1.1//EN"
  "http://www.w3.org/Graphics/SVG/1.1/DTD/svg11.dtd">
<svg xmlns:xlink="http://www.w3.org/1999/xlink" width="536.4pt" height="392.4pt" viewBox="0 0 536.4 392.4" xmlns="http://www.w3.org/2000/svg" version="1.1">
 <metadata>
  <rdf:RDF xmlns:dc="http://purl.org/dc/elements/1.1/" xmlns:cc="http://creativecommons.org/ns#" xmlns:rdf="http://www.w3.org/1999/02/22-rdf-syntax-ns#">
   <cc:Work>
    <dc:type rdf:resource="http://purl.org/dc/dcmitype/StillImage"/>
    <dc:date>2026-01-30T15:14:21.670117</dc:date>
    <dc:format>image/svg+xml</dc:format>
    <dc:creator>
     <cc:Agent>
      <dc:title>Matplotlib v3.8.2, https://matplotlib.org/</dc:title>
     </cc:Agent>
    </dc:creator>
   </cc:Work>
  </rdf:RDF>
 </metadata>
 <defs>
  <style type="text/css">*{stroke-linejoin: round; stroke-linecap: butt}</style>
 </defs>
 <g id="figure_1">
  <g id="patch_1">
   <path d="M 0 392.4 
L 536.4 392.4 
L 536.4 0 
L 0 0 
z
" style="fill: #ffffff"/>
  </g>
  <g id="axes_1">
   <g id="patch_2">
    <path d="M 50.297656 381.2 
L 529.2 381.2 
L 529.2 15.95 
L 50.297656 15.95 
z
" style="fill: #ffffff"/>
   </g>
   <g id="matplotlib.axis_1">
    <g id="xtick_1">
     <g id="line2d_1">
      <defs>
       <path id="m623b59722b" d="M 0 0 
L 0 4 
" style="stroke: #000000; stroke-width: 0.8"/>
      </defs>
      <g>
       <use xlink:href="#m623b59722b" x="130.114714" y="381.2" style="stroke: #000000; stroke-width: 0.8"/>
      </g>
     </g>
    </g>
    <g id="xtick_2">
     <g id="line2d_2">
      <g>
       <use xlink:href="#m623b59722b" x="289.748828" y="381.2" style="stroke: #000000; stroke-width: 0.8"/>
      </g>
     </g>
    </g>
    <g id="xtick_3">
     <g id="line2d_3">
      <g>
       <use xlink:href="#m623b59722b" x="449.382943" y="381.2" style="stroke: #000000; stroke-width: 0.8"/>
      </g>
     </g>
    </g>
   </g>
   <g id="matplotlib.axis_2">
    <g id="ytick_1">
     <g id="line2d_4">
      <defs>
       <path id="ma292d8e098" d="M 0 0 
L -4 0 
" style="stroke: #000000; stroke-width: 0.8"/>
      </defs>
      <g>
       <use xlink:href="#ma292d8e098" x="50.297656" y="338.229412" style="stroke: #000000; stroke-width: 0.8"/>
      </g>
     </g>
     <g id="text_1">
      <!-- 0.5 -->
      <g transform="translate(7.2 346.979412) scale(0.25 -0.25)">
       <defs>
        <path id="Figtree-Regular-30" d="M 2048 -77 
Q 1536 -77 1139 220 
Q 742 518 518 1040 
Q 294 1562 294 2240 
Q 294 2918 518 3440 
Q 742 3962 1136 4259 
Q 1530 4557 2048 4557 
Q 2566 4557 2960 4259 
Q 3354 3962 3581 3440 
Q 3808 2918 3808 2240 
Q 3808 1562 3584 1040 
Q 3360 518 2963 220 
Q 2566 -77 2048 -77 
z
M 2048 410 
Q 2406 410 2684 646 
Q 2963 883 3120 1292 
Q 3277 1702 3277 2240 
Q 3277 2778 3120 3190 
Q 2963 3603 2684 3836 
Q 2406 4070 2048 4070 
Q 1690 4070 1414 3836 
Q 1139 3603 982 3190 
Q 826 2778 826 2240 
Q 826 1702 982 1292 
Q 1139 883 1417 646 
Q 1696 410 2048 410 
z
" transform="scale(0.015625)"/>
        <path id="Figtree-Regular-2e" d="M 666 -90 
Q 518 -90 412 16 
Q 307 122 307 262 
Q 307 410 412 515 
Q 518 621 666 621 
Q 813 621 915 515 
Q 1018 410 1018 262 
Q 1018 122 915 16 
Q 813 -90 666 -90 
z
" transform="scale(0.015625)"/>
        <path id="Figtree-Regular-35" d="M 1856 -77 
Q 1587 -77 1308 3 
Q 1030 83 784 249 
Q 538 416 378 678 
L 813 928 
Q 1037 646 1299 518 
Q 1562 390 1843 390 
Q 2285 390 2563 662 
Q 2842 934 2842 1376 
Q 2842 1811 2573 2086 
Q 2304 2362 1869 2362 
Q 1632 2362 1401 2256 
Q 1171 2150 1043 1997 
L 557 2112 
L 774 4480 
L 3162 4480 
L 3162 3994 
L 1254 3994 
L 1120 2566 
Q 1299 2675 1516 2739 
Q 1734 2803 1958 2803 
Q 2368 2803 2688 2624 
Q 3008 2445 3193 2125 
Q 3379 1805 3379 1389 
Q 3379 954 3184 624 
Q 2989 294 2646 108 
Q 2304 -77 1856 -77 
z
" transform="scale(0.015625)"/>
       </defs>
       <use xlink:href="#Figtree-Regular-30"/>
       <use xlink:href="#Figtree-Regular-2e" x="64.099991"/>
       <use xlink:href="#Figtree-Regular-35" x="84.899979"/>
      </g>
     </g>
    </g>
    <g id="ytick_2">
     <g id="line2d_5">
      <g>
       <use xlink:href="#ma292d8e098" x="50.297656" y="230.802941" style="stroke: #000000; stroke-width: 0.8"/>
      </g>
     </g>
     <g id="text_2">
      <!-- 1.0 -->
      <g transform="translate(11.250781 239.552941) scale(0.25 -0.25)">
       <defs>
        <path id="Figtree-Regular-31" d="M 1389 0 
L 1389 4192 
L 1434 4480 
L 1920 4480 
L 1920 0 
L 1389 0 
z
M 384 3328 
L 384 3821 
Q 518 3814 704 3910 
Q 890 4006 1088 4160 
Q 1286 4314 1434 4480 
L 1766 4115 
Q 1555 3891 1324 3712 
Q 1094 3533 857 3427 
Q 621 3322 384 3328 
z
" transform="scale(0.015625)"/>
       </defs>
       <use xlink:href="#Figtree-Regular-31"/>
       <use xlink:href="#Figtree-Regular-2e" x="41.299988"/>
       <use xlink:href="#Figtree-Regular-30" x="62.099976"/>
      </g>
     </g>
    </g>
    <g id="ytick_3">
     <g id="line2d_6">
      <g>
       <use xlink:href="#ma292d8e098" x="50.297656" y="123.376471" style="stroke: #000000; stroke-width: 0.8"/>
      </g>
     </g>
     <g id="text_3">
      <!-- 1.5 -->
      <g transform="translate(12.899219 132.126471) scale(0.25 -0.25)">
       <use xlink:href="#Figtree-Regular-31"/>
       <use xlink:href="#Figtree-Regular-2e" x="41.299988"/>
       <use xlink:href="#Figtree-Regular-35" x="62.099976"/>
      </g>
     </g>
    </g>
    <g id="ytick_4">
     <g id="line2d_7">
      <g>
       <use xlink:href="#ma292d8e098" x="50.297656" y="15.95" style="stroke: #000000; stroke-width: 0.8"/>
      </g>
     </g>
     <g id="text_4">
      <!-- 2.0 -->
      <g transform="translate(7.598438 24.7) scale(0.25 -0.25)">
       <defs>
        <path id="Figtree-Regular-32" d="M 365 0 
L 365 448 
Q 365 659 451 867 
Q 538 1075 701 1280 
Q 864 1485 1101 1664 
L 2029 2362 
Q 2195 2477 2320 2627 
Q 2445 2778 2515 2941 
Q 2586 3104 2586 3258 
Q 2586 3482 2477 3664 
Q 2368 3846 2169 3955 
Q 1971 4064 1702 4064 
Q 1440 4064 1241 3965 
Q 1043 3866 915 3702 
Q 787 3539 730 3354 
L 179 3462 
Q 256 3750 457 4000 
Q 659 4250 972 4403 
Q 1286 4557 1670 4557 
Q 2118 4557 2444 4387 
Q 2771 4218 2953 3926 
Q 3136 3635 3136 3264 
Q 3136 2912 2944 2598 
Q 2752 2285 2387 1990 
L 1510 1325 
Q 1254 1133 1116 921 
Q 979 710 960 480 
L 3200 480 
L 3200 0 
L 365 0 
z
" transform="scale(0.015625)"/>
       </defs>
       <use xlink:href="#Figtree-Regular-32"/>
       <use xlink:href="#Figtree-Regular-2e" x="55.899994"/>
       <use xlink:href="#Figtree-Regular-30" x="76.699982"/>
      </g>
     </g>
    </g>
   </g>
   <g id="patch_3">
    <path d="M 106.169596 170.962016 
L 154.059831 170.962016 
L 154.059831 143.278766 
L 106.169596 143.278766 
L 106.169596 170.962016 
z
" clip-path="url(#pe9336127f9)" style="fill: #696969; opacity: 0.5; stroke: #696969; stroke-width: 1.5; stroke-linejoin: miter"/>
   </g>
   <g id="line2d_8">
    <path d="M 130.114714 170.962016 
L 130.114714 202.140388 
" clip-path="url(#pe9336127f9)" style="fill: none; stroke: #000000; stroke-linecap: square"/>
   </g>
   <g id="line2d_9">
    <path d="M 130.114714 143.278766 
L 130.114714 119.401795 
" clip-path="url(#pe9336127f9)" style="fill: none; stroke: #000000; stroke-linecap: square"/>
   </g>
   <g id="line2d_10"/>
   <g id="patch_4">
    <path d="M 265.803711 192.876583 
L 313.693945 192.876583 
L 313.693945 124.916274 
L 265.803711 124.916274 
L 265.803711 192.876583 
z
" clip-path="url(#pe9336127f9)" style="fill: #e85d04; opacity: 0.5; stroke: #e85d04; stroke-width: 1.5; stroke-linejoin: miter"/>
   </g>
   <g id="line2d_11">
    <path d="M 289.748828 192.876583 
L 289.748828 293.536579 
" clip-path="url(#pe9336127f9)" style="fill: none; stroke: #000000; stroke-linecap: square"/>
   </g>
   <g id="line2d_12">
    <path d="M 289.748828 124.916274 
L 289.748828 64.451943 
" clip-path="url(#pe9336127f9)" style="fill: none; stroke: #000000; stroke-linecap: square"/>
   </g>
   <g id="line2d_13">
    <defs>
     <path id="m6422f5b90c" d="M 0 5 
C 1.326016 5 2.597899 4.473168 3.535534 3.535534 
C 4.473168 2.597899 5 1.326016 5 0 
C 5 -1.326016 4.473168 -2.597899 3.535534 -3.535534 
C 2.597899 -4.473168 1.326016 -5 0 -5 
C -1.326016 -5 -2.597899 -4.473168 -3.535534 -3.535534 
C -4.473168 -2.597899 -5 -1.326016 -5 0 
C -5 1.326016 -4.473168 2.597899 -3.535534 3.535534 
C -2.597899 4.473168 -1.326016 5 0 5 
z
" style="stroke: #000000; stroke-opacity: 0.5"/>
    </defs>
    <g clip-path="url(#pe9336127f9)">
     <use xlink:href="#m6422f5b90c" x="289.748828" y="331.00699" style="fill-opacity: 0.5; stroke: #000000; stroke-opacity: 0.5"/>
     <use xlink:href="#m6422f5b90c" x="289.748828" y="321.346787" style="fill-opacity: 0.5; stroke: #000000; stroke-opacity: 0.5"/>
     <use xlink:href="#m6422f5b90c" x="289.748828" y="298.486133" style="fill-opacity: 0.5; stroke: #000000; stroke-opacity: 0.5"/>
     <use xlink:href="#m6422f5b90c" x="289.748828" y="300.065903" style="fill-opacity: 0.5; stroke: #000000; stroke-opacity: 0.5"/>
     <use xlink:href="#m6422f5b90c" x="289.748828" y="335.421425" style="fill-opacity: 0.5; stroke: #000000; stroke-opacity: 0.5"/>
     <use xlink:href="#m6422f5b90c" x="289.748828" y="321.148588" style="fill-opacity: 0.5; stroke: #000000; stroke-opacity: 0.5"/>
     <use xlink:href="#m6422f5b90c" x="289.748828" y="338.362916" style="fill-opacity: 0.5; stroke: #000000; stroke-opacity: 0.5"/>
     <use xlink:href="#m6422f5b90c" x="289.748828" y="339.955065" style="fill-opacity: 0.5; stroke: #000000; stroke-opacity: 0.5"/>
     <use xlink:href="#m6422f5b90c" x="289.748828" y="346.424797" style="fill-opacity: 0.5; stroke: #000000; stroke-opacity: 0.5"/>
     <use xlink:href="#m6422f5b90c" x="289.748828" y="318.392932" style="fill-opacity: 0.5; stroke: #000000; stroke-opacity: 0.5"/>
     <use xlink:href="#m6422f5b90c" x="289.748828" y="310.630146" style="fill-opacity: 0.5; stroke: #000000; stroke-opacity: 0.5"/>
     <use xlink:href="#m6422f5b90c" x="289.748828" y="299.482959" style="fill-opacity: 0.5; stroke: #000000; stroke-opacity: 0.5"/>
     <use xlink:href="#m6422f5b90c" x="289.748828" y="342.945874" style="fill-opacity: 0.5; stroke: #000000; stroke-opacity: 0.5"/>
     <use xlink:href="#m6422f5b90c" x="289.748828" y="352.269731" style="fill-opacity: 0.5; stroke: #000000; stroke-opacity: 0.5"/>
     <use xlink:href="#m6422f5b90c" x="289.748828" y="331.019481" style="fill-opacity: 0.5; stroke: #000000; stroke-opacity: 0.5"/>
     <use xlink:href="#m6422f5b90c" x="289.748828" y="313.993544" style="fill-opacity: 0.5; stroke: #000000; stroke-opacity: 0.5"/>
     <use xlink:href="#m6422f5b90c" x="289.748828" y="296.732001" style="fill-opacity: 0.5; stroke: #000000; stroke-opacity: 0.5"/>
     <use xlink:href="#m6422f5b90c" x="289.748828" y="331.106037" style="fill-opacity: 0.5; stroke: #000000; stroke-opacity: 0.5"/>
     <use xlink:href="#m6422f5b90c" x="289.748828" y="332.609413" style="fill-opacity: 0.5; stroke: #000000; stroke-opacity: 0.5"/>
     <use xlink:href="#m6422f5b90c" x="289.748828" y="327.066036" style="fill-opacity: 0.5; stroke: #000000; stroke-opacity: 0.5"/>
     <use xlink:href="#m6422f5b90c" x="289.748828" y="319.092456" style="fill-opacity: 0.5; stroke: #000000; stroke-opacity: 0.5"/>
     <use xlink:href="#m6422f5b90c" x="289.748828" y="299.906299" style="fill-opacity: 0.5; stroke: #000000; stroke-opacity: 0.5"/>
     <use xlink:href="#m6422f5b90c" x="289.748828" y="294.927243" style="fill-opacity: 0.5; stroke: #000000; stroke-opacity: 0.5"/>
     <use xlink:href="#m6422f5b90c" x="289.748828" y="302.577838" style="fill-opacity: 0.5; stroke: #000000; stroke-opacity: 0.5"/>
     <use xlink:href="#m6422f5b90c" x="289.748828" y="346.720767" style="fill-opacity: 0.5; stroke: #000000; stroke-opacity: 0.5"/>
     <use xlink:href="#m6422f5b90c" x="289.748828" y="361.651832" style="fill-opacity: 0.5; stroke: #000000; stroke-opacity: 0.5"/>
     <use xlink:href="#m6422f5b90c" x="289.748828" y="316.723972" style="fill-opacity: 0.5; stroke: #000000; stroke-opacity: 0.5"/>
    </g>
   </g>
   <g id="patch_5">
    <path d="M 425.437826 212.724035 
L 473.32806 212.724035 
L 473.32806 144.341617 
L 425.437826 144.341617 
L 425.437826 212.724035 
z
" clip-path="url(#pe9336127f9)" style="fill: #5e548e; opacity: 0.5; stroke: #5e548e; stroke-width: 1.5; stroke-linejoin: miter"/>
   </g>
   <g id="line2d_14">
    <path d="M 449.382943 212.724035 
L 449.382943 308.716672 
" clip-path="url(#pe9336127f9)" style="fill: none; stroke: #000000; stroke-linecap: square"/>
   </g>
   <g id="line2d_15">
    <path d="M 449.382943 144.341617 
L 449.382943 70.239256 
" clip-path="url(#pe9336127f9)" style="fill: none; stroke: #000000; stroke-linecap: square"/>
   </g>
   <g id="line2d_16"/>
   <g id="line2d_17">
    <path d="M 50.297656 156.966278 
L 529.2 156.966278 
" clip-path="url(#pe9336127f9)" style="fill: none; stroke-dasharray: 9.25,4; stroke-dashoffset: 0; stroke: #000000; stroke-width: 2.5"/>
   </g>
   <g id="line2d_18">
    <path d="M 106.169596 157.843399 
L 154.059831 157.843399 
" clip-path="url(#pe9336127f9)" style="fill: none; stroke: #1d2d44; stroke-width: 2"/>
   </g>
   <g id="line2d_19">
    <path d="M 265.803711 160.491818 
L 313.693945 160.491818 
" clip-path="url(#pe9336127f9)" style="fill: none; stroke: #1d2d44; stroke-width: 2"/>
   </g>
   <g id="line2d_20">
    <path d="M 425.437826 172.094521 
L 473.32806 172.094521 
" clip-path="url(#pe9336127f9)" style="fill: none; stroke: #1d2d44; stroke-width: 2"/>
   </g>
   <g id="patch_6">
    <path d="M 50.297656 381.2 
L 50.297656 15.95 
" style="fill: none; stroke: #000000; stroke-width: 1.5; stroke-linejoin: miter; stroke-linecap: square"/>
   </g>
   <g id="patch_7">
    <path d="M 50.297656 381.2 
L 529.2 381.2 
" style="fill: none; stroke: #000000; stroke-width: 1.5; stroke-linejoin: miter; stroke-linecap: square"/>
   </g>
  </g>
 </g>
 <defs>
  <clipPath id="pe9336127f9">
   <rect x="50.297656" y="15.95" width="478.902344" height="365.25"/>
  </clipPath>
 </defs>
</svg>
