<?xml version="1.0" encoding="utf-8" standalone="no"?>
<!DOCTYPE svg PUBLIC "-//W3C//DTD SVG 1.1//EN"
  "http://www.w3.org/Graphics/SVG/1.1/DTD/svg11.dtd">
<svg xmlns:xlink="http://www.w3.org/1999/xlink" width="536.4pt" height="392.4pt" viewBox="0 0 536.4 392.4" xmlns="http://www.w3.org/2000/svg" version="1.1">
 <metadata>
  <rdf:RDF xmlns:dc="http://purl.org/dc/elements/1.1/" xmlns:cc="http://creativecommons.org/ns#" xmlns:rdf="http://www.w3.org/1999/02/22-rdf-syntax-ns#">
   <cc:Work>
    <dc:type rdf:resource="http://purl.org/dc/dcmitype/StillImage"/>
    <dc:date>2026-05-11T12:09:38.433586</dc:date>
    <dc:format>image/svg+xml</dc:format>
    <dc:creator>
     <cc:Agent>
      <dc:title>Matplotlib v3.9.4, https://matplotlib.org/</dc:title>
     </cc:Agent>
    </dc:creator>
   </cc:Work>
  </rdf:RDF>
 </metadata>
 <defs>
  <style type="text/css">*{stroke-linejoin: round; stroke-linecap: butt}</style>
 </defs>
 <g id="figure_1">
  <g id="patch_1">
   <path d="M 0 392.4 
L 536.4 392.4 
L 536.4 0 
L 0 0 
z
" style="fill: #ffffff"/>
  </g>
  <g id="axes_1">
   <g id="patch_2">
    <path d="M 11.2 381.2 
L 529.2 381.2 
L 529.2 7.2 
L 11.2 7.2 
z
" style="fill: #ffffff"/>
   </g>
   <g id="PolyCollection_1">
    <defs>
     <path id="mf063ad71f2" d="M 88.949984 -194.549199 
L 74.722743 -194.549199 
L 74.251893 -195.404963 
L 73.771046 -196.260728 
L 73.279396 -197.116493 
L 72.775624 -197.972257 
L 72.257901 -198.828022 
L 71.723901 -199.683786 
L 71.17085 -200.539551 
L 70.595591 -201.395316 
L 69.994673 -202.25108 
L 69.364464 -203.106845 
L 68.701277 -203.962609 
L 68.001506 -204.818374 
L 67.261777 -205.674139 
L 66.479091 -206.529903 
L 65.650966 -207.385668 
L 64.775565 -208.241432 
L 63.851812 -209.097197 
L 62.879475 -209.952961 
L 61.859237 -210.808726 
L 60.792727 -211.664491 
L 59.682524 -212.520255 
L 58.532137 -213.37602 
L 57.345949 -214.231784 
L 56.129142 -215.087549 
L 54.8876 -215.943314 
L 53.627795 -216.799078 
L 52.356665 -217.654843 
L 51.081489 -218.510607 
L 49.809755 -219.366372 
L 48.549042 -220.222137 
L 47.306907 -221.077901 
L 46.090779 -221.933666 
L 44.907876 -222.78943 
L 43.765126 -223.645195 
L 42.669105 -224.50096 
L 41.625983 -225.356724 
L 40.641487 -226.212489 
L 39.72086 -227.068253 
L 38.868833 -227.924018 
L 38.089599 -228.779783 
L 37.386784 -229.635547 
L 36.763423 -230.491312 
L 36.221937 -231.347076 
L 35.764105 -232.202841 
L 35.391051 -233.058605 
L 35.103227 -233.91437 
L 34.900401 -234.770135 
L 34.781667 -235.625899 
L 34.745455 -236.481664 
L 34.789556 -237.337428 
L 34.911164 -238.193193 
L 35.106931 -239.048958 
L 35.373023 -239.904722 
L 35.705205 -240.760487 
L 36.098912 -241.616251 
L 36.549335 -242.472016 
L 37.051505 -243.327781 
L 37.600368 -244.183545 
L 38.190858 -245.03931 
L 38.817956 -245.895074 
L 39.476739 -246.750839 
L 40.162416 -247.606604 
L 40.870358 -248.462368 
L 41.596112 -249.318133 
L 42.335414 -250.173897 
L 43.084193 -251.029662 
L 43.838585 -251.885427 
L 44.594937 -252.741191 
L 45.349829 -253.596956 
L 46.100098 -254.45272 
L 46.842874 -255.308485 
L 47.575621 -256.16425 
L 48.296187 -257.020014 
L 49.002861 -257.875779 
L 49.694426 -258.731543 
L 50.370206 -259.587308 
L 51.030116 -260.443072 
L 51.674683 -261.298837 
L 52.305061 -262.154602 
L 52.923024 -263.010366 
L 53.530929 -263.866131 
L 54.131667 -264.721895 
L 54.72858 -265.57766 
L 55.325362 -266.433425 
L 55.925944 -267.289189 
L 56.534358 -268.144954 
L 57.1546 -269.000718 
L 57.790479 -269.856483 
L 58.445478 -270.712248 
L 59.122614 -271.568012 
L 59.82432 -272.423777 
L 60.552333 -273.279541 
L 61.307611 -274.135306 
L 62.090276 -274.991071 
L 62.899581 -275.846835 
L 63.7339 -276.7026 
L 64.590761 -277.558364 
L 65.466888 -278.414129 
L 66.358289 -279.269894 
L 97.314439 -279.269894 
L 97.314439 -279.269894 
L 98.205839 -278.414129 
L 99.081967 -277.558364 
L 99.938827 -276.7026 
L 100.773146 -275.846835 
L 101.582451 -274.991071 
L 102.365117 -274.135306 
L 103.120395 -273.279541 
L 103.848407 -272.423777 
L 104.550113 -271.568012 
L 105.22725 -270.712248 
L 105.882248 -269.856483 
L 106.518127 -269.000718 
L 107.138369 -268.144954 
L 107.746784 -267.289189 
L 108.347366 -266.433425 
L 108.944148 -265.57766 
L 109.54106 -264.721895 
L 110.141798 -263.866131 
L 110.749704 -263.010366 
L 111.367666 -262.154602 
L 111.998045 -261.298837 
L 112.642611 -260.443072 
L 113.302521 -259.587308 
L 113.978302 -258.731543 
L 114.669866 -257.875779 
L 115.37654 -257.020014 
L 116.097106 -256.16425 
L 116.829853 -255.308485 
L 117.572629 -254.45272 
L 118.322898 -253.596956 
L 119.07779 -252.741191 
L 119.834142 -251.885427 
L 120.588534 -251.029662 
L 121.337314 -250.173897 
L 122.076615 -249.318133 
L 122.802369 -248.462368 
L 123.510311 -247.606604 
L 124.195988 -246.750839 
L 124.854771 -245.895074 
L 125.481869 -245.03931 
L 126.072359 -244.183545 
L 126.621223 -243.327781 
L 127.123393 -242.472016 
L 127.573816 -241.616251 
L 127.967522 -240.760487 
L 128.299704 -239.904722 
L 128.565797 -239.048958 
L 128.761563 -238.193193 
L 128.883172 -237.337428 
L 128.927273 -236.481664 
L 128.89106 -235.625899 
L 128.772327 -234.770135 
L 128.569501 -233.91437 
L 128.281676 -233.058605 
L 127.908622 -232.202841 
L 127.450791 -231.347076 
L 126.909304 -230.491312 
L 126.285943 -229.635547 
L 125.583128 -228.779783 
L 124.803894 -227.924018 
L 123.951868 -227.068253 
L 123.03124 -226.212489 
L 122.046744 -225.356724 
L 121.003622 -224.50096 
L 119.907601 -223.645195 
L 118.764851 -222.78943 
L 117.581949 -221.933666 
L 116.365821 -221.077901 
L 115.123685 -220.222137 
L 113.862972 -219.366372 
L 112.591238 -218.510607 
L 111.316062 -217.654843 
L 110.044932 -216.799078 
L 108.785127 -215.943314 
L 107.543585 -215.087549 
L 106.326778 -214.231784 
L 105.14059 -213.37602 
L 103.990203 -212.520255 
L 102.88 -211.664491 
L 101.81349 -210.808726 
L 100.793252 -209.952961 
L 99.820915 -209.097197 
L 98.897162 -208.241432 
L 98.021761 -207.385668 
L 97.193636 -206.529903 
L 96.410951 -205.674139 
L 95.671222 -204.818374 
L 94.971451 -203.962609 
L 94.308263 -203.106845 
L 93.678054 -202.25108 
L 93.077136 -201.395316 
L 92.501877 -200.539551 
L 91.948826 -199.683786 
L 91.414826 -198.828022 
L 90.897103 -197.972257 
L 90.393332 -197.116493 
L 89.901681 -196.260728 
L 89.420835 -195.404963 
L 88.949984 -194.549199 
z
" style="stroke: #696969; stroke-opacity: 0.5; stroke-width: 1.5"/>
    </defs>
    <g clip-path="url(#p9d93913702)">
     <use xlink:href="#mf063ad71f2" x="0" y="392.4" style="fill: #696969; fill-opacity: 0.5; stroke: #696969; stroke-opacity: 0.5; stroke-width: 1.5"/>
    </g>
   </g>
   <g id="PolyCollection_2">
    <defs>
     <path id="m588a7076b1" d="M 271.061746 -31.216468 
L 269.338254 -31.216468 
L 269.137847 -34.290404 
L 268.919112 -37.36434 
L 268.687867 -40.438276 
L 268.451666 -43.512212 
L 268.219316 -46.586148 
L 268.000103 -49.660084 
L 267.802811 -52.73402 
L 267.634656 -55.807956 
L 267.500292 -58.881892 
L 267.401034 -61.955828 
L 267.334426 -65.029764 
L 267.294279 -68.1037 
L 267.271243 -71.177636 
L 267.25397 -74.251572 
L 267.230769 -77.325508 
L 267.191554 -80.399444 
L 267.129678 -83.47338 
L 267.043159 -86.547317 
L 266.934847 -89.621253 
L 266.811312 -92.695189 
L 266.680619 -95.769125 
L 266.549539 -98.843061 
L 266.421003 -101.916997 
L 266.292575 -104.990933 
L 266.156457 -108.064869 
L 266.001042 -111.138805 
L 265.813586 -114.212741 
L 265.583196 -117.286677 
L 265.30332 -120.360613 
L 264.973024 -123.434549 
L 264.596761 -126.508485 
L 264.182676 -129.582421 
L 263.739809 -132.656357 
L 263.274742 -135.730293 
L 262.788261 -138.804229 
L 262.272571 -141.878165 
L 261.709673 -144.952101 
L 261.071494 -148.026037 
L 260.322433 -151.099973 
L 259.424696 -154.173909 
L 258.346231 -157.247845 
L 257.070101 -160.321781 
L 255.603121 -163.395717 
L 253.980922 -166.469653 
L 252.266893 -169.543589 
L 250.543696 -172.617525 
L 248.898255 -175.691461 
L 247.403397 -178.765398 
L 246.100927 -181.839334 
L 244.991015 -184.91327 
L 244.031204 -187.987206 
L 243.145569 -191.061142 
L 242.241455 -194.135078 
L 241.229127 -197.209014 
L 240.039118 -200.28295 
L 238.633416 -203.356886 
L 237.009112 -206.430822 
L 235.195692 -209.504758 
L 233.24879 -212.578694 
L 231.243307 -215.65263 
L 229.267517 -218.726566 
L 227.418018 -221.800502 
L 225.794035 -224.874438 
L 224.489398 -227.948374 
L 223.581585 -231.02231 
L 223.118977 -234.096246 
L 223.109091 -237.170182 
L 223.511309 -240.244118 
L 224.237202 -243.318054 
L 225.160084 -246.39199 
L 226.133297 -249.465926 
L 227.014569 -252.539862 
L 227.691948 -255.613798 
L 228.105929 -258.687734 
L 228.262676 -261.76167 
L 228.234855 -264.835606 
L 228.149288 -267.909542 
L 228.163744 -270.983479 
L 228.43776 -274.057415 
L 229.103744 -277.131351 
L 230.24421 -280.205287 
L 231.879235 -283.279223 
L 233.965634 -286.353159 
L 236.406837 -289.427095 
L 239.070617 -292.501031 
L 241.810882 -295.574967 
L 244.489633 -298.648903 
L 246.99564 -301.722839 
L 249.257165 -304.796775 
L 251.247112 -307.870711 
L 252.980236 -310.944647 
L 254.503438 -314.018583 
L 255.881453 -317.092519 
L 257.181083 -320.166455 
L 258.457272 -323.240391 
L 259.743647 -326.314327 
L 261.048888 -329.388263 
L 262.358798 -332.462199 
L 263.642702 -335.536135 
L 276.757298 -335.536135 
L 276.757298 -335.536135 
L 278.041202 -332.462199 
L 279.351112 -329.388263 
L 280.656353 -326.314327 
L 281.942728 -323.240391 
L 283.218917 -320.166455 
L 284.518547 -317.092519 
L 285.896562 -314.018583 
L 287.419764 -310.944647 
L 289.152888 -307.870711 
L 291.142835 -304.796775 
L 293.40436 -301.722839 
L 295.910367 -298.648903 
L 298.589118 -295.574967 
L 301.329383 -292.501031 
L 303.993163 -289.427095 
L 306.434366 -286.353159 
L 308.520765 -283.279223 
L 310.15579 -280.205287 
L 311.296256 -277.131351 
L 311.96224 -274.057415 
L 312.236256 -270.983479 
L 312.250712 -267.909542 
L 312.165145 -264.835606 
L 312.137324 -261.76167 
L 312.294071 -258.687734 
L 312.708052 -255.613798 
L 313.385431 -252.539862 
L 314.266703 -249.465926 
L 315.239916 -246.39199 
L 316.162798 -243.318054 
L 316.888691 -240.244118 
L 317.290909 -237.170182 
L 317.281023 -234.096246 
L 316.818415 -231.02231 
L 315.910602 -227.948374 
L 314.605965 -224.874438 
L 312.981982 -221.800502 
L 311.132483 -218.726566 
L 309.156693 -215.65263 
L 307.15121 -212.578694 
L 305.204308 -209.504758 
L 303.390888 -206.430822 
L 301.766584 -203.356886 
L 300.360882 -200.28295 
L 299.170873 -197.209014 
L 298.158545 -194.135078 
L 297.254431 -191.061142 
L 296.368796 -187.987206 
L 295.408985 -184.91327 
L 294.299073 -181.839334 
L 292.996603 -178.765398 
L 291.501745 -175.691461 
L 289.856304 -172.617525 
L 288.133107 -169.543589 
L 286.419078 -166.469653 
L 284.796879 -163.395717 
L 283.329899 -160.321781 
L 282.053769 -157.247845 
L 280.975304 -154.173909 
L 280.077567 -151.099973 
L 279.328506 -148.026037 
L 278.690327 -144.952101 
L 278.127429 -141.878165 
L 277.611739 -138.804229 
L 277.125258 -135.730293 
L 276.660191 -132.656357 
L 276.217324 -129.582421 
L 275.803239 -126.508485 
L 275.426976 -123.434549 
L 275.09668 -120.360613 
L 274.816804 -117.286677 
L 274.586414 -114.212741 
L 274.398958 -111.138805 
L 274.243543 -108.064869 
L 274.107425 -104.990933 
L 273.978997 -101.916997 
L 273.850461 -98.843061 
L 273.719381 -95.769125 
L 273.588688 -92.695189 
L 273.465153 -89.621253 
L 273.356841 -86.547317 
L 273.270322 -83.47338 
L 273.208446 -80.399444 
L 273.169231 -77.325508 
L 273.14603 -74.251572 
L 273.128757 -71.177636 
L 273.105721 -68.1037 
L 273.065574 -65.029764 
L 272.998966 -61.955828 
L 272.899708 -58.881892 
L 272.765344 -55.807956 
L 272.597189 -52.73402 
L 272.399897 -49.660084 
L 272.180684 -46.586148 
L 271.948334 -43.512212 
L 271.712133 -40.438276 
L 271.480888 -37.36434 
L 271.262153 -34.290404 
L 271.061746 -31.216468 
z
" style="stroke: #e85d04; stroke-opacity: 0.5; stroke-width: 1.5"/>
    </defs>
    <g clip-path="url(#p9d93913702)">
     <use xlink:href="#m588a7076b1" x="0" y="392.4" style="fill: #e85d04; fill-opacity: 0.5; stroke: #e85d04; stroke-opacity: 0.5; stroke-width: 1.5"/>
    </g>
   </g>
   <g id="PolyCollection_3">
    <defs>
     <path id="m2125b1f96a" d="M 462.792932 -85.419752 
L 454.334341 -85.419752 
L 453.775557 -87.886322 
L 453.299096 -90.352892 
L 452.932949 -92.819462 
L 452.692303 -95.286032 
L 452.576478 -97.752602 
L 452.568578 -100.219172 
L 452.638019 -102.685742 
L 452.745465 -105.152312 
L 452.849134 -107.618882 
L 452.911177 -110.085452 
L 452.902852 -112.552022 
L 452.807604 -115.018592 
L 452.621615 -117.485162 
L 452.352014 -119.951732 
L 452.013308 -122.418302 
L 451.622928 -124.884872 
L 451.196782 -127.351442 
L 450.745593 -129.818012 
L 450.272526 -132.284582 
L 449.772258 -134.751152 
L 449.231379 -137.217722 
L 448.629769 -139.684292 
L 447.942589 -142.150862 
L 447.14252 -144.617432 
L 446.202114 -147.084002 
L 445.096266 -149.550572 
L 443.804921 -152.017142 
L 442.31617 -154.483712 
L 440.629678 -156.950282 
L 438.760169 -159.416852 
L 436.740362 -161.883422 
L 434.62255 -164.349992 
L 432.477917 -166.816562 
L 430.392912 -169.283132 
L 428.462397 -171.749702 
L 426.779966 -174.216272 
L 425.426506 -176.682842 
L 424.458669 -179.149411 
L 423.899276 -181.615981 
L 423.731527 -184.082551 
L 423.89843 -186.549121 
L 424.307923 -189.015691 
L 424.843182 -191.482261 
L 425.376567 -193.948831 
L 425.785019 -196.415401 
L 425.964417 -198.881971 
L 425.840701 -201.348541 
L 425.37622 -203.815111 
L 424.570739 -206.281681 
L 423.457575 -208.748251 
L 422.096167 -211.214821 
L 420.562913 -213.681391 
L 418.942133 -216.147961 
L 417.318636 -218.614531 
L 415.772703 -221.081101 
L 414.377459 -223.547671 
L 413.197952 -226.014241 
L 412.290859 -228.480811 
L 411.703686 -230.947381 
L 411.472727 -233.413951 
L 411.619653 -235.880521 
L 412.147301 -238.347091 
L 413.035865 -240.813661 
L 414.240936 -243.280231 
L 415.694686 -245.746801 
L 417.310913 -248.213371 
L 418.993697 -250.679941 
L 420.648498 -253.146511 
L 422.193757 -255.613081 
L 423.570836 -258.079651 
L 424.750411 -260.546221 
L 425.73427 -263.012791 
L 426.552449 -265.479361 
L 427.256608 -267.945931 
L 427.911165 -270.412501 
L 428.583882 -272.879071 
L 429.337369 -275.345641 
L 430.22247 -277.812211 
L 431.273946 -280.278781 
L 432.508407 -282.745351 
L 433.924193 -285.211921 
L 435.502774 -287.678491 
L 437.211349 -290.145061 
L 439.006327 -292.61163 
L 440.837499 -295.0782 
L 442.652634 -297.54477 
L 444.402196 -300.01134 
L 446.043741 -302.47791 
L 447.545521 -304.94448 
L 448.888791 -307.41105 
L 450.06849 -309.87762 
L 451.092164 -312.34419 
L 451.977306 -314.81076 
L 452.74758 -317.27733 
L 453.428595 -319.7439 
L 454.04397 -322.21047 
L 454.612326 -324.67704 
L 455.145638 -327.14361 
L 455.649038 -329.61018 
L 461.478234 -329.61018 
L 461.478234 -329.61018 
L 461.981635 -327.14361 
L 462.514947 -324.67704 
L 463.083303 -322.21047 
L 463.698678 -319.7439 
L 464.379693 -317.27733 
L 465.149967 -314.81076 
L 466.035109 -312.34419 
L 467.058783 -309.87762 
L 468.238482 -307.41105 
L 469.581752 -304.94448 
L 471.083531 -302.47791 
L 472.725077 -300.01134 
L 474.474638 -297.54477 
L 476.289774 -295.0782 
L 478.120945 -292.61163 
L 479.915924 -290.145061 
L 481.624499 -287.678491 
L 483.20308 -285.211921 
L 484.618865 -282.745351 
L 485.853327 -280.278781 
L 486.904802 -277.812211 
L 487.789904 -275.345641 
L 488.543391 -272.879071 
L 489.216108 -270.412501 
L 489.870664 -267.945931 
L 490.574823 -265.479361 
L 491.393002 -263.012791 
L 492.376861 -260.546221 
L 493.556436 -258.079651 
L 494.933515 -255.613081 
L 496.478775 -253.146511 
L 498.133575 -250.679941 
L 499.816359 -248.213371 
L 501.432586 -245.746801 
L 502.886337 -243.280231 
L 504.091407 -240.813661 
L 504.979972 -238.347091 
L 505.50762 -235.880521 
L 505.654545 -233.413951 
L 505.423587 -230.947381 
L 504.836414 -228.480811 
L 503.929321 -226.014241 
L 502.749814 -223.547671 
L 501.354569 -221.081101 
L 499.808637 -218.614531 
L 498.18514 -216.147961 
L 496.56436 -213.681391 
L 495.031106 -211.214821 
L 493.669698 -208.748251 
L 492.556533 -206.281681 
L 491.751053 -203.815111 
L 491.286572 -201.348541 
L 491.162856 -198.881971 
L 491.342254 -196.415401 
L 491.750705 -193.948831 
L 492.284091 -191.482261 
L 492.819349 -189.015691 
L 493.228843 -186.549121 
L 493.395745 -184.082551 
L 493.227997 -181.615981 
L 492.668604 -179.149411 
L 491.700767 -176.682842 
L 490.347306 -174.216272 
L 488.664876 -171.749702 
L 486.734361 -169.283132 
L 484.649355 -166.816562 
L 482.504723 -164.349992 
L 480.386911 -161.883422 
L 478.367104 -159.416852 
L 476.497594 -156.950282 
L 474.811103 -154.483712 
L 473.322352 -152.017142 
L 472.031007 -149.550572 
L 470.925158 -147.084002 
L 469.984753 -144.617432 
L 469.184684 -142.150862 
L 468.497503 -139.684292 
L 467.895894 -137.217722 
L 467.355014 -134.751152 
L 466.854747 -132.284582 
L 466.38168 -129.818012 
L 465.930491 -127.351442 
L 465.504344 -124.884872 
L 465.113964 -122.418302 
L 464.775259 -119.951732 
L 464.505657 -117.485162 
L 464.319669 -115.018592 
L 464.22442 -112.552022 
L 464.216096 -110.085452 
L 464.278138 -107.618882 
L 464.381808 -105.152312 
L 464.489254 -102.685742 
L 464.558695 -100.219172 
L 464.550795 -97.752602 
L 464.43497 -95.286032 
L 464.194323 -92.819462 
L 463.828177 -90.352892 
L 463.351715 -87.886322 
L 462.792932 -85.419752 
z
" style="stroke: #5e548e; stroke-opacity: 0.5; stroke-width: 1.5"/>
    </defs>
    <g clip-path="url(#p9d93913702)">
     <use xlink:href="#m2125b1f96a" x="0" y="392.4" style="fill: #5e548e; fill-opacity: 0.5; stroke: #5e548e; stroke-opacity: 0.5; stroke-width: 1.5"/>
    </g>
   </g>
   <g id="matplotlib.axis_1">
    <g id="xtick_1">
     <g id="line2d_1">
      <defs>
       <path id="mb336651d96" d="M 0 0 
L 0 4 
" style="stroke: #000000; stroke-width: 0.8"/>
      </defs>
      <g>
       <use xlink:href="#mb336651d96" x="81.836364" y="381.2" style="stroke: #000000; stroke-width: 0.8"/>
      </g>
     </g>
    </g>
    <g id="xtick_2">
     <g id="line2d_2">
      <g>
       <use xlink:href="#mb336651d96" x="270.2" y="381.2" style="stroke: #000000; stroke-width: 0.8"/>
      </g>
     </g>
    </g>
    <g id="xtick_3">
     <g id="line2d_3">
      <g>
       <use xlink:href="#mb336651d96" x="458.563636" y="381.2" style="stroke: #000000; stroke-width: 0.8"/>
      </g>
     </g>
    </g>
   </g>
   <g id="matplotlib.axis_2">
    <g id="ytick_1">
     <g id="line2d_4">
      <defs>
       <path id="m2c450b9f30" d="M 0 0 
L -4 0 
" style="stroke: #000000; stroke-width: 0.8"/>
      </defs>
      <g>
       <use xlink:href="#m2c450b9f30" x="11.2" y="337.2" style="stroke: #000000; stroke-width: 0.8"/>
      </g>
     </g>
    </g>
    <g id="ytick_2">
     <g id="line2d_5">
      <g>
       <use xlink:href="#m2c450b9f30" x="11.2" y="227.2" style="stroke: #000000; stroke-width: 0.8"/>
      </g>
     </g>
    </g>
    <g id="ytick_3">
     <g id="line2d_6">
      <g>
       <use xlink:href="#m2c450b9f30" x="11.2" y="117.2" style="stroke: #000000; stroke-width: 0.8"/>
      </g>
     </g>
    </g>
    <g id="ytick_4">
     <g id="line2d_7">
      <g>
       <use xlink:href="#m2c450b9f30" x="11.2" y="7.2" style="stroke: #000000; stroke-width: 0.8"/>
      </g>
     </g>
    </g>
   </g>
   <g id="LineCollection_1">
    <path d="M 58.290909 152.492625 
L 105.381818 152.492625 
" clip-path="url(#p9d93913702)" style="fill: none; stroke: #001219; stroke-width: 1.5"/>
    <path d="M 246.654545 155.20449 
L 293.745455 155.20449 
" clip-path="url(#p9d93913702)" style="fill: none; stroke: #001219; stroke-width: 1.5"/>
    <path d="M 435.018182 167.085149 
L 482.109091 167.085149 
" clip-path="url(#p9d93913702)" style="fill: none; stroke: #001219; stroke-width: 1.5"/>
   </g>
   <g id="line2d_8">
    <path d="M 11.2 151.594492 
L 529.2 151.594492 
" clip-path="url(#p9d93913702)" style="fill: none; stroke-dasharray: 9.25,4; stroke-dashoffset: 0; stroke: #000000; stroke-width: 2.5"/>
   </g>
   <g id="patch_3">
    <path d="M 11.2 381.2 
L 11.2 7.2 
" style="fill: none; stroke: #000000; stroke-width: 1.5; stroke-linejoin: miter; stroke-linecap: square"/>
   </g>
   <g id="patch_4">
    <path d="M 11.2 381.2 
L 529.2 381.2 
" style="fill: none; stroke: #000000; stroke-width: 1.5; stroke-linejoin: miter; stroke-linecap: square"/>
   </g>
  </g>
 </g>
 <defs>
  <clipPath id="p9d93913702">
   <rect x="11.2" y="7.2" width="518" height="374"/>
  </clipPath>
 </defs>
</svg>
